<svg xmlns="http://www.w3.org/2000/svg" xmlns:xlink="http://www.w3.org/1999/xlink" width="1328" height="1742.28" viewBox="0 0 1328 1742.28">
  <defs>
    <linearGradient id="linear-gradient" x1="0.556" y1="0.166" x2="0.606" y2="0.931" gradientUnits="objectBoundingBox">
      <stop offset="0" stop-color="#af4c4e"/>
      <stop offset="1" stop-color="#652425"/>
    </linearGradient>
  </defs>
  <path id="Trazado_186615" data-name="Trazado 186615" d="M7354.8,1205.966l.6,1549.544h-.3v192.737c-3.4-3.115-6.537-6.462-10.244-9.305-27.759-21.293-53.8-44.47-83.848-63.293-59.57-37.315-125.628-43.742-195.051-19.681q-36.242,12.56-71.533,26.96c-43.54,17.815-88.751,28.4-137.931,26.031-30.782-1.482-57.963-9.358-81.658-25.881-35.463-24.732-60.156-56.774-88.1-86.66-14.805-15.837-29.92-31.6-46.512-46.15-34.122-29.916-75.575-43.614-126.478-39.886-54.756,4.011-100.5,19.233-133.554,57.28-27.583,31.748-55.53,63.429-85.943,93.32-49.228,48.382-113.511,64.66-187.856,52.176-26.615-4.468-52.292-12.721-78.4-19.245l-.6-1687.944Z" transform="translate(-6027.401 -1205.966)" opacity="0.043" fill="url(#linear-gradient)"/>
</svg>
