<svg xmlns="http://www.w3.org/2000/svg" width="607" height="222.073" viewBox="0 0 607 222.073"><g transform="translate(-813 -1357)"><g transform="translate(332 -1113)"><g transform="translate(500.123 2470)" fill="#d1ffee"><path d="M 51.81707000732422 103.1341400146484 C 44.88908386230469 103.1341400146484 38.16860198974609 101.7773895263672 31.84230995178223 99.10159301757812 C 25.73156356811523 96.51696014404297 20.24345588684082 92.81674957275391 15.53042984008789 88.10372161865234 C 10.81739044189453 83.39068603515625 7.117176532745361 77.90258026123047 4.532549858093262 71.79183959960938 C 1.856750011444092 65.46553802490234 0.5000033378601074 58.74505615234375 0.5000033378601074 51.81707000732422 C 0.5000033378601074 44.88909530639648 1.856750011444092 38.16860198974609 4.532549858093262 31.84230995178223 C 7.117176532745361 25.73156356811523 10.81739044189453 20.24345588684082 15.53042984008789 15.53042984008789 C 20.24345588684082 10.81739044189453 25.73156356811523 7.117176532745361 31.84230995178223 4.532549858093262 C 38.16860198974609 1.856750011444092 44.88909530639648 0.5000033378601074 51.81707000732422 0.5000033378601074 C 58.74505615234375 0.5000033378601074 65.46553802490234 1.856750011444092 71.79183959960938 4.532549858093262 C 77.90258026123047 7.117176532745361 83.39068603515625 10.81739044189453 88.10372161865234 15.53042984008789 C 92.81674957275391 20.24345588684082 96.51696014404297 25.73156356811523 99.10159301757812 31.84230995178223 C 101.7773895263672 38.16860198974609 103.1341400146484 44.88908386230469 103.1341400146484 51.81707000732422 C 103.1341400146484 58.74505615234375 101.7773895263672 65.46553802490234 99.10159301757812 71.79183959960938 C 96.51696014404297 77.90258026123047 92.81674957275391 83.39068603515625 88.10372161865234 88.10372161865234 C 83.39068603515625 92.81674957275391 77.90258026123047 96.51696014404297 71.79183959960938 99.10159301757812 C 65.46553802490234 101.7773895263672 58.74505615234375 103.1341400146484 51.81707000732422 103.1341400146484 Z" stroke="none"/><path d="M 51.81707000732422 1 C 44.95637130737305 1 38.30142974853516 2.343452453613281 32.03708648681641 4.9930419921875 C 25.98593902587891 7.552467346191406 20.55125427246094 11.21669769287109 15.88397216796875 15.88397216796875 C 11.21669769287109 20.55125427246094 7.552467346191406 25.98593902587891 4.9930419921875 32.03708648681641 C 2.343452453613281 38.30142974853516 1 44.95637130737305 1 51.81707000732422 C 1 58.67776870727539 2.343452453613281 65.33272552490234 4.9930419921875 71.59706878662109 C 7.552467346191406 77.64820098876953 11.21669769287109 83.08290100097656 15.88397216796875 87.75016784667969 C 20.55125427246094 92.41744232177734 25.98593902587891 96.08168029785156 32.03708648681641 98.64109802246094 C 38.30142974853516 101.2906875610352 44.95637130737305 102.6341400146484 51.81707000732422 102.6341400146484 C 58.67776870727539 102.6341400146484 65.33272552490234 101.2906875610352 71.59706878662109 98.64109802246094 C 77.64820098876953 96.08168029785156 83.08290100097656 92.41744232177734 87.75016784667969 87.75016784667969 C 92.41744232177734 83.08290100097656 96.08168029785156 77.64820098876953 98.64109802246094 71.59706878662109 C 101.2906875610352 65.33272552490234 102.6341400146484 58.67776870727539 102.6341400146484 51.81707000732422 C 102.6341400146484 44.95637130737305 101.2906875610352 38.30142974853516 98.64109802246094 32.03708648681641 C 96.08168029785156 25.98593902587891 92.41744232177734 20.55125427246094 87.75016784667969 15.88397216796875 C 83.08290100097656 11.21669769287109 77.64820098876953 7.552467346191406 71.59706878662109 4.9930419921875 C 65.33272552490234 2.343452453613281 58.67776870727539 1 51.81707000732422 1 M 51.81707000732422 0 C 80.43486022949219 0 103.6341400146484 23.19929504394531 103.6341400146484 51.81707000732422 C 103.6341400146484 80.43486022949219 80.43486022949219 103.6341400146484 51.81707000732422 103.6341400146484 C 23.19929504394531 103.6341400146484 0 80.43486022949219 0 51.81707000732422 C 0 23.19929504394531 23.19929504394531 0 51.81707000732422 0 Z" stroke="none" fill="#1ec488"/></g><g transform="translate(651.873 2470)" fill="#ffe3bf"><path d="M 51.81707000732422 103.1341400146484 C 44.88908386230469 103.1341400146484 38.16860198974609 101.7773895263672 31.84230995178223 99.10159301757812 C 25.73156356811523 96.51696014404297 20.24345588684082 92.81674957275391 15.53042984008789 88.10372161865234 C 10.81739044189453 83.39068603515625 7.117176532745361 77.90258026123047 4.532549858093262 71.79183959960938 C 1.856750011444092 65.46553802490234 0.5000033378601074 58.74505615234375 0.5000033378601074 51.81707000732422 C 0.5000033378601074 44.88909530639648 1.856750011444092 38.16860198974609 4.532549858093262 31.84230995178223 C 7.117176532745361 25.73156356811523 10.81739044189453 20.24345588684082 15.53042984008789 15.53042984008789 C 20.24345588684082 10.81739044189453 25.73156356811523 7.117176532745361 31.84230995178223 4.532549858093262 C 38.16860198974609 1.856750011444092 44.88909530639648 0.5000033378601074 51.81707000732422 0.5000033378601074 C 58.74505615234375 0.5000033378601074 65.46553802490234 1.856750011444092 71.79183959960938 4.532549858093262 C 77.90258026123047 7.117176532745361 83.39068603515625 10.81739044189453 88.10372161865234 15.53042984008789 C 92.81674957275391 20.24345588684082 96.51696014404297 25.73156356811523 99.10159301757812 31.84230995178223 C 101.7773895263672 38.16860198974609 103.1341400146484 44.88908386230469 103.1341400146484 51.81707000732422 C 103.1341400146484 58.74505615234375 101.7773895263672 65.46553802490234 99.10159301757812 71.79183959960938 C 96.51696014404297 77.90258026123047 92.81674957275391 83.39068603515625 88.10372161865234 88.10372161865234 C 83.39068603515625 92.81674957275391 77.90258026123047 96.51696014404297 71.79183959960938 99.10159301757812 C 65.46553802490234 101.7773895263672 58.74505615234375 103.1341400146484 51.81707000732422 103.1341400146484 Z" stroke="none"/><path d="M 51.81707000732422 1 C 44.95637130737305 1 38.30142974853516 2.343452453613281 32.03708648681641 4.9930419921875 C 25.98593902587891 7.552467346191406 20.55125427246094 11.21669769287109 15.88397216796875 15.88397216796875 C 11.21669769287109 20.55125427246094 7.552467346191406 25.98593902587891 4.9930419921875 32.03708648681641 C 2.343452453613281 38.30142974853516 1 44.95637130737305 1 51.81707000732422 C 1 58.67776870727539 2.343452453613281 65.33272552490234 4.9930419921875 71.59706878662109 C 7.552467346191406 77.64820098876953 11.21669769287109 83.08290100097656 15.88397216796875 87.75016784667969 C 20.55125427246094 92.41744232177734 25.98593902587891 96.08168029785156 32.03708648681641 98.64109802246094 C 38.30142974853516 101.2906875610352 44.95637130737305 102.6341400146484 51.81707000732422 102.6341400146484 C 58.67776870727539 102.6341400146484 65.33272552490234 101.2906875610352 71.59706878662109 98.64109802246094 C 77.64820098876953 96.08168029785156 83.08290100097656 92.41744232177734 87.75016784667969 87.75016784667969 C 92.41744232177734 83.08290100097656 96.08168029785156 77.64820098876953 98.64109802246094 71.59706878662109 C 101.2906875610352 65.33272552490234 102.6341400146484 58.67776870727539 102.6341400146484 51.81707000732422 C 102.6341400146484 44.95637130737305 101.2906875610352 38.30142974853516 98.64109802246094 32.03708648681641 C 96.08168029785156 25.98593902587891 92.41744232177734 20.55125427246094 87.75016784667969 15.88397216796875 C 83.08290100097656 11.21669769287109 77.64820098876953 7.552467346191406 71.59706878662109 4.9930419921875 C 65.33272552490234 2.343452453613281 58.67776870727539 1 51.81707000732422 1 M 51.81707000732422 0 C 80.43486022949219 0 103.6341400146484 23.19929504394531 103.6341400146484 51.81707000732422 C 103.6341400146484 80.43486022949219 80.43486022949219 103.6341400146484 51.81707000732422 103.6341400146484 C 23.19929504394531 103.6341400146484 0 80.43486022949219 0 51.81707000732422 C 0 23.19929504394531 23.19929504394531 0 51.81707000732422 0 Z" stroke="none" fill="#ff8f00"/></g><g transform="translate(807.941 2470)" fill="#c5d1fa"><path d="M 51.81707000732422 103.1341400146484 C 44.88908386230469 103.1341400146484 38.16860198974609 101.7773895263672 31.84230995178223 99.10159301757812 C 25.73156356811523 96.51696014404297 20.24345588684082 92.81674957275391 15.53042984008789 88.10372161865234 C 10.81739044189453 83.39068603515625 7.117176532745361 77.90258026123047 4.532549858093262 71.79183959960938 C 1.856750011444092 65.46553802490234 0.5000033378601074 58.74505615234375 0.5000033378601074 51.81707000732422 C 0.5000033378601074 44.88909530639648 1.856750011444092 38.16860198974609 4.532549858093262 31.84230995178223 C 7.117176532745361 25.73156356811523 10.81739044189453 20.24345588684082 15.53042984008789 15.53042984008789 C 20.24345588684082 10.81739044189453 25.73156356811523 7.117176532745361 31.84230995178223 4.532549858093262 C 38.16860198974609 1.856750011444092 44.88909530639648 0.5000033378601074 51.81707000732422 0.5000033378601074 C 58.74505615234375 0.5000033378601074 65.46553802490234 1.856750011444092 71.79183959960938 4.532549858093262 C 77.90258026123047 7.117176532745361 83.39068603515625 10.81739044189453 88.10372161865234 15.53042984008789 C 92.81674957275391 20.24345588684082 96.51696014404297 25.73156356811523 99.10159301757812 31.84230995178223 C 101.7773895263672 38.16860198974609 103.1341400146484 44.88908386230469 103.1341400146484 51.81707000732422 C 103.1341400146484 58.74505615234375 101.7773895263672 65.46553802490234 99.10159301757812 71.79183959960938 C 96.51696014404297 77.90258026123047 92.81674957275391 83.39068603515625 88.10372161865234 88.10372161865234 C 83.39068603515625 92.81674957275391 77.90258026123047 96.51696014404297 71.79183959960938 99.10159301757812 C 65.46553802490234 101.7773895263672 58.74505615234375 103.1341400146484 51.81707000732422 103.1341400146484 Z" stroke="none"/><path d="M 51.81707000732422 1 C 44.95637130737305 1 38.30142974853516 2.343452453613281 32.03708648681641 4.9930419921875 C 25.98593902587891 7.552467346191406 20.55125427246094 11.21669769287109 15.88397216796875 15.88397216796875 C 11.21669769287109 20.55125427246094 7.552467346191406 25.98593902587891 4.9930419921875 32.03708648681641 C 2.343452453613281 38.30142974853516 1 44.95637130737305 1 51.81707000732422 C 1 58.67776870727539 2.343452453613281 65.33272552490234 4.9930419921875 71.59706878662109 C 7.552467346191406 77.64820098876953 11.21669769287109 83.08290100097656 15.88397216796875 87.75016784667969 C 20.55125427246094 92.41744232177734 25.98593902587891 96.08168029785156 32.03708648681641 98.64109802246094 C 38.30142974853516 101.2906875610352 44.95637130737305 102.6341400146484 51.81707000732422 102.6341400146484 C 58.67776870727539 102.6341400146484 65.33272552490234 101.2906875610352 71.59706878662109 98.64109802246094 C 77.64820098876953 96.08168029785156 83.08290100097656 92.41744232177734 87.75016784667969 87.75016784667969 C 92.41744232177734 83.08290100097656 96.08168029785156 77.64820098876953 98.64109802246094 71.59706878662109 C 101.2906875610352 65.33272552490234 102.6341400146484 58.67776870727539 102.6341400146484 51.81707000732422 C 102.6341400146484 44.95637130737305 101.2906875610352 38.30142974853516 98.64109802246094 32.03708648681641 C 96.08168029785156 25.98593902587891 92.41744232177734 20.55125427246094 87.75016784667969 15.88397216796875 C 83.08290100097656 11.21669769287109 77.64820098876953 7.552467346191406 71.59706878662109 4.9930419921875 C 65.33272552490234 2.343452453613281 58.67776870727539 1 51.81707000732422 1 M 51.81707000732422 0 C 80.43486022949219 0 103.6341400146484 23.19929504394531 103.6341400146484 51.81707000732422 C 103.6341400146484 80.43486022949219 80.43486022949219 103.6341400146484 51.81707000732422 103.6341400146484 C 23.19929504394531 103.6341400146484 0 80.43486022949219 0 51.81707000732422 C 0 23.19929504394531 23.19929504394531 0 51.81707000732422 0 Z" stroke="none" fill="#2649bf"/></g><g transform="translate(963.392 2470)" fill="#f9d5fd"><path d="M 51.81707000732422 103.1341400146484 C 44.88908386230469 103.1341400146484 38.16860198974609 101.7773895263672 31.84230995178223 99.10159301757812 C 25.73156356811523 96.51696014404297 20.24345588684082 92.81674957275391 15.53042984008789 88.10372161865234 C 10.81739044189453 83.39068603515625 7.117176532745361 77.90258026123047 4.532549858093262 71.79183959960938 C 1.856750011444092 65.46553802490234 0.5000033378601074 58.74505615234375 0.5000033378601074 51.81707000732422 C 0.5000033378601074 44.88909530639648 1.856750011444092 38.16860198974609 4.532549858093262 31.84230995178223 C 7.117176532745361 25.73156356811523 10.81739044189453 20.24345588684082 15.53042984008789 15.53042984008789 C 20.24345588684082 10.81739044189453 25.73156356811523 7.117176532745361 31.84230995178223 4.532549858093262 C 38.16860198974609 1.856750011444092 44.88909530639648 0.5000033378601074 51.81707000732422 0.5000033378601074 C 58.74505615234375 0.5000033378601074 65.46553802490234 1.856750011444092 71.79183959960938 4.532549858093262 C 77.90258026123047 7.117176532745361 83.39068603515625 10.81739044189453 88.10372161865234 15.53042984008789 C 92.81674957275391 20.24345588684082 96.51696014404297 25.73156356811523 99.10159301757812 31.84230995178223 C 101.7773895263672 38.16860198974609 103.1341400146484 44.88908386230469 103.1341400146484 51.81707000732422 C 103.1341400146484 58.74505615234375 101.7773895263672 65.46553802490234 99.10159301757812 71.79183959960938 C 96.51696014404297 77.90258026123047 92.81674957275391 83.39068603515625 88.10372161865234 88.10372161865234 C 83.39068603515625 92.81674957275391 77.90258026123047 96.51696014404297 71.79183959960938 99.10159301757812 C 65.46553802490234 101.7773895263672 58.74505615234375 103.1341400146484 51.81707000732422 103.1341400146484 Z" stroke="none"/><path d="M 51.81707000732422 1 C 44.95637130737305 1 38.30142974853516 2.343452453613281 32.03708648681641 4.9930419921875 C 25.98593902587891 7.552467346191406 20.55125427246094 11.21669769287109 15.88397216796875 15.88397216796875 C 11.21669769287109 20.55125427246094 7.552467346191406 25.98593902587891 4.9930419921875 32.03708648681641 C 2.343452453613281 38.30142974853516 1 44.95637130737305 1 51.81707000732422 C 1 58.67776870727539 2.343452453613281 65.33272552490234 4.9930419921875 71.59706878662109 C 7.552467346191406 77.64820098876953 11.21669769287109 83.08290100097656 15.88397216796875 87.75016784667969 C 20.55125427246094 92.41744232177734 25.98593902587891 96.08168029785156 32.03708648681641 98.64109802246094 C 38.30142974853516 101.2906875610352 44.95637130737305 102.6341400146484 51.81707000732422 102.6341400146484 C 58.67776870727539 102.6341400146484 65.33272552490234 101.2906875610352 71.59706878662109 98.64109802246094 C 77.64820098876953 96.08168029785156 83.08290100097656 92.41744232177734 87.75016784667969 87.75016784667969 C 92.41744232177734 83.08290100097656 96.08168029785156 77.64820098876953 98.64109802246094 71.59706878662109 C 101.2906875610352 65.33272552490234 102.6341400146484 58.67776870727539 102.6341400146484 51.81707000732422 C 102.6341400146484 44.95637130737305 101.2906875610352 38.30142974853516 98.64109802246094 32.03708648681641 C 96.08168029785156 25.98593902587891 92.41744232177734 20.55125427246094 87.75016784667969 15.88397216796875 C 83.08290100097656 11.21669769287109 77.64820098876953 7.552467346191406 71.59706878662109 4.9930419921875 C 65.33272552490234 2.343452453613281 58.67776870727539 1 51.81707000732422 1 M 51.81707000732422 0 C 80.43486022949219 0 103.6341400146484 23.19929504394531 103.6341400146484 51.81707000732422 C 103.6341400146484 80.43486022949219 80.43486022949219 103.6341400146484 51.81707000732422 103.6341400146484 C 23.19929504394531 103.6341400146484 0 80.43486022949219 0 51.81707000732422 C 0 23.19929504394531 23.19929504394531 0 51.81707000732422 0 Z" stroke="none" fill="#9026bf"/></g><path d="M4.712-5.9a4.626,4.626,0,0,1-2.657-.732A2.937,2.937,0,0,1,.763-8.68l2.054-.47A1.744,1.744,0,0,0,3.45-7.941a2.1,2.1,0,0,0,1.342.421,1.733,1.733,0,0,0,1.047-.295,1,1,0,0,0,.4-.871A.929.929,0,0,0,5.9-9.4a2.208,2.208,0,0,0-.673-.434q-.335-.129-1.077-.355-.1-.033-.146-.046-.378-.119-.61-.2t-.573-.222a3.817,3.817,0,0,1-.557-.278,4.076,4.076,0,0,1-.461-.345,1.805,1.805,0,0,1-.384-.441,2.341,2.341,0,0,1-.232-.55,2.427,2.427,0,0,1-.093-.683,2.563,2.563,0,0,1,.447-1.508,2.739,2.739,0,0,1,1.206-.961,4.389,4.389,0,0,1,1.726-.321,5.453,5.453,0,0,1,1.249.139,4.375,4.375,0,0,1,1.117.427,2.735,2.735,0,0,1,.891.789,2.965,2.965,0,0,1,.507,1.163l-1.922.477a1.557,1.557,0,0,0-1.723-1.372,1.886,1.886,0,0,0-1.067.278.943.943,0,0,0-.417.842q0,.523.7.848a10.368,10.368,0,0,0,1.332.457q.391.119.636.2t.616.232a4.282,4.282,0,0,1,.6.295,4.462,4.462,0,0,1,.5.368,1.981,1.981,0,0,1,.427.477,2.58,2.58,0,0,1,.262.593,2.479,2.479,0,0,1,.106.739A2.9,2.9,0,0,1,8.1-7.706a2.351,2.351,0,0,1-.527.815,3.059,3.059,0,0,1-.792.56A3.842,3.842,0,0,1,5.805-6,5.6,5.6,0,0,1,4.712-5.9Zm5.414-.133V-15.6h1.988v9.575Zm15.433,0H23.578l-.63-7.216L20.523-6.029H19.237l-2.425-7.216-.636,7.216H14.188l.8-9.575h2.836l2.041,6.01,2.067-6.01h2.836ZM31.622-15.6a2.882,2.882,0,0,1,2.207.891,3.1,3.1,0,0,1,.835,2.2,3.024,3.024,0,0,1-.828,2.19,2.934,2.934,0,0,1-2.213.858H29.628v3.433H27.64V-15.6Zm-.331,4.48a1.461,1.461,0,0,0,1.093-.374,1.424,1.424,0,0,0,.364-1.037,1.412,1.412,0,0,0-.368-1.024,1.448,1.448,0,0,0-1.09-.381H29.628v2.816Zm7.031,3.34h3v1.756h-4.99V-15.6h1.988Zm10.072-6.07H44.842v2.174H47.99v1.73H44.842v2.167h3.552v1.756H42.841V-15.6h5.553Z" transform="translate(527.59 2532.165)" fill="#00223d"/><path d="M2.009-6.029V-15.6H5.474a5.4,5.4,0,0,1,2,.345,3.68,3.68,0,0,1,1.431.977,4.252,4.252,0,0,1,.848,1.508,6.224,6.224,0,0,1,.288,1.955,6.247,6.247,0,0,1-.288,1.961A4.252,4.252,0,0,1,8.9-7.351a3.68,3.68,0,0,1-1.431.977,5.4,5.4,0,0,1-2,.345ZM4-7.785H5.375A2.352,2.352,0,0,0,7.31-8.564a3.49,3.49,0,0,0,.636-2.256,3.49,3.49,0,0,0-.636-2.256,2.352,2.352,0,0,0-1.935-.779H4ZM16.143-5.9a5.2,5.2,0,0,1-2.515-.6,4.347,4.347,0,0,1-1.746-1.726,5.191,5.191,0,0,1-.636-2.6,5.187,5.187,0,0,1,.636-2.6,4.331,4.331,0,0,1,1.746-1.72,5.228,5.228,0,0,1,2.515-.6,5.209,5.209,0,0,1,2.511.6,4.337,4.337,0,0,1,1.743,1.72,5.187,5.187,0,0,1,.636,2.6,5.191,5.191,0,0,1-.636,2.6A4.347,4.347,0,0,1,18.651-6.5,5.191,5.191,0,0,1,16.143-5.9ZM14.049-8.554a2.812,2.812,0,0,0,2.094.835,2.807,2.807,0,0,0,2.094-.838,3.093,3.093,0,0,0,.822-2.263,3.072,3.072,0,0,0-.822-2.253,2.812,2.812,0,0,0-2.094-.835,2.812,2.812,0,0,0-2.094.835,3.072,3.072,0,0,0-.822,2.253A3.1,3.1,0,0,0,14.049-8.554ZM28-11.085a2.24,2.24,0,0,1,1.8,2.372,2.571,2.571,0,0,1-.762,1.965,3.148,3.148,0,0,1-2.24.719H22.862V-15.6h3.1a3.513,3.513,0,0,1,2.342.692,2.4,2.4,0,0,1,.812,1.932,2.253,2.253,0,0,1-.282,1.136A1.855,1.855,0,0,1,28-11.085Zm-2.021-2.869H24.778V-11.7H26.07a1.211,1.211,0,0,0,.914-.318,1.156,1.156,0,0,0,.3-.835,1.028,1.028,0,0,0-.331-.8A1.4,1.4,0,0,0,25.984-13.955Zm.451,6.222a1.527,1.527,0,0,0,1.1-.338,1.149,1.149,0,0,0,.348-.861,1.2,1.2,0,0,0-.351-.888,1.554,1.554,0,0,0-1.133-.351H24.778v2.439Zm7.13-.053h3v1.756h-4.99V-15.6h1.988Zm10.072-6.07H40.085v2.174h3.148v1.73H40.085v2.167h3.552v1.756H38.084V-15.6h5.553Z" transform="translate(681.33 2532.165)" fill="#00223d"/><path d="M6.957-15.522v1.749H4.684v7.826H2.716v-7.826H.43v-1.749Zm6.56,9.575-2.492-4.214h-.577v4.214H8.461v-9.575h3.472a4.016,4.016,0,0,1,1.392.222,2.406,2.406,0,0,1,.964.616,2.639,2.639,0,0,1,.543.9,3.308,3.308,0,0,1,.182,1.12,2.338,2.338,0,0,1-.523,1.574,2.638,2.638,0,0,1-1.5.825L15.87-5.947Zm-3.068-7.925v2.286h1.173q1.491,0,1.491-1.14a1.038,1.038,0,0,0-.364-.842,1.733,1.733,0,0,0-1.127-.3Zm6.878,7.925v-9.575h1.988v9.575Zm8.442-9.575a2.882,2.882,0,0,1,2.207.891,3.1,3.1,0,0,1,.835,2.2,3.024,3.024,0,0,1-.828,2.19,2.934,2.934,0,0,1-2.213.858H23.775v3.433H21.787v-9.575Zm-.331,4.48a1.461,1.461,0,0,0,1.093-.374,1.424,1.424,0,0,0,.364-1.037,1.412,1.412,0,0,0-.368-1.024,1.448,1.448,0,0,0-1.09-.381H23.775v2.816ZM32.469-7.7h3v1.756h-4.99v-9.575h1.988Zm10.072-6.07H38.989V-11.6h3.148v1.73H38.989V-7.7h3.552v1.756H36.988v-9.575h5.553Z" transform="translate(838.003 2532.082)" fill="#00223d"/><path d="M2.009-6.029V-15.6H5.474a5.4,5.4,0,0,1,2,.345,3.68,3.68,0,0,1,1.431.977,4.252,4.252,0,0,1,.848,1.508,6.224,6.224,0,0,1,.288,1.955,6.247,6.247,0,0,1-.288,1.961A4.252,4.252,0,0,1,8.9-7.351a3.68,3.68,0,0,1-1.431.977,5.4,5.4,0,0,1-2,.345ZM4-7.785H5.375A2.352,2.352,0,0,0,7.31-8.564a3.49,3.49,0,0,0,.636-2.256,3.49,3.49,0,0,0-.636-2.256,2.352,2.352,0,0,0-1.935-.779H4ZM17.833-6.029,17.137-8H13.115l-.7,1.975H10.385L13.91-15.6h2.432l3.525,9.575ZM13.7-9.667h2.856l-1.425-4.062ZM26.043-15.6v1.749H23.77v7.826H21.8v-7.826H19.516V-15.6Zm1.5,9.575V-15.6h1.988v9.575ZM38.1-15.6h2.114L36.672-6.029H34.485L30.967-15.6h2.107l2.511,7.256ZM45.413-5.9A5.2,5.2,0,0,1,42.9-6.5a4.347,4.347,0,0,1-1.746-1.726,5.192,5.192,0,0,1-.636-2.6,5.187,5.187,0,0,1,.636-2.6,4.331,4.331,0,0,1,1.746-1.72,5.228,5.228,0,0,1,2.515-.6,5.209,5.209,0,0,1,2.511.6,4.337,4.337,0,0,1,1.743,1.72,5.187,5.187,0,0,1,.636,2.6,5.191,5.191,0,0,1-.636,2.6A4.347,4.347,0,0,1,47.921-6.5,5.191,5.191,0,0,1,45.413-5.9ZM43.319-8.554a2.812,2.812,0,0,0,2.094.835,2.807,2.807,0,0,0,2.094-.838,3.093,3.093,0,0,0,.822-2.263,3.072,3.072,0,0,0-.822-2.253,2.812,2.812,0,0,0-2.094-.835,2.812,2.812,0,0,0-2.094.835A3.072,3.072,0,0,0,42.5-10.82,3.1,3.1,0,0,0,43.319-8.554Z" transform="translate(989.765 2532.165)" fill="#00223d"/><g transform="translate(481 2585.667)" fill="none" stroke="#1ec488" stroke-width="1"><circle cx="42.321" cy="42.321" r="42.321" stroke="none"/><circle cx="42.321" cy="42.321" r="41.821" fill="none"/></g><g transform="translate(532.994 2585.667)" fill="none" stroke="#1ec488" stroke-width="1"><circle cx="42.321" cy="42.321" r="42.321" stroke="none"/><circle cx="42.321" cy="42.321" r="41.821" fill="none"/></g><text transform="translate(507.602 2631.941)" fill="#00223d" font-size="13" font-family="SegoeUI-Bold, Segoe UI" font-weight="700"><tspan x="0" y="0">A</tspan></text><text transform="translate(581.361 2631.941)" fill="#00223d" font-size="13" font-family="SegoeUI-Bold, Segoe UI" font-weight="700"><tspan x="0" y="0">B</tspan></text><circle cx="4.837" cy="4.837" r="4.837" transform="translate(540.249 2623.151)" fill="#2649bf"/><ellipse cx="4.232" cy="4.837" rx="4.232" ry="4.837" transform="translate(552.341 2623.151)" fill="#ff0505"/><g transform="translate(635.773 2585.667)" fill="none" stroke="#ff8f00" stroke-width="1"><ellipse cx="41.716" cy="42.321" rx="41.716" ry="42.321" stroke="none"/><ellipse cx="41.716" cy="42.321" rx="41.216" ry="41.821" fill="none"/></g><g transform="translate(687.767 2585.667)" fill="none" stroke="#ff8f00" stroke-width="1"><circle cx="42.321" cy="42.321" r="42.321" stroke="none"/><circle cx="42.321" cy="42.321" r="41.821" fill="none"/></g><text transform="translate(662.375 2631.941)" fill="#00223d" font-size="13" font-family="SegoeUI-Bold, Segoe UI" font-weight="700"><tspan x="0" y="0">A</tspan></text><text transform="translate(736.133 2631.941)" fill="#00223d" font-size="13" font-family="SegoeUI-Bold, Segoe UI" font-weight="700"><tspan x="0" y="0">B</tspan></text><circle cx="4.232" cy="4.232" r="4.232" transform="translate(695.022 2615.896)" fill="#2649bf"/><circle cx="4.232" cy="4.232" r="4.232" transform="translate(705.904 2615.896)" fill="#ff0505"/><circle cx="4.232" cy="4.232" r="4.232" transform="translate(695.022 2629.197)" fill="#2649bf"/><circle cx="4.232" cy="4.232" r="4.232" transform="translate(705.904 2629.197)" fill="#ff0505"/><g transform="translate(789.337 2585.667)" fill="none" stroke="#955be5" stroke-width="1"><circle cx="42.321" cy="42.321" r="42.321" stroke="none"/><circle cx="42.321" cy="42.321" r="41.821" fill="none"/></g><g transform="translate(841.331 2585.667)" fill="none" stroke="#955be5" stroke-width="1"><circle cx="42.321" cy="42.321" r="42.321" stroke="none"/><circle cx="42.321" cy="42.321" r="41.821" fill="none"/></g><text transform="translate(817.147 2631.941)" fill="#00223d" font-size="13" font-family="SegoeUI-Bold, Segoe UI" font-weight="700"><tspan x="0" y="0">A</tspan></text><text transform="translate(889.697 2631.941)" fill="#00223d" font-size="13" font-family="SegoeUI-Bold, Segoe UI" font-weight="700"><tspan x="0" y="0">B</tspan></text><ellipse cx="4.232" cy="4.837" rx="4.232" ry="4.837" transform="translate(848.586 2623.151)" fill="#2649bf"/><ellipse cx="4.232" cy="4.837" rx="4.232" ry="4.837" transform="translate(859.468 2623.151)" fill="#ff0505"/><circle cx="4.232" cy="4.232" r="4.232" transform="translate(848.586 2636.452)" fill="#2649bf"/><circle cx="4.232" cy="4.232" r="4.232" transform="translate(859.468 2636.452)" fill="#ff0505"/><circle cx="4.232" cy="4.232" r="4.232" transform="translate(848.586 2611.059)" fill="#2649bf"/><circle cx="4.232" cy="4.232" r="4.232" transform="translate(859.468 2611.059)" fill="#ff0505"/><g transform="translate(943.652 2611.263)"><path d="M5.842-5.9a5.2,5.2,0,0,1-2.515-.6A4.347,4.347,0,0,1,1.581-8.223a5.191,5.191,0,0,1-.636-2.6,5.187,5.187,0,0,1,.636-2.6,4.331,4.331,0,0,1,1.746-1.72,5.228,5.228,0,0,1,2.515-.6,5.209,5.209,0,0,1,2.511.6,4.337,4.337,0,0,1,1.743,1.72,5.187,5.187,0,0,1,.636,2.6,5.191,5.191,0,0,1-.636,2.6A4.347,4.347,0,0,1,8.35-6.5,5.191,5.191,0,0,1,5.842-5.9ZM3.748-8.554a2.812,2.812,0,0,0,2.094.835,2.807,2.807,0,0,0,2.094-.838,3.093,3.093,0,0,0,.822-2.263,3.072,3.072,0,0,0-.822-2.253,2.812,2.812,0,0,0-2.094-.835,2.812,2.812,0,0,0-2.094.835,3.072,3.072,0,0,0-.822,2.253A3.1,3.1,0,0,0,3.748-8.554Z" transform="translate(8.274 27.003)" fill="#00223d"/><path d="M4.712-5.9a4.626,4.626,0,0,1-2.657-.732A2.937,2.937,0,0,1,.763-8.68l2.054-.47A1.744,1.744,0,0,0,3.45-7.941a2.1,2.1,0,0,0,1.342.421,1.733,1.733,0,0,0,1.047-.295,1,1,0,0,0,.4-.871A.929.929,0,0,0,5.9-9.4a2.208,2.208,0,0,0-.673-.434q-.335-.129-1.077-.355-.1-.033-.146-.046-.378-.119-.61-.2t-.573-.222a3.817,3.817,0,0,1-.557-.278,4.076,4.076,0,0,1-.461-.345,1.805,1.805,0,0,1-.384-.441,2.341,2.341,0,0,1-.232-.55,2.427,2.427,0,0,1-.093-.683,2.563,2.563,0,0,1,.447-1.508,2.739,2.739,0,0,1,1.206-.961,4.389,4.389,0,0,1,1.726-.321,5.453,5.453,0,0,1,1.249.139,4.375,4.375,0,0,1,1.117.427,2.735,2.735,0,0,1,.891.789,2.965,2.965,0,0,1,.507,1.163l-1.922.477a1.557,1.557,0,0,0-1.723-1.372,1.886,1.886,0,0,0-1.067.278.943.943,0,0,0-.417.842q0,.523.7.848a10.368,10.368,0,0,0,1.332.457q.391.119.636.2t.616.232a4.282,4.282,0,0,1,.6.295,4.462,4.462,0,0,1,.5.368,1.981,1.981,0,0,1,.427.477,2.58,2.58,0,0,1,.262.593,2.479,2.479,0,0,1,.106.739A2.9,2.9,0,0,1,8.1-7.706a2.351,2.351,0,0,1-.527.815,3.059,3.059,0,0,1-.792.56A3.842,3.842,0,0,1,5.805-6,5.6,5.6,0,0,1,4.712-5.9Z" transform="translate(71.265 27.003)" fill="#00223d"/><path d="M5.842-5.9a5.2,5.2,0,0,1-2.515-.6A4.347,4.347,0,0,1,1.581-8.223a5.191,5.191,0,0,1-.636-2.6,5.187,5.187,0,0,1,.636-2.6,4.331,4.331,0,0,1,1.746-1.72,5.228,5.228,0,0,1,2.515-.6,5.209,5.209,0,0,1,2.511.6,4.337,4.337,0,0,1,1.743,1.72,5.187,5.187,0,0,1,.636,2.6,5.191,5.191,0,0,1-.636,2.6A4.347,4.347,0,0,1,8.35-6.5,5.191,5.191,0,0,1,5.842-5.9ZM3.748-8.554a2.812,2.812,0,0,0,2.094.835,2.807,2.807,0,0,0,2.094-.838,3.093,3.093,0,0,0,.822-2.263,3.072,3.072,0,0,0-.822-2.253,2.812,2.812,0,0,0-2.094-.835,2.812,2.812,0,0,0-2.094.835,3.072,3.072,0,0,0-.822,2.253A3.1,3.1,0,0,0,3.748-8.554Z" transform="translate(124.862 27.003)" fill="#00223d"/><path d="M5.842-5.9a5.2,5.2,0,0,1-2.515-.6A4.347,4.347,0,0,1,1.581-8.223a5.191,5.191,0,0,1-.636-2.6,5.187,5.187,0,0,1,.636-2.6,4.331,4.331,0,0,1,1.746-1.72,5.228,5.228,0,0,1,2.515-.6,5.209,5.209,0,0,1,2.511.6,4.337,4.337,0,0,1,1.743,1.72,5.187,5.187,0,0,1,.636,2.6,5.191,5.191,0,0,1-.636,2.6A4.347,4.347,0,0,1,8.35-6.5,5.191,5.191,0,0,1,5.842-5.9ZM3.748-8.554a2.812,2.812,0,0,0,2.094.835,2.807,2.807,0,0,0,2.094-.838,3.093,3.093,0,0,0,.822-2.263,3.072,3.072,0,0,0-.822-2.253,2.812,2.812,0,0,0-2.094-.835,2.812,2.812,0,0,0-2.094.835,3.072,3.072,0,0,0-.822,2.253A3.1,3.1,0,0,0,3.748-8.554Z" transform="translate(70.578 77.586)" fill="#00223d"/><g transform="translate(25.85 13.096)"><path d="M8691.057,1423h-29.7" transform="translate(-8657.375 -1419.441)" fill="none" stroke="#082143" stroke-width="2"/><path d="M4.232,0,8.464,7.255H0Z" transform="translate(0 8.464) rotate(-90)" fill="#082143"/></g><g transform="translate(72.021 58.45) rotate(-90)"><path d="M29.7,0H0" transform="translate(3.92 3.701)" fill="none" stroke="#082143" stroke-width="2"/><path d="M4.01,0l4.01,6.786H0Z" transform="translate(0 8.019) rotate(-90)" fill="#082143"/></g><path d="M2.406-9.645V-11.1H8.257v1.451Zm0,2.909V-8.188H8.257v1.451Z" transform="translate(98.394 25.225)" fill="#ff8f00"/><path d="M1.851,0A1.851,1.851,0,1,1,0,1.851,1.851,1.851,0,0,1,1.851,0Z" transform="translate(14.188 25.909)" fill="#082143"/><path d="M1.851,0A1.851,1.851,0,1,1,0,1.851,1.851,1.851,0,0,1,1.851,0Z" transform="translate(3.084 22.207)" fill="#082143"/><path d="M1.851,0A1.851,1.851,0,1,1,0,1.851,1.851,1.851,0,0,1,1.851,0Z" transform="translate(0 10.487)" fill="#082143"/><path d="M1.851,0A1.851,1.851,0,1,1,0,1.851,1.851,1.851,0,0,1,1.851,0Z" transform="translate(6.786 3.701)" fill="#082143"/><path d="M1.851,0A1.851,1.851,0,1,1,0,1.851,1.851,1.851,0,0,1,1.851,0Z" transform="translate(62.304 70.94)" fill="#082143"/><path d="M1.851,0A1.851,1.851,0,1,1,0,1.851,1.851,1.851,0,0,1,1.851,0Z" transform="translate(71.557 77.109)" fill="#082143"/><path d="M1.851,0A1.851,1.851,0,1,1,0,1.851,1.851,1.851,0,0,1,1.851,0Z" transform="translate(83.894 77.109)" fill="#082143"/><path d="M1.851,0A1.851,1.851,0,1,1,0,1.851,1.851,1.851,0,0,1,1.851,0Z" transform="translate(88.829 69.089)" fill="#082143"/><path d="M1.851,0A1.851,1.851,0,1,1,0,1.851,1.851,1.851,0,0,1,1.851,0Z" transform="translate(128.309 0)" fill="#082143"/><path d="M1.851,0A1.851,1.851,0,1,1,0,1.851,1.851,1.851,0,0,1,1.851,0Z" transform="translate(138.796 4.318)" fill="#082143"/><path d="M1.851,0A1.851,1.851,0,1,1,0,1.851,1.851,1.851,0,0,1,1.851,0Z" transform="translate(140.646 15.422)" fill="#082143"/><path d="M1.851,0A1.851,1.851,0,1,1,0,1.851,1.851,1.851,0,0,1,1.851,0Z" transform="translate(132.627 27.759)" fill="#082143"/></g></g></g></svg>