<svg xmlns="http://www.w3.org/2000/svg" width="308" height="281" viewBox="0 0 308 281"><g transform="translate(-9188 8411.133)"><g transform="translate(-85 1117.868)"><g transform="translate(9273 -9529)" fill="#fff" stroke="#707070" stroke-width="1"><rect width="308" height="281" rx="17" stroke="none"/><rect x="0.5" y="0.5" width="307" height="280" rx="16.5" fill="none"/></g><text transform="translate(9427 -9496)" fill="#12263f" font-size="16" font-family="Roboto-Bold, Roboto" font-weight="700"><tspan x="-103.762" y="0">Ubicación de los hidrógenos </tspan><tspan x="-56.176" y="24">en la estructura</tspan></text><g transform="translate(8502.435 -15317.541)"><g transform="translate(846.746 5889)"><path d="M19.087-33.042a16.283,16.283,0,0,1-9.311-2.521,10.672,10.672,0,0,1-4.649-6.929l4.586-1.089a7.52,7.52,0,0,0,3.218,4.865,10.881,10.881,0,0,0,6.309,1.774,13.161,13.161,0,0,0,2.356-.2,9.013,9.013,0,0,0,2.141-.671A6.555,6.555,0,0,0,25.5-38.971a4.811,4.811,0,0,0,1.165-1.748,5.984,5.984,0,0,0,.405-2.382,5.149,5.149,0,0,0-.317-1.685,5.348,5.348,0,0,0-.709-1.33,4.777,4.777,0,0,0-1.2-1.077,16.126,16.126,0,0,0-1.444-.861,13.054,13.054,0,0,0-1.786-.722q-1.127-.38-1.888-.6t-2.052-.57q-.253-.076-.38-.1-1.469-.38-2.394-.659t-2.217-.773a14.585,14.585,0,0,1-2.116-.975,14.32,14.32,0,0,1-1.736-1.216,6.23,6.23,0,0,1-1.431-1.583,8.358,8.358,0,0,1-.861-2.014A8.965,8.965,0,0,1,6.191-59.8a9.047,9.047,0,0,1,1.66-5.473,9.709,9.709,0,0,1,4.282-3.344,15.542,15.542,0,0,1,5.891-1.064A16.128,16.128,0,0,1,26.6-67.486a9.766,9.766,0,0,1,4.548,6.473L26.738-59.9a6.71,6.71,0,0,0-2.964-4.383A10.156,10.156,0,0,0,18.2-65.751a11.042,11.042,0,0,0-2.736.329A8.13,8.13,0,0,0,13.1-64.408a4.919,4.919,0,0,0-1.71,1.862,5.664,5.664,0,0,0-.633,2.724A4.379,4.379,0,0,0,11-58.315a4.628,4.628,0,0,0,.633,1.2,4.509,4.509,0,0,0,1.089.988,11.066,11.066,0,0,0,1.33.785,13.479,13.479,0,0,0,1.66.646q1.039.342,1.774.557t1.951.519a41.274,41.274,0,0,1,6.866,2.28q4.636,2.28,5.3,6.562a11.313,11.313,0,0,1,.1,1.545,9.969,9.969,0,0,1-1.026,4.611,8.318,8.318,0,0,1-2.812,3.192,13.444,13.444,0,0,1-4,1.786A18.358,18.358,0,0,1,19.087-33.042Z" transform="translate(60.406 127.605)" fill="#00223d"/><path d="M10.169.393A9.667,9.667,0,0,1,5.5-.721,8.074,8.074,0,0,1,2.256-3.927,9.642,9.642,0,0,1,1.074-8.751a9.633,9.633,0,0,1,1.181-4.831A8.044,8.044,0,0,1,5.5-16.776a9.71,9.71,0,0,1,4.671-1.108,9.674,9.674,0,0,1,4.664,1.108,8.054,8.054,0,0,1,3.237,3.194,9.633,9.633,0,0,1,1.181,4.831A9.642,9.642,0,0,1,18.07-3.927,8.074,8.074,0,0,1,14.827-.721,9.641,9.641,0,0,1,10.169.393ZM6.28-4.542a5.223,5.223,0,0,0,3.889,1.551,5.213,5.213,0,0,0,3.889-1.557,5.744,5.744,0,0,0,1.526-4.2,5.706,5.706,0,0,0-1.526-4.184,5.223,5.223,0,0,0-3.889-1.551A5.223,5.223,0,0,0,6.28-12.936,5.706,5.706,0,0,0,4.754-8.751,5.766,5.766,0,0,0,6.28-4.542Z" transform="translate(15.132 85.55)" fill="#082143"/><path d="M10.169.393A9.667,9.667,0,0,1,5.5-.721,8.074,8.074,0,0,1,2.256-3.927,9.642,9.642,0,0,1,1.074-8.751a9.633,9.633,0,0,1,1.181-4.831A8.044,8.044,0,0,1,5.5-16.776a9.71,9.71,0,0,1,4.671-1.108,9.674,9.674,0,0,1,4.664,1.108,8.054,8.054,0,0,1,3.237,3.194,9.633,9.633,0,0,1,1.181,4.831A9.642,9.642,0,0,1,18.07-3.927,8.074,8.074,0,0,1,14.827-.721,9.641,9.641,0,0,1,10.169.393ZM6.28-4.542a5.223,5.223,0,0,0,3.889,1.551,5.213,5.213,0,0,0,3.889-1.557,5.744,5.744,0,0,0,1.526-4.2,5.706,5.706,0,0,0-1.526-4.184,5.223,5.223,0,0,0-3.889-1.551A5.223,5.223,0,0,0,6.28-12.936,5.706,5.706,0,0,0,4.754-8.751,5.766,5.766,0,0,0,6.28-4.542Z" transform="translate(117.968 85.55)" fill="#082143"/><path d="M10.169.393A9.667,9.667,0,0,1,5.5-.721,8.074,8.074,0,0,1,2.256-3.927,9.642,9.642,0,0,1,1.074-8.751a9.633,9.633,0,0,1,1.181-4.831A8.044,8.044,0,0,1,5.5-16.776a9.71,9.71,0,0,1,4.671-1.108,9.674,9.674,0,0,1,4.664,1.108,8.054,8.054,0,0,1,3.237,3.194,9.633,9.633,0,0,1,1.181,4.831A9.642,9.642,0,0,1,18.07-3.927,8.074,8.074,0,0,1,14.827-.721,9.641,9.641,0,0,1,10.169.393ZM6.28-4.542a5.223,5.223,0,0,0,3.889,1.551,5.213,5.213,0,0,0,3.889-1.557,5.744,5.744,0,0,0,1.526-4.2,5.706,5.706,0,0,0-1.526-4.184,5.223,5.223,0,0,0-3.889-1.551A5.223,5.223,0,0,0,6.28-12.936,5.706,5.706,0,0,0,4.754-8.751,5.766,5.766,0,0,0,6.28-4.542Z" transform="translate(68.566 29.091)" fill="#082143"/><path d="M10.169.393A9.667,9.667,0,0,1,5.5-.721,8.074,8.074,0,0,1,2.256-3.927,9.642,9.642,0,0,1,1.074-8.751a9.633,9.633,0,0,1,1.181-4.831A8.044,8.044,0,0,1,5.5-16.776a9.71,9.71,0,0,1,4.671-1.108,9.674,9.674,0,0,1,4.664,1.108,8.054,8.054,0,0,1,3.237,3.194,9.633,9.633,0,0,1,1.181,4.831A9.642,9.642,0,0,1,18.07-3.927,8.074,8.074,0,0,1,14.827-.721,9.641,9.641,0,0,1,10.169.393ZM6.28-4.542a5.223,5.223,0,0,0,3.889,1.551,5.213,5.213,0,0,0,3.889-1.557,5.744,5.744,0,0,0,1.526-4.2,5.706,5.706,0,0,0-1.526-4.184,5.223,5.223,0,0,0-3.889-1.551A5.223,5.223,0,0,0,6.28-12.936,5.706,5.706,0,0,0,4.754-8.751,5.766,5.766,0,0,0,6.28-4.542Z" transform="translate(68.566 148.058)" fill="#082143"/><path d="M3.025,0A3.025,3.025,0,1,1,0,3.025,3.025,3.025,0,0,1,3.025,0Z" transform="translate(16.131 54.443)" fill="#082143"/><path d="M3.025,0A3.025,3.025,0,1,1,0,3.025,3.025,3.025,0,0,1,3.025,0Z" transform="translate(28.229 54.443)" fill="#082143"/><path d="M3.025,0A3.025,3.025,0,1,1,0,3.025,3.025,3.025,0,0,1,3.025,0Z" transform="translate(16.131 92.754)" fill="#082143"/><path d="M3.025,0A3.025,3.025,0,1,1,0,3.025,3.025,3.025,0,0,1,3.025,0Z" transform="translate(28.229 92.754)" fill="#082143"/><path d="M3.025,0A3.025,3.025,0,1,1,0,3.025,3.025,3.025,0,0,1,3.025,0Z" transform="translate(118.967 54.443)" fill="#082143"/><path d="M3.025,0A3.025,3.025,0,1,1,0,3.025,3.025,3.025,0,0,1,3.025,0Z" transform="translate(131.065 54.443)" fill="#082143"/><path d="M3.025,0A3.025,3.025,0,1,1,0,3.025,3.025,3.025,0,0,1,3.025,0Z" transform="translate(118.967 92.754)" fill="#082143"/><path d="M3.025,0A3.025,3.025,0,1,1,0,3.025,3.025,3.025,0,0,1,3.025,0Z" transform="translate(131.065 92.754)" fill="#082143"/><path d="M3.025,0A3.025,3.025,0,1,1,0,3.025,3.025,3.025,0,0,1,3.025,0Z" transform="translate(0 73.598)" fill="#082143"/><path d="M3.025,0A3.025,3.025,0,1,1,0,3.025,3.025,3.025,0,0,1,3.025,0Z" transform="translate(47.385 78.639)" fill="#082143"/><path d="M3.025,0A3.025,3.025,0,1,1,0,3.025,3.025,3.025,0,0,1,3.025,0Z" transform="translate(47.385 69.565)" fill="#082143"/><path d="M3.025,0A3.025,3.025,0,1,1,0,3.025,3.025,3.025,0,0,1,3.025,0Z" transform="translate(101.828 78.639)" fill="#082143"/><path d="M3.025,0A3.025,3.025,0,1,1,0,3.025,3.025,3.025,0,0,1,3.025,0Z" transform="translate(101.828 69.565)" fill="#082143"/><path d="M3.025,0A3.025,3.025,0,1,1,0,3.025,3.025,3.025,0,0,1,3.025,0Z" transform="translate(149.213 78.639)" fill="#082143"/><path d="M3.025,0A3.025,3.025,0,1,1,0,3.025,3.025,3.025,0,0,1,3.025,0Z" transform="translate(69.566 115.942)" fill="#082143"/><path d="M3.025,0A3.025,3.025,0,1,1,0,3.025,3.025,3.025,0,0,1,3.025,0Z" transform="translate(81.664 115.942)" fill="#082143"/><path d="M3.025,0A3.025,3.025,0,1,1,0,3.025,3.025,3.025,0,0,1,3.025,0Z" transform="translate(69.566 101.828)" fill="#082143"/><path d="M3.025,0A3.025,3.025,0,1,1,0,3.025,3.025,3.025,0,0,1,3.025,0Z" transform="translate(81.664 101.828)" fill="#082143"/><path d="M3.025,0A3.025,3.025,0,1,1,0,3.025,3.025,3.025,0,0,1,3.025,0Z" transform="translate(69.566 44.361)" fill="#082143"/><path d="M3.025,0A3.025,3.025,0,1,1,0,3.025,3.025,3.025,0,0,1,3.025,0Z" transform="translate(81.664 44.361)" fill="#082143"/><path d="M3.025,0A3.025,3.025,0,1,1,0,3.025,3.025,3.025,0,0,1,3.025,0Z" transform="translate(69.566 34.279)" fill="#082143"/><path d="M3.025,0A3.025,3.025,0,1,1,0,3.025,3.025,3.025,0,0,1,3.025,0Z" transform="translate(81.664 34.279)" fill="#082143"/><path d="M3.025,0A3.025,3.025,0,1,1,0,3.025,3.025,3.025,0,0,1,3.025,0Z" transform="translate(59.484 8.066)" fill="#082143"/><path d="M3.025,0A3.025,3.025,0,1,1,0,3.025,3.025,3.025,0,0,1,3.025,0Z" transform="translate(67.549)" fill="#082143"/><path d="M3.025,0A3.025,3.025,0,1,1,0,3.025,3.025,3.025,0,0,1,3.025,0Z" transform="translate(56.459 142.155)" fill="#082143"/><path d="M3.025,0A3.025,3.025,0,1,1,0,3.025,3.025,3.025,0,0,1,3.025,0Z" transform="translate(62.508 153.246)" fill="#082143"/><path d="M3.025,0A3.025,3.025,0,1,1,0,3.025,3.025,3.025,0,0,1,3.025,0Z" transform="translate(95.779 142.155)" fill="#082143"/><path d="M3.025,0A3.025,3.025,0,1,1,0,3.025,3.025,3.025,0,0,1,3.025,0Z" transform="translate(88.721 153.246)" fill="#082143"/><path d="M3.025,0A3.025,3.025,0,1,1,0,3.025,3.025,3.025,0,0,1,3.025,0Z" transform="translate(87.713)" fill="#082143"/><path d="M3.025,0A3.025,3.025,0,1,1,0,3.025,3.025,3.025,0,0,1,3.025,0Z" transform="translate(95.779 8.066)" fill="#082143"/></g><path d="M27.146-35.278h7.436V.538H27.146V-14.185H12V.538H4.565V-35.278H12v14.624H27.146Z" transform="translate(785 5980.896)" fill="#082143"/><path d="M27.146-35.278h7.436V.538H27.146V-14.185H12V.538H4.565V-35.278H12v14.624H27.146Z" transform="translate(1024.983 5980.896)" fill="#082143"/></g></g></g></svg>