<svg xmlns="http://www.w3.org/2000/svg" width="270" height="281" viewBox="0 0 270 281"><g transform="translate(-9207 8906.323)"><g transform="translate(-85 622.677)"><g transform="translate(9292 -9529)" fill="#fff" stroke="#707070" stroke-width="1"><rect width="270" height="281" rx="17" stroke="none"/><rect x="0.5" y="0.5" width="269" height="280" rx="16.5" fill="none"/></g><text transform="translate(9427 -9496)" fill="#12263f" font-size="16" font-family="Roboto-Bold, Roboto" font-weight="700"><tspan x="-95.918" y="0">Ubicación de los oxígenos </tspan><tspan x="-56.176" y="24">en la estructura</tspan></text><g transform="translate(8444 -14880.968)"><path d="M20.974-28.089A18.484,18.484,0,0,1,10.4-30.951a12.115,12.115,0,0,1-5.278-7.866l5.206-1.237a8.536,8.536,0,0,0,3.653,5.522,12.352,12.352,0,0,0,7.162,2.013,14.94,14.94,0,0,0,2.675-.23,10.231,10.231,0,0,0,2.43-.762,7.442,7.442,0,0,0,2-1.309A5.462,5.462,0,0,0,29.574-36.8a6.793,6.793,0,0,0,.46-2.7,5.846,5.846,0,0,0-.36-1.913,6.071,6.071,0,0,0-.805-1.51A5.423,5.423,0,0,0,27.5-44.152a18.307,18.307,0,0,0-1.639-.978,14.82,14.82,0,0,0-2.028-.82q-1.28-.431-2.143-.676t-2.33-.647q-.288-.086-.431-.115-1.668-.431-2.718-.748T13.7-49.013a16.557,16.557,0,0,1-2.4-1.107A16.256,16.256,0,0,1,9.326-51.5,7.072,7.072,0,0,1,7.7-53.3a9.489,9.489,0,0,1-.978-2.287,10.177,10.177,0,0,1-.388-2.876,10.27,10.27,0,0,1,1.884-6.212,11.022,11.022,0,0,1,4.861-3.8,17.644,17.644,0,0,1,6.687-1.208A18.309,18.309,0,0,1,29.5-67.19a11.086,11.086,0,0,1,5.163,7.349l-5,1.265A7.617,7.617,0,0,0,26.3-63.552a11.529,11.529,0,0,0-6.328-1.668,12.534,12.534,0,0,0-3.106.374,9.229,9.229,0,0,0-2.689,1.15,5.584,5.584,0,0,0-1.941,2.114,6.429,6.429,0,0,0-.719,3.092,4.971,4.971,0,0,0,.288,1.711,5.253,5.253,0,0,0,.719,1.366,5.119,5.119,0,0,0,1.237,1.122,12.562,12.562,0,0,0,1.51.892,15.3,15.3,0,0,0,1.884.733q1.179.388,2.013.633t2.215.59a46.855,46.855,0,0,1,7.794,2.589q5.263,2.589,6.011,7.449a12.842,12.842,0,0,1,.115,1.754,11.317,11.317,0,0,1-1.165,5.235,9.442,9.442,0,0,1-3.193,3.624A15.262,15.262,0,0,1,26.4-28.765,20.84,20.84,0,0,1,20.974-28.089Z" transform="translate(964.266 5569.437)" fill="#00223d"/><path d="M11.4,2.864A10.974,10.974,0,0,1,6.1,1.6,9.166,9.166,0,0,1,2.415-2.04,10.945,10.945,0,0,1,1.074-7.517,10.935,10.935,0,0,1,2.415-13,9.131,9.131,0,0,1,6.1-16.626a11.023,11.023,0,0,1,5.3-1.257,10.982,10.982,0,0,1,5.3,1.257A9.143,9.143,0,0,1,20.368-13a10.935,10.935,0,0,1,1.341,5.484A10.945,10.945,0,0,1,20.368-2.04,9.166,9.166,0,0,1,16.687,1.6,10.944,10.944,0,0,1,11.4,2.864Zm-4.415-5.6A5.93,5.93,0,0,0,11.4-.978a5.917,5.917,0,0,0,4.415-1.767,6.521,6.521,0,0,0,1.732-4.771,6.477,6.477,0,0,0-1.732-4.75,5.93,5.93,0,0,0-4.415-1.76,5.93,5.93,0,0,0-4.415,1.76,6.477,6.477,0,0,0-1.732,4.75A6.545,6.545,0,0,0,6.984-2.739Z" transform="translate(912.323 5528.699)" fill="#082143"/><path d="M11.4,2.864A10.974,10.974,0,0,1,6.1,1.6,9.166,9.166,0,0,1,2.415-2.04,10.945,10.945,0,0,1,1.074-7.517,10.935,10.935,0,0,1,2.415-13,9.131,9.131,0,0,1,6.1-16.626a11.023,11.023,0,0,1,5.3-1.257,10.982,10.982,0,0,1,5.3,1.257A9.143,9.143,0,0,1,20.368-13a10.935,10.935,0,0,1,1.341,5.484A10.945,10.945,0,0,1,20.368-2.04,9.166,9.166,0,0,1,16.687,1.6,10.944,10.944,0,0,1,11.4,2.864Zm-4.415-5.6A5.93,5.93,0,0,0,11.4-.978a5.917,5.917,0,0,0,4.415-1.767,6.521,6.521,0,0,0,1.732-4.771,6.477,6.477,0,0,0-1.732-4.75,5.93,5.93,0,0,0-4.415-1.76,5.93,5.93,0,0,0-4.415,1.76,6.477,6.477,0,0,0-1.732,4.75A6.545,6.545,0,0,0,6.984-2.739Z" transform="translate(1029.062 5528.699)" fill="#082143"/><path d="M11.4,2.864A10.974,10.974,0,0,1,6.1,1.6,9.166,9.166,0,0,1,2.415-2.04,10.945,10.945,0,0,1,1.074-7.517,10.935,10.935,0,0,1,2.415-13,9.131,9.131,0,0,1,6.1-16.626a11.023,11.023,0,0,1,5.3-1.257,10.982,10.982,0,0,1,5.3,1.257A9.143,9.143,0,0,1,20.368-13a10.935,10.935,0,0,1,1.341,5.484A10.945,10.945,0,0,1,20.368-2.04,9.166,9.166,0,0,1,16.687,1.6,10.944,10.944,0,0,1,11.4,2.864Zm-4.415-5.6A5.93,5.93,0,0,0,11.4-.978a5.917,5.917,0,0,0,4.415-1.767,6.521,6.521,0,0,0,1.732-4.771,6.477,6.477,0,0,0-1.732-4.75,5.93,5.93,0,0,0-4.415-1.76,5.93,5.93,0,0,0-4.415,1.76,6.477,6.477,0,0,0-1.732,4.75A6.545,6.545,0,0,0,6.984-2.739Z" transform="translate(972.982 5464.606)" fill="#082143"/><path d="M11.4,2.864A10.974,10.974,0,0,1,6.1,1.6,9.166,9.166,0,0,1,2.415-2.04,10.945,10.945,0,0,1,1.074-7.517,10.935,10.935,0,0,1,2.415-13,9.131,9.131,0,0,1,6.1-16.626a11.023,11.023,0,0,1,5.3-1.257,10.982,10.982,0,0,1,5.3,1.257A9.143,9.143,0,0,1,20.368-13a10.935,10.935,0,0,1,1.341,5.484A10.945,10.945,0,0,1,20.368-2.04,9.166,9.166,0,0,1,16.687,1.6,10.944,10.944,0,0,1,11.4,2.864Zm-4.415-5.6A5.93,5.93,0,0,0,11.4-.978a5.917,5.917,0,0,0,4.415-1.767,6.521,6.521,0,0,0,1.732-4.771,6.477,6.477,0,0,0-1.732-4.75,5.93,5.93,0,0,0-4.415-1.76,5.93,5.93,0,0,0-4.415,1.76,6.477,6.477,0,0,0-1.732,4.75A6.545,6.545,0,0,0,6.984-2.739Z" transform="translate(972.982 5599.658)" fill="#082143"/><path d="M3.434,0A3.434,3.434,0,1,1,0,3.434,3.434,3.434,0,0,1,3.434,0Z" transform="translate(913.312 5495.804)" fill="#082143"/><path d="M3.434,0A3.434,3.434,0,1,1,0,3.434,3.434,3.434,0,0,1,3.434,0Z" transform="translate(927.046 5495.804)" fill="#082143"/><path d="M3.434,0A3.434,3.434,0,1,1,0,3.434,3.434,3.434,0,0,1,3.434,0Z" transform="translate(913.312 5539.294)" fill="#082143"/><path d="M3.434,0A3.434,3.434,0,1,1,0,3.434,3.434,3.434,0,0,1,3.434,0Z" transform="translate(927.046 5539.294)" fill="#082143"/><path d="M3.434,0A3.434,3.434,0,1,1,0,3.434,3.434,3.434,0,0,1,3.434,0Z" transform="translate(1030.052 5495.804)" fill="#082143"/><path d="M3.434,0A3.434,3.434,0,1,1,0,3.434,3.434,3.434,0,0,1,3.434,0Z" transform="translate(1043.786 5495.804)" fill="#082143"/><path d="M3.434,0A3.434,3.434,0,1,1,0,3.434,3.434,3.434,0,0,1,3.434,0Z" transform="translate(1030.052 5539.294)" fill="#082143"/><path d="M3.434,0A3.434,3.434,0,1,1,0,3.434,3.434,3.434,0,0,1,3.434,0Z" transform="translate(1043.786 5539.294)" fill="#082143"/><path d="M3.434,0A3.434,3.434,0,1,1,0,3.434,3.434,3.434,0,0,1,3.434,0Z" transform="translate(895 5517.549)" fill="#082143"/><path d="M3.434,0A3.434,3.434,0,1,1,0,3.434,3.434,3.434,0,0,1,3.434,0Z" transform="translate(948.792 5523.271)" fill="#082143"/><path d="M3.434,0A3.434,3.434,0,1,1,0,3.434,3.434,3.434,0,0,1,3.434,0Z" transform="translate(948.792 5512.971)" fill="#082143"/><path d="M3.434,0A3.434,3.434,0,1,1,0,3.434,3.434,3.434,0,0,1,3.434,0Z" transform="translate(1010.595 5523.271)" fill="#082143"/><path d="M3.434,0A3.434,3.434,0,1,1,0,3.434,3.434,3.434,0,0,1,3.434,0Z" transform="translate(1010.595 5512.971)" fill="#082143"/><path d="M3.434,0A3.434,3.434,0,1,1,0,3.434,3.434,3.434,0,0,1,3.434,0Z" transform="translate(1064.387 5523.271)" fill="#082143"/><path d="M3.434,0A3.434,3.434,0,1,1,0,3.434,3.434,3.434,0,0,1,3.434,0Z" transform="translate(973.971 5565.618)" fill="#082143"/><path d="M3.434,0A3.434,3.434,0,1,1,0,3.434,3.434,3.434,0,0,1,3.434,0Z" transform="translate(987.705 5565.618)" fill="#082143"/><path d="M3.434,0A3.434,3.434,0,1,1,0,3.434,3.434,3.434,0,0,1,3.434,0Z" transform="translate(973.971 5549.595)" fill="#082143"/><path d="M3.434,0A3.434,3.434,0,1,1,0,3.434,3.434,3.434,0,0,1,3.434,0Z" transform="translate(987.705 5549.595)" fill="#082143"/><path d="M3.434,0A3.434,3.434,0,1,1,0,3.434,3.434,3.434,0,0,1,3.434,0Z" transform="translate(973.971 5484.358)" fill="#082143"/><path d="M3.434,0A3.434,3.434,0,1,1,0,3.434,3.434,3.434,0,0,1,3.434,0Z" transform="translate(987.705 5484.358)" fill="#082143"/><path d="M3.434,0A3.434,3.434,0,1,1,0,3.434,3.434,3.434,0,0,1,3.434,0Z" transform="translate(973.971 5472.913)" fill="#082143"/><path d="M3.434,0A3.434,3.434,0,1,1,0,3.434,3.434,3.434,0,0,1,3.434,0Z" transform="translate(987.705 5472.913)" fill="#082143"/><path d="M3.434,0A3.434,3.434,0,1,1,0,3.434,3.434,3.434,0,0,1,3.434,0Z" transform="translate(962.526 5443.156)" fill="#082143"/><path d="M3.434,0A3.434,3.434,0,1,1,0,3.434,3.434,3.434,0,0,1,3.434,0Z" transform="translate(971.682 5434)" fill="#082143"/><path d="M3.434,0A3.434,3.434,0,1,1,0,3.434,3.434,3.434,0,0,1,3.434,0Z" transform="translate(959.092 5595.375)" fill="#082143"/><path d="M3.434,0A3.434,3.434,0,1,1,0,3.434,3.434,3.434,0,0,1,3.434,0Z" transform="translate(965.959 5607.965)" fill="#082143"/><path d="M3.434,0A3.434,3.434,0,1,1,0,3.434,3.434,3.434,0,0,1,3.434,0Z" transform="translate(1003.728 5595.375)" fill="#082143"/><path d="M3.434,0A3.434,3.434,0,1,1,0,3.434,3.434,3.434,0,0,1,3.434,0Z" transform="translate(995.716 5607.965)" fill="#082143"/><path d="M3.434,0A3.434,3.434,0,1,1,0,3.434,3.434,3.434,0,0,1,3.434,0Z" transform="translate(994.572 5434)" fill="#082143"/><path d="M3.434,0A3.434,3.434,0,1,1,0,3.434,3.434,3.434,0,0,1,3.434,0Z" transform="translate(1003.728 5443.156)" fill="#082143"/></g></g></g></svg>