<svg xmlns="http://www.w3.org/2000/svg" width="400" height="288.973" viewBox="0 0 400 288.973"><g transform="translate(-1020 -1718)"><g transform="translate(472 -133)"><path d="M17.475,12.07h-4.5v3.047h5.281V17H10.631V5.625h7.609v1.9H12.975v2.711h4.5Zm6.586,2.594a.727.727,0,0,0-.41-.652,4.659,4.659,0,0,0-1.316-.426q-3.016-.633-3.016-2.562a2.323,2.323,0,0,1,.934-1.879,3.766,3.766,0,0,1,2.441-.754,4.053,4.053,0,0,1,2.574.758,2.388,2.388,0,0,1,.965,1.969H23.975a1.092,1.092,0,0,0-.312-.8A1.322,1.322,0,0,0,22.686,10a1.351,1.351,0,0,0-.883.258.814.814,0,0,0-.312.656.7.7,0,0,0,.355.605,3.657,3.657,0,0,0,1.2.4,9.8,9.8,0,0,1,1.422.379,2.336,2.336,0,0,1,1.789,2.273,2.2,2.2,0,0,1-.992,1.871,4.28,4.28,0,0,1-2.562.715,4.47,4.47,0,0,1-1.887-.379,3.166,3.166,0,0,1-1.293-1.039,2.414,2.414,0,0,1-.469-1.426h2.141a1.179,1.179,0,0,0,.445.922,1.766,1.766,0,0,0,1.109.32,1.635,1.635,0,0,0,.98-.246A.766.766,0,0,0,24.061,14.664Zm6.352-8.2V8.547h1.445V10.2H30.413v4.219a1.007,1.007,0,0,0,.18.672.9.9,0,0,0,.688.2,3.6,3.6,0,0,0,.664-.055v1.711a4.648,4.648,0,0,1-1.367.2,2.156,2.156,0,0,1-2.422-2.4V10.2H26.92V8.547h1.234V6.469Zm7.453,4.2a6.134,6.134,0,0,0-.812-.062,1.654,1.654,0,0,0-1.68.867V17H33.116V8.547h2.133l.063,1.008a2.092,2.092,0,0,1,1.883-1.164,2.366,2.366,0,0,1,.7.1Zm6.148,5.477A2.831,2.831,0,0,1,41.7,17.156a2.67,2.67,0,0,1-2.074-.781,3.335,3.335,0,0,1-.73-2.289V8.547h2.258v5.467q0,1.322,1.2,1.322a1.63,1.63,0,0,0,1.578-.8V8.547H46.2V17H44.077Zm7.406-.8a1.481,1.481,0,0,0,1.016-.344,1.2,1.2,0,0,0,.406-.914h2.117a2.9,2.9,0,0,1-.469,1.574,3.093,3.093,0,0,1-1.262,1.109,3.949,3.949,0,0,1-1.77.395A3.67,3.67,0,0,1,48.6,16a4.56,4.56,0,0,1-1.047-3.184v-.148a4.508,4.508,0,0,1,1.039-3.117,3.627,3.627,0,0,1,2.852-1.164,3.555,3.555,0,0,1,2.543.9,3.2,3.2,0,0,1,.973,2.4H52.842a1.551,1.551,0,0,0-.406-1.072,1.51,1.51,0,0,0-2.223.163,3.333,3.333,0,0,0-.4,1.866v.235a3.375,3.375,0,0,0,.4,1.878A1.377,1.377,0,0,0,51.42,15.336Zm7.531-8.867V8.547H60.4V10.2H58.952v4.219a1.007,1.007,0,0,0,.18.672.9.9,0,0,0,.688.2,3.6,3.6,0,0,0,.664-.055v1.711a4.648,4.648,0,0,1-1.367.2,2.156,2.156,0,0,1-2.422-2.4V10.2H55.459V8.547h1.234V6.469Zm7.766,9.672A2.831,2.831,0,0,1,64.4,17.156a2.67,2.67,0,0,1-2.074-.781,3.335,3.335,0,0,1-.73-2.289V8.547h2.258v5.467q0,1.322,1.2,1.322a1.63,1.63,0,0,0,1.578-.8V8.547H68.9V17H66.78Zm8.641-5.477a6.134,6.134,0,0,0-.812-.062,1.654,1.654,0,0,0-1.68.867V17H70.608V8.547h2.133L72.8,9.555a2.092,2.092,0,0,1,1.883-1.164,2.366,2.366,0,0,1,.7.1ZM81.108,17a2.507,2.507,0,0,1-.227-.758,2.732,2.732,0,0,1-2.133.914,3,3,0,0,1-2.059-.719,2.312,2.312,0,0,1-.816-1.812,2.389,2.389,0,0,1,1-2.062,4.915,4.915,0,0,1,2.879-.727h1.039v-.484a1.393,1.393,0,0,0-.3-.937,1.183,1.183,0,0,0-.949-.352,1.345,1.345,0,0,0-.895.273.929.929,0,0,0-.324.75H76.061a2.268,2.268,0,0,1,.453-1.359,3,3,0,0,1,1.281-.98,4.669,4.669,0,0,1,1.859-.355,3.689,3.689,0,0,1,2.48.785,2.747,2.747,0,0,1,.918,2.207v3.664a4.041,4.041,0,0,0,.336,1.82V17Zm-1.867-1.57a1.945,1.945,0,0,0,.922-.223,1.462,1.462,0,0,0,.625-.6V13.156h-.844q-1.7,0-1.8,1.172l-.008.133a.9.9,0,0,0,.3.7A1.153,1.153,0,0,0,79.241,15.43Zm9.18-2.719a5.094,5.094,0,0,1,.887-3.148,2.877,2.877,0,0,1,2.426-1.172,2.589,2.589,0,0,1,2.039.922V5h2.266V17H94l-.109-.9a2.657,2.657,0,0,1-2.172,1.055,2.869,2.869,0,0,1-2.395-1.176A5.258,5.258,0,0,1,88.42,12.711Zm2.258.168a3.337,3.337,0,0,0,.414,1.823,1.349,1.349,0,0,0,1.2.634,1.511,1.511,0,0,0,1.477-.884V11.111a1.489,1.489,0,0,0-1.461-.884Q90.678,10.227,90.678,12.879Zm11,4.277a4.15,4.15,0,0,1-3.027-1.141,4.054,4.054,0,0,1-1.168-3.039v-.219a5.106,5.106,0,0,1,.492-2.277A3.612,3.612,0,0,1,99.37,8.934a3.914,3.914,0,0,1,2.059-.543,3.508,3.508,0,0,1,2.73,1.094,4.444,4.444,0,0,1,1,3.1v.922H99.772a2.1,2.1,0,0,0,.66,1.328,2,2,0,0,0,1.395.5,2.437,2.437,0,0,0,2.039-.945l1.109,1.242a3.389,3.389,0,0,1-1.375,1.121A4.511,4.511,0,0,1,101.678,17.156Zm-.258-6.945a1.411,1.411,0,0,0-1.09.455,2.357,2.357,0,0,0-.535,1.3h3.141v-.181a1.681,1.681,0,0,0-.406-1.165A1.456,1.456,0,0,0,101.42,10.211Zm11.492,4.906h4.977V17h-7.32V5.625h2.344Zm10.063,2.039a4.15,4.15,0,0,1-3.027-1.141,4.054,4.054,0,0,1-1.168-3.039v-.219a5.106,5.106,0,0,1,.492-2.277,3.612,3.612,0,0,1,1.395-1.547,3.914,3.914,0,0,1,2.059-.543,3.508,3.508,0,0,1,2.73,1.094,4.444,4.444,0,0,1,1,3.1v.922h-5.383a2.1,2.1,0,0,0,.66,1.328,2,2,0,0,0,1.395.5,2.437,2.437,0,0,0,2.039-.945l1.109,1.242a3.389,3.389,0,0,1-1.375,1.121A4.511,4.511,0,0,1,122.975,17.156Zm-.258-6.945a1.411,1.411,0,0,0-1.09.455,2.357,2.357,0,0,0-.535,1.3h3.141v-.181a1.681,1.681,0,0,0-.406-1.165A1.456,1.456,0,0,0,122.717,10.211Zm12.367,3.719,1.109-5.383h2.18L136.217,17h-1.891l-1.6-5.32-1.6,5.32h-1.883l-2.156-8.453h2.18l1.1,5.375,1.547-5.375h1.633ZM141.874,17h-2.266V8.547h2.266Zm-2.4-10.641a1.112,1.112,0,0,1,.34-.836,1.465,1.465,0,0,1,1.848,0,1.105,1.105,0,0,1,.344.836,1.109,1.109,0,0,1-.348.844,1.448,1.448,0,0,1-1.836,0A1.109,1.109,0,0,1,139.475,6.359Zm8.836,8.3a.727.727,0,0,0-.41-.652,4.659,4.659,0,0,0-1.316-.426q-3.016-.633-3.016-2.562a2.323,2.323,0,0,1,.934-1.879,3.766,3.766,0,0,1,2.441-.754,4.053,4.053,0,0,1,2.574.758,2.388,2.388,0,0,1,.965,1.969h-2.258a1.092,1.092,0,0,0-.312-.8,1.322,1.322,0,0,0-.977-.316,1.351,1.351,0,0,0-.883.258.814.814,0,0,0-.312.656.7.7,0,0,0,.355.605,3.657,3.657,0,0,0,1.2.4,9.8,9.8,0,0,1,1.422.379,2.336,2.336,0,0,1,1.789,2.273,2.205,2.205,0,0,1-.992,1.871,4.28,4.28,0,0,1-2.562.715,4.47,4.47,0,0,1-1.887-.379,3.166,3.166,0,0,1-1.293-1.039,2.414,2.414,0,0,1-.469-1.426h2.141a1.179,1.179,0,0,0,.445.922,1.766,1.766,0,0,0,1.109.32,1.635,1.635,0,0,0,.98-.246A.766.766,0,0,0,148.311,14.664Zm7.281-1.953a5.094,5.094,0,0,1,.887-3.148A2.877,2.877,0,0,1,158.9,8.391a2.589,2.589,0,0,1,2.039.922V5h2.266V17H161.17l-.109-.9a2.657,2.657,0,0,1-2.172,1.055,2.869,2.869,0,0,1-2.395-1.176A5.258,5.258,0,0,1,155.592,12.711Zm2.258.168a3.337,3.337,0,0,0,.414,1.823,1.349,1.349,0,0,0,1.2.634,1.511,1.511,0,0,0,1.477-.884V11.111a1.489,1.489,0,0,0-1.461-.884Q157.85,10.227,157.85,12.879Zm11,4.277a4.15,4.15,0,0,1-3.027-1.141,4.054,4.054,0,0,1-1.168-3.039v-.219a5.106,5.106,0,0,1,.492-2.277,3.612,3.612,0,0,1,1.395-1.547,3.914,3.914,0,0,1,2.059-.543,3.508,3.508,0,0,1,2.73,1.094,4.444,4.444,0,0,1,1,3.1v.922h-5.383a2.1,2.1,0,0,0,.66,1.328,2,2,0,0,0,1.395.5,2.437,2.437,0,0,0,2.039-.945l1.109,1.242a3.389,3.389,0,0,1-1.375,1.121A4.511,4.511,0,0,1,168.85,17.156Zm-.258-6.945a1.411,1.411,0,0,0-1.09.455,2.357,2.357,0,0,0-.535,1.3h3.141v-.181a1.681,1.681,0,0,0-.406-1.165A1.456,1.456,0,0,0,168.592,10.211Zm7.4,6.789h-2.266V5h2.266Zm15.25,0H188.9V12.125h-4.57V17h-2.344V5.625h2.344v4.609h4.57V5.625h2.344Zm10.977-3.789a4.025,4.025,0,0,1-1.355,2.891,4.76,4.76,0,0,1-3.223,1.055,4.281,4.281,0,0,1-3.441-1.473,6.038,6.038,0,0,1-1.254-4.043v-.7a6.819,6.819,0,0,1,.578-2.891,4.332,4.332,0,0,1,1.652-1.918,5.164,5.164,0,0,1,5.668.387,4.326,4.326,0,0,1,1.391,2.961h-2.344a2.376,2.376,0,0,0-.613-1.6,2.271,2.271,0,0,0-1.605-.5,1.991,1.991,0,0,0-1.754.84,4.707,4.707,0,0,0-.6,2.605V11.7a5.038,5.038,0,0,0,.559,2.7,1.954,1.954,0,0,0,1.762.852,2.314,2.314,0,0,0,1.621-.5,2.241,2.241,0,0,0,.613-1.535ZM205.991,17h-2.266V5h2.266Zm11.352-5.43a6.867,6.867,0,0,1-.594,2.945,4.471,4.471,0,0,1-1.7,1.953,5.021,5.021,0,0,1-5.059.008,4.515,4.515,0,0,1-1.719-1.941,6.67,6.67,0,0,1-.617-2.9V11.07a6.831,6.831,0,0,1,.605-2.957,4.508,4.508,0,0,1,1.711-1.961,5.014,5.014,0,0,1,5.055,0,4.508,4.508,0,0,1,1.711,1.961,6.811,6.811,0,0,1,.605,2.949Zm-2.375-.516a4.787,4.787,0,0,0-.641-2.719,2.263,2.263,0,0,0-3.648-.012,4.732,4.732,0,0,0-.648,2.691v.555a4.847,4.847,0,0,0,.641,2.7,2.243,2.243,0,0,0,3.656.035,4.819,4.819,0,0,0,.641-2.7Zm7.41,8.448h.752v1.062h-.752V22H221.06V20.565H218.34l-.059-.829,2.766-4.37h1.331Zm-2.784,0h1.467V17.16l-.087.15Z" transform="translate(632 1846)" fill="#12263f"/><g transform="translate(548 1880.444)"><path d="M31.29-33.325a27.777,27.777,0,0,1-13.42-3.2,23.2,23.2,0,0,1-9.318-9.212A27.705,27.705,0,0,1,5.156-59.6,27.679,27.679,0,0,1,8.551-73.48a23.112,23.112,0,0,1,9.318-9.177A27.9,27.9,0,0,1,31.29-85.84a27.8,27.8,0,0,1,13.4,3.183,23.143,23.143,0,0,1,9.3,9.177A27.679,27.679,0,0,1,57.388-59.6a27.705,27.705,0,0,1-3.395,13.863,23.2,23.2,0,0,1-9.318,9.212A27.7,27.7,0,0,1,31.29-33.325ZM20.115-47.506A15.009,15.009,0,0,0,31.29-43.05a14.978,14.978,0,0,0,11.175-4.473Q46.85-52,46.85-59.6q0-7.568-4.385-12.024A15.009,15.009,0,0,0,31.29-76.079a15.009,15.009,0,0,0-11.175,4.456Q15.73-67.168,15.73-59.6,15.73-52,20.115-47.506Z" transform="translate(121.587 85.84)" fill="#00223d"/><path d="M31.29-33.325A28.523,28.523,0,0,1,20.875-35.2a24.49,24.49,0,0,1-8.293-5.234,23.593,23.593,0,0,1-5.446-8.31A28.975,28.975,0,0,1,5.156-59.6,27.679,27.679,0,0,1,8.551-73.48a23.112,23.112,0,0,1,9.318-9.177A27.9,27.9,0,0,1,31.29-85.84,27.116,27.116,0,0,1,46.284-81.7a22.649,22.649,0,0,1,9.159,11.387l-9.9,3.607a14,14,0,0,0-5.481-6.9,15.656,15.656,0,0,0-8.77-2.475,15.009,15.009,0,0,0-11.175,4.456Q15.73-67.168,15.73-59.6t4.4,12.041A14.993,14.993,0,0,0,31.29-43.085a15.6,15.6,0,0,0,8.752-2.493,14.062,14.062,0,0,0,5.5-6.914l9.9,3.607a22.741,22.741,0,0,1-9.159,11.4A27.03,27.03,0,0,1,31.29-33.325Zm32.853-.707v-51.1H74.752v51.1Z" transform="translate(121.587 186.631)" fill="#00223d"/><path d="M31.29-33.325a27.777,27.777,0,0,1-13.42-3.2,23.2,23.2,0,0,1-9.318-9.212A27.705,27.705,0,0,1,5.156-59.6,27.679,27.679,0,0,1,8.551-73.48a23.112,23.112,0,0,1,9.318-9.177A27.9,27.9,0,0,1,31.29-85.84a27.8,27.8,0,0,1,13.4,3.183,23.143,23.143,0,0,1,9.3,9.177A27.679,27.679,0,0,1,57.388-59.6a27.705,27.705,0,0,1-3.395,13.863,23.2,23.2,0,0,1-9.318,9.212A27.7,27.7,0,0,1,31.29-33.325ZM20.115-47.506A15.009,15.009,0,0,0,31.29-43.05a14.978,14.978,0,0,0,11.175-4.473Q46.85-52,46.85-59.6q0-7.568-4.385-12.024A15.009,15.009,0,0,0,31.29-76.079a15.009,15.009,0,0,0-11.175,4.456Q15.73-67.168,15.73-59.6,15.73-52,20.115-47.506Z" transform="translate(249.537 186.631)" fill="#00223d"/><path d="M43.173-84.668H53.782v51.1H43.173V-54.574H21.566v21.006H10.957v-51.1H21.566V-63.8H43.173Z" transform="translate(346.218 186.166)" fill="#00223d"/><path d="M31.29-33.325a27.777,27.777,0,0,1-13.42-3.2,23.2,23.2,0,0,1-9.318-9.212A27.705,27.705,0,0,1,5.156-59.6,27.679,27.679,0,0,1,8.551-73.48a23.112,23.112,0,0,1,9.318-9.177A27.9,27.9,0,0,1,31.29-85.84a27.8,27.8,0,0,1,13.4,3.183,23.143,23.143,0,0,1,9.3,9.177A27.679,27.679,0,0,1,57.388-59.6a27.705,27.705,0,0,1-3.395,13.863,23.2,23.2,0,0,1-9.318,9.212A27.7,27.7,0,0,1,31.29-33.325ZM20.115-47.506A15.009,15.009,0,0,0,31.29-43.05a14.978,14.978,0,0,0,11.175-4.473Q46.85-52,46.85-59.6q0-7.568-4.385-12.024A15.009,15.009,0,0,0,31.29-76.079a15.009,15.009,0,0,0-11.175,4.456Q15.73-67.168,15.73-59.6,15.73-52,20.115-47.506Z" transform="translate(-5.156 186.631)" fill="#00223d"/><path d="M31.29-33.325a27.777,27.777,0,0,1-13.42-3.2,23.2,23.2,0,0,1-9.318-9.212A27.705,27.705,0,0,1,5.156-59.6,27.679,27.679,0,0,1,8.551-73.48a23.112,23.112,0,0,1,9.318-9.177A27.9,27.9,0,0,1,31.29-85.84a27.8,27.8,0,0,1,13.4,3.183,23.143,23.143,0,0,1,9.3,9.177A27.679,27.679,0,0,1,57.388-59.6a27.705,27.705,0,0,1-3.395,13.863,23.2,23.2,0,0,1-9.318,9.212A27.7,27.7,0,0,1,31.29-33.325ZM20.115-47.506A15.009,15.009,0,0,0,31.29-43.05a14.978,14.978,0,0,0,11.175-4.473Q46.85-52,46.85-59.6q0-7.568-4.385-12.024A15.009,15.009,0,0,0,31.29-76.079a15.009,15.009,0,0,0-11.175,4.456Q15.73-67.168,15.73-59.6,15.73-52,20.115-47.506Z" transform="translate(121.587 292.854)" fill="#00223d"/><path d="M6.941,0A6.941,6.941,0,1,1,0,6.941,6.941,6.941,0,0,1,6.941,0Z" transform="translate(104.318 110.351)" fill="#1ec488"/><path d="M6.941,0A6.941,6.941,0,1,1,0,6.941,6.941,6.941,0,0,1,6.941,0Z" transform="translate(104.318 130.871)" fill="#1ec488"/><path d="M6.941,0A6.941,6.941,0,1,1,0,6.941,6.941,6.941,0,0,1,6.941,0Z" transform="translate(202.695 121.818)" fill="#1ec488"/><path d="M6.941,0A6.941,6.941,0,1,1,0,6.941,6.941,6.941,0,0,1,6.941,0Z" transform="translate(336.68 121.818)" fill="#1ec488"/><path d="M6.941,0A6.941,6.941,0,1,1,0,6.941,6.941,6.941,0,0,1,6.941,0Z" transform="translate(156.222 81.985)" fill="#1ec488"/><path d="M6.941,0A6.941,6.941,0,1,1,0,6.941,6.941,6.941,0,0,1,6.941,0Z" transform="translate(132.684 81.985)" fill="#1ec488"/><path d="M6.941,0A6.941,6.941,0,1,1,0,6.941,6.941,6.941,0,0,1,6.941,0Z" transform="translate(156.222 158.634)" fill="#1ec488"/><path d="M6.941,0A6.941,6.941,0,1,1,0,6.941,6.941,6.941,0,0,1,6.941,0Z" transform="translate(132.684 158.634)" fill="#1ec488"/><path d="M.156-7.96l4.974-6.071L.156-20.078H4.4l2.782,3.819,2.806-3.819H14.2L9.209-14.019,14.2-7.96H9.987l-2.782-3.8L4.412-7.96Z" transform="translate(132.622 82.702)" fill="#00223d"/><path d="M.156-7.96l4.974-6.071L.156-20.078H4.4l2.782,3.819,2.806-3.819H14.2L9.209-14.019,14.2-7.96H9.987l-2.782-3.8L4.412-7.96Z" transform="translate(156.16 82.702)" fill="#00223d"/><path d="M.156-7.96l4.974-6.071L.156-20.078H4.4l2.782,3.819,2.806-3.819H14.2L9.209-14.019,14.2-7.96H9.987l-2.782-3.8L4.412-7.96Z" transform="translate(188.148 55.543)" fill="#00223d"/><path d="M.156-7.96l4.974-6.071L.156-20.078H4.4l2.782,3.819,2.806-3.819H14.2L9.209-14.019,14.2-7.96H9.987l-2.782-3.8L4.412-7.96Z" transform="translate(188.148 28.384)" fill="#00223d"/><path d="M.156-7.96l4.974-6.071L.156-20.078H4.4l2.782,3.819,2.806-3.819H14.2L9.209-14.019,14.2-7.96H9.987l-2.782-3.8L4.412-7.96Z" transform="translate(104.256 55.543)" fill="#00223d"/><path d="M.156-7.96l4.974-6.071L.156-20.078H4.4l2.782,3.819,2.806-3.819H14.2L9.209-14.019,14.2-7.96H9.987l-2.782-3.8L4.412-7.96Z" transform="translate(104.256 28.384)" fill="#00223d"/><path d="M.156-7.96l4.974-6.071L.156-20.078H4.4l2.782,3.819,2.806-3.819H14.2L9.209-14.019,14.2-7.96H9.987l-2.782-3.8L4.412-7.96Z" transform="translate(7.086 98.998)" fill="#00223d"/><path d="M.156-7.96l4.974-6.071L.156-20.078H4.4l2.782,3.819,2.806-3.819H14.2L9.209-14.019,14.2-7.96H9.987l-2.782-3.8L4.412-7.96Z" transform="translate(30.624 98.998)" fill="#00223d"/><path d="M.156-7.96l4.974-6.071L.156-20.078H4.4l2.782,3.819,2.806-3.819H14.2L9.209-14.019,14.2-7.96H9.987l-2.782-3.8L4.412-7.96Z" transform="translate(7.086 181.683)" fill="#00223d"/><path d="M.156-7.96l4.974-6.071L.156-20.078H4.4l2.782,3.819,2.806-3.819H14.2L9.209-14.019,14.2-7.96H9.987l-2.782-3.8L4.412-7.96Z" transform="translate(30.624 181.683)" fill="#00223d"/><path d="M.156-7.96l4.974-6.071L.156-20.078H4.4l2.782,3.819,2.806-3.819H14.2L9.209-14.019,14.2-7.96H9.987l-2.782-3.8L4.412-7.96Z" transform="translate(132.622 205.824)" fill="#00223d"/><path d="M.156-7.96l4.974-6.071L.156-20.078H4.4l2.782,3.819,2.806-3.819H14.2L9.209-14.019,14.2-7.96H9.987l-2.782-3.8L4.412-7.96Z" transform="translate(156.16 205.824)" fill="#00223d"/><path d="M.156-7.96l4.974-6.071L.156-20.078H4.4l2.782,3.819,2.806-3.819H14.2L9.209-14.019,14.2-7.96H9.987l-2.782-3.8L4.412-7.96Z" transform="translate(104.256 258.936)" fill="#00223d"/><path d="M.156-7.96l4.974-6.071L.156-20.078H4.4l2.782,3.819,2.806-3.819H14.2L9.209-14.019,14.2-7.96H9.987l-2.782-3.8L4.412-7.96Z" transform="translate(104.256 231.776)" fill="#00223d"/><path d="M.156-7.96l4.974-6.071L.156-20.078H4.4l2.782,3.819,2.806-3.819H14.2L9.209-14.019,14.2-7.96H9.987l-2.782-3.8L4.412-7.96Z" transform="translate(188.148 258.936)" fill="#00223d"/><path d="M.156-7.96l4.974-6.071L.156-20.078H4.4l2.782,3.819,2.806-3.819H14.2L9.209-14.019,14.2-7.96H9.987l-2.782-3.8L4.412-7.96Z" transform="translate(188.148 231.776)" fill="#00223d"/><path d="M.156-7.96l4.974-6.071L.156-20.078H4.4l2.782,3.819,2.806-3.819H14.2L9.209-14.019,14.2-7.96H9.987l-2.782-3.8L4.412-7.96Z" transform="translate(226.171 141.849)" fill="#00223d"/><path d="M.156-7.96l4.974-6.071L.156-20.078H4.4l2.782,3.819,2.806-3.819H14.2L9.209-14.019,14.2-7.96H9.987l-2.782-3.8L4.412-7.96Z" transform="translate(315.495 141.849)" fill="#00223d"/><path d="M.156-7.96l4.974-6.071L.156-20.078H4.4l2.782,3.819,2.806-3.819H14.2L9.209-14.019,14.2-7.96H9.987l-2.782-3.8L4.412-7.96Z" transform="translate(261.78 105.033)" fill="#00223d"/><path d="M.156-7.96l4.974-6.071L.156-20.078H4.4l2.782,3.819,2.806-3.819H14.2L9.209-14.019,14.2-7.96H9.987l-2.782-3.8L4.412-7.96Z" transform="translate(285.318 105.033)" fill="#00223d"/><path d="M.156-7.96l4.974-6.071L.156-20.078H4.4l2.782,3.819,2.806-3.819H14.2L9.209-14.019,14.2-7.96H9.987l-2.782-3.8L4.412-7.96Z" transform="translate(261.78 181.683)" fill="#00223d"/><path d="M.156-7.96l4.974-6.071L.156-20.078H4.4l2.782,3.819,2.806-3.819H14.2L9.209-14.019,14.2-7.96H9.987l-2.782-3.8L4.412-7.96Z" transform="translate(285.318 181.683)" fill="#00223d"/></g></g></g></svg>