<svg xmlns="http://www.w3.org/2000/svg" width="270" height="250" viewBox="0 0 270 250"><g transform="translate(-9207 9432.094)"><g transform="translate(-85 96.906)"><g transform="translate(9292 -9529)" fill="#fff" stroke="#707070" stroke-width="1"><rect width="270" height="250" rx="17" stroke="none"/><rect x="0.5" y="0.5" width="269" height="249" rx="16.5" fill="none"/></g><g transform="translate(215 -58)"><text transform="translate(9099 -9438)" fill="#12263f" font-size="16" font-family="Roboto-Bold, Roboto" font-weight="700"><tspan x="0" y="0">Elemento central del compuesto</tspan></text><g transform="translate(8224 -14545.742)"><path d="M41.26,25.147q-14.427,0-24.1-6.525A27.623,27.623,0,0,1,5.127.687L17-2.133a19.463,19.463,0,0,0,8.328,12.591q6.689,4.59,16.329,4.59a34.065,34.065,0,0,0,6.1-.525,23.328,23.328,0,0,0,5.541-1.738A16.967,16.967,0,0,0,57.851,9.8a12.454,12.454,0,0,0,3.017-4.525A15.489,15.489,0,0,0,61.917-.887a13.328,13.328,0,0,0-.82-4.361,13.843,13.843,0,0,0-1.836-3.443,12.366,12.366,0,0,0-3.115-2.787,41.742,41.742,0,0,0-3.738-2.23,33.789,33.789,0,0,0-4.623-1.869q-2.918-.984-4.886-1.541t-5.312-1.475q-.656-.2-.984-.262-3.8-.984-6.2-1.705t-5.738-2a37.751,37.751,0,0,1-5.476-2.525A37.066,37.066,0,0,1,14.7-28.233,16.125,16.125,0,0,1,11-32.331a21.634,21.634,0,0,1-2.23-5.213A23.2,23.2,0,0,1,7.881-44.1a23.417,23.417,0,0,1,4.3-14.165,25.131,25.131,0,0,1,11.083-8.656,40.228,40.228,0,0,1,15.247-2.754q12.919,0,22.2,5.672A25.277,25.277,0,0,1,72.475-47.25l-11.41,2.885A17.367,17.367,0,0,0,53.392-55.71a26.287,26.287,0,0,0-14.427-3.8,28.579,28.579,0,0,0-7.082.853,21.044,21.044,0,0,0-6.132,2.623,12.732,12.732,0,0,0-4.426,4.82,14.659,14.659,0,0,0-1.639,7.05,11.333,11.333,0,0,0,.656,3.9,11.978,11.978,0,0,0,1.639,3.115,11.672,11.672,0,0,0,2.82,2.558,28.644,28.644,0,0,0,3.443,2.033,34.892,34.892,0,0,0,4.3,1.672q2.689.885,4.59,1.443T42.178-28.1q12.394,3.279,17.772,5.9,12,5.9,13.706,16.985a29.279,29.279,0,0,1,.262,4A25.8,25.8,0,0,1,71.262,10.72a21.529,21.529,0,0,1-7.279,8.263,34.8,34.8,0,0,1-10.361,4.623A47.516,47.516,0,0,1,41.26,25.147Z" transform="translate(953.273 5240.515)" fill="#00223d"/><circle cx="9.401" cy="9.401" r="9.401" transform="translate(916 5222.782)" fill="red"/><circle cx="9.401" cy="9.401" r="9.401" transform="translate(916 5194.579)" fill="red"/><circle cx="9.401" cy="9.401" r="9.401" transform="translate(997.253 5156.302) rotate(-90)" fill="red"/><circle cx="9.401" cy="9.401" r="9.401" transform="translate(969.05 5156.302) rotate(-90)" fill="red"/><circle cx="9.401" cy="9.401" r="9.401" transform="translate(1044.931 5209.352)" fill="red"/><circle cx="9.401" cy="9.401" r="9.401" transform="translate(988.524 5280.533)" fill="red"/></g></g></g></g></svg>