<svg xmlns="http://www.w3.org/2000/svg" width="674" height="445" viewBox="0 0 674 445">
  <g id="Grupo_178784" data-name="Grupo 178784" transform="translate(-720 -11323.523)">
    <path id="Trazado_187513" data-name="Trazado 187513" d="M10,0H664a10,10,0,0,1,10,10V435a10,10,0,0,1-10,10H10A10,10,0,0,1,0,435V10A10,10,0,0,1,10,0Z" transform="translate(720 11323.523)" fill="#fff"/>
    <path id="Trazado_187514" data-name="Trazado 187514" d="M59.434,15.563a4.068,4.068,0,0,1-1.789,1.176,7.492,7.492,0,0,1-2.562.418,5.076,5.076,0,0,1-2.59-.645,4.3,4.3,0,0,1-1.719-1.871,6.585,6.585,0,0,1-.621-2.883v-.773a6.994,6.994,0,0,1,.574-2.949,4.248,4.248,0,0,1,1.656-1.906,5.453,5.453,0,0,1,5.7.3,4.123,4.123,0,0,1,1.352,2.809H57.152a2.268,2.268,0,0,0-.691-1.43,2.208,2.208,0,0,0-1.473-.453,2.078,2.078,0,0,0-1.82.9,4.724,4.724,0,0,0-.633,2.672v.727a4.5,4.5,0,0,0,.68,2.7,2.327,2.327,0,0,0,1.992.914,2.6,2.6,0,0,0,1.883-.562V12.75H54.957V11.023h4.477Zm6.5-4.9a6.134,6.134,0,0,0-.812-.062,1.654,1.654,0,0,0-1.68.867V17H61.184V8.547h2.133l.063,1.008a2.092,2.092,0,0,1,1.883-1.164,2.366,2.366,0,0,1,.7.1Zm6.148,5.477a2.831,2.831,0,0,1-2.312,1.016,2.67,2.67,0,0,1-2.074-.781,3.335,3.335,0,0,1-.73-2.289V8.547h2.258v5.467q0,1.322,1.2,1.322a1.63,1.63,0,0,0,1.578-.8V8.547H74.27V17H72.145Zm11.5-3.289A5.07,5.07,0,0,1,82.7,15.98,2.843,2.843,0,0,1,80.3,17.156a2.633,2.633,0,0,1-2.07-.891V20.25H75.973V8.547h2.094l.078.828a2.654,2.654,0,0,1,2.141-.984,2.862,2.862,0,0,1,2.43,1.156,5.207,5.207,0,0,1,.867,3.188Zm-2.258-.164a3.327,3.327,0,0,0-.418-1.82,1.361,1.361,0,0,0-1.215-.641,1.478,1.478,0,0,0-1.461.813V14.5a1.5,1.5,0,0,0,1.477.836Q81.324,15.336,81.324,12.688Zm3.3.008a5.013,5.013,0,0,1,.484-2.242A3.546,3.546,0,0,1,86.508,8.93a4.069,4.069,0,0,1,2.113-.539,3.849,3.849,0,0,1,2.793,1.047,4.2,4.2,0,0,1,1.207,2.844l.016.578a4.418,4.418,0,0,1-1.086,3.121,4.209,4.209,0,0,1-5.832,0,4.5,4.5,0,0,1-1.09-3.187Zm2.258.16A3.16,3.16,0,0,0,87.34,14.7a1.628,1.628,0,0,0,2.578.008,3.457,3.457,0,0,0,.461-2.015,3.128,3.128,0,0,0-.461-1.831,1.5,1.5,0,0,0-1.3-.649,1.474,1.474,0,0,0-1.281.646A3.516,3.516,0,0,0,86.887,12.856Zm11.719,1.808a.727.727,0,0,0-.41-.652,4.659,4.659,0,0,0-1.316-.426q-3.016-.633-3.016-2.562A2.323,2.323,0,0,1,94.8,9.145a3.766,3.766,0,0,1,2.441-.754,4.053,4.053,0,0,1,2.574.758,2.388,2.388,0,0,1,.965,1.969H98.52a1.092,1.092,0,0,0-.312-.8A1.322,1.322,0,0,0,97.23,10a1.351,1.351,0,0,0-.883.258.814.814,0,0,0-.312.656.7.7,0,0,0,.355.605,3.657,3.657,0,0,0,1.2.4,9.8,9.8,0,0,1,1.422.379A2.336,2.336,0,0,1,100.8,14.57a2.2,2.2,0,0,1-.992,1.871,4.28,4.28,0,0,1-2.562.715,4.47,4.47,0,0,1-1.887-.379,3.166,3.166,0,0,1-1.293-1.039,2.414,2.414,0,0,1-.469-1.426h2.141a1.179,1.179,0,0,0,.445.922,1.766,1.766,0,0,0,1.109.32,1.635,1.635,0,0,0,.98-.246A.766.766,0,0,0,98.605,14.664Zm7.281-1.953a5.094,5.094,0,0,1,.887-3.148A2.877,2.877,0,0,1,109.2,8.391a2.589,2.589,0,0,1,2.039.922V5H113.5V17h-2.039l-.109-.9a2.657,2.657,0,0,1-2.172,1.055,2.869,2.869,0,0,1-2.395-1.176A5.258,5.258,0,0,1,105.887,12.711Zm2.258.168a3.337,3.337,0,0,0,.414,1.823,1.349,1.349,0,0,0,1.2.634,1.511,1.511,0,0,0,1.477-.884V11.111a1.489,1.489,0,0,0-1.461-.884Q108.145,10.227,108.145,12.879Zm11,4.277a4.15,4.15,0,0,1-3.027-1.141,4.054,4.054,0,0,1-1.168-3.039v-.219a5.106,5.106,0,0,1,.492-2.277,3.612,3.612,0,0,1,1.395-1.547,3.914,3.914,0,0,1,2.059-.543,3.508,3.508,0,0,1,2.73,1.094,4.444,4.444,0,0,1,1,3.1v.922h-5.383a2.1,2.1,0,0,0,.66,1.328,2,2,0,0,0,1.395.5,2.437,2.437,0,0,0,2.039-.945l1.109,1.242a3.389,3.389,0,0,1-1.375,1.121A4.511,4.511,0,0,1,119.145,17.156Zm-.258-6.945a1.411,1.411,0,0,0-1.09.455,2.357,2.357,0,0,0-.535,1.3H120.4v-.181A1.681,1.681,0,0,0,120,10.623,1.456,1.456,0,0,0,118.887,10.211ZM130.27,17H128V5h2.266Zm6.758,0a2.507,2.507,0,0,1-.227-.758,2.732,2.732,0,0,1-2.133.914,3,3,0,0,1-2.059-.719,2.312,2.312,0,0,1-.816-1.812,2.389,2.389,0,0,1,1-2.062,4.915,4.915,0,0,1,2.879-.727h1.039v-.484a1.393,1.393,0,0,0-.3-.937,1.183,1.183,0,0,0-.949-.352,1.345,1.345,0,0,0-.895.273.929.929,0,0,0-.324.75H131.98a2.268,2.268,0,0,1,.453-1.359,3,3,0,0,1,1.281-.98,4.669,4.669,0,0,1,1.859-.355,3.689,3.689,0,0,1,2.48.785,2.747,2.747,0,0,1,.918,2.207v3.664a4.041,4.041,0,0,0,.336,1.82V17Zm-1.867-1.57a1.945,1.945,0,0,0,.922-.223,1.462,1.462,0,0,0,.625-.6V13.156h-.844q-1.7,0-1.8,1.172l-.008.133a.9.9,0,0,0,.3.7A1.153,1.153,0,0,0,135.16,15.43Zm12.234-8.961V8.547h1.445V10.2h-1.445v4.219a1.007,1.007,0,0,0,.18.672.9.9,0,0,0,.688.2,3.6,3.6,0,0,0,.664-.055v1.711a4.648,4.648,0,0,1-1.367.2,2.156,2.156,0,0,1-2.422-2.4V10.2H143.9V8.547h1.234V6.469ZM155,17a2.507,2.507,0,0,1-.227-.758,2.732,2.732,0,0,1-2.133.914,3,3,0,0,1-2.059-.719,2.312,2.312,0,0,1-.816-1.812,2.389,2.389,0,0,1,1-2.062,4.915,4.915,0,0,1,2.879-.727h1.039v-.484a1.393,1.393,0,0,0-.3-.937,1.183,1.183,0,0,0-.949-.352,1.345,1.345,0,0,0-.895.273.929.929,0,0,0-.324.75h-2.258a2.268,2.268,0,0,1,.453-1.359,3,3,0,0,1,1.281-.98,4.669,4.669,0,0,1,1.859-.355,3.689,3.689,0,0,1,2.48.785,2.747,2.747,0,0,1,.918,2.207v3.664a4.041,4.041,0,0,0,.336,1.82V17Zm-1.867-1.57a1.945,1.945,0,0,0,.922-.223,1.462,1.462,0,0,0,.625-.6V13.156h-.844q-1.7,0-1.8,1.172l-.008.133a.9.9,0,0,0,.3.7A1.153,1.153,0,0,0,153.129,15.43Zm13.164-2.578a5.119,5.119,0,0,1-.867,3.168A2.872,2.872,0,0,1,163,17.156a2.639,2.639,0,0,1-2.2-1.055l-.1.9h-2.031V5h2.258V9.3a2.571,2.571,0,0,1,2.055-.914,2.9,2.9,0,0,1,2.426,1.137,5.126,5.126,0,0,1,.879,3.2Zm-2.258-.164a3.363,3.363,0,0,0-.406-1.871,1.374,1.374,0,0,0-1.211-.59,1.489,1.489,0,0,0-1.484.883v3.336a1.509,1.509,0,0,0,1.5.891,1.394,1.394,0,0,0,1.438-1.078A5.562,5.562,0,0,0,164.035,12.688ZM170.066,17H167.8V5h2.266Zm6.758,0a2.507,2.507,0,0,1-.227-.758,2.732,2.732,0,0,1-2.133.914,3,3,0,0,1-2.059-.719,2.312,2.312,0,0,1-.816-1.812,2.389,2.389,0,0,1,1-2.062,4.915,4.915,0,0,1,2.879-.727H176.5v-.484a1.393,1.393,0,0,0-.3-.937,1.183,1.183,0,0,0-.949-.352,1.345,1.345,0,0,0-.895.273.929.929,0,0,0-.324.75h-2.258a2.268,2.268,0,0,1,.453-1.359,3,3,0,0,1,1.281-.98,4.669,4.669,0,0,1,1.859-.355,3.689,3.689,0,0,1,2.48.785,2.747,2.747,0,0,1,.918,2.207v3.664a4.041,4.041,0,0,0,.336,1.82V17Zm-1.867-1.57a1.945,1.945,0,0,0,.922-.223,1.462,1.462,0,0,0,.625-.6V13.156h-.844q-1.7,0-1.8,1.172l-.008.133a.9.9,0,0,0,.3.7A1.153,1.153,0,0,0,174.957,15.43ZM192.1,12.852a5.07,5.07,0,0,1-.887,3.129,2.843,2.843,0,0,1-2.395,1.176,2.633,2.633,0,0,1-2.07-.891V20.25h-2.258V8.547h2.094l.078.828a2.654,2.654,0,0,1,2.141-.984,2.862,2.862,0,0,1,2.43,1.156,5.207,5.207,0,0,1,.867,3.188Zm-2.258-.164a3.327,3.327,0,0,0-.418-1.82,1.361,1.361,0,0,0-1.215-.641,1.479,1.479,0,0,0-1.461.813V14.5a1.5,1.5,0,0,0,1.477.836Q189.84,15.336,189.84,12.688Zm7.547,4.469a4.15,4.15,0,0,1-3.027-1.141,4.054,4.054,0,0,1-1.168-3.039v-.219a5.106,5.106,0,0,1,.492-2.277,3.612,3.612,0,0,1,1.395-1.547,3.914,3.914,0,0,1,2.059-.543,3.508,3.508,0,0,1,2.73,1.094,4.444,4.444,0,0,1,1,3.1v.922H195.48a2.1,2.1,0,0,0,.66,1.328,2,2,0,0,0,1.395.5,2.437,2.437,0,0,0,2.039-.945l1.109,1.242a3.389,3.389,0,0,1-1.375,1.121A4.511,4.511,0,0,1,197.387,17.156Zm-.258-6.945a1.411,1.411,0,0,0-1.09.455,2.357,2.357,0,0,0-.535,1.3h3.141v-.181a1.681,1.681,0,0,0-.406-1.165A1.456,1.456,0,0,0,197.129,10.211Zm9.766.453a6.134,6.134,0,0,0-.812-.062,1.654,1.654,0,0,0-1.68.867V17h-2.258V8.547h2.133l.063,1.008a2.092,2.092,0,0,1,1.883-1.164,2.366,2.366,0,0,1,.7.1ZM210.363,17H208.1V8.547h2.266Zm-2.4-10.641a1.112,1.112,0,0,1,.34-.836,1.465,1.465,0,0,1,1.848,0,1.105,1.105,0,0,1,.344.836,1.109,1.109,0,0,1-.348.844,1.448,1.448,0,0,1-1.836,0A1.109,1.109,0,0,1,207.965,6.359Zm3.906,6.336a5.013,5.013,0,0,1,.484-2.242A3.546,3.546,0,0,1,213.75,8.93a4.069,4.069,0,0,1,2.113-.539,3.849,3.849,0,0,1,2.793,1.047,4.2,4.2,0,0,1,1.207,2.844l.016.578a4.418,4.418,0,0,1-1.086,3.121,4.209,4.209,0,0,1-5.832,0,4.5,4.5,0,0,1-1.09-3.187Zm2.258.16a3.16,3.16,0,0,0,.453,1.843,1.628,1.628,0,0,0,2.578.008,3.457,3.457,0,0,0,.461-2.015,3.128,3.128,0,0,0-.461-1.831,1.5,1.5,0,0,0-1.3-.649,1.474,1.474,0,0,0-1.281.646A3.516,3.516,0,0,0,214.129,12.856ZM216.309,5h2.461l-2.164,2.422H214.77Zm4.609,7.711a5.094,5.094,0,0,1,.887-3.148,2.877,2.877,0,0,1,2.426-1.172,2.589,2.589,0,0,1,2.039.922V5h2.266V17H226.5l-.109-.9a2.657,2.657,0,0,1-2.172,1.055,2.869,2.869,0,0,1-2.395-1.176A5.258,5.258,0,0,1,220.918,12.711Zm2.258.168a3.337,3.337,0,0,0,.414,1.823,1.349,1.349,0,0,0,1.2.634,1.511,1.511,0,0,0,1.477-.884V11.111a1.489,1.489,0,0,0-1.461-.884Q223.176,10.227,223.176,12.879ZM232.668,17H230.4V8.547h2.266Zm-2.4-10.641a1.112,1.112,0,0,1,.34-.836,1.465,1.465,0,0,1,1.848,0,1.105,1.105,0,0,1,.344.836,1.109,1.109,0,0,1-.348.844,1.448,1.448,0,0,1-1.836,0A1.109,1.109,0,0,1,230.27,6.359Zm7.773,8.977a1.481,1.481,0,0,0,1.016-.344,1.2,1.2,0,0,0,.406-.914h2.117a2.9,2.9,0,0,1-.469,1.574,3.093,3.093,0,0,1-1.262,1.109,3.949,3.949,0,0,1-1.77.395A3.67,3.67,0,0,1,235.223,16a4.56,4.56,0,0,1-1.047-3.184v-.148a4.508,4.508,0,0,1,1.039-3.117,3.627,3.627,0,0,1,2.852-1.164,3.555,3.555,0,0,1,2.543.9,3.2,3.2,0,0,1,.973,2.4h-2.117a1.551,1.551,0,0,0-.406-1.072,1.51,1.51,0,0,0-2.223.163,3.333,3.333,0,0,0-.4,1.866v.235a3.375,3.375,0,0,0,.4,1.878A1.377,1.377,0,0,0,238.043,15.336ZM247.77,17a2.507,2.507,0,0,1-.227-.758,2.732,2.732,0,0,1-2.133.914,3,3,0,0,1-2.059-.719,2.312,2.312,0,0,1-.816-1.812,2.389,2.389,0,0,1,1-2.062,4.915,4.915,0,0,1,2.879-.727h1.039v-.484a1.393,1.393,0,0,0-.3-.937,1.183,1.183,0,0,0-.949-.352,1.345,1.345,0,0,0-.895.273.929.929,0,0,0-.324.75h-2.258a2.268,2.268,0,0,1,.453-1.359,3,3,0,0,1,1.281-.98,4.669,4.669,0,0,1,1.859-.355,3.689,3.689,0,0,1,2.48.785,2.747,2.747,0,0,1,.918,2.207v3.664a4.041,4.041,0,0,0,.336,1.82V17ZM245.9,15.43a1.945,1.945,0,0,0,.922-.223,1.462,1.462,0,0,0,.625-.6V13.156h-.844q-1.7,0-1.8,1.172l-.008.133a.9.9,0,0,0,.3.7A1.153,1.153,0,0,0,245.9,15.43Z" transform="translate(919 11354.523)" fill="#12263f"/>
    <g id="Grupo_178217" data-name="Grupo 178217" transform="translate(0 576.523)">
      <path id="Trazado_186616" data-name="Trazado 186616" d="M-735.385-300.363h25.456v25.456h-25.456v-25.456Z" transform="translate(1607.737 11214.106)" fill="#fd7f80" fill-rule="evenodd"/>
      <path id="Trazado_186617" data-name="Trazado 186617" d="M-735.385-157.213h25.456v25.456h-25.456v-25.456Z" transform="translate(1607.737 11096.668)" fill="#fd7f80" fill-rule="evenodd"/>
      <path id="Trazado_186618" data-name="Trazado 186618" d="M-735.385-14.063h25.456V11.393h-25.456V-14.063Z" transform="translate(1607.737 10979.229)" fill="#fd7f80" fill-rule="evenodd"/>
      <path id="Trazado_186619" data-name="Trazado 186619" d="M-735.385,129.086h25.456v25.456h-25.456V129.086Z" transform="translate(1607.737 10861.79)" fill="#fd7f80" fill-rule="evenodd"/>
      <path id="Trazado_186620" data-name="Trazado 186620" d="M-735.385,272.235h25.456v25.456h-25.456V272.235Z" transform="translate(1607.737 10744.352)" fill="#fd7f80" fill-rule="evenodd"/>
      <path id="Trazado_186621" data-name="Trazado 186621" d="M-735.385,415.386h25.456v25.456h-25.456V415.386Z" transform="translate(1607.737 10626.913)" fill="#fd7f80" fill-rule="evenodd"/>
      <path id="Trazado_186622" data-name="Trazado 186622" d="M839.261-157.213h25.456v25.456H839.261v-25.456Z" transform="translate(315.911 11096.668)" fill="#fecc80" fill-rule="evenodd"/>
      <path id="Trazado_186623" data-name="Trazado 186623" d="M839.261,415.386h25.456v25.456H839.261V415.386Z" transform="translate(315.911 10626.913)" fill="#fff" stroke="#707070" stroke-width="1" fill-rule="evenodd"/>
      <path id="Trazado_186624" data-name="Trazado 186624" d="M982.41,129.086h25.456v25.456H982.41V129.086Z" transform="translate(198.472 10861.79)" fill="#fecc80" fill-rule="evenodd"/>
      <path id="Trazado_186625" data-name="Trazado 186625" d="M982.41,272.235h25.456v25.456H982.41V272.235Z" transform="translate(198.472 10744.352)" fill="#fecc80" fill-rule="evenodd"/>
      <path id="Trazado_186626" data-name="Trazado 186626" d="M839.261-14.063h25.456V11.393H839.261V-14.063Z" transform="translate(315.911 10979.229)" fill="#fecc80" fill-rule="evenodd"/>
      <path id="Trazado_186627" data-name="Trazado 186627" d="M839.261,129.086h25.456v25.456H839.261V129.086Z" transform="translate(315.911 10861.79)" fill="#fecc80" fill-rule="evenodd"/>
      <path id="Trazado_186628" data-name="Trazado 186628" d="M839.261,272.235h25.456v25.456H839.261V272.235Z" transform="translate(315.911 10744.352)" fill="#fecc80" fill-rule="evenodd"/>
      <path id="Trazado_186629" data-name="Trazado 186629" d="M982.41,415.386h25.456v25.456H982.41V415.386Z" transform="translate(198.472 10626.913)" fill="#fff" stroke="#707070" stroke-width="1" fill-rule="evenodd"/>
      <path id="Trazado_186630" data-name="Trazado 186630" d="M-878.535-443.512h25.456v25.456h-25.456v-25.456Z" transform="translate(1725.177 11331.544)" fill="#fd7f80" fill-rule="evenodd"/>
      <path id="Trazado_186631" data-name="Trazado 186631" d="M982.41-300.363h25.456v25.456H982.41v-25.456Z" transform="translate(198.472 11214.106)" fill="#cce580" fill-rule="evenodd"/>
      <path id="Trazado_186632" data-name="Trazado 186632" d="M839.261-300.363h25.456v25.456H839.261v-25.456Z" transform="translate(315.911 11214.106)" fill="#cce580" fill-rule="evenodd"/>
      <path id="Trazado_186633" data-name="Trazado 186633" d="M982.41-14.063h25.456V11.393H982.41V-14.063Z" transform="translate(198.472 10979.229)" fill="#fecc80" fill-rule="evenodd"/>
      <path id="Trazado_186634" data-name="Trazado 186634" d="M982.41-157.213h25.456v25.456H982.41v-25.456Z" transform="translate(198.472 11096.668)" fill="#cce580" fill-rule="evenodd"/>
      <path id="Trazado_186635" data-name="Trazado 186635" d="M-878.535-300.363h25.456v25.456h-25.456v-25.456Z" transform="translate(1725.177 11214.106)" fill="#fd7f80" fill-rule="evenodd"/>
      <path id="Trazado_186636" data-name="Trazado 186636" d="M-878.535-157.213h25.456v25.456h-25.456v-25.456Z" transform="translate(1725.177 11096.668)" fill="#fd7f80" fill-rule="evenodd"/>
      <path id="Trazado_186637" data-name="Trazado 186637" d="M-878.535-14.063h25.456V11.393h-25.456V-14.063Z" transform="translate(1725.177 10979.229)" fill="#fd7f80" fill-rule="evenodd"/>
      <path id="Trazado_186638" data-name="Trazado 186638" d="M-878.535,129.086h25.456v25.456h-25.456V129.086Z" transform="translate(1725.177 10861.79)" fill="#fd7f80" fill-rule="evenodd"/>
      <path id="Trazado_186639" data-name="Trazado 186639" d="M-878.535,272.235h25.456v25.456h-25.456V272.235Z" transform="translate(1725.177 10744.352)" fill="#fd7f80" fill-rule="evenodd"/>
      <path id="Trazado_186640" data-name="Trazado 186640" d="M-878.535,415.386h25.456v25.456h-25.456V415.386Z" transform="translate(1725.177 10626.913)" fill="#fd7f80" fill-rule="evenodd"/>
      <path id="Trazado_186641" data-name="Trazado 186641" d="M696.111,129.086h25.457v25.456H696.111V129.086Z" transform="translate(433.35 10861.79)" fill="#d8f2f2" fill-rule="evenodd"/>
      <path id="Trazado_186642" data-name="Trazado 186642" d="M696.111,272.235h25.457v25.456H696.111V272.235Z" transform="translate(433.35 10744.352)" fill="#d8f2f2" fill-rule="evenodd"/>
      <path id="Trazado_186643" data-name="Trazado 186643" d="M266.663,272.235h25.456v25.456H266.663V272.235Z" transform="translate(785.665 10744.352)" fill="#d8f2f2" fill-rule="evenodd"/>
      <path id="Trazado_186644" data-name="Trazado 186644" d="M552.962,415.386h25.456v25.456H552.962V415.386Z" transform="translate(550.789 10626.913)" fill="#fff" stroke="#707070" stroke-width="1" fill-rule="evenodd"/>
      <path id="Trazado_186645" data-name="Trazado 186645" d="M696.111,415.386h25.457v25.456H696.111V415.386Z" transform="translate(433.35 10626.913)" fill="#fff" stroke="#707070" stroke-width="1" fill-rule="evenodd"/>
      <path id="Trazado_186646" data-name="Trazado 186646" d="M266.663,415.386h25.456v25.456H266.663V415.386Z" transform="translate(785.665 10626.913)" fill="#fff" stroke="#707070" stroke-width="1" fill-rule="evenodd"/>
      <path id="Trazado_186647" data-name="Trazado 186647" d="M409.812,415.386h25.456v25.456H409.812V415.386Z" transform="translate(668.227 10626.913)" fill="#fff" stroke="#707070" stroke-width="1" fill-rule="evenodd"/>
      <path id="Trazado_186648" data-name="Trazado 186648" d="M552.962,272.235h25.456v25.456H552.962V272.235Z" transform="translate(550.789 10744.352)" fill="#d8f2f2" fill-rule="evenodd"/>
      <path id="Trazado_186649" data-name="Trazado 186649" d="M409.812,272.235h25.456v25.456H409.812V272.235Z" transform="translate(668.227 10744.352)" fill="#d8f2f2" fill-rule="evenodd"/>
      <path id="Trazado_186650" data-name="Trazado 186650" d="M552.962,129.086h25.456v25.456H552.962V129.086Z" transform="translate(550.789 10861.79)" fill="#d8f2f2" fill-rule="evenodd"/>
      <path id="Trazado_186651" data-name="Trazado 186651" d="M409.812,129.086h25.456v25.456H409.812V129.086Z" transform="translate(668.227 10861.79)" fill="#d8f2f2" fill-rule="evenodd"/>
      <path id="Trazado_186652" data-name="Trazado 186652" d="M266.663,129.086h25.456v25.456H266.663V129.086Z" transform="translate(785.665 10861.79)" fill="#d8f2f2" fill-rule="evenodd"/>
      <path id="Trazado_186653" data-name="Trazado 186653" d="M696.111-14.063h25.457V11.393H696.111V-14.063Z" transform="translate(433.35 10979.229)" fill="#d8f2f2" fill-rule="evenodd"/>
      <path id="Trazado_186654" data-name="Trazado 186654" d="M552.962-14.063h25.456V11.393H552.962V-14.063Z" transform="translate(550.789 10979.229)" fill="#d8f2f2" fill-rule="evenodd"/>
      <path id="Trazado_186655" data-name="Trazado 186655" d="M409.812-14.063h25.456V11.393H409.812V-14.063Z" transform="translate(668.227 10979.229)" fill="#d8f2f2" fill-rule="evenodd"/>
      <path id="Trazado_186656" data-name="Trazado 186656" d="M266.663-14.063h25.456V11.393H266.663V-14.063Z" transform="translate(785.665 10979.229)" fill="#d8f2f2" fill-rule="evenodd"/>
      <path id="Trazado_186657" data-name="Trazado 186657" d="M-162.787,272.235h25.456v25.456h-25.456V272.235Z" transform="translate(1137.982 10744.352)" fill="#d8f2f2" fill-rule="evenodd"/>
      <path id="Trazado_186658" data-name="Trazado 186658" d="M123.513,415.386h25.456v25.456H123.513V415.386Z" transform="translate(903.104 10626.913)" fill="#fff" stroke="#707070" stroke-width="1" fill-rule="evenodd"/>
      <path id="Trazado_186659" data-name="Trazado 186659" d="M-162.787,415.386h25.456v25.456h-25.456V415.386Z" transform="translate(1137.982 10626.913)" fill="#fff" stroke="#707070" stroke-width="1" fill-rule="evenodd"/>
      <path id="Trazado_186660" data-name="Trazado 186660" d="M-19.637,415.386H5.82v25.456H-19.637V415.386Z" transform="translate(1020.543 10626.913)" fill="#fff" stroke="#707070" stroke-width="1" fill-rule="evenodd"/>
      <path id="Trazado_186661" data-name="Trazado 186661" d="M123.513,272.235h25.456v25.456H123.513V272.235Z" transform="translate(903.104 10744.352)" fill="#d8f2f2" fill-rule="evenodd"/>
      <path id="Trazado_186662" data-name="Trazado 186662" d="M-19.637,272.235H5.82v25.456H-19.637V272.235Z" transform="translate(1020.543 10744.352)" fill="#d8f2f2" fill-rule="evenodd"/>
      <path id="Trazado_186663" data-name="Trazado 186663" d="M123.513,129.086h25.456v25.456H123.513V129.086Z" transform="translate(903.104 10861.79)" fill="#d8f2f2" fill-rule="evenodd"/>
      <path id="Trazado_186664" data-name="Trazado 186664" d="M-19.637,129.086H5.82v25.456H-19.637V129.086Z" transform="translate(1020.543 10861.79)" fill="#d8f2f2" fill-rule="evenodd"/>
      <path id="Trazado_186665" data-name="Trazado 186665" d="M-162.787,129.086h25.456v25.456h-25.456V129.086Z" transform="translate(1137.982 10861.79)" fill="#d8f2f2" fill-rule="evenodd"/>
      <path id="Trazado_186666" data-name="Trazado 186666" d="M123.513-14.063h25.456V11.393H123.513V-14.063Z" transform="translate(903.104 10979.229)" fill="#d8f2f2" fill-rule="evenodd"/>
      <path id="Trazado_186667" data-name="Trazado 186667" d="M-19.637-14.063H5.82V11.393H-19.637V-14.063Z" transform="translate(1020.543 10979.229)" fill="#d8f2f2" fill-rule="evenodd"/>
      <path id="Trazado_186668" data-name="Trazado 186668" d="M-162.787-14.063h25.456V11.393h-25.456V-14.063Z" transform="translate(1137.982 10979.229)" fill="#d8f2f2" fill-rule="evenodd"/>
      <path id="Trazado_186669" data-name="Trazado 186669" d="M-305.936,415.386h25.456v25.456h-25.456V415.386Z" transform="translate(1255.42 10626.913)" fill="#fff" stroke="#707070" stroke-width="1" fill-rule="evenodd"/>
      <path id="Trazado_186670" data-name="Trazado 186670" d="M-449.086,415.386h25.456v25.456h-25.456V415.386Z" transform="translate(1372.86 10626.913)" fill="#fff" stroke="#707070" stroke-width="1" fill-rule="evenodd"/>
      <path id="Trazado_186671" data-name="Trazado 186671" d="M-305.936,272.235h25.456v25.456h-25.456V272.235Z" transform="translate(1255.42 10744.352)" fill="#d8f2f2" fill-rule="evenodd"/>
      <path id="Trazado_186672" data-name="Trazado 186672" d="M-449.086,272.235h25.456v25.456h-25.456V272.235Z" transform="translate(1372.86 10744.352)" fill="#d8f2f2" fill-rule="evenodd"/>
      <path id="Trazado_186673" data-name="Trazado 186673" d="M-305.936,129.086h25.456v25.456h-25.456V129.086Z" transform="translate(1255.42 10861.79)" fill="#d8f2f2" fill-rule="evenodd"/>
      <path id="Trazado_186674" data-name="Trazado 186674" d="M-449.086,129.086h25.456v25.456h-25.456V129.086Z" transform="translate(1372.86 10861.79)" fill="#d8f2f2" fill-rule="evenodd"/>
      <path id="Trazado_186675" data-name="Trazado 186675" d="M-592.235,129.086h25.456v25.456h-25.456V129.086Z" transform="translate(1490.299 10861.79)" fill="#d8f2f2" fill-rule="evenodd"/>
      <path id="Trazado_186676" data-name="Trazado 186676" d="M-305.936-14.063h25.456V11.393h-25.456V-14.063Z" transform="translate(1255.42 10979.229)" fill="#d8f2f2" fill-rule="evenodd"/>
      <path id="Trazado_186677" data-name="Trazado 186677" d="M-449.086-14.063h25.456V11.393h-25.456V-14.063Z" transform="translate(1372.86 10979.229)" fill="#d8f2f2" fill-rule="evenodd"/>
      <path id="Trazado_186678" data-name="Trazado 186678" d="M-592.235-14.063h25.456V11.393h-25.456V-14.063Z" transform="translate(1490.299 10979.229)" fill="#d8f2f2" fill-rule="evenodd"/>
      <path id="Trazado_186679" data-name="Trazado 186679" d="M982.41,632.235h25.456v25.456H982.41V632.235Z" transform="translate(198.472 10449.011)" fill="#feccfa" fill-rule="evenodd"/>
      <path id="Trazado_186680" data-name="Trazado 186680" d="M839.261,632.235h25.456v25.456H839.261V632.235Z" transform="translate(315.911 10449.011)" fill="#feccfa" fill-rule="evenodd"/>
      <path id="Trazado_186681" data-name="Trazado 186681" d="M696.111,632.235h25.457v25.456H696.111V632.235Z" transform="translate(433.35 10449.011)" fill="#feccfa" fill-rule="evenodd"/>
      <path id="Trazado_186682" data-name="Trazado 186682" d="M552.962,632.235h25.456v25.456H552.962V632.235Z" transform="translate(550.789 10449.011)" fill="#feccfa" fill-rule="evenodd"/>
      <path id="Trazado_186683" data-name="Trazado 186683" d="M409.812,632.235h25.456v25.456H409.812V632.235Z" transform="translate(668.227 10449.011)" fill="#feccfa" fill-rule="evenodd"/>
      <path id="Trazado_186684" data-name="Trazado 186684" d="M266.663,632.235h25.456v25.456H266.663V632.235Z" transform="translate(785.665 10449.011)" fill="#feccfa" fill-rule="evenodd"/>
      <path id="Trazado_186685" data-name="Trazado 186685" d="M123.513,632.235h25.456v25.456H123.513V632.235Z" transform="translate(903.104 10449.011)" fill="#feccfa" fill-rule="evenodd"/>
      <path id="Trazado_186686" data-name="Trazado 186686" d="M-19.637,632.235H5.82v25.456H-19.637V632.235Z" transform="translate(1020.543 10449.011)" fill="#feccfa" fill-rule="evenodd"/>
      <path id="Trazado_186687" data-name="Trazado 186687" d="M-162.787,632.235h25.456v25.456h-25.456V632.235Z" transform="translate(1137.982 10449.011)" fill="#feccfa" fill-rule="evenodd"/>
      <path id="Trazado_186688" data-name="Trazado 186688" d="M-305.936,632.235h25.456v25.456h-25.456V632.235Z" transform="translate(1255.42 10449.011)" fill="#feccfa" fill-rule="evenodd"/>
      <path id="Trazado_186689" data-name="Trazado 186689" d="M-449.086,632.235h25.456v25.456h-25.456V632.235Z" transform="translate(1372.86 10449.011)" fill="#feccfa" fill-rule="evenodd"/>
      <path id="Trazado_186690" data-name="Trazado 186690" d="M-592.235,632.235h25.456v25.456h-25.456V632.235Z" transform="translate(1490.299 10449.011)" fill="#feccfa" fill-rule="evenodd"/>
      <path id="Trazado_186691" data-name="Trazado 186691" d="M982.41,775.386h25.456v25.456H982.41V775.386Z" transform="translate(198.472 10331.571)" fill="#feccfa" fill-rule="evenodd"/>
      <path id="Trazado_186692" data-name="Trazado 186692" d="M839.261,775.386h25.456v25.456H839.261V775.386Z" transform="translate(315.911 10331.571)" fill="#feccfa" fill-rule="evenodd"/>
      <path id="Trazado_186693" data-name="Trazado 186693" d="M696.111,775.386h25.457v25.456H696.111V775.386Z" transform="translate(433.35 10331.571)" fill="#feccfa" fill-rule="evenodd"/>
      <path id="Trazado_186694" data-name="Trazado 186694" d="M552.962,775.386h25.456v25.456H552.962V775.386Z" transform="translate(550.789 10331.571)" fill="#feccfa" fill-rule="evenodd"/>
      <path id="Trazado_186695" data-name="Trazado 186695" d="M409.812,775.386h25.456v25.456H409.812V775.386Z" transform="translate(668.227 10331.571)" fill="#feccfa" fill-rule="evenodd"/>
      <path id="Trazado_186696" data-name="Trazado 186696" d="M266.663,775.386h25.456v25.456H266.663V775.386Z" transform="translate(785.665 10331.571)" fill="#feccfa" fill-rule="evenodd"/>
      <path id="Trazado_186697" data-name="Trazado 186697" d="M123.513,775.386h25.456v25.456H123.513V775.386Z" transform="translate(903.104 10331.571)" fill="#feccfa" fill-rule="evenodd"/>
      <path id="Trazado_186698" data-name="Trazado 186698" d="M-19.637,775.386H5.82v25.456H-19.637V775.386Z" transform="translate(1020.543 10331.571)" fill="#feccfa" fill-rule="evenodd"/>
      <path id="Trazado_186699" data-name="Trazado 186699" d="M-162.787,775.386h25.456v25.456h-25.456V775.386Z" transform="translate(1137.982 10331.571)" fill="#feccfa" fill-rule="evenodd"/>
      <path id="Trazado_186700" data-name="Trazado 186700" d="M-305.936,775.386h25.456v25.456h-25.456V775.386Z" transform="translate(1255.42 10331.571)" fill="#feccfa" fill-rule="evenodd"/>
      <path id="Trazado_186701" data-name="Trazado 186701" d="M-449.086,775.386h25.456v25.456h-25.456V775.386Z" transform="translate(1372.86 10331.571)" fill="#feccfa" fill-rule="evenodd"/>
      <path id="Trazado_186702" data-name="Trazado 186702" d="M-592.235,775.386h25.456v25.456h-25.456V775.386Z" transform="translate(1490.299 10331.571)" fill="#feccfa" fill-rule="evenodd"/>
      <path id="Trazado_186703" data-name="Trazado 186703" d="M-592.235,129.086h25.456v25.456h-25.456V129.086Z" transform="translate(1490.299 10913.33)" fill="#d8f2f2" fill-rule="evenodd"/>
      <path id="Trazado_186704" data-name="Trazado 186704" d="M-592.235-14.063h25.456V11.393h-25.456V-14.063Z" transform="translate(1490.299 11030.768)" fill="#d8f2f2" fill-rule="evenodd"/>
      <path id="Trazado_186705" data-name="Trazado 186705" d="M-592.235-14.063h25.456L-579.343-1l-12.892,12.4V-14.063Z" transform="translate(1490.299 11030.768)" fill="#d8f2f2" fill-rule="evenodd"/>
      <path id="Trazado_186706" data-name="Trazado 186706" d="M-592.235-14.063h25.456L-579.343-1l-12.892,12.4V-14.063Z" transform="translate(1490.299 11056.758)" fill="#d8f2f2" fill-rule="evenodd"/>
      <text id="Metales_reactivos" data-name="Metales reactivos" transform="translate(820 10841)" fill="#082143" font-size="10" font-family="SegoeUI, Segoe UI"><tspan x="0" y="0">Metales reactivos</tspan></text>
      <text id="Metales_de_transición" data-name="Metales de transición" transform="translate(930 10841)" fill="#082143" font-size="10" font-family="SegoeUI, Segoe UI"><tspan x="0" y="0">Metales de transición</tspan></text>
      <text id="No_metales" data-name="No metales" transform="translate(1142 10841)" fill="#082143" font-size="10" font-family="SegoeUI, Segoe UI"><tspan x="0" y="0">No metales</tspan></text>
      <text id="Otros_metales" data-name="Otros metales" transform="translate(1009 10953)" fill="#082143" font-size="10" font-family="SegoeUI, Segoe UI"><tspan x="0" y="0">Otros metales</tspan></text>
      <text id="Tierras_raras_metales_" data-name="Tierras raras ( metales )" transform="translate(898 11155)" fill="#082143" font-size="10" font-family="SegoeUI, Segoe UI"><tspan x="0" y="0">Tierras raras ( metales )</tspan></text>
      <path id="Trazado_186707" data-name="Trazado 186707" d="M5924,1104.161v38.622" transform="translate(-5064.304 9745.249)" fill="none" stroke="#082143" stroke-width="2"/>
      <path id="Trazado_186708" data-name="Trazado 186708" d="M5924,1104.161v115.5" transform="translate(-4937.902 9745.249)" fill="none" stroke="#082143" stroke-width="2"/>
      <path id="Trazado_186709" data-name="Trazado 186709" d="M5924,1104.162v64.333" transform="translate(-4756.134 9745.248)" fill="none" stroke="#082143" stroke-width="2"/>
      <path id="Trazado_186710" data-name="Trazado 186710" d="M0,0V59.428" transform="translate(1090.621 10951.728) rotate(-90)" fill="none" stroke="#082143" stroke-width="2"/>
      <text id="Lantanidos" transform="translate(830 11097)" fill="#082143" font-size="10" font-family="SegoeUI, Segoe UI"><tspan x="0" y="0">Lantanidos</tspan></text>
      <text id="Actinidos" transform="translate(836 11122)" fill="#082143" font-size="10" font-family="SegoeUI, Segoe UI"><tspan x="0" y="0">Actinidos</tspan></text>
      <path id="Trazado_186711" data-name="Trazado 186711" d="M1411.806-300.416h25.476v25.476h-25.476v-25.476Z" transform="translate(-153.8 11214.15)" fill="#cce580" fill-rule="evenodd"/>
      <path id="Trazado_186712" data-name="Trazado 186712" d="M1411.806-157.267h25.476v25.476h-25.476v-25.476Z" transform="translate(-153.8 11096.712)" fill="#cce580" fill-rule="evenodd"/>
      <path id="Trazado_186713" data-name="Trazado 186713" d="M1411.806-14.117h25.476V11.358h-25.476V-14.117Z" transform="translate(-153.8 10979.272)" fill="#cce580" fill-rule="evenodd"/>
      <path id="Trazado_186714" data-name="Trazado 186714" d="M1411.806,129.032h25.476v25.476h-25.476V129.032Z" transform="translate(-153.8 10861.834)" fill="#cce580" fill-rule="evenodd"/>
      <path id="Trazado_186715" data-name="Trazado 186715" d="M1411.806,272.182h25.476v25.476h-25.476V272.182Z" transform="translate(-153.8 10744.396)" fill="#cce580" fill-rule="evenodd"/>
      <path id="Trazado_186716" data-name="Trazado 186716" d="M1268.71,415.386h25.456v25.456H1268.71V415.386Z" transform="translate(-36.406 10626.912)" fill="#fff" stroke="#707070" stroke-width="1" fill-rule="evenodd"/>
      <path id="Trazado_186717" data-name="Trazado 186717" d="M1125.559,415.386h25.456v25.456h-25.456V415.386Z" transform="translate(81.034 10626.912)" fill="#fff" stroke="#707070" stroke-width="1" fill-rule="evenodd"/>
      <path id="Trazado_186718" data-name="Trazado 186718" d="M1125.559,272.235h25.456v25.456h-25.456V272.235Z" transform="translate(81.034 10744.351)" fill="#fecc80" fill-rule="evenodd"/>
      <path id="Trazado_186719" data-name="Trazado 186719" d="M1125.559-300.363h25.456v25.456h-25.456v-25.456Z" transform="translate(81.034 11214.106)" fill="#cce580" fill-rule="evenodd"/>
      <path id="Trazado_186720" data-name="Trazado 186720" d="M1268.71-300.363h25.456v25.456H1268.71v-25.456Z" transform="translate(-36.406 11214.106)" fill="#cce580" fill-rule="evenodd"/>
      <path id="Trazado_186721" data-name="Trazado 186721" d="M1125.559-157.213h25.456v25.456h-25.456v-25.456Z" transform="translate(81.034 11096.668)" fill="#cce580" fill-rule="evenodd"/>
      <path id="Trazado_186722" data-name="Trazado 186722" d="M1268.71-157.213h25.456v25.456H1268.71v-25.456Z" transform="translate(-36.406 11096.668)" fill="#cce580" fill-rule="evenodd"/>
      <path id="Trazado_186723" data-name="Trazado 186723" d="M1268.71-14.063h25.456V11.393H1268.71V-14.063Z" transform="translate(-36.406 10979.229)" fill="#cce580" fill-rule="evenodd"/>
      <path id="Trazado_186724" data-name="Trazado 186724" d="M1268.71,129.086h25.456v25.456H1268.71V129.086Z" transform="translate(-36.406 10861.79)" fill="#cce580" fill-rule="evenodd"/>
      <path id="Trazado_186725" data-name="Trazado 186725" d="M1125.559-14.063h25.456V11.393h-25.456V-14.063Z" transform="translate(81.034 10979.229)" fill="#cce580" fill-rule="evenodd"/>
      <path id="Trazado_186726" data-name="Trazado 186726" d="M1125.559,129.086h25.456v25.456h-25.456V129.086Z" transform="translate(81.034 10861.79)" fill="#fecc80" fill-rule="evenodd"/>
      <path id="Trazado_186727" data-name="Trazado 186727" d="M1268.71,272.235h25.456v25.456H1268.71V272.235Z" transform="translate(-36.406 10744.351)" fill="#fecc80" fill-rule="evenodd"/>
      <path id="Trazado_186728" data-name="Trazado 186728" d="M1555.009-443.512h25.456v25.456h-25.456v-25.456Z" transform="translate(-271.282 11331.544)" fill="#fffe80" fill-rule="evenodd"/>
      <path id="Trazado_186729" data-name="Trazado 186729" d="M1555.009-300.363h25.456v25.456h-25.456v-25.456Z" transform="translate(-271.282 11214.106)" fill="#fffe80" fill-rule="evenodd"/>
      <path id="Trazado_186730" data-name="Trazado 186730" d="M1555.009-157.213h25.456v25.456h-25.456v-25.456Z" transform="translate(-271.282 11096.668)" fill="#fffe80" fill-rule="evenodd"/>
      <path id="Trazado_186731" data-name="Trazado 186731" d="M1555.009-14.063h25.456V11.393h-25.456V-14.063Z" transform="translate(-271.282 10979.229)" fill="#fffe80" fill-rule="evenodd"/>
      <path id="Trazado_186732" data-name="Trazado 186732" d="M1555.009,129.086h25.456v25.456h-25.456V129.086Z" transform="translate(-271.282 10861.79)" fill="#fffe80" fill-rule="evenodd"/>
      <path id="Trazado_186733" data-name="Trazado 186733" d="M1555.009,272.235h25.456v25.456h-25.456V272.235Z" transform="translate(-271.282 10744.351)" fill="#fffe80" fill-rule="evenodd"/>
      <path id="Trazado_186734" data-name="Trazado 186734" d="M1411.859,632.235h25.456v25.456h-25.456V632.235Z" transform="translate(-153.844 10449.011)" fill="#feccfa" fill-rule="evenodd"/>
      <path id="Trazado_186735" data-name="Trazado 186735" d="M1268.71,632.235h25.456v25.456H1268.71V632.235Z" transform="translate(-36.406 10449.011)" fill="#feccfa" fill-rule="evenodd"/>
      <path id="Trazado_186736" data-name="Trazado 186736" d="M1125.559,632.235h25.456v25.456h-25.456V632.235Z" transform="translate(81.034 10449.011)" fill="#feccfa" fill-rule="evenodd"/>
      <path id="Trazado_186737" data-name="Trazado 186737" d="M1411.859,775.386h25.456v25.456h-25.456V775.386Z" transform="translate(-153.844 10331.571)" fill="#feccfa" fill-rule="evenodd"/>
      <path id="Trazado_186738" data-name="Trazado 186738" d="M1268.71,775.386h25.456v25.456H1268.71V775.386Z" transform="translate(-36.406 10331.571)" fill="#feccfa" fill-rule="evenodd"/>
      <path id="Trazado_186739" data-name="Trazado 186739" d="M1125.559,775.386h25.456v25.456h-25.456V775.386Z" transform="translate(81.034 10331.571)" fill="#feccfa" fill-rule="evenodd"/>
      <text id="Gases_nobles_o_Inertes" data-name="Gases nobles o 
Inertes" transform="translate(1282 10841)" fill="#082143" font-size="10" font-family="SegoeUI, Segoe UI"><tspan x="-34.517" y="0">Gases nobles o </tspan><tspan x="-14.944" y="14">Inertes</tspan></text>
      <path id="Trazado_186740" data-name="Trazado 186740" d="M5924,1104.161V1127.7" transform="translate(-4627.643 9760.336)" fill="none" stroke="#082143" stroke-width="2"/>
    </g>
  </g>
</svg>
