<svg xmlns="http://www.w3.org/2000/svg" width="510.876" height="411.74" viewBox="0 0 510.876 411.74">
  <g id="Grupo_178224" data-name="Grupo 178224" transform="translate(-847 -7427)">
    <path id="Trazado_186870" data-name="Trazado 186870" d="M-735.385-300.363h27.21v27.21h-27.21v-27.21Z" transform="translate(1609.867 7905.373)" fill="#e6137d" fill-rule="evenodd"/>
    <path id="Trazado_186871" data-name="Trazado 186871" d="M-735.385-157.213h27.21V-130h-27.21v-27.21Z" transform="translate(1609.867 7789.705)" fill="#e6137d" fill-rule="evenodd"/>
    <path id="Trazado_186872" data-name="Trazado 186872" d="M-735.385-14.063h27.21v27.21h-27.21v-27.21Z" transform="translate(1609.867 7674.037)" fill="#e6137d" fill-rule="evenodd"/>
    <path id="Trazado_186873" data-name="Trazado 186873" d="M-735.385,129.086h27.21V156.3h-27.21v-27.21Z" transform="translate(1609.867 7558.37)" fill="#e6137d" fill-rule="evenodd"/>
    <path id="Trazado_186874" data-name="Trazado 186874" d="M-735.385,272.235h27.21v27.21h-27.21v-27.21Z" transform="translate(1609.867 7442.702)" fill="#e6137d" fill-rule="evenodd"/>
    <path id="Trazado_186875" data-name="Trazado 186875" d="M-735.385,415.386h27.21V442.6h-27.21v-27.21Z" transform="translate(1609.867 7327.033)" fill="#e6137d" fill-rule="evenodd"/>
    <path id="Trazado_186876" data-name="Trazado 186876" d="M1411.806-300.416h27.23v27.23h-27.23v-27.23Z" transform="translate(-125.109 7905.417)" fill="#f19124" fill-rule="evenodd"/>
    <path id="Trazado_186877" data-name="Trazado 186877" d="M1411.806-157.267h27.23v27.23h-27.23v-27.23Z" transform="translate(-125.109 7789.749)" fill="#f19124" fill-rule="evenodd"/>
    <path id="Trazado_186878" data-name="Trazado 186878" d="M1411.806-14.117h27.23v27.23h-27.23v-27.23Z" transform="translate(-125.109 7674.081)" fill="#f19124" fill-rule="evenodd"/>
    <path id="Trazado_186879" data-name="Trazado 186879" d="M1411.806,129.032h27.23v27.23h-27.23v-27.23Z" transform="translate(-125.109 7558.413)" fill="#f19124" fill-rule="evenodd"/>
    <path id="Trazado_186880" data-name="Trazado 186880" d="M1411.806,272.182h27.23v27.23h-27.23v-27.23Z" transform="translate(-125.109 7442.746)" fill="#f19124" fill-rule="evenodd"/>
    <path id="Trazado_186881" data-name="Trazado 186881" d="M839.261-157.213h27.21V-130h-27.21v-27.21Z" transform="translate(337.52 7789.705)" fill="#f19124" fill-rule="evenodd"/>
    <path id="Trazado_186882" data-name="Trazado 186882" d="M1268.71,415.386h27.209V442.6H1268.71v-27.21Z" transform="translate(-9.484 7327.033)" fill="#f19124" fill-rule="evenodd"/>
    <path id="Trazado_186883" data-name="Trazado 186883" d="M1125.56,415.386h27.21V442.6h-27.21v-27.21Z" transform="translate(106.184 7327.033)" fill="#f19124" fill-rule="evenodd"/>
    <path id="Trazado_186884" data-name="Trazado 186884" d="M1125.56,272.235h27.21v27.21h-27.21v-27.21Z" transform="translate(106.184 7442.702)" fill="#f19124" fill-rule="evenodd"/>
    <path id="Trazado_186885" data-name="Trazado 186885" d="M839.261,415.386h27.21V442.6h-27.21v-27.21Z" transform="translate(337.52 7327.033)" fill="#f19124" fill-rule="evenodd"/>
    <path id="Trazado_186886" data-name="Trazado 186886" d="M982.41,129.086h27.21V156.3H982.41v-27.21Z" transform="translate(221.852 7558.37)" fill="#f19124" fill-rule="evenodd"/>
    <path id="Trazado_186887" data-name="Trazado 186887" d="M982.41,272.235h27.21v27.21H982.41v-27.21Z" transform="translate(221.852 7442.702)" fill="#f19124" fill-rule="evenodd"/>
    <path id="Trazado_186888" data-name="Trazado 186888" d="M839.261-14.063h27.21v27.21h-27.21v-27.21Z" transform="translate(337.52 7674.037)" fill="#f19124" fill-rule="evenodd"/>
    <path id="Trazado_186889" data-name="Trazado 186889" d="M839.261,129.086h27.21V156.3h-27.21v-27.21Z" transform="translate(337.52 7558.37)" fill="#f19124" fill-rule="evenodd"/>
    <path id="Trazado_186890" data-name="Trazado 186890" d="M839.261,272.235h27.21v27.21h-27.21v-27.21Z" transform="translate(337.52 7442.702)" fill="#f19124" fill-rule="evenodd"/>
    <path id="Trazado_186891" data-name="Trazado 186891" d="M982.41,415.386h27.21V442.6H982.41v-27.21Z" transform="translate(221.852 7327.033)" fill="#f19124" fill-rule="evenodd"/>
    <path id="Trazado_186892" data-name="Trazado 186892" d="M-878.535-443.512h27.21v27.21h-27.21v-27.21Z" transform="translate(1725.535 8021.041)" fill="#e6137d" fill-rule="evenodd"/>
    <path id="Trazado_186893" data-name="Trazado 186893" d="M982.41-300.363h27.21v27.21H982.41v-27.21Z" transform="translate(221.852 7905.373)" fill="#f19124" fill-rule="evenodd"/>
    <path id="Trazado_186894" data-name="Trazado 186894" d="M1125.56-300.363h27.21v27.21h-27.21v-27.21Z" transform="translate(106.184 7905.373)" fill="#f19124" fill-rule="evenodd"/>
    <path id="Trazado_186895" data-name="Trazado 186895" d="M1268.71-300.363h27.209v27.21H1268.71v-27.21Z" transform="translate(-9.484 7905.373)" fill="#f19124" fill-rule="evenodd"/>
    <path id="Trazado_186896" data-name="Trazado 186896" d="M1125.56-157.213h27.21V-130h-27.21v-27.21Z" transform="translate(106.184 7789.705)" fill="#f19124" fill-rule="evenodd"/>
    <path id="Trazado_186897" data-name="Trazado 186897" d="M1268.71-157.213h27.209V-130H1268.71v-27.21Z" transform="translate(-9.484 7789.705)" fill="#f19124" fill-rule="evenodd"/>
    <path id="Trazado_186898" data-name="Trazado 186898" d="M1268.71-14.063h27.209v27.21H1268.71v-27.21Z" transform="translate(-9.484 7674.037)" fill="#f19124" fill-rule="evenodd"/>
    <path id="Trazado_186899" data-name="Trazado 186899" d="M1268.71,129.086h27.209V156.3H1268.71v-27.21Z" transform="translate(-9.484 7558.37)" fill="#f19124" fill-rule="evenodd"/>
    <path id="Trazado_186900" data-name="Trazado 186900" d="M1125.56-14.063h27.21v27.21h-27.21v-27.21Z" transform="translate(106.184 7674.037)" fill="#f19124" fill-rule="evenodd"/>
    <path id="Trazado_186901" data-name="Trazado 186901" d="M1125.56,129.086h27.21V156.3h-27.21v-27.21Z" transform="translate(106.184 7558.37)" fill="#f19124" fill-rule="evenodd"/>
    <path id="Trazado_186902" data-name="Trazado 186902" d="M839.261-300.363h27.21v27.21h-27.21v-27.21Z" transform="translate(337.52 7905.373)" fill="#f19124" fill-rule="evenodd"/>
    <path id="Trazado_186903" data-name="Trazado 186903" d="M982.41-14.063h27.21v27.21H982.41v-27.21Z" transform="translate(221.852 7674.037)" fill="#f19124" fill-rule="evenodd"/>
    <path id="Trazado_186904" data-name="Trazado 186904" d="M982.41-157.213h27.21V-130H982.41v-27.21Z" transform="translate(221.852 7789.705)" fill="#f19124" fill-rule="evenodd"/>
    <path id="Trazado_186905" data-name="Trazado 186905" d="M1268.71,272.235h27.209v27.21H1268.71v-27.21Z" transform="translate(-9.484 7442.702)" fill="#f19124" fill-rule="evenodd"/>
    <path id="Trazado_186906" data-name="Trazado 186906" d="M-878.535-300.363h27.21v27.21h-27.21v-27.21Z" transform="translate(1725.535 7905.373)" fill="#e6137d" fill-rule="evenodd"/>
    <path id="Trazado_186907" data-name="Trazado 186907" d="M-878.535-157.213h27.21V-130h-27.21v-27.21Z" transform="translate(1725.535 7789.705)" fill="#e6137d" fill-rule="evenodd"/>
    <path id="Trazado_186908" data-name="Trazado 186908" d="M-878.535-14.063h27.21v27.21h-27.21v-27.21Z" transform="translate(1725.535 7674.037)" fill="#e6137d" fill-rule="evenodd"/>
    <path id="Trazado_186909" data-name="Trazado 186909" d="M-878.535,129.086h27.21V156.3h-27.21v-27.21Z" transform="translate(1725.535 7558.37)" fill="#e6137d" fill-rule="evenodd"/>
    <path id="Trazado_186910" data-name="Trazado 186910" d="M-878.535,272.235h27.21v27.21h-27.21v-27.21Z" transform="translate(1725.535 7442.702)" fill="#e6137d" fill-rule="evenodd"/>
    <path id="Trazado_186911" data-name="Trazado 186911" d="M-878.535,415.386h27.21V442.6h-27.21v-27.21Z" transform="translate(1725.535 7327.033)" fill="#e6137d" fill-rule="evenodd"/>
    <path id="Trazado_186912" data-name="Trazado 186912" d="M696.111,129.086h27.21V156.3h-27.21v-27.21Z" transform="translate(453.188 7558.37)" fill="#94c024" fill-rule="evenodd"/>
    <path id="Trazado_186913" data-name="Trazado 186913" d="M696.111,272.235h27.21v27.21h-27.21v-27.21Z" transform="translate(453.188 7442.702)" fill="#94c024" fill-rule="evenodd"/>
    <path id="Trazado_186914" data-name="Trazado 186914" d="M266.663,272.235h27.21v27.21h-27.21v-27.21Z" transform="translate(800.191 7442.702)" fill="#94c024" fill-rule="evenodd"/>
    <path id="Trazado_186915" data-name="Trazado 186915" d="M552.962,415.386h27.21V442.6h-27.21v-27.21Z" transform="translate(568.855 7327.033)" fill="#94c024" fill-rule="evenodd"/>
    <path id="Trazado_186916" data-name="Trazado 186916" d="M696.111,415.386h27.21V442.6h-27.21v-27.21Z" transform="translate(453.188 7327.033)" fill="#94c024" fill-rule="evenodd"/>
    <path id="Trazado_186917" data-name="Trazado 186917" d="M266.663,415.386h27.21V442.6h-27.21v-27.21Z" transform="translate(800.191 7327.033)" fill="#94c024" fill-rule="evenodd"/>
    <path id="Trazado_186918" data-name="Trazado 186918" d="M409.813,415.386h27.209V442.6H409.813v-27.21Z" transform="translate(684.523 7327.033)" fill="#94c024" fill-rule="evenodd"/>
    <path id="Trazado_186919" data-name="Trazado 186919" d="M552.962,272.235h27.21v27.21h-27.21v-27.21Z" transform="translate(568.855 7442.702)" fill="#94c024" fill-rule="evenodd"/>
    <path id="Trazado_186920" data-name="Trazado 186920" d="M409.813,272.235h27.209v27.21H409.813v-27.21Z" transform="translate(684.523 7442.702)" fill="#94c024" fill-rule="evenodd"/>
    <path id="Trazado_186921" data-name="Trazado 186921" d="M552.962,129.086h27.21V156.3h-27.21v-27.21Z" transform="translate(568.855 7558.37)" fill="#94c024" fill-rule="evenodd"/>
    <path id="Trazado_186922" data-name="Trazado 186922" d="M409.813,129.086h27.209V156.3H409.813v-27.21Z" transform="translate(684.523 7558.37)" fill="#94c024" fill-rule="evenodd"/>
    <path id="Trazado_186923" data-name="Trazado 186923" d="M266.663,129.086h27.21V156.3h-27.21v-27.21Z" transform="translate(800.191 7558.37)" fill="#94c024" fill-rule="evenodd"/>
    <path id="Trazado_186924" data-name="Trazado 186924" d="M696.111-14.063h27.21v27.21h-27.21v-27.21Z" transform="translate(453.188 7674.037)" fill="#94c024" fill-rule="evenodd"/>
    <path id="Trazado_186925" data-name="Trazado 186925" d="M552.962-14.063h27.21v27.21h-27.21v-27.21Z" transform="translate(568.855 7674.037)" fill="#94c024" fill-rule="evenodd"/>
    <path id="Trazado_186926" data-name="Trazado 186926" d="M409.813-14.063h27.209v27.21H409.813v-27.21Z" transform="translate(684.523 7674.037)" fill="#94c024" fill-rule="evenodd"/>
    <path id="Trazado_186927" data-name="Trazado 186927" d="M266.663-14.063h27.21v27.21h-27.21v-27.21Z" transform="translate(800.191 7674.037)" fill="#94c024" fill-rule="evenodd"/>
    <path id="Trazado_186928" data-name="Trazado 186928" d="M-162.787,272.235h27.21v27.21h-27.21v-27.21Z" transform="translate(1147.195 7442.702)" fill="#94c024" fill-rule="evenodd"/>
    <path id="Trazado_186929" data-name="Trazado 186929" d="M123.513,415.386h27.21V442.6h-27.21v-27.21Z" transform="translate(915.859 7327.033)" fill="#94c024" fill-rule="evenodd"/>
    <path id="Trazado_186930" data-name="Trazado 186930" d="M-162.787,415.386h27.21V442.6h-27.21v-27.21Z" transform="translate(1147.195 7327.033)" fill="#94c024" fill-rule="evenodd"/>
    <path id="Trazado_186931" data-name="Trazado 186931" d="M-19.637,415.386H7.573V442.6h-27.21v-27.21Z" transform="translate(1031.527 7327.033)" fill="#94c024" fill-rule="evenodd"/>
    <path id="Trazado_186932" data-name="Trazado 186932" d="M123.513,272.235h27.21v27.21h-27.21v-27.21Z" transform="translate(915.859 7442.702)" fill="#94c024" fill-rule="evenodd"/>
    <path id="Trazado_186933" data-name="Trazado 186933" d="M-19.637,272.235H7.573v27.21h-27.21v-27.21Z" transform="translate(1031.527 7442.702)" fill="#94c024" fill-rule="evenodd"/>
    <path id="Trazado_186934" data-name="Trazado 186934" d="M123.513,129.086h27.21V156.3h-27.21v-27.21Z" transform="translate(915.859 7558.37)" fill="#94c024" fill-rule="evenodd"/>
    <path id="Trazado_186935" data-name="Trazado 186935" d="M-19.637,129.086H7.573V156.3h-27.21v-27.21Z" transform="translate(1031.527 7558.37)" fill="#94c024" fill-rule="evenodd"/>
    <path id="Trazado_186936" data-name="Trazado 186936" d="M-162.787,129.086h27.21V156.3h-27.21v-27.21Z" transform="translate(1147.195 7558.37)" fill="#94c024" fill-rule="evenodd"/>
    <path id="Trazado_186937" data-name="Trazado 186937" d="M123.513-14.063h27.21v27.21h-27.21v-27.21Z" transform="translate(915.859 7674.037)" fill="#94c024" fill-rule="evenodd"/>
    <path id="Trazado_186938" data-name="Trazado 186938" d="M-19.637-14.063H7.573v27.21h-27.21v-27.21Z" transform="translate(1031.527 7674.037)" fill="#94c024" fill-rule="evenodd"/>
    <path id="Trazado_186939" data-name="Trazado 186939" d="M-162.787-14.063h27.21v27.21h-27.21v-27.21Z" transform="translate(1147.195 7674.037)" fill="#94c024" fill-rule="evenodd"/>
    <path id="Trazado_186940" data-name="Trazado 186940" d="M-305.936,415.386h27.21V442.6h-27.21v-27.21Z" transform="translate(1262.863 7327.033)" fill="#94c024" fill-rule="evenodd"/>
    <path id="Trazado_186941" data-name="Trazado 186941" d="M-449.086,415.386h27.21V442.6h-27.21v-27.21Z" transform="translate(1378.531 7327.033)" fill="#94c024" fill-rule="evenodd"/>
    <path id="Trazado_186942" data-name="Trazado 186942" d="M-305.936,272.235h27.21v27.21h-27.21v-27.21Z" transform="translate(1262.863 7442.702)" fill="#94c024" fill-rule="evenodd"/>
    <path id="Trazado_186943" data-name="Trazado 186943" d="M-449.086,272.235h27.21v27.21h-27.21v-27.21Z" transform="translate(1378.531 7442.702)" fill="#94c024" fill-rule="evenodd"/>
    <path id="Trazado_186944" data-name="Trazado 186944" d="M-305.936,129.086h27.21V156.3h-27.21v-27.21Z" transform="translate(1262.863 7558.37)" fill="#94c024" fill-rule="evenodd"/>
    <path id="Trazado_186945" data-name="Trazado 186945" d="M-449.086,129.086h27.21V156.3h-27.21v-27.21Z" transform="translate(1378.531 7558.37)" fill="#94c024" fill-rule="evenodd"/>
    <path id="Trazado_186946" data-name="Trazado 186946" d="M-592.235,129.086h27.21V156.3h-27.21v-27.21Z" transform="translate(1494.199 7558.37)" fill="#94c024" fill-rule="evenodd"/>
    <path id="Trazado_186947" data-name="Trazado 186947" d="M-305.936-14.063h27.21v27.21h-27.21v-27.21Z" transform="translate(1262.863 7674.037)" fill="#94c024" fill-rule="evenodd"/>
    <path id="Trazado_186948" data-name="Trazado 186948" d="M-449.086-14.063h27.21v27.21h-27.21v-27.21Z" transform="translate(1378.531 7674.037)" fill="#94c024" fill-rule="evenodd"/>
    <path id="Trazado_186949" data-name="Trazado 186949" d="M-592.235-14.063h27.21v27.21h-27.21v-27.21Z" transform="translate(1494.199 7674.037)" fill="#94c024" fill-rule="evenodd"/>
    <path id="Trazado_186950" data-name="Trazado 186950" d="M1411.859,632.235h27.209v27.21h-27.209v-27.21Z" transform="translate(-125.152 7151.814)" fill="#94c024" fill-rule="evenodd"/>
    <path id="Trazado_186951" data-name="Trazado 186951" d="M1268.71,632.235h27.209v27.21H1268.71v-27.21Z" transform="translate(-9.484 7151.814)" fill="#2ca9e0" fill-rule="evenodd"/>
    <path id="Trazado_186952" data-name="Trazado 186952" d="M1125.56,632.235h27.21v27.21h-27.21v-27.21Z" transform="translate(106.184 7151.814)" fill="#2ca9e0" fill-rule="evenodd"/>
    <path id="Trazado_186953" data-name="Trazado 186953" d="M982.41,632.235h27.21v27.21H982.41v-27.21Z" transform="translate(221.852 7151.814)" fill="#2ca9e0" fill-rule="evenodd"/>
    <path id="Trazado_186954" data-name="Trazado 186954" d="M839.261,632.235h27.21v27.21h-27.21v-27.21Z" transform="translate(337.52 7151.814)" fill="#2ca9e0" fill-rule="evenodd"/>
    <path id="Trazado_186955" data-name="Trazado 186955" d="M696.111,632.235h27.21v27.21h-27.21v-27.21Z" transform="translate(453.188 7151.814)" fill="#2ca9e0" fill-rule="evenodd"/>
    <path id="Trazado_186956" data-name="Trazado 186956" d="M552.962,632.235h27.21v27.21h-27.21v-27.21Z" transform="translate(568.855 7151.814)" fill="#2ca9e0" fill-rule="evenodd"/>
    <path id="Trazado_186957" data-name="Trazado 186957" d="M409.813,632.235h27.209v27.21H409.813v-27.21Z" transform="translate(684.523 7151.814)" fill="#2ca9e0" fill-rule="evenodd"/>
    <path id="Trazado_186958" data-name="Trazado 186958" d="M266.663,632.235h27.21v27.21h-27.21v-27.21Z" transform="translate(800.191 7151.814)" fill="#2ca9e0" fill-rule="evenodd"/>
    <path id="Trazado_186959" data-name="Trazado 186959" d="M123.513,632.235h27.21v27.21h-27.21v-27.21Z" transform="translate(915.859 7151.814)" fill="#2ca9e0" fill-rule="evenodd"/>
    <path id="Trazado_186960" data-name="Trazado 186960" d="M-19.637,632.235H7.573v27.21h-27.21v-27.21Z" transform="translate(1031.527 7151.814)" fill="#2ca9e0" fill-rule="evenodd"/>
    <path id="Trazado_186961" data-name="Trazado 186961" d="M-162.787,632.235h27.21v27.21h-27.21v-27.21Z" transform="translate(1147.195 7151.814)" fill="#2ca9e0" fill-rule="evenodd"/>
    <path id="Trazado_186962" data-name="Trazado 186962" d="M-305.936,632.235h27.21v27.21h-27.21v-27.21Z" transform="translate(1262.863 7151.814)" fill="#2ca9e0" fill-rule="evenodd"/>
    <path id="Trazado_186963" data-name="Trazado 186963" d="M-449.086,632.235h27.21v27.21h-27.21v-27.21Z" transform="translate(1378.531 7151.814)" fill="#2ca9e0" fill-rule="evenodd"/>
    <path id="Trazado_186964" data-name="Trazado 186964" d="M-592.235,632.235h27.21v27.21h-27.21v-27.21Z" transform="translate(1494.199 7151.814)" fill="#2ca9e0" fill-rule="evenodd"/>
    <path id="Trazado_186965" data-name="Trazado 186965" d="M1411.859,775.386h27.209V802.6h-27.209V775.386Z" transform="translate(-125.152 7036.146)" fill="#94c024" fill-rule="evenodd"/>
    <path id="Trazado_186966" data-name="Trazado 186966" d="M1268.71,775.386h27.209V802.6H1268.71V775.386Z" transform="translate(-9.484 7036.146)" fill="#2ca9e0" fill-rule="evenodd"/>
    <path id="Trazado_186967" data-name="Trazado 186967" d="M1125.56,775.386h27.21V802.6h-27.21V775.386Z" transform="translate(106.184 7036.146)" fill="#2ca9e0" fill-rule="evenodd"/>
    <path id="Trazado_186968" data-name="Trazado 186968" d="M982.41,775.386h27.21V802.6H982.41V775.386Z" transform="translate(221.852 7036.146)" fill="#2ca9e0" fill-rule="evenodd"/>
    <path id="Trazado_186969" data-name="Trazado 186969" d="M839.261,775.386h27.21V802.6h-27.21V775.386Z" transform="translate(337.52 7036.146)" fill="#2ca9e0" fill-rule="evenodd"/>
    <path id="Trazado_186970" data-name="Trazado 186970" d="M696.111,775.386h27.21V802.6h-27.21V775.386Z" transform="translate(453.188 7036.146)" fill="#2ca9e0" fill-rule="evenodd"/>
    <path id="Trazado_186971" data-name="Trazado 186971" d="M552.962,775.386h27.21V802.6h-27.21V775.386Z" transform="translate(568.855 7036.146)" fill="#2ca9e0" fill-rule="evenodd"/>
    <path id="Trazado_186972" data-name="Trazado 186972" d="M409.813,775.386h27.209V802.6H409.813V775.386Z" transform="translate(684.523 7036.146)" fill="#2ca9e0" fill-rule="evenodd"/>
    <path id="Trazado_186973" data-name="Trazado 186973" d="M266.663,775.386h27.21V802.6h-27.21V775.386Z" transform="translate(800.191 7036.146)" fill="#2ca9e0" fill-rule="evenodd"/>
    <path id="Trazado_186974" data-name="Trazado 186974" d="M123.513,775.386h27.21V802.6h-27.21V775.386Z" transform="translate(915.859 7036.146)" fill="#2ca9e0" fill-rule="evenodd"/>
    <path id="Trazado_186975" data-name="Trazado 186975" d="M-19.637,775.386H7.573V802.6h-27.21V775.386Z" transform="translate(1031.527 7036.146)" fill="#2ca9e0" fill-rule="evenodd"/>
    <path id="Trazado_186976" data-name="Trazado 186976" d="M-162.787,775.386h27.21V802.6h-27.21V775.386Z" transform="translate(1147.195 7036.146)" fill="#2ca9e0" fill-rule="evenodd"/>
    <path id="Trazado_186977" data-name="Trazado 186977" d="M-305.936,775.386h27.21V802.6h-27.21V775.386Z" transform="translate(1262.863 7036.146)" fill="#2ca9e0" fill-rule="evenodd"/>
    <path id="Trazado_186978" data-name="Trazado 186978" d="M-449.086,775.386h27.21V802.6h-27.21V775.386Z" transform="translate(1378.531 7036.146)" fill="#2ca9e0" fill-rule="evenodd"/>
    <path id="Trazado_186979" data-name="Trazado 186979" d="M-592.235,775.386h27.21V802.6h-27.21V775.386Z" transform="translate(1494.199 7036.146)" fill="#2ca9e0" fill-rule="evenodd"/>
    <path id="Trazado_186980" data-name="Trazado 186980" d="M-592.235,129.086h27.21V156.3h-27.21v-27.21Z" transform="translate(1494.199 7613.458)" fill="#94c024" fill-rule="evenodd"/>
    <path id="Trazado_186981" data-name="Trazado 186981" d="M-592.235-14.063h27.21v27.21h-27.21v-27.21Z" transform="translate(1494.199 7729.126)" fill="#94c024" fill-rule="evenodd"/>
    <path id="Trazado_186982" data-name="Trazado 186982" d="M-592.235-14.063h27.21L-578.455-.1l-13.78,13.25v-27.21Z" transform="translate(1494.199 7729.126)" fill="#2ca9e0" fill-rule="evenodd"/>
    <path id="Trazado_186983" data-name="Trazado 186983" d="M-592.235-14.063h27.21L-578.455-.1l-13.78,13.25v-27.21Z" transform="translate(1494.199 7756.906)" fill="#2ca9e0" fill-rule="evenodd"/>
    <g id="Trazado_186984" data-name="Trazado 186984" transform="translate(858.652 7513.381)" fill="#e6137d">
      <path d="M 18.66213607788086 35.82429504394531 C 14.07796573638916 35.82429504394531 9.768176078796387 34.03911590576172 6.526676177978516 30.79761505126953 C 3.285166025161743 27.55611610412598 1.499996066093445 23.2463264465332 1.499996066093445 18.66214561462402 C 1.499996066093445 14.07797527313232 3.285166025161743 9.768176078796387 6.526676177978516 6.526675701141357 C 9.768176078796387 3.285175561904907 14.07796573638916 1.500005602836609 18.66213607788086 1.500005602836609 C 23.24630546569824 1.500005602836609 27.55609703063965 3.285175561904907 30.7975959777832 6.526675701141357 C 34.03910446166992 9.768176078796387 35.82427597045898 14.07797527313232 35.82427597045898 18.66214561462402 C 35.82427597045898 23.2463264465332 34.03910446166992 27.55611610412598 30.7975959777832 30.79761505126953 C 27.55609703063965 34.03911590576172 23.24630546569824 35.82429504394531 18.66213607788086 35.82429504394531 Z" stroke="none"/>
      <path d="M 18.66213607788086 2.999996185302734 C 14.4786262512207 2.999996185302734 10.5455265045166 4.629146575927734 7.587335586547852 7.587335586547852 C 4.629146575927734 10.5455265045166 2.999996185302734 14.47863578796387 2.999996185302734 18.66214561462402 C 2.999996185302734 22.84565544128418 4.629146575927734 26.77876663208008 7.587335586547852 29.7369556427002 C 10.54551696777344 32.69513702392578 14.4786262512207 34.32428741455078 18.66213607788086 34.32428741455078 C 22.84564590454102 34.32428741455078 26.77875518798828 32.69513702392578 29.73693656921387 29.7369556427002 C 32.69512557983398 26.77876663208008 34.32427597045898 22.84565544128418 34.32427597045898 18.66214561462402 C 34.32427597045898 14.47863578796387 32.69512557983398 10.5455265045166 29.73693656921387 7.587335586547852 C 26.77874565124512 4.629146575927734 22.84564590454102 2.999996185302734 18.66213607788086 2.999996185302734 M 18.66213607788086 -3.814697265625e-06 C 28.96894645690918 -3.814697265625e-06 37.32427597045898 8.355325698852539 37.32427597045898 18.66214561462402 C 37.32427597045898 28.96896553039551 28.96894645690918 37.32428741455078 18.66213607788086 37.32428741455078 C 8.355325698852539 37.32428741455078 -3.814697265625e-06 28.96896553039551 -3.814697265625e-06 18.66214561462402 C -3.814697265625e-06 8.355325698852539 8.355325698852539 -3.814697265625e-06 18.66213607788086 -3.814697265625e-06 Z" stroke="none" fill="#082143"/>
    </g>
    <text id="s" transform="translate(872.748 7536)" fill="#fff" font-size="21" font-family="SegoeUI, Segoe UI"><tspan x="0" y="0">s</tspan></text>
    <g id="Trazado_186985" data-name="Trazado 186985" transform="translate(1034.277 7603.784)" fill="#94c024">
      <path d="M 18.66213607788086 35.82429504394531 C 14.07796573638916 35.82429504394531 9.768176078796387 34.03911590576172 6.526676177978516 30.79761505126953 C 3.285166025161743 27.55611610412598 1.499996066093445 23.2463264465332 1.499996066093445 18.66214561462402 C 1.499996066093445 14.07797527313232 3.285166025161743 9.768176078796387 6.526676177978516 6.526675701141357 C 9.768176078796387 3.285175561904907 14.07796573638916 1.500005602836609 18.66213607788086 1.500005602836609 C 23.24630546569824 1.500005602836609 27.55609703063965 3.285175561904907 30.7975959777832 6.526675701141357 C 34.03910446166992 9.768176078796387 35.82427597045898 14.07797527313232 35.82427597045898 18.66214561462402 C 35.82427597045898 23.2463264465332 34.03910446166992 27.55611610412598 30.7975959777832 30.79761505126953 C 27.55609703063965 34.03911590576172 23.24630546569824 35.82429504394531 18.66213607788086 35.82429504394531 Z" stroke="none"/>
      <path d="M 18.66213607788086 2.999996185302734 C 14.4786262512207 2.999996185302734 10.5455265045166 4.629146575927734 7.587335586547852 7.587335586547852 C 4.629146575927734 10.5455265045166 2.999996185302734 14.47863578796387 2.999996185302734 18.66214561462402 C 2.999996185302734 22.84565544128418 4.629146575927734 26.77876663208008 7.587335586547852 29.7369556427002 C 10.54551696777344 32.69513702392578 14.4786262512207 34.32428741455078 18.66213607788086 34.32428741455078 C 22.84564590454102 34.32428741455078 26.77875518798828 32.69513702392578 29.73693656921387 29.7369556427002 C 32.69512557983398 26.77876663208008 34.32427597045898 22.84565544128418 34.32427597045898 18.66214561462402 C 34.32427597045898 14.47863578796387 32.69512557983398 10.5455265045166 29.73693656921387 7.587335586547852 C 26.77874565124512 4.629146575927734 22.84564590454102 2.999996185302734 18.66213607788086 2.999996185302734 M 18.66213607788086 -3.814697265625e-06 C 28.96894645690918 -3.814697265625e-06 37.32427597045898 8.355325698852539 37.32427597045898 18.66214561462402 C 37.32427597045898 28.96896553039551 28.96894645690918 37.32428741455078 18.66213607788086 37.32428741455078 C 8.355325698852539 37.32428741455078 -3.814697265625e-06 28.96896553039551 -3.814697265625e-06 18.66214561462402 C -3.814697265625e-06 8.355325698852539 8.355325698852539 -3.814697265625e-06 18.66213607788086 -3.814697265625e-06 Z" stroke="none" fill="#082143"/>
    </g>
    <text id="d" transform="translate(1045.748 7628)" fill="#fff" font-size="21" font-family="SegoeUI, Segoe UI"><tspan x="0" y="0">d</tspan></text>
    <g id="Trazado_186986" data-name="Trazado 186986" transform="translate(1240.508 7550.107)" fill="#f19124">
      <path d="M 18.66213607788086 35.82429504394531 C 14.07796573638916 35.82429504394531 9.768176078796387 34.03911590576172 6.526676177978516 30.79761505126953 C 3.285166025161743 27.55611610412598 1.499996066093445 23.2463264465332 1.499996066093445 18.66214561462402 C 1.499996066093445 14.07797527313232 3.285166025161743 9.768176078796387 6.526676177978516 6.526675701141357 C 9.768176078796387 3.285175561904907 14.07796573638916 1.500005602836609 18.66213607788086 1.500005602836609 C 23.24630546569824 1.500005602836609 27.55609703063965 3.285175561904907 30.7975959777832 6.526675701141357 C 34.03910446166992 9.768176078796387 35.82427597045898 14.07797527313232 35.82427597045898 18.66214561462402 C 35.82427597045898 23.2463264465332 34.03910446166992 27.55611610412598 30.7975959777832 30.79761505126953 C 27.55609703063965 34.03911590576172 23.24630546569824 35.82429504394531 18.66213607788086 35.82429504394531 Z" stroke="none"/>
      <path d="M 18.66213607788086 2.999996185302734 C 14.4786262512207 2.999996185302734 10.5455265045166 4.629146575927734 7.587335586547852 7.587335586547852 C 4.629146575927734 10.5455265045166 2.999996185302734 14.47863578796387 2.999996185302734 18.66214561462402 C 2.999996185302734 22.84565544128418 4.629146575927734 26.77876663208008 7.587335586547852 29.7369556427002 C 10.54551696777344 32.69513702392578 14.4786262512207 34.32428741455078 18.66213607788086 34.32428741455078 C 22.84564590454102 34.32428741455078 26.77875518798828 32.69513702392578 29.73693656921387 29.7369556427002 C 32.69512557983398 26.77876663208008 34.32427597045898 22.84565544128418 34.32427597045898 18.66214561462402 C 34.32427597045898 14.47863578796387 32.69512557983398 10.5455265045166 29.73693656921387 7.587335586547852 C 26.77874565124512 4.629146575927734 22.84564590454102 2.999996185302734 18.66213607788086 2.999996185302734 M 18.66213607788086 -3.814697265625e-06 C 28.96894645690918 -3.814697265625e-06 37.32427597045898 8.355325698852539 37.32427597045898 18.66214561462402 C 37.32427597045898 28.96896553039551 28.96894645690918 37.32428741455078 18.66213607788086 37.32428741455078 C 8.355325698852539 37.32428741455078 -3.814697265625e-06 28.96896553039551 -3.814697265625e-06 18.66214561462402 C -3.814697265625e-06 8.355325698852539 8.355325698852539 -3.814697265625e-06 18.66213607788086 -3.814697265625e-06 Z" stroke="none" fill="#082143"/>
    </g>
    <text id="P" transform="translate(1252.748 7571)" fill="#fff" font-size="21" font-family="SegoeUI, Segoe UI"><tspan x="0" y="0">p</tspan></text>
    <g id="Trazado_186987" data-name="Trazado 186987" transform="translate(855.356 7792.593)" fill="#2ca9e0">
      <path d="M 18.66213607788086 35.82429504394531 C 14.07796573638916 35.82429504394531 9.768176078796387 34.03911590576172 6.526676177978516 30.79761505126953 C 3.285166025161743 27.55611610412598 1.499996066093445 23.2463264465332 1.499996066093445 18.66214561462402 C 1.499996066093445 14.07797527313232 3.285166025161743 9.768176078796387 6.526676177978516 6.526675701141357 C 9.768176078796387 3.285175561904907 14.07796573638916 1.500005602836609 18.66213607788086 1.500005602836609 C 23.24630546569824 1.500005602836609 27.55609703063965 3.285175561904907 30.7975959777832 6.526675701141357 C 34.03910446166992 9.768176078796387 35.82427597045898 14.07797527313232 35.82427597045898 18.66214561462402 C 35.82427597045898 23.2463264465332 34.03910446166992 27.55611610412598 30.7975959777832 30.79761505126953 C 27.55609703063965 34.03911590576172 23.24630546569824 35.82429504394531 18.66213607788086 35.82429504394531 Z" stroke="none"/>
      <path d="M 18.66213607788086 2.999996185302734 C 14.4786262512207 2.999996185302734 10.5455265045166 4.629146575927734 7.587335586547852 7.587335586547852 C 4.629146575927734 10.5455265045166 2.999996185302734 14.47863578796387 2.999996185302734 18.66214561462402 C 2.999996185302734 22.84565544128418 4.629146575927734 26.77876663208008 7.587335586547852 29.7369556427002 C 10.54551696777344 32.69513702392578 14.4786262512207 34.32428741455078 18.66213607788086 34.32428741455078 C 22.84564590454102 34.32428741455078 26.77875518798828 32.69513702392578 29.73693656921387 29.7369556427002 C 32.69512557983398 26.77876663208008 34.32427597045898 22.84565544128418 34.32427597045898 18.66214561462402 C 34.32427597045898 14.47863578796387 32.69512557983398 10.5455265045166 29.73693656921387 7.587335586547852 C 26.77874565124512 4.629146575927734 22.84564590454102 2.999996185302734 18.66213607788086 2.999996185302734 M 18.66213607788086 -3.814697265625e-06 C 28.96894645690918 -3.814697265625e-06 37.32427597045898 8.355325698852539 37.32427597045898 18.66214561462402 C 37.32427597045898 28.96896553039551 28.96894645690918 37.32428741455078 18.66213607788086 37.32428741455078 C 8.355325698852539 37.32428741455078 -3.814697265625e-06 28.96896553039551 -3.814697265625e-06 18.66214561462402 C -3.814697265625e-06 8.355325698852539 8.355325698852539 -3.814697265625e-06 18.66213607788086 -3.814697265625e-06 Z" stroke="none" fill="#082143"/>
    </g>
    <text id="f" transform="translate(870.748 7817)" fill="#fff" font-size="21" font-family="SegoeUI, Segoe UI"><tspan x="0" y="0">f</tspan></text>
    <rect id="Rectángulo_46622" data-name="Rectángulo 46622" width="203" height="151" rx="12" transform="translate(936.748 7427)" fill="#ededed"/>
    <text id="_A_" data-name=" A = " transform="translate(956.748 7490)" fill="#082143" font-size="11" font-family="SegoeUI-Bold, Segoe UI" font-weight="700"><tspan x="0" y="0" xml:space="preserve"> A = </tspan></text>
    <g id="Trazado_186988" data-name="Trazado 186988" transform="translate(984.988 7472.567)" fill="#e6137d">
      <path d="M 13.80412864685059 26.10827445983887 C 10.51757907867432 26.10827445983887 7.427738666534424 24.82842445373535 5.103798866271973 22.50447463989258 C 2.779848575592041 20.1805248260498 1.499998688697815 17.09068489074707 1.499998688697815 13.8041353225708 C 1.499998688697815 10.51758575439453 2.779848575592041 7.427745342254639 5.103798866271973 5.103805541992188 C 7.427738666534424 2.779855251312256 10.51757907867432 1.50000536441803 13.80412864685059 1.50000536441803 C 17.09067916870117 1.50000536441803 20.18051910400391 2.779855251312256 22.50445938110352 5.103805541992188 C 24.82840919494629 7.427745342254639 26.1082592010498 10.51758575439453 26.1082592010498 13.8041353225708 C 26.1082592010498 17.09068489074707 24.82840919494629 20.1805248260498 22.50445938110352 22.50447463989258 C 20.18051910400391 24.82842445373535 17.09067916870117 26.10827445983887 13.80412864685059 26.10827445983887 Z" stroke="none"/>
      <path d="M 13.80412864685059 2.999996185302734 C 10.91823959350586 2.999996185302734 8.205089569091797 4.123825073242188 6.164459228515625 6.164455413818359 C 4.123828887939453 8.205085754394531 2.999998092651367 10.91824531555176 2.999998092651367 13.8041353225708 C 2.999998092651367 16.69002532958984 4.123828887939453 19.40317535400391 6.164459228515625 21.44380569458008 C 8.205089569091797 23.48443603515625 10.91823959350586 24.6082649230957 13.80412864685059 24.6082649230957 C 16.69001770019531 24.6082649230957 19.40316772460938 23.48443603515625 21.44379806518555 21.44380569458008 C 23.48442840576172 19.40317535400391 24.6082592010498 16.69002532958984 24.6082592010498 13.8041353225708 C 24.6082592010498 10.91824531555176 23.48442840576172 8.205085754394531 21.44379806518555 6.164455413818359 C 19.40316772460938 4.123825073242188 16.69001770019531 2.999996185302734 13.80412864685059 2.999996185302734 M 13.80412864685059 -3.814697265625e-06 C 21.42793846130371 -3.814697265625e-06 27.6082592010498 6.180324554443359 27.6082592010498 13.8041353225708 C 27.6082592010498 21.42794418334961 21.42793846130371 27.6082649230957 13.80412864685059 27.6082649230957 C 6.180318832397461 27.6082649230957 -1.9073486328125e-06 21.42794418334961 -1.9073486328125e-06 13.8041353225708 C -1.9073486328125e-06 6.180324554443359 6.180318832397461 -3.814697265625e-06 13.80412864685059 -3.814697265625e-06 Z" stroke="none" fill="#082143"/>
    </g>
    <text id="s-2" data-name="s" transform="translate(993.748 7490)" fill="#fff" font-size="21" font-family="SegoeUI, Segoe UI"><tspan x="0" y="0">s</tspan></text>
    <text id="o_" data-name="o  " transform="translate(1017.748 7491)" fill="#082143" font-size="12" font-family="SegoeUI-Bold, Segoe UI" font-weight="700"><tspan x="0" y="0" xml:space="preserve">o  </tspan></text>
    <g id="Trazado_186989" data-name="Trazado 186989" transform="translate(1033.956 7472.567)" fill="#f19124">
      <path d="M 13.80412864685059 26.10827445983887 C 10.51757907867432 26.10827445983887 7.427738666534424 24.82842445373535 5.103798866271973 22.50447463989258 C 2.779848575592041 20.1805248260498 1.499998688697815 17.09068489074707 1.499998688697815 13.8041353225708 C 1.499998688697815 10.51758575439453 2.779848575592041 7.427745342254639 5.103798866271973 5.103805541992188 C 7.427738666534424 2.779855251312256 10.51757907867432 1.50000536441803 13.80412864685059 1.50000536441803 C 17.09067916870117 1.50000536441803 20.18051910400391 2.779855251312256 22.50445938110352 5.103805541992188 C 24.82840919494629 7.427745342254639 26.1082592010498 10.51758575439453 26.1082592010498 13.8041353225708 C 26.1082592010498 17.09068489074707 24.82840919494629 20.1805248260498 22.50445938110352 22.50447463989258 C 20.18051910400391 24.82842445373535 17.09067916870117 26.10827445983887 13.80412864685059 26.10827445983887 Z" stroke="none"/>
      <path d="M 13.80412864685059 2.999996185302734 C 10.91823959350586 2.999996185302734 8.205089569091797 4.123825073242188 6.164459228515625 6.164455413818359 C 4.123828887939453 8.205085754394531 2.999998092651367 10.91824531555176 2.999998092651367 13.8041353225708 C 2.999998092651367 16.69002532958984 4.123828887939453 19.40317535400391 6.164459228515625 21.44380569458008 C 8.205089569091797 23.48443603515625 10.91823959350586 24.6082649230957 13.80412864685059 24.6082649230957 C 16.69001770019531 24.6082649230957 19.40316772460938 23.48443603515625 21.44379806518555 21.44380569458008 C 23.48442840576172 19.40317535400391 24.6082592010498 16.69002532958984 24.6082592010498 13.8041353225708 C 24.6082592010498 10.91824531555176 23.48442840576172 8.205085754394531 21.44379806518555 6.164455413818359 C 19.40316772460938 4.123825073242188 16.69001770019531 2.999996185302734 13.80412864685059 2.999996185302734 M 13.80412864685059 -3.814697265625e-06 C 21.42793846130371 -3.814697265625e-06 27.6082592010498 6.180324554443359 27.6082592010498 13.8041353225708 C 27.6082592010498 21.42794418334961 21.42793846130371 27.6082649230957 13.80412864685059 27.6082649230957 C 6.180318832397461 27.6082649230957 -1.9073486328125e-06 21.42794418334961 -1.9073486328125e-06 13.8041353225708 C -1.9073486328125e-06 6.180324554443359 6.180318832397461 -3.814697265625e-06 13.80412864685059 -3.814697265625e-06 Z" stroke="none" fill="#082143"/>
    </g>
    <text id="P-2" data-name="P" transform="translate(1041.748 7489)" fill="#fff" font-size="21" font-family="SegoeUI, Segoe UI"><tspan x="0" y="0">p</tspan></text>
    <text id="_B_" data-name=" B = " transform="translate(956.748 7522)" fill="#082143" font-size="11" font-family="SegoeUI-Bold, Segoe UI" font-weight="700"><tspan x="0" y="0" xml:space="preserve"> B = </tspan></text>
    <g id="Trazado_186990" data-name="Trazado 186990" transform="translate(984.988 7505.526)" fill="#94c024">
      <path d="M 13.80412864685059 26.10827445983887 C 10.51757907867432 26.10827445983887 7.427738666534424 24.82842445373535 5.103798866271973 22.50447463989258 C 2.779848575592041 20.1805248260498 1.499998688697815 17.09068489074707 1.499998688697815 13.8041353225708 C 1.499998688697815 10.51758575439453 2.779848575592041 7.427745342254639 5.103798866271973 5.103805541992188 C 7.427738666534424 2.779855251312256 10.51757907867432 1.50000536441803 13.80412864685059 1.50000536441803 C 17.09067916870117 1.50000536441803 20.18051910400391 2.779855251312256 22.50445938110352 5.103805541992188 C 24.82840919494629 7.427745342254639 26.1082592010498 10.51758575439453 26.1082592010498 13.8041353225708 C 26.1082592010498 17.09068489074707 24.82840919494629 20.1805248260498 22.50445938110352 22.50447463989258 C 20.18051910400391 24.82842445373535 17.09067916870117 26.10827445983887 13.80412864685059 26.10827445983887 Z" stroke="none"/>
      <path d="M 13.80412864685059 2.999996185302734 C 10.91823959350586 2.999996185302734 8.205089569091797 4.123825073242188 6.164459228515625 6.164455413818359 C 4.123828887939453 8.205085754394531 2.999998092651367 10.91824531555176 2.999998092651367 13.8041353225708 C 2.999998092651367 16.69002532958984 4.123828887939453 19.40317535400391 6.164459228515625 21.44380569458008 C 8.205089569091797 23.48443603515625 10.91823959350586 24.6082649230957 13.80412864685059 24.6082649230957 C 16.69001770019531 24.6082649230957 19.40316772460938 23.48443603515625 21.44379806518555 21.44380569458008 C 23.48442840576172 19.40317535400391 24.6082592010498 16.69002532958984 24.6082592010498 13.8041353225708 C 24.6082592010498 10.91824531555176 23.48442840576172 8.205085754394531 21.44379806518555 6.164455413818359 C 19.40316772460938 4.123825073242188 16.69001770019531 2.999996185302734 13.80412864685059 2.999996185302734 M 13.80412864685059 -3.814697265625e-06 C 21.42793846130371 -3.814697265625e-06 27.6082592010498 6.180324554443359 27.6082592010498 13.8041353225708 C 27.6082592010498 21.42794418334961 21.42793846130371 27.6082649230957 13.80412864685059 27.6082649230957 C 6.180318832397461 27.6082649230957 -1.9073486328125e-06 21.42794418334961 -1.9073486328125e-06 13.8041353225708 C -1.9073486328125e-06 6.180324554443359 6.180318832397461 -3.814697265625e-06 13.80412864685059 -3.814697265625e-06 Z" stroke="none" fill="#082143"/>
    </g>
    <text id="D-2" data-name="D" transform="translate(991.748 7525)" fill="#fff" font-size="21" font-family="SegoeUI, Segoe UI"><tspan x="0" y="0">d</tspan></text>
    <text id="Transición_interna_" data-name="Transición interna =" transform="translate(956.748 7555)" fill="#082143" font-size="11" font-family="SegoeUI-Bold, Segoe UI" font-weight="700"><tspan x="0" y="0">Transición interna =</tspan></text>
    <g id="Trazado_186991" data-name="Trazado 186991" transform="translate(1076.803 7536.131)" fill="#2ca9e0">
      <path d="M 13.80412864685059 26.10827445983887 C 10.51757907867432 26.10827445983887 7.427738666534424 24.82842445373535 5.103798866271973 22.50447463989258 C 2.779848575592041 20.1805248260498 1.499998688697815 17.09068489074707 1.499998688697815 13.8041353225708 C 1.499998688697815 10.51758575439453 2.779848575592041 7.427745342254639 5.103798866271973 5.103805541992188 C 7.427738666534424 2.779855251312256 10.51757907867432 1.50000536441803 13.80412864685059 1.50000536441803 C 17.09067916870117 1.50000536441803 20.18051910400391 2.779855251312256 22.50445938110352 5.103805541992188 C 24.82840919494629 7.427745342254639 26.1082592010498 10.51758575439453 26.1082592010498 13.8041353225708 C 26.1082592010498 17.09068489074707 24.82840919494629 20.1805248260498 22.50445938110352 22.50447463989258 C 20.18051910400391 24.82842445373535 17.09067916870117 26.10827445983887 13.80412864685059 26.10827445983887 Z" stroke="none"/>
      <path d="M 13.80412864685059 2.999996185302734 C 10.91823959350586 2.999996185302734 8.205089569091797 4.123825073242188 6.164459228515625 6.164455413818359 C 4.123828887939453 8.205085754394531 2.999998092651367 10.91824531555176 2.999998092651367 13.8041353225708 C 2.999998092651367 16.69002532958984 4.123828887939453 19.40317535400391 6.164459228515625 21.44380569458008 C 8.205089569091797 23.48443603515625 10.91823959350586 24.6082649230957 13.80412864685059 24.6082649230957 C 16.69001770019531 24.6082649230957 19.40316772460938 23.48443603515625 21.44379806518555 21.44380569458008 C 23.48442840576172 19.40317535400391 24.6082592010498 16.69002532958984 24.6082592010498 13.8041353225708 C 24.6082592010498 10.91824531555176 23.48442840576172 8.205085754394531 21.44379806518555 6.164455413818359 C 19.40316772460938 4.123825073242188 16.69001770019531 2.999996185302734 13.80412864685059 2.999996185302734 M 13.80412864685059 -3.814697265625e-06 C 21.42793846130371 -3.814697265625e-06 27.6082592010498 6.180324554443359 27.6082592010498 13.8041353225708 C 27.6082592010498 21.42794418334961 21.42793846130371 27.6082649230957 13.80412864685059 27.6082649230957 C 6.180318832397461 27.6082649230957 -1.9073486328125e-06 21.42794418334961 -1.9073486328125e-06 13.8041353225708 C -1.9073486328125e-06 6.180324554443359 6.180318832397461 -3.814697265625e-06 13.80412864685059 -3.814697265625e-06 Z" stroke="none" fill="#082143"/>
    </g>
    <text id="f-2" data-name="f" transform="translate(1086.748 7557)" fill="#fff" font-size="21" font-family="SegoeUI, Segoe UI"><tspan x="0" y="0">f</tspan></text>
    <text id="GRUPOS_CAS" data-name="GRUPOS CAS" transform="translate(1019.748 7447)" fill="#082143" font-size="11" font-family="SegoeUI-Bold, Segoe UI" font-weight="700"><tspan x="0" y="0">GRUPOS CAS</tspan></text>
    <path id="Trazado_186992" data-name="Trazado 186992" d="M1555.009-443.512h27.21v27.21h-27.21v-27.21Z" transform="translate(-240.82 8021.041)" fill="#e6137d" fill-rule="evenodd"/>
    <path id="Trazado_186993" data-name="Trazado 186993" d="M1555.009-300.363h27.21v27.21h-27.21v-27.21Z" transform="translate(-240.82 7905.373)" fill="#f19124" fill-rule="evenodd"/>
    <path id="Trazado_186994" data-name="Trazado 186994" d="M1555.009-157.213h27.21V-130h-27.21v-27.21Z" transform="translate(-240.82 7789.705)" fill="#f19124" fill-rule="evenodd"/>
    <path id="Trazado_186995" data-name="Trazado 186995" d="M1555.009-14.063h27.21v27.21h-27.21v-27.21Z" transform="translate(-240.82 7674.037)" fill="#f19124" fill-rule="evenodd"/>
    <path id="Trazado_186996" data-name="Trazado 186996" d="M1555.009,129.086h27.21V156.3h-27.21v-27.21Z" transform="translate(-240.82 7558.37)" fill="#f19124" fill-rule="evenodd"/>
    <path id="Trazado_186997" data-name="Trazado 186997" d="M1555.009,272.235h27.21v27.21h-27.21v-27.21Z" transform="translate(-240.82 7442.702)" fill="#f19124" fill-rule="evenodd"/>
    <g id="Trazado_186998" data-name="Trazado 186998" transform="translate(1320.552 7793.063)" fill="#94c024">
      <path d="M 18.66213607788086 35.82429504394531 C 14.07796573638916 35.82429504394531 9.768176078796387 34.03911590576172 6.526676177978516 30.79761505126953 C 3.285166025161743 27.55611610412598 1.499996066093445 23.2463264465332 1.499996066093445 18.66214561462402 C 1.499996066093445 14.07797527313232 3.285166025161743 9.768176078796387 6.526676177978516 6.526675701141357 C 9.768176078796387 3.285175561904907 14.07796573638916 1.500005602836609 18.66213607788086 1.500005602836609 C 23.24630546569824 1.500005602836609 27.55609703063965 3.285175561904907 30.7975959777832 6.526675701141357 C 34.03910446166992 9.768176078796387 35.82427597045898 14.07797527313232 35.82427597045898 18.66214561462402 C 35.82427597045898 23.2463264465332 34.03910446166992 27.55611610412598 30.7975959777832 30.79761505126953 C 27.55609703063965 34.03911590576172 23.24630546569824 35.82429504394531 18.66213607788086 35.82429504394531 Z" stroke="none"/>
      <path d="M 18.66213607788086 2.999996185302734 C 14.4786262512207 2.999996185302734 10.5455265045166 4.629146575927734 7.587335586547852 7.587335586547852 C 4.629146575927734 10.5455265045166 2.999996185302734 14.47863578796387 2.999996185302734 18.66214561462402 C 2.999996185302734 22.84565544128418 4.629146575927734 26.77876663208008 7.587335586547852 29.7369556427002 C 10.54551696777344 32.69513702392578 14.4786262512207 34.32428741455078 18.66213607788086 34.32428741455078 C 22.84564590454102 34.32428741455078 26.77875518798828 32.69513702392578 29.73693656921387 29.7369556427002 C 32.69512557983398 26.77876663208008 34.32427597045898 22.84565544128418 34.32427597045898 18.66214561462402 C 34.32427597045898 14.47863578796387 32.69512557983398 10.5455265045166 29.73693656921387 7.587335586547852 C 26.77874565124512 4.629146575927734 22.84564590454102 2.999996185302734 18.66213607788086 2.999996185302734 M 18.66213607788086 -3.814697265625e-06 C 28.96894645690918 -3.814697265625e-06 37.32427597045898 8.355325698852539 37.32427597045898 18.66214561462402 C 37.32427597045898 28.96896553039551 28.96894645690918 37.32428741455078 18.66213607788086 37.32428741455078 C 8.355325698852539 37.32428741455078 -3.814697265625e-06 28.96896553039551 -3.814697265625e-06 18.66214561462402 C -3.814697265625e-06 8.355325698852539 8.355325698852539 -3.814697265625e-06 18.66213607788086 -3.814697265625e-06 Z" stroke="none" fill="#082143"/>
    </g>
    <text id="d-3" data-name="d" transform="translate(1332.748 7818)" fill="#fff" font-size="21" font-family="SegoeUI, Segoe UI"><tspan x="0" y="0">d</tspan></text>
  </g>
</svg>
