<svg xmlns="http://www.w3.org/2000/svg" width="142.44" height="206.5" viewBox="0 0 142.44 206.5">
  <g id="Grupo_178784" data-name="Grupo 178784" transform="translate(-495 -7572.75)">
    <g id="Trazado_33775" data-name="Trazado 33775" transform="translate(495 7572.75)" fill="#fff6ea">
      <path d="M 128.8740997314453 206 L 13.56570243835449 206 C 10.07572841644287 206 6.794650077819824 204.6409149169922 4.326860427856445 202.1731567382812 C 1.859071016311646 199.7053680419922 0.4999920427799225 196.4242858886719 0.4999920427799225 192.9343109130859 L 0.4999920427799225 13.56571006774902 C 0.4999920427799225 10.07573699951172 1.859071016311646 6.794657707214355 4.326860427856445 4.326868534088135 C 6.794650077819824 1.859079003334045 10.07572841644287 0.5 13.56570243835449 0.5 L 128.8740997314453 0.5 C 132.3640747070312 0.5 135.6451568603516 1.859079003334045 138.1129455566406 4.326868534088135 C 140.5807037353516 6.794657707214355 141.9397888183594 10.07573699951172 141.9397888183594 13.56571006774902 L 141.9397888183594 192.9343109130859 C 141.9397888183594 196.4242858886719 140.5807037353516 199.7053680419922 138.1129455566406 202.1731567382812 C 135.6451568603516 204.6409149169922 132.3640747070312 206 128.8740997314453 206 Z" stroke="none"/>
      <path d="M 13.565673828125 1 C 10.20925903320312 1 7.053756713867188 2.307052612304688 4.680419921875 4.680389404296875 C 2.307037353515625 7.053741455078125 0.9999847412109375 10.20925903320312 0.9999847412109375 13.56568908691406 L 0.9999847412109375 192.9343109130859 C 0.9999847412109375 196.2907409667969 2.307037353515625 199.4462432861328 4.680419921875 201.819580078125 C 7.053756713867188 204.1929473876953 10.20925903320312 205.5 13.565673828125 205.5 L 128.8740692138672 205.5 C 132.2304992675781 205.5 135.3860168457031 204.1929473876953 137.7593841552734 201.819580078125 C 140.1327362060547 199.4462432861328 141.4397888183594 196.2907409667969 141.4397888183594 192.9343109130859 L 141.4397888183594 13.56568908691406 C 141.4397888183594 10.20925903320312 140.1327362060547 7.053741455078125 137.7593841552734 4.680389404296875 C 135.3860473632812 2.307052612304688 132.2304992675781 1 128.8740692138672 1 L 13.565673828125 1 M 13.565673828125 0 L 128.8740692138672 0 C 136.3662261962891 0 142.4397888183594 6.07354736328125 142.4397888183594 13.56568908691406 L 142.4397888183594 192.9343109130859 C 142.4397888183594 200.4264221191406 136.3662261962891 206.5 128.8740692138672 206.5 L 13.565673828125 206.5 C 6.073577880859375 206.5 -1.52587890625e-05 200.4264221191406 -1.52587890625e-05 192.9343109130859 L -1.52587890625e-05 13.56568908691406 C -1.52587890625e-05 6.07354736328125 6.073577880859375 0 13.565673828125 0 Z" stroke="none" fill="#f9a829"/>
    </g>
    <path id="Trazado_187548" data-name="Trazado 187548" d="M12.432-4.736a5.031,5.031,0,0,1-1.694,3.613A5.951,5.951,0,0,1,6.709.2a5.351,5.351,0,0,1-4.3-1.841A7.548,7.548,0,0,1,.84-6.7v-.869a8.523,8.523,0,0,1,.723-3.613,5.416,5.416,0,0,1,2.065-2.4,5.786,5.786,0,0,1,3.12-.835A5.8,5.8,0,0,1,10.713-13.1a5.407,5.407,0,0,1,1.738,3.7H9.521a2.97,2.97,0,0,0-.767-2,2.839,2.839,0,0,0-2.007-.62,2.489,2.489,0,0,0-2.192,1.05,5.883,5.883,0,0,0-.747,3.257v1.074a6.3,6.3,0,0,0,.7,3.369A2.443,2.443,0,0,0,6.709-2.2a2.892,2.892,0,0,0,2.026-.62A2.8,2.8,0,0,0,9.5-4.736Zm4.854,2.383h6.221V0h-9.15V-14.219h2.93ZM36.24-6.787A8.583,8.583,0,0,1,35.5-3.105,5.589,5.589,0,0,1,33.374-.664,5.875,5.875,0,0,1,30.205.2a5.915,5.915,0,0,1-3.154-.85A5.644,5.644,0,0,1,24.9-3.081a8.338,8.338,0,0,1-.771-3.628v-.7a8.538,8.538,0,0,1,.757-3.7,5.635,5.635,0,0,1,2.139-2.451,5.883,5.883,0,0,1,3.159-.854,5.883,5.883,0,0,1,3.159.854,5.635,5.635,0,0,1,2.139,2.451,8.514,8.514,0,0,1,.757,3.687Zm-2.969-.645a5.984,5.984,0,0,0-.8-3.4,2.61,2.61,0,0,0-2.285-1.162,2.611,2.611,0,0,0-2.275,1.147A5.915,5.915,0,0,0,27.1-7.48v.693a6.058,6.058,0,0,0,.8,3.379,2.6,2.6,0,0,0,2.3,1.2,2.579,2.579,0,0,0,2.266-1.157,6.023,6.023,0,0,0,.8-3.374ZM43.633-5.205H41.3V0h-2.93V-14.219h5.283A5.972,5.972,0,0,1,47.539-13.1a3.876,3.876,0,0,1,1.367,3.174,4.374,4.374,0,0,1-.63,2.427,4.3,4.3,0,0,1-1.909,1.548L49.443-.137V0H46.3ZM41.3-7.578h2.363a2.42,2.42,0,0,0,1.709-.562,2.007,2.007,0,0,0,.605-1.548,2.148,2.148,0,0,0-.571-1.582,2.374,2.374,0,0,0-1.753-.576H41.3Zm21.514.791a8.583,8.583,0,0,1-.742,3.682A5.589,5.589,0,0,1,59.946-.664,5.875,5.875,0,0,1,56.777.2a5.915,5.915,0,0,1-3.154-.85,5.644,5.644,0,0,1-2.148-2.427A8.338,8.338,0,0,1,50.7-6.709v-.7a8.538,8.538,0,0,1,.757-3.7A5.635,5.635,0,0,1,53.6-13.56a5.883,5.883,0,0,1,3.159-.854,5.883,5.883,0,0,1,3.159.854,5.635,5.635,0,0,1,2.139,2.451,8.514,8.514,0,0,1,.757,3.687Zm-2.969-.645a5.984,5.984,0,0,0-.8-3.4,2.61,2.61,0,0,0-2.285-1.162,2.611,2.611,0,0,0-2.275,1.147,5.915,5.915,0,0,0-.811,3.364v.693a6.058,6.058,0,0,0,.8,3.379,2.6,2.6,0,0,0,2.3,1.2,2.579,2.579,0,0,0,2.266-1.157,6.023,6.023,0,0,0,.8-3.374Z" transform="translate(533.223 7613.864)" fill="#12263f"/>
    <path id="Trazado_187549" data-name="Trazado 187549" d="M39-1.668Q33.86.818,25.583.818,14.787.818,8.6-5.529T2.421-22.442Q2.421-33.7,9.373-40.7t18.042-7A33.742,33.742,0,0,1,39-45.964V-35.79A20.521,20.521,0,0,0,28.266-38.6,14.235,14.235,0,0,0,17.6-34.449q-4.057,4.155-4.057,11.254,0,6.8,3.828,10.845T27.677-8.31A21.981,21.981,0,0,0,39-11.319ZM75.113,0H47.175V-46.913H57.742V-8.571H75.113Z" transform="translate(520.482 7734.776)" fill="#082143"/>
    <path id="Trazado_187550" data-name="Trazado 187550" d="M7.719-13.6V0H4.8V-10.3a3.5,3.5,0,0,1-.571.4,5.89,5.89,0,0,1-.7.343,6.254,6.254,0,0,1-.77.26,5.624,5.624,0,0,1-.789.153v-2.468a12.19,12.19,0,0,0,2.152-.854A12.249,12.249,0,0,0,5.947-13.6Zm13.359,1.985q-.891,1.6-1.6,3.01T18.239-5.831a26.16,26.16,0,0,0-.918,2.783A26.883,26.883,0,0,0,16.7,0H13.638a25.05,25.05,0,0,1,.687-2.987,28.015,28.015,0,0,1,.988-2.788q.561-1.35,1.243-2.63T18-10.91H11.819V-13.3h9.259Z" transform="translate(554.882 7659.553)" fill="#082143"/>
    <g id="Trazado_187551" data-name="Trazado 187551" transform="translate(544.69 7630.538)" fill="none">
      <path d="M21.66,0A21.66,21.66,0,1,1,0,21.66,21.66,21.66,0,0,1,21.66,0Z" stroke="none"/>
      <path d="M 21.65960502624512 1.999996185302734 C 19.00469589233398 1.999996185302734 16.43025588989258 2.519515991210938 14.00781440734863 3.544124603271484 C 11.66699409484863 4.534206390380859 9.564315795898438 5.952014923095703 7.758163452148438 7.758163452148438 C 5.952014923095703 9.564315795898438 4.534206390380859 11.66699409484863 3.544124603271484 14.00781440734863 C 2.519515991210938 16.43025588989258 1.999996185302734 19.00469589233398 1.999996185302734 21.65960502624512 C 1.999996185302734 24.31451416015625 2.519515991210938 26.88895416259766 3.544124603271484 29.31139373779297 C 4.534206390380859 31.65220642089844 5.952014923095703 33.7548942565918 7.758163452148438 35.5610466003418 C 9.564315795898438 37.36719512939453 11.66699409484863 38.78499603271484 14.00781440734863 39.77507400512695 C 16.43025588989258 40.79968643188477 19.00469589233398 41.31920623779297 21.65960502624512 41.31920623779297 C 24.31451416015625 41.31920623779297 26.88895416259766 40.79968643188477 29.31139373779297 39.77507400512695 C 31.65220642089844 38.78499603271484 33.7548942565918 37.36719512939453 35.5610466003418 35.5610466003418 C 37.36719512939453 33.7548942565918 38.78499603271484 31.65220642089844 39.77507400512695 29.31139373779297 C 40.79968643188477 26.88895416259766 41.31920623779297 24.31451416015625 41.31920623779297 21.65960502624512 C 41.31920623779297 19.00469589233398 40.79968643188477 16.43025588989258 39.77507400512695 14.00781440734863 C 38.78499603271484 11.66699409484863 37.36719512939453 9.564315795898438 35.5610466003418 7.758163452148438 C 33.7548942565918 5.952014923095703 31.65220642089844 4.534206390380859 29.31139373779297 3.544124603271484 C 26.88895416259766 2.519515991210938 24.31451416015625 1.999996185302734 21.65960502624512 1.999996185302734 M 21.65960502624512 -3.814697265625e-06 C 33.62187576293945 -3.814697265625e-06 43.31920623779297 9.697334289550781 43.31920623779297 21.65960502624512 C 43.31920623779297 33.62187576293945 33.62187576293945 43.31920623779297 21.65960502624512 43.31920623779297 C 9.697334289550781 43.31920623779297 -3.814697265625e-06 33.62187576293945 -3.814697265625e-06 21.65960502624512 C -3.814697265625e-06 9.697334289550781 9.697334289550781 -3.814697265625e-06 21.65960502624512 -3.814697265625e-06 Z" stroke="none" fill="#082143"/>
    </g>
    <path id="Trazado_187552" data-name="Trazado 187552" d="M3.838-8.359h1.5A2.119,2.119,0,0,0,6.934-8.9a1.968,1.968,0,0,0,.518-1.426,1.74,1.74,0,0,0-.513-1.338,1.987,1.987,0,0,0-1.411-.479,2.083,2.083,0,0,0-1.357.444,1.421,1.421,0,0,0-.547,1.157H.8a3.471,3.471,0,0,1,.6-2,4,4,0,0,1,1.68-1.382,5.606,5.606,0,0,1,2.378-.5,5.316,5.316,0,0,1,3.535,1.079,3.682,3.682,0,0,1,1.279,2.974,2.992,2.992,0,0,1-.6,1.8A3.87,3.87,0,0,1,8.115-7.3,3.533,3.533,0,0,1,9.907-6.016,3.5,3.5,0,0,1,10.5-3.984,3.743,3.743,0,0,1,9.116-.947,5.556,5.556,0,0,1,5.459.2,5.268,5.268,0,0,1,1.978-.928,3.668,3.668,0,0,1,.625-3.9H3.447a1.635,1.635,0,0,0,.6,1.309,2.213,2.213,0,0,0,1.479.508A2.224,2.224,0,0,0,7.1-2.612a1.837,1.837,0,0,0,.571-1.411q0-2.129-2.344-2.129H3.838Zm9.023,1.367.82-7.227H21.65v2.354H16l-.352,3.057a4.474,4.474,0,0,1,2.139-.537,4.1,4.1,0,0,1,3.184,1.26,5.032,5.032,0,0,1,1.152,3.525,5.155,5.155,0,0,1-.581,2.466A4.1,4.1,0,0,1,19.873-.405a5.2,5.2,0,0,1-2.559.6,5.52,5.52,0,0,1-2.393-.522A4.244,4.244,0,0,1,13.179-1.8,4.006,4.006,0,0,1,12.5-3.955h2.793a2.086,2.086,0,0,0,.62,1.382A1.966,1.966,0,0,0,17.3-2.08a1.735,1.735,0,0,0,1.475-.688A3.189,3.189,0,0,0,19.3-4.717a2.637,2.637,0,0,0-.6-1.855,2.186,2.186,0,0,0-1.689-.645,2.443,2.443,0,0,0-1.631.527l-.273.254ZM24.18-1.387a1.421,1.421,0,0,1,.454-1.094,1.611,1.611,0,0,1,1.138-.42,1.624,1.624,0,0,1,1.147.42,1.421,1.421,0,0,1,.454,1.094,1.4,1.4,0,0,1-.449,1.079,1.631,1.631,0,0,1-1.152.415,1.618,1.618,0,0,1-1.143-.415A1.4,1.4,0,0,1,24.18-1.387Zm5.967-5.605.82-7.227h7.969v2.354H33.281L32.93-8.809a4.475,4.475,0,0,1,2.139-.537,4.1,4.1,0,0,1,3.184,1.26A5.032,5.032,0,0,1,39.4-4.561a5.155,5.155,0,0,1-.581,2.466A4.1,4.1,0,0,1,37.158-.405,5.2,5.2,0,0,1,34.6.2a5.52,5.52,0,0,1-2.393-.522A4.244,4.244,0,0,1,30.464-1.8a4.006,4.006,0,0,1-.679-2.158h2.793a2.086,2.086,0,0,0,.62,1.382,1.966,1.966,0,0,0,1.392.493,1.735,1.735,0,0,0,1.475-.688,3.189,3.189,0,0,0,.518-1.948,2.637,2.637,0,0,0-.6-1.855A2.186,2.186,0,0,0,34.3-7.217a2.443,2.443,0,0,0-1.631.527l-.273.254Z" transform="translate(545.964 7760.385)" fill="#12263f"/>
  </g>
</svg>
