<svg xmlns="http://www.w3.org/2000/svg" width="368.984" height="369.156" viewBox="0 0 368.984 369.156">
  <g id="Grupo_178783" data-name="Grupo 178783" transform="translate(-736.016 -7059)">
    <g id="Grupo_15290" data-name="Grupo 15290" transform="translate(790.227 7313.651)">
      <path id="Trazado_33594" data-name="Trazado 33594" d="M14.14,0A14.14,14.14,0,1,1,0,14.14,14.14,14.14,0,0,1,14.14,0Z" fill="#1ec488"/>
      <path id="Trazado_33599" data-name="Trazado 33599" d="M13.7-4.806l-1.356.463L10.68-6.128A6.132,6.132,0,0,1,7.4-5.244a6.364,6.364,0,0,1-2.341-.425,5.613,5.613,0,0,1-1.882-1.2,5.379,5.379,0,0,1-1.25-1.924,6.9,6.9,0,0,1-.455-2.551,6.844,6.844,0,0,1,.455-2.539,5.386,5.386,0,0,1,1.25-1.92,5.613,5.613,0,0,1,1.882-1.2A6.364,6.364,0,0,1,7.4-17.419a6.341,6.341,0,0,1,2.332.425,5.613,5.613,0,0,1,1.882,1.2,5.432,5.432,0,0,1,1.255,1.92,6.788,6.788,0,0,1,.459,2.539A6.017,6.017,0,0,1,11.7-6.953ZM2.976-11.34a5.62,5.62,0,0,0,.345,2.017,4.058,4.058,0,0,0,.947,1.49,4.193,4.193,0,0,0,1.406.9,4.692,4.692,0,0,0,1.73.316,4.659,4.659,0,0,0,1.726-.316,4.2,4.2,0,0,0,1.4-.9,4.015,4.015,0,0,0,.943-1.49,5.682,5.682,0,0,0,.341-2.017,5.064,5.064,0,0,0-.594-2.5,3.95,3.95,0,0,0-1.583-1.6A4.626,4.626,0,0,0,7.4-15.98a4.65,4.65,0,0,0-2.24.535,3.969,3.969,0,0,0-1.591,1.6A5.035,5.035,0,0,0,2.976-11.34Z" transform="translate(6.439 24.718)" fill="#fff"/>
    </g>
    <g id="Grupo_15291" data-name="Grupo 15291" transform="translate(788.847 7230.878)">
      <path id="Trazado_33595" data-name="Trazado 33595" d="M14.14,0A14.14,14.14,0,1,1,0,14.14,14.14,14.14,0,0,1,14.14,0Z" transform="translate(0 0)" fill="#1ec488"/>
      <path id="Trazado_33600" data-name="Trazado 33600" d="M7.4-5.244a6.3,6.3,0,0,1-2.332-.425A5.633,5.633,0,0,1,3.2-6.865,5.333,5.333,0,0,1,1.952-8.789,6.958,6.958,0,0,1,1.5-11.34a6.844,6.844,0,0,1,.455-2.539A5.458,5.458,0,0,1,3.2-15.8,5.5,5.5,0,0,1,5.072-17,6.354,6.354,0,0,1,7.4-17.419a6.252,6.252,0,0,1,2.316.425,5.586,5.586,0,0,1,1.869,1.2,5.415,5.415,0,0,1,1.246,1.92,6.844,6.844,0,0,1,.455,2.539,6.91,6.91,0,0,1-.455,2.547,5.4,5.4,0,0,1-1.246,1.928,5.586,5.586,0,0,1-1.869,1.2A6.252,6.252,0,0,1,7.4-5.244Zm0-1.423a4.236,4.236,0,0,0,3.136-1.25,4.643,4.643,0,0,0,1.242-3.423,5.436,5.436,0,0,0-.341-1.97,4.058,4.058,0,0,0-.935-1.465,4.1,4.1,0,0,0-1.389-.893A4.658,4.658,0,0,0,7.4-15.98a4.715,4.715,0,0,0-1.726.312,4.136,4.136,0,0,0-1.4.893,4.03,4.03,0,0,0-.939,1.465A5.436,5.436,0,0,0,3-11.34a5.529,5.529,0,0,0,.341,1.987A4.018,4.018,0,0,0,4.28-7.879a4.19,4.19,0,0,0,1.4.9A4.659,4.659,0,0,0,7.4-6.667Z" transform="translate(6.432 24.718)" fill="#fff"/>
    </g>
    <g id="Grupo_15292" data-name="Grupo 15292" transform="translate(788.157 7148.106)">
      <path id="Trazado_33596" data-name="Trazado 33596" d="M14.14,0A14.14,14.14,0,1,1,0,14.14,14.14,14.14,0,0,1,14.14,0Z" transform="translate(0)" fill="#1ec488"/>
      <path id="Trazado_33601" data-name="Trazado 33601" d="M15.035-5.332H13.569l-.791-9.784L8.989-5.332h-.9l-3.764-9.75-.8,9.75H2.051l.9-11.855H4.939l3.6,9.245,3.6-9.245h2Z" transform="translate(4.882 24.646)" fill="#fff"/>
    </g>
    <g id="Grupo_15293" data-name="Grupo 15293" transform="translate(786.778 7065.333)">
      <path id="Trazado_33597" data-name="Trazado 33597" d="M14.14,0A14.14,14.14,0,1,1,0,14.14,14.14,14.14,0,0,1,14.14,0Z" transform="translate(0 0)" fill="#1ec488"/>
      <path id="Trazado_33602" data-name="Trazado 33602" d="M9.51-5.332,5.249-10.814H4.2v5.481H2.7V-17.187H4.2v5.01H5.241l4.1-5.01h1.852l-4.656,5.65,4.909,6.206Z" transform="translate(8.13 24.646)" fill="#fff"/>
    </g>
    <g id="Grupo_15294" data-name="Grupo 15294" transform="translate(787.467 7106.719)">
      <path id="Trazado_33598" data-name="Trazado 33598" d="M14.14,0A14.14,14.14,0,1,1,0,14.14,14.14,14.14,0,0,1,14.14,0Z" fill="#1ec488"/>
      <path id="Trazado_33603" data-name="Trazado 33603" d="M4.2-6.7H8.322v1.372H2.7V-17.187H4.2Z" transform="translate(9.51 24.646)" fill="#fff"/>
    </g>
    <g id="Grupo_15295" data-name="Grupo 15295" transform="translate(788.847 7189.492)">
      <path id="Trazado_33604" data-name="Trazado 33604" d="M14.14,0A14.14,14.14,0,1,1,0,14.14,14.14,14.14,0,0,1,14.14,0Z" transform="translate(0 0)" fill="#1ec488"/>
      <path id="Trazado_33605" data-name="Trazado 33605" d="M10.663-17.187h1.5V-5.332H10.571L4.18-14.923v9.59H2.7V-17.187H4.272l6.391,9.548Z" transform="translate(7.44 24.646)" fill="#fff"/>
    </g>
    <g id="Grupo_15296" data-name="Grupo 15296" transform="translate(789.537 7272.265)">
      <path id="Trazado_33606" data-name="Trazado 33606" d="M14.14,0A14.14,14.14,0,1,1,0,14.14,14.14,14.14,0,0,1,14.14,0Z" fill="#1ec488"/>
      <path id="Trazado_33607" data-name="Trazado 33607" d="M7.186-17.187a3.51,3.51,0,0,1,1.857.493,3.327,3.327,0,0,1,1.246,1.318,3.867,3.867,0,0,1,.434,1.827,3.6,3.6,0,0,1-.981,2.581A3.366,3.366,0,0,1,7.186-9.938H4.2v4.606H2.7V-17.187Zm-.219,5.936a2.156,2.156,0,0,0,1.65-.636,2.352,2.352,0,0,0,.6-1.68,2.359,2.359,0,0,0-.6-1.671,2.141,2.141,0,0,0-1.65-.644H4.2v4.631Z" transform="translate(7.44 24.646)" fill="#fff"/>
    </g>
    <path id="Trazado_187546" data-name="Trazado 187546" d="M10.266,0H7.922L3.359-7.484V0H1.016V-11.375H3.359l4.57,7.5v-7.5h2.336Zm7.289,0H15.3V-8.7l-2.7.836V-9.7l4.711-1.687h.242ZM32.508-5.828H25.523V-7.672h6.984Zm0,3.383H25.523V-4.289h6.984Z" transform="translate(735 7083)" fill="#12263f"/>
    <path id="Trazado_187538" data-name="Trazado 187538" d="M10.266,0H7.922L3.359-7.484V0H1.016V-11.375H3.359l4.57,7.5v-7.5h2.336Zm9.6,0h-7.8V-1.547l3.68-3.922a9.078,9.078,0,0,0,1.121-1.445,2.322,2.322,0,0,0,.363-1.172,1.738,1.738,0,0,0-.383-1.191,1.382,1.382,0,0,0-1.094-.434,1.49,1.49,0,0,0-1.207.527A2.089,2.089,0,0,0,14.109-7.8H11.844a3.729,3.729,0,0,1,.5-1.9,3.5,3.5,0,0,1,1.4-1.348,4.262,4.262,0,0,1,2.055-.488,4.036,4.036,0,0,1,2.73.844A2.985,2.985,0,0,1,19.5-8.3a3.825,3.825,0,0,1-.437,1.719,9.551,9.551,0,0,1-1.5,2.039L14.977-1.82h4.891ZM32.508-5.828H25.523V-7.672h6.984Zm0,3.383H25.523V-4.289h6.984Z" transform="translate(735 7124)" fill="#12263f"/>
    <path id="Trazado_187539" data-name="Trazado 187539" d="M10.266,0H7.922L3.359-7.484V0H1.016V-11.375H3.359l4.57,7.5v-7.5h2.336Zm4.1-6.687h1.2a1.7,1.7,0,0,0,1.273-.43,1.574,1.574,0,0,0,.414-1.141,1.392,1.392,0,0,0-.41-1.07,1.59,1.59,0,0,0-1.129-.383,1.666,1.666,0,0,0-1.086.355,1.137,1.137,0,0,0-.437.926H11.938a2.777,2.777,0,0,1,.48-1.6,3.2,3.2,0,0,1,1.344-1.105,4.485,4.485,0,0,1,1.9-.4,4.253,4.253,0,0,1,2.828.863,2.945,2.945,0,0,1,1.023,2.379,2.394,2.394,0,0,1-.477,1.438,3.1,3.1,0,0,1-1.25,1.008,2.826,2.826,0,0,1,1.434,1.031A2.8,2.8,0,0,1,19.7-3.187,2.994,2.994,0,0,1,18.59-.758a4.445,4.445,0,0,1-2.926.914,4.214,4.214,0,0,1-2.785-.9A2.934,2.934,0,0,1,11.8-3.117h2.258a1.308,1.308,0,0,0,.48,1.047,1.771,1.771,0,0,0,1.184.406A1.779,1.779,0,0,0,16.98-2.09a1.47,1.47,0,0,0,.457-1.129q0-1.7-1.875-1.7h-1.2Zm18.141.859H25.523V-7.672h6.984Zm0,3.383H25.523V-4.289h6.984Z" transform="translate(735 7168)" fill="#12263f"/>
    <path id="Trazado_187540" data-name="Trazado 187540" d="M10.266,0H7.922L3.359-7.484V0H1.016V-11.375H3.359l4.57,7.5v-7.5h2.336ZM18.75-4.281h1.289v1.82H18.75V0H16.492V-2.461H11.828l-.1-1.422,4.742-7.492H18.75Zm-4.773,0h2.516V-8.3l-.148.258ZM32.508-5.828H25.523V-7.672h6.984Zm0,3.383H25.523V-4.289h6.984Z" transform="translate(735 7209)" fill="#12263f"/>
    <path id="Trazado_187541" data-name="Trazado 187541" d="M10.266,0H7.922L3.359-7.484V0H1.016V-11.375H3.359l4.57,7.5v-7.5h2.336Zm2.141-5.594.656-5.781h6.375v1.883H14.914l-.281,2.445a3.58,3.58,0,0,1,1.711-.43,3.279,3.279,0,0,1,2.547,1.008,4.026,4.026,0,0,1,.922,2.82,4.124,4.124,0,0,1-.465,1.973A3.281,3.281,0,0,1,18.016-.324a4.158,4.158,0,0,1-2.047.48,4.416,4.416,0,0,1-1.914-.418A3.4,3.4,0,0,1,12.66-1.437a3.2,3.2,0,0,1-.543-1.727h2.234a1.669,1.669,0,0,0,.5,1.105,1.573,1.573,0,0,0,1.113.395,1.388,1.388,0,0,0,1.18-.551,2.551,2.551,0,0,0,.414-1.559,2.11,2.11,0,0,0-.477-1.484,1.749,1.749,0,0,0-1.352-.516,1.954,1.954,0,0,0-1.3.422l-.219.2Zm20.1-.234H25.523V-7.672h6.984Zm0,3.383H25.523V-4.289h6.984Z" transform="translate(735 7251)" fill="#12263f"/>
    <path id="Trazado_187542" data-name="Trazado 187542" d="M10.266,0H7.922L3.359-7.484V0H1.016V-11.375H3.359l4.57,7.5v-7.5h2.336ZM18.2-11.492v1.859h-.219a3.836,3.836,0,0,0-2.465.8,3.238,3.238,0,0,0-1.121,2.148,3.075,3.075,0,0,1,2.289-.922,2.9,2.9,0,0,1,2.359,1.063,4.259,4.259,0,0,1,.875,2.8,4.19,4.19,0,0,1-.48,2.008,3.446,3.446,0,0,1-1.359,1.4,3.949,3.949,0,0,1-1.988.5,3.689,3.689,0,0,1-2.9-1.25A4.852,4.852,0,0,1,12.078-4.43v-.812a7.3,7.3,0,0,1,.7-3.27,5.127,5.127,0,0,1,2.008-2.2,5.884,5.884,0,0,1,3.035-.785Zm-2.2,5.7A1.8,1.8,0,0,0,15-5.5a1.715,1.715,0,0,0-.656.753v.686A3.04,3.04,0,0,0,14.789-2.3a1.439,1.439,0,0,0,1.25.635,1.423,1.423,0,0,0,1.176-.573,2.337,2.337,0,0,0,.449-1.485,2.333,2.333,0,0,0-.453-1.5A1.477,1.477,0,0,0,15.992-5.789Zm16.516-.039H25.523V-7.672h6.984Zm0,3.383H25.523V-4.289h6.984Z" transform="translate(735 7292)" fill="#12263f"/>
    <path id="Trazado_187543" data-name="Trazado 187543" d="M10.266,0H7.922L3.359-7.484V0H1.016V-11.375H3.359l4.57,7.5v-7.5h2.336ZM19.8-10.115,15.406,0H13.023L17.43-9.555H11.773v-1.82H19.8Zm12.7,4.287H25.523V-7.672h6.984Zm0,3.383H25.523V-4.289h6.984Z" transform="translate(735 7335)" fill="#12263f"/>
    <path id="Trazado_187547" data-name="Trazado 187547" d="M5.656,0H4.375V-9.68a2.966,2.966,0,0,1-.434.34,7.068,7.068,0,0,1-.641.379q-.355.188-.75.352a5.451,5.451,0,0,1-.77.258v-1.3a7.448,7.448,0,0,0,.895-.316q.473-.2.93-.445t.863-.516a6.854,6.854,0,0,0,.7-.527h.484ZM9.438-.289V-1.664a3.792,3.792,0,0,0,2.3.773q1.688,0,1.688-1.125a.976.976,0,0,0-.145-.543,1.44,1.44,0,0,0-.391-.395,3.007,3.007,0,0,0-.578-.309q-.332-.137-.715-.285a9.207,9.207,0,0,1-.934-.426A2.82,2.82,0,0,1,10-4.457,1.8,1.8,0,0,1,9.59-5.07a2.17,2.17,0,0,1-.137-.8,1.912,1.912,0,0,1,.258-1A2.286,2.286,0,0,1,10.4-7.6a3.206,3.206,0,0,1,.98-.441,4.349,4.349,0,0,1,1.137-.148,4.59,4.59,0,0,1,1.859.359v1.3a3.624,3.624,0,0,0-2.031-.578,2.374,2.374,0,0,0-.648.082,1.587,1.587,0,0,0-.5.23,1.065,1.065,0,0,0-.32.355.936.936,0,0,0-.113.457,1.1,1.1,0,0,0,.113.523,1.152,1.152,0,0,0,.332.375,2.538,2.538,0,0,0,.531.3q.312.133.711.289a9.9,9.9,0,0,1,.953.418,3.269,3.269,0,0,1,.719.484,1.893,1.893,0,0,1,.457.621,2,2,0,0,1,.16.836,1.971,1.971,0,0,1-.262,1.031,2.243,2.243,0,0,1-.7.727,3.2,3.2,0,0,1-1.008.43,4.976,4.976,0,0,1-1.2.141A4.539,4.539,0,0,1,9.438-.289Z" transform="translate(888 7083)" fill="#082143"/>
    <path id="Trazado_187531" data-name="Trazado 187531" d="M6.031-8.266a2.316,2.316,0,0,0-.16-.9A1.78,1.78,0,0,0,5.434-9.8a1.793,1.793,0,0,0-.652-.379,2.555,2.555,0,0,0-.812-.125,2.688,2.688,0,0,0-.734.1,3.57,3.57,0,0,0-.7.281,4.3,4.3,0,0,0-.656.43,4.74,4.74,0,0,0-.59.555v-1.375a3.831,3.831,0,0,1,1.207-.8,4.25,4.25,0,0,1,1.629-.277,3.932,3.932,0,0,1,1.273.2,2.92,2.92,0,0,1,1.016.582,2.691,2.691,0,0,1,.676.945,3.188,3.188,0,0,1,.246,1.289,4.42,4.42,0,0,1-.152,1.2,3.721,3.721,0,0,1-.461,1.016,4.9,4.9,0,0,1-.777.914,11.011,11.011,0,0,1-1.1.891q-.789.563-1.3.961a5.75,5.75,0,0,0-.812.746,2.165,2.165,0,0,0-.422.7,2.43,2.43,0,0,0-.121.8H7.766V0H.852V-.555A4.622,4.622,0,0,1,1.008-1.82a3.286,3.286,0,0,1,.516-1.039,5.767,5.767,0,0,1,.941-.984q.582-.492,1.426-1.109a9.014,9.014,0,0,0,1.02-.836,4.346,4.346,0,0,0,.66-.8,2.862,2.862,0,0,0,.355-.809A3.486,3.486,0,0,0,6.031-8.266ZM9.438-.289V-1.664a3.792,3.792,0,0,0,2.3.773q1.688,0,1.688-1.125a.976.976,0,0,0-.145-.543,1.44,1.44,0,0,0-.391-.395,3.007,3.007,0,0,0-.578-.309q-.332-.137-.715-.285a9.207,9.207,0,0,1-.934-.426A2.82,2.82,0,0,1,10-4.457,1.8,1.8,0,0,1,9.59-5.07a2.17,2.17,0,0,1-.137-.8,1.912,1.912,0,0,1,.258-1A2.286,2.286,0,0,1,10.4-7.6a3.206,3.206,0,0,1,.98-.441,4.349,4.349,0,0,1,1.137-.148,4.59,4.59,0,0,1,1.859.359v1.3a3.624,3.624,0,0,0-2.031-.578,2.374,2.374,0,0,0-.648.082,1.587,1.587,0,0,0-.5.23,1.065,1.065,0,0,0-.32.355.936.936,0,0,0-.113.457,1.1,1.1,0,0,0,.113.523,1.152,1.152,0,0,0,.332.375,2.538,2.538,0,0,0,.531.3q.312.133.711.289a9.9,9.9,0,0,1,.953.418,3.269,3.269,0,0,1,.719.484,1.893,1.893,0,0,1,.457.621,2,2,0,0,1,.16.836,1.971,1.971,0,0,1-.262,1.031,2.243,2.243,0,0,1-.7.727,3.2,3.2,0,0,1-1.008.43,4.976,4.976,0,0,1-1.2.141A4.539,4.539,0,0,1,9.438-.289Z" transform="translate(888 7125)" fill="#082143"/>
    <path id="Trazado_187523" data-name="Trazado 187523" d="M7.445-3.172A3.266,3.266,0,0,1,7.16-1.793a3.045,3.045,0,0,1-.8,1.063,3.714,3.714,0,0,1-1.246.684A5.04,5.04,0,0,1,3.508.2,4.654,4.654,0,0,1,.961-.414V-1.789A4.081,4.081,0,0,0,3.555-.9a3.525,3.525,0,0,0,1.059-.148,2.374,2.374,0,0,0,.813-.43,1.909,1.909,0,0,0,.523-.68,2.123,2.123,0,0,0,.184-.9q0-2.2-3.125-2.2h-.93V-6.336h.883q2.766,0,2.766-2.062,0-1.906-2.109-1.906a3.592,3.592,0,0,0-2.227.8V-10.75a4.868,4.868,0,0,1,2.547-.641,3.913,3.913,0,0,1,1.273.2,2.918,2.918,0,0,1,.977.547,2.423,2.423,0,0,1,.629.844,2.6,2.6,0,0,1,.223,1.086A2.735,2.735,0,0,1,4.8-5.875v.031a3.534,3.534,0,0,1,1.055.277,2.814,2.814,0,0,1,.836.559,2.49,2.49,0,0,1,.551.809A2.582,2.582,0,0,1,7.445-3.172ZM9.438-.289V-1.664a3.792,3.792,0,0,0,2.3.773q1.688,0,1.688-1.125a.976.976,0,0,0-.145-.543,1.44,1.44,0,0,0-.391-.395,3.007,3.007,0,0,0-.578-.309q-.332-.137-.715-.285a9.207,9.207,0,0,1-.934-.426A2.82,2.82,0,0,1,10-4.457,1.8,1.8,0,0,1,9.59-5.07a2.17,2.17,0,0,1-.137-.8,1.912,1.912,0,0,1,.258-1A2.286,2.286,0,0,1,10.4-7.6a3.206,3.206,0,0,1,.98-.441,4.349,4.349,0,0,1,1.137-.148,4.59,4.59,0,0,1,1.859.359v1.3a3.624,3.624,0,0,0-2.031-.578,2.374,2.374,0,0,0-.648.082,1.587,1.587,0,0,0-.5.23,1.065,1.065,0,0,0-.32.355.936.936,0,0,0-.113.457,1.1,1.1,0,0,0,.113.523,1.152,1.152,0,0,0,.332.375,2.538,2.538,0,0,0,.531.3q.312.133.711.289a9.9,9.9,0,0,1,.953.418,3.269,3.269,0,0,1,.719.484,1.893,1.893,0,0,1,.457.621,2,2,0,0,1,.16.836,1.971,1.971,0,0,1-.262,1.031,2.243,2.243,0,0,1-.7.727,3.2,3.2,0,0,1-1.008.43,4.976,4.976,0,0,1-1.2.141A4.539,4.539,0,0,1,9.438-.289Z" transform="translate(888 7168)" fill="#082143"/>
    <path id="Trazado_187524" data-name="Trazado 187524" d="M6.641-11.2v7.4H8.078v1.172H6.641V0H5.375V-2.633H.109V-3.742q.734-.828,1.484-1.77t1.434-1.91q.684-.969,1.266-1.934a17.671,17.671,0,0,0,.98-1.848ZM1.555-3.8h3.82V-9.289Q4.789-8.266,4.266-7.461T3.27-6q-.473.656-.9,1.188T1.555-3.8ZM9.438-.289V-1.664a3.792,3.792,0,0,0,2.3.773q1.688,0,1.688-1.125a.976.976,0,0,0-.145-.543,1.44,1.44,0,0,0-.391-.395,3.007,3.007,0,0,0-.578-.309q-.332-.137-.715-.285a9.207,9.207,0,0,1-.934-.426A2.82,2.82,0,0,1,10-4.457,1.8,1.8,0,0,1,9.59-5.07a2.17,2.17,0,0,1-.137-.8,1.912,1.912,0,0,1,.258-1A2.286,2.286,0,0,1,10.4-7.6a3.206,3.206,0,0,1,.98-.441,4.349,4.349,0,0,1,1.137-.148,4.59,4.59,0,0,1,1.859.359v1.3a3.624,3.624,0,0,0-2.031-.578,2.374,2.374,0,0,0-.648.082,1.587,1.587,0,0,0-.5.23,1.065,1.065,0,0,0-.32.355.936.936,0,0,0-.113.457,1.1,1.1,0,0,0,.113.523,1.152,1.152,0,0,0,.332.375,2.538,2.538,0,0,0,.531.3q.312.133.711.289a9.9,9.9,0,0,1,.953.418,3.269,3.269,0,0,1,.719.484,1.893,1.893,0,0,1,.457.621,2,2,0,0,1,.16.836,1.971,1.971,0,0,1-.262,1.031,2.243,2.243,0,0,1-.7.727,3.2,3.2,0,0,1-1.008.43,4.976,4.976,0,0,1-1.2.141A4.539,4.539,0,0,1,9.438-.289Z" transform="translate(888 7210)" fill="#082143"/>
    <path id="Trazado_187525" data-name="Trazado 187525" d="M7.57-3.422a3.771,3.771,0,0,1-.281,1.484A3.245,3.245,0,0,1,6.488-.8a3.586,3.586,0,0,1-1.254.734A4.9,4.9,0,0,1,3.6.2a4.511,4.511,0,0,1-2.32-.469V-1.633A4.266,4.266,0,0,0,3.617-.9a3.161,3.161,0,0,0,1.1-.18,2.439,2.439,0,0,0,.832-.5,2.141,2.141,0,0,0,.527-.773,2.618,2.618,0,0,0,.184-.992,2.125,2.125,0,0,0-.734-1.715A3.221,3.221,0,0,0,3.391-5.68q-.227,0-.477.008t-.5.02q-.25.012-.488.027t-.434.039L1.875-11.2h5.18v1.156H2.984L2.758-6.758q.25-.016.531-.027t.5-.012a5.028,5.028,0,0,1,1.594.234,3.377,3.377,0,0,1,1.191.668,2.8,2.8,0,0,1,.742,1.063A3.737,3.737,0,0,1,7.57-3.422ZM9.438-.289V-1.664a3.792,3.792,0,0,0,2.3.773q1.688,0,1.688-1.125a.976.976,0,0,0-.145-.543,1.44,1.44,0,0,0-.391-.395,3.007,3.007,0,0,0-.578-.309q-.332-.137-.715-.285a9.207,9.207,0,0,1-.934-.426A2.82,2.82,0,0,1,10-4.457,1.8,1.8,0,0,1,9.59-5.07a2.17,2.17,0,0,1-.137-.8,1.912,1.912,0,0,1,.258-1A2.286,2.286,0,0,1,10.4-7.6a3.206,3.206,0,0,1,.98-.441,4.349,4.349,0,0,1,1.137-.148,4.59,4.59,0,0,1,1.859.359v1.3a3.624,3.624,0,0,0-2.031-.578,2.374,2.374,0,0,0-.648.082,1.587,1.587,0,0,0-.5.23,1.065,1.065,0,0,0-.32.355.936.936,0,0,0-.113.457,1.1,1.1,0,0,0,.113.523,1.152,1.152,0,0,0,.332.375,2.538,2.538,0,0,0,.531.3q.312.133.711.289a9.9,9.9,0,0,1,.953.418,3.269,3.269,0,0,1,.719.484,1.893,1.893,0,0,1,.457.621,2,2,0,0,1,.16.836,1.971,1.971,0,0,1-.262,1.031,2.243,2.243,0,0,1-.7.727,3.2,3.2,0,0,1-1.008.43,4.976,4.976,0,0,1-1.2.141A4.539,4.539,0,0,1,9.438-.289Z" transform="translate(888 7251)" fill="#082143"/>
    <path id="Trazado_187526" data-name="Trazado 187526" d="M7.984-3.555a4.15,4.15,0,0,1-.266,1.508A3.624,3.624,0,0,1,6.984-.859a3.281,3.281,0,0,1-1.117.777A3.538,3.538,0,0,1,4.461.2,3.2,3.2,0,0,1,2.949-.156,3.2,3.2,0,0,1,1.816-1.168a4.853,4.853,0,0,1-.707-1.613A8.74,8.74,0,0,1,.867-4.93a10.1,10.1,0,0,1,.324-2.652,6.444,6.444,0,0,1,.922-2.039A4.25,4.25,0,0,1,3.555-10.93a3.862,3.862,0,0,1,1.883-.461,4.535,4.535,0,0,1,1.859.32v1.211A3.949,3.949,0,0,0,5.469-10.3a2.724,2.724,0,0,0-1.352.336,3.1,3.1,0,0,0-1.031.949,4.63,4.63,0,0,0-.66,1.48,7.511,7.511,0,0,0-.23,1.93h.031a2.69,2.69,0,0,1,2.555-1.4,3.363,3.363,0,0,1,1.324.25,2.859,2.859,0,0,1,1.008.707,3.183,3.183,0,0,1,.645,1.09A4.148,4.148,0,0,1,7.984-3.555Zm-1.312.164a3.486,3.486,0,0,0-.148-1.055,2.288,2.288,0,0,0-.426-.8,1.836,1.836,0,0,0-.684-.5,2.3,2.3,0,0,0-.922-.176,2.158,2.158,0,0,0-.883.18,2.2,2.2,0,0,0-.7.488,2.262,2.262,0,0,0-.465.719,2.276,2.276,0,0,0-.168.871,3.475,3.475,0,0,0,.164,1.082A2.8,2.8,0,0,0,2.9-1.7a2.192,2.192,0,0,0,.707.59,1.931,1.931,0,0,0,.91.215A2.084,2.084,0,0,0,5.4-1.082a1.97,1.97,0,0,0,.68-.512,2.369,2.369,0,0,0,.438-.785A3.112,3.112,0,0,0,6.672-3.391Zm2.766,3.1V-1.664a3.792,3.792,0,0,0,2.3.773q1.688,0,1.688-1.125a.976.976,0,0,0-.145-.543,1.44,1.44,0,0,0-.391-.395,3.007,3.007,0,0,0-.578-.309q-.332-.137-.715-.285a9.207,9.207,0,0,1-.934-.426A2.82,2.82,0,0,1,10-4.457,1.8,1.8,0,0,1,9.59-5.07a2.17,2.17,0,0,1-.137-.8,1.912,1.912,0,0,1,.258-1A2.286,2.286,0,0,1,10.4-7.6a3.206,3.206,0,0,1,.98-.441,4.349,4.349,0,0,1,1.137-.148,4.59,4.59,0,0,1,1.859.359v1.3a3.624,3.624,0,0,0-2.031-.578,2.374,2.374,0,0,0-.648.082,1.587,1.587,0,0,0-.5.23,1.065,1.065,0,0,0-.32.355.936.936,0,0,0-.113.457,1.1,1.1,0,0,0,.113.523,1.152,1.152,0,0,0,.332.375,2.538,2.538,0,0,0,.531.3q.312.133.711.289a9.9,9.9,0,0,1,.953.418,3.269,3.269,0,0,1,.719.484,1.893,1.893,0,0,1,.457.621,2,2,0,0,1,.16.836,1.971,1.971,0,0,1-.262,1.031,2.243,2.243,0,0,1-.7.727,3.2,3.2,0,0,1-1.008.43,4.976,4.976,0,0,1-1.2.141A4.539,4.539,0,0,1,9.438-.289Z" transform="translate(888 7294)" fill="#082143"/>
    <path id="Trazado_187529" data-name="Trazado 187529" d="M7.891-10.461q-.258.445-.621,1.109T6.5-7.859q-.406.828-.828,1.781T4.883-4.109q-.367,1.016-.645,2.059A15.315,15.315,0,0,0,3.836,0H2.461a15.579,15.579,0,0,1,.434-2.043q.293-1.043.664-2.047t.785-1.934q.414-.93.8-1.711t.715-1.379q.324-.6.52-.934H.766V-11.2H7.891ZM9.438-.289V-1.664a3.792,3.792,0,0,0,2.3.773q1.688,0,1.688-1.125a.976.976,0,0,0-.145-.543,1.44,1.44,0,0,0-.391-.395,3.007,3.007,0,0,0-.578-.309q-.332-.137-.715-.285a9.207,9.207,0,0,1-.934-.426A2.82,2.82,0,0,1,10-4.457,1.8,1.8,0,0,1,9.59-5.07a2.17,2.17,0,0,1-.137-.8,1.912,1.912,0,0,1,.258-1A2.286,2.286,0,0,1,10.4-7.6a3.206,3.206,0,0,1,.98-.441,4.349,4.349,0,0,1,1.137-.148,4.59,4.59,0,0,1,1.859.359v1.3a3.624,3.624,0,0,0-2.031-.578,2.374,2.374,0,0,0-.648.082,1.587,1.587,0,0,0-.5.23,1.065,1.065,0,0,0-.32.355.936.936,0,0,0-.113.457,1.1,1.1,0,0,0,.113.523,1.152,1.152,0,0,0,.332.375,2.538,2.538,0,0,0,.531.3q.312.133.711.289a9.9,9.9,0,0,1,.953.418,3.269,3.269,0,0,1,.719.484,1.893,1.893,0,0,1,.457.621,2,2,0,0,1,.16.836,1.971,1.971,0,0,1-.262,1.031,2.243,2.243,0,0,1-.7.727,3.2,3.2,0,0,1-1.008.43,4.976,4.976,0,0,1-1.2.141A4.539,4.539,0,0,1,9.438-.289Z" transform="translate(885 7335)" fill="#082143"/>
    <path id="Trazado_187532" data-name="Trazado 187532" d="M6.031-8.266a2.316,2.316,0,0,0-.16-.9A1.78,1.78,0,0,0,5.434-9.8a1.793,1.793,0,0,0-.652-.379,2.555,2.555,0,0,0-.812-.125,2.688,2.688,0,0,0-.734.1,3.57,3.57,0,0,0-.7.281,4.3,4.3,0,0,0-.656.43,4.74,4.74,0,0,0-.59.555v-1.375a3.831,3.831,0,0,1,1.207-.8,4.25,4.25,0,0,1,1.629-.277,3.932,3.932,0,0,1,1.273.2,2.92,2.92,0,0,1,1.016.582,2.691,2.691,0,0,1,.676.945,3.188,3.188,0,0,1,.246,1.289,4.42,4.42,0,0,1-.152,1.2,3.721,3.721,0,0,1-.461,1.016,4.9,4.9,0,0,1-.777.914,11.011,11.011,0,0,1-1.1.891q-.789.563-1.3.961a5.75,5.75,0,0,0-.812.746,2.165,2.165,0,0,0-.422.7,2.43,2.43,0,0,0-.121.8H7.766V0H.852V-.555A4.622,4.622,0,0,1,1.008-1.82a3.286,3.286,0,0,1,.516-1.039,5.767,5.767,0,0,1,.941-.984q.582-.492,1.426-1.109a9.014,9.014,0,0,0,1.02-.836,4.346,4.346,0,0,0,.66-.8,2.862,2.862,0,0,0,.355-.809A3.486,3.486,0,0,0,6.031-8.266ZM9.438-.289V-1.664a3.792,3.792,0,0,0,2.3.773q1.688,0,1.688-1.125a.976.976,0,0,0-.145-.543,1.44,1.44,0,0,0-.391-.395,3.007,3.007,0,0,0-.578-.309q-.332-.137-.715-.285a9.207,9.207,0,0,1-.934-.426A2.82,2.82,0,0,1,10-4.457,1.8,1.8,0,0,1,9.59-5.07a2.17,2.17,0,0,1-.137-.8,1.912,1.912,0,0,1,.258-1A2.286,2.286,0,0,1,10.4-7.6a3.206,3.206,0,0,1,.98-.441,4.349,4.349,0,0,1,1.137-.148,4.59,4.59,0,0,1,1.859.359v1.3a3.624,3.624,0,0,0-2.031-.578,2.374,2.374,0,0,0-.648.082,1.587,1.587,0,0,0-.5.23,1.065,1.065,0,0,0-.32.355.936.936,0,0,0-.113.457,1.1,1.1,0,0,0,.113.523,1.152,1.152,0,0,0,.332.375,2.538,2.538,0,0,0,.531.3q.312.133.711.289a9.9,9.9,0,0,1,.953.418,3.269,3.269,0,0,1,.719.484,1.893,1.893,0,0,1,.457.621,2,2,0,0,1,.16.836,1.971,1.971,0,0,1-.262,1.031,2.243,2.243,0,0,1-.7.727,3.2,3.2,0,0,1-1.008.43,4.976,4.976,0,0,1-1.2.141A4.539,4.539,0,0,1,9.438-.289Z" transform="translate(951 7125)" fill="#082143"/>
    <path id="Trazado_187527" data-name="Trazado 187527" d="M7.445-3.172A3.266,3.266,0,0,1,7.16-1.793a3.045,3.045,0,0,1-.8,1.063,3.714,3.714,0,0,1-1.246.684A5.04,5.04,0,0,1,3.508.2,4.654,4.654,0,0,1,.961-.414V-1.789A4.081,4.081,0,0,0,3.555-.9a3.525,3.525,0,0,0,1.059-.148,2.374,2.374,0,0,0,.813-.43,1.909,1.909,0,0,0,.523-.68,2.123,2.123,0,0,0,.184-.9q0-2.2-3.125-2.2h-.93V-6.336h.883q2.766,0,2.766-2.062,0-1.906-2.109-1.906a3.592,3.592,0,0,0-2.227.8V-10.75a4.868,4.868,0,0,1,2.547-.641,3.913,3.913,0,0,1,1.273.2,2.918,2.918,0,0,1,.977.547,2.423,2.423,0,0,1,.629.844,2.6,2.6,0,0,1,.223,1.086A2.735,2.735,0,0,1,4.8-5.875v.031a3.534,3.534,0,0,1,1.055.277,2.814,2.814,0,0,1,.836.559,2.49,2.49,0,0,1,.551.809A2.582,2.582,0,0,1,7.445-3.172ZM9.438-.289V-1.664a3.792,3.792,0,0,0,2.3.773q1.688,0,1.688-1.125a.976.976,0,0,0-.145-.543,1.44,1.44,0,0,0-.391-.395,3.007,3.007,0,0,0-.578-.309q-.332-.137-.715-.285a9.207,9.207,0,0,1-.934-.426A2.82,2.82,0,0,1,10-4.457,1.8,1.8,0,0,1,9.59-5.07a2.17,2.17,0,0,1-.137-.8,1.912,1.912,0,0,1,.258-1A2.286,2.286,0,0,1,10.4-7.6a3.206,3.206,0,0,1,.98-.441,4.349,4.349,0,0,1,1.137-.148,4.59,4.59,0,0,1,1.859.359v1.3a3.624,3.624,0,0,0-2.031-.578,2.374,2.374,0,0,0-.648.082,1.587,1.587,0,0,0-.5.23,1.065,1.065,0,0,0-.32.355.936.936,0,0,0-.113.457,1.1,1.1,0,0,0,.113.523,1.152,1.152,0,0,0,.332.375,2.538,2.538,0,0,0,.531.3q.312.133.711.289a9.9,9.9,0,0,1,.953.418,3.269,3.269,0,0,1,.719.484,1.893,1.893,0,0,1,.457.621,2,2,0,0,1,.16.836,1.971,1.971,0,0,1-.262,1.031,2.243,2.243,0,0,1-.7.727,3.2,3.2,0,0,1-1.008.43,4.976,4.976,0,0,1-1.2.141A4.539,4.539,0,0,1,9.438-.289Z" transform="translate(951 7168)" fill="#082143"/>
    <path id="Trazado_187519" data-name="Trazado 187519" d="M6.641-11.2v7.4H8.078v1.172H6.641V0H5.375V-2.633H.109V-3.742q.734-.828,1.484-1.77t1.434-1.91q.684-.969,1.266-1.934a17.671,17.671,0,0,0,.98-1.848ZM1.555-3.8h3.82V-9.289Q4.789-8.266,4.266-7.461T3.27-6q-.473.656-.9,1.188T1.555-3.8ZM9.438-.289V-1.664a3.792,3.792,0,0,0,2.3.773q1.688,0,1.688-1.125a.976.976,0,0,0-.145-.543,1.44,1.44,0,0,0-.391-.395,3.007,3.007,0,0,0-.578-.309q-.332-.137-.715-.285a9.207,9.207,0,0,1-.934-.426A2.82,2.82,0,0,1,10-4.457,1.8,1.8,0,0,1,9.59-5.07a2.17,2.17,0,0,1-.137-.8,1.912,1.912,0,0,1,.258-1A2.286,2.286,0,0,1,10.4-7.6a3.206,3.206,0,0,1,.98-.441,4.349,4.349,0,0,1,1.137-.148,4.59,4.59,0,0,1,1.859.359v1.3a3.624,3.624,0,0,0-2.031-.578,2.374,2.374,0,0,0-.648.082,1.587,1.587,0,0,0-.5.23,1.065,1.065,0,0,0-.32.355.936.936,0,0,0-.113.457,1.1,1.1,0,0,0,.113.523,1.152,1.152,0,0,0,.332.375,2.538,2.538,0,0,0,.531.3q.312.133.711.289a9.9,9.9,0,0,1,.953.418,3.269,3.269,0,0,1,.719.484,1.893,1.893,0,0,1,.457.621,2,2,0,0,1,.16.836,1.971,1.971,0,0,1-.262,1.031,2.243,2.243,0,0,1-.7.727,3.2,3.2,0,0,1-1.008.43,4.976,4.976,0,0,1-1.2.141A4.539,4.539,0,0,1,9.438-.289Z" transform="translate(951 7210)" fill="#082143"/>
    <path id="Trazado_187517" data-name="Trazado 187517" d="M7.57-3.422a3.771,3.771,0,0,1-.281,1.484A3.245,3.245,0,0,1,6.488-.8a3.586,3.586,0,0,1-1.254.734A4.9,4.9,0,0,1,3.6.2a4.511,4.511,0,0,1-2.32-.469V-1.633A4.266,4.266,0,0,0,3.617-.9a3.161,3.161,0,0,0,1.1-.18,2.439,2.439,0,0,0,.832-.5,2.141,2.141,0,0,0,.527-.773,2.618,2.618,0,0,0,.184-.992,2.125,2.125,0,0,0-.734-1.715A3.221,3.221,0,0,0,3.391-5.68q-.227,0-.477.008t-.5.02q-.25.012-.488.027t-.434.039L1.875-11.2h5.18v1.156H2.984L2.758-6.758q.25-.016.531-.027t.5-.012a5.028,5.028,0,0,1,1.594.234,3.377,3.377,0,0,1,1.191.668,2.8,2.8,0,0,1,.742,1.063A3.737,3.737,0,0,1,7.57-3.422ZM9.438-.289V-1.664a3.792,3.792,0,0,0,2.3.773q1.688,0,1.688-1.125a.976.976,0,0,0-.145-.543,1.44,1.44,0,0,0-.391-.395,3.007,3.007,0,0,0-.578-.309q-.332-.137-.715-.285a9.207,9.207,0,0,1-.934-.426A2.82,2.82,0,0,1,10-4.457,1.8,1.8,0,0,1,9.59-5.07a2.17,2.17,0,0,1-.137-.8,1.912,1.912,0,0,1,.258-1A2.286,2.286,0,0,1,10.4-7.6a3.206,3.206,0,0,1,.98-.441,4.349,4.349,0,0,1,1.137-.148,4.59,4.59,0,0,1,1.859.359v1.3a3.624,3.624,0,0,0-2.031-.578,2.374,2.374,0,0,0-.648.082,1.587,1.587,0,0,0-.5.23,1.065,1.065,0,0,0-.32.355.936.936,0,0,0-.113.457,1.1,1.1,0,0,0,.113.523,1.152,1.152,0,0,0,.332.375,2.538,2.538,0,0,0,.531.3q.312.133.711.289a9.9,9.9,0,0,1,.953.418,3.269,3.269,0,0,1,.719.484,1.893,1.893,0,0,1,.457.621,2,2,0,0,1,.16.836,1.971,1.971,0,0,1-.262,1.031,2.243,2.243,0,0,1-.7.727,3.2,3.2,0,0,1-1.008.43,4.976,4.976,0,0,1-1.2.141A4.539,4.539,0,0,1,9.438-.289Z" transform="translate(951 7251)" fill="#082143"/>
    <path id="Trazado_187515" data-name="Trazado 187515" d="M7.984-3.555a4.15,4.15,0,0,1-.266,1.508A3.624,3.624,0,0,1,6.984-.859a3.281,3.281,0,0,1-1.117.777A3.538,3.538,0,0,1,4.461.2,3.2,3.2,0,0,1,2.949-.156,3.2,3.2,0,0,1,1.816-1.168a4.853,4.853,0,0,1-.707-1.613A8.74,8.74,0,0,1,.867-4.93a10.1,10.1,0,0,1,.324-2.652,6.444,6.444,0,0,1,.922-2.039A4.25,4.25,0,0,1,3.555-10.93a3.862,3.862,0,0,1,1.883-.461,4.535,4.535,0,0,1,1.859.32v1.211A3.949,3.949,0,0,0,5.469-10.3a2.724,2.724,0,0,0-1.352.336,3.1,3.1,0,0,0-1.031.949,4.63,4.63,0,0,0-.66,1.48,7.511,7.511,0,0,0-.23,1.93h.031a2.69,2.69,0,0,1,2.555-1.4,3.363,3.363,0,0,1,1.324.25,2.859,2.859,0,0,1,1.008.707,3.183,3.183,0,0,1,.645,1.09A4.148,4.148,0,0,1,7.984-3.555Zm-1.312.164a3.486,3.486,0,0,0-.148-1.055,2.288,2.288,0,0,0-.426-.8,1.836,1.836,0,0,0-.684-.5,2.3,2.3,0,0,0-.922-.176,2.158,2.158,0,0,0-.883.18,2.2,2.2,0,0,0-.7.488,2.262,2.262,0,0,0-.465.719,2.276,2.276,0,0,0-.168.871,3.475,3.475,0,0,0,.164,1.082A2.8,2.8,0,0,0,2.9-1.7a2.192,2.192,0,0,0,.707.59,1.931,1.931,0,0,0,.91.215A2.084,2.084,0,0,0,5.4-1.082a1.97,1.97,0,0,0,.68-.512,2.369,2.369,0,0,0,.438-.785A3.112,3.112,0,0,0,6.672-3.391Zm2.766,3.1V-1.664a3.792,3.792,0,0,0,2.3.773q1.688,0,1.688-1.125a.976.976,0,0,0-.145-.543,1.44,1.44,0,0,0-.391-.395,3.007,3.007,0,0,0-.578-.309q-.332-.137-.715-.285a9.207,9.207,0,0,1-.934-.426A2.82,2.82,0,0,1,10-4.457,1.8,1.8,0,0,1,9.59-5.07a2.17,2.17,0,0,1-.137-.8,1.912,1.912,0,0,1,.258-1A2.286,2.286,0,0,1,10.4-7.6a3.206,3.206,0,0,1,.98-.441,4.349,4.349,0,0,1,1.137-.148,4.59,4.59,0,0,1,1.859.359v1.3a3.624,3.624,0,0,0-2.031-.578,2.374,2.374,0,0,0-.648.082,1.587,1.587,0,0,0-.5.23,1.065,1.065,0,0,0-.32.355.936.936,0,0,0-.113.457,1.1,1.1,0,0,0,.113.523,1.152,1.152,0,0,0,.332.375,2.538,2.538,0,0,0,.531.3q.312.133.711.289a9.9,9.9,0,0,1,.953.418,3.269,3.269,0,0,1,.719.484,1.893,1.893,0,0,1,.457.621,2,2,0,0,1,.16.836,1.971,1.971,0,0,1-.262,1.031,2.243,2.243,0,0,1-.7.727,3.2,3.2,0,0,1-1.008.43,4.976,4.976,0,0,1-1.2.141A4.539,4.539,0,0,1,9.438-.289Z" transform="translate(951 7294)" fill="#082143"/>
    <path id="Trazado_187513" data-name="Trazado 187513" d="M7.891-10.461q-.258.445-.621,1.109T6.5-7.859q-.406.828-.828,1.781T4.883-4.109q-.367,1.016-.645,2.059A15.315,15.315,0,0,0,3.836,0H2.461a15.579,15.579,0,0,1,.434-2.043q.293-1.043.664-2.047t.785-1.934q.414-.93.8-1.711t.715-1.379q.324-.6.52-.934H.766V-11.2H7.891ZM9.438-.289V-1.664a3.792,3.792,0,0,0,2.3.773q1.688,0,1.688-1.125a.976.976,0,0,0-.145-.543,1.44,1.44,0,0,0-.391-.395,3.007,3.007,0,0,0-.578-.309q-.332-.137-.715-.285a9.207,9.207,0,0,1-.934-.426A2.82,2.82,0,0,1,10-4.457,1.8,1.8,0,0,1,9.59-5.07a2.17,2.17,0,0,1-.137-.8,1.912,1.912,0,0,1,.258-1A2.286,2.286,0,0,1,10.4-7.6a3.206,3.206,0,0,1,.98-.441,4.349,4.349,0,0,1,1.137-.148,4.59,4.59,0,0,1,1.859.359v1.3a3.624,3.624,0,0,0-2.031-.578,2.374,2.374,0,0,0-.648.082,1.587,1.587,0,0,0-.5.23,1.065,1.065,0,0,0-.32.355.936.936,0,0,0-.113.457,1.1,1.1,0,0,0,.113.523,1.152,1.152,0,0,0,.332.375,2.538,2.538,0,0,0,.531.3q.312.133.711.289a9.9,9.9,0,0,1,.953.418,3.269,3.269,0,0,1,.719.484,1.893,1.893,0,0,1,.457.621,2,2,0,0,1,.16.836,1.971,1.971,0,0,1-.262,1.031,2.243,2.243,0,0,1-.7.727,3.2,3.2,0,0,1-1.008.43,4.976,4.976,0,0,1-1.2.141A4.539,4.539,0,0,1,9.438-.289Z" transform="translate(948 7335)" fill="#082143"/>
    <path id="Trazado_187528" data-name="Trazado 187528" d="M7.445-3.172A3.266,3.266,0,0,1,7.16-1.793a3.045,3.045,0,0,1-.8,1.063,3.714,3.714,0,0,1-1.246.684A5.04,5.04,0,0,1,3.508.2,4.654,4.654,0,0,1,.961-.414V-1.789A4.081,4.081,0,0,0,3.555-.9a3.525,3.525,0,0,0,1.059-.148,2.374,2.374,0,0,0,.813-.43,1.909,1.909,0,0,0,.523-.68,2.123,2.123,0,0,0,.184-.9q0-2.2-3.125-2.2h-.93V-6.336h.883q2.766,0,2.766-2.062,0-1.906-2.109-1.906a3.592,3.592,0,0,0-2.227.8V-10.75a4.868,4.868,0,0,1,2.547-.641,3.913,3.913,0,0,1,1.273.2,2.918,2.918,0,0,1,.977.547,2.423,2.423,0,0,1,.629.844,2.6,2.6,0,0,1,.223,1.086A2.735,2.735,0,0,1,4.8-5.875v.031a3.534,3.534,0,0,1,1.055.277,2.814,2.814,0,0,1,.836.559,2.49,2.49,0,0,1,.551.809A2.582,2.582,0,0,1,7.445-3.172ZM9.438-.289V-1.664a3.792,3.792,0,0,0,2.3.773q1.688,0,1.688-1.125a.976.976,0,0,0-.145-.543,1.44,1.44,0,0,0-.391-.395,3.007,3.007,0,0,0-.578-.309q-.332-.137-.715-.285a9.207,9.207,0,0,1-.934-.426A2.82,2.82,0,0,1,10-4.457,1.8,1.8,0,0,1,9.59-5.07a2.17,2.17,0,0,1-.137-.8,1.912,1.912,0,0,1,.258-1A2.286,2.286,0,0,1,10.4-7.6a3.206,3.206,0,0,1,.98-.441,4.349,4.349,0,0,1,1.137-.148,4.59,4.59,0,0,1,1.859.359v1.3a3.624,3.624,0,0,0-2.031-.578,2.374,2.374,0,0,0-.648.082,1.587,1.587,0,0,0-.5.23,1.065,1.065,0,0,0-.32.355.936.936,0,0,0-.113.457,1.1,1.1,0,0,0,.113.523,1.152,1.152,0,0,0,.332.375,2.538,2.538,0,0,0,.531.3q.312.133.711.289a9.9,9.9,0,0,1,.953.418,3.269,3.269,0,0,1,.719.484,1.893,1.893,0,0,1,.457.621,2,2,0,0,1,.16.836,1.971,1.971,0,0,1-.262,1.031,2.243,2.243,0,0,1-.7.727,3.2,3.2,0,0,1-1.008.43,4.976,4.976,0,0,1-1.2.141A4.539,4.539,0,0,1,9.438-.289Z" transform="translate(1007 7168)" fill="#082143"/>
    <path id="Trazado_187520" data-name="Trazado 187520" d="M6.641-11.2v7.4H8.078v1.172H6.641V0H5.375V-2.633H.109V-3.742q.734-.828,1.484-1.77t1.434-1.91q.684-.969,1.266-1.934a17.671,17.671,0,0,0,.98-1.848ZM1.555-3.8h3.82V-9.289Q4.789-8.266,4.266-7.461T3.27-6q-.473.656-.9,1.188T1.555-3.8ZM9.438-.289V-1.664a3.792,3.792,0,0,0,2.3.773q1.688,0,1.688-1.125a.976.976,0,0,0-.145-.543,1.44,1.44,0,0,0-.391-.395,3.007,3.007,0,0,0-.578-.309q-.332-.137-.715-.285a9.207,9.207,0,0,1-.934-.426A2.82,2.82,0,0,1,10-4.457,1.8,1.8,0,0,1,9.59-5.07a2.17,2.17,0,0,1-.137-.8,1.912,1.912,0,0,1,.258-1A2.286,2.286,0,0,1,10.4-7.6a3.206,3.206,0,0,1,.98-.441,4.349,4.349,0,0,1,1.137-.148,4.59,4.59,0,0,1,1.859.359v1.3a3.624,3.624,0,0,0-2.031-.578,2.374,2.374,0,0,0-.648.082,1.587,1.587,0,0,0-.5.23,1.065,1.065,0,0,0-.32.355.936.936,0,0,0-.113.457,1.1,1.1,0,0,0,.113.523,1.152,1.152,0,0,0,.332.375,2.538,2.538,0,0,0,.531.3q.312.133.711.289a9.9,9.9,0,0,1,.953.418,3.269,3.269,0,0,1,.719.484,1.893,1.893,0,0,1,.457.621,2,2,0,0,1,.16.836,1.971,1.971,0,0,1-.262,1.031,2.243,2.243,0,0,1-.7.727,3.2,3.2,0,0,1-1.008.43,4.976,4.976,0,0,1-1.2.141A4.539,4.539,0,0,1,9.438-.289Z" transform="translate(1007 7210)" fill="#082143"/>
    <path id="Trazado_187518" data-name="Trazado 187518" d="M7.57-3.422a3.771,3.771,0,0,1-.281,1.484A3.245,3.245,0,0,1,6.488-.8a3.586,3.586,0,0,1-1.254.734A4.9,4.9,0,0,1,3.6.2a4.511,4.511,0,0,1-2.32-.469V-1.633A4.266,4.266,0,0,0,3.617-.9a3.161,3.161,0,0,0,1.1-.18,2.439,2.439,0,0,0,.832-.5,2.141,2.141,0,0,0,.527-.773,2.618,2.618,0,0,0,.184-.992,2.125,2.125,0,0,0-.734-1.715A3.221,3.221,0,0,0,3.391-5.68q-.227,0-.477.008t-.5.02q-.25.012-.488.027t-.434.039L1.875-11.2h5.18v1.156H2.984L2.758-6.758q.25-.016.531-.027t.5-.012a5.028,5.028,0,0,1,1.594.234,3.377,3.377,0,0,1,1.191.668,2.8,2.8,0,0,1,.742,1.063A3.737,3.737,0,0,1,7.57-3.422ZM9.438-.289V-1.664a3.792,3.792,0,0,0,2.3.773q1.688,0,1.688-1.125a.976.976,0,0,0-.145-.543,1.44,1.44,0,0,0-.391-.395,3.007,3.007,0,0,0-.578-.309q-.332-.137-.715-.285a9.207,9.207,0,0,1-.934-.426A2.82,2.82,0,0,1,10-4.457,1.8,1.8,0,0,1,9.59-5.07a2.17,2.17,0,0,1-.137-.8,1.912,1.912,0,0,1,.258-1A2.286,2.286,0,0,1,10.4-7.6a3.206,3.206,0,0,1,.98-.441,4.349,4.349,0,0,1,1.137-.148,4.59,4.59,0,0,1,1.859.359v1.3a3.624,3.624,0,0,0-2.031-.578,2.374,2.374,0,0,0-.648.082,1.587,1.587,0,0,0-.5.23,1.065,1.065,0,0,0-.32.355.936.936,0,0,0-.113.457,1.1,1.1,0,0,0,.113.523,1.152,1.152,0,0,0,.332.375,2.538,2.538,0,0,0,.531.3q.312.133.711.289a9.9,9.9,0,0,1,.953.418,3.269,3.269,0,0,1,.719.484,1.893,1.893,0,0,1,.457.621,2,2,0,0,1,.16.836,1.971,1.971,0,0,1-.262,1.031,2.243,2.243,0,0,1-.7.727,3.2,3.2,0,0,1-1.008.43,4.976,4.976,0,0,1-1.2.141A4.539,4.539,0,0,1,9.438-.289Z" transform="translate(1007 7251)" fill="#082143"/>
    <path id="Trazado_187516" data-name="Trazado 187516" d="M7.984-3.555a4.15,4.15,0,0,1-.266,1.508A3.624,3.624,0,0,1,6.984-.859a3.281,3.281,0,0,1-1.117.777A3.538,3.538,0,0,1,4.461.2,3.2,3.2,0,0,1,2.949-.156,3.2,3.2,0,0,1,1.816-1.168a4.853,4.853,0,0,1-.707-1.613A8.74,8.74,0,0,1,.867-4.93a10.1,10.1,0,0,1,.324-2.652,6.444,6.444,0,0,1,.922-2.039A4.25,4.25,0,0,1,3.555-10.93a3.862,3.862,0,0,1,1.883-.461,4.535,4.535,0,0,1,1.859.32v1.211A3.949,3.949,0,0,0,5.469-10.3a2.724,2.724,0,0,0-1.352.336,3.1,3.1,0,0,0-1.031.949,4.63,4.63,0,0,0-.66,1.48,7.511,7.511,0,0,0-.23,1.93h.031a2.69,2.69,0,0,1,2.555-1.4,3.363,3.363,0,0,1,1.324.25,2.859,2.859,0,0,1,1.008.707,3.183,3.183,0,0,1,.645,1.09A4.148,4.148,0,0,1,7.984-3.555Zm-1.312.164a3.486,3.486,0,0,0-.148-1.055,2.288,2.288,0,0,0-.426-.8,1.836,1.836,0,0,0-.684-.5,2.3,2.3,0,0,0-.922-.176,2.158,2.158,0,0,0-.883.18,2.2,2.2,0,0,0-.7.488,2.262,2.262,0,0,0-.465.719,2.276,2.276,0,0,0-.168.871,3.475,3.475,0,0,0,.164,1.082A2.8,2.8,0,0,0,2.9-1.7a2.192,2.192,0,0,0,.707.59,1.931,1.931,0,0,0,.91.215A2.084,2.084,0,0,0,5.4-1.082a1.97,1.97,0,0,0,.68-.512,2.369,2.369,0,0,0,.438-.785A3.112,3.112,0,0,0,6.672-3.391Zm2.766,3.1V-1.664a3.792,3.792,0,0,0,2.3.773q1.688,0,1.688-1.125a.976.976,0,0,0-.145-.543,1.44,1.44,0,0,0-.391-.395,3.007,3.007,0,0,0-.578-.309q-.332-.137-.715-.285a9.207,9.207,0,0,1-.934-.426A2.82,2.82,0,0,1,10-4.457,1.8,1.8,0,0,1,9.59-5.07a2.17,2.17,0,0,1-.137-.8,1.912,1.912,0,0,1,.258-1A2.286,2.286,0,0,1,10.4-7.6a3.206,3.206,0,0,1,.98-.441,4.349,4.349,0,0,1,1.137-.148,4.59,4.59,0,0,1,1.859.359v1.3a3.624,3.624,0,0,0-2.031-.578,2.374,2.374,0,0,0-.648.082,1.587,1.587,0,0,0-.5.23,1.065,1.065,0,0,0-.32.355.936.936,0,0,0-.113.457,1.1,1.1,0,0,0,.113.523,1.152,1.152,0,0,0,.332.375,2.538,2.538,0,0,0,.531.3q.312.133.711.289a9.9,9.9,0,0,1,.953.418,3.269,3.269,0,0,1,.719.484,1.893,1.893,0,0,1,.457.621,2,2,0,0,1,.16.836,1.971,1.971,0,0,1-.262,1.031,2.243,2.243,0,0,1-.7.727,3.2,3.2,0,0,1-1.008.43,4.976,4.976,0,0,1-1.2.141A4.539,4.539,0,0,1,9.438-.289Z" transform="translate(1007 7294)" fill="#082143"/>
    <g id="Grupo_15297" data-name="Grupo 15297" transform="translate(863.379 7059)">
      <ellipse id="Elipse_1127" data-name="Elipse 1127" cx="4" cy="3" rx="4" ry="3" transform="translate(63.621 0)" fill="red"/>
      <path id="Trazado_33628" data-name="Trazado 33628" d="M4191.908,4472.5l-59.126,35.162" transform="translate(-4124.691 -4469.271)" fill="none" stroke="red" stroke-width="1"/>
      <path id="Polígono_5" data-name="Polígono 5" d="M4.139,0,8.277,7.587H0Z" transform="matrix(-0.574, -0.819, 0.819, -0.574, 4.748, 46.043)" fill="#ff0a0a"/>
    </g>
    <g id="Grupo_15298" data-name="Grupo 15298" transform="translate(863.379 7102.131)">
      <ellipse id="Elipse_1127-2" data-name="Elipse 1127" cx="4" cy="3" rx="4" ry="3" transform="translate(63.621 -0.131)" fill="red"/>
      <path id="Trazado_33628-2" data-name="Trazado 33628" d="M4191.908,4472.5l-59.126,35.162" transform="translate(-4124.691 -4469.636)" fill="none" stroke="red" stroke-width="1"/>
      <path id="Polígono_5-2" data-name="Polígono 5" d="M4.139,0,8.277,7.587H0Z" transform="matrix(-0.574, -0.819, 0.819, -0.574, 4.748, 45.678)" fill="#ff0a0a"/>
    </g>
    <g id="Grupo_15299" data-name="Grupo 15299" transform="translate(863.379 7106.239)">
      <circle id="Elipse_1127-3" data-name="Elipse 1127" cx="3" cy="3" r="3" transform="translate(113.621 -0.239)" fill="red"/>
      <path id="Trazado_33628-3" data-name="Trazado 33628" d="M4240.881,4472.5l-108.1,68.271" transform="translate(-4124.691 -4468.915)" fill="none" stroke="red" stroke-width="1"/>
      <path id="Polígono_5-3" data-name="Polígono 5" d="M4.139,0,8.277,7.587H0Z" transform="matrix(-0.574, -0.819, 0.819, -0.574, 4.748, 79.507)" fill="#ff0a0a"/>
    </g>
    <g id="Grupo_15300" data-name="Grupo 15300" transform="translate(863.379 7145.263)">
      <circle id="Elipse_1127-4" data-name="Elipse 1127" cx="3.5" cy="3.5" r="3.5" transform="translate(114.621 -0.263)" fill="red"/>
      <path id="Trazado_33628-4" data-name="Trazado 33628" d="M4242.261,4472.5l-109.479,74.479" transform="translate(-4124.691 -4468.623)" fill="none" stroke="red" stroke-width="1"/>
      <path id="Polígono_5-4" data-name="Polígono 5" d="M4.139,0,8.277,7.587H0Z" transform="matrix(-0.574, -0.819, 0.819, -0.574, 4.748, 86.009)" fill="#ff0a0a"/>
    </g>
    <g id="Grupo_15301" data-name="Grupo 15301" transform="translate(863.379 7145.263)">
      <circle id="Elipse_1127-5" data-name="Elipse 1127" cx="3.5" cy="3.5" r="3.5" transform="translate(170.621 -0.263)" fill="red"/>
      <path id="Trazado_33628-5" data-name="Trazado 33628" d="M4299.513,4472.5l-166.731,116.555" transform="translate(-4124.691 -4468.623)" fill="none" stroke="red" stroke-width="1"/>
      <path id="Polígono_5-5" data-name="Polígono 5" d="M4.139,0,8.277,7.587H0Z" transform="matrix(-0.574, -0.819, 0.819, -0.574, 4.748, 128.085)" fill="#ff0a0a"/>
    </g>
    <g id="Grupo_15302" data-name="Grupo 15302" transform="translate(863.379 7185.313)">
      <ellipse id="Elipse_1127-6" data-name="Elipse 1127" cx="2.5" cy="3" rx="2.5" ry="3" transform="translate(174.621 -0.313)" fill="red"/>
      <path id="Trazado_33628-6" data-name="Trazado 33628" d="M4302.271,4472.5l-169.49,118.625" transform="translate(-4124.691 -4469.356)" fill="none" stroke="red" stroke-width="1"/>
      <path id="Polígono_5-6" data-name="Polígono 5" d="M4.139,0,8.277,7.587H0Z" transform="matrix(-0.574, -0.819, 0.819, -0.574, 4.748, 129.421)" fill="#ff0a0a"/>
    </g>
    <g id="Grupo_15303" data-name="Grupo 15303" transform="translate(863.379 7186.34)">
      <ellipse id="Elipse_1127-7" data-name="Elipse 1127" cx="3" cy="3.5" rx="3" ry="3.5" transform="translate(228.621 -0.34)" fill="red"/>
      <path id="Trazado_33628-7" data-name="Trazado 33628" d="M4355.384,4472.5l-222.6,159.32" transform="translate(-4124.692 -4469.003)" fill="none" stroke="red" stroke-width="1"/>
      <path id="Polígono_5-7" data-name="Polígono 5" d="M4.139,0,8.277,7.587H0Z" transform="matrix(-0.574, -0.819, 0.819, -0.574, 4.748, 170.47)" fill="#ff0a0a"/>
    </g>
    <g id="Grupo_15304" data-name="Grupo 15304" transform="translate(926.838 7222.283)">
      <circle id="Elipse_1127-8" data-name="Elipse 1127" cx="3" cy="3" r="3" transform="translate(172.162 -0.283)" fill="red"/>
      <path id="Trazado_33628-8" data-name="Trazado 33628" d="M4299.827,4472.5l-167.045,120.046" transform="translate(-4124.692 -4469.12)" fill="none" stroke="red" stroke-width="1"/>
      <path id="Polígono_5-8" data-name="Polígono 5" d="M4.139,0,8.277,7.587H0Z" transform="matrix(-0.574, -0.819, 0.819, -0.574, 4.748, 131.078)" fill="#ff0a0a"/>
    </g>
    <path id="Trazado_187522" data-name="Trazado 187522" d="M8.164,0h-3.3V-10.508l-3.242.947v-2.5l6.24-2.158h.3Zm9.873-2.969a.76.76,0,0,0-.439-.674,6.685,6.685,0,0,0-1.67-.527A7.615,7.615,0,0,1,13.9-4.888a3.4,3.4,0,0,1-1.221-1.079,2.577,2.577,0,0,1-.42-1.455,2.92,2.92,0,0,1,1.2-2.4,4.948,4.948,0,0,1,3.145-.942,5.482,5.482,0,0,1,3.359.947,2.962,2.962,0,0,1,1.27,2.49h-3.3q0-1.27-1.338-1.27a1.326,1.326,0,0,0-.869.288.892.892,0,0,0-.352.718.819.819,0,0,0,.43.713,4.06,4.06,0,0,0,1.372.449,11.857,11.857,0,0,1,1.655.42,3.007,3.007,0,0,1,2.383,2.939A2.767,2.767,0,0,1,19.927-.713,5.631,5.631,0,0,1,16.6.2,5.747,5.747,0,0,1,14.18-.293a4.05,4.05,0,0,1-1.66-1.328,3.007,3.007,0,0,1-.6-1.768H15a1.272,1.272,0,0,0,.488,1.069,2.009,2.009,0,0,0,1.2.337A1.58,1.58,0,0,0,17.7-2.256.875.875,0,0,0,18.037-2.969ZM47.559,0H37.637V-2.148l4.57-4.8Q43.9-8.877,43.9-10.01a2.126,2.126,0,0,0-.4-1.4,1.43,1.43,0,0,0-1.162-.479,1.447,1.447,0,0,0-1.221.64,2.629,2.629,0,0,0-.469,1.6h-3.3A4.67,4.67,0,0,1,38-12.065,4.588,4.588,0,0,1,39.814-13.8a5.4,5.4,0,0,1,2.6-.625,5.308,5.308,0,0,1,3.55,1.064A3.8,3.8,0,0,1,47.207-10.3a4.439,4.439,0,0,1-.312,1.636A7.173,7.173,0,0,1,45.923-7,24.476,24.476,0,0,1,43.8-4.658L41.963-2.539h5.6ZM54.8-2.969a.76.76,0,0,0-.439-.674A6.685,6.685,0,0,0,52.7-4.17a7.615,7.615,0,0,1-2.031-.718,3.4,3.4,0,0,1-1.221-1.079,2.577,2.577,0,0,1-.42-1.455,2.92,2.92,0,0,1,1.2-2.4,4.948,4.948,0,0,1,3.145-.942,5.482,5.482,0,0,1,3.359.947A2.962,2.962,0,0,1,58-7.324H54.7q0-1.27-1.338-1.27a1.326,1.326,0,0,0-.869.288.892.892,0,0,0-.352.718.819.819,0,0,0,.43.713,4.06,4.06,0,0,0,1.372.449,11.857,11.857,0,0,1,1.655.42,3.007,3.007,0,0,1,2.383,2.939A2.767,2.767,0,0,1,56.694-.713,5.632,5.632,0,0,1,53.369.2a5.747,5.747,0,0,1-2.422-.488,4.05,4.05,0,0,1-1.66-1.328,3.007,3.007,0,0,1-.6-1.768h3.076a1.272,1.272,0,0,0,.488,1.069,2.009,2.009,0,0,0,1.2.337,1.58,1.58,0,0,0,1.011-.273A.875.875,0,0,0,54.8-2.969ZM84.326,0H74.4V-2.148l4.57-4.8q1.689-1.924,1.689-3.057a2.126,2.126,0,0,0-.4-1.4,1.43,1.43,0,0,0-1.162-.479,1.447,1.447,0,0,0-1.221.64,2.629,2.629,0,0,0-.469,1.6h-3.3a4.67,4.67,0,0,1,.654-2.417A4.588,4.588,0,0,1,76.582-13.8a5.4,5.4,0,0,1,2.6-.625,5.308,5.308,0,0,1,3.55,1.064A3.8,3.8,0,0,1,83.975-10.3a4.439,4.439,0,0,1-.312,1.636A7.173,7.173,0,0,1,82.69-7a24.476,24.476,0,0,1-2.124,2.339L78.73-2.539h5.6ZM95.85-5.205a6.372,6.372,0,0,1-1.108,3.931A3.554,3.554,0,0,1,91.748.2,3.046,3.046,0,0,1,89.355-.869V4.063H86.064V-10.566h3.076l.1.977a3.046,3.046,0,0,1,2.49-1.172,3.582,3.582,0,0,1,3.037,1.44,6.45,6.45,0,0,1,1.084,3.96ZM92.559-5.41q0-2.812-1.641-2.812a1.549,1.549,0,0,0-1.562.84v4.16a1.6,1.6,0,0,0,1.582.879q1.572,0,1.621-2.715Zm27.617-3.076h1.553a1.614,1.614,0,0,0,1.846-1.807,1.562,1.562,0,0,0-.439-1.147,1.666,1.666,0,0,0-1.24-.444,1.784,1.784,0,0,0-1.138.381,1.162,1.162,0,0,0-.483.947h-3.291a3.369,3.369,0,0,1,.625-2,4.127,4.127,0,0,1,1.733-1.372,5.926,5.926,0,0,1,2.437-.493,5.823,5.823,0,0,1,3.73,1.084,3.6,3.6,0,0,1,1.357,2.979,3,3,0,0,1-.562,1.733A4,4,0,0,1,124.668-7.3a3.823,3.823,0,0,1,1.777,1.245,3.279,3.279,0,0,1,.645,2.065,3.669,3.669,0,0,1-1.465,3.047A6.08,6.08,0,0,1,121.777.2a6.306,6.306,0,0,1-2.593-.532,4.062,4.062,0,0,1-1.812-1.475,3.834,3.834,0,0,1-.615-2.144h3.311a1.482,1.482,0,0,0,.527,1.133,1.862,1.862,0,0,0,1.3.479,1.95,1.95,0,0,0,1.387-.483,1.616,1.616,0,0,0,.518-1.235,1.889,1.889,0,0,0-.537-1.523,2.245,2.245,0,0,0-1.484-.449h-1.6Zm14.16,5.518a.76.76,0,0,0-.439-.674,6.685,6.685,0,0,0-1.67-.527,7.615,7.615,0,0,1-2.031-.718,3.4,3.4,0,0,1-1.221-1.079,2.577,2.577,0,0,1-.42-1.455,2.92,2.92,0,0,1,1.2-2.4,4.948,4.948,0,0,1,3.145-.942,5.482,5.482,0,0,1,3.359.947,2.962,2.962,0,0,1,1.27,2.49h-3.3q0-1.27-1.338-1.27a1.326,1.326,0,0,0-.869.288.892.892,0,0,0-.352.718.819.819,0,0,0,.43.713,4.06,4.06,0,0,0,1.372.449,11.857,11.857,0,0,1,1.655.42,3.007,3.007,0,0,1,2.383,2.939,2.767,2.767,0,0,1-1.284,2.354A5.632,5.632,0,0,1,132.9.2a5.747,5.747,0,0,1-2.422-.488,4.05,4.05,0,0,1-1.66-1.328,3.007,3.007,0,0,1-.6-1.768H131.3a1.272,1.272,0,0,0,.488,1.069,2.009,2.009,0,0,0,1.2.337A1.58,1.58,0,0,0,134-2.256.875.875,0,0,0,134.336-2.969Zm22.607-5.518H158.5a1.614,1.614,0,0,0,1.846-1.807,1.562,1.562,0,0,0-.439-1.147,1.666,1.666,0,0,0-1.24-.444,1.784,1.784,0,0,0-1.138.381,1.162,1.162,0,0,0-.483.947H153.75a3.369,3.369,0,0,1,.625-2,4.127,4.127,0,0,1,1.733-1.372,5.926,5.926,0,0,1,2.437-.493,5.823,5.823,0,0,1,3.73,1.084,3.6,3.6,0,0,1,1.357,2.979,3,3,0,0,1-.562,1.733A4,4,0,0,1,161.436-7.3a3.823,3.823,0,0,1,1.777,1.245,3.279,3.279,0,0,1,.645,2.065,3.669,3.669,0,0,1-1.465,3.047A6.08,6.08,0,0,1,158.545.2a6.306,6.306,0,0,1-2.593-.532,4.062,4.062,0,0,1-1.812-1.475,3.834,3.834,0,0,1-.615-2.144h3.311a1.482,1.482,0,0,0,.527,1.133,1.862,1.862,0,0,0,1.3.479,1.95,1.95,0,0,0,1.387-.483,1.616,1.616,0,0,0,.518-1.235,1.889,1.889,0,0,0-.537-1.523,2.245,2.245,0,0,0-1.484-.449h-1.6Zm18.438,3.281a6.372,6.372,0,0,1-1.108,3.931A3.554,3.554,0,0,1,171.279.2a3.046,3.046,0,0,1-2.393-1.064V4.063H165.6V-10.566h3.076l.1.977a3.046,3.046,0,0,1,2.49-1.172,3.582,3.582,0,0,1,3.037,1.44,6.45,6.45,0,0,1,1.084,3.96ZM172.09-5.41q0-2.812-1.641-2.812a1.549,1.549,0,0,0-1.562.84v4.16a1.6,1.6,0,0,0,1.582.879q1.572,0,1.621-2.715Z" transform="translate(739 7400)" fill="#12263f"/>
    <path id="Trazado_187544" data-name="Trazado 187544" d="M7.5,0H.677V-1.354L3.9-4.785A7.943,7.943,0,0,0,4.877-6.05,2.032,2.032,0,0,0,5.2-7.075,1.52,1.52,0,0,0,4.86-8.118,1.209,1.209,0,0,0,3.9-8.5a1.3,1.3,0,0,0-1.056.461,1.828,1.828,0,0,0-.386,1.213H.479A3.263,3.263,0,0,1,.913-8.483,3.059,3.059,0,0,1,2.14-9.663a3.73,3.73,0,0,1,1.8-.427,3.531,3.531,0,0,1,2.389.738,2.612,2.612,0,0,1,.851,2.085,3.347,3.347,0,0,1-.383,1.5A8.357,8.357,0,0,1,5.482-3.979L3.22-1.593H7.5Z" transform="translate(759 7390)" fill="#12263f"/>
    <path id="Trazado_187536" data-name="Trazado 187536" d="M7.5,0H.677V-1.354L3.9-4.785A7.943,7.943,0,0,0,4.877-6.05,2.032,2.032,0,0,0,5.2-7.075,1.52,1.52,0,0,0,4.86-8.118,1.209,1.209,0,0,0,3.9-8.5a1.3,1.3,0,0,0-1.056.461,1.828,1.828,0,0,0-.386,1.213H.479A3.263,3.263,0,0,1,.913-8.483,3.059,3.059,0,0,1,2.14-9.663a3.73,3.73,0,0,1,1.8-.427,3.531,3.531,0,0,1,2.389.738,2.612,2.612,0,0,1,.851,2.085,3.347,3.347,0,0,1-.383,1.5A8.357,8.357,0,0,1,5.482-3.979L3.22-1.593H7.5Z" transform="translate(797 7390)" fill="#12263f"/>
    <path id="Trazado_187533" data-name="Trazado 187533" d="M6.036-10.056v1.627H5.845a3.356,3.356,0,0,0-2.157.7,2.833,2.833,0,0,0-.981,1.88,2.691,2.691,0,0,1,2-.807,2.535,2.535,0,0,1,2.064.93A3.727,3.727,0,0,1,7.54-3.281a3.666,3.666,0,0,1-.42,1.757A3.015,3.015,0,0,1,5.93-.3,3.456,3.456,0,0,1,4.19.137,3.227,3.227,0,0,1,1.651-.957,4.246,4.246,0,0,1,.684-3.876v-.711A6.389,6.389,0,0,1,1.3-7.448,4.486,4.486,0,0,1,3.052-9.369a5.148,5.148,0,0,1,2.656-.687ZM4.108-5.065a1.578,1.578,0,0,0-.868.249,1.5,1.5,0,0,0-.574.658v.6a2.66,2.66,0,0,0,.39,1.545,1.259,1.259,0,0,0,1.094.556,1.245,1.245,0,0,0,1.029-.5,2.045,2.045,0,0,0,.393-1.3,2.041,2.041,0,0,0-.4-1.31A1.292,1.292,0,0,0,4.108-5.065Z" transform="translate(836 7390)" fill="#12263f"/>
    <path id="Trazado_187530" data-name="Trazado 187530" d="M7.5,0H.677V-1.354L3.9-4.785A7.943,7.943,0,0,0,4.877-6.05,2.032,2.032,0,0,0,5.2-7.075,1.52,1.52,0,0,0,4.86-8.118,1.209,1.209,0,0,0,3.9-8.5a1.3,1.3,0,0,0-1.056.461,1.828,1.828,0,0,0-.386,1.213H.479A3.263,3.263,0,0,1,.913-8.483,3.059,3.059,0,0,1,2.14-9.663a3.73,3.73,0,0,1,1.8-.427,3.531,3.531,0,0,1,2.389.738,2.612,2.612,0,0,1,.851,2.085,3.347,3.347,0,0,1-.383,1.5A8.357,8.357,0,0,1,5.482-3.979L3.22-1.593H7.5Z" transform="translate(878 7390)" fill="#12263f"/>
    <path id="Trazado_187521" data-name="Trazado 187521" d="M.971-4.895l.574-5.059H7.123v1.647H3.165l-.246,2.14a3.132,3.132,0,0,1,1.5-.376,2.869,2.869,0,0,1,2.229.882,3.522,3.522,0,0,1,.807,2.468,3.609,3.609,0,0,1-.407,1.726A2.871,2.871,0,0,1,5.879-.284a3.639,3.639,0,0,1-1.791.42A3.864,3.864,0,0,1,2.413-.229a2.971,2.971,0,0,1-1.22-1.029A2.8,2.8,0,0,1,.718-2.769H2.673a1.46,1.46,0,0,0,.434.967,1.376,1.376,0,0,0,.974.345,1.215,1.215,0,0,0,1.032-.482A2.233,2.233,0,0,0,5.476-3.3a1.846,1.846,0,0,0-.417-1.3,1.53,1.53,0,0,0-1.183-.451,1.71,1.71,0,0,0-1.142.369L2.543-4.5Z" transform="translate(915 7390)" fill="#12263f"/>
    <path id="Trazado_187545" data-name="Trazado 187545" d="M8.57,0H.773V-1.547l3.68-3.922A9.078,9.078,0,0,0,5.574-6.914a2.322,2.322,0,0,0,.363-1.172,1.738,1.738,0,0,0-.383-1.191,1.382,1.382,0,0,0-1.094-.434,1.49,1.49,0,0,0-1.207.527A2.089,2.089,0,0,0,2.813-7.8H.547a3.729,3.729,0,0,1,.5-1.9,3.5,3.5,0,0,1,1.4-1.348A4.262,4.262,0,0,1,4.5-11.531a4.036,4.036,0,0,1,2.73.844A2.985,2.985,0,0,1,8.2-8.3a3.825,3.825,0,0,1-.437,1.719,9.551,9.551,0,0,1-1.5,2.039L3.68-1.82H8.57ZM18.586-6.367h2.82v2.039h-2.82v3.188H16.438V-4.328H13.609V-6.367h2.828V-9.422h2.148Z" transform="translate(743 7428)" fill="#12263f"/>
    <path id="Trazado_187537" data-name="Trazado 187537" d="M8.57,0H.773V-1.547l3.68-3.922A9.078,9.078,0,0,0,5.574-6.914a2.322,2.322,0,0,0,.363-1.172,1.738,1.738,0,0,0-.383-1.191,1.382,1.382,0,0,0-1.094-.434,1.49,1.49,0,0,0-1.207.527A2.089,2.089,0,0,0,2.813-7.8H.547a3.729,3.729,0,0,1,.5-1.9,3.5,3.5,0,0,1,1.4-1.348A4.262,4.262,0,0,1,4.5-11.531a4.036,4.036,0,0,1,2.73.844A2.985,2.985,0,0,1,8.2-8.3a3.825,3.825,0,0,1-.437,1.719,9.551,9.551,0,0,1-1.5,2.039L3.68-1.82H8.57ZM18.586-6.367h2.82v2.039h-2.82v3.188H16.438V-4.328H13.609V-6.367h2.828V-9.422h2.148Z" transform="translate(767 7428)" fill="#12263f"/>
    <path id="Trazado_187535" data-name="Trazado 187535" d="M6.9-11.492v1.859H6.68a3.836,3.836,0,0,0-2.465.8A3.238,3.238,0,0,0,3.094-6.687a3.075,3.075,0,0,1,2.289-.922A2.9,2.9,0,0,1,7.742-6.547a4.259,4.259,0,0,1,.875,2.8,4.19,4.19,0,0,1-.48,2.008,3.446,3.446,0,0,1-1.359,1.4,3.949,3.949,0,0,1-1.988.5,3.689,3.689,0,0,1-2.9-1.25A4.852,4.852,0,0,1,.781-4.43v-.812a7.3,7.3,0,0,1,.7-3.27,5.127,5.127,0,0,1,2.008-2.2,5.884,5.884,0,0,1,3.035-.785Zm-2.2,5.7A1.8,1.8,0,0,0,3.7-5.5a1.715,1.715,0,0,0-.656.753v.686A3.04,3.04,0,0,0,3.492-2.3a1.439,1.439,0,0,0,1.25.635,1.423,1.423,0,0,0,1.176-.573,2.337,2.337,0,0,0,.449-1.485,2.333,2.333,0,0,0-.453-1.5A1.477,1.477,0,0,0,4.7-5.789Zm13.891-.578h2.82v2.039h-2.82v3.188H16.438V-4.328H13.609V-6.367h2.828V-9.422h2.148Z" transform="translate(792 7428)" fill="#12263f"/>
    <path id="Trazado_187534" data-name="Trazado 187534" d="M8.57,0H.773V-1.547l3.68-3.922A9.078,9.078,0,0,0,5.574-6.914a2.322,2.322,0,0,0,.363-1.172,1.738,1.738,0,0,0-.383-1.191,1.382,1.382,0,0,0-1.094-.434,1.49,1.49,0,0,0-1.207.527A2.089,2.089,0,0,0,2.813-7.8H.547a3.729,3.729,0,0,1,.5-1.9,3.5,3.5,0,0,1,1.4-1.348A4.262,4.262,0,0,1,4.5-11.531a4.036,4.036,0,0,1,2.73.844A2.985,2.985,0,0,1,8.2-8.3a3.825,3.825,0,0,1-.437,1.719,9.551,9.551,0,0,1-1.5,2.039L3.68-1.82H8.57ZM18.586-6.367h2.82v2.039h-2.82v3.188H16.438V-4.328H13.609V-6.367h2.828V-9.422h2.148Z" transform="translate(817 7428)" fill="#12263f"/>
    <path id="Trazado_187514" data-name="Trazado 187514" d="M1.109-5.594l.656-5.781H8.141v1.883H3.617L3.336-7.047a3.58,3.58,0,0,1,1.711-.43A3.279,3.279,0,0,1,7.594-6.469a4.026,4.026,0,0,1,.922,2.82,4.124,4.124,0,0,1-.465,1.973A3.281,3.281,0,0,1,6.719-.324a4.158,4.158,0,0,1-2.047.48A4.416,4.416,0,0,1,2.758-.262,3.4,3.4,0,0,1,1.363-1.437,3.2,3.2,0,0,1,.82-3.164H3.055a1.669,1.669,0,0,0,.5,1.105,1.573,1.573,0,0,0,1.113.395,1.388,1.388,0,0,0,1.18-.551,2.551,2.551,0,0,0,.414-1.559,2.11,2.11,0,0,0-.477-1.484A1.749,1.749,0,0,0,4.43-5.773a1.954,1.954,0,0,0-1.3.422l-.219.2Zm20.1-.234H14.227V-7.672h6.984Zm0,3.383H14.227V-4.289h6.984ZM32.563,0H30.3V-8.7l-2.7.836V-9.7l4.711-1.687h.242Zm11.43-10.115L39.594,0H37.211l4.406-9.555H35.961v-1.82h8.031ZM53.406.156A4.15,4.15,0,0,1,50.379-.984a4.054,4.054,0,0,1-1.168-3.039v-.219A5.106,5.106,0,0,1,49.7-6.52,3.612,3.612,0,0,1,51.1-8.066a3.914,3.914,0,0,1,2.059-.543,3.508,3.508,0,0,1,2.73,1.094,4.444,4.444,0,0,1,1,3.1v.922H51.5a2.1,2.1,0,0,0,.66,1.328,2,2,0,0,0,1.395.5,2.437,2.437,0,0,0,2.039-.945L56.7-1.367A3.389,3.389,0,0,1,55.328-.246,4.511,4.511,0,0,1,53.406.156Zm-.258-6.945a1.411,1.411,0,0,0-1.09.455,2.357,2.357,0,0,0-.535,1.3h3.141v-.181a1.681,1.681,0,0,0-.406-1.165A1.456,1.456,0,0,0,53.148-6.789ZM60.547,0H58.281V-12h2.266ZM66.3.156A4.15,4.15,0,0,1,63.27-.984,4.054,4.054,0,0,1,62.1-4.023v-.219a5.106,5.106,0,0,1,.492-2.277,3.612,3.612,0,0,1,1.395-1.547,3.914,3.914,0,0,1,2.059-.543,3.508,3.508,0,0,1,2.73,1.094,4.444,4.444,0,0,1,1,3.1v.922H64.391a2.1,2.1,0,0,0,.66,1.328,2,2,0,0,0,1.395.5,2.437,2.437,0,0,0,2.039-.945l1.109,1.242A3.389,3.389,0,0,1,68.219-.246,4.511,4.511,0,0,1,66.3.156Zm-.258-6.945a1.411,1.411,0,0,0-1.09.455,2.357,2.357,0,0,0-.535,1.3h3.141v-.181a1.681,1.681,0,0,0-.406-1.165A1.456,1.456,0,0,0,66.039-6.789ZM74.57-1.664a1.481,1.481,0,0,0,1.016-.344,1.2,1.2,0,0,0,.406-.914h2.117a2.9,2.9,0,0,1-.469,1.574A3.093,3.093,0,0,1,76.379-.238a3.949,3.949,0,0,1-1.77.395A3.67,3.67,0,0,1,71.75-1,4.56,4.56,0,0,1,70.7-4.18v-.148a4.508,4.508,0,0,1,1.039-3.117,3.627,3.627,0,0,1,2.852-1.164,3.555,3.555,0,0,1,2.543.9,3.2,3.2,0,0,1,.973,2.4H75.992a1.551,1.551,0,0,0-.406-1.072,1.354,1.354,0,0,0-1.031-.412,1.36,1.36,0,0,0-1.191.575,3.333,3.333,0,0,0-.4,1.866v.235a3.375,3.375,0,0,0,.4,1.878A1.377,1.377,0,0,0,74.57-1.664ZM82.1-10.531v2.078h1.445V-6.8H82.1v4.219a1.007,1.007,0,0,0,.18.672.9.9,0,0,0,.688.2,3.6,3.6,0,0,0,.664-.055V-.047a4.648,4.648,0,0,1-1.367.2,2.156,2.156,0,0,1-2.422-2.4V-6.8H78.609V-8.453h1.234v-2.078Zm7.453,4.2a6.134,6.134,0,0,0-.812-.062,1.654,1.654,0,0,0-1.68.867V0H84.8V-8.453h2.133L87-7.445a2.092,2.092,0,0,1,1.883-1.164,2.366,2.366,0,0,1,.7.1ZM90.008-4.3a5.013,5.013,0,0,1,.484-2.242A3.546,3.546,0,0,1,91.887-8.07,4.069,4.069,0,0,1,94-8.609a3.849,3.849,0,0,1,2.793,1.047A4.2,4.2,0,0,1,98-4.719l.016.578A4.418,4.418,0,0,1,96.93-1.02,3.775,3.775,0,0,1,94.016.156,3.793,3.793,0,0,1,91.1-1.016,4.5,4.5,0,0,1,90.008-4.2Zm2.258.16A3.16,3.16,0,0,0,92.719-2.3a1.5,1.5,0,0,0,1.3.638,1.5,1.5,0,0,0,1.281-.63,3.457,3.457,0,0,0,.461-2.015A3.128,3.128,0,0,0,95.3-6.14,1.5,1.5,0,0,0,94-6.789a1.474,1.474,0,0,0-1.281.646A3.516,3.516,0,0,0,92.266-4.144Zm9.219-4.309.07.977a2.951,2.951,0,0,1,2.43-1.133,2.453,2.453,0,0,1,2,.789,3.682,3.682,0,0,1,.672,2.359V0H104.4V-5.406a1.465,1.465,0,0,0-.312-1.043,1.4,1.4,0,0,0-1.039-.324,1.553,1.553,0,0,0-1.43.813V0H99.359V-8.453ZM112.258.156A4.15,4.15,0,0,1,109.23-.984a4.054,4.054,0,0,1-1.168-3.039v-.219a5.106,5.106,0,0,1,.492-2.277,3.612,3.612,0,0,1,1.395-1.547,3.914,3.914,0,0,1,2.059-.543,3.508,3.508,0,0,1,2.73,1.094,4.444,4.444,0,0,1,1,3.1v.922h-5.383a2.1,2.1,0,0,0,.66,1.328,2,2,0,0,0,1.395.5,2.437,2.437,0,0,0,2.039-.945l1.109,1.242A3.389,3.389,0,0,1,114.18-.246,4.511,4.511,0,0,1,112.258.156ZM112-6.789a1.411,1.411,0,0,0-1.09.455,2.357,2.357,0,0,0-.535,1.3h3.141v-.181a1.681,1.681,0,0,0-.406-1.165A1.456,1.456,0,0,0,112-6.789Zm9.594,4.453a.727.727,0,0,0-.41-.652,4.659,4.659,0,0,0-1.316-.426q-3.016-.633-3.016-2.562a2.323,2.323,0,0,1,.934-1.879,3.766,3.766,0,0,1,2.441-.754,4.053,4.053,0,0,1,2.574.758,2.388,2.388,0,0,1,.965,1.969h-2.258a1.092,1.092,0,0,0-.312-.8A1.322,1.322,0,0,0,120.219-7a1.351,1.351,0,0,0-.883.258.814.814,0,0,0-.312.656.7.7,0,0,0,.355.605,3.657,3.657,0,0,0,1.2.4A9.8,9.8,0,0,1,122-4.7a2.336,2.336,0,0,1,1.789,2.273A2.2,2.2,0,0,1,122.8-.559a4.28,4.28,0,0,1-2.562.715,4.47,4.47,0,0,1-1.887-.379,3.166,3.166,0,0,1-1.293-1.039,2.414,2.414,0,0,1-.469-1.426h2.141a1.179,1.179,0,0,0,.445.922,1.766,1.766,0,0,0,1.109.32,1.635,1.635,0,0,0,.98-.246A.766.766,0,0,0,121.594-2.336Z" transform="translate(842 7428)" fill="#12263f"/>
  </g>
</svg>
