<svg xmlns="http://www.w3.org/2000/svg" width="674" height="445" viewBox="0 0 674 445">
  <g id="Grupo_178787" data-name="Grupo 178787" transform="translate(-5599.809 380.453)">
    <path id="Trazado_187515" data-name="Trazado 187515" d="M10,0H664a10,10,0,0,1,10,10V435a10,10,0,0,1-10,10H10A10,10,0,0,1,0,435V10A10,10,0,0,1,10,0Z" transform="translate(5599.809 -380.453)" fill="#fff"/>
    <path id="Trazado_187516" data-name="Trazado 187516" d="M46.5,12.992V17H44.156V5.625h4.438a5.134,5.134,0,0,1,2.254.469,3.454,3.454,0,0,1,1.5,1.332,3.714,3.714,0,0,1,.523,1.965,3.266,3.266,0,0,1-1.145,2.637,4.767,4.767,0,0,1-3.168.965Zm0-1.9h2.094a2.059,2.059,0,0,0,1.418-.437,1.591,1.591,0,0,0,.488-1.25,1.876,1.876,0,0,0-.492-1.352,1.839,1.839,0,0,0-1.359-.531H46.5Zm11.719,6.063a4.15,4.15,0,0,1-3.027-1.141,4.054,4.054,0,0,1-1.168-3.039v-.219a5.106,5.106,0,0,1,.492-2.277A3.612,3.612,0,0,1,55.91,8.934a3.914,3.914,0,0,1,2.059-.543A3.508,3.508,0,0,1,60.7,9.484a4.444,4.444,0,0,1,1,3.1v.922H56.313a2.1,2.1,0,0,0,.66,1.328,2,2,0,0,0,1.395.5,2.437,2.437,0,0,0,2.039-.945l1.109,1.242a3.389,3.389,0,0,1-1.375,1.121A4.511,4.511,0,0,1,58.219,17.156Zm-.258-6.945a1.411,1.411,0,0,0-1.09.455,2.357,2.357,0,0,0-.535,1.3h3.141v-.181a1.681,1.681,0,0,0-.406-1.165A1.456,1.456,0,0,0,57.961,10.211Zm9.766.453a6.134,6.134,0,0,0-.812-.062,1.654,1.654,0,0,0-1.68.867V17H62.977V8.547h2.133l.063,1.008a2.092,2.092,0,0,1,1.883-1.164,2.366,2.366,0,0,1,.7.1ZM71.25,17H68.992V8.547H71.25ZM70.586,5.117h2.461L70.883,7.539H69.047ZM72.844,12.7a5.013,5.013,0,0,1,.484-2.242A3.546,3.546,0,0,1,74.723,8.93a4.069,4.069,0,0,1,2.113-.539,3.849,3.849,0,0,1,2.793,1.047,4.2,4.2,0,0,1,1.207,2.844l.016.578a4.418,4.418,0,0,1-1.086,3.121,4.209,4.209,0,0,1-5.832,0,4.5,4.5,0,0,1-1.09-3.187Zm2.258.16a3.16,3.16,0,0,0,.453,1.843,1.628,1.628,0,0,0,2.578.008,3.457,3.457,0,0,0,.461-2.015,3.128,3.128,0,0,0-.461-1.831,1.5,1.5,0,0,0-1.3-.649,1.474,1.474,0,0,0-1.281.646A3.516,3.516,0,0,0,75.1,12.856Zm6.789-.145a5.094,5.094,0,0,1,.887-3.148A2.877,2.877,0,0,1,85.2,8.391a2.589,2.589,0,0,1,2.039.922V5h2.266V17H87.469l-.109-.9a2.657,2.657,0,0,1-2.172,1.055,2.869,2.869,0,0,1-2.395-1.176A5.258,5.258,0,0,1,81.891,12.711Zm2.258.168a3.337,3.337,0,0,0,.414,1.823,1.349,1.349,0,0,0,1.2.634,1.511,1.511,0,0,0,1.477-.884V11.111a1.489,1.489,0,0,0-1.461-.884Q84.148,10.227,84.148,12.879Zm6.758-.184a5.013,5.013,0,0,1,.484-2.242A3.546,3.546,0,0,1,92.785,8.93,4.069,4.069,0,0,1,94.9,8.391a3.849,3.849,0,0,1,2.793,1.047A4.2,4.2,0,0,1,98.9,12.281l.016.578a4.418,4.418,0,0,1-1.086,3.121,4.209,4.209,0,0,1-5.832,0,4.5,4.5,0,0,1-1.09-3.187Zm2.258.16a3.16,3.16,0,0,0,.453,1.843,1.628,1.628,0,0,0,2.578.008,3.457,3.457,0,0,0,.461-2.015A3.128,3.128,0,0,0,96.2,10.86a1.5,1.5,0,0,0-1.3-.649,1.474,1.474,0,0,0-1.281.646A3.516,3.516,0,0,0,93.164,12.856Zm11.719,1.808a.727.727,0,0,0-.41-.652,4.659,4.659,0,0,0-1.316-.426q-3.016-.633-3.016-2.562a2.323,2.323,0,0,1,.934-1.879,3.766,3.766,0,0,1,2.441-.754,4.053,4.053,0,0,1,2.574.758,2.388,2.388,0,0,1,.965,1.969H104.8a1.092,1.092,0,0,0-.312-.8,1.322,1.322,0,0,0-.977-.316,1.351,1.351,0,0,0-.883.258.814.814,0,0,0-.312.656.7.7,0,0,0,.355.605,3.657,3.657,0,0,0,1.2.4,9.8,9.8,0,0,1,1.422.379,2.336,2.336,0,0,1,1.789,2.273,2.2,2.2,0,0,1-.992,1.871,4.28,4.28,0,0,1-2.562.715,4.47,4.47,0,0,1-1.887-.379,3.166,3.166,0,0,1-1.293-1.039,2.414,2.414,0,0,1-.469-1.426h2.141a1.179,1.179,0,0,0,.445.922,1.766,1.766,0,0,0,1.109.32,1.635,1.635,0,0,0,.98-.246A.766.766,0,0,0,104.883,14.664Zm7.281-1.953a5.094,5.094,0,0,1,.887-3.148,2.877,2.877,0,0,1,2.426-1.172,2.589,2.589,0,0,1,2.039.922V5h2.266V17h-2.039l-.109-.9a2.657,2.657,0,0,1-2.172,1.055,2.869,2.869,0,0,1-2.395-1.176A5.258,5.258,0,0,1,112.164,12.711Zm2.258.168a3.337,3.337,0,0,0,.414,1.823,1.349,1.349,0,0,0,1.2.634,1.511,1.511,0,0,0,1.477-.884V11.111a1.489,1.489,0,0,0-1.461-.884Q114.422,10.227,114.422,12.879Zm11,4.277a4.15,4.15,0,0,1-3.027-1.141,4.054,4.054,0,0,1-1.168-3.039v-.219a5.106,5.106,0,0,1,.492-2.277,3.612,3.612,0,0,1,1.395-1.547,3.914,3.914,0,0,1,2.059-.543,3.508,3.508,0,0,1,2.73,1.094,4.444,4.444,0,0,1,1,3.1v.922h-5.383a2.1,2.1,0,0,0,.66,1.328,2,2,0,0,0,1.395.5,2.437,2.437,0,0,0,2.039-.945l1.109,1.242a3.389,3.389,0,0,1-1.375,1.121A4.511,4.511,0,0,1,125.422,17.156Zm-.258-6.945a1.411,1.411,0,0,0-1.09.455,2.357,2.357,0,0,0-.535,1.3h3.141v-.181a1.681,1.681,0,0,0-.406-1.165A1.456,1.456,0,0,0,125.164,10.211ZM136.547,17h-2.266V5h2.266Zm6.758,0a2.507,2.507,0,0,1-.227-.758,2.732,2.732,0,0,1-2.133.914,3,3,0,0,1-2.059-.719,2.312,2.312,0,0,1-.816-1.812,2.389,2.389,0,0,1,1-2.062,4.915,4.915,0,0,1,2.879-.727h1.039v-.484a1.393,1.393,0,0,0-.3-.937,1.183,1.183,0,0,0-.949-.352,1.345,1.345,0,0,0-.895.273.929.929,0,0,0-.324.75h-2.258a2.268,2.268,0,0,1,.453-1.359,3,3,0,0,1,1.281-.98,4.669,4.669,0,0,1,1.859-.355,3.689,3.689,0,0,1,2.48.785,2.747,2.747,0,0,1,.918,2.207v3.664a4.041,4.041,0,0,0,.336,1.82V17Zm-1.867-1.57a1.945,1.945,0,0,0,.922-.223,1.462,1.462,0,0,0,.625-.6V13.156h-.844q-1.7,0-1.8,1.172l-.008.133a.9.9,0,0,0,.3.7A1.153,1.153,0,0,0,141.438,15.43Zm12.234-8.961V8.547h1.445V10.2h-1.445v4.219a1.007,1.007,0,0,0,.18.672.9.9,0,0,0,.688.2,3.6,3.6,0,0,0,.664-.055v1.711a4.648,4.648,0,0,1-1.367.2,2.156,2.156,0,0,1-2.422-2.4V10.2H150.18V8.547h1.234V6.469ZM161.273,17a2.507,2.507,0,0,1-.227-.758,2.732,2.732,0,0,1-2.133.914,3,3,0,0,1-2.059-.719,2.312,2.312,0,0,1-.816-1.812,2.389,2.389,0,0,1,1-2.062,4.915,4.915,0,0,1,2.879-.727h1.039v-.484a1.393,1.393,0,0,0-.3-.937,1.183,1.183,0,0,0-.949-.352,1.345,1.345,0,0,0-.895.273.929.929,0,0,0-.324.75h-2.258a2.268,2.268,0,0,1,.453-1.359,3,3,0,0,1,1.281-.98,4.669,4.669,0,0,1,1.859-.355,3.689,3.689,0,0,1,2.48.785,2.747,2.747,0,0,1,.918,2.207v3.664a4.041,4.041,0,0,0,.336,1.82V17Zm-1.867-1.57a1.945,1.945,0,0,0,.922-.223,1.462,1.462,0,0,0,.625-.6V13.156h-.844q-1.7,0-1.8,1.172l-.008.133a.9.9,0,0,0,.3.7A1.153,1.153,0,0,0,159.406,15.43Zm13.164-2.578a5.119,5.119,0,0,1-.867,3.168,2.872,2.872,0,0,1-2.422,1.137,2.639,2.639,0,0,1-2.2-1.055l-.1.9h-2.031V5h2.258V9.3a2.571,2.571,0,0,1,2.055-.914,2.9,2.9,0,0,1,2.426,1.137,5.126,5.126,0,0,1,.879,3.2Zm-2.258-.164a3.363,3.363,0,0,0-.406-1.871,1.374,1.374,0,0,0-1.211-.59,1.489,1.489,0,0,0-1.484.883v3.336a1.509,1.509,0,0,0,1.5.891,1.394,1.394,0,0,0,1.438-1.078A5.562,5.562,0,0,0,170.313,12.688ZM176.344,17h-2.266V5h2.266Zm6.758,0a2.507,2.507,0,0,1-.227-.758,2.732,2.732,0,0,1-2.133.914,3,3,0,0,1-2.059-.719,2.312,2.312,0,0,1-.816-1.812,2.389,2.389,0,0,1,1-2.062,4.915,4.915,0,0,1,2.879-.727h1.039v-.484a1.393,1.393,0,0,0-.3-.937,1.183,1.183,0,0,0-.949-.352,1.345,1.345,0,0,0-.895.273.929.929,0,0,0-.324.75h-2.258a2.268,2.268,0,0,1,.453-1.359,3,3,0,0,1,1.281-.98,4.669,4.669,0,0,1,1.859-.355,3.689,3.689,0,0,1,2.48.785,2.747,2.747,0,0,1,.918,2.207v3.664a4.041,4.041,0,0,0,.336,1.82V17Zm-1.867-1.57a1.945,1.945,0,0,0,.922-.223,1.462,1.462,0,0,0,.625-.6V13.156h-.844q-1.7,0-1.8,1.172l-.008.133a.9.9,0,0,0,.3.7A1.153,1.153,0,0,0,181.234,15.43Zm17.141-2.578a5.07,5.07,0,0,1-.887,3.129,2.843,2.843,0,0,1-2.395,1.176,2.633,2.633,0,0,1-2.07-.891V20.25h-2.258V8.547h2.094l.078.828a2.654,2.654,0,0,1,2.141-.984,2.862,2.862,0,0,1,2.43,1.156,5.207,5.207,0,0,1,.867,3.188Zm-2.258-.164a3.327,3.327,0,0,0-.418-1.82,1.361,1.361,0,0,0-1.215-.641,1.479,1.479,0,0,0-1.461.813V14.5a1.5,1.5,0,0,0,1.477.836Q196.117,15.336,196.117,12.688Zm7.547,4.469a4.15,4.15,0,0,1-3.027-1.141,4.054,4.054,0,0,1-1.168-3.039v-.219a5.106,5.106,0,0,1,.492-2.277,3.612,3.612,0,0,1,1.395-1.547,3.914,3.914,0,0,1,2.059-.543,3.508,3.508,0,0,1,2.73,1.094,4.444,4.444,0,0,1,1,3.1v.922h-5.383a2.1,2.1,0,0,0,.66,1.328,2,2,0,0,0,1.395.5,2.437,2.437,0,0,0,2.039-.945l1.109,1.242a3.389,3.389,0,0,1-1.375,1.121A4.511,4.511,0,0,1,203.664,17.156Zm-.258-6.945a1.411,1.411,0,0,0-1.09.455,2.357,2.357,0,0,0-.535,1.3h3.141v-.181a1.681,1.681,0,0,0-.406-1.165A1.456,1.456,0,0,0,203.406,10.211Zm9.766.453a6.134,6.134,0,0,0-.812-.062,1.654,1.654,0,0,0-1.68.867V17h-2.258V8.547h2.133l.063,1.008A2.092,2.092,0,0,1,212.5,8.391a2.366,2.366,0,0,1,.7.1ZM216.641,17h-2.266V8.547h2.266Zm-2.4-10.641a1.112,1.112,0,0,1,.34-.836,1.465,1.465,0,0,1,1.848,0,1.105,1.105,0,0,1,.344.836,1.109,1.109,0,0,1-.348.844,1.448,1.448,0,0,1-1.836,0A1.109,1.109,0,0,1,214.242,6.359Zm3.906,6.336a5.013,5.013,0,0,1,.484-2.242,3.546,3.546,0,0,1,1.395-1.523,4.069,4.069,0,0,1,2.113-.539,3.849,3.849,0,0,1,2.793,1.047,4.2,4.2,0,0,1,1.207,2.844l.016.578a4.418,4.418,0,0,1-1.086,3.121,4.209,4.209,0,0,1-5.832,0,4.5,4.5,0,0,1-1.09-3.187Zm2.258.16a3.16,3.16,0,0,0,.453,1.843,1.628,1.628,0,0,0,2.578.008,3.457,3.457,0,0,0,.461-2.015,3.128,3.128,0,0,0-.461-1.831,1.5,1.5,0,0,0-1.3-.649,1.474,1.474,0,0,0-1.281.646A3.516,3.516,0,0,0,220.406,12.856ZM222.586,5h2.461l-2.164,2.422h-1.836Zm4.609,7.711a5.094,5.094,0,0,1,.887-3.148,2.877,2.877,0,0,1,2.426-1.172,2.589,2.589,0,0,1,2.039.922V5h2.266V17h-2.039l-.109-.9a2.657,2.657,0,0,1-2.172,1.055A2.869,2.869,0,0,1,228.1,15.98,5.258,5.258,0,0,1,227.2,12.711Zm2.258.168a3.337,3.337,0,0,0,.414,1.823,1.349,1.349,0,0,0,1.2.634,1.511,1.511,0,0,0,1.477-.884V11.111a1.489,1.489,0,0,0-1.461-.884Q229.453,10.227,229.453,12.879ZM238.945,17H236.68V8.547h2.266Zm-2.4-10.641a1.112,1.112,0,0,1,.34-.836,1.465,1.465,0,0,1,1.848,0,1.105,1.105,0,0,1,.344.836,1.109,1.109,0,0,1-.348.844,1.448,1.448,0,0,1-1.836,0A1.109,1.109,0,0,1,236.547,6.359Zm7.773,8.977a1.481,1.481,0,0,0,1.016-.344,1.2,1.2,0,0,0,.406-.914h2.117a2.9,2.9,0,0,1-.469,1.574,3.093,3.093,0,0,1-1.262,1.109,3.949,3.949,0,0,1-1.77.395A3.67,3.67,0,0,1,241.5,16a4.56,4.56,0,0,1-1.047-3.184v-.148a4.508,4.508,0,0,1,1.039-3.117,3.627,3.627,0,0,1,2.852-1.164,3.555,3.555,0,0,1,2.543.9,3.2,3.2,0,0,1,.973,2.4h-2.117a1.551,1.551,0,0,0-.406-1.072,1.51,1.51,0,0,0-2.223.163,3.333,3.333,0,0,0-.4,1.866v.235a3.375,3.375,0,0,0,.4,1.878A1.377,1.377,0,0,0,244.32,15.336ZM254.047,17a2.507,2.507,0,0,1-.227-.758,2.732,2.732,0,0,1-2.133.914,3,3,0,0,1-2.059-.719,2.312,2.312,0,0,1-.816-1.812,2.389,2.389,0,0,1,1-2.062,4.915,4.915,0,0,1,2.879-.727h1.039v-.484a1.393,1.393,0,0,0-.3-.937,1.183,1.183,0,0,0-.949-.352,1.345,1.345,0,0,0-.895.273.929.929,0,0,0-.324.75H249a2.268,2.268,0,0,1,.453-1.359,3,3,0,0,1,1.281-.98,4.669,4.669,0,0,1,1.859-.355,3.689,3.689,0,0,1,2.48.785,2.747,2.747,0,0,1,.918,2.207v3.664a4.041,4.041,0,0,0,.336,1.82V17Zm-1.867-1.57a1.945,1.945,0,0,0,.922-.223,1.462,1.462,0,0,0,.625-.6V13.156h-.844q-1.7,0-1.8,1.172l-.008.133a.9.9,0,0,0,.3.7A1.153,1.153,0,0,0,252.18,15.43Z" transform="translate(5786.809 -349.453)" fill="#12263f"/>
    <g id="Grupo_178219" data-name="Grupo 178219" transform="translate(94.336 911.604)">
      <g id="Grupo_15322" data-name="Grupo 15322" transform="translate(5540.473 -1197.895)">
        <path id="Trazado_33791" data-name="Trazado 33791" d="M-735.385-300.363h31.833v31.833h-31.833v-31.833Z" transform="translate(794.011 332.514)" fill="#e50a17" fill-rule="evenodd"/>
        <path id="Trazado_33792" data-name="Trazado 33792" d="M-735.385-157.213h31.833v31.833h-31.833v-31.833Z" transform="translate(794.011 221.516)" fill="#e6a535" fill-rule="evenodd"/>
        <path id="Trazado_33793" data-name="Trazado 33793" d="M-735.385-14.063h31.833V17.77h-31.833V-14.063Z" transform="translate(794.011 110.518)" fill="#e8ea32" fill-rule="evenodd"/>
        <path id="Trazado_33794" data-name="Trazado 33794" d="M-735.385,129.086h31.833v31.833h-31.833V129.086Z" transform="translate(794.011 -0.48)" fill="#16a13b" fill-rule="evenodd"/>
        <path id="Trazado_33795" data-name="Trazado 33795" d="M-735.385,272.235h31.833v31.833h-31.833V272.235Z" transform="translate(794.011 -111.478)" fill="#1ba9e3" fill-rule="evenodd"/>
        <path id="Trazado_33796" data-name="Trazado 33796" d="M-735.385,415.386h31.833v31.833h-31.833V415.386Z" transform="translate(794.011 -222.477)" fill="#6c3292" fill-rule="evenodd"/>
        <path id="Trazado_33797" data-name="Trazado 33797" d="M1411.806-300.416h31.857v31.857h-31.857v-31.857Z" transform="translate(-870.92 332.556)" fill="#e50a17" fill-rule="evenodd"/>
        <path id="Trazado_33798" data-name="Trazado 33798" d="M1411.806-157.267h31.857v31.857h-31.857v-31.857Z" transform="translate(-870.92 221.558)" fill="#e6a535" fill-rule="evenodd"/>
        <path id="Trazado_33799" data-name="Trazado 33799" d="M1411.806-14.117h31.857V17.74h-31.857V-14.117Z" transform="translate(-870.92 110.56)" fill="#e8ea32" fill-rule="evenodd"/>
        <path id="Trazado_33800" data-name="Trazado 33800" d="M1411.806,129.032h31.857v31.857h-31.857V129.032Z" transform="translate(-870.92 -0.439)" fill="#16a13b" fill-rule="evenodd"/>
        <path id="Trazado_33801" data-name="Trazado 33801" d="M1411.806,272.182h31.857v31.857h-31.857V272.182Z" transform="translate(-870.92 -111.436)" fill="#1ba9e3" fill-rule="evenodd"/>
        <path id="Trazado_33802" data-name="Trazado 33802" d="M839.261-157.213h31.833v31.833H839.261v-31.833Z" transform="translate(-426.969 221.516)" fill="#e6a535" fill-rule="evenodd"/>
        <path id="Trazado_33803" data-name="Trazado 33803" d="M1268.71,415.386h31.833v31.833H1268.71V415.386Z" transform="translate(-759.965 -222.477)" fill="#6c3292" stroke="#707070" stroke-width="1" fill-rule="evenodd"/>
        <path id="Trazado_33804" data-name="Trazado 33804" d="M1125.559,415.386h31.833v31.833h-31.833V415.386Z" transform="translate(-648.965 -222.477)" fill="#6c3292" stroke="#707070" stroke-width="1" fill-rule="evenodd"/>
        <path id="Trazado_33805" data-name="Trazado 33805" d="M1125.559,272.235h31.833v31.833h-31.833V272.235Z" transform="translate(-648.965 -111.478)" fill="#1ba9e3" fill-rule="evenodd"/>
        <path id="Trazado_33806" data-name="Trazado 33806" d="M839.261,415.386h31.833v31.833H839.261V415.386Z" transform="translate(-426.969 -222.477)" fill="#6c3292" stroke="#707070" stroke-width="1" fill-rule="evenodd"/>
        <path id="Trazado_33807" data-name="Trazado 33807" d="M982.41,129.086h31.833v31.833H982.41V129.086Z" transform="translate(-537.968 -0.48)" fill="#16a13b" fill-rule="evenodd"/>
        <path id="Trazado_33808" data-name="Trazado 33808" d="M982.41,272.235h31.833v31.833H982.41V272.235Z" transform="translate(-537.968 -111.478)" fill="#1ba9e3" fill-rule="evenodd"/>
        <path id="Trazado_33809" data-name="Trazado 33809" d="M839.261-14.063h31.833V17.77H839.261V-14.063Z" transform="translate(-426.969 110.518)" fill="#e8ea32" fill-rule="evenodd"/>
        <path id="Trazado_33810" data-name="Trazado 33810" d="M839.261,129.086h31.833v31.833H839.261V129.086Z" transform="translate(-426.969 -0.48)" fill="#16a13b" fill-rule="evenodd"/>
        <path id="Trazado_33811" data-name="Trazado 33811" d="M839.261,272.235h31.833v31.833H839.261V272.235Z" transform="translate(-426.969 -111.478)" fill="#1ba9e3" fill-rule="evenodd"/>
        <path id="Trazado_33812" data-name="Trazado 33812" d="M982.41,415.386h31.833v31.833H982.41V415.386Z" transform="translate(-537.968 -222.477)" fill="#6c3292" stroke="#707070" stroke-width="1" fill-rule="evenodd"/>
        <path id="Trazado_33813" data-name="Trazado 33813" d="M-878.535-443.512H-846.7v31.833h-31.833v-31.833Z" transform="translate(905.01 443.512)" fill="#b11011" fill-rule="evenodd"/>
        <path id="Trazado_33814" data-name="Trazado 33814" d="M982.41-300.363h31.833v31.833H982.41v-31.833Z" transform="translate(-537.968 332.514)" fill="#e50a17" fill-rule="evenodd"/>
        <path id="Trazado_33815" data-name="Trazado 33815" d="M1125.559-300.363h31.833v31.833h-31.833v-31.833Z" transform="translate(-648.965 332.514)" fill="#e50a17" fill-rule="evenodd"/>
        <path id="Trazado_33816" data-name="Trazado 33816" d="M1268.71-300.363h31.833v31.833H1268.71v-31.833Z" transform="translate(-759.965 332.514)" fill="#e50a17" fill-rule="evenodd"/>
        <path id="Trazado_33817" data-name="Trazado 33817" d="M1125.559-157.213h31.833v31.833h-31.833v-31.833Z" transform="translate(-648.965 221.516)" fill="#e6a535" fill-rule="evenodd"/>
        <path id="Trazado_33818" data-name="Trazado 33818" d="M1268.71-157.213h31.833v31.833H1268.71v-31.833Z" transform="translate(-759.965 221.516)" fill="#e6a535" fill-rule="evenodd"/>
        <path id="Trazado_33819" data-name="Trazado 33819" d="M1268.71-14.063h31.833V17.77H1268.71V-14.063Z" transform="translate(-759.965 110.518)" fill="#e8ea32" fill-rule="evenodd"/>
        <path id="Trazado_33820" data-name="Trazado 33820" d="M1268.71,129.086h31.833v31.833H1268.71V129.086Z" transform="translate(-759.965 -0.48)" fill="#16a13b" fill-rule="evenodd"/>
        <path id="Trazado_33821" data-name="Trazado 33821" d="M1125.559-14.063h31.833V17.77h-31.833V-14.063Z" transform="translate(-648.965 110.518)" fill="#e8ea32" fill-rule="evenodd"/>
        <path id="Trazado_33822" data-name="Trazado 33822" d="M1125.559,129.086h31.833v31.833h-31.833V129.086Z" transform="translate(-648.965 -0.48)" fill="#16a13b" fill-rule="evenodd"/>
        <path id="Trazado_33823" data-name="Trazado 33823" d="M839.261-300.363h31.833v31.833H839.261v-31.833Z" transform="translate(-426.969 332.514)" fill="#e50a17" fill-rule="evenodd"/>
        <path id="Trazado_33824" data-name="Trazado 33824" d="M982.41-14.063h31.833V17.77H982.41V-14.063Z" transform="translate(-537.968 110.518)" fill="#e8ea32" fill-rule="evenodd"/>
        <path id="Trazado_33825" data-name="Trazado 33825" d="M982.41-157.213h31.833v31.833H982.41v-31.833Z" transform="translate(-537.968 221.516)" fill="#e6a535" fill-rule="evenodd"/>
        <path id="Trazado_33826" data-name="Trazado 33826" d="M1268.71,272.235h31.833v31.833H1268.71V272.235Z" transform="translate(-759.965 -111.478)" fill="#1ba9e3" fill-rule="evenodd"/>
        <path id="Trazado_33827" data-name="Trazado 33827" d="M-878.535-300.363H-846.7v31.833h-31.833v-31.833Z" transform="translate(905.01 332.514)" fill="#e50a17" fill-rule="evenodd"/>
        <path id="Trazado_33828" data-name="Trazado 33828" d="M-878.535-157.213H-846.7v31.833h-31.833v-31.833Z" transform="translate(905.01 221.516)" fill="#e6a535" fill-rule="evenodd"/>
        <path id="Trazado_33829" data-name="Trazado 33829" d="M-878.535-14.063H-846.7V17.77h-31.833V-14.063Z" transform="translate(905.01 110.518)" fill="#e8ea32" fill-rule="evenodd"/>
        <path id="Trazado_33830" data-name="Trazado 33830" d="M-878.535,129.086H-846.7v31.833h-31.833V129.086Z" transform="translate(905.01 -0.48)" fill="#16a13b" fill-rule="evenodd"/>
        <path id="Trazado_33831" data-name="Trazado 33831" d="M-878.535,272.235H-846.7v31.833h-31.833V272.235Z" transform="translate(905.01 -111.478)" fill="#1ba9e3" fill-rule="evenodd"/>
        <path id="Trazado_33832" data-name="Trazado 33832" d="M-878.535,415.386H-846.7v31.833h-31.833V415.386Z" transform="translate(905.01 -222.477)" fill="#6c3292" fill-rule="evenodd"/>
        <path id="Trazado_33833" data-name="Trazado 33833" d="M696.111,129.086h31.833v31.833H696.111V129.086Z" transform="translate(-315.971 -0.48)" fill="#16a13b" fill-rule="evenodd"/>
        <path id="Trazado_33834" data-name="Trazado 33834" d="M696.111,272.235h31.833v31.833H696.111V272.235Z" transform="translate(-315.971 -111.478)" fill="#1ba9e3" fill-rule="evenodd"/>
        <path id="Trazado_33835" data-name="Trazado 33835" d="M266.663,272.235H298.5v31.833H266.663V272.235Z" transform="translate(17.022 -111.478)" fill="#1ba9e3" fill-rule="evenodd"/>
        <path id="Trazado_33836" data-name="Trazado 33836" d="M552.962,415.386h31.833v31.833H552.962V415.386Z" transform="translate(-204.972 -222.477)" fill="#6c3292" stroke="#707070" stroke-width="1" fill-rule="evenodd"/>
        <path id="Trazado_33837" data-name="Trazado 33837" d="M696.111,415.386h31.833v31.833H696.111V415.386Z" transform="translate(-315.971 -222.477)" fill="#6c3292" stroke="#707070" stroke-width="1" fill-rule="evenodd"/>
        <path id="Trazado_33838" data-name="Trazado 33838" d="M266.663,415.386H298.5v31.833H266.663V415.386Z" transform="translate(17.022 -222.477)" fill="#6c3292" stroke="#707070" stroke-width="1" fill-rule="evenodd"/>
        <path id="Trazado_33839" data-name="Trazado 33839" d="M409.812,415.386h31.833v31.833H409.812V415.386Z" transform="translate(-93.975 -222.477)" fill="#6c3292" stroke="#707070" stroke-width="1" fill-rule="evenodd"/>
        <path id="Trazado_33840" data-name="Trazado 33840" d="M552.962,272.235h31.833v31.833H552.962V272.235Z" transform="translate(-204.972 -111.478)" fill="#1ba9e3" fill-rule="evenodd"/>
        <path id="Trazado_33841" data-name="Trazado 33841" d="M409.812,272.235h31.833v31.833H409.812V272.235Z" transform="translate(-93.975 -111.478)" fill="#1ba9e3" fill-rule="evenodd"/>
        <path id="Trazado_33842" data-name="Trazado 33842" d="M552.962,129.086h31.833v31.833H552.962V129.086Z" transform="translate(-204.972 -0.48)" fill="#16a13b" fill-rule="evenodd"/>
        <path id="Trazado_33843" data-name="Trazado 33843" d="M409.812,129.086h31.833v31.833H409.812V129.086Z" transform="translate(-93.975 -0.48)" fill="#16a13b" fill-rule="evenodd"/>
        <path id="Trazado_33844" data-name="Trazado 33844" d="M266.663,129.086H298.5v31.833H266.663V129.086Z" transform="translate(17.022 -0.48)" fill="#16a13b" fill-rule="evenodd"/>
        <path id="Trazado_33845" data-name="Trazado 33845" d="M696.111-14.063h31.833V17.77H696.111V-14.063Z" transform="translate(-315.971 110.518)" fill="#e8ea32" fill-rule="evenodd"/>
        <path id="Trazado_33846" data-name="Trazado 33846" d="M552.962-14.063h31.833V17.77H552.962V-14.063Z" transform="translate(-204.972 110.518)" fill="#e8ea32" fill-rule="evenodd"/>
        <path id="Trazado_33847" data-name="Trazado 33847" d="M409.812-14.063h31.833V17.77H409.812V-14.063Z" transform="translate(-93.975 110.518)" fill="#e8ea32" fill-rule="evenodd"/>
        <path id="Trazado_33848" data-name="Trazado 33848" d="M266.663-14.063H298.5V17.77H266.663V-14.063Z" transform="translate(17.022 110.518)" fill="#e8ea32" fill-rule="evenodd"/>
        <path id="Trazado_33849" data-name="Trazado 33849" d="M-162.787,272.235h31.833v31.833h-31.833V272.235Z" transform="translate(350.019 -111.478)" fill="#1ba9e3" fill-rule="evenodd"/>
        <path id="Trazado_33850" data-name="Trazado 33850" d="M123.513,415.386h31.833v31.833H123.513V415.386Z" transform="translate(128.021 -222.477)" fill="#6c3292" stroke="#707070" stroke-width="1" fill-rule="evenodd"/>
        <path id="Trazado_33851" data-name="Trazado 33851" d="M-162.787,415.386h31.833v31.833h-31.833V415.386Z" transform="translate(350.019 -222.477)" fill="#6c3292" stroke="#707070" stroke-width="1" fill-rule="evenodd"/>
        <path id="Trazado_33852" data-name="Trazado 33852" d="M-19.637,415.386H12.2v31.833H-19.637V415.386Z" transform="translate(239.02 -222.477)" fill="#6c3292" stroke="#707070" stroke-width="1" fill-rule="evenodd"/>
        <path id="Trazado_33853" data-name="Trazado 33853" d="M123.513,272.235h31.833v31.833H123.513V272.235Z" transform="translate(128.021 -111.478)" fill="#1ba9e3" fill-rule="evenodd"/>
        <path id="Trazado_33854" data-name="Trazado 33854" d="M-19.637,272.235H12.2v31.833H-19.637V272.235Z" transform="translate(239.02 -111.478)" fill="#1ba9e3" fill-rule="evenodd"/>
        <path id="Trazado_33855" data-name="Trazado 33855" d="M123.513,129.086h31.833v31.833H123.513V129.086Z" transform="translate(128.021 -0.48)" fill="#16a13b" fill-rule="evenodd"/>
        <path id="Trazado_33856" data-name="Trazado 33856" d="M-19.637,129.086H12.2v31.833H-19.637V129.086Z" transform="translate(239.02 -0.48)" fill="#16a13b" fill-rule="evenodd"/>
        <path id="Trazado_33857" data-name="Trazado 33857" d="M-162.787,129.086h31.833v31.833h-31.833V129.086Z" transform="translate(350.019 -0.48)" fill="#16a13b" fill-rule="evenodd"/>
        <path id="Trazado_33858" data-name="Trazado 33858" d="M123.513-14.063h31.833V17.77H123.513V-14.063Z" transform="translate(128.021 110.518)" fill="#e8ea32" fill-rule="evenodd"/>
        <path id="Trazado_33859" data-name="Trazado 33859" d="M-19.637-14.063H12.2V17.77H-19.637V-14.063Z" transform="translate(239.02 110.518)" fill="#e8ea32" fill-rule="evenodd"/>
        <path id="Trazado_33860" data-name="Trazado 33860" d="M-162.787-14.063h31.833V17.77h-31.833V-14.063Z" transform="translate(350.019 110.518)" fill="#e8ea32" fill-rule="evenodd"/>
        <path id="Trazado_33861" data-name="Trazado 33861" d="M-305.936,415.386H-274.1v31.833h-31.833V415.386Z" transform="translate(461.016 -222.477)" fill="#6c3292" stroke="#707070" stroke-width="1" fill-rule="evenodd"/>
        <path id="Trazado_33862" data-name="Trazado 33862" d="M-449.086,415.386h31.833v31.833h-31.833V415.386Z" transform="translate(572.015 -222.477)" fill="#6c3292" stroke="#707070" stroke-width="1" fill-rule="evenodd"/>
        <path id="Trazado_33863" data-name="Trazado 33863" d="M-305.936,272.235H-274.1v31.833h-31.833V272.235Z" transform="translate(461.016 -111.478)" fill="#1ba9e3" fill-rule="evenodd"/>
        <path id="Trazado_33864" data-name="Trazado 33864" d="M-449.086,272.235h31.833v31.833h-31.833V272.235Z" transform="translate(572.015 -111.478)" fill="#1ba9e3" fill-rule="evenodd"/>
        <path id="Trazado_33865" data-name="Trazado 33865" d="M-305.936,129.086H-274.1v31.833h-31.833V129.086Z" transform="translate(461.016 -0.48)" fill="#16a13b" fill-rule="evenodd"/>
        <path id="Trazado_33866" data-name="Trazado 33866" d="M-449.086,129.086h31.833v31.833h-31.833V129.086Z" transform="translate(572.015 -0.48)" fill="#16a13b" fill-rule="evenodd"/>
        <path id="Trazado_33867" data-name="Trazado 33867" d="M-592.235,129.086H-560.4v31.833h-31.833V129.086Z" transform="translate(683.013 -0.48)" fill="#16a13b" fill-rule="evenodd"/>
        <path id="Trazado_33868" data-name="Trazado 33868" d="M-305.936-14.063H-274.1V17.77h-31.833V-14.063Z" transform="translate(461.016 110.518)" fill="#e8ea32" fill-rule="evenodd"/>
        <path id="Trazado_33869" data-name="Trazado 33869" d="M-449.086-14.063h31.833V17.77h-31.833V-14.063Z" transform="translate(572.015 110.518)" fill="#e8ea32" fill-rule="evenodd"/>
        <path id="Trazado_33870" data-name="Trazado 33870" d="M-592.235-14.063H-560.4V17.77h-31.833V-14.063Z" transform="translate(683.013 110.518)" fill="#e8ea32" fill-rule="evenodd"/>
        <path id="Trazado_33871" data-name="Trazado 33871" d="M1555.009-443.512h31.833v31.833h-31.833v-31.833Z" transform="translate(-981.96 443.512)" fill="#b11011" fill-rule="evenodd"/>
        <path id="Trazado_33872" data-name="Trazado 33872" d="M1555.009-300.363h31.833v31.833h-31.833v-31.833Z" transform="translate(-981.96 332.514)" fill="#e50a17" fill-rule="evenodd"/>
        <path id="Trazado_33873" data-name="Trazado 33873" d="M1555.009-157.213h31.833v31.833h-31.833v-31.833Z" transform="translate(-981.96 221.516)" fill="#e6a535" fill-rule="evenodd"/>
        <path id="Trazado_33874" data-name="Trazado 33874" d="M1555.009-14.063h31.833V17.77h-31.833V-14.063Z" transform="translate(-981.96 110.518)" fill="#e8ea32" fill-rule="evenodd"/>
        <path id="Trazado_33875" data-name="Trazado 33875" d="M1555.009,129.086h31.833v31.833h-31.833V129.086Z" transform="translate(-981.96 -0.48)" fill="#16a13b" fill-rule="evenodd"/>
        <path id="Trazado_33876" data-name="Trazado 33876" d="M1555.009,272.235h31.833v31.833h-31.833V272.235Z" transform="translate(-981.96 -111.478)" fill="#1ba9e3" fill-rule="evenodd"/>
        <path id="Trazado_33877" data-name="Trazado 33877" d="M1411.859,632.235h31.833v31.833h-31.833V632.235Z" transform="translate(-870.961 -390.622)" fill="#1ba9e3" fill-rule="evenodd"/>
        <path id="Trazado_33878" data-name="Trazado 33878" d="M1268.71,632.235h31.833v31.833H1268.71V632.235Z" transform="translate(-759.965 -390.622)" fill="#1ba9e3" fill-rule="evenodd"/>
        <path id="Trazado_33879" data-name="Trazado 33879" d="M1125.559,632.235h31.833v31.833h-31.833V632.235Z" transform="translate(-648.965 -390.622)" fill="#1ba9e3" fill-rule="evenodd"/>
        <path id="Trazado_33880" data-name="Trazado 33880" d="M982.41,632.235h31.833v31.833H982.41V632.235Z" transform="translate(-537.968 -390.622)" fill="#1ba9e3" fill-rule="evenodd"/>
        <path id="Trazado_33881" data-name="Trazado 33881" d="M839.261,632.235h31.833v31.833H839.261V632.235Z" transform="translate(-426.969 -390.622)" fill="#1ba9e3" fill-rule="evenodd"/>
        <path id="Trazado_33882" data-name="Trazado 33882" d="M696.111,632.235h31.833v31.833H696.111V632.235Z" transform="translate(-315.971 -390.622)" fill="#1ba9e3" fill-rule="evenodd"/>
        <path id="Trazado_33883" data-name="Trazado 33883" d="M552.962,632.235h31.833v31.833H552.962V632.235Z" transform="translate(-204.972 -390.622)" fill="#1ba9e3" fill-rule="evenodd"/>
        <path id="Trazado_33884" data-name="Trazado 33884" d="M409.812,632.235h31.833v31.833H409.812V632.235Z" transform="translate(-93.975 -390.622)" fill="#1ba9e3" fill-rule="evenodd"/>
        <path id="Trazado_33885" data-name="Trazado 33885" d="M266.663,632.235H298.5v31.833H266.663V632.235Z" transform="translate(17.022 -390.622)" fill="#1ba9e3" fill-rule="evenodd"/>
        <path id="Trazado_33886" data-name="Trazado 33886" d="M123.513,632.235h31.833v31.833H123.513V632.235Z" transform="translate(128.021 -390.622)" fill="#1ba9e3" fill-rule="evenodd"/>
        <path id="Trazado_33887" data-name="Trazado 33887" d="M-19.637,632.235H12.2v31.833H-19.637V632.235Z" transform="translate(239.02 -390.622)" fill="#1ba9e3" fill-rule="evenodd"/>
        <path id="Trazado_33888" data-name="Trazado 33888" d="M-162.787,632.235h31.833v31.833h-31.833V632.235Z" transform="translate(350.019 -390.622)" fill="#1ba9e3" fill-rule="evenodd"/>
        <path id="Trazado_33889" data-name="Trazado 33889" d="M-305.936,632.235H-274.1v31.833h-31.833V632.235Z" transform="translate(461.016 -390.622)" fill="#1ba9e3" fill-rule="evenodd"/>
        <path id="Trazado_33890" data-name="Trazado 33890" d="M-449.086,632.235h31.833v31.833h-31.833V632.235Z" transform="translate(572.015 -390.622)" fill="#1ba9e3" fill-rule="evenodd"/>
        <path id="Trazado_33891" data-name="Trazado 33891" d="M-592.235,632.235H-560.4v31.833h-31.833V632.235Z" transform="translate(683.013 -390.622)" fill="#1ba9e3" fill-rule="evenodd"/>
        <path id="Trazado_33892" data-name="Trazado 33892" d="M1411.859,775.386h31.833v31.833h-31.833V775.386Z" transform="translate(-870.961 -501.621)" fill="#6c3292" fill-rule="evenodd"/>
        <path id="Trazado_33893" data-name="Trazado 33893" d="M1268.71,775.386h31.833v31.833H1268.71V775.386Z" transform="translate(-759.965 -501.621)" fill="#6c3292" fill-rule="evenodd"/>
        <path id="Trazado_33894" data-name="Trazado 33894" d="M1125.559,775.386h31.833v31.833h-31.833V775.386Z" transform="translate(-648.965 -501.621)" fill="#6c3292" fill-rule="evenodd"/>
        <path id="Trazado_33895" data-name="Trazado 33895" d="M982.41,775.386h31.833v31.833H982.41V775.386Z" transform="translate(-537.968 -501.621)" fill="#6c3292" fill-rule="evenodd"/>
        <path id="Trazado_33896" data-name="Trazado 33896" d="M839.261,775.386h31.833v31.833H839.261V775.386Z" transform="translate(-426.969 -501.621)" fill="#6c3292" fill-rule="evenodd"/>
        <path id="Trazado_33897" data-name="Trazado 33897" d="M696.111,775.386h31.833v31.833H696.111V775.386Z" transform="translate(-315.971 -501.621)" fill="#6c3292" fill-rule="evenodd"/>
        <path id="Trazado_33898" data-name="Trazado 33898" d="M552.962,775.386h31.833v31.833H552.962V775.386Z" transform="translate(-204.972 -501.621)" fill="#6c3292" fill-rule="evenodd"/>
        <path id="Trazado_33899" data-name="Trazado 33899" d="M409.812,775.386h31.833v31.833H409.812V775.386Z" transform="translate(-93.975 -501.621)" fill="#6c3292" fill-rule="evenodd"/>
        <path id="Trazado_33900" data-name="Trazado 33900" d="M266.663,775.386H298.5v31.833H266.663V775.386Z" transform="translate(17.022 -501.621)" fill="#6c3292" fill-rule="evenodd"/>
        <path id="Trazado_33901" data-name="Trazado 33901" d="M123.513,775.386h31.833v31.833H123.513V775.386Z" transform="translate(128.021 -501.621)" fill="#6c3292" fill-rule="evenodd"/>
        <path id="Trazado_33902" data-name="Trazado 33902" d="M-19.637,775.386H12.2v31.833H-19.637V775.386Z" transform="translate(239.02 -501.621)" fill="#6c3292" fill-rule="evenodd"/>
        <path id="Trazado_33903" data-name="Trazado 33903" d="M-162.787,775.386h31.833v31.833h-31.833V775.386Z" transform="translate(350.019 -501.621)" fill="#6c3292" fill-rule="evenodd"/>
        <path id="Trazado_33904" data-name="Trazado 33904" d="M-305.936,775.386H-274.1v31.833h-31.833V775.386Z" transform="translate(461.016 -501.621)" fill="#6c3292" fill-rule="evenodd"/>
        <path id="Trazado_33905" data-name="Trazado 33905" d="M-449.086,775.386h31.833v31.833h-31.833V775.386Z" transform="translate(572.015 -501.621)" fill="#6c3292" fill-rule="evenodd"/>
        <path id="Trazado_33906" data-name="Trazado 33906" d="M-592.235,775.386H-560.4v31.833h-31.833V775.386Z" transform="translate(683.013 -501.621)" fill="#6c3292" fill-rule="evenodd"/>
        <path id="Trazado_33907" data-name="Trazado 33907" d="M-592.235,129.086H-560.4v31.833h-31.833V129.086Z" transform="translate(683.013 63.97)" fill="#6c3292" fill-rule="evenodd"/>
        <path id="Trazado_33908" data-name="Trazado 33908" d="M-592.235-14.063H-560.4V17.77h-31.833V-14.063Z" transform="translate(683.013 174.967)" fill="#1ba9e3" fill-rule="evenodd"/>
        <path id="Trazado_33909" data-name="Trazado 33909" d="M-592.235-14.063H-560.4L-576.114,2.268l-16.122,15.5V-14.063Z" transform="translate(683.013 174.967)" fill="#1ba9e3" fill-rule="evenodd"/>
        <path id="Trazado_33910" data-name="Trazado 33910" d="M-592.235-14.063H-560.4L-576.114,2.268l-16.122,15.5V-14.063Z" transform="translate(683.013 207.468)" fill="#6c3292" fill-rule="evenodd"/>
        <path id="Trazado_33912" data-name="Trazado 33912" d="M4.859-15.6H6.782V-5.462H4.768v-8.062L2.438-11.356v-2.077Zm7.627,4.336a2.374,2.374,0,0,1-1.687-.649,2.1,2.1,0,0,1-.691-1.589A2.107,2.107,0,0,1,10.8-15.1a2.367,2.367,0,0,1,1.687-.653,2.391,2.391,0,0,1,1.694.653,2.1,2.1,0,0,1,.7,1.593,2.1,2.1,0,0,1-.695,1.586A2.388,2.388,0,0,1,12.486-11.265Zm-.877-1.361a1.208,1.208,0,0,0,.877.358,1.2,1.2,0,0,0,.877-.361,1.184,1.184,0,0,0,.365-.874,1.184,1.184,0,0,0-.365-.874,1.2,1.2,0,0,0-.877-.361,1.19,1.19,0,0,0-.874.361,1.19,1.19,0,0,0-.361.874A1.208,1.208,0,0,0,11.609-12.626Z" transform="translate(-1.154 24.335)" fill="#082143"/>
        <path id="Trazado_33913" data-name="Trazado 33913" d="M3.9-7.269H8.224v1.8H1.074V-6.988l4.034-4.119a2.539,2.539,0,0,0,.877-1.747,1.236,1.236,0,0,0-.361-.94A1.423,1.423,0,0,0,4.6-14.138q-1.438,0-1.438,1.635v.751l-2.014-.2v-.505A3.162,3.162,0,0,1,2.078-14.9a3.547,3.547,0,0,1,2.512-.86,3.716,3.716,0,0,1,2.445.779,2.625,2.625,0,0,1,.944,2.14,3.035,3.035,0,0,1-.319,1.389A5.807,5.807,0,0,1,6.645-10.1Zm8.111-4a2.374,2.374,0,0,1-1.687-.649,2.1,2.1,0,0,1-.691-1.589,2.107,2.107,0,0,1,.691-1.593,2.367,2.367,0,0,1,1.687-.653,2.391,2.391,0,0,1,1.694.653,2.1,2.1,0,0,1,.7,1.593,2.1,2.1,0,0,1-.695,1.586A2.388,2.388,0,0,1,12.013-11.268Zm-.877-1.361a1.208,1.208,0,0,0,.877.358,1.2,1.2,0,0,0,.877-.361,1.184,1.184,0,0,0,.365-.874,1.184,1.184,0,0,0-.365-.874,1.2,1.2,0,0,0-.877-.361,1.19,1.19,0,0,0-.874.361,1.19,1.19,0,0,0-.361.874A1.208,1.208,0,0,0,11.136-12.629Z" transform="translate(-0.681 58.303)" fill="#082143"/>
        <path id="Trazado_33914" data-name="Trazado 33914" d="M4.612-5.322a3.638,3.638,0,0,1-2.764-.926,4.017,4.017,0,0,1-.87-2.835l2.07-.091a7.33,7.33,0,0,0,.032.744,2.571,2.571,0,0,0,.126.575,1.029,1.029,0,0,0,.267.432,1.211,1.211,0,0,0,.456.249,2.254,2.254,0,0,0,.684.091,1.644,1.644,0,0,0,1.2-.407,1.422,1.422,0,0,0,.417-1.066,1.434,1.434,0,0,0-.4-1.1,1.505,1.505,0,0,0-1.074-.375H4.359V-11.6h.365a1.1,1.1,0,0,0,.838-.358,1.276,1.276,0,0,0,.333-.905,1.02,1.02,0,0,0-.365-.842A1.483,1.483,0,0,0,4.57-14a1.441,1.441,0,0,0-.547.095,1.021,1.021,0,0,0-.368.242,1.07,1.07,0,0,0-.218.372,1.954,1.954,0,0,0-.105.442,4.414,4.414,0,0,0-.025.491l-2.042-.1a3.246,3.246,0,0,1,.87-2.438,3.317,3.317,0,0,1,2.414-.845,3.45,3.45,0,0,1,2.315.775,2.428,2.428,0,0,1,.912,1.926,2.192,2.192,0,0,1-.389,1.305,2.229,2.229,0,0,1-.888.772,2.5,2.5,0,0,1,.646.288,2.646,2.646,0,0,1,.565.484,2.16,2.16,0,0,1,.417.737,2.964,2.964,0,0,1,.154.982,2.865,2.865,0,0,1-1,2.291A3.958,3.958,0,0,1,4.612-5.322Zm7.367-5.943a2.374,2.374,0,0,1-1.687-.649A2.1,2.1,0,0,1,9.6-13.5a2.107,2.107,0,0,1,.691-1.593,2.367,2.367,0,0,1,1.687-.653,2.391,2.391,0,0,1,1.694.653,2.1,2.1,0,0,1,.7,1.593,2.1,2.1,0,0,1-.695,1.586A2.388,2.388,0,0,1,11.979-11.265ZM11.1-12.626a1.208,1.208,0,0,0,.877.358,1.2,1.2,0,0,0,.877-.361,1.184,1.184,0,0,0,.365-.874,1.184,1.184,0,0,0-.365-.874,1.2,1.2,0,0,0-.877-.361,1.19,1.19,0,0,0-.874.361,1.19,1.19,0,0,0-.361.874A1.208,1.208,0,0,0,11.1-12.626Z" transform="translate(-0.648 88.998)" fill="#082143"/>
        <path id="Trazado_33915" data-name="Trazado 33915" d="M8.38-9.188v1.8H7.159v1.922H5.139V-7.385H.473v-1.81L4.065-15.6H7.159v6.413Zm-6.034,0H5.139v-5.2ZM11.8-11.265a2.374,2.374,0,0,1-1.687-.649A2.1,2.1,0,0,1,9.426-13.5a2.107,2.107,0,0,1,.691-1.593,2.367,2.367,0,0,1,1.687-.653A2.391,2.391,0,0,1,13.5-15.1a2.1,2.1,0,0,1,.7,1.593,2.1,2.1,0,0,1-.695,1.586A2.388,2.388,0,0,1,11.8-11.265Zm-.877-1.361a1.208,1.208,0,0,0,.877.358,1.2,1.2,0,0,0,.877-.361,1.184,1.184,0,0,0,.365-.874,1.184,1.184,0,0,0-.365-.874,1.2,1.2,0,0,0-.877-.361,1.19,1.19,0,0,0-.874.361,1.19,1.19,0,0,0-.361.874A1.208,1.208,0,0,0,10.927-12.626Z" transform="translate(-0.473 122.962)" fill="#082143"/>
        <path id="Trazado_33916" data-name="Trazado 33916" d="M4.508-12.036q3.894,0,3.894,3.2A3.418,3.418,0,0,1,7.42-6.272a3.55,3.55,0,0,1-2.589.958A4.3,4.3,0,0,1,3.017-5.69,3.13,3.13,0,0,1,1.7-6.806a2.988,2.988,0,0,1-.5-1.708,3.154,3.154,0,0,1,.042-.505l2.007-.091a2.966,2.966,0,0,0-.049.449,1.365,1.365,0,0,0,.456,1.119,1.719,1.719,0,0,0,1.13.375A1.557,1.557,0,0,0,5.967-7.6,1.607,1.607,0,0,0,6.381-8.76a1.445,1.445,0,0,0-.505-1.186,2.705,2.705,0,0,0-1.7-.414H1.519L1.94-15.6H7.925v1.8H3.757l-.133,1.761Zm7.55.772a2.374,2.374,0,0,1-1.687-.649A2.1,2.1,0,0,1,9.679-13.5,2.107,2.107,0,0,1,10.37-15.1a2.367,2.367,0,0,1,1.687-.653,2.391,2.391,0,0,1,1.694.653,2.1,2.1,0,0,1,.7,1.593,2.1,2.1,0,0,1-.695,1.586A2.388,2.388,0,0,1,12.057-11.265Zm-.877-1.361a1.208,1.208,0,0,0,.877.358,1.2,1.2,0,0,0,.877-.361A1.184,1.184,0,0,0,13.3-13.5a1.184,1.184,0,0,0-.365-.874,1.2,1.2,0,0,0-.877-.361,1.19,1.19,0,0,0-.874.361,1.19,1.19,0,0,0-.361.874A1.208,1.208,0,0,0,11.18-12.626Z" transform="translate(-0.726 156.927)" fill="#082143"/>
        <path id="Trazado_33917" data-name="Trazado 33917" d="M8.307-8.865a3.305,3.305,0,0,1-.3,1.424,3.361,3.361,0,0,1-.821,1.126,3.865,3.865,0,0,1-1.2.723,3.99,3.99,0,0,1-1.438.263A3.982,3.982,0,0,1,3.083-5.6,3.6,3.6,0,0,1,1.9-6.339a3.439,3.439,0,0,1-.782-1.126A3.43,3.43,0,0,1,.827-8.858a4.214,4.214,0,0,1,.9-2.477L4.883-15.6H7.177L4.546-12.17a3.418,3.418,0,0,1,.463-.028,3.305,3.305,0,0,1,1.245.239A3.372,3.372,0,0,1,7.3-11.3a3.068,3.068,0,0,1,.726,1.056A3.547,3.547,0,0,1,8.307-8.865ZM6.328-8.914a1.732,1.732,0,0,0-.491-1.309,1.786,1.786,0,0,0-1.326-.509,1.712,1.712,0,0,0-1.284.512,1.809,1.809,0,0,0-.512,1.277,1.735,1.735,0,0,0,.47,1.3,1.743,1.743,0,0,0,1.305.495,1.827,1.827,0,0,0,1.319-.491A1.712,1.712,0,0,0,6.328-8.914Zm5.6-2.35a2.374,2.374,0,0,1-1.687-.649A2.1,2.1,0,0,1,9.549-13.5,2.107,2.107,0,0,1,10.24-15.1a2.367,2.367,0,0,1,1.687-.653,2.391,2.391,0,0,1,1.694.653,2.1,2.1,0,0,1,.7,1.593,2.1,2.1,0,0,1-.695,1.586A2.388,2.388,0,0,1,11.927-11.265Zm-.877-1.361a1.208,1.208,0,0,0,.877.358,1.2,1.2,0,0,0,.877-.361,1.184,1.184,0,0,0,.365-.874,1.184,1.184,0,0,0-.365-.874,1.2,1.2,0,0,0-.877-.361,1.19,1.19,0,0,0-.874.361,1.19,1.19,0,0,0-.361.874A1.208,1.208,0,0,0,11.05-12.626Z" transform="translate(-0.596 187.625)" fill="#082143"/>
        <path id="Trazado_33918" data-name="Trazado 33918" d="M1.192-15.6H8.328v1.558L3.746-5.462H1.459l4.6-8.342H1.192Zm10.861,4.336a2.374,2.374,0,0,1-1.687-.649A2.1,2.1,0,0,1,9.675-13.5a2.107,2.107,0,0,1,.691-1.593,2.367,2.367,0,0,1,1.687-.653,2.391,2.391,0,0,1,1.694.653,2.1,2.1,0,0,1,.7,1.593,2.1,2.1,0,0,1-.695,1.586A2.388,2.388,0,0,1,12.054-11.265Zm-.877-1.361a1.208,1.208,0,0,0,.877.358,1.2,1.2,0,0,0,.877-.361A1.184,1.184,0,0,0,13.3-13.5a1.184,1.184,0,0,0-.365-.874,1.2,1.2,0,0,0-.877-.361,1.19,1.19,0,0,0-.874.361,1.19,1.19,0,0,0-.361.874A1.208,1.208,0,0,0,11.177-12.626Z" transform="translate(-0.722 218.324)" fill="#082143"/>
        <path id="Trazado_33919" data-name="Trazado 33919" d="M8.307-8.865a3.305,3.305,0,0,1-.3,1.424,3.361,3.361,0,0,1-.821,1.126,3.865,3.865,0,0,1-1.2.723,3.99,3.99,0,0,1-1.438.263A3.982,3.982,0,0,1,3.083-5.6,3.6,3.6,0,0,1,1.9-6.339a3.439,3.439,0,0,1-.782-1.126A3.43,3.43,0,0,1,.827-8.858a4.214,4.214,0,0,1,.9-2.477L4.883-15.6H7.177L4.546-12.17a3.418,3.418,0,0,1,.463-.028,3.305,3.305,0,0,1,1.245.239A3.372,3.372,0,0,1,7.3-11.3a3.068,3.068,0,0,1,.726,1.056A3.547,3.547,0,0,1,8.307-8.865ZM6.328-8.914a1.732,1.732,0,0,0-.491-1.309,1.786,1.786,0,0,0-1.326-.509,1.712,1.712,0,0,0-1.284.512,1.809,1.809,0,0,0-.512,1.277,1.735,1.735,0,0,0,.47,1.3,1.743,1.743,0,0,0,1.305.495,1.827,1.827,0,0,0,1.319-.491A1.712,1.712,0,0,0,6.328-8.914Zm5.6-2.35a2.374,2.374,0,0,1-1.687-.649A2.1,2.1,0,0,1,9.549-13.5,2.107,2.107,0,0,1,10.24-15.1a2.367,2.367,0,0,1,1.687-.653,2.391,2.391,0,0,1,1.694.653,2.1,2.1,0,0,1,.7,1.593,2.1,2.1,0,0,1-.695,1.586A2.388,2.388,0,0,1,11.927-11.265Zm-.877-1.361a1.208,1.208,0,0,0,.877.358,1.2,1.2,0,0,0,.877-.361,1.184,1.184,0,0,0,.365-.874,1.184,1.184,0,0,0-.365-.874,1.2,1.2,0,0,0-.877-.361,1.19,1.19,0,0,0-.874.361,1.19,1.19,0,0,0-.361.874A1.208,1.208,0,0,0,11.05-12.626Z" transform="translate(66.68 267.964)" fill="#082143"/>
        <path id="Trazado_33920" data-name="Trazado 33920" d="M1.192-15.6H8.328v1.558L3.746-5.462H1.459l4.6-8.342H1.192Zm10.861,4.336a2.374,2.374,0,0,1-1.687-.649A2.1,2.1,0,0,1,9.675-13.5a2.107,2.107,0,0,1,.691-1.593,2.367,2.367,0,0,1,1.687-.653,2.391,2.391,0,0,1,1.694.653,2.1,2.1,0,0,1,.7,1.593,2.1,2.1,0,0,1-.695,1.586A2.388,2.388,0,0,1,12.054-11.265Zm-.877-1.361a1.208,1.208,0,0,0,.877.358,1.2,1.2,0,0,0,.877-.361A1.184,1.184,0,0,0,13.3-13.5a1.184,1.184,0,0,0-.365-.874,1.2,1.2,0,0,0-.877-.361,1.19,1.19,0,0,0-.874.361,1.19,1.19,0,0,0-.361.874A1.208,1.208,0,0,0,11.177-12.626Z" transform="translate(66.553 298.663)" fill="#082143"/>
      </g>
    </g>
  </g>
</svg>
