<svg xmlns="http://www.w3.org/2000/svg" width="898" height="694" viewBox="0 0 898 694"><g transform="translate(-301 -4975)"><rect width="199" height="112" rx="17" transform="translate(301 4986)" fill="#98d8f8"/><rect width="140" height="81" rx="13" transform="translate(331 5184)" fill="#98d8f8"/><rect width="199" height="112" rx="17" transform="translate(580 5165)" fill="#98d8f8"/><rect width="199" height="112" rx="17" transform="translate(879.577 5179)" fill="#98d8f8"/><rect width="144" height="96" rx="17" transform="translate(331 5380)" fill="#d8f8d8"/><rect width="199" height="112" rx="17" transform="translate(580 5364)" fill="#d8f8d8"/><rect width="199" height="112" rx="17" transform="translate(870 5364)" fill="#d8f8d8"/><rect width="199" height="112" rx="17" transform="translate(301 5557)" fill="#d8f8d8"/><rect width="199" height="112" rx="17" transform="translate(1000 5557)" fill="#d8f8d8"/><text transform="translate(317 5019)" fill="#00223d" font-size="18" font-family="Roboto-Bold, Roboto" font-weight="700"><tspan x="0" y="0">HIDRURO METÁLICO</tspan></text><text transform="translate(335 5048)" fill="#00223d" font-size="18" font-family="Roboto-Regular, Roboto"><tspan x="0" y="0">Hidruro de sodio</tspan></text><text transform="translate(383 5079)" fill="#fc0000" font-size="18" font-family="Roboto-Regular, Roboto"><tspan x="0" y="0">NaH</tspan></text><text transform="translate(373 5216)" fill="#00223d" font-size="18" font-family="Roboto-Bold, Roboto" font-weight="700"><tspan x="0" y="0">METAL</tspan></text><path d="M5.256-5.7A7.935,7.935,0,0,1,2.1-7.238a2.93,2.93,0,0,1-.989-2.246,3.1,3.1,0,0,1,1.208-2.5,4.8,4.8,0,0,1,3.142-.989,5.243,5.243,0,0,1,2.351.51,3.866,3.866,0,0,1,1.6,1.406A3.6,3.6,0,0,1,9.976-9.1h-1.7a2.34,2.34,0,0,0-.738-1.83,3,3,0,0,0-2.083-.666,3.074,3.074,0,0,0-1.947.55,1.836,1.836,0,0,0-.7,1.528A1.652,1.652,0,0,0,3.476-8.19,6.509,6.509,0,0,0,5.735-7.2a10.481,10.481,0,0,1,2.5.99A3.788,3.788,0,0,1,9.567-4.948,3.219,3.219,0,0,1,10-3.252,2.99,2.99,0,0,1,8.789-.76,5.171,5.171,0,0,1,5.546.176,6.015,6.015,0,0,1,3.085-.33,4.142,4.142,0,0,1,1.323-1.714a3.378,3.378,0,0,1-.62-2H2.4a2.2,2.2,0,0,0,.857,1.833,3.608,3.608,0,0,0,2.29.672,3.317,3.317,0,0,0,2.048-.545,1.77,1.77,0,0,0,.712-1.485,1.738,1.738,0,0,0-.659-1.455A7.6,7.6,0,0,0,5.256-5.7Zm6.223.861a5.617,5.617,0,0,1,.549-2.514,4.1,4.1,0,0,1,1.529-1.723,4.163,4.163,0,0,1,2.237-.606,4.01,4.01,0,0,1,3.142,1.345,5.174,5.174,0,0,1,1.2,3.577v.114A5.666,5.666,0,0,1,19.6-2.158,4.038,4.038,0,0,1,18.083-.439a4.211,4.211,0,0,1-2.272.615,4,4,0,0,1-3.133-1.345,5.147,5.147,0,0,1-1.2-3.56Zm1.635.193a4.068,4.068,0,0,0,.734,2.54,2.349,2.349,0,0,0,1.964.958,2.335,2.335,0,0,0,1.969-.971,4.449,4.449,0,0,0,.729-2.72,4.061,4.061,0,0,0-.743-2.536,2.361,2.361,0,0,0-1.973-.971,2.335,2.335,0,0,0-1.942.958A4.416,4.416,0,0,0,13.113-4.649Zm8.666-.185a5.571,5.571,0,0,1,1.037-3.52,3.28,3.28,0,0,1,2.716-1.332,3.3,3.3,0,0,1,2.646,1.143V-13.5H29.8V0H28.31L28.23-1.02a3.311,3.311,0,0,1-2.716,1.2,3.248,3.248,0,0,1-2.694-1.354,5.634,5.634,0,0,1-1.042-3.533Zm1.626.185a4.218,4.218,0,0,0,.668,2.531,2.159,2.159,0,0,0,1.846.914,2.372,2.372,0,0,0,2.259-1.389V-6.961a2.39,2.39,0,0,0-2.241-1.345,2.17,2.17,0,0,0-1.863.923A4.644,4.644,0,0,0,23.405-4.649ZM34.093,0H32.467V-9.51h1.626ZM32.335-12.032a.971.971,0,0,1,.242-.668.907.907,0,0,1,.716-.272.922.922,0,0,1,.721.272.96.96,0,0,1,.246.668.929.929,0,0,1-.246.659.938.938,0,0,1-.721.264.924.924,0,0,1-.716-.264A.938.938,0,0,1,32.335-12.032Zm3.929,7.189a5.617,5.617,0,0,1,.549-2.514,4.1,4.1,0,0,1,1.529-1.723,4.163,4.163,0,0,1,2.237-.606,4.01,4.01,0,0,1,3.142,1.345,5.174,5.174,0,0,1,1.2,3.577v.114a5.666,5.666,0,0,1-.532,2.492A4.038,4.038,0,0,1,42.869-.439,4.211,4.211,0,0,1,40.6.176a4,4,0,0,1-3.133-1.345,5.147,5.147,0,0,1-1.2-3.56Zm1.635.193a4.068,4.068,0,0,0,.734,2.54,2.349,2.349,0,0,0,1.964.958,2.335,2.335,0,0,0,1.969-.971,4.449,4.449,0,0,0,.729-2.72,4.061,4.061,0,0,0-.743-2.536,2.361,2.361,0,0,0-1.973-.971,2.335,2.335,0,0,0-1.942.958A4.416,4.416,0,0,0,37.9-4.649Z" transform="translate(378 5247)" fill="#fc0000"/><text transform="translate(619 5197)" fill="#00223d" font-size="18" font-family="Roboto-Bold, Roboto" font-weight="700"><tspan x="0" y="0">ÓXIDO BASICO</tspan></text><text transform="translate(621 5226)" fill="#00223d" font-size="18" font-family="Roboto-Regular, Roboto"><tspan x="0" y="0">Óxido de sodio</tspan></text><text transform="translate(659 5257)" fill="#fc0000" font-size="18" font-family="Roboto-Regular, Roboto"><tspan x="0" y="0">Na</tspan><tspan y="0" font-size="12">2</tspan><tspan y="0">O</tspan></text><text transform="translate(931.577 5211)" fill="#00223d" font-size="18" font-family="Roboto-Bold, Roboto" font-weight="700"><tspan x="0" y="0">HIDRÓXIDO</tspan></text><text transform="translate(905.577 5240)" fill="#00223d" font-size="18" font-family="Roboto-Regular, Roboto"><tspan x="0" y="0">Hidróxido de sodio</tspan></text><text transform="translate(945.577 5271)" fill="#fc0000" font-size="18" font-family="Roboto-Regular, Roboto"><tspan x="0" y="0">Na + OH</tspan></text><g transform="translate(0 -30)"><text transform="translate(360 5448)" fill="#00223d" font-size="18" font-family="Roboto-Bold, Roboto" font-weight="700"><tspan x="0" y="0">NO METAL</tspan></text><path d="M10.9-4.061A4.708,4.708,0,0,1,9.4-.927,4.911,4.911,0,0,1,6.047.176,4.509,4.509,0,0,1,2.413-1.45,6.542,6.542,0,0,1,1.046-5.8v-1.23a7.291,7.291,0,0,1,.637-3.138,4.76,4.76,0,0,1,1.806-2.079A5.029,5.029,0,0,1,6.2-12.973a4.624,4.624,0,0,1,3.27,1.138A4.765,4.765,0,0,1,10.9-8.684H9.2a3.677,3.677,0,0,0-.954-2.222A2.885,2.885,0,0,0,6.2-11.593a3.019,3.019,0,0,0-2.536,1.2,5.492,5.492,0,0,0-.918,3.4v1.24a5.645,5.645,0,0,0,.87,3.316A2.812,2.812,0,0,0,6.047-1.2,3.247,3.247,0,0,0,8.2-1.841a3.536,3.536,0,0,0,1-2.219ZM14.713,0H13.087V-13.5h1.626Zm2.171-4.843a5.617,5.617,0,0,1,.549-2.514,4.1,4.1,0,0,1,1.529-1.723A4.163,4.163,0,0,1,21.2-9.686a4.01,4.01,0,0,1,3.142,1.345,5.174,5.174,0,0,1,1.2,3.577v.114a5.666,5.666,0,0,1-.532,2.492A4.038,4.038,0,0,1,23.489-.439a4.211,4.211,0,0,1-2.272.615,4,4,0,0,1-3.133-1.345,5.147,5.147,0,0,1-1.2-3.56Zm1.635.193a4.068,4.068,0,0,0,.734,2.54,2.349,2.349,0,0,0,1.964.958,2.335,2.335,0,0,0,1.969-.971,4.449,4.449,0,0,0,.729-2.72,4.061,4.061,0,0,0-.743-2.536A2.361,2.361,0,0,0,21.2-8.35a2.335,2.335,0,0,0-1.942.958A4.416,4.416,0,0,0,18.519-4.649Zm13.658-3.4a4.873,4.873,0,0,0-.8-.062A2.143,2.143,0,0,0,29.206-6.75V0H27.58V-9.51h1.582l.026,1.1a2.532,2.532,0,0,1,2.268-1.274,1.661,1.661,0,0,1,.721.123Zm.888,3.208a5.617,5.617,0,0,1,.549-2.514,4.1,4.1,0,0,1,1.529-1.723,4.163,4.163,0,0,1,2.237-.606,4.01,4.01,0,0,1,3.142,1.345,5.174,5.174,0,0,1,1.2,3.577v.114a5.666,5.666,0,0,1-.532,2.492A4.038,4.038,0,0,1,39.669-.439,4.211,4.211,0,0,1,37.4.176a4,4,0,0,1-3.133-1.345,5.147,5.147,0,0,1-1.2-3.56Zm1.635.193a4.068,4.068,0,0,0,.734,2.54,2.349,2.349,0,0,0,1.964.958,2.335,2.335,0,0,0,1.969-.971,4.449,4.449,0,0,0,.729-2.72,4.061,4.061,0,0,0-.743-2.536A2.361,2.361,0,0,0,37.38-8.35a2.335,2.335,0,0,0-1.942.958A4.416,4.416,0,0,0,34.7-4.649Z" transform="translate(383 5482)" fill="#0f6e4c"/></g><text transform="translate(625 5398)" fill="#00223d" font-size="18" font-family="Roboto-Bold, Roboto" font-weight="700"><tspan x="0" y="0">ÓXIDO ÁCIDO</tspan></text><text transform="translate(598 5427)" fill="#0f6e4c" font-size="18" font-family="Roboto-Regular, Roboto"><tspan x="0" y="0">Monóxido de dicloro</tspan></text><text transform="translate(660 5458)" fill="#0f6e4c" font-size="18" font-family="Roboto-Regular, Roboto"><tspan x="0" y="0">CL</tspan><tspan y="0" font-size="12">2</tspan><tspan y="0">O</tspan></text><text transform="translate(926 5398)" fill="#00223d" font-size="18" font-family="Roboto-Bold, Roboto" font-weight="700"><tspan x="0" y="0">OXOÁCIDO</tspan></text><text transform="translate(897 5427)" fill="#0f6e4c" font-size="18" font-family="Roboto-Regular, Roboto"><tspan x="0" y="0">Ácido hiplocoroso</tspan></text><g transform="translate(-82 -39)"><text transform="translate(1014 5497)" fill="#0f6e4c" font-size="18" font-family="Roboto-Regular, Roboto"><tspan x="0" y="0" xml:space="preserve">H. +  CL</tspan></text><text transform="translate(1028 5487)" fill="#0f6e4c" font-size="13" font-family="Roboto-Regular, Roboto"><tspan x="0" y="0">4</tspan></text><text transform="translate(1083 5485)" fill="#0f6e4c" font-size="13" font-family="Roboto-Regular, Roboto"><tspan x="0" y="0">-</tspan></text></g><text transform="translate(401 5583)" fill="#00223d" font-size="18" font-family="Roboto-Bold, Roboto" font-weight="700"><tspan x="-55.507" y="0">HIDRURO NO </tspan><tspan x="-44.257" y="25">METÁLICO</tspan></text><path d="M10.9-4.061A4.708,4.708,0,0,1,9.4-.927,4.911,4.911,0,0,1,6.047.176,4.509,4.509,0,0,1,2.413-1.45,6.542,6.542,0,0,1,1.046-5.8v-1.23a7.291,7.291,0,0,1,.637-3.138,4.76,4.76,0,0,1,1.806-2.079A5.029,5.029,0,0,1,6.2-12.973a4.624,4.624,0,0,1,3.27,1.138A4.765,4.765,0,0,1,10.9-8.684H9.2a3.677,3.677,0,0,0-.954-2.222A2.885,2.885,0,0,0,6.2-11.593a3.019,3.019,0,0,0-2.536,1.2,5.492,5.492,0,0,0-.918,3.4v1.24a5.645,5.645,0,0,0,.87,3.316A2.812,2.812,0,0,0,6.047-1.2,3.247,3.247,0,0,0,8.2-1.841a3.536,3.536,0,0,0,1-2.219ZM14.713,0H13.087V-13.5h1.626Zm2.171-4.843a5.617,5.617,0,0,1,.549-2.514,4.1,4.1,0,0,1,1.529-1.723A4.163,4.163,0,0,1,21.2-9.686a4.01,4.01,0,0,1,3.142,1.345,5.174,5.174,0,0,1,1.2,3.577v.114a5.666,5.666,0,0,1-.532,2.492A4.038,4.038,0,0,1,23.489-.439a4.211,4.211,0,0,1-2.272.615,4,4,0,0,1-3.133-1.345,5.147,5.147,0,0,1-1.2-3.56Zm1.635.193a4.068,4.068,0,0,0,.734,2.54,2.349,2.349,0,0,0,1.964.958,2.335,2.335,0,0,0,1.969-.971,4.449,4.449,0,0,0,.729-2.72,4.061,4.061,0,0,0-.743-2.536A2.361,2.361,0,0,0,21.2-8.35a2.335,2.335,0,0,0-1.942.958A4.416,4.416,0,0,0,18.519-4.649Zm13.658-3.4a4.873,4.873,0,0,0-.8-.062A2.143,2.143,0,0,0,29.206-6.75V0H27.58V-9.51h1.582l.026,1.1a2.532,2.532,0,0,1,2.268-1.274,1.661,1.661,0,0,1,.721.123ZM39.542-.94A3.454,3.454,0,0,1,36.756.176,2.956,2.956,0,0,1,34.44-.708a3.823,3.823,0,0,1-.8-2.615V-9.51h1.626v6.144q0,2.162,1.758,2.162A2.434,2.434,0,0,0,39.5-2.593V-9.51h1.626V0H39.577Zm8.648-7.11a4.873,4.873,0,0,0-.8-.062A2.143,2.143,0,0,0,45.22-6.75V0H43.594V-9.51h1.582l.026,1.1A2.532,2.532,0,0,1,47.47-9.686a1.661,1.661,0,0,1,.721.123Zm.888,3.208a5.617,5.617,0,0,1,.549-2.514,4.1,4.1,0,0,1,1.529-1.723,4.163,4.163,0,0,1,2.237-.606,4.01,4.01,0,0,1,3.142,1.345,5.174,5.174,0,0,1,1.2,3.577v.114A5.666,5.666,0,0,1,57.2-2.158,4.038,4.038,0,0,1,55.683-.439a4.211,4.211,0,0,1-2.272.615,4,4,0,0,1-3.133-1.345,5.147,5.147,0,0,1-1.2-3.56Zm1.635.193a4.068,4.068,0,0,0,.734,2.54,2.349,2.349,0,0,0,1.964.958,2.335,2.335,0,0,0,1.969-.971,4.449,4.449,0,0,0,.729-2.72,4.061,4.061,0,0,0-.743-2.536,2.361,2.361,0,0,0-1.973-.971,2.335,2.335,0,0,0-1.942.958A4.416,4.416,0,0,0,50.713-4.649Zm13.122-.185a5.571,5.571,0,0,1,1.037-3.52,3.28,3.28,0,0,1,2.716-1.332,3.3,3.3,0,0,1,2.646,1.143V-13.5h1.626V0H70.365l-.079-1.02A3.311,3.311,0,0,1,67.57.176a3.248,3.248,0,0,1-2.694-1.354,5.634,5.634,0,0,1-1.042-3.533Zm1.626.185a4.218,4.218,0,0,0,.668,2.531,2.159,2.159,0,0,0,1.846.914,2.372,2.372,0,0,0,2.259-1.389V-6.961a2.39,2.39,0,0,0-2.241-1.345,2.17,2.17,0,0,0-1.863.923A4.644,4.644,0,0,0,65.461-4.649ZM78.328.176a4.155,4.155,0,0,1-3.146-1.27,4.714,4.714,0,0,1-1.213-3.4v-.3a5.707,5.707,0,0,1,.541-2.527,4.217,4.217,0,0,1,1.512-1.74,3.8,3.8,0,0,1,2.1-.628,3.562,3.562,0,0,1,2.883,1.222,5.289,5.289,0,0,1,1.028,3.5v.677H75.595a3.38,3.38,0,0,0,.822,2.272,2.583,2.583,0,0,0,2,.866A2.832,2.832,0,0,0,79.875-1.5a3.666,3.666,0,0,0,1.046-.932l.993.773A3.993,3.993,0,0,1,78.328.176Zm-.2-8.525a2.169,2.169,0,0,0-1.652.716,3.482,3.482,0,0,0-.826,2.008h4.764v-.123a3.1,3.1,0,0,0-.668-1.92A2.042,2.042,0,0,0,78.126-8.35ZM90-8.358a3.457,3.457,0,0,1,2.813-1.327q3.015,0,3.041,3.4V0H94.228V-6.293a2.189,2.189,0,0,0-.47-1.521,1.884,1.884,0,0,0-1.437-.492,2.347,2.347,0,0,0-1.389.422A2.865,2.865,0,0,0,90-6.776V0H88.374V-13.5H90ZM100.055,0H98.429V-9.51h1.626ZM98.3-12.032a.971.971,0,0,1,.242-.668.907.907,0,0,1,.716-.272.922.922,0,0,1,.721.272.96.96,0,0,1,.246.668.929.929,0,0,1-.246.659.938.938,0,0,1-.721.264.924.924,0,0,1-.716-.264A.938.938,0,0,1,98.3-12.032Zm3.964,7.2a5.571,5.571,0,0,1,1.037-3.52,3.28,3.28,0,0,1,2.716-1.332,3.3,3.3,0,0,1,2.646,1.143V-13.5h1.626V0h-1.494l-.079-1.02A3.311,3.311,0,0,1,106,.176,3.248,3.248,0,0,1,103.3-1.178a5.634,5.634,0,0,1-1.042-3.533Zm1.626.185a4.218,4.218,0,0,0,.668,2.531A2.159,2.159,0,0,0,106.4-1.2a2.372,2.372,0,0,0,2.259-1.389V-6.961a2.39,2.39,0,0,0-2.241-1.345,2.17,2.17,0,0,0-1.863.923A4.644,4.644,0,0,0,103.887-4.649Zm13.518-3.4a4.873,4.873,0,0,0-.8-.062,2.143,2.143,0,0,0-2.171,1.362V0h-1.626V-9.51h1.582l.026,1.1a2.532,2.532,0,0,1,2.268-1.274,1.661,1.661,0,0,1,.721.123Zm.888,3.208a5.617,5.617,0,0,1,.549-2.514,4.1,4.1,0,0,1,1.529-1.723,4.163,4.163,0,0,1,2.237-.606,4.01,4.01,0,0,1,3.142,1.345,5.174,5.174,0,0,1,1.2,3.577v.114a5.666,5.666,0,0,1-.532,2.492A4.038,4.038,0,0,1,124.9-.439a4.211,4.211,0,0,1-2.272.615,4,4,0,0,1-3.133-1.345,5.147,5.147,0,0,1-1.2-3.56Zm1.635.193a4.068,4.068,0,0,0,.734,2.54,2.349,2.349,0,0,0,1.964.958,2.335,2.335,0,0,0,1.969-.971,4.449,4.449,0,0,0,.729-2.72,4.061,4.061,0,0,0-.743-2.536,2.361,2.361,0,0,0-1.973-.971,2.335,2.335,0,0,0-1.942.958A4.416,4.416,0,0,0,119.927-4.649Zm8.675-.185a5.589,5.589,0,0,1,1.028-3.538,3.289,3.289,0,0,1,2.725-1.314,3.271,3.271,0,0,1,2.716,1.23l.079-1.055h1.485V-.229a3.869,3.869,0,0,1-1.094,2.909,4.038,4.038,0,0,1-2.94,1.063,4.891,4.891,0,0,1-2.013-.439,3.465,3.465,0,0,1-1.5-1.2l.844-.976a3.18,3.18,0,0,0,2.558,1.292,2.491,2.491,0,0,0,1.85-.668A2.553,2.553,0,0,0,135-.132V-.949A3.342,3.342,0,0,1,132.337.176a3.248,3.248,0,0,1-2.7-1.345A5.876,5.876,0,0,1,128.6-4.834Zm1.635.185a4.264,4.264,0,0,0,.659,2.527,2.142,2.142,0,0,0,1.846.918A2.382,2.382,0,0,0,135-2.6V-6.943a2.41,2.41,0,0,0-2.241-1.362,2.161,2.161,0,0,0-1.854.923A4.644,4.644,0,0,0,130.236-4.649Zm12.8,4.825a4.155,4.155,0,0,1-3.146-1.27,4.714,4.714,0,0,1-1.213-3.4v-.3a5.707,5.707,0,0,1,.541-2.527,4.217,4.217,0,0,1,1.512-1.74,3.8,3.8,0,0,1,2.1-.628,3.562,3.562,0,0,1,2.883,1.222,5.289,5.289,0,0,1,1.028,3.5v.677H140.3a3.38,3.38,0,0,0,.822,2.272,2.583,2.583,0,0,0,2,.866A2.832,2.832,0,0,0,144.58-1.5a3.666,3.666,0,0,0,1.046-.932l.993.773A3.993,3.993,0,0,1,143.033.176Zm-.2-8.525a2.169,2.169,0,0,0-1.652.716,3.482,3.482,0,0,0-.826,2.008h4.764v-.123a3.1,3.1,0,0,0-.668-1.92A2.042,2.042,0,0,0,142.831-8.35Zm7.33-1.16.053,1.2a3.465,3.465,0,0,1,2.848-1.371q3.015,0,3.041,3.4V0h-1.626V-6.293a2.189,2.189,0,0,0-.47-1.521,1.884,1.884,0,0,0-1.437-.492,2.347,2.347,0,0,0-1.389.422,2.865,2.865,0,0,0-.932,1.107V0h-1.626V-9.51Zm7.963,4.667a5.617,5.617,0,0,1,.549-2.514A4.1,4.1,0,0,1,160.2-9.079a4.163,4.163,0,0,1,2.237-.606,4.01,4.01,0,0,1,3.142,1.345,5.174,5.174,0,0,1,1.2,3.577v.114a5.666,5.666,0,0,1-.532,2.492,4.038,4.038,0,0,1-1.521,1.718,4.211,4.211,0,0,1-2.272.615,4,4,0,0,1-3.133-1.345,5.147,5.147,0,0,1-1.2-3.56Zm1.635.193a4.068,4.068,0,0,0,.734,2.54,2.349,2.349,0,0,0,1.964.958,2.335,2.335,0,0,0,1.969-.971,4.449,4.449,0,0,0,.729-2.72,4.061,4.061,0,0,0-.743-2.536,2.361,2.361,0,0,0-1.973-.971,2.335,2.335,0,0,0-1.942.958A4.416,4.416,0,0,0,159.759-4.649Z" transform="translate(317 5633)" fill="#0f6e4c"/><text transform="translate(386 5656)" fill="#0f6e4c" font-size="18" font-family="Roboto-Regular, Roboto"><tspan x="0" y="0">HCI</tspan></text><text transform="translate(1100 5583)" fill="#00223d" font-size="18" font-family="Roboto-Bold, Roboto" font-weight="700"><tspan x="-47.206" y="0">HIDRÁCIDO</tspan></text><text transform="translate(1032 5614)" fill="#0f6e4c" font-size="18" font-family="Roboto-Regular, Roboto"><tspan x="0" y="0">Ácido clorhídrico</tspan></text><g transform="translate(-135 -70)"><text transform="translate(1199 5726)" fill="#0f6e4c" font-size="18" font-family="Roboto-Regular, Roboto"><tspan x="0" y="0" xml:space="preserve">H  +  CL </tspan></text><text transform="translate(1214 5711)" fill="#0f6e4c" font-size="13" font-family="Roboto-Regular, Roboto"><tspan x="0" y="0">+</tspan></text><text transform="translate(1264 5711)" fill="#0f6e4c" font-size="13" font-family="Roboto-Regular, Roboto"><tspan x="0" y="0">-</tspan></text></g><rect width="199" height="102" rx="17" transform="translate(790 5000)" fill="#fcdcb3"/><text transform="translate(855 5027)" fill="#12263f" font-size="18" font-family="Roboto-Black, Roboto" font-weight="800"><tspan x="0" y="0">OXOSAL</tspan></text><text transform="translate(810 5056)" fill="#00223d" font-size="18" font-family="Roboto-Regular, Roboto"><tspan x="0" y="0">Hipoclorito de sodio</tspan></text><text transform="translate(862 5085)" fill="#ac6d1e" font-size="18" font-family="Roboto-Bold, Roboto" font-weight="700"><tspan x="0" y="0">NaCLO</tspan></text><rect width="178" height="130" rx="17" transform="translate(1000 4975)" fill="#86ebc7"/><text transform="translate(1089 5006)" fill="#12263f" font-size="18" font-family="Roboto-Black, Roboto" font-weight="800"><tspan x="-27.33" y="0">Sal de </tspan><tspan x="-39.546" y="25">Hidróxido</tspan></text><text transform="translate(1024 5059)" fill="#00223d" font-size="18" font-family="Roboto-Regular, Roboto"><tspan x="0" y="0">Cloruro de sodio</tspan></text><text transform="translate(1067 5087)" fill="#1a5741" font-size="18" font-family="Roboto-Bold, Roboto" font-weight="700"><tspan x="0" y="0">NaCL</tspan></text><g transform="translate(495 5211.053)"><path d="M509.809,1201.675l-41.317,2.984v-19.2l41.317,2.984Z" transform="translate(-468.491 -1179.165)" fill="#ff8f00"/><path d="M569.47,1184.225l-2.79-15.9,24.768,15.9-24.768,15.9Z" transform="translate(-530.591 -1168.329)" fill="#ff8f00"/></g><g transform="translate(796.221 5211.053)"><path d="M509.809,1201.675l-41.317,2.984v-19.2l41.317,2.984Z" transform="translate(-468.491 -1179.165)" fill="#2649bf"/><path d="M569.47,1184.225l-2.79-15.9,24.768,15.9-24.768,15.9Z" transform="translate(-530.591 -1168.329)" fill="#2649bf"/></g><g transform="translate(495 5404.585)"><path d="M509.809,1201.675l-41.317,2.984v-19.2l41.317,2.984Z" transform="translate(-468.491 -1179.165)" fill="#ff8f00"/><path d="M569.47,1184.225l-2.79-15.9,24.768,15.9-24.768,15.9Z" transform="translate(-530.591 -1168.329)" fill="#ff8f00"/></g><g transform="translate(534 5613.053)"><path d="M893.612,1201.675l-27.5.193-397.62,2.791v-19.2l425.12,2.984Z" transform="translate(-468.491 -1179.165)" fill="#2649bf"/><path d="M569.47,1184.225l-2.79-15.9,24.768,15.9-24.768,15.9Z" transform="translate(-145.87 -1168.329)" fill="#2649bf"/></g><g transform="translate(968.208 5356) rotate(-90)"><path d="M509.809,1201.675l-41.317,2.984v-19.2l41.317,2.984Z" transform="translate(-468.491 -1179.165)" fill="#ff8f00"/><path d="M569.47,1184.225l-2.79-15.9,24.768,15.9-24.768,15.9Z" transform="translate(-530.591 -1168.329)" fill="#ff8f00"/></g><g transform="translate(888.708 5172.377) rotate(-90)"><path d="M509.809,1201.675l-41.317,2.984v-19.2l41.317,2.984Z" transform="translate(-468.491 -1179.165)" fill="#ff8f00"/><path d="M569.47,1184.225l-2.79-15.9,24.768,15.9-24.768,15.9Z" transform="translate(-530.591 -1168.329)" fill="#ff8f00"/></g><g transform="translate(1025.5 5172.377) rotate(-90)"><path d="M509.809,1201.675l-41.317,2.984v-19.2l41.317,2.984Z" transform="translate(-468.491 -1179.165)" fill="#86ebc7"/><path d="M569.47,1184.225l-2.79-15.9,24.768,15.9-24.768,15.9Z" transform="translate(-530.591 -1168.329)" fill="#86ebc7"/></g><g transform="translate(1093.209 5089.154) rotate(-90)"><path d="M866.694,1201.675l-398.2,2.984v-19.2l398.2,2.984Z" transform="translate(-904.599 -1179.165)" fill="#86ebc7"/><path d="M569.47,1184.225l-2.79-15.9,24.768,15.9-24.768,15.9Z" transform="translate(-609.814 -1168.329)" fill="#86ebc7"/></g><text transform="translate(505.635 5204)" fill="#ff8f00" font-size="18" font-family="SegoeUI-Bold, Segoe UI" font-weight="700"><tspan x="0" y="0">O</tspan><tspan y="0" font-size="12">2</tspan></text><text transform="translate(505.635 5393.533)" fill="#ff8f00" font-size="18" font-family="Roboto-Bold, Roboto" font-weight="700"><tspan x="0" y="0">O</tspan><tspan y="0" font-size="12">2</tspan></text><text transform="translate(805.856 5204)" fill="#2649bf" font-size="18" font-family="SegoeUI-Bold, Segoe UI" font-weight="700"><tspan x="0" y="0">H</tspan><tspan y="0" font-size="12">2</tspan><tspan y="0">O</tspan></text><g transform="translate(790 5393.663)"><path d="M509.809,1201.675l-41.317,2.984v-19.2l41.317,2.984Z" transform="translate(-468.491 -1179.165)" fill="#2649bf"/><path d="M569.47,1184.225l-2.79-15.9,24.768,15.9-24.768,15.9Z" transform="translate(-530.591 -1168.329)" fill="#2649bf"/></g><text transform="translate(799.635 5386.61)" fill="#2649bf" font-size="18" font-family="Roboto-Bold, Roboto" font-weight="700"><tspan x="0" y="0">H</tspan><tspan y="0" font-size="12">2</tspan><tspan y="0">O</tspan></text><text transform="translate(678 5603)" fill="#2649bf" font-size="18" font-family="Roboto-Regular, Roboto"><tspan x="0" y="0">En solución acuosa</tspan></text><g transform="translate(27.103)"><text transform="translate(383 5149)" fill="#2649bf" font-size="18" font-family="SegoeUI-Bold, Segoe UI" font-weight="700"><tspan x="0" y="0">H</tspan><tspan y="0" font-size="12">2</tspan></text><g transform="translate(342.897 5168.376) rotate(-90)"><path d="M509.809,1201.675l-41.317,2.984v-19.2l41.317,2.984Z" transform="translate(-468.491 -1179.165)" fill="#ff8f00"/><path d="M569.47,1184.225l-2.79-15.9,24.768,15.9-24.768,15.9Z" transform="translate(-530.591 -1168.329)" fill="#ff8f00"/></g></g><g transform="translate(416.792 5488.52) rotate(90)"><path d="M509.809,1201.675l-41.317,2.984v-19.2l41.317,2.984Z" transform="translate(-468.491 -1179.165)" fill="#ff8f00"/><path d="M569.47,1184.225l-2.79-15.9,24.768,15.9-24.768,15.9Z" transform="translate(-530.591 -1168.329)" fill="#ff8f00"/></g></g></svg>