<svg xmlns="http://www.w3.org/2000/svg" xmlns:xlink="http://www.w3.org/1999/xlink" width="502.669" height="663.019" viewBox="0 0 502.669 663.019">
  <defs>
    <clipPath id="clip-path">
      <rect id="Rectángulo_46390" data-name="Rectángulo 46390" width="44.417" height="49.052" transform="translate(0)" fill="#f9a829"/>
    </clipPath>
    <clipPath id="clip-path-2">
      <rect id="Rectángulo_46496" data-name="Rectángulo 46496" width="502.669" height="663.019" fill="none"/>
    </clipPath>
    <clipPath id="clip-path-3">
      <rect id="Rectángulo_46491" data-name="Rectángulo 46491" width="144.613" height="152.704" fill="none"/>
    </clipPath>
  </defs>
  <g id="Grupo_178759" data-name="Grupo 178759" transform="translate(-304 -3602.505)">
    <g id="Grupo_178757" data-name="Grupo 178757" transform="translate(328.971 3621.804)">
      <path id="Trazado_187459" data-name="Trazado 187459" d="M224.408,0C348.345,0,448.816,100.471,448.816,224.408V410.255c0,123.937-100.471,224.408-224.408,224.408S0,534.192,0,410.255V224.408C0,100.471,100.471,0,224.408,0Z" transform="translate(4.432 9.058)" fill="#fed5c3"/>
      <path id="Trazado_145971" data-name="Trazado 145971" d="M5.337,0A5.337,5.337,0,1,1,0,5.337,5.337,5.337,0,0,1,5.337,0Z" transform="translate(21.084 621.056)" fill="#31313c" opacity="0.444" style="mix-blend-mode: multiply;isolation: isolate"/>
      <line id="Línea_138" data-name="Línea 138" y2="114.169" transform="translate(21.084 276.457)" fill="none" stroke="#31313c" stroke-linecap="round" stroke-width="3" stroke-dasharray="8"/>
      <g id="Grupo_178146" data-name="Grupo 178146" transform="translate(0)">
        <path id="Trazado_145969" data-name="Trazado 145969" d="M46.76,0A46.76,46.76,0,1,1,0,46.76,46.76,46.76,0,0,1,46.76,0Z" transform="translate(0)" fill="#fd9827" opacity="0.444" style="mix-blend-mode: multiply;isolation: isolate"/>
        <g id="Grupo_177796" data-name="Grupo 177796" transform="translate(74.844 22.234)" clip-path="url(#clip-path)">
          <path id="Trazado_185707" data-name="Trazado 185707" d="M.6,25.266c15.976,2.091,19.048,5.484,20.942,23.127a.67.67,0,0,0,1.341,0c1.893-17.643,4.966-21.036,20.942-23.127a.757.757,0,0,0,0-1.48C27.844,21.695,24.771,18.3,22.878.658a.67.67,0,0,0-1.341,0C19.644,18.3,16.572,21.695.6,23.786a.757.757,0,0,0,0,1.48" transform="translate(0.001 0)" fill="#f9a829"/>
        </g>
      </g>
    </g>
    <g id="Grupo_178758" data-name="Grupo 178758" transform="translate(304 3602.505)">
      <g id="Grupo_177996" data-name="Grupo 177996" transform="translate(0)">
        <g id="Grupo_177993" data-name="Grupo 177993">
          <g id="Grupo_177992" data-name="Grupo 177992" clip-path="url(#clip-path-2)">
            <path id="Trazado_185961" data-name="Trazado 185961" d="M490.882,111.943s-9.591-4.035-10.937-1.759,11.381,11.381,11.381,11.381Z" transform="translate(-162.538 -37.086)" fill="#c74d4d"/>
            <path id="Trazado_185962" data-name="Trazado 185962" d="M183.361,903.5h177.12L346.442,709.962H201.613Z" transform="translate(-62.11 -240.483)" fill="#273c4f"/>
            <path id="Trazado_185963" data-name="Trazado 185963" d="M317.406,933.451l1.066-135.063,13.12,135.063Z" transform="translate(-107.514 -270.435)" fill="#1f2e3d"/>
            <path id="Trazado_185964" data-name="Trazado 185964" d="M355,717.676,206.97,737.955l2.64-27.994H354.439Z" transform="translate(-70.106 -240.483)" fill="#1f2e3d"/>
            <path id="Trazado_185965" data-name="Trazado 185965" d="M262.454,709.961,250.384,903.5h36.1V709.961Z" transform="translate(-84.812 -240.483)" fill="#1f2e3d"/>
            <path id="Trazado_185966" data-name="Trazado 185966" d="M321.806,759.848l-.4-.615a41.1,41.1,0,0,0,6.689-5.829,29.538,29.538,0,0,0,4.574-6.371,17.058,17.058,0,0,0,2.063-7.835V709.961h.736V739.2a17.79,17.79,0,0,1-2.149,8.182,30.28,30.28,0,0,1-4.694,6.536A41.817,41.817,0,0,1,321.806,759.848Z" transform="translate(-108.868 -240.483)" fill="#3e6386"/>
            <path id="Trazado_185967" data-name="Trazado 185967" d="M317.465,903.5l-.736-.006,1.066-135.108.011-.044c.015-.059,1.541-6,3.048-16.127.885-5.945,1.59-12.148,2.1-18.436.632-7.859.952-15.873.952-23.819h.736c0,7.97-.321,16.007-.956,23.888-.507,6.306-1.215,12.526-2.1,18.489-1.444,9.7-2.907,15.577-3.05,16.144Z" transform="translate(-107.285 -240.483)" fill="#3e6386"/>
            <path id="Línea_223" data-name="Línea 223" d="M.013,2.662l-.054-.734L33.687-.555l.054.734Z" transform="translate(194.72 554.366)" fill="#3e6386"/>
            <path id="Trazado_185968" data-name="Trazado 185968" d="M233.785,327.251l21.208-18.565,56.926-3.1,25.694,21.669,18.158,250.317-145.846,2.683Z" transform="translate(-71.108 -103.508)" fill="#5284b6"/>
            <path id="Trazado_185969" data-name="Trazado 185969" d="M268.019,581.134l24.439-.45V537.643L274.672,310.276l-1.579,189.5Z" transform="translate(-90.786 -105.098)" fill="#3e6386"/>
            <path id="Trazado_185970" data-name="Trazado 185970" d="M391.895,256.488c-7.736-.425-30.936,1.859-30.936,1.859L354.7,485.062,367.284,719.29H475.213l-38.9-231.4L450.383,357.6s43.866,20.691,86.077,38.072,63.73,4.966,73.662-8.277,29.686-46.426-17.381-107.38C569.567,250,502.8,166.135,502.8,166.135L463.073,188,501.7,290.284l-3.862,2.207s-44.142-18.692-62.351-26.451-31.93-8.913-43.59-9.553" transform="translate(-120.146 -56.274)" fill="#faefdf"/>
            <path id="Trazado_185971" data-name="Trazado 185971" d="M541.2,247.888c43.021-29.251,17.113-81.754,17.113-81.754L518.587,188Z" transform="translate(-175.66 -56.273)" fill="#dbcab0"/>
            <path id="Trazado_185972" data-name="Trazado 185972" d="M360.958,305.582,354.7,532.3l7.914,147.273,30.671-178.737-26-65.373,35.646-44.418Z" transform="translate(-120.146 -103.508)" fill="#dbcab0"/>
            <path id="Trazado_185973" data-name="Trazado 185973" d="M360.958,305.582,354.7,532.3l7.913,147.273L389.17,476.906l-21.886-41.447,32.594-59Z" transform="translate(-120.146 -103.508)" fill="#fff"/>
            <g id="Grupo_177991" data-name="Grupo 177991" transform="translate(216.985 303.534)" opacity="0.21">
              <g id="Grupo_177990" data-name="Grupo 177990">
                <g id="Grupo_177989" data-name="Grupo 177989" clip-path="url(#clip-path-3)">
                  <path id="Trazado_185974" data-name="Trazado 185974" d="M439.6,611.718H328.133l33.144-152.7H472.745Z" transform="translate(-328.133 -459.014)"/>
                </g>
              </g>
            </g>
            <path id="Trazado_185975" data-name="Trazado 185975" d="M203.388,310.276l6.682,233.542-11.794,224.3H57.573l43.866-193.537,59.178-261.884Z" transform="translate(-19.502 -105.098)" fill="#faefdf"/>
            <path id="Trazado_185976" data-name="Trazado 185976" d="M162.877,471.859l-14.968-.986-35.727,158.1-22.893,101,129.841-99.757,1.683-32-1.861-65.025-69.732,12.745Z" transform="translate(-30.245 -159.497)" fill="#dbcab0"/>
            <path id="Trazado_185977" data-name="Trazado 185977" d="M258.371,310.276,219.9,390.466l33.345,50.722L227.312,485.35l30.4,198.084,7.341-139.616Z" transform="translate(-74.485 -105.098)" fill="#dbcab0"/>
            <path id="Trazado_185978" data-name="Trazado 185978" d="M260.34,310.276l-34.632,64.7,29.5,66.213-18.465,31.451,22.937,210.8,7.341-139.616Z" transform="translate(-76.454 -105.098)" fill="#fff"/>
            <path id="Trazado_185979" data-name="Trazado 185979" d="M260.34,310.276l-34.632,64.7,29.5,66.213-18.465,31.451,22.937,210.8,7.341-139.616Z" transform="translate(-76.454 -105.098)" fill="#fff"/>
            <path id="Trazado_185980" data-name="Trazado 185980" d="M148.917,167.388l-22.77-19.366a60.65,60.65,0,1,0-8.325,16.518Z" transform="translate(-2.698 -23.317)" fill="#31313c"/>
            <path id="Trazado_185981" data-name="Trazado 185981" d="M103.753,209.12c0,2.6-2.785,4.708-6.221,4.708s-6.221-2.107-6.221-4.708,2.785-4.708,6.221-4.708,6.221,2.108,6.221,4.708" transform="translate(-30.929 -69.239)" fill="#1f2e3d"/>
            <path id="Trazado_185982" data-name="Trazado 185982" d="M111.594,136.418a22.3,22.3,0,1,0-40.331,13.1,35.825,35.825,0,0,1,6.8,15.986l.056.389h22.347l.052-.359a31.989,31.989,0,0,1,6.306-15.355,22.161,22.161,0,0,0,4.768-13.764" transform="translate(-22.694 -38.655)" fill="#e1b142"/>
            <path id="Trazado_185983" data-name="Trazado 185983" d="M104.549,205.179H84.571a2.032,2.032,0,0,1-2.031-2.032V192.989a2.032,2.032,0,0,1,2.031-2.031h19.978a2.032,2.032,0,0,1,2.031,2.031v10.158a2.031,2.031,0,0,1-2.031,2.032" transform="translate(-27.959 -64.682)" fill="#5284b6"/>
            <path id="Trazado_185984" data-name="Trazado 185984" d="M104.616,161.311l-1.45-.248a76.527,76.527,0,0,0,.59-10.131,45.049,45.049,0,0,0-.289-5.571c-.256-1.944-.6-2.437-.7-2.542a2.272,2.272,0,0,0-1.376.937,9.925,9.925,0,0,0-1.519,2.916l-.817,2.313-.591-2.381a8.715,8.715,0,0,0-1.2-2.887,1.361,1.361,0,0,0-2.562,0,8.722,8.722,0,0,0-1.2,2.887l-.591,2.379-.817-2.311a9.929,9.929,0,0,0-1.519-2.916,2.272,2.272,0,0,0-1.375-.937c-.1.1-.447.6-.7,2.542a45.055,45.055,0,0,0-.289,5.571,76.528,76.528,0,0,0,.59,10.131l-1.45.248a76.359,76.359,0,0,1-.611-9.986,51.5,51.5,0,0,1,.244-5.684c.217-1.945.561-3.138,1.083-3.757a1.379,1.379,0,0,1,1.074-.539c1.305,0,2.555,1.071,3.557,3,.812-1.928,1.965-3,3.288-3s2.476,1.07,3.288,3c1-1.927,2.252-3,3.558-3a1.379,1.379,0,0,1,1.074.539c.522.618.866,1.812,1.082,3.757a51.481,51.481,0,0,1,.244,5.684A76.36,76.36,0,0,1,104.616,161.311Z" transform="translate(-29.379 -47.877)" fill="#fff"/>
            <rect id="Rectángulo_46492" data-name="Rectángulo 46492" width="24.041" height="0.621" transform="translate(54.581 128.552)" fill="#1f2e3d"/>
            <rect id="Rectángulo_46493" data-name="Rectángulo 46493" width="24.041" height="0.621" transform="translate(54.581 131.656)" fill="#1f2e3d"/>
            <rect id="Rectángulo_46494" data-name="Rectángulo 46494" width="24.041" height="0.621" transform="translate(54.581 134.759)" fill="#1f2e3d"/>
            <rect id="Rectángulo_46495" data-name="Rectángulo 46495" width="24.041" height="0.621" transform="translate(54.581 137.863)" fill="#1f2e3d"/>
            <path id="Línea_224" data-name="Línea 224" d="M.359,12.553H-1.113V0H.359Z" transform="translate(66.977 59.235)" fill="#dc9a3f"/>
            <path id="Línea_225" data-name="Línea 225" d="M5.313,11.051-.963.179.311-.556,6.588,10.315Z" transform="translate(47.135 64.74)" fill="#dc9a3f"/>
            <path id="Línea_226" data-name="Línea 226" d="M10.315,6.588-.556.311.179-.963,11.051,5.313Z" transform="translate(32.515 79.378)" fill="#dc9a3f"/>
            <path id="Línea_227" data-name="Línea 227" d="M10.315,6.587-.556.311.179-.963,11.051,5.313Z" transform="translate(90.176 112.668)" fill="#dc9a3f"/>
            <path id="Línea_228" data-name="Línea 228" d="M12.553.359H0V-1.113H12.553Z" transform="translate(27.035 99.226)" fill="#dc9a3f"/>
            <path id="Línea_229" data-name="Línea 229" d="M12.553.359H0V-1.113H12.553Z" transform="translate(93.615 99.226)" fill="#dc9a3f"/>
            <path id="Línea_230" data-name="Línea 230" d="M.179,6.587-.556,5.313,10.315-.963,11.051.311Z" transform="translate(32.54 112.692)" fill="#dc9a3f"/>
            <path id="Línea_231" data-name="Línea 231" d="M.179,6.588-.556,5.313,10.315-.963,11.051.311Z" transform="translate(90.2 79.401)" fill="#dc9a3f"/>
            <path id="Línea_232" data-name="Línea 232" d="M.311,11.051l-1.274-.736L5.313-.556,6.588.179Z" transform="translate(80.467 64.78)" fill="#dc9a3f"/>
            <path id="Línea_233" data-name="Línea 233" d="M19.351,47.109-.513.07.165-.216,20.029,46.823Z" transform="translate(381.725 234.084)" fill="#867d6d"/>
            <path id="Trazado_185985" data-name="Trazado 185985" d="M499.4,434.479s31.436,14.827,66.69,29.923h0L503.948,393.1Z" transform="translate(-169.16 -133.152)" fill="#dbcab0"/>
            <path id="Línea_234" data-name="Línea 234" d="M.272,41.662-.556,0,.179-.011l.828,41.659Z" transform="translate(377.877 236.222)" fill="#867d6d"/>
            <path id="Línea_235" data-name="Línea 235" d="M.178,41.169l-.731-.082L4.037-.062,4.768.02Z" transform="translate(332.18 244.239)" fill="#867d6d"/>
            <path id="Línea_236" data-name="Línea 236" d="M.164,37.042l-.673-.3L15.856-.225l.673.3Z" transform="translate(334.459 253.399)" fill="#867d6d"/>
            <path id="Trazado_185986" data-name="Trazado 185986" d="M398.763,867.719h54.574v.368a36.357,36.357,0,0,1-.424,4.825,41.967,41.967,0,0,1-2.972,10.592,26.406,26.406,0,0,1-8.107,10.641c-4.251,3.215-9.562,4.846-15.784,4.846s-11.533-1.631-15.785-4.846a26.414,26.414,0,0,1-8.106-10.641,41.979,41.979,0,0,1-2.972-10.592,36.42,36.42,0,0,1-.424-4.825Zm53.83.735H399.507a39.387,39.387,0,0,0,.412,4.373,41.186,41.186,0,0,0,2.923,10.4,25.671,25.671,0,0,0,7.878,10.339,22.2,22.2,0,0,0,6.566,3.4,30.375,30.375,0,0,0,17.53,0,22.2,22.2,0,0,0,6.565-3.4,25.67,25.67,0,0,0,7.878-10.339,41.2,41.2,0,0,0,2.922-10.4A39.385,39.385,0,0,0,452.594,868.454Z" transform="translate(-135.072 -293.919)" fill="#867d6d"/>
            <path id="Trazado_185987" data-name="Trazado 185987" d="M131.615,867.719h54.574v.368a36.38,36.38,0,0,1-.424,4.825,41.965,41.965,0,0,1-2.972,10.592,26.41,26.41,0,0,1-8.106,10.641c-4.252,3.215-9.563,4.846-15.785,4.846h0c-6.222,0-11.533-1.631-15.784-4.846a26.409,26.409,0,0,1-8.106-10.641,41.96,41.96,0,0,1-2.972-10.592,36.378,36.378,0,0,1-.425-4.825Zm53.83.735H132.358a39.42,39.42,0,0,0,.412,4.373,41.194,41.194,0,0,0,2.923,10.4,25.669,25.669,0,0,0,7.878,10.339,22.2,22.2,0,0,0,6.565,3.4,30.371,30.371,0,0,0,17.537,0,22.2,22.2,0,0,0,6.569-3.4,25.675,25.675,0,0,0,7.877-10.351,41.211,41.211,0,0,0,2.917-10.4A39.285,39.285,0,0,0,185.445,868.454Z" transform="translate(-44.582 -293.919)" fill="#867d6d"/>
            <path id="Trazado_185988" data-name="Trazado 185988" d="M197.4,465.375l-.588-.443c6.169-8.185,10.388-14.676,12.841-18.679,2.654-4.331,3.863-6.755,3.875-6.779l.659.328c-.012.024-1.236,2.477-3.907,6.836C207.822,450.654,203.59,457.166,197.4,465.375Z" transform="translate(-66.667 -148.861)" fill="#867d6d"/>
            <path id="Línea_237" data-name="Línea 237" d="M.1,11.744-.3,11.123,17.993-.47l.394.622Z" transform="translate(132.733 306.24)" fill="#867d6d"/>
            <path id="Trazado_185989" data-name="Trazado 185989" d="M498.059,126.954v-21.46a3.783,3.783,0,0,1,1.9-3.351c1.051-.569,1.65-1.22,1.65-1.912,0-2.248-6.268-4.07-14-4.07s-14,1.822-14,4.07c0,.692.6,1.342,1.651,1.912a3.784,3.784,0,0,1,1.9,3.351V126.95a7.353,7.353,0,0,1-4.869,6.889,44.531,44.531,0,1,0,30.533-.038,7.275,7.275,0,0,1-4.766-6.847" transform="translate(-150.084 -32.572)" fill="#faefdf"/>
            <path id="Trazado_185990" data-name="Trazado 185990" d="M483.172,136.723a44.312,44.312,0,0,0-7.97,3.9c10.357-5.593,42.673-6.4,58.07,10.151a44.614,44.614,0,0,0-19.566-14.089,7.274,7.274,0,0,1-4.766-6.847v-21.46a3.783,3.783,0,0,1,1.9-3.351,5.973,5.973,0,0,0,.559-.352c-6.183,3.534-16.823,3.782-25.261.352a3.784,3.784,0,0,1,1.9,3.351v21.456a7.352,7.352,0,0,1-4.87,6.888" transform="translate(-160.964 -35.456)" fill="#abc6db"/>
            <path id="Trazado_185991" data-name="Trazado 185991" d="M514.9,101.277c0,.543-4.11.983-9.182.983s-9.182-.44-9.182-.983,4.11-.983,9.182-.983,9.182.44,9.182.983" transform="translate(-168.19 -33.972)" fill="#5284b6"/>
            <path id="Trazado_185992" data-name="Trazado 185992" d="M522.391,140.852a8.706,8.706,0,0,0-7.415-.93c-5.186,1.713-13.827,4.4-14.761,3.608-1.345-1.138,10.884-8.276,10.884-8.276s-20.488,3.608-22.411,1.545,20.114-8.374,20.114-8.374-11.749-3.621-18.726-3.517-5.447-5.126-.733-5.643,20.39,1.505,20.39,1.505-21.416-7.552-20.588-11.277,19.139,2.689,25.244,5.69c0,0,15.313,8.991,17.64,31.809Z" transform="translate(-164.392 -36.705)" fill="#df6969"/>
            <path id="Trazado_185993" data-name="Trazado 185993" d="M318.536,119.548s7.417-.621,21.28.828,22.5,13.444,24.623,20.691c2.482,8.483,1.241,19.391-5.173,31.111s-4.138,19.17,3.1,30.55,15.312,30.624-16.14,30.624H303.813L263.465,201.9l8.085-58.557Z" transform="translate(-89.243 -40.449)" fill="#273c4f"/>
            <path id="Trazado_185994" data-name="Trazado 185994" d="M378.217,280.793c3.2-4.375,3.736-10.593,1.154-16.751a24.7,24.7,0,0,0-2.529-4.569l-1.207.842a23.215,23.215,0,0,1,2.379,4.3c2.55,6.085,1.82,12.205-1.686,16.182Z" transform="translate(-127.238 -87.89)" fill="#1f2e3d"/>
            <path id="Trazado_185995" data-name="Trazado 185995" d="M400.612,265.2c.733-.214,1.417-.448,2.059-.7a14.917,14.917,0,0,0,1.213-3.68c.95-5.026-.426-10.515-3.871-15.455l-.785-1.121c-5.794-8.282-11.266-16.105-10.877-26.362l-1.472-.056c-.405,10.752,5.2,18.772,11.143,27.262l.783,1.121c3.219,4.612,4.508,9.7,3.633,14.338a13.2,13.2,0,0,1-1.826,4.656" transform="translate(-131.04 -73.783)" fill="#1f2e3d"/>
            <path id="Trazado_185996" data-name="Trazado 185996" d="M389.9,279.195q.993-.025,1.93-.077a14.545,14.545,0,0,0,2.437-5.754c.95-5.026-.426-10.514-3.872-15.454l-2.128-3.051-1.209.839,2.13,3.053c3.219,4.613,4.508,9.7,3.633,14.339a12.9,12.9,0,0,1-2.922,6.1" transform="translate(-131.107 -86.327)" fill="#1f2e3d"/>
            <path id="Trazado_185997" data-name="Trazado 185997" d="M314.412,134s13.219-.916,19.784,11.456,7.451,18.43,7.451,18.43,11.665,14.187,8.054,33.076c-3.538,18.5-16.46,22.494-23.583,22.217l-2.633,23.053a4.666,4.666,0,0,0,4.6,5.2l4.289.03s-2.221,26.763-27.215,26.763-29.458-14.235-29.711-23.658l2.4-.135a1.86,1.86,0,0,0,1.748-1.7l3.6-42.674L270.32,181.319l32.317-38.387Z" transform="translate(-91.565 -45.384)" fill="#df6969"/>
            <path id="Línea_238" data-name="Línea 238" d="M15.16,4.518-.152.173l.2-.708L15.361,3.81Z" transform="translate(190.62 207.776)" fill="#922a23"/>
            <path id="Trazado_185998" data-name="Trazado 185998" d="M341.105,255.437c-10.946-.2-20.188-3.964-26.533-14.413,0,0-.7,23.434,25.172,26.339Z" transform="translate(-106.554 -81.641)" fill="#c74d4d"/>
            <path id="Trazado_185999" data-name="Trazado 185999" d="M331.471,166.165a9.3,9.3,0,0,1,6.373,2.758,13.563,13.563,0,0,1,3.764,7,13.251,13.251,0,0,1-1.019,8.69,9.682,9.682,0,0,1-2.449,3.1,7.954,7.954,0,0,1-3.47,1.68,7.849,7.849,0,0,1-1.594.164,9.3,9.3,0,0,1-6.373-2.758,13.562,13.562,0,0,1-3.763-7,13.251,13.251,0,0,1,1.019-8.69,9.68,9.68,0,0,1,2.449-3.1,7.954,7.954,0,0,1,3.47-1.68A7.854,7.854,0,0,1,331.471,166.165Zm1.6,22.663a7.119,7.119,0,0,0,1.444-.148,7.95,7.95,0,0,0,5.413-4.4,12.515,12.515,0,0,0,.954-8.206,12.819,12.819,0,0,0-3.552-6.621,8.571,8.571,0,0,0-5.864-2.553,7.113,7.113,0,0,0-1.444.148,7.948,7.948,0,0,0-5.413,4.4,12.513,12.513,0,0,0-.954,8.206,12.819,12.819,0,0,0,3.552,6.621A8.571,8.571,0,0,0,333.076,188.828Z" transform="translate(-109.285 -56.284)" fill="#fff"/>
            <path id="Trazado_186000" data-name="Trazado 186000" d="M366.444,158.9a9.3,9.3,0,0,1,6.374,2.758,13.56,13.56,0,0,1,3.763,7,13.25,13.25,0,0,1-1.019,8.69,9.685,9.685,0,0,1-2.449,3.1,7.952,7.952,0,0,1-3.47,1.68,7.851,7.851,0,0,1-1.594.164,9.3,9.3,0,0,1-6.373-2.758,13.561,13.561,0,0,1-3.763-7,13.25,13.25,0,0,1,1.019-8.69,9.678,9.678,0,0,1,2.449-3.1,7.953,7.953,0,0,1,3.47-1.681A7.848,7.848,0,0,1,366.444,158.9Zm1.605,22.663a7.108,7.108,0,0,0,1.444-.149,7.948,7.948,0,0,0,5.413-4.4,12.516,12.516,0,0,0,.954-8.206,12.821,12.821,0,0,0-3.552-6.621,8.571,8.571,0,0,0-5.864-2.554,7.117,7.117,0,0,0-1.444.148c-4.749.987-7.606,6.642-6.367,12.6a12.817,12.817,0,0,0,3.552,6.621A8.569,8.569,0,0,0,368.049,181.563Z" transform="translate(-121.131 -53.823)" fill="#fff"/>
            <path id="Línea_239" data-name="Línea 239" d="M.037,1.29-.113.569,5.25-.545,5.4.176Z" transform="translate(231.521 117.046)" fill="#fff"/>
            <path id="Línea_240" data-name="Línea 240" d="M.084,9.584l-.343-.651,17.9-9.425.343.651Z" transform="translate(195.985 122.237)" fill="#fff"/>
            <path id="Trazado_186001" data-name="Trazado 186001" d="M340.584,179.95c.6,2.412.018,4.634-1.3,4.963s-2.878-1.36-3.479-3.771-.018-4.634,1.3-4.963,2.879,1.36,3.48,3.771" transform="translate(-113.665 -59.662)" fill="#273c4f"/>
            <path id="Trazado_186002" data-name="Trazado 186002" d="M370.9,172.393c.6,2.412.018,4.634-1.3,4.963s-2.879-1.36-3.48-3.771-.018-4.634,1.3-4.963,2.878,1.36,3.479,3.771" transform="translate(-123.936 -57.102)" fill="#273c4f"/>
            <path id="Trazado_186003" data-name="Trazado 186003" d="M361.261,202.436a.692.692,0,0,1-.386-1.267,25.842,25.842,0,0,0,2.644-2.083c1.637-1.5,2.032-2.431,1.873-2.775a.672.672,0,0,0-.415-.362c-1.01-.368-3.06.4-3.7.7a.692.692,0,0,1-.908-.31L357.2,190.2a.692.692,0,0,1,1.23-.636l2.881,5.573c.281-.108.639-.235,1.036-.348a5.179,5.179,0,0,1,3.108-.139,2.063,2.063,0,0,1,1.2,1.079c.521,1.122-.2,2.557-2.2,4.389a26.749,26.749,0,0,1-2.8,2.2A.689.689,0,0,1,361.261,202.436Z" transform="translate(-120.967 -64.082)" fill="#922a23"/>
            <path id="Trazado_186004" data-name="Trazado 186004" d="M337.212,216.119l28.31-3.414s-2.949,18.062-14.452,18.062-13.857-14.648-13.857-14.648" transform="translate(-114.223 -72.048)" fill="#fff"/>
            <path id="Trazado_186005" data-name="Trazado 186005" d="M332.5,210.923a7.449,7.449,0,1,1-7.45-7.449,7.45,7.45,0,0,1,7.45,7.449" transform="translate(-107.579 -68.922)" fill="#c74d4d"/>
            <path id="Trazado_186006" data-name="Trazado 186006" d="M364.477,246.454c.175.842-1.429,1.888-3.583,2.335s-4.041.128-4.216-.715,1.429-1.888,3.583-2.335,4.042-.128,4.217.715" transform="translate(-120.812 -83.17)" fill="#e69494"/>
            <path id="Trazado_186007" data-name="Trazado 186007" d="M296.022,215.458a2.716,2.716,0,0,1-1.152-.225,1.808,1.808,0,0,1-.994-1.2,4.654,4.654,0,0,1,.517-3.358,8.6,8.6,0,0,1,.862-1.358,9.345,9.345,0,0,0-1.345-2.23,3.588,3.588,0,0,0-4.018-1.456,2.212,2.212,0,0,0-1.409,1.232,7.274,7.274,0,0,0-.049,4.259,17.57,17.57,0,0,0,.792,2.566l-.68.282c-.08-.194-1.959-4.78-.731-7.418a2.948,2.948,0,0,1,1.855-1.624,4.32,4.32,0,0,1,4.817,1.7,9.936,9.936,0,0,1,1.537,2.624l.075.2-.143.164c-.019.022-1.93,2.258-1.372,4.21a1.087,1.087,0,0,0,.6.734c.891.418,2.5-.11,3.039-.348l.3.673A7.1,7.1,0,0,1,296.022,215.458Z" transform="translate(-97.35 -69.346)" fill="#c74d4d"/>
            <path id="Trazado_186008" data-name="Trazado 186008" d="M292.164,124.757s-.621,14.691-11.174,22.14-12.622,15.1-13.243,22.554a7.33,7.33,0,0,0-8.69-1.655c-5.173,2.482-3.1,11.38,0,18s10.552,6.621,13.657,1.242c0,0,3.724,12-2.483,20.484s-1.448,21.52-1.448,21.52H231.745c-16.14,0-27.106-1.656-27.106-15.519,0-10.966,10.553-19.243,19.45-30.831s4.759-19.657,9.1-37.245c2.078-8.411,6.918-23.838,22.9-31.727,17.4-8.591,34.009-10.647,42.519,1.517Z" transform="translate(-69.317 -36.14)" fill="#273c4f"/>
            <path id="Trazado_186009" data-name="Trazado 186009" d="M217.613,250.905c-.962-7.494,3.046-13.885,5.521-17.029,1.194-1.517,2.485-3.083,3.81-4.69,6.357-7.712,13.563-16.452,14.961-25.657l-1.454-.221c-1.338,8.8-8.406,17.377-14.641,24.942-1.333,1.616-2.631,3.191-3.833,4.716-2.617,3.324-6.854,10.1-5.823,18.126a21.149,21.149,0,0,0,3.784,9.424c.689.164,1.407.306,2.149.432a20.315,20.315,0,0,1-4.474-10.043" transform="translate(-73.164 -68.865)" fill="#1f2e3d"/>
            <path id="Trazado_186010" data-name="Trazado 186010" d="M250.889,266.1c-.962-7.494,3.046-13.885,5.521-17.029l-1.157-.909c-2.617,3.323-6.854,10.1-5.823,18.126a21.694,21.694,0,0,0,4.708,10.676h1.9a20.76,20.76,0,0,1-5.153-10.863" transform="translate(-84.435 -84.058)" fill="#1f2e3d"/>
            <path id="Trazado_186011" data-name="Trazado 186011" d="M234.252,259.46c-.962-7.494,3.045-13.885,5.52-17.029,1.2-1.52,2.49-3.089,3.817-4.7,2.2-2.668,4.473-5.427,6.588-8.3l-1.184-.872c-2.09,2.836-4.352,5.579-6.538,8.233-1.335,1.62-2.635,3.2-3.839,4.726-2.617,3.324-6.854,10.1-5.823,18.125a21.684,21.684,0,0,0,4.675,10.633c.631.014,1.274.024,1.925.03a20.742,20.742,0,0,1-5.141-10.849" transform="translate(-78.8 -77.42)" fill="#1f2e3d"/>
            <path id="Trazado_186012" data-name="Trazado 186012" transform="translate(0 0.001)" fill="#273c4f"/>
            <path id="Trazado_186013" data-name="Trazado 186013" d="M316.936,163.232l-1.781-2.342a20.714,20.714,0,0,1,6.989-3.52,19.648,19.648,0,0,1,6.122-.7,18.034,18.034,0,0,1,6.06,1.251l-1.2,2.689,0,0a15.477,15.477,0,0,0-5.117-1.006,16.7,16.7,0,0,0-5.16.618A17.807,17.807,0,0,0,316.936,163.232Z" transform="translate(-106.752 -53.062)" fill="#273c4f"/>
            <path id="Trazado_186014" data-name="Trazado 186014" d="M451.05,196.628a40.375,40.375,0,1,0,77.377,0,6.179,6.179,0,0,0-5.928-4.382h-65.52a6.18,6.18,0,0,0-5.928,4.382" transform="translate(-152.212 -65.118)" fill="#5284b6"/>
            <path id="Trazado_186015" data-name="Trazado 186015" d="M505.49,207.5a6,6,0,1,1-6-6,6,6,0,0,1,6,6" transform="translate(-167.158 -68.251)" fill="#faefdf"/>
            <path id="Trazado_186016" data-name="Trazado 186016" d="M488.986,233.829a1.966,1.966,0,1,1-1.966-1.966,1.966,1.966,0,0,1,1.966,1.966" transform="translate(-164.302 -78.538)" fill="#faefdf"/>
            <path id="Trazado_186017" data-name="Trazado 186017" d="M532.4,242.243a9.512,9.512,0,1,1-9.512-9.512,9.512,9.512,0,0,1,9.512,9.512" transform="translate(-173.894 -78.832)" fill="#faefdf"/>
            <path id="Trazado_186018" data-name="Trazado 186018" d="M450.207,604.626H338.738l33.144-152.7H483.351Z" transform="translate(-114.74 -153.078)" fill="#dc9a3f"/>
            <path id="Trazado_186019" data-name="Trazado 186019" d="M344.034,604.626h-5.3l33.144-152.7h5.3Z" transform="translate(-114.74 -153.078)" fill="#edc692"/>
            <path id="Trazado_186020" data-name="Trazado 186020" d="M294.964,581.5l16-3.862s7.173-12.967,14.346-18.485a194.341,194.341,0,0,1,18-11.711l-1.433,6.6a4.664,4.664,0,0,0,5.918,5.451l9.261-2.822s20.642-11.863,22.59-9.381S360.9,562.461,350.418,567.7l18.126-6.045s14.981-9.681,17.463-6.922-16,14.086-31.727,19.6l16.278-2.629s11.311-6.207,12.69-3.173S365.04,579.29,354.279,581.5h11.665s9.3-5.242,11.786-3.862-11.863,10.208-22.071,12.691-38.762,4.965-38.762,4.965l-21.934,17.657Z" transform="translate(-99.913 -185.265)" fill="#df6969"/>
            <path id="Trazado_186021" data-name="Trazado 186021" d="M474.1,440.72l.538-2.3a1.934,1.934,0,0,0-1.883-2.374h-6.376a1.934,1.934,0,0,0-1.884,1.494l-.75,3.215a4.437,4.437,0,0,1-4.322,3.429h-5.113a1.5,1.5,0,0,0-1.464,1.163l-2.382,10.228a1.2,1.2,0,0,0,1.169,1.473h27.3a1.5,1.5,0,0,0,1.464-1.162l2.383-10.228a1.2,1.2,0,0,0-1.169-1.473h-4.763a2.819,2.819,0,0,1-2.745-3.46" transform="translate(-152.575 -147.699)" fill="#273c4f"/>
            <path id="Trazado_186022" data-name="Trazado 186022" d="M198.224,498.706l3.449,55.178s-66.765,32.554-108.148,48-83.318,7.173-92.146-33.107S28.416,460.349,43.866,430.7s47.728-111.731,97.25-116.766L132.632,418.7l-31.8,96.009Z" transform="translate(0 -106.336)" fill="#faefdf"/>
            <path id="Línea_241" data-name="Línea 241" d="M.035,11.211l-.144-.722L55.207-.546l.144.722Z" transform="translate(45.557 408.556)" fill="#867d6d"/>
            <path id="Trazado_186023" data-name="Trazado 186023" d="M124.307,602.568a7.733,7.733,0,0,0-1.47-1.8,28.855,28.855,0,0,0-6.383-4.483,79.782,79.782,0,0,0-14.239-5.795A189.265,189.265,0,0,0,77.2,584.77l.121-.726a189.445,189.445,0,0,1,25.261,5.793,79.7,79.7,0,0,1,14.377,5.887c6.6,3.637,7.963,6.412,8.018,6.528l-.333.157Z" transform="translate(-26.148 -197.831)" fill="#867d6d"/>
            <path id="Línea_242" data-name="Línea 242" d="M26.23,26.688-.393.127l.52-.521L26.75,26.167Z" transform="translate(71.036 365.329)" fill="#867d6d"/>
            <path id="Línea_243" data-name="Línea 243" d="M.062,29.345l-.253-.691L79.389-.522l.253.691Z" transform="translate(121.316 434.274)" fill="#867d6d"/>
            <path id="Trazado_186024" data-name="Trazado 186024" d="M264.634,650.6a3.844,3.844,0,1,1-3.843-3.843,3.843,3.843,0,0,1,3.843,3.843" transform="translate(-87.035 -219.074)" fill="#273c4f"/>
            <path id="Trazado_186025" data-name="Trazado 186025" d="M221.77,664.818a3.844,3.844,0,1,1-3.843-3.843,3.843,3.843,0,0,1,3.843,3.843" transform="translate(-72.516 -223.89)" fill="#273c4f"/>
            <path id="Trazado_186026" data-name="Trazado 186026" d="M510.586,72.85a4.012,4.012,0,1,1-4.012-4.012,4.012,4.012,0,0,1,4.012,4.012" transform="translate(-170.232 -23.317)" fill="#c8e6fd"/>
            <path id="Trazado_186027" data-name="Trazado 186027" d="M498.2,44.478a7.869,7.869,0,1,1-7.869-7.869,7.869,7.869,0,0,1,7.869,7.869" transform="translate(-163.423 -12.4)" fill="#c8e6fd"/>
            <path id="Trazado_186028" data-name="Trazado 186028" d="M530.173,11.957A11.958,11.958,0,1,1,518.215,0a11.958,11.958,0,0,1,11.958,11.958" transform="translate(-171.484 0.001)" fill="#c8e6fd"/>
          </g>
        </g>
      </g>
    </g>
  </g>
</svg>
