<svg xmlns="http://www.w3.org/2000/svg" width="674" height="445" viewBox="0 0 674 445">
  <g id="Grupo_178785" data-name="Grupo 178785" transform="translate(-5600 -175.019)">
    <path id="Trazado_187517" data-name="Trazado 187517" d="M10,0H664a10,10,0,0,1,10,10V435a10,10,0,0,1-10,10H10A10,10,0,0,1,0,435V10A10,10,0,0,1,10,0Z" transform="translate(5600 175.019)" fill="#fff"/>
    <path id="Trazado_187518" data-name="Trazado 187518" d="M47.07,12.836H45.2V17H42.859V5.625h4.227a4.778,4.778,0,0,1,3.109.9,3.1,3.1,0,0,1,1.094,2.539,3.5,3.5,0,0,1-.5,1.941,3.437,3.437,0,0,1-1.527,1.238l2.461,4.648V17H49.2Zm-1.867-1.9h1.891a1.936,1.936,0,0,0,1.367-.449,1.606,1.606,0,0,0,.484-1.238,1.719,1.719,0,0,0-.457-1.266,1.9,1.9,0,0,0-1.4-.461H45.2Zm11.609,6.219a4.15,4.15,0,0,1-3.027-1.141,4.054,4.054,0,0,1-1.168-3.039v-.219a5.106,5.106,0,0,1,.492-2.277A3.612,3.612,0,0,1,54.5,8.934a3.914,3.914,0,0,1,2.059-.543,3.508,3.508,0,0,1,2.73,1.094,4.444,4.444,0,0,1,1,3.1v.922H54.906a2.1,2.1,0,0,0,.66,1.328,2,2,0,0,0,1.395.5A2.437,2.437,0,0,0,59,14.391l1.109,1.242a3.389,3.389,0,0,1-1.375,1.121A4.511,4.511,0,0,1,56.813,17.156Zm-.258-6.945a1.411,1.411,0,0,0-1.09.455,2.357,2.357,0,0,0-.535,1.3H58.07v-.181a1.681,1.681,0,0,0-.406-1.165A1.456,1.456,0,0,0,56.555,10.211Zm4.688,2.5a4.954,4.954,0,0,1,.926-3.133,3,3,0,0,1,2.5-1.187,2.631,2.631,0,0,1,2.164.953l.094-.8h2.047v8.172a3.613,3.613,0,0,1-.5,1.93,3.236,3.236,0,0,1-1.418,1.25,4.985,4.985,0,0,1-2.141.43,4.635,4.635,0,0,1-1.812-.371A3.217,3.217,0,0,1,61.758,19l1-1.375a2.645,2.645,0,0,0,2.047.945,1.936,1.936,0,0,0,1.4-.48,1.8,1.8,0,0,0,.5-1.363v-.453a2.612,2.612,0,0,1-2.055.883,2.992,2.992,0,0,1-2.465-1.191,4.953,4.953,0,0,1-.941-3.16Zm2.258.168a3.085,3.085,0,0,0,.461,1.8,1.466,1.466,0,0,0,1.266.653,1.568,1.568,0,0,0,1.477-.775V11a1.564,1.564,0,0,0-1.461-.775,1.476,1.476,0,0,0-1.277.665A3.477,3.477,0,0,0,63.5,12.879ZM73.086,17H70.82V8.547h2.266Zm-2.4-10.641a1.112,1.112,0,0,1,.34-.836,1.465,1.465,0,0,1,1.848,0,1.105,1.105,0,0,1,.344.836,1.108,1.108,0,0,1-.348.844,1.448,1.448,0,0,1-1.836,0A1.108,1.108,0,0,1,70.688,6.359ZM74.594,12.7a5.013,5.013,0,0,1,.484-2.242A3.546,3.546,0,0,1,76.473,8.93a4.069,4.069,0,0,1,2.113-.539,3.849,3.849,0,0,1,2.793,1.047,4.2,4.2,0,0,1,1.207,2.844l.016.578a4.418,4.418,0,0,1-1.086,3.121,4.209,4.209,0,0,1-5.832,0,4.5,4.5,0,0,1-1.09-3.187Zm2.258.16A3.16,3.16,0,0,0,77.3,14.7a1.628,1.628,0,0,0,2.578.008,3.457,3.457,0,0,0,.461-2.015,3.128,3.128,0,0,0-.461-1.831,1.5,1.5,0,0,0-1.3-.649,1.474,1.474,0,0,0-1.281.646A3.516,3.516,0,0,0,76.852,12.856ZM86.07,8.547l.07.977a2.951,2.951,0,0,1,2.43-1.133,2.453,2.453,0,0,1,2,.789,3.682,3.682,0,0,1,.672,2.359V17H88.984V11.594a1.465,1.465,0,0,0-.312-1.043,1.4,1.4,0,0,0-1.039-.324,1.553,1.553,0,0,0-1.43.813V17H83.945V8.547Zm10.773,8.609a4.15,4.15,0,0,1-3.027-1.141,4.054,4.054,0,0,1-1.168-3.039v-.219a5.106,5.106,0,0,1,.492-2.277,3.612,3.612,0,0,1,1.395-1.547,3.914,3.914,0,0,1,2.059-.543,3.508,3.508,0,0,1,2.73,1.094,4.444,4.444,0,0,1,1,3.1v.922H94.938a2.1,2.1,0,0,0,.66,1.328,2,2,0,0,0,1.395.5,2.437,2.437,0,0,0,2.039-.945l1.109,1.242a3.389,3.389,0,0,1-1.375,1.121A4.511,4.511,0,0,1,96.844,17.156Zm-.258-6.945a1.411,1.411,0,0,0-1.09.455,2.357,2.357,0,0,0-.535,1.3H98.1v-.181a1.681,1.681,0,0,0-.406-1.165A1.456,1.456,0,0,0,96.586,10.211Zm9.594,4.453a.727.727,0,0,0-.41-.652,4.659,4.659,0,0,0-1.316-.426q-3.016-.633-3.016-2.562a2.323,2.323,0,0,1,.934-1.879,3.766,3.766,0,0,1,2.441-.754,4.053,4.053,0,0,1,2.574.758,2.388,2.388,0,0,1,.965,1.969h-2.258a1.092,1.092,0,0,0-.312-.8A1.322,1.322,0,0,0,104.8,10a1.351,1.351,0,0,0-.883.258.814.814,0,0,0-.312.656.7.7,0,0,0,.355.605,3.657,3.657,0,0,0,1.2.4,9.8,9.8,0,0,1,1.422.379,2.336,2.336,0,0,1,1.789,2.273,2.2,2.2,0,0,1-.992,1.871,4.28,4.28,0,0,1-2.562.715,4.47,4.47,0,0,1-1.887-.379,3.166,3.166,0,0,1-1.293-1.039,2.414,2.414,0,0,1-.469-1.426h2.141a1.179,1.179,0,0,0,.445.922,1.766,1.766,0,0,0,1.109.32,1.635,1.635,0,0,0,.98-.246A.766.766,0,0,0,106.18,14.664Zm7.281-1.953a5.094,5.094,0,0,1,.887-3.148,2.877,2.877,0,0,1,2.426-1.172,2.589,2.589,0,0,1,2.039.922V5h2.266V17h-2.039l-.109-.9a2.657,2.657,0,0,1-2.172,1.055,2.869,2.869,0,0,1-2.395-1.176A5.258,5.258,0,0,1,113.461,12.711Zm2.258.168a3.337,3.337,0,0,0,.414,1.823,1.349,1.349,0,0,0,1.2.634,1.511,1.511,0,0,0,1.477-.884V11.111a1.489,1.489,0,0,0-1.461-.884Q115.719,10.227,115.719,12.879Zm11,4.277a4.15,4.15,0,0,1-3.027-1.141,4.054,4.054,0,0,1-1.168-3.039v-.219a5.106,5.106,0,0,1,.492-2.277,3.612,3.612,0,0,1,1.395-1.547,3.914,3.914,0,0,1,2.059-.543,3.508,3.508,0,0,1,2.73,1.094,4.444,4.444,0,0,1,1,3.1v.922h-5.383a2.1,2.1,0,0,0,.66,1.328,2,2,0,0,0,1.395.5,2.437,2.437,0,0,0,2.039-.945l1.109,1.242a3.389,3.389,0,0,1-1.375,1.121A4.511,4.511,0,0,1,126.719,17.156Zm-.258-6.945a1.411,1.411,0,0,0-1.09.455,2.357,2.357,0,0,0-.535,1.3h3.141v-.181a1.681,1.681,0,0,0-.406-1.165A1.456,1.456,0,0,0,126.461,10.211ZM137.844,17h-2.266V5h2.266Zm6.758,0a2.507,2.507,0,0,1-.227-.758,2.732,2.732,0,0,1-2.133.914,3,3,0,0,1-2.059-.719,2.312,2.312,0,0,1-.816-1.812,2.389,2.389,0,0,1,1-2.062,4.915,4.915,0,0,1,2.879-.727h1.039v-.484a1.393,1.393,0,0,0-.3-.937,1.183,1.183,0,0,0-.949-.352,1.345,1.345,0,0,0-.895.273.929.929,0,0,0-.324.75h-2.258a2.268,2.268,0,0,1,.453-1.359,3,3,0,0,1,1.281-.98,4.669,4.669,0,0,1,1.859-.355,3.689,3.689,0,0,1,2.48.785,2.747,2.747,0,0,1,.918,2.207v3.664a4.041,4.041,0,0,0,.336,1.82V17Zm-1.867-1.57a1.945,1.945,0,0,0,.922-.223,1.462,1.462,0,0,0,.625-.6V13.156h-.844q-1.7,0-1.8,1.172l-.008.133a.9.9,0,0,0,.3.7A1.153,1.153,0,0,0,142.734,15.43Zm12.234-8.961V8.547h1.445V10.2h-1.445v4.219a1.007,1.007,0,0,0,.18.672.9.9,0,0,0,.688.2,3.6,3.6,0,0,0,.664-.055v1.711a4.648,4.648,0,0,1-1.367.2,2.156,2.156,0,0,1-2.422-2.4V10.2h-1.234V8.547h1.234V6.469ZM162.57,17a2.507,2.507,0,0,1-.227-.758,2.732,2.732,0,0,1-2.133.914,3,3,0,0,1-2.059-.719,2.312,2.312,0,0,1-.816-1.812,2.389,2.389,0,0,1,1-2.062,4.915,4.915,0,0,1,2.879-.727h1.039v-.484a1.393,1.393,0,0,0-.3-.937,1.183,1.183,0,0,0-.949-.352,1.345,1.345,0,0,0-.895.273.929.929,0,0,0-.324.75h-2.258a2.268,2.268,0,0,1,.453-1.359,3,3,0,0,1,1.281-.98,4.669,4.669,0,0,1,1.859-.355,3.689,3.689,0,0,1,2.48.785,2.747,2.747,0,0,1,.918,2.207v3.664a4.041,4.041,0,0,0,.336,1.82V17ZM160.7,15.43a1.945,1.945,0,0,0,.922-.223,1.462,1.462,0,0,0,.625-.6V13.156h-.844q-1.7,0-1.8,1.172l-.008.133a.9.9,0,0,0,.3.7A1.153,1.153,0,0,0,160.7,15.43Zm13.164-2.578A5.119,5.119,0,0,1,173,16.02a2.872,2.872,0,0,1-2.422,1.137,2.639,2.639,0,0,1-2.2-1.055l-.1.9H166.25V5h2.258V9.3a2.571,2.571,0,0,1,2.055-.914,2.9,2.9,0,0,1,2.426,1.137,5.126,5.126,0,0,1,.879,3.2Zm-2.258-.164a3.363,3.363,0,0,0-.406-1.871,1.374,1.374,0,0,0-1.211-.59,1.489,1.489,0,0,0-1.484.883v3.336a1.509,1.509,0,0,0,1.5.891,1.394,1.394,0,0,0,1.438-1.078A5.562,5.562,0,0,0,171.609,12.688ZM177.641,17h-2.266V5h2.266Zm6.758,0a2.507,2.507,0,0,1-.227-.758,2.732,2.732,0,0,1-2.133.914,3,3,0,0,1-2.059-.719,2.312,2.312,0,0,1-.816-1.812,2.389,2.389,0,0,1,1-2.062,4.915,4.915,0,0,1,2.879-.727h1.039v-.484a1.393,1.393,0,0,0-.3-.937,1.183,1.183,0,0,0-.949-.352,1.345,1.345,0,0,0-.895.273.929.929,0,0,0-.324.75h-2.258a2.268,2.268,0,0,1,.453-1.359,3,3,0,0,1,1.281-.98,4.669,4.669,0,0,1,1.859-.355,3.689,3.689,0,0,1,2.48.785,2.747,2.747,0,0,1,.918,2.207v3.664a4.041,4.041,0,0,0,.336,1.82V17Zm-1.867-1.57a1.945,1.945,0,0,0,.922-.223,1.462,1.462,0,0,0,.625-.6V13.156h-.844q-1.7,0-1.8,1.172l-.008.133a.9.9,0,0,0,.3.7A1.153,1.153,0,0,0,182.531,15.43Zm17.141-2.578a5.07,5.07,0,0,1-.887,3.129,2.843,2.843,0,0,1-2.395,1.176,2.633,2.633,0,0,1-2.07-.891V20.25h-2.258V8.547h2.094l.078.828a2.654,2.654,0,0,1,2.141-.984,2.862,2.862,0,0,1,2.43,1.156,5.207,5.207,0,0,1,.867,3.188Zm-2.258-.164a3.327,3.327,0,0,0-.418-1.82,1.361,1.361,0,0,0-1.215-.641,1.479,1.479,0,0,0-1.461.813V14.5a1.5,1.5,0,0,0,1.477.836Q197.414,15.336,197.414,12.688Zm7.547,4.469a4.15,4.15,0,0,1-3.027-1.141,4.054,4.054,0,0,1-1.168-3.039v-.219a5.106,5.106,0,0,1,.492-2.277,3.612,3.612,0,0,1,1.395-1.547,3.914,3.914,0,0,1,2.059-.543,3.508,3.508,0,0,1,2.73,1.094,4.444,4.444,0,0,1,1,3.1v.922h-5.383a2.1,2.1,0,0,0,.66,1.328,2,2,0,0,0,1.395.5,2.437,2.437,0,0,0,2.039-.945l1.109,1.242a3.389,3.389,0,0,1-1.375,1.121A4.511,4.511,0,0,1,204.961,17.156Zm-.258-6.945a1.411,1.411,0,0,0-1.09.455,2.357,2.357,0,0,0-.535,1.3h3.141v-.181a1.681,1.681,0,0,0-.406-1.165A1.456,1.456,0,0,0,204.7,10.211Zm9.766.453a6.134,6.134,0,0,0-.812-.062,1.654,1.654,0,0,0-1.68.867V17h-2.258V8.547h2.133l.063,1.008A2.092,2.092,0,0,1,213.8,8.391a2.366,2.366,0,0,1,.7.1ZM217.938,17h-2.266V8.547h2.266Zm-2.4-10.641a1.112,1.112,0,0,1,.34-.836,1.465,1.465,0,0,1,1.848,0,1.105,1.105,0,0,1,.344.836,1.109,1.109,0,0,1-.348.844,1.448,1.448,0,0,1-1.836,0A1.109,1.109,0,0,1,215.539,6.359Zm3.906,6.336a5.013,5.013,0,0,1,.484-2.242,3.546,3.546,0,0,1,1.395-1.523,4.069,4.069,0,0,1,2.113-.539,3.849,3.849,0,0,1,2.793,1.047,4.2,4.2,0,0,1,1.207,2.844l.016.578a4.418,4.418,0,0,1-1.086,3.121,4.209,4.209,0,0,1-5.832,0,4.5,4.5,0,0,1-1.09-3.187Zm2.258.16a3.16,3.16,0,0,0,.453,1.843,1.628,1.628,0,0,0,2.578.008,3.457,3.457,0,0,0,.461-2.015,3.128,3.128,0,0,0-.461-1.831,1.5,1.5,0,0,0-1.3-.649,1.474,1.474,0,0,0-1.281.646A3.516,3.516,0,0,0,221.7,12.856ZM223.883,5h2.461L224.18,7.422h-1.836Zm4.609,7.711a5.094,5.094,0,0,1,.887-3.148A2.877,2.877,0,0,1,231.8,8.391a2.589,2.589,0,0,1,2.039.922V5h2.266V17H234.07l-.109-.9a2.657,2.657,0,0,1-2.172,1.055,2.869,2.869,0,0,1-2.395-1.176A5.258,5.258,0,0,1,228.492,12.711Zm2.258.168a3.337,3.337,0,0,0,.414,1.823,1.349,1.349,0,0,0,1.2.634,1.511,1.511,0,0,0,1.477-.884V11.111a1.489,1.489,0,0,0-1.461-.884Q230.75,10.227,230.75,12.879ZM240.242,17h-2.266V8.547h2.266Zm-2.4-10.641a1.112,1.112,0,0,1,.34-.836,1.465,1.465,0,0,1,1.848,0,1.105,1.105,0,0,1,.344.836,1.109,1.109,0,0,1-.348.844,1.448,1.448,0,0,1-1.836,0A1.109,1.109,0,0,1,237.844,6.359Zm7.773,8.977a1.481,1.481,0,0,0,1.016-.344,1.2,1.2,0,0,0,.406-.914h2.117a2.9,2.9,0,0,1-.469,1.574,3.093,3.093,0,0,1-1.262,1.109,3.949,3.949,0,0,1-1.77.395A3.67,3.67,0,0,1,242.8,16a4.56,4.56,0,0,1-1.047-3.184v-.148a4.508,4.508,0,0,1,1.039-3.117,3.627,3.627,0,0,1,2.852-1.164,3.555,3.555,0,0,1,2.543.9,3.2,3.2,0,0,1,.973,2.4h-2.117a1.551,1.551,0,0,0-.406-1.072,1.51,1.51,0,0,0-2.223.163,3.333,3.333,0,0,0-.4,1.866v.235a3.375,3.375,0,0,0,.4,1.878A1.377,1.377,0,0,0,245.617,15.336ZM255.344,17a2.507,2.507,0,0,1-.227-.758,2.732,2.732,0,0,1-2.133.914,3,3,0,0,1-2.059-.719,2.312,2.312,0,0,1-.816-1.812,2.389,2.389,0,0,1,1-2.062,4.915,4.915,0,0,1,2.879-.727h1.039v-.484a1.393,1.393,0,0,0-.3-.937,1.183,1.183,0,0,0-.949-.352,1.345,1.345,0,0,0-.895.273.929.929,0,0,0-.324.75H250.3a2.268,2.268,0,0,1,.453-1.359,3,3,0,0,1,1.281-.98,4.669,4.669,0,0,1,1.859-.355,3.689,3.689,0,0,1,2.48.785,2.747,2.747,0,0,1,.918,2.207v3.664a4.041,4.041,0,0,0,.336,1.82V17Zm-1.867-1.57a1.945,1.945,0,0,0,.922-.223,1.462,1.462,0,0,0,.625-.6V13.156h-.844q-1.7,0-1.8,1.172l-.008.133a.9.9,0,0,0,.3.7A1.153,1.153,0,0,0,253.477,15.43Z" transform="translate(5787 206.019)" fill="#12263f"/>
    <g id="Grupo_178222" data-name="Grupo 178222" transform="translate(0 538.524)">
      <g id="Grupo_178220" data-name="Grupo 178220" transform="translate(-732.953 -12.346)">
        <path id="Trazado_186741" data-name="Trazado 186741" d="M-735.385-300.363h25.438v25.438h-25.438v-25.438Z" transform="translate(7192.031 143.021)" fill="#e6137d" fill-rule="evenodd"/>
        <path id="Trazado_186742" data-name="Trazado 186742" d="M-735.385-157.213h25.438v25.438h-25.438v-25.438Z" transform="translate(7192.031 25.564)" fill="#e6137d" fill-rule="evenodd"/>
        <path id="Trazado_186743" data-name="Trazado 186743" d="M-735.385-14.063h25.438V11.375h-25.438V-14.063Z" transform="translate(7192.031 -91.893)" fill="#e6137d" fill-rule="evenodd"/>
        <path id="Trazado_186744" data-name="Trazado 186744" d="M-735.385,129.086h25.438v25.438h-25.438V129.086Z" transform="translate(7192.031 -209.35)" fill="#e6137d" fill-rule="evenodd"/>
        <path id="Trazado_186745" data-name="Trazado 186745" d="M-735.385,272.235h25.438v25.438h-25.438V272.235Z" transform="translate(7192.031 -326.807)" fill="#e6137d" fill-rule="evenodd"/>
        <path id="Trazado_186746" data-name="Trazado 186746" d="M-735.385,415.386h25.438v25.438h-25.438V415.386Z" transform="translate(7192.031 -444.264)" fill="#e6137d" fill-rule="evenodd"/>
        <path id="Trazado_186747" data-name="Trazado 186747" d="M1411.806-300.416h25.458v25.458h-25.458v-25.458Z" transform="translate(5430.219 143.065)" fill="#f19124" fill-rule="evenodd"/>
        <path id="Trazado_186748" data-name="Trazado 186748" d="M1411.806-157.267h25.458v25.458h-25.458v-25.458Z" transform="translate(5430.219 25.608)" fill="#f19124" fill-rule="evenodd"/>
        <path id="Trazado_186749" data-name="Trazado 186749" d="M1411.806-14.117h25.458V11.34h-25.458V-14.117Z" transform="translate(5430.219 -91.849)" fill="#f19124" fill-rule="evenodd"/>
        <path id="Trazado_186750" data-name="Trazado 186750" d="M1411.806,129.032h25.458V154.49h-25.458V129.032Z" transform="translate(5430.219 -209.306)" fill="#f19124" fill-rule="evenodd"/>
        <path id="Trazado_186751" data-name="Trazado 186751" d="M1411.806,272.182h25.458v25.458h-25.458V272.182Z" transform="translate(5430.219 -326.762)" fill="#f19124" fill-rule="evenodd"/>
        <path id="Trazado_186752" data-name="Trazado 186752" d="M839.261-157.213H864.7v25.438H839.261v-25.438Z" transform="translate(5900.003 25.564)" fill="#f19124" fill-rule="evenodd"/>
        <path id="Trazado_186753" data-name="Trazado 186753" d="M1268.71,415.386h25.438v25.438H1268.71V415.386Z" transform="translate(5547.632 -444.264)" fill="#f19124" fill-rule="evenodd"/>
        <path id="Trazado_186754" data-name="Trazado 186754" d="M1125.56,415.386H1151v25.438H1125.56V415.386Z" transform="translate(5665.09 -444.264)" fill="#f19124" fill-rule="evenodd"/>
        <path id="Trazado_186755" data-name="Trazado 186755" d="M1125.56,272.235H1151v25.438H1125.56V272.235Z" transform="translate(5665.09 -326.807)" fill="#f19124" fill-rule="evenodd"/>
        <path id="Trazado_186756" data-name="Trazado 186756" d="M839.261,415.386H864.7v25.438H839.261V415.386Z" transform="translate(5900.003 -444.264)" fill="#f19124" fill-rule="evenodd"/>
        <path id="Trazado_186757" data-name="Trazado 186757" d="M982.41,129.086h25.438v25.438H982.41V129.086Z" transform="translate(5782.546 -209.35)" fill="#f19124" fill-rule="evenodd"/>
        <path id="Trazado_186758" data-name="Trazado 186758" d="M982.41,272.235h25.438v25.438H982.41V272.235Z" transform="translate(5782.546 -326.807)" fill="#f19124" fill-rule="evenodd"/>
        <path id="Trazado_186759" data-name="Trazado 186759" d="M839.261-14.063H864.7V11.375H839.261V-14.063Z" transform="translate(5900.003 -91.893)" fill="#f19124" fill-rule="evenodd"/>
        <path id="Trazado_186760" data-name="Trazado 186760" d="M839.261,129.086H864.7v25.438H839.261V129.086Z" transform="translate(5900.003 -209.35)" fill="#f19124" fill-rule="evenodd"/>
        <path id="Trazado_186761" data-name="Trazado 186761" d="M839.261,272.235H864.7v25.438H839.261V272.235Z" transform="translate(5900.003 -326.807)" fill="#f19124" fill-rule="evenodd"/>
        <path id="Trazado_186762" data-name="Trazado 186762" d="M982.41,415.386h25.438v25.438H982.41V415.386Z" transform="translate(5782.546 -444.264)" fill="#f19124" fill-rule="evenodd"/>
        <path id="Trazado_186763" data-name="Trazado 186763" d="M-878.535-443.512H-853.1v25.438h-25.438v-25.438Z" transform="translate(7309.488 260.479)" fill="#e6137d" fill-rule="evenodd"/>
        <path id="Trazado_186764" data-name="Trazado 186764" d="M982.41-300.363h25.438v25.438H982.41v-25.438Z" transform="translate(5782.546 143.021)" fill="#f19124" fill-rule="evenodd"/>
        <path id="Trazado_186765" data-name="Trazado 186765" d="M1125.56-300.363H1151v25.438H1125.56v-25.438Z" transform="translate(5665.09 143.021)" fill="#f19124" fill-rule="evenodd"/>
        <path id="Trazado_186766" data-name="Trazado 186766" d="M1268.71-300.363h25.438v25.438H1268.71v-25.438Z" transform="translate(5547.632 143.021)" fill="#f19124" fill-rule="evenodd"/>
        <path id="Trazado_186767" data-name="Trazado 186767" d="M1125.56-157.213H1151v25.438H1125.56v-25.438Z" transform="translate(5665.09 25.564)" fill="#f19124" fill-rule="evenodd"/>
        <path id="Trazado_186768" data-name="Trazado 186768" d="M1268.71-157.213h25.438v25.438H1268.71v-25.438Z" transform="translate(5547.632 25.564)" fill="#f19124" fill-rule="evenodd"/>
        <path id="Trazado_186769" data-name="Trazado 186769" d="M1268.71-14.063h25.438V11.375H1268.71V-14.063Z" transform="translate(5547.632 -91.893)" fill="#f19124" fill-rule="evenodd"/>
        <path id="Trazado_186770" data-name="Trazado 186770" d="M1268.71,129.086h25.438v25.438H1268.71V129.086Z" transform="translate(5547.632 -209.35)" fill="#f19124" fill-rule="evenodd"/>
        <path id="Trazado_186771" data-name="Trazado 186771" d="M1125.56-14.063H1151V11.375H1125.56V-14.063Z" transform="translate(5665.09 -91.893)" fill="#f19124" fill-rule="evenodd"/>
        <path id="Trazado_186772" data-name="Trazado 186772" d="M1125.56,129.086H1151v25.438H1125.56V129.086Z" transform="translate(5665.09 -209.35)" fill="#f19124" fill-rule="evenodd"/>
        <path id="Trazado_186773" data-name="Trazado 186773" d="M839.261-300.363H864.7v25.438H839.261v-25.438Z" transform="translate(5900.003 143.021)" fill="#f19124" fill-rule="evenodd"/>
        <path id="Trazado_186774" data-name="Trazado 186774" d="M982.41-14.063h25.438V11.375H982.41V-14.063Z" transform="translate(5782.546 -91.893)" fill="#f19124" fill-rule="evenodd"/>
        <path id="Trazado_186775" data-name="Trazado 186775" d="M982.41-157.213h25.438v25.438H982.41v-25.438Z" transform="translate(5782.546 25.564)" fill="#f19124" fill-rule="evenodd"/>
        <path id="Trazado_186776" data-name="Trazado 186776" d="M1268.71,272.235h25.438v25.438H1268.71V272.235Z" transform="translate(5547.632 -326.807)" fill="#f19124" fill-rule="evenodd"/>
        <path id="Trazado_186777" data-name="Trazado 186777" d="M-878.535-300.363H-853.1v25.438h-25.438v-25.438Z" transform="translate(7309.488 143.021)" fill="#e6137d" fill-rule="evenodd"/>
        <path id="Trazado_186778" data-name="Trazado 186778" d="M-878.535-157.213H-853.1v25.438h-25.438v-25.438Z" transform="translate(7309.488 25.564)" fill="#e6137d" fill-rule="evenodd"/>
        <path id="Trazado_186779" data-name="Trazado 186779" d="M-878.535-14.063H-853.1V11.375h-25.438V-14.063Z" transform="translate(7309.488 -91.893)" fill="#e6137d" fill-rule="evenodd"/>
        <path id="Trazado_186780" data-name="Trazado 186780" d="M-878.535,129.086H-853.1v25.438h-25.438V129.086Z" transform="translate(7309.488 -209.35)" fill="#e6137d" fill-rule="evenodd"/>
        <path id="Trazado_186781" data-name="Trazado 186781" d="M-878.535,272.235H-853.1v25.438h-25.438V272.235Z" transform="translate(7309.488 -326.807)" fill="#e6137d" fill-rule="evenodd"/>
        <path id="Trazado_186782" data-name="Trazado 186782" d="M-878.535,415.386H-853.1v25.438h-25.438V415.386Z" transform="translate(7309.488 -444.264)" fill="#e6137d" fill-rule="evenodd"/>
        <path id="Trazado_186783" data-name="Trazado 186783" d="M696.111,129.086H721.55v25.438H696.111V129.086Z" transform="translate(6017.46 -209.35)" fill="#94c024" fill-rule="evenodd"/>
        <path id="Trazado_186784" data-name="Trazado 186784" d="M696.111,272.235H721.55v25.438H696.111V272.235Z" transform="translate(6017.46 -326.807)" fill="#94c024" fill-rule="evenodd"/>
        <path id="Trazado_186785" data-name="Trazado 186785" d="M266.663,272.235H292.1v25.438H266.663V272.235Z" transform="translate(6369.831 -326.807)" fill="#94c024" fill-rule="evenodd"/>
        <path id="Trazado_186786" data-name="Trazado 186786" d="M552.962,415.386H578.4v25.438H552.962V415.386Z" transform="translate(6134.917 -444.264)" fill="#94c024" fill-rule="evenodd"/>
        <path id="Trazado_186787" data-name="Trazado 186787" d="M696.111,415.386H721.55v25.438H696.111V415.386Z" transform="translate(6017.46 -444.264)" fill="#94c024" fill-rule="evenodd"/>
        <path id="Trazado_186788" data-name="Trazado 186788" d="M266.663,415.386H292.1v25.438H266.663V415.386Z" transform="translate(6369.831 -444.264)" fill="#94c024" fill-rule="evenodd"/>
        <path id="Trazado_186789" data-name="Trazado 186789" d="M409.813,415.386h25.438v25.438H409.813V415.386Z" transform="translate(6252.374 -444.264)" fill="#94c024" fill-rule="evenodd"/>
        <path id="Trazado_186790" data-name="Trazado 186790" d="M552.962,272.235H578.4v25.438H552.962V272.235Z" transform="translate(6134.917 -326.807)" fill="#94c024" fill-rule="evenodd"/>
        <path id="Trazado_186791" data-name="Trazado 186791" d="M409.813,272.235h25.438v25.438H409.813V272.235Z" transform="translate(6252.374 -326.807)" fill="#94c024" fill-rule="evenodd"/>
        <path id="Trazado_186792" data-name="Trazado 186792" d="M552.962,129.086H578.4v25.438H552.962V129.086Z" transform="translate(6134.917 -209.35)" fill="#94c024" fill-rule="evenodd"/>
        <path id="Trazado_186793" data-name="Trazado 186793" d="M409.813,129.086h25.438v25.438H409.813V129.086Z" transform="translate(6252.374 -209.35)" fill="#94c024" fill-rule="evenodd"/>
        <path id="Trazado_186794" data-name="Trazado 186794" d="M266.663,129.086H292.1v25.438H266.663V129.086Z" transform="translate(6369.831 -209.35)" fill="#94c024" fill-rule="evenodd"/>
        <path id="Trazado_186795" data-name="Trazado 186795" d="M696.111-14.063H721.55V11.375H696.111V-14.063Z" transform="translate(6017.46 -91.893)" fill="#94c024" fill-rule="evenodd"/>
        <path id="Trazado_186796" data-name="Trazado 186796" d="M552.962-14.063H578.4V11.375H552.962V-14.063Z" transform="translate(6134.917 -91.893)" fill="#94c024" fill-rule="evenodd"/>
        <path id="Trazado_186797" data-name="Trazado 186797" d="M409.813-14.063h25.438V11.375H409.813V-14.063Z" transform="translate(6252.374 -91.893)" fill="#94c024" fill-rule="evenodd"/>
        <path id="Trazado_186798" data-name="Trazado 186798" d="M266.663-14.063H292.1V11.375H266.663V-14.063Z" transform="translate(6369.831 -91.893)" fill="#94c024" fill-rule="evenodd"/>
        <path id="Trazado_186799" data-name="Trazado 186799" d="M-162.787,272.235h25.438v25.438h-25.438V272.235Z" transform="translate(6722.203 -326.807)" fill="#94c024" fill-rule="evenodd"/>
        <path id="Trazado_186800" data-name="Trazado 186800" d="M123.513,415.386h25.438v25.438H123.513V415.386Z" transform="translate(6487.289 -444.264)" fill="#94c024" fill-rule="evenodd"/>
        <path id="Trazado_186801" data-name="Trazado 186801" d="M-162.787,415.386h25.438v25.438h-25.438V415.386Z" transform="translate(6722.203 -444.264)" fill="#94c024" fill-rule="evenodd"/>
        <path id="Trazado_186802" data-name="Trazado 186802" d="M-19.637,415.386H5.8v25.438H-19.637V415.386Z" transform="translate(6604.745 -444.264)" fill="#94c024" fill-rule="evenodd"/>
        <path id="Trazado_186803" data-name="Trazado 186803" d="M123.513,272.235h25.438v25.438H123.513V272.235Z" transform="translate(6487.289 -326.807)" fill="#94c024" fill-rule="evenodd"/>
        <path id="Trazado_186804" data-name="Trazado 186804" d="M-19.637,272.235H5.8v25.438H-19.637V272.235Z" transform="translate(6604.745 -326.807)" fill="#94c024" fill-rule="evenodd"/>
        <path id="Trazado_186805" data-name="Trazado 186805" d="M123.513,129.086h25.438v25.438H123.513V129.086Z" transform="translate(6487.289 -209.35)" fill="#94c024" fill-rule="evenodd"/>
        <path id="Trazado_186806" data-name="Trazado 186806" d="M-19.637,129.086H5.8v25.438H-19.637V129.086Z" transform="translate(6604.745 -209.35)" fill="#94c024" fill-rule="evenodd"/>
        <path id="Trazado_186807" data-name="Trazado 186807" d="M-162.787,129.086h25.438v25.438h-25.438V129.086Z" transform="translate(6722.203 -209.35)" fill="#94c024" fill-rule="evenodd"/>
        <path id="Trazado_186808" data-name="Trazado 186808" d="M123.513-14.063h25.438V11.375H123.513V-14.063Z" transform="translate(6487.289 -91.893)" fill="#94c024" fill-rule="evenodd"/>
        <path id="Trazado_186809" data-name="Trazado 186809" d="M-19.637-14.063H5.8V11.375H-19.637V-14.063Z" transform="translate(6604.745 -91.893)" fill="#94c024" fill-rule="evenodd"/>
        <path id="Trazado_186810" data-name="Trazado 186810" d="M-162.787-14.063h25.438V11.375h-25.438V-14.063Z" transform="translate(6722.203 -91.893)" fill="#94c024" fill-rule="evenodd"/>
        <path id="Trazado_186811" data-name="Trazado 186811" d="M-305.936,415.386H-280.5v25.438h-25.438V415.386Z" transform="translate(6839.659 -444.264)" fill="#94c024" fill-rule="evenodd"/>
        <path id="Trazado_186812" data-name="Trazado 186812" d="M-449.086,415.386h25.438v25.438h-25.438V415.386Z" transform="translate(6957.117 -444.264)" fill="#94c024" fill-rule="evenodd"/>
        <path id="Trazado_186813" data-name="Trazado 186813" d="M-305.936,272.235H-280.5v25.438h-25.438V272.235Z" transform="translate(6839.659 -326.807)" fill="#94c024" fill-rule="evenodd"/>
        <path id="Trazado_186814" data-name="Trazado 186814" d="M-449.086,272.235h25.438v25.438h-25.438V272.235Z" transform="translate(6957.117 -326.807)" fill="#94c024" fill-rule="evenodd"/>
        <path id="Trazado_186815" data-name="Trazado 186815" d="M-305.936,129.086H-280.5v25.438h-25.438V129.086Z" transform="translate(6839.659 -209.35)" fill="#94c024" fill-rule="evenodd"/>
        <path id="Trazado_186816" data-name="Trazado 186816" d="M-449.086,129.086h25.438v25.438h-25.438V129.086Z" transform="translate(6957.117 -209.35)" fill="#94c024" fill-rule="evenodd"/>
        <path id="Trazado_186817" data-name="Trazado 186817" d="M-592.235,129.086H-566.8v25.438h-25.438V129.086Z" transform="translate(7074.574 -209.35)" fill="#94c024" fill-rule="evenodd"/>
        <path id="Trazado_186818" data-name="Trazado 186818" d="M-305.936-14.063H-280.5V11.375h-25.438V-14.063Z" transform="translate(6839.659 -91.893)" fill="#94c024" fill-rule="evenodd"/>
        <path id="Trazado_186819" data-name="Trazado 186819" d="M-449.086-14.063h25.438V11.375h-25.438V-14.063Z" transform="translate(6957.117 -91.893)" fill="#94c024" fill-rule="evenodd"/>
        <path id="Trazado_186820" data-name="Trazado 186820" d="M-592.235-14.063H-566.8V11.375h-25.438V-14.063Z" transform="translate(7074.574 -91.893)" fill="#94c024" fill-rule="evenodd"/>
        <path id="Trazado_186821" data-name="Trazado 186821" d="M1555.009-443.512h25.438v25.438h-25.438v-25.438Z" transform="translate(5312.718 260.479)" fill="#e6137d" fill-rule="evenodd"/>
        <path id="Trazado_186822" data-name="Trazado 186822" d="M1555.009-300.363h25.438v25.438h-25.438v-25.438Z" transform="translate(5312.718 143.021)" fill="#f19124" fill-rule="evenodd"/>
        <path id="Trazado_186823" data-name="Trazado 186823" d="M1555.009-157.213h25.438v25.438h-25.438v-25.438Z" transform="translate(5312.718 25.564)" fill="#f19124" fill-rule="evenodd"/>
        <path id="Trazado_186824" data-name="Trazado 186824" d="M1555.009-14.063h25.438V11.375h-25.438V-14.063Z" transform="translate(5312.718 -91.893)" fill="#f19124" fill-rule="evenodd"/>
        <path id="Trazado_186825" data-name="Trazado 186825" d="M1555.009,129.086h25.438v25.438h-25.438V129.086Z" transform="translate(5312.718 -209.35)" fill="#f19124" fill-rule="evenodd"/>
        <path id="Trazado_186826" data-name="Trazado 186826" d="M1555.009,272.235h25.438v25.438h-25.438V272.235Z" transform="translate(5312.718 -326.807)" fill="#f19124" fill-rule="evenodd"/>
        <path id="Trazado_186827" data-name="Trazado 186827" d="M1411.859,632.235H1437.3v25.438h-25.438V632.235Z" transform="translate(5430.175 -622.193)" fill="#94c024" fill-rule="evenodd"/>
        <path id="Trazado_186828" data-name="Trazado 186828" d="M1268.71,632.235h25.438v25.438H1268.71V632.235Z" transform="translate(5547.632 -622.193)" fill="#2ca9e0" fill-rule="evenodd"/>
        <path id="Trazado_186829" data-name="Trazado 186829" d="M1125.56,632.235H1151v25.438H1125.56V632.235Z" transform="translate(5665.09 -622.193)" fill="#2ca9e0" fill-rule="evenodd"/>
        <path id="Trazado_186830" data-name="Trazado 186830" d="M982.41,632.235h25.438v25.438H982.41V632.235Z" transform="translate(5782.546 -622.193)" fill="#2ca9e0" fill-rule="evenodd"/>
        <path id="Trazado_186831" data-name="Trazado 186831" d="M839.261,632.235H864.7v25.438H839.261V632.235Z" transform="translate(5900.003 -622.193)" fill="#2ca9e0" fill-rule="evenodd"/>
        <path id="Trazado_186832" data-name="Trazado 186832" d="M696.111,632.235H721.55v25.438H696.111V632.235Z" transform="translate(6017.46 -622.193)" fill="#2ca9e0" fill-rule="evenodd"/>
        <path id="Trazado_186833" data-name="Trazado 186833" d="M552.962,632.235H578.4v25.438H552.962V632.235Z" transform="translate(6134.917 -622.193)" fill="#2ca9e0" fill-rule="evenodd"/>
        <path id="Trazado_186834" data-name="Trazado 186834" d="M409.813,632.235h25.438v25.438H409.813V632.235Z" transform="translate(6252.374 -622.193)" fill="#2ca9e0" fill-rule="evenodd"/>
        <path id="Trazado_186835" data-name="Trazado 186835" d="M266.663,632.235H292.1v25.438H266.663V632.235Z" transform="translate(6369.831 -622.193)" fill="#2ca9e0" fill-rule="evenodd"/>
        <path id="Trazado_186836" data-name="Trazado 186836" d="M123.513,632.235h25.438v25.438H123.513V632.235Z" transform="translate(6487.289 -622.193)" fill="#2ca9e0" fill-rule="evenodd"/>
        <path id="Trazado_186837" data-name="Trazado 186837" d="M-19.637,632.235H5.8v25.438H-19.637V632.235Z" transform="translate(6604.745 -622.193)" fill="#2ca9e0" fill-rule="evenodd"/>
        <path id="Trazado_186838" data-name="Trazado 186838" d="M-162.787,632.235h25.438v25.438h-25.438V632.235Z" transform="translate(6722.203 -622.193)" fill="#2ca9e0" fill-rule="evenodd"/>
        <path id="Trazado_186839" data-name="Trazado 186839" d="M-305.936,632.235H-280.5v25.438h-25.438V632.235Z" transform="translate(6839.659 -622.193)" fill="#2ca9e0" fill-rule="evenodd"/>
        <path id="Trazado_186840" data-name="Trazado 186840" d="M-449.086,632.235h25.438v25.438h-25.438V632.235Z" transform="translate(6957.117 -622.193)" fill="#2ca9e0" fill-rule="evenodd"/>
        <path id="Trazado_186841" data-name="Trazado 186841" d="M-592.235,632.235H-566.8v25.438h-25.438V632.235Z" transform="translate(7074.574 -622.193)" fill="#2ca9e0" fill-rule="evenodd"/>
        <path id="Trazado_186842" data-name="Trazado 186842" d="M1411.859,775.386H1437.3v25.438h-25.438V775.386Z" transform="translate(5430.175 -739.651)" fill="#94c024" fill-rule="evenodd"/>
        <path id="Trazado_186843" data-name="Trazado 186843" d="M1268.71,775.386h25.438v25.438H1268.71V775.386Z" transform="translate(5547.632 -739.651)" fill="#2ca9e0" fill-rule="evenodd"/>
        <path id="Trazado_186844" data-name="Trazado 186844" d="M1125.56,775.386H1151v25.438H1125.56V775.386Z" transform="translate(5665.09 -739.651)" fill="#2ca9e0" fill-rule="evenodd"/>
        <path id="Trazado_186845" data-name="Trazado 186845" d="M982.41,775.386h25.438v25.438H982.41V775.386Z" transform="translate(5782.546 -739.651)" fill="#2ca9e0" fill-rule="evenodd"/>
        <path id="Trazado_186846" data-name="Trazado 186846" d="M839.261,775.386H864.7v25.438H839.261V775.386Z" transform="translate(5900.003 -739.651)" fill="#2ca9e0" fill-rule="evenodd"/>
        <path id="Trazado_186847" data-name="Trazado 186847" d="M696.111,775.386H721.55v25.438H696.111V775.386Z" transform="translate(6017.46 -739.651)" fill="#2ca9e0" fill-rule="evenodd"/>
        <path id="Trazado_186848" data-name="Trazado 186848" d="M552.962,775.386H578.4v25.438H552.962V775.386Z" transform="translate(6134.917 -739.651)" fill="#2ca9e0" fill-rule="evenodd"/>
        <path id="Trazado_186849" data-name="Trazado 186849" d="M409.813,775.386h25.438v25.438H409.813V775.386Z" transform="translate(6252.374 -739.651)" fill="#2ca9e0" fill-rule="evenodd"/>
        <path id="Trazado_186850" data-name="Trazado 186850" d="M266.663,775.386H292.1v25.438H266.663V775.386Z" transform="translate(6369.831 -739.651)" fill="#2ca9e0" fill-rule="evenodd"/>
        <path id="Trazado_186851" data-name="Trazado 186851" d="M123.513,775.386h25.438v25.438H123.513V775.386Z" transform="translate(6487.289 -739.651)" fill="#2ca9e0" fill-rule="evenodd"/>
        <path id="Trazado_186852" data-name="Trazado 186852" d="M-19.637,775.386H5.8v25.438H-19.637V775.386Z" transform="translate(6604.745 -739.651)" fill="#2ca9e0" fill-rule="evenodd"/>
        <path id="Trazado_186853" data-name="Trazado 186853" d="M-162.787,775.386h25.438v25.438h-25.438V775.386Z" transform="translate(6722.203 -739.651)" fill="#2ca9e0" fill-rule="evenodd"/>
        <path id="Trazado_186854" data-name="Trazado 186854" d="M-305.936,775.386H-280.5v25.438h-25.438V775.386Z" transform="translate(6839.659 -739.651)" fill="#2ca9e0" fill-rule="evenodd"/>
        <path id="Trazado_186855" data-name="Trazado 186855" d="M-449.086,775.386h25.438v25.438h-25.438V775.386Z" transform="translate(6957.117 -739.651)" fill="#2ca9e0" fill-rule="evenodd"/>
        <path id="Trazado_186856" data-name="Trazado 186856" d="M-592.235,775.386H-566.8v25.438h-25.438V775.386Z" transform="translate(7074.574 -739.651)" fill="#2ca9e0" fill-rule="evenodd"/>
        <path id="Trazado_186857" data-name="Trazado 186857" d="M-592.235,129.086H-566.8v25.438h-25.438V129.086Z" transform="translate(7074.574 -157.847)" fill="#94c024" fill-rule="evenodd"/>
        <path id="Trazado_186858" data-name="Trazado 186858" d="M-592.235-14.063H-566.8V11.375h-25.438V-14.063Z" transform="translate(7074.574 -40.391)" fill="#94c024" fill-rule="evenodd"/>
        <path id="Trazado_186859" data-name="Trazado 186859" d="M-592.235-14.063H-566.8L-579.352-1.013l-12.883,12.388V-14.063Z" transform="translate(7074.574 -40.391)" fill="#2ca9e0" fill-rule="evenodd"/>
        <path id="Trazado_186860" data-name="Trazado 186860" d="M-592.235-14.063H-566.8L-579.352-1.013l-12.883,12.388V-14.063Z" transform="translate(7074.574 -14.419)" fill="#2ca9e0" fill-rule="evenodd"/>
        <g id="Trazado_186861" data-name="Trazado 186861" transform="translate(6441.847 -243.005)" fill="#e6137d">
          <path d="M 17.44719696044922 33.3943977355957 C 13.1875467300415 33.3943977355957 9.182856559753418 31.73559761047363 6.17082691192627 28.72356605529785 C 3.158797025680542 25.7115364074707 1.499997019767761 21.70684623718262 1.499997019767761 17.44719696044922 C 1.499997019767761 13.1875467300415 3.158797025680542 9.182856559753418 6.17082691192627 6.17082691192627 C 9.182856559753418 3.158797025680542 13.1875467300415 1.499997019767761 17.44719696044922 1.499997019767761 C 21.70684623718262 1.499997019767761 25.7115364074707 3.158797025680542 28.72356605529785 6.17082691192627 C 31.73559761047363 9.182856559753418 33.3943977355957 13.1875467300415 33.3943977355957 17.44719696044922 C 33.3943977355957 21.70684623718262 31.73559761047363 25.7115364074707 28.72356605529785 28.72356605529785 C 25.7115364074707 31.73559761047363 21.70684623718262 33.3943977355957 17.44719696044922 33.3943977355957 Z" stroke="none"/>
          <path d="M 17.44719696044922 2.999996185302734 C 13.58820724487305 2.999996185302734 9.960197448730469 4.502767562866211 7.231487274169922 7.231487274169922 C 4.502767562866211 9.960197448730469 2.999996185302734 13.58820724487305 2.999996185302734 17.44719696044922 C 2.999996185302734 21.30618667602539 4.502767562866211 24.93419647216797 7.231487274169922 27.66290664672852 C 9.960197448730469 30.39162635803223 13.58820724487305 31.8943977355957 17.44719696044922 31.8943977355957 C 21.30618667602539 31.8943977355957 24.93419647216797 30.39162635803223 27.66290664672852 27.66290664672852 C 30.39162635803223 24.93419647216797 31.8943977355957 21.30618667602539 31.8943977355957 17.44719696044922 C 31.8943977355957 13.58820724487305 30.39162635803223 9.960197448730469 27.66290664672852 7.231487274169922 C 24.93419647216797 4.502767562866211 21.30618667602539 2.999996185302734 17.44719696044922 2.999996185302734 M 17.44719696044922 -3.814697265625e-06 C 27.08301734924316 -3.814697265625e-06 34.8943977355957 7.811376571655273 34.8943977355957 17.44719696044922 C 34.8943977355957 27.08301734924316 27.08301734924316 34.8943977355957 17.44719696044922 34.8943977355957 C 7.811376571655273 34.8943977355957 -3.814697265625e-06 27.08301734924316 -3.814697265625e-06 17.44719696044922 C -3.814697265625e-06 7.811376571655273 7.811376571655273 -3.814697265625e-06 17.44719696044922 -3.814697265625e-06 Z" stroke="none" fill="#082143"/>
        </g>
        <text id="s" transform="translate(6455 -222.005)" fill="#fff" font-size="20" font-family="SegoeUI, Segoe UI"><tspan x="0" y="0">s</tspan></text>
        <g id="Trazado_186862" data-name="Trazado 186862" transform="translate(6606.039 -158.488)" fill="#94c024">
          <path d="M 17.44719696044922 33.3943977355957 C 13.1875467300415 33.3943977355957 9.182856559753418 31.73559761047363 6.17082691192627 28.72356605529785 C 3.158797025680542 25.7115364074707 1.499997019767761 21.70684623718262 1.499997019767761 17.44719696044922 C 1.499997019767761 13.1875467300415 3.158797025680542 9.182856559753418 6.17082691192627 6.17082691192627 C 9.182856559753418 3.158797025680542 13.1875467300415 1.499997019767761 17.44719696044922 1.499997019767761 C 21.70684623718262 1.499997019767761 25.7115364074707 3.158797025680542 28.72356605529785 6.17082691192627 C 31.73559761047363 9.182856559753418 33.3943977355957 13.1875467300415 33.3943977355957 17.44719696044922 C 33.3943977355957 21.70684623718262 31.73559761047363 25.7115364074707 28.72356605529785 28.72356605529785 C 25.7115364074707 31.73559761047363 21.70684623718262 33.3943977355957 17.44719696044922 33.3943977355957 Z" stroke="none"/>
          <path d="M 17.44719696044922 2.999996185302734 C 13.58820724487305 2.999996185302734 9.960197448730469 4.502767562866211 7.231487274169922 7.231487274169922 C 4.502767562866211 9.960197448730469 2.999996185302734 13.58820724487305 2.999996185302734 17.44719696044922 C 2.999996185302734 21.30618667602539 4.502767562866211 24.93419647216797 7.231487274169922 27.66290664672852 C 9.960197448730469 30.39162635803223 13.58820724487305 31.8943977355957 17.44719696044922 31.8943977355957 C 21.30618667602539 31.8943977355957 24.93419647216797 30.39162635803223 27.66290664672852 27.66290664672852 C 30.39162635803223 24.93419647216797 31.8943977355957 21.30618667602539 31.8943977355957 17.44719696044922 C 31.8943977355957 13.58820724487305 30.39162635803223 9.960197448730469 27.66290664672852 7.231487274169922 C 24.93419647216797 4.502767562866211 21.30618667602539 2.999996185302734 17.44719696044922 2.999996185302734 M 17.44719696044922 -3.814697265625e-06 C 27.08301734924316 -3.814697265625e-06 34.8943977355957 7.811376571655273 34.8943977355957 17.44719696044922 C 34.8943977355957 27.08301734924316 27.08301734924316 34.8943977355957 17.44719696044922 34.8943977355957 C 7.811376571655273 34.8943977355957 -3.814697265625e-06 27.08301734924316 -3.814697265625e-06 17.44719696044922 C -3.814697265625e-06 7.811376571655273 7.811376571655273 -3.814697265625e-06 17.44719696044922 -3.814697265625e-06 Z" stroke="none" fill="#082143"/>
        </g>
        <text id="d" transform="translate(6617 -135.005)" fill="#fff" font-size="20" font-family="SegoeUI, Segoe UI"><tspan x="0" y="0">d</tspan></text>
        <g id="Trazado_186863" data-name="Trazado 186863" transform="translate(6798.843 -208.67)" fill="#f19124">
          <path d="M 17.44719696044922 33.3943977355957 C 13.1875467300415 33.3943977355957 9.182856559753418 31.73559761047363 6.17082691192627 28.72356605529785 C 3.158797025680542 25.7115364074707 1.499997019767761 21.70684623718262 1.499997019767761 17.44719696044922 C 1.499997019767761 13.1875467300415 3.158797025680542 9.182856559753418 6.17082691192627 6.17082691192627 C 9.182856559753418 3.158797025680542 13.1875467300415 1.499997019767761 17.44719696044922 1.499997019767761 C 21.70684623718262 1.499997019767761 25.7115364074707 3.158797025680542 28.72356605529785 6.17082691192627 C 31.73559761047363 9.182856559753418 33.3943977355957 13.1875467300415 33.3943977355957 17.44719696044922 C 33.3943977355957 21.70684623718262 31.73559761047363 25.7115364074707 28.72356605529785 28.72356605529785 C 25.7115364074707 31.73559761047363 21.70684623718262 33.3943977355957 17.44719696044922 33.3943977355957 Z" stroke="none"/>
          <path d="M 17.44719696044922 2.999996185302734 C 13.58820724487305 2.999996185302734 9.960197448730469 4.502767562866211 7.231487274169922 7.231487274169922 C 4.502767562866211 9.960197448730469 2.999996185302734 13.58820724487305 2.999996185302734 17.44719696044922 C 2.999996185302734 21.30618667602539 4.502767562866211 24.93419647216797 7.231487274169922 27.66290664672852 C 9.960197448730469 30.39162635803223 13.58820724487305 31.8943977355957 17.44719696044922 31.8943977355957 C 21.30618667602539 31.8943977355957 24.93419647216797 30.39162635803223 27.66290664672852 27.66290664672852 C 30.39162635803223 24.93419647216797 31.8943977355957 21.30618667602539 31.8943977355957 17.44719696044922 C 31.8943977355957 13.58820724487305 30.39162635803223 9.960197448730469 27.66290664672852 7.231487274169922 C 24.93419647216797 4.502767562866211 21.30618667602539 2.999996185302734 17.44719696044922 2.999996185302734 M 17.44719696044922 -3.814697265625e-06 C 27.08301734924316 -3.814697265625e-06 34.8943977355957 7.811376571655273 34.8943977355957 17.44719696044922 C 34.8943977355957 27.08301734924316 27.08301734924316 34.8943977355957 17.44719696044922 34.8943977355957 C 7.811376571655273 34.8943977355957 -3.814697265625e-06 27.08301734924316 -3.814697265625e-06 17.44719696044922 C -3.814697265625e-06 7.811376571655273 7.811376571655273 -3.814697265625e-06 17.44719696044922 -3.814697265625e-06 Z" stroke="none" fill="#082143"/>
        </g>
        <text id="P" transform="translate(6811 -189.005)" fill="#fff" font-size="20" font-family="SegoeUI, Segoe UI"><tspan x="0" y="0">p</tspan></text>
        <g id="Trazado_186864" data-name="Trazado 186864" transform="translate(6438.766 18.029)" fill="#2ca9e0">
          <path d="M 17.44719696044922 33.3943977355957 C 13.1875467300415 33.3943977355957 9.182856559753418 31.73559761047363 6.17082691192627 28.72356605529785 C 3.158797025680542 25.7115364074707 1.499997019767761 21.70684623718262 1.499997019767761 17.44719696044922 C 1.499997019767761 13.1875467300415 3.158797025680542 9.182856559753418 6.17082691192627 6.17082691192627 C 9.182856559753418 3.158797025680542 13.1875467300415 1.499997019767761 17.44719696044922 1.499997019767761 C 21.70684623718262 1.499997019767761 25.7115364074707 3.158797025680542 28.72356605529785 6.17082691192627 C 31.73559761047363 9.182856559753418 33.3943977355957 13.1875467300415 33.3943977355957 17.44719696044922 C 33.3943977355957 21.70684623718262 31.73559761047363 25.7115364074707 28.72356605529785 28.72356605529785 C 25.7115364074707 31.73559761047363 21.70684623718262 33.3943977355957 17.44719696044922 33.3943977355957 Z" stroke="none"/>
          <path d="M 17.44719696044922 2.999996185302734 C 13.58820724487305 2.999996185302734 9.960197448730469 4.502767562866211 7.231487274169922 7.231487274169922 C 4.502767562866211 9.960197448730469 2.999996185302734 13.58820724487305 2.999996185302734 17.44719696044922 C 2.999996185302734 21.30618667602539 4.502767562866211 24.93419647216797 7.231487274169922 27.66290664672852 C 9.960197448730469 30.39162635803223 13.58820724487305 31.8943977355957 17.44719696044922 31.8943977355957 C 21.30618667602539 31.8943977355957 24.93419647216797 30.39162635803223 27.66290664672852 27.66290664672852 C 30.39162635803223 24.93419647216797 31.8943977355957 21.30618667602539 31.8943977355957 17.44719696044922 C 31.8943977355957 13.58820724487305 30.39162635803223 9.960197448730469 27.66290664672852 7.231487274169922 C 24.93419647216797 4.502767562866211 21.30618667602539 2.999996185302734 17.44719696044922 2.999996185302734 M 17.44719696044922 -3.814697265625e-06 C 27.08301734924316 -3.814697265625e-06 34.8943977355957 7.811376571655273 34.8943977355957 17.44719696044922 C 34.8943977355957 27.08301734924316 27.08301734924316 34.8943977355957 17.44719696044922 34.8943977355957 C 7.811376571655273 34.8943977355957 -3.814697265625e-06 27.08301734924316 -3.814697265625e-06 17.44719696044922 C -3.814697265625e-06 7.811376571655273 7.811376571655273 -3.814697265625e-06 17.44719696044922 -3.814697265625e-06 Z" stroke="none" fill="#082143"/>
        </g>
        <text id="f" transform="translate(6453 40.995)" fill="#fff" font-size="20" font-family="SegoeUI, Segoe UI"><tspan x="0" y="0">f</tspan></text>
        <g id="Trazado_186865" data-name="Trazado 186865" transform="translate(6873.676 18.469)" fill="#94c024">
          <path d="M 17.44719696044922 33.3943977355957 C 13.1875467300415 33.3943977355957 9.182856559753418 31.73559761047363 6.17082691192627 28.72356605529785 C 3.158797025680542 25.7115364074707 1.499997019767761 21.70684623718262 1.499997019767761 17.44719696044922 C 1.499997019767761 13.1875467300415 3.158797025680542 9.182856559753418 6.17082691192627 6.17082691192627 C 9.182856559753418 3.158797025680542 13.1875467300415 1.499997019767761 17.44719696044922 1.499997019767761 C 21.70684623718262 1.499997019767761 25.7115364074707 3.158797025680542 28.72356605529785 6.17082691192627 C 31.73559761047363 9.182856559753418 33.3943977355957 13.1875467300415 33.3943977355957 17.44719696044922 C 33.3943977355957 21.70684623718262 31.73559761047363 25.7115364074707 28.72356605529785 28.72356605529785 C 25.7115364074707 31.73559761047363 21.70684623718262 33.3943977355957 17.44719696044922 33.3943977355957 Z" stroke="none"/>
          <path d="M 17.44719696044922 2.999996185302734 C 13.58820724487305 2.999996185302734 9.960197448730469 4.502767562866211 7.231487274169922 7.231487274169922 C 4.502767562866211 9.960197448730469 2.999996185302734 13.58820724487305 2.999996185302734 17.44719696044922 C 2.999996185302734 21.30618667602539 4.502767562866211 24.93419647216797 7.231487274169922 27.66290664672852 C 9.960197448730469 30.39162635803223 13.58820724487305 31.8943977355957 17.44719696044922 31.8943977355957 C 21.30618667602539 31.8943977355957 24.93419647216797 30.39162635803223 27.66290664672852 27.66290664672852 C 30.39162635803223 24.93419647216797 31.8943977355957 21.30618667602539 31.8943977355957 17.44719696044922 C 31.8943977355957 13.58820724487305 30.39162635803223 9.960197448730469 27.66290664672852 7.231487274169922 C 24.93419647216797 4.502767562866211 21.30618667602539 2.999996185302734 17.44719696044922 2.999996185302734 M 17.44719696044922 -3.814697265625e-06 C 27.08301734924316 -3.814697265625e-06 34.8943977355957 7.811376571655273 34.8943977355957 17.44719696044922 C 34.8943977355957 27.08301734924316 27.08301734924316 34.8943977355957 17.44719696044922 34.8943977355957 C 7.811376571655273 34.8943977355957 -3.814697265625e-06 27.08301734924316 -3.814697265625e-06 17.44719696044922 C -3.814697265625e-06 7.811376571655273 7.811376571655273 -3.814697265625e-06 17.44719696044922 -3.814697265625e-06 Z" stroke="none" fill="#082143"/>
        </g>
        <text id="d-2" data-name="d" transform="translate(6885 41.995)" fill="#fff" font-size="20" font-family="SegoeUI, Segoe UI"><tspan x="0" y="0">d</tspan></text>
      </g>
      <g id="Grupo_178221" data-name="Grupo 178221" transform="translate(-660 27.443)">
        <rect id="Rectángulo_46621" data-name="Rectángulo 46621" width="164" height="121" rx="12" transform="translate(6515 -323.443)" fill="#ededed"/>
        <text id="_A_" data-name=" A = " transform="translate(6531 -272.443)" fill="#082143" font-size="9" font-family="SegoeUI-Bold, Segoe UI" font-weight="700"><tspan x="0" y="0" xml:space="preserve"> A = </tspan></text>
        <g id="Trazado_186866" data-name="Trazado 186866" transform="translate(6553.714 -286.973)" fill="#e6137d">
          <path d="M 11.11317729949951 20.72635650634766 C 5.812447071075439 20.72635650634766 1.49999725818634 16.41390800476074 1.49999725818634 11.11317729949951 C 1.49999725818634 5.812447071075439 5.812447071075439 1.49999725818634 11.11317729949951 1.49999725818634 C 16.41390800476074 1.49999725818634 20.72635650634766 5.812447071075439 20.72635650634766 11.11317729949951 C 20.72635650634766 16.41390800476074 16.41390800476074 20.72635650634766 11.11317729949951 20.72635650634766 Z" stroke="none"/>
          <path d="M 11.11317729949951 2.999998092651367 C 6.639556884765625 2.999998092651367 2.999998092651367 6.639556884765625 2.999998092651367 11.11317729949951 C 2.999998092651367 15.5867977142334 6.639556884765625 19.22635650634766 11.11317729949951 19.22635650634766 C 15.5867977142334 19.22635650634766 19.22635650634766 15.5867977142334 19.22635650634766 11.11317729949951 C 19.22635650634766 6.639556884765625 15.5867977142334 2.999998092651367 11.11317729949951 2.999998092651367 M 11.11317729949951 -1.9073486328125e-06 C 17.25081634521484 -1.9073486328125e-06 22.22635650634766 4.975536346435547 22.22635650634766 11.11317729949951 C 22.22635650634766 17.25081634521484 17.25081634521484 22.22635650634766 11.11317729949951 22.22635650634766 C 4.975536346435547 22.22635650634766 -1.9073486328125e-06 17.25081634521484 -1.9073486328125e-06 11.11317729949951 C -1.9073486328125e-06 4.975536346435547 4.975536346435547 -1.9073486328125e-06 11.11317729949951 -1.9073486328125e-06 Z" stroke="none" fill="#082143"/>
        </g>
        <text id="s-2" data-name="s" transform="translate(6561 -272.443)" fill="#fff" font-size="17" font-family="SegoeUI, Segoe UI"><tspan x="0" y="0">s</tspan></text>
        <text id="o_" data-name="o  " transform="translate(6580 -272.443)" fill="#082143" font-size="9" font-family="SegoeUI-Bold, Segoe UI" font-weight="700"><tspan x="0" y="0" xml:space="preserve">o  </tspan></text>
        <g id="Trazado_186867" data-name="Trazado 186867" transform="translate(6593.137 -286.973)" fill="#f19124">
          <path d="M 11.11317729949951 20.72635650634766 C 5.812447071075439 20.72635650634766 1.49999725818634 16.41390800476074 1.49999725818634 11.11317729949951 C 1.49999725818634 5.812447071075439 5.812447071075439 1.49999725818634 11.11317729949951 1.49999725818634 C 16.41390800476074 1.49999725818634 20.72635650634766 5.812447071075439 20.72635650634766 11.11317729949951 C 20.72635650634766 16.41390800476074 16.41390800476074 20.72635650634766 11.11317729949951 20.72635650634766 Z" stroke="none"/>
          <path d="M 11.11317729949951 2.999998092651367 C 6.639556884765625 2.999998092651367 2.999998092651367 6.639556884765625 2.999998092651367 11.11317729949951 C 2.999998092651367 15.5867977142334 6.639556884765625 19.22635650634766 11.11317729949951 19.22635650634766 C 15.5867977142334 19.22635650634766 19.22635650634766 15.5867977142334 19.22635650634766 11.11317729949951 C 19.22635650634766 6.639556884765625 15.5867977142334 2.999998092651367 11.11317729949951 2.999998092651367 M 11.11317729949951 -1.9073486328125e-06 C 17.25081634521484 -1.9073486328125e-06 22.22635650634766 4.975536346435547 22.22635650634766 11.11317729949951 C 22.22635650634766 17.25081634521484 17.25081634521484 22.22635650634766 11.11317729949951 22.22635650634766 C 4.975536346435547 22.22635650634766 -1.9073486328125e-06 17.25081634521484 -1.9073486328125e-06 11.11317729949951 C -1.9073486328125e-06 4.975536346435547 4.975536346435547 -1.9073486328125e-06 11.11317729949951 -1.9073486328125e-06 Z" stroke="none" fill="#082143"/>
        </g>
        <text id="P-2" data-name="P" transform="translate(6599 -273.443)" fill="#fff" font-size="17" font-family="SegoeUI, Segoe UI"><tspan x="0" y="0">p</tspan></text>
        <text id="_B_" data-name=" B = " transform="translate(6531 -247.443)" fill="#082143" font-size="8" font-family="SegoeUI-Bold, Segoe UI" font-weight="700"><tspan x="0" y="0" xml:space="preserve"> B = </tspan></text>
        <g id="Trazado_186868" data-name="Trazado 186868" transform="translate(6553.714 -260.439)" fill="#94c024">
          <path d="M 11.11317729949951 20.72635650634766 C 5.812447071075439 20.72635650634766 1.49999725818634 16.41390800476074 1.49999725818634 11.11317729949951 C 1.49999725818634 5.812447071075439 5.812447071075439 1.49999725818634 11.11317729949951 1.49999725818634 C 16.41390800476074 1.49999725818634 20.72635650634766 5.812447071075439 20.72635650634766 11.11317729949951 C 20.72635650634766 16.41390800476074 16.41390800476074 20.72635650634766 11.11317729949951 20.72635650634766 Z" stroke="none"/>
          <path d="M 11.11317729949951 2.999998092651367 C 6.639556884765625 2.999998092651367 2.999998092651367 6.639556884765625 2.999998092651367 11.11317729949951 C 2.999998092651367 15.5867977142334 6.639556884765625 19.22635650634766 11.11317729949951 19.22635650634766 C 15.5867977142334 19.22635650634766 19.22635650634766 15.5867977142334 19.22635650634766 11.11317729949951 C 19.22635650634766 6.639556884765625 15.5867977142334 2.999998092651367 11.11317729949951 2.999998092651367 M 11.11317729949951 -1.9073486328125e-06 C 17.25081634521484 -1.9073486328125e-06 22.22635650634766 4.975536346435547 22.22635650634766 11.11317729949951 C 22.22635650634766 17.25081634521484 17.25081634521484 22.22635650634766 11.11317729949951 22.22635650634766 C 4.975536346435547 22.22635650634766 -1.9073486328125e-06 17.25081634521484 -1.9073486328125e-06 11.11317729949951 C -1.9073486328125e-06 4.975536346435547 4.975536346435547 -1.9073486328125e-06 11.11317729949951 -1.9073486328125e-06 Z" stroke="none" fill="#082143"/>
        </g>
        <text id="D-3" data-name="D" transform="translate(6559 -244.443)" fill="#fff" font-size="17" font-family="SegoeUI, Segoe UI"><tspan x="0" y="0">d</tspan></text>
        <text id="Transición_interna_" data-name="Transición interna =" transform="translate(6531 -221.443)" fill="#12263f" font-size="10" font-family="Roboto-Bold, Roboto" font-weight="700"><tspan x="0" y="0">Transición interna =</tspan></text>
        <g id="Trazado_186869" data-name="Trazado 186869" transform="translate(6627.631 -235.8)" fill="#2ca9e0">
          <path d="M 11.11317729949951 20.72635650634766 C 5.812447071075439 20.72635650634766 1.49999725818634 16.41390800476074 1.49999725818634 11.11317729949951 C 1.49999725818634 5.812447071075439 5.812447071075439 1.49999725818634 11.11317729949951 1.49999725818634 C 16.41390800476074 1.49999725818634 20.72635650634766 5.812447071075439 20.72635650634766 11.11317729949951 C 20.72635650634766 16.41390800476074 16.41390800476074 20.72635650634766 11.11317729949951 20.72635650634766 Z" stroke="none"/>
          <path d="M 11.11317729949951 2.999998092651367 C 6.639556884765625 2.999998092651367 2.999998092651367 6.639556884765625 2.999998092651367 11.11317729949951 C 2.999998092651367 15.5867977142334 6.639556884765625 19.22635650634766 11.11317729949951 19.22635650634766 C 15.5867977142334 19.22635650634766 19.22635650634766 15.5867977142334 19.22635650634766 11.11317729949951 C 19.22635650634766 6.639556884765625 15.5867977142334 2.999998092651367 11.11317729949951 2.999998092651367 M 11.11317729949951 -1.9073486328125e-06 C 17.25081634521484 -1.9073486328125e-06 22.22635650634766 4.975536346435547 22.22635650634766 11.11317729949951 C 22.22635650634766 17.25081634521484 17.25081634521484 22.22635650634766 11.11317729949951 22.22635650634766 C 4.975536346435547 22.22635650634766 -1.9073486328125e-06 17.25081634521484 -1.9073486328125e-06 11.11317729949951 C -1.9073486328125e-06 4.975536346435547 4.975536346435547 -1.9073486328125e-06 11.11317729949951 -1.9073486328125e-06 Z" stroke="none" fill="#082143"/>
        </g>
        <text id="f-2" data-name="f" transform="translate(6636 -218.443)" fill="#fff" font-size="17" font-family="SegoeUI, Segoe UI"><tspan x="0" y="0">f</tspan></text>
        <text id="GRUPOS_CAS" data-name="GRUPOS CAS" transform="translate(6565 -307.443)" fill="#12263f" font-size="12" font-family="Roboto-Bold, Roboto" font-weight="700"><tspan x="0" y="0">GRUPOS CAS</tspan></text>
      </g>
    </g>
  </g>
</svg>
