<svg xmlns="http://www.w3.org/2000/svg" width="651" height="223" viewBox="0 0 651 223">
  <g id="Grupo_178777" data-name="Grupo 178777" transform="translate(-705 -6890)">
    <path id="Trazado_187506" data-name="Trazado 187506" d="M10,0H641a10,10,0,0,1,10,10V213a10,10,0,0,1-10,10H10A10,10,0,0,1,0,213V10A10,10,0,0,1,10,0Z" transform="translate(705 6890)" fill="#fff"/>
    <path id="Trazado_187507" data-name="Trazado 187507" d="M11.125-16.3l4.666-8.579h5.9L14.441-12.544,21.875,0H15.911L11.125-8.716,6.34,0H.376L7.81-12.544.564-24.883h5.9ZM30.8,0h-7.8V-1.547l3.68-3.922a9.078,9.078,0,0,0,1.121-1.445,2.322,2.322,0,0,0,.363-1.172,1.738,1.738,0,0,0-.383-1.191,1.382,1.382,0,0,0-1.094-.434,1.49,1.49,0,0,0-1.207.527A2.089,2.089,0,0,0,25.046-7.8H22.781a3.729,3.729,0,0,1,.5-1.9,3.5,3.5,0,0,1,1.4-1.348,4.262,4.262,0,0,1,2.055-.488,4.036,4.036,0,0,1,2.73.844A2.985,2.985,0,0,1,30.437-8.3,3.825,3.825,0,0,1,30-6.586a9.551,9.551,0,0,1-1.5,2.039L25.914-1.82H30.8ZM54.075-11.877a15.021,15.021,0,0,1-1.3,6.443,9.782,9.782,0,0,1-3.717,4.272,10.282,10.282,0,0,1-5.546,1.5,10.352,10.352,0,0,1-5.52-1.487,9.877,9.877,0,0,1-3.76-4.247,14.591,14.591,0,0,1-1.35-6.349v-1.23a14.942,14.942,0,0,1,1.324-6.469,9.861,9.861,0,0,1,3.743-4.29,10.3,10.3,0,0,1,5.529-1.5,10.3,10.3,0,0,1,5.529,1.5,9.861,9.861,0,0,1,3.743,4.29,14.9,14.9,0,0,1,1.324,6.451Zm-5.2-1.128a10.471,10.471,0,0,0-1.4-5.947,4.567,4.567,0,0,0-4-2.034A4.568,4.568,0,0,0,39.5-18.978a10.351,10.351,0,0,0-1.418,5.887v1.213a10.6,10.6,0,0,0,1.4,5.913,4.555,4.555,0,0,0,4.033,2.1,4.514,4.514,0,0,0,3.965-2.025,10.541,10.541,0,0,0,1.4-5.9ZM65.844,0H63.5L58.938-7.484V0H56.594V-11.375h2.344l4.57,7.5v-7.5h2.336Z" transform="translate(733 6970)" fill="#082143"/>
    <path id="Trazado_187508" data-name="Trazado 187508" d="M21.831,0h-4.98V-10.359H7.139V0H2.158V-24.172h4.98v9.795h9.712v-9.795h4.98ZM32.057,0h-7.31V-1.45L28.2-5.127a8.51,8.51,0,0,0,1.051-1.355,2.177,2.177,0,0,0,.341-1.1A1.629,1.629,0,0,0,29.23-8.7,1.3,1.3,0,0,0,28.2-9.1a1.4,1.4,0,0,0-1.132.494,1.958,1.958,0,0,0-.414,1.3H24.535A3.5,3.5,0,0,1,25-9.089a3.278,3.278,0,0,1,1.315-1.263,4,4,0,0,1,1.926-.458,3.784,3.784,0,0,1,2.56.791,2.8,2.8,0,0,1,.912,2.234,3.586,3.586,0,0,1-.41,1.611A8.954,8.954,0,0,1,29.9-4.263L27.472-1.707h4.585ZM54.642-11.538A14.592,14.592,0,0,1,53.38-5.279a9.5,9.5,0,0,1-3.611,4.15A9.988,9.988,0,0,1,44.382.332,10.056,10.056,0,0,1,39.02-1.112a9.6,9.6,0,0,1-3.652-4.125,14.174,14.174,0,0,1-1.312-6.167v-1.2a14.515,14.515,0,0,1,1.287-6.284,9.58,9.58,0,0,1,3.636-4.167A10,10,0,0,1,44.349-24.5a10,10,0,0,1,5.371,1.453,9.58,9.58,0,0,1,3.636,4.167,14.474,14.474,0,0,1,1.287,6.267Zm-5.047-1.1a10.172,10.172,0,0,0-1.361-5.777,4.436,4.436,0,0,0-3.885-1.976,4.438,4.438,0,0,0-3.868,1.951A10.056,10.056,0,0,0,39.1-12.717v1.179a10.3,10.3,0,0,0,1.361,5.744,4.425,4.425,0,0,0,3.918,2.042,4.385,4.385,0,0,0,3.852-1.967A10.239,10.239,0,0,0,49.6-11.455Z" transform="translate(878 6971)" fill="#082143"/>
    <path id="Trazado_187509" data-name="Trazado 187509" d="M22.473,0H17.346V-10.664h-10V0H2.222V-24.883H7.349V-14.8h10V-24.883h5.127ZM33.3,0H25.5V-1.547l3.68-3.922A9.078,9.078,0,0,0,30.3-6.914a2.322,2.322,0,0,0,.363-1.172,1.738,1.738,0,0,0-.383-1.191,1.382,1.382,0,0,0-1.094-.434,1.49,1.49,0,0,0-1.207.527A2.089,2.089,0,0,0,27.542-7.8H25.276a3.729,3.729,0,0,1,.5-1.9,3.5,3.5,0,0,1,1.4-1.348,4.262,4.262,0,0,1,2.055-.488,4.036,4.036,0,0,1,2.73.844A2.985,2.985,0,0,1,32.932-8.3a3.825,3.825,0,0,1-.437,1.719,9.551,9.551,0,0,1-1.5,2.039L28.409-1.82H33.3ZM45.034-16.3,49.7-24.883h5.9L48.35-12.544,55.784,0H49.819L45.034-8.716,40.249,0H34.285l7.434-12.544L34.473-24.883h5.9ZM64.713,0h-7.8V-1.547L60.6-5.469a9.078,9.078,0,0,0,1.121-1.445,2.322,2.322,0,0,0,.363-1.172A1.738,1.738,0,0,0,61.7-9.277,1.382,1.382,0,0,0,60.6-9.711a1.49,1.49,0,0,0-1.207.527A2.089,2.089,0,0,0,58.955-7.8H56.689a3.729,3.729,0,0,1,.5-1.9,3.5,3.5,0,0,1,1.4-1.348,4.262,4.262,0,0,1,2.055-.488,4.036,4.036,0,0,1,2.73.844A2.985,2.985,0,0,1,64.346-8.3a3.825,3.825,0,0,1-.437,1.719,9.551,9.551,0,0,1-1.5,2.039L59.822-1.82h4.891ZM87.983-11.877a15.021,15.021,0,0,1-1.3,6.443,9.781,9.781,0,0,1-3.717,4.272,10.282,10.282,0,0,1-5.546,1.5A10.352,10.352,0,0,1,71.9-1.145a9.877,9.877,0,0,1-3.76-4.247,14.591,14.591,0,0,1-1.35-6.349v-1.23a14.942,14.942,0,0,1,1.324-6.469,9.861,9.861,0,0,1,3.743-4.29,10.3,10.3,0,0,1,5.529-1.5,10.3,10.3,0,0,1,5.529,1.5,9.861,9.861,0,0,1,3.743,4.29,14.9,14.9,0,0,1,1.324,6.451Zm-5.2-1.128a10.471,10.471,0,0,0-1.4-5.947,4.567,4.567,0,0,0-4-2.034,4.568,4.568,0,0,0-3.982,2.008,10.351,10.351,0,0,0-1.418,5.887v1.213a10.6,10.6,0,0,0,1.4,5.913,4.555,4.555,0,0,0,4.033,2.1,4.514,4.514,0,0,0,3.965-2.025,10.541,10.541,0,0,0,1.4-5.9ZM99.753,0H97.409L92.847-7.484V0H90.5V-11.375h2.344l4.57,7.5v-7.5h2.336Zm6.453-6.367h2.82v2.039h-2.82v3.188h-2.148V-4.328h-2.828V-6.367h2.828V-9.422h2.148ZM115.776,0h-2.258V-8.7l-2.7.836V-9.7l4.711-1.687h.242Z" transform="translate(1024 6970)" fill="#082143"/>
    <path id="Trazado_187510" data-name="Trazado 187510" d="M21.755-8.289A8.805,8.805,0,0,1,18.79-1.965,10.413,10.413,0,0,1,11.741.342,9.364,9.364,0,0,1,4.213-2.88Q1.47-6.1,1.47-11.724v-1.521a14.916,14.916,0,0,1,1.265-6.323,9.477,9.477,0,0,1,3.615-4.2,10.125,10.125,0,0,1,5.46-1.461,10.144,10.144,0,0,1,6.938,2.307A9.462,9.462,0,0,1,21.79-16.44H16.663a5.2,5.2,0,0,0-1.342-3.495,4.968,4.968,0,0,0-3.512-1.085,4.356,4.356,0,0,0-3.837,1.837q-1.273,1.837-1.307,5.7v1.88q0,4.033,1.222,5.9a4.275,4.275,0,0,0,3.854,1.863A5.062,5.062,0,0,0,15.287-4.93a4.9,4.9,0,0,0,1.342-3.358Zm8.494,4.17H41.135V0H25.122V-24.883h5.127ZM59.139,0h-7.8V-1.547l3.68-3.922a9.078,9.078,0,0,0,1.121-1.445,2.322,2.322,0,0,0,.363-1.172,1.738,1.738,0,0,0-.383-1.191,1.382,1.382,0,0,0-1.094-.434,1.49,1.49,0,0,0-1.207.527A2.089,2.089,0,0,0,53.381-7.8H51.116a3.729,3.729,0,0,1,.5-1.9,3.5,3.5,0,0,1,1.4-1.348,4.262,4.262,0,0,1,2.055-.488,4.036,4.036,0,0,1,2.73.844A2.985,2.985,0,0,1,58.772-8.3a3.825,3.825,0,0,1-.437,1.719,9.551,9.551,0,0,1-1.5,2.039L54.249-1.82h4.891ZM82.41-11.877a15.021,15.021,0,0,1-1.3,6.443,9.781,9.781,0,0,1-3.717,4.272,10.282,10.282,0,0,1-5.546,1.5,10.352,10.352,0,0,1-5.52-1.487,9.877,9.877,0,0,1-3.76-4.247,14.591,14.591,0,0,1-1.35-6.349v-1.23a14.942,14.942,0,0,1,1.324-6.469,9.861,9.861,0,0,1,3.743-4.29,10.3,10.3,0,0,1,5.529-1.5,10.3,10.3,0,0,1,5.529,1.5,9.861,9.861,0,0,1,3.743,4.29,14.9,14.9,0,0,1,1.324,6.451Zm-5.2-1.128a10.471,10.471,0,0,0-1.4-5.947,4.567,4.567,0,0,0-4-2.034,4.568,4.568,0,0,0-3.982,2.008,10.351,10.351,0,0,0-1.418,5.887v1.213a10.6,10.6,0,0,0,1.4,5.913,4.555,4.555,0,0,0,4.033,2.1,4.514,4.514,0,0,0,3.965-2.025,10.541,10.541,0,0,0,1.4-5.9Zm15.207,2.891L88.023,0H85.64l4.406-9.555H84.39v-1.82h8.031Z" transform="translate(719 7081)" fill="#082143"/>
    <path id="Trazado_187511" data-name="Trazado 187511" d="M21.831,0h-4.98V-10.359H7.139V0H2.158V-24.172h4.98v9.795h9.712v-9.795h4.98ZM32.057,0h-7.31V-1.45L28.2-5.127a8.51,8.51,0,0,0,1.051-1.355,2.177,2.177,0,0,0,.341-1.1A1.629,1.629,0,0,0,29.23-8.7,1.3,1.3,0,0,0,28.2-9.1a1.4,1.4,0,0,0-1.132.494,1.958,1.958,0,0,0-.414,1.3H24.535A3.5,3.5,0,0,1,25-9.089a3.278,3.278,0,0,1,1.315-1.263,4,4,0,0,1,1.926-.458,3.784,3.784,0,0,1,2.56.791,2.8,2.8,0,0,1,.912,2.234,3.586,3.586,0,0,1-.41,1.611A8.954,8.954,0,0,1,29.9-4.263L27.472-1.707h4.585ZM54.642-11.538A14.592,14.592,0,0,1,53.38-5.279a9.5,9.5,0,0,1-3.611,4.15A9.988,9.988,0,0,1,44.382.332,10.056,10.056,0,0,1,39.02-1.112a9.6,9.6,0,0,1-3.652-4.125,14.174,14.174,0,0,1-1.312-6.167v-1.2a14.515,14.515,0,0,1,1.287-6.284,9.58,9.58,0,0,1,3.636-4.167A10,10,0,0,1,44.349-24.5a10,10,0,0,1,5.371,1.453,9.58,9.58,0,0,1,3.636,4.167,14.474,14.474,0,0,1,1.287,6.267Zm-5.047-1.1a10.172,10.172,0,0,0-1.361-5.777,4.436,4.436,0,0,0-3.885-1.976,4.438,4.438,0,0,0-3.868,1.951A10.056,10.056,0,0,0,39.1-12.717v1.179a10.3,10.3,0,0,0,1.361,5.744,4.425,4.425,0,0,0,3.918,2.042,4.385,4.385,0,0,0,3.852-1.967A10.239,10.239,0,0,0,49.6-11.455Z" transform="translate(878 7081)" fill="#082143"/>
    <path id="Trazado_187512" data-name="Trazado 187512" d="M22.473,0H17.346V-10.664h-10V0H2.222V-24.883H7.349V-14.8h10V-24.883h5.127ZM33.3,0H25.5V-1.547l3.68-3.922A9.078,9.078,0,0,0,30.3-6.914a2.322,2.322,0,0,0,.363-1.172,1.738,1.738,0,0,0-.383-1.191,1.382,1.382,0,0,0-1.094-.434,1.49,1.49,0,0,0-1.207.527A2.089,2.089,0,0,0,27.542-7.8H25.276a3.729,3.729,0,0,1,.5-1.9,3.5,3.5,0,0,1,1.4-1.348,4.262,4.262,0,0,1,2.055-.488,4.036,4.036,0,0,1,2.73.844A2.985,2.985,0,0,1,32.932-8.3a3.825,3.825,0,0,1-.437,1.719,9.551,9.551,0,0,1-1.5,2.039L28.409-1.82H33.3ZM55.664-8.289A8.805,8.805,0,0,1,52.7-1.965,10.413,10.413,0,0,1,45.649.342,9.364,9.364,0,0,1,38.121-2.88Q35.378-6.1,35.378-11.724v-1.521a14.916,14.916,0,0,1,1.265-6.323,9.477,9.477,0,0,1,3.615-4.2,10.125,10.125,0,0,1,5.46-1.461,10.144,10.144,0,0,1,6.938,2.307A9.462,9.462,0,0,1,55.7-16.44H50.571a5.2,5.2,0,0,0-1.342-3.495,4.968,4.968,0,0,0-3.512-1.085,4.356,4.356,0,0,0-3.837,1.837q-1.273,1.837-1.307,5.7v1.88q0,4.033,1.222,5.9a4.275,4.275,0,0,0,3.854,1.863A5.062,5.062,0,0,0,49.2-4.93a4.9,4.9,0,0,0,1.342-3.358Zm8.494,4.17H75.044V0H59.031V-24.883h5.127ZM84.332,0h-7.8V-1.547l3.68-3.922a9.078,9.078,0,0,0,1.121-1.445A2.322,2.322,0,0,0,81.7-8.086a1.738,1.738,0,0,0-.383-1.191,1.382,1.382,0,0,0-1.094-.434,1.49,1.49,0,0,0-1.207.527A2.089,2.089,0,0,0,78.574-7.8H76.309a3.729,3.729,0,0,1,.5-1.9,3.5,3.5,0,0,1,1.4-1.348,4.262,4.262,0,0,1,2.055-.488,4.036,4.036,0,0,1,2.73.844A2.985,2.985,0,0,1,83.965-8.3a3.825,3.825,0,0,1-.437,1.719,9.551,9.551,0,0,1-1.5,2.039L79.441-1.82h4.891ZM107.6-11.877a15.021,15.021,0,0,1-1.3,6.443,9.781,9.781,0,0,1-3.717,4.272,10.282,10.282,0,0,1-5.546,1.5,10.352,10.352,0,0,1-5.52-1.487,9.877,9.877,0,0,1-3.76-4.247,14.591,14.591,0,0,1-1.35-6.349v-1.23a14.942,14.942,0,0,1,1.324-6.469,9.861,9.861,0,0,1,3.743-4.29,10.3,10.3,0,0,1,5.529-1.5,10.3,10.3,0,0,1,5.529,1.5,9.861,9.861,0,0,1,3.743,4.29,14.9,14.9,0,0,1,1.324,6.451Zm-5.2-1.128a10.471,10.471,0,0,0-1.4-5.947,4.567,4.567,0,0,0-4-2.034,4.568,4.568,0,0,0-3.982,2.008,10.351,10.351,0,0,0-1.418,5.887v1.213a10.6,10.6,0,0,0,1.4,5.913,4.555,4.555,0,0,0,4.033,2.1,4.514,4.514,0,0,0,3.965-2.025,10.541,10.541,0,0,0,1.4-5.9Zm14.887,4.654a2.646,2.646,0,0,1-.414,1.469,2.98,2.98,0,0,1-1.141,1.023,3.3,3.3,0,0,1,1.313,1.1,2.816,2.816,0,0,1,.484,1.645A2.981,2.981,0,0,1,116.5-.723a4.183,4.183,0,0,1-2.8.879,4.2,4.2,0,0,1-2.812-.883,2.974,2.974,0,0,1-1.039-2.391,2.834,2.834,0,0,1,.484-1.648,3.239,3.239,0,0,1,1.3-1.094A2.95,2.95,0,0,1,110.5-6.883a2.664,2.664,0,0,1-.41-1.469,2.948,2.948,0,0,1,.969-2.316,3.814,3.814,0,0,1,2.633-.863,3.839,3.839,0,0,1,2.629.855A2.937,2.937,0,0,1,117.294-8.352Zm-2.023,5.07a1.638,1.638,0,0,0-.43-1.187,1.532,1.532,0,0,0-1.156-.445,1.529,1.529,0,0,0-1.148.441,1.635,1.635,0,0,0-.43,1.191,1.634,1.634,0,0,0,.422,1.172,1.537,1.537,0,0,0,1.172.445,1.533,1.533,0,0,0,1.152-.43A1.631,1.631,0,0,0,115.271-3.281Zm-.234-4.961a1.563,1.563,0,0,0-.352-1.066,1.247,1.247,0,0,0-.992-.4,1.256,1.256,0,0,0-.984.391,1.553,1.553,0,0,0-.352,1.078,1.633,1.633,0,0,0,.352,1.094,1.23,1.23,0,0,0,.992.414,1.219,1.219,0,0,0,.988-.414A1.645,1.645,0,0,0,115.036-8.242Z" transform="translate(1024 7081)" fill="#082143"/>
    <path id="Trazado_187513" data-name="Trazado 187513" d="M22.473,0H17.346V-10.664h-10V0H2.222V-24.883H7.349V-14.8h10V-24.883h5.127ZM46.484-8.289a8.805,8.805,0,0,1-2.965,6.323A10.413,10.413,0,0,1,36.47.342,9.364,9.364,0,0,1,28.942-2.88Q26.2-6.1,26.2-11.724v-1.521a14.916,14.916,0,0,1,1.265-6.323,9.477,9.477,0,0,1,3.615-4.2,10.125,10.125,0,0,1,5.46-1.461,10.144,10.144,0,0,1,6.938,2.307,9.462,9.462,0,0,1,3.042,6.477H41.392a5.2,5.2,0,0,0-1.342-3.495,4.968,4.968,0,0,0-3.512-1.085A4.356,4.356,0,0,0,32.7-19.183q-1.273,1.837-1.307,5.7v1.88q0,4.033,1.222,5.9A4.275,4.275,0,0,0,36.47-3.845,5.062,5.062,0,0,0,40.016-4.93a4.9,4.9,0,0,0,1.342-3.358Zm8.494,4.17H65.864V0H49.851V-24.883h5.127Zm33.171-7.759a15.021,15.021,0,0,1-1.3,6.443,9.781,9.781,0,0,1-3.717,4.272,10.282,10.282,0,0,1-5.546,1.5,10.352,10.352,0,0,1-5.52-1.487,9.877,9.877,0,0,1-3.76-4.247,14.591,14.591,0,0,1-1.35-6.349v-1.23a14.942,14.942,0,0,1,1.324-6.469,9.861,9.861,0,0,1,3.743-4.29,10.3,10.3,0,0,1,5.529-1.5,10.3,10.3,0,0,1,5.529,1.5,9.861,9.861,0,0,1,3.743,4.29,14.9,14.9,0,0,1,1.324,6.451Zm-5.2-1.128a10.471,10.471,0,0,0-1.4-5.947,4.567,4.567,0,0,0-4-2.034,4.568,4.568,0,0,0-3.982,2.008,10.351,10.351,0,0,0-1.418,5.887v1.213a10.6,10.6,0,0,0,1.4,5.913,4.555,4.555,0,0,0,4.033,2.1,4.514,4.514,0,0,0,3.965-2.025,10.541,10.541,0,0,0,1.4-5.9ZM97.106-4.281H98.4v1.82H97.106V0H94.849V-2.461H90.185l-.1-1.422,4.742-7.492h2.281Zm-4.773,0h2.516V-8.3l-.148.258Z" transform="translate(1219 7081)" fill="#082143"/>
    <path id="Trazado_187514" data-name="Trazado 187514" d="M20.713-8.289h-6.58v6.58H10.681v-6.58H4.067v-3.469h6.614v-6.614h3.452v6.614h6.58Z" transform="translate(839 6971)" fill="#1ec488"/>
    <path id="Trazado_187515" data-name="Trazado 187515" d="M20.713-8.289h-6.58v6.58H10.681v-6.58H4.067v-3.469h6.614v-6.614h3.452v6.614h6.58Z" transform="translate(839 7082)" fill="#1ec488"/>
    <path id="Trazado_23831" data-name="Trazado 23831" d="M494.943,1195.842l-26.452,1.911v-12.291l26.452,1.911Z" transform="translate(498.505 5767.875)" fill="#1ec488"/>
    <path id="Trazado_23832" data-name="Trazado 23832" d="M568.466,1178.506l-1.786-10.177,15.857,10.177-15.857,10.177Z" transform="translate(423.421 5780.977)" fill="#1ec488"/>
    <path id="Trazado_23831-2" data-name="Trazado 23831" d="M494.943,1195.842l-26.452,1.911v-12.291l26.452,1.911Z" transform="translate(498.505 5878.432)" fill="#1ec488"/>
    <path id="Trazado_23832-2" data-name="Trazado 23832" d="M568.466,1178.506l-1.786-10.177,15.857,10.177-15.857,10.177Z" transform="translate(423.421 5891.533)" fill="#1ec488"/>
    <path id="Trazado_23831-3" data-name="Trazado 23831" d="M494.943,1195.842l-26.452,1.911v-12.291l26.452,1.911Z" transform="translate(707.855 5878.432)" fill="#1ec488"/>
    <path id="Trazado_23832-3" data-name="Trazado 23832" d="M568.466,1178.506l-1.786-10.177,15.857,10.177-15.857,10.177Z" transform="translate(632.771 5891.533)" fill="#1ec488"/>
    <path id="Trazado_187516" data-name="Trazado 187516" d="M-40.43-4.008V0h-2.344V-11.375h4.438a5.134,5.134,0,0,1,2.254.469,3.454,3.454,0,0,1,1.5,1.332,3.714,3.714,0,0,1,.523,1.965,3.266,3.266,0,0,1-1.145,2.637,4.767,4.767,0,0,1-3.168.965Zm0-1.9h2.094a2.059,2.059,0,0,0,1.418-.437,1.591,1.591,0,0,0,.488-1.25,1.876,1.876,0,0,0-.492-1.352,1.839,1.839,0,0,0-1.359-.531H-40.43Zm12.578-.43a6.134,6.134,0,0,0-.812-.062,1.654,1.654,0,0,0-1.68.867V0H-32.6V-8.453h2.133l.063,1.008a2.092,2.092,0,0,1,1.883-1.164,2.366,2.366,0,0,1,.7.1ZM-24.383,0h-2.266V-8.453h2.266Zm-2.4-10.641a1.112,1.112,0,0,1,.34-.836,1.277,1.277,0,0,1,.926-.328,1.28,1.28,0,0,1,.922.328,1.105,1.105,0,0,1,.344.836A1.108,1.108,0,0,1-24.6-9.8a1.283,1.283,0,0,1-.918.328,1.283,1.283,0,0,1-.918-.328A1.108,1.108,0,0,1-26.781-10.641Zm6.375,2.188.07.945a2.971,2.971,0,0,1,2.43-1.1A2.255,2.255,0,0,1-15.664-7.32a2.9,2.9,0,0,1,2.539-1.289,2.521,2.521,0,0,1,2.047.8,3.681,3.681,0,0,1,.672,2.41V0h-2.266V-5.391a1.61,1.61,0,0,0-.281-1.051,1.246,1.246,0,0,0-.992-.332,1.409,1.409,0,0,0-1.406.969l.008,5.8H-17.6V-5.383a1.59,1.59,0,0,0-.289-1.062,1.259,1.259,0,0,0-.984-.328,1.463,1.463,0,0,0-1.391.8V0h-2.258V-8.453ZM-4.781.156A4.15,4.15,0,0,1-7.809-.984,4.054,4.054,0,0,1-8.977-4.023v-.219A5.106,5.106,0,0,1-8.484-6.52,3.612,3.612,0,0,1-7.09-8.066a3.914,3.914,0,0,1,2.059-.543A3.508,3.508,0,0,1-2.3-7.516a4.444,4.444,0,0,1,1,3.1v.922H-6.687a2.1,2.1,0,0,0,.66,1.328,2,2,0,0,0,1.395.5,2.437,2.437,0,0,0,2.039-.945l1.109,1.242A3.389,3.389,0,0,1-2.859-.246,4.511,4.511,0,0,1-4.781.156Zm-.258-6.945a1.411,1.411,0,0,0-1.09.455,2.357,2.357,0,0,0-.535,1.3h3.141v-.181A1.681,1.681,0,0,0-3.93-6.377,1.456,1.456,0,0,0-5.039-6.789Zm9.766.453A6.134,6.134,0,0,0,3.914-6.4a1.654,1.654,0,0,0-1.68.867V0H-.023V-8.453H2.109l.063,1.008A2.092,2.092,0,0,1,4.055-8.609a2.366,2.366,0,0,1,.7.1Zm12.68,2.188A5.07,5.07,0,0,1,16.52-1.02,2.843,2.843,0,0,1,14.125.156a2.633,2.633,0,0,1-2.07-.891V3.25H9.8v-11.7h2.094l.078.828a2.654,2.654,0,0,1,2.141-.984,2.862,2.862,0,0,1,2.43,1.156,5.207,5.207,0,0,1,.867,3.188Zm-2.258-.164a3.327,3.327,0,0,0-.418-1.82,1.361,1.361,0,0,0-1.215-.641,1.478,1.478,0,0,0-1.461.813V-2.5a1.5,1.5,0,0,0,1.477.836Q15.148-1.664,15.148-4.312ZM23.7,0a2.507,2.507,0,0,1-.227-.758,2.732,2.732,0,0,1-2.133.914,3,3,0,0,1-2.059-.719,2.312,2.312,0,0,1-.816-1.812,2.389,2.389,0,0,1,1-2.062,4.915,4.915,0,0,1,2.879-.727h1.039v-.484a1.393,1.393,0,0,0-.3-.937,1.183,1.183,0,0,0-.949-.352,1.345,1.345,0,0,0-.895.273.929.929,0,0,0-.324.75H18.656a2.268,2.268,0,0,1,.453-1.359,3,3,0,0,1,1.281-.98,4.669,4.669,0,0,1,1.859-.355,3.689,3.689,0,0,1,2.48.785,2.747,2.747,0,0,1,.918,2.207v3.664a4.041,4.041,0,0,0,.336,1.82V0ZM21.836-1.57a1.945,1.945,0,0,0,.922-.223,1.462,1.462,0,0,0,.625-.6V-3.844h-.844q-1.7,0-1.8,1.172l-.008.133a.9.9,0,0,0,.3.7A1.153,1.153,0,0,0,21.836-1.57Zm10.125-.766a.727.727,0,0,0-.41-.652,4.659,4.659,0,0,0-1.316-.426q-3.016-.633-3.016-2.562a2.323,2.323,0,0,1,.934-1.879,3.766,3.766,0,0,1,2.441-.754,4.053,4.053,0,0,1,2.574.758,2.388,2.388,0,0,1,.965,1.969H31.875a1.092,1.092,0,0,0-.312-.8A1.322,1.322,0,0,0,30.586-7a1.351,1.351,0,0,0-.883.258.814.814,0,0,0-.312.656.7.7,0,0,0,.355.605,3.657,3.657,0,0,0,1.2.4,9.8,9.8,0,0,1,1.422.379A2.336,2.336,0,0,1,34.156-2.43a2.2,2.2,0,0,1-.992,1.871A4.28,4.28,0,0,1,30.6.156a4.47,4.47,0,0,1-1.887-.379,3.166,3.166,0,0,1-1.293-1.039,2.414,2.414,0,0,1-.469-1.426h2.141a1.179,1.179,0,0,0,.445.922,1.766,1.766,0,0,0,1.109.32,1.635,1.635,0,0,0,.98-.246A.766.766,0,0,0,31.961-2.336Zm3.3-1.969a5.013,5.013,0,0,1,.484-2.242A3.546,3.546,0,0,1,37.137-8.07a4.069,4.069,0,0,1,2.113-.539,3.849,3.849,0,0,1,2.793,1.047A4.2,4.2,0,0,1,43.25-4.719l.016.578A4.418,4.418,0,0,1,42.18-1.02,3.775,3.775,0,0,1,39.266.156a3.793,3.793,0,0,1-2.918-1.172A4.5,4.5,0,0,1,35.258-4.2Zm2.258.16A3.16,3.16,0,0,0,37.969-2.3a1.5,1.5,0,0,0,1.3.638,1.5,1.5,0,0,0,1.281-.63,3.457,3.457,0,0,0,.461-2.015,3.128,3.128,0,0,0-.461-1.831,1.5,1.5,0,0,0-1.3-.649,1.474,1.474,0,0,0-1.281.646A3.516,3.516,0,0,0,37.516-4.144Z" transform="translate(763 6921)" fill="#12263f"/>
    <path id="Trazado_187517" data-name="Trazado 187517" d="M-44.3-2.984A1.2,1.2,0,0,0-44.773-4a6.148,6.148,0,0,0-1.687-.75,11.962,11.962,0,0,1-1.93-.777,3.153,3.153,0,0,1-1.937-2.82A2.747,2.747,0,0,1-49.809-10a3.389,3.389,0,0,1,1.492-1.129,5.616,5.616,0,0,1,2.184-.406,5.112,5.112,0,0,1,2.172.441,3.458,3.458,0,0,1,1.48,1.246,3.261,3.261,0,0,1,.527,1.828H-44.3a1.534,1.534,0,0,0-.492-1.215,2.023,2.023,0,0,0-1.383-.434,2.162,2.162,0,0,0-1.336.363,1.146,1.146,0,0,0-.477.957,1.1,1.1,0,0,0,.559.93,6.311,6.311,0,0,0,1.645.7,7.106,7.106,0,0,1,2.914,1.492A2.972,2.972,0,0,1-41.953-3,2.737,2.737,0,0,1-43.07-.684a4.891,4.891,0,0,1-3.008.84,5.808,5.808,0,0,1-2.391-.48,3.783,3.783,0,0,1-1.645-1.316,3.371,3.371,0,0,1-.566-1.937h2.352q0,1.883,2.25,1.883a2.189,2.189,0,0,0,1.3-.34A1.106,1.106,0,0,0-44.3-2.984Zm7.68,3.141A4.15,4.15,0,0,1-39.652-.984,4.054,4.054,0,0,1-40.82-4.023v-.219a5.106,5.106,0,0,1,.492-2.277,3.612,3.612,0,0,1,1.395-1.547,3.914,3.914,0,0,1,2.059-.543,3.508,3.508,0,0,1,2.73,1.094,4.444,4.444,0,0,1,1,3.1v.922h-5.383a2.1,2.1,0,0,0,.66,1.328,2,2,0,0,0,1.395.5,2.437,2.437,0,0,0,2.039-.945l1.109,1.242A3.389,3.389,0,0,1-34.7-.246,4.511,4.511,0,0,1-36.625.156Zm-.258-6.945a1.411,1.411,0,0,0-1.09.455,2.357,2.357,0,0,0-.535,1.3h3.141v-.181a1.681,1.681,0,0,0-.406-1.165A1.456,1.456,0,0,0-36.883-6.789Zm4.688,2.5a4.954,4.954,0,0,1,.926-3.133,3,3,0,0,1,2.5-1.187,2.631,2.631,0,0,1,2.164.953l.094-.8h2.047V-.281a3.613,3.613,0,0,1-.5,1.93A3.236,3.236,0,0,1-26.391,2.9a4.985,4.985,0,0,1-2.141.43,4.635,4.635,0,0,1-1.812-.371A3.217,3.217,0,0,1-31.68,2l1-1.375a2.645,2.645,0,0,0,2.047.945,1.936,1.936,0,0,0,1.4-.48,1.8,1.8,0,0,0,.5-1.363V-.727a2.612,2.612,0,0,1-2.055.883,2.992,2.992,0,0,1-2.465-1.191A4.953,4.953,0,0,1-32.2-4.2Zm2.258.168a3.085,3.085,0,0,0,.461,1.8,1.466,1.466,0,0,0,1.266.653,1.568,1.568,0,0,0,1.477-.775V-6A1.564,1.564,0,0,0-28.2-6.773a1.476,1.476,0,0,0-1.277.665A3.477,3.477,0,0,0-29.937-4.121ZM-17.672-.859A2.831,2.831,0,0,1-19.984.156a2.67,2.67,0,0,1-2.074-.781,3.335,3.335,0,0,1-.73-2.289V-8.453h2.258v5.467q0,1.322,1.2,1.322a1.63,1.63,0,0,0,1.578-.8V-8.453h2.266V0h-2.125ZM-11.7-8.453l.07.977A2.951,2.951,0,0,1-9.2-8.609a2.453,2.453,0,0,1,2,.789,3.682,3.682,0,0,1,.672,2.359V0H-8.789V-5.406A1.465,1.465,0,0,0-9.1-6.449a1.4,1.4,0,0,0-1.039-.324,1.553,1.553,0,0,0-1.43.813V0h-2.258V-8.453Zm6.531,4.164a5.094,5.094,0,0,1,.887-3.148A2.877,2.877,0,0,1-1.859-8.609,2.589,2.589,0,0,1,.18-7.687V-12H2.445V0H.406L.3-.9A2.657,2.657,0,0,1-1.875.156,2.869,2.869,0,0,1-4.27-1.02,5.258,5.258,0,0,1-5.172-4.289Zm2.258.168A3.337,3.337,0,0,0-2.5-2.3a1.349,1.349,0,0,0,1.2.634A1.511,1.511,0,0,0,.18-2.548V-5.889a1.489,1.489,0,0,0-1.461-.884Q-2.914-6.773-2.914-4.121ZM3.844-4.3a5.013,5.013,0,0,1,.484-2.242A3.546,3.546,0,0,1,5.723-8.07a4.069,4.069,0,0,1,2.113-.539,3.849,3.849,0,0,1,2.793,1.047,4.2,4.2,0,0,1,1.207,2.844l.016.578A4.418,4.418,0,0,1,10.766-1.02,3.775,3.775,0,0,1,7.852.156,3.793,3.793,0,0,1,4.934-1.016,4.5,4.5,0,0,1,3.844-4.2Zm2.258.16A3.16,3.16,0,0,0,6.555-2.3a1.5,1.5,0,0,0,1.3.638,1.5,1.5,0,0,0,1.281-.63,3.457,3.457,0,0,0,.461-2.015A3.128,3.128,0,0,0,9.133-6.14a1.5,1.5,0,0,0-1.3-.649,1.474,1.474,0,0,0-1.281.646A3.516,3.516,0,0,0,6.1-4.144Zm18.734,0a5.07,5.07,0,0,1-.887,3.129A2.843,2.843,0,0,1,21.555.156a2.633,2.633,0,0,1-2.07-.891V3.25H17.227v-11.7H19.32l.078.828a2.654,2.654,0,0,1,2.141-.984,2.862,2.862,0,0,1,2.43,1.156,5.207,5.207,0,0,1,.867,3.188Zm-2.258-.164a3.327,3.327,0,0,0-.418-1.82,1.361,1.361,0,0,0-1.215-.641,1.478,1.478,0,0,0-1.461.813V-2.5a1.5,1.5,0,0,0,1.477.836Q22.578-1.664,22.578-4.312ZM31.133,0a2.507,2.507,0,0,1-.227-.758,2.732,2.732,0,0,1-2.133.914,3,3,0,0,1-2.059-.719A2.312,2.312,0,0,1,25.9-2.375a2.389,2.389,0,0,1,1-2.062,4.915,4.915,0,0,1,2.879-.727h1.039v-.484a1.393,1.393,0,0,0-.3-.937,1.183,1.183,0,0,0-.949-.352,1.345,1.345,0,0,0-.895.273.929.929,0,0,0-.324.75H26.086a2.268,2.268,0,0,1,.453-1.359,3,3,0,0,1,1.281-.98,4.669,4.669,0,0,1,1.859-.355,3.689,3.689,0,0,1,2.48.785,2.747,2.747,0,0,1,.918,2.207v3.664a4.041,4.041,0,0,0,.336,1.82V0ZM29.266-1.57a1.945,1.945,0,0,0,.922-.223,1.462,1.462,0,0,0,.625-.6V-3.844h-.844q-1.7,0-1.8,1.172l-.008.133a.9.9,0,0,0,.3.7A1.153,1.153,0,0,0,29.266-1.57Zm10.125-.766a.727.727,0,0,0-.41-.652,4.659,4.659,0,0,0-1.316-.426q-3.016-.633-3.016-2.562a2.323,2.323,0,0,1,.934-1.879,3.766,3.766,0,0,1,2.441-.754,4.053,4.053,0,0,1,2.574.758,2.388,2.388,0,0,1,.965,1.969H39.3a1.092,1.092,0,0,0-.312-.8A1.322,1.322,0,0,0,38.016-7a1.351,1.351,0,0,0-.883.258.814.814,0,0,0-.312.656.7.7,0,0,0,.355.605,3.657,3.657,0,0,0,1.2.4A9.8,9.8,0,0,1,39.8-4.7,2.336,2.336,0,0,1,41.586-2.43a2.2,2.2,0,0,1-.992,1.871,4.28,4.28,0,0,1-2.562.715,4.47,4.47,0,0,1-1.887-.379,3.166,3.166,0,0,1-1.293-1.039,2.414,2.414,0,0,1-.469-1.426h2.141a1.179,1.179,0,0,0,.445.922,1.766,1.766,0,0,0,1.109.32,1.635,1.635,0,0,0,.98-.246A.766.766,0,0,0,39.391-2.336Zm3.3-1.969a5.013,5.013,0,0,1,.484-2.242A3.546,3.546,0,0,1,44.566-8.07a4.069,4.069,0,0,1,2.113-.539,3.849,3.849,0,0,1,2.793,1.047A4.2,4.2,0,0,1,50.68-4.719l.016.578A4.418,4.418,0,0,1,49.609-1.02,3.775,3.775,0,0,1,46.7.156a3.793,3.793,0,0,1-2.918-1.172A4.5,4.5,0,0,1,42.688-4.2Zm2.258.16A3.16,3.16,0,0,0,45.4-2.3a1.5,1.5,0,0,0,1.3.638,1.5,1.5,0,0,0,1.281-.63,3.457,3.457,0,0,0,.461-2.015,3.128,3.128,0,0,0-.461-1.831,1.5,1.5,0,0,0-1.3-.649,1.474,1.474,0,0,0-1.281.646A3.516,3.516,0,0,0,44.945-4.144Z" transform="translate(906 6922)" fill="#12263f"/>
    <path id="Trazado_187518" data-name="Trazado 187518" d="M-33.375-9.477h-3.484V0H-39.2V-9.477h-3.437v-1.9h9.266ZM-28.3.156A4.15,4.15,0,0,1-31.324-.984a4.054,4.054,0,0,1-1.168-3.039v-.219A5.106,5.106,0,0,1-32-6.52a3.612,3.612,0,0,1,1.395-1.547,3.914,3.914,0,0,1,2.059-.543,3.508,3.508,0,0,1,2.73,1.094,4.444,4.444,0,0,1,1,3.1v.922H-30.2a2.1,2.1,0,0,0,.66,1.328,2,2,0,0,0,1.395.5,2.437,2.437,0,0,0,2.039-.945L-25-1.367A3.389,3.389,0,0,1-26.375-.246,4.511,4.511,0,0,1-28.3.156Zm-.258-6.945a1.411,1.411,0,0,0-1.09.455,2.357,2.357,0,0,0-.535,1.3h3.141v-.181a1.681,1.681,0,0,0-.406-1.165A1.456,1.456,0,0,0-28.555-6.789Zm9.766.453A6.134,6.134,0,0,0-19.6-6.4a1.654,1.654,0,0,0-1.68.867V0h-2.258V-8.453h2.133l.063,1.008a2.092,2.092,0,0,1,1.883-1.164,2.366,2.366,0,0,1,.7.1Zm4.453,4.672a1.481,1.481,0,0,0,1.016-.344,1.2,1.2,0,0,0,.406-.914H-10.8a2.9,2.9,0,0,1-.469,1.574A3.093,3.093,0,0,1-12.527-.238,3.949,3.949,0,0,1-14.3.156,3.67,3.67,0,0,1-17.156-1,4.56,4.56,0,0,1-18.2-4.18v-.148a4.508,4.508,0,0,1,1.039-3.117,3.627,3.627,0,0,1,2.852-1.164,3.555,3.555,0,0,1,2.543.9A3.2,3.2,0,0,1-10.8-5.3h-2.117a1.551,1.551,0,0,0-.406-1.072,1.354,1.354,0,0,0-1.031-.412,1.36,1.36,0,0,0-1.191.575,3.333,3.333,0,0,0-.4,1.866v.235a3.375,3.375,0,0,0,.4,1.878A1.377,1.377,0,0,0-14.336-1.664ZM-5.617.156A4.15,4.15,0,0,1-8.645-.984,4.054,4.054,0,0,1-9.812-4.023v-.219A5.106,5.106,0,0,1-9.32-6.52,3.612,3.612,0,0,1-7.926-8.066a3.914,3.914,0,0,1,2.059-.543,3.508,3.508,0,0,1,2.73,1.094,4.444,4.444,0,0,1,1,3.1v.922H-7.523a2.1,2.1,0,0,0,.66,1.328,2,2,0,0,0,1.395.5A2.437,2.437,0,0,0-3.43-2.609L-2.32-1.367A3.389,3.389,0,0,1-3.7-.246,4.511,4.511,0,0,1-5.617.156Zm-.258-6.945a1.411,1.411,0,0,0-1.09.455,2.357,2.357,0,0,0-.535,1.3h3.141v-.181a1.681,1.681,0,0,0-.406-1.165A1.456,1.456,0,0,0-5.875-6.789Zm9.766.453A6.134,6.134,0,0,0,3.078-6.4a1.654,1.654,0,0,0-1.68.867V0H-.859V-8.453H1.273l.063,1.008A2.092,2.092,0,0,1,3.219-8.609a2.366,2.366,0,0,1,.7.1ZM16.57-4.148a5.07,5.07,0,0,1-.887,3.129A2.843,2.843,0,0,1,13.289.156a2.633,2.633,0,0,1-2.07-.891V3.25H8.961v-11.7h2.094l.078.828a2.654,2.654,0,0,1,2.141-.984A2.862,2.862,0,0,1,15.7-7.453a5.207,5.207,0,0,1,.867,3.188Zm-2.258-.164a3.327,3.327,0,0,0-.418-1.82,1.361,1.361,0,0,0-1.215-.641,1.478,1.478,0,0,0-1.461.813V-2.5a1.5,1.5,0,0,0,1.477.836Q14.313-1.664,14.313-4.312ZM22.867,0a2.507,2.507,0,0,1-.227-.758,2.732,2.732,0,0,1-2.133.914,3,3,0,0,1-2.059-.719,2.312,2.312,0,0,1-.816-1.812,2.389,2.389,0,0,1,1-2.062,4.915,4.915,0,0,1,2.879-.727h1.039v-.484a1.393,1.393,0,0,0-.3-.937,1.183,1.183,0,0,0-.949-.352,1.345,1.345,0,0,0-.895.273.929.929,0,0,0-.324.75H17.82a2.268,2.268,0,0,1,.453-1.359,3,3,0,0,1,1.281-.98,4.669,4.669,0,0,1,1.859-.355,3.689,3.689,0,0,1,2.48.785,2.747,2.747,0,0,1,.918,2.207v3.664a4.041,4.041,0,0,0,.336,1.82V0ZM21-1.57a1.945,1.945,0,0,0,.922-.223,1.462,1.462,0,0,0,.625-.6V-3.844H21.7q-1.7,0-1.8,1.172l-.008.133a.9.9,0,0,0,.3.7A1.153,1.153,0,0,0,21-1.57Zm10.125-.766a.727.727,0,0,0-.41-.652A4.659,4.659,0,0,0,29.4-3.414q-3.016-.633-3.016-2.562a2.323,2.323,0,0,1,.934-1.879,3.766,3.766,0,0,1,2.441-.754,4.053,4.053,0,0,1,2.574.758A2.388,2.388,0,0,1,33.3-5.883H31.039a1.092,1.092,0,0,0-.312-.8A1.322,1.322,0,0,0,29.75-7a1.351,1.351,0,0,0-.883.258.814.814,0,0,0-.312.656.7.7,0,0,0,.355.605,3.657,3.657,0,0,0,1.2.4,9.8,9.8,0,0,1,1.422.379A2.336,2.336,0,0,1,33.32-2.43a2.2,2.2,0,0,1-.992,1.871,4.28,4.28,0,0,1-2.562.715,4.47,4.47,0,0,1-1.887-.379,3.166,3.166,0,0,1-1.293-1.039,2.414,2.414,0,0,1-.469-1.426h2.141a1.179,1.179,0,0,0,.445.922,1.766,1.766,0,0,0,1.109.32,1.635,1.635,0,0,0,.98-.246A.766.766,0,0,0,31.125-2.336Zm3.3-1.969a5.013,5.013,0,0,1,.484-2.242A3.546,3.546,0,0,1,36.3-8.07a4.069,4.069,0,0,1,2.113-.539,3.849,3.849,0,0,1,2.793,1.047,4.2,4.2,0,0,1,1.207,2.844l.016.578A4.418,4.418,0,0,1,41.344-1.02,3.775,3.775,0,0,1,38.43.156a3.793,3.793,0,0,1-2.918-1.172A4.5,4.5,0,0,1,34.422-4.2Zm2.258.16A3.16,3.16,0,0,0,37.133-2.3a1.5,1.5,0,0,0,1.3.638,1.5,1.5,0,0,0,1.281-.63,3.457,3.457,0,0,0,.461-2.015,3.128,3.128,0,0,0-.461-1.831,1.5,1.5,0,0,0-1.3-.649,1.474,1.474,0,0,0-1.281.646A3.516,3.516,0,0,0,36.68-4.144Z" transform="translate(1083 6922)" fill="#12263f"/>
    <path id="Trazado_187519" data-name="Trazado 187519" d="M-68.473-2.984A1.2,1.2,0,0,0-68.941-4a6.148,6.148,0,0,0-1.687-.75,11.963,11.963,0,0,1-1.93-.777A3.153,3.153,0,0,1-74.5-8.352,2.747,2.747,0,0,1-73.977-10a3.389,3.389,0,0,1,1.492-1.129,5.616,5.616,0,0,1,2.184-.406,5.112,5.112,0,0,1,2.172.441,3.458,3.458,0,0,1,1.48,1.246,3.261,3.261,0,0,1,.527,1.828h-2.344a1.534,1.534,0,0,0-.492-1.215,2.023,2.023,0,0,0-1.383-.434,2.162,2.162,0,0,0-1.336.363,1.146,1.146,0,0,0-.477.957,1.1,1.1,0,0,0,.559.93,6.311,6.311,0,0,0,1.645.7,7.106,7.106,0,0,1,2.914,1.492A2.972,2.972,0,0,1-66.121-3,2.737,2.737,0,0,1-67.238-.684a4.891,4.891,0,0,1-3.008.84,5.808,5.808,0,0,1-2.391-.48,3.783,3.783,0,0,1-1.645-1.316,3.371,3.371,0,0,1-.566-1.937H-72.5q0,1.883,2.25,1.883a2.189,2.189,0,0,0,1.3-.34A1.106,1.106,0,0,0-68.473-2.984ZM-62.3,0h-2.266V-8.453H-62.3Zm-2.4-10.641a1.112,1.112,0,0,1,.34-.836,1.277,1.277,0,0,1,.926-.328,1.28,1.28,0,0,1,.922.328,1.105,1.105,0,0,1,.344.836,1.108,1.108,0,0,1-.348.844,1.283,1.283,0,0,1-.918.328,1.283,1.283,0,0,1-.918-.328A1.108,1.108,0,0,1-64.7-10.641Zm6.375,2.188.07.945a2.971,2.971,0,0,1,2.43-1.1A2.255,2.255,0,0,1-53.582-7.32a2.9,2.9,0,0,1,2.539-1.289,2.521,2.521,0,0,1,2.047.8,3.681,3.681,0,0,1,.672,2.41V0H-50.59V-5.391a1.61,1.61,0,0,0-.281-1.051,1.246,1.246,0,0,0-.992-.332A1.409,1.409,0,0,0-53.27-5.8l.008,5.8H-55.52V-5.383a1.59,1.59,0,0,0-.289-1.062,1.259,1.259,0,0,0-.984-.328,1.463,1.463,0,0,0-1.391.8V0h-2.258V-8.453Zm19.344,4.3a5.07,5.07,0,0,1-.887,3.129A2.843,2.843,0,0,1-42.262.156a2.633,2.633,0,0,1-2.07-.891V3.25H-46.59v-11.7H-44.5l.078.828a2.654,2.654,0,0,1,2.141-.984,2.862,2.862,0,0,1,2.43,1.156,5.207,5.207,0,0,1,.867,3.188Zm-2.258-.164a3.327,3.327,0,0,0-.418-1.82,1.361,1.361,0,0,0-1.215-.641,1.479,1.479,0,0,0-1.461.813V-2.5a1.5,1.5,0,0,0,1.477.836Q-41.238-1.664-41.238-4.312ZM-35.2,0h-2.266V-12H-35.2Zm4.242,0h-2.266V-8.453h2.266Zm-2.4-10.641a1.112,1.112,0,0,1,.34-.836,1.277,1.277,0,0,1,.926-.328,1.28,1.28,0,0,1,.922.328,1.105,1.105,0,0,1,.344.836,1.108,1.108,0,0,1-.348.844,1.283,1.283,0,0,1-.918.328,1.283,1.283,0,0,1-.918-.328A1.108,1.108,0,0,1-33.355-10.641ZM-28.551,0V-6.8h-1.258V-8.453h1.258v-.391a3.17,3.17,0,0,1,.98-2.457,3.945,3.945,0,0,1,2.723-.863,9.031,9.031,0,0,1,2.563.461l-.328,1.867a10,10,0,0,0-1.187-.293,5.835,5.835,0,0,0-.906-.066q-1.578,0-1.578,1.4v.344h1.664V-6.8h-1.664V0Zm7.32,0H-23.5V-8.453h2.266Zm5.383-1.664a1.481,1.481,0,0,0,1.016-.344,1.2,1.2,0,0,0,.406-.914h2.117a2.9,2.9,0,0,1-.469,1.574A3.093,3.093,0,0,1-14.039-.238a3.949,3.949,0,0,1-1.77.395A3.67,3.67,0,0,1-18.668-1,4.56,4.56,0,0,1-19.715-4.18v-.148a4.508,4.508,0,0,1,1.039-3.117,3.627,3.627,0,0,1,2.852-1.164,3.555,3.555,0,0,1,2.543.9,3.2,3.2,0,0,1,.973,2.4h-2.117a1.551,1.551,0,0,0-.406-1.072,1.354,1.354,0,0,0-1.031-.412,1.36,1.36,0,0,0-1.191.575,3.333,3.333,0,0,0-.4,1.866v.235a3.375,3.375,0,0,0,.4,1.878A1.377,1.377,0,0,0-15.848-1.664ZM-6.121,0a2.507,2.507,0,0,1-.227-.758A2.732,2.732,0,0,1-8.48.156a3,3,0,0,1-2.059-.719,2.312,2.312,0,0,1-.816-1.812,2.389,2.389,0,0,1,1-2.062A4.915,4.915,0,0,1-7.48-5.164h1.039v-.484a1.393,1.393,0,0,0-.3-.937,1.183,1.183,0,0,0-.949-.352,1.345,1.345,0,0,0-.895.273.929.929,0,0,0-.324.75h-2.258a2.268,2.268,0,0,1,.453-1.359,3,3,0,0,1,1.281-.98,4.669,4.669,0,0,1,1.859-.355,3.689,3.689,0,0,1,2.48.785,2.747,2.747,0,0,1,.918,2.207v3.664A4.041,4.041,0,0,0-3.84-.133V0ZM-7.988-1.57a1.945,1.945,0,0,0,.922-.223,1.462,1.462,0,0,0,.625-.6V-3.844h-.844q-1.7,0-1.8,1.172l-.008.133a.9.9,0,0,0,.3.7A1.153,1.153,0,0,0-7.988-1.57Zm10.3-4.766A6.134,6.134,0,0,0,1.5-6.4a1.654,1.654,0,0,0-1.68.867V0H-2.441V-8.453H-.309l.063,1.008A2.092,2.092,0,0,1,1.637-8.609a2.366,2.366,0,0,1,.7.1Zm9.648,4a.727.727,0,0,0-.41-.652,4.659,4.659,0,0,0-1.316-.426Q7.215-4.047,7.215-5.977a2.323,2.323,0,0,1,.934-1.879,3.766,3.766,0,0,1,2.441-.754,4.053,4.053,0,0,1,2.574.758,2.388,2.388,0,0,1,.965,1.969H11.871a1.092,1.092,0,0,0-.312-.8A1.322,1.322,0,0,0,10.582-7a1.351,1.351,0,0,0-.883.258.814.814,0,0,0-.312.656.7.7,0,0,0,.355.605,3.657,3.657,0,0,0,1.2.4,9.8,9.8,0,0,1,1.422.379A2.336,2.336,0,0,1,14.152-2.43,2.2,2.2,0,0,1,13.16-.559,4.28,4.28,0,0,1,10.6.156,4.47,4.47,0,0,1,8.711-.223,3.166,3.166,0,0,1,7.418-1.262a2.414,2.414,0,0,1-.469-1.426H9.09a1.179,1.179,0,0,0,.445.922,1.766,1.766,0,0,0,1.109.32,1.635,1.635,0,0,0,.98-.246A.766.766,0,0,0,11.957-2.336ZM17.988,0H15.723V-8.453h2.266Zm-2.4-10.641a1.112,1.112,0,0,1,.34-.836,1.277,1.277,0,0,1,.926-.328,1.28,1.28,0,0,1,.922.328,1.105,1.105,0,0,1,.344.836,1.108,1.108,0,0,1-.348.844,1.283,1.283,0,0,1-.918.328,1.283,1.283,0,0,1-.918-.328A1.108,1.108,0,0,1,15.59-10.641ZM31.441-4.148a5.07,5.07,0,0,1-.887,3.129A2.843,2.843,0,0,1,28.16.156a2.633,2.633,0,0,1-2.07-.891V3.25H23.832v-11.7h2.094L26-7.625a2.654,2.654,0,0,1,2.141-.984,2.862,2.862,0,0,1,2.43,1.156,5.207,5.207,0,0,1,.867,3.188Zm-2.258-.164a3.327,3.327,0,0,0-.418-1.82,1.361,1.361,0,0,0-1.215-.641,1.478,1.478,0,0,0-1.461.813V-2.5a1.5,1.5,0,0,0,1.477.836Q29.184-1.664,29.184-4.312Zm3.3.008a5.013,5.013,0,0,1,.484-2.242A3.546,3.546,0,0,1,34.367-8.07a4.069,4.069,0,0,1,2.113-.539,3.849,3.849,0,0,1,2.793,1.047A4.2,4.2,0,0,1,40.48-4.719l.016.578A4.418,4.418,0,0,1,39.41-1.02,3.775,3.775,0,0,1,36.5.156a3.793,3.793,0,0,1-2.918-1.172A4.5,4.5,0,0,1,32.488-4.2Zm2.258.16A3.16,3.16,0,0,0,35.2-2.3a1.5,1.5,0,0,0,1.3.638,1.5,1.5,0,0,0,1.281-.63,3.457,3.457,0,0,0,.461-2.015,3.128,3.128,0,0,0-.461-1.831,1.5,1.5,0,0,0-1.3-.649,1.474,1.474,0,0,0-1.281.646A3.516,3.516,0,0,0,34.746-4.144ZM46.465-2.336a.727.727,0,0,0-.41-.652,4.659,4.659,0,0,0-1.316-.426q-3.016-.633-3.016-2.562a2.323,2.323,0,0,1,.934-1.879A3.766,3.766,0,0,1,45.1-8.609a4.053,4.053,0,0,1,2.574.758,2.388,2.388,0,0,1,.965,1.969H46.379a1.092,1.092,0,0,0-.312-.8A1.322,1.322,0,0,0,45.09-7a1.351,1.351,0,0,0-.883.258.814.814,0,0,0-.312.656.7.7,0,0,0,.355.605,3.657,3.657,0,0,0,1.2.4,9.8,9.8,0,0,1,1.422.379A2.336,2.336,0,0,1,48.66-2.43a2.2,2.2,0,0,1-.992,1.871,4.28,4.28,0,0,1-2.562.715,4.47,4.47,0,0,1-1.887-.379,3.166,3.166,0,0,1-1.293-1.039,2.414,2.414,0,0,1-.469-1.426H43.6a1.179,1.179,0,0,0,.445.922,1.766,1.766,0,0,0,1.109.32,1.635,1.635,0,0,0,.98-.246A.766.766,0,0,0,46.465-2.336ZM52.5,0H50.23V-8.453H52.5ZM50.1-10.641a1.112,1.112,0,0,1,.34-.836,1.277,1.277,0,0,1,.926-.328,1.28,1.28,0,0,1,.922.328,1.105,1.105,0,0,1,.344.836,1.108,1.108,0,0,1-.348.844,1.283,1.283,0,0,1-.918.328,1.283,1.283,0,0,1-.918-.328A1.108,1.108,0,0,1,50.1-10.641ZM61.973-4.148A5.119,5.119,0,0,1,61.105-.98,2.872,2.872,0,0,1,58.684.156,2.639,2.639,0,0,1,56.488-.9l-.1.9H54.355V-12h2.258v4.3a2.571,2.571,0,0,1,2.055-.914,2.9,2.9,0,0,1,2.426,1.137,5.126,5.126,0,0,1,.879,3.2Zm-2.258-.164a3.363,3.363,0,0,0-.406-1.871,1.374,1.374,0,0,0-1.211-.59,1.489,1.489,0,0,0-1.484.883v3.336a1.509,1.509,0,0,0,1.5.891,1.394,1.394,0,0,0,1.438-1.078A5.562,5.562,0,0,0,59.715-4.312ZM65.746,0H63.48V-12h2.266ZM71.5.156A4.15,4.15,0,0,1,68.469-.984,4.054,4.054,0,0,1,67.3-4.023v-.219a5.106,5.106,0,0,1,.492-2.277,3.612,3.612,0,0,1,1.395-1.547,3.914,3.914,0,0,1,2.059-.543,3.508,3.508,0,0,1,2.73,1.094,4.444,4.444,0,0,1,1,3.1v.922H69.59a2.1,2.1,0,0,0,.66,1.328,2,2,0,0,0,1.395.5,2.437,2.437,0,0,0,2.039-.945l1.109,1.242A3.389,3.389,0,0,1,73.418-.246,4.511,4.511,0,0,1,71.5.156Zm-.258-6.945a1.411,1.411,0,0,0-1.09.455,2.357,2.357,0,0,0-.535,1.3h3.141v-.181a1.681,1.681,0,0,0-.406-1.165A1.456,1.456,0,0,0,71.238-6.789Z" transform="translate(1268 6922)" fill="#12263f"/>
    <path id="Trazado_187520" data-name="Trazado 187520" d="M-22.331-1.9H-25.67L-26.3,0H-28.33l3.44-9.242h1.765L-19.665,0H-21.69Zm-2.825-1.542h2.311l-1.162-3.459Zm7.617-3.421.057.793A2.4,2.4,0,0,1-15.507-7a1.993,1.993,0,0,1,1.625.641,2.991,2.991,0,0,1,.546,1.917V0h-1.834V-4.393a1.19,1.19,0,0,0-.254-.847,1.137,1.137,0,0,0-.844-.263,1.262,1.262,0,0,0-1.162.66V0h-1.834V-6.868Zm7.382.749A2.29,2.29,0,0,1-8.322-7q2.234,0,2.266,2.6V0H-7.89V-4.348a1.276,1.276,0,0,0-.254-.873A1.089,1.089,0,0,0-8.988-5.5a1.249,1.249,0,0,0-1.168.622V0h-1.834V-9.75h1.834ZM-2.691,0H-4.526V-6.868h1.834Zm-.54-9.655h2L-2.99-7.687H-4.481ZM-1.4-3.485a4.139,4.139,0,0,1,.72-2.558A2.338,2.338,0,0,1,1.295-7a2.1,2.1,0,0,1,1.657.749v-3.5H4.792V0H3.136L3.047-.73A2.159,2.159,0,0,1,1.282.127,2.331,2.331,0,0,1-.663-.828,4.272,4.272,0,0,1-1.4-3.485Zm1.834.137A2.711,2.711,0,0,0,.774-1.867a1.1,1.1,0,0,0,.978.515,1.227,1.227,0,0,0,1.2-.718V-4.785A1.21,1.21,0,0,0,1.765-5.5Q.438-5.5.438-3.348Zm9.636-1.8a4.984,4.984,0,0,0-.66-.051,1.344,1.344,0,0,0-1.365.7V0H6.214V-6.868H7.947L8-6.049A1.7,1.7,0,0,1,9.528-7a1.922,1.922,0,0,1,.571.083ZM12.892,0H11.051V-6.868h1.841ZM10.943-8.646a.9.9,0,0,1,.276-.679,1.037,1.037,0,0,1,.752-.267,1.04,1.04,0,0,1,.749.267A.9.9,0,0,1,13-8.646a.9.9,0,0,1-.282.686,1.042,1.042,0,0,1-.746.267,1.042,1.042,0,0,1-.746-.267A.9.9,0,0,1,10.943-8.646Zm3.174,5.161a4.139,4.139,0,0,1,.72-2.558A2.338,2.338,0,0,1,16.809-7a2.1,2.1,0,0,1,1.657.749v-3.5h1.841V0H18.649l-.089-.73A2.159,2.159,0,0,1,16.8.127,2.331,2.331,0,0,1,14.85-.828,4.272,4.272,0,0,1,14.117-3.485Zm1.834.137a2.711,2.711,0,0,0,.336,1.481,1.1,1.1,0,0,0,.978.515,1.227,1.227,0,0,0,1.2-.718V-4.785A1.21,1.21,0,0,0,17.278-5.5Q15.952-5.5,15.952-3.348ZM21.442-3.5a4.073,4.073,0,0,1,.394-1.822,2.881,2.881,0,0,1,1.133-1.238A3.306,3.306,0,0,1,24.686-7a3.127,3.127,0,0,1,2.269.851,3.414,3.414,0,0,1,.981,2.311l.013.47a3.59,3.59,0,0,1-.882,2.536A3.067,3.067,0,0,1,24.7.127a3.082,3.082,0,0,1-2.371-.952,3.653,3.653,0,0,1-.885-2.59Zm1.834.13a2.567,2.567,0,0,0,.368,1.5,1.215,1.215,0,0,0,1.054.518,1.217,1.217,0,0,0,1.041-.512A2.809,2.809,0,0,0,26.114-3.5a2.542,2.542,0,0,0-.375-1.488,1.217,1.217,0,0,0-1.054-.528,1.2,1.2,0,0,0-1.041.524A2.857,2.857,0,0,0,23.277-3.367Z" transform="translate(764 7004)" fill="#ff8f00"/>
    <path id="Trazado_187521" data-name="Trazado 187521" d="M-9.868-2.051h-3.6L-14.147,0h-2.181l3.705-9.953h1.9L-7,0H-9.177ZM-12.91-3.712h2.488l-1.251-3.726Zm6.426-.041a4.335,4.335,0,0,1,.81-2.741A2.625,2.625,0,0,1-3.49-7.533,2.3,2.3,0,0,1-1.6-6.7l.082-.7H.277v7.15A3.161,3.161,0,0,1-.164,1.442,2.832,2.832,0,0,1-1.4,2.536a4.362,4.362,0,0,1-1.873.376,4.056,4.056,0,0,1-1.586-.325A2.815,2.815,0,0,1-6.033,1.75l.875-1.2a2.314,2.314,0,0,0,1.791.827A1.694,1.694,0,0,0-2.143.954,1.577,1.577,0,0,0-1.706-.239v-.4A2.285,2.285,0,0,1-3.5.137,2.618,2.618,0,0,1-5.66-.906a4.334,4.334,0,0,1-.824-2.765Zm1.976.147a2.7,2.7,0,0,0,.4,1.578A1.283,1.283,0,0,0-3-1.456a1.372,1.372,0,0,0,1.292-.678V-5.249a1.369,1.369,0,0,0-1.278-.678A1.291,1.291,0,0,0-4.1-5.345,3.042,3.042,0,0,0-4.508-3.606ZM6.224-.752A2.477,2.477,0,0,1,4.2.137,2.337,2.337,0,0,1,2.386-.547a2.918,2.918,0,0,1-.639-2V-7.4H3.722v4.784q0,1.157,1.053,1.157a1.426,1.426,0,0,0,1.381-.7V-7.4H8.138V0H6.279ZM13.915,0a2.194,2.194,0,0,1-.2-.663,2.39,2.39,0,0,1-1.866.8,2.626,2.626,0,0,1-1.8-.629,2.023,2.023,0,0,1-.714-1.586,2.09,2.09,0,0,1,.872-1.8,4.3,4.3,0,0,1,2.519-.636h.909v-.424a1.219,1.219,0,0,0-.263-.82,1.035,1.035,0,0,0-.831-.308,1.177,1.177,0,0,0-.783.239.813.813,0,0,0-.284.656H9.5a1.984,1.984,0,0,1,.4-1.189,2.621,2.621,0,0,1,1.121-.858,4.086,4.086,0,0,1,1.627-.311,3.228,3.228,0,0,1,2.17.687,2.4,2.4,0,0,1,.8,1.931v3.206a3.536,3.536,0,0,0,.294,1.593V0ZM12.281-1.374a1.7,1.7,0,0,0,.807-.195,1.28,1.28,0,0,0,.547-.523V-3.363H12.9q-1.483,0-1.579,1.025l-.007.116a.791.791,0,0,0,.26.608A1.009,1.009,0,0,0,12.281-1.374Z" transform="translate(906 7005)" fill="#ff8f00"/>
    <path id="Trazado_187522" data-name="Trazado 187522" d="M-10.781-1.9H-14.12L-14.755,0H-16.78l3.44-9.242h1.765L-8.115,0H-10.14Zm-2.825-1.542H-11.3l-1.162-3.459Zm1.542-8.271h2L-11.823-9.75h-1.492ZM-4.516-1.352a1.2,1.2,0,0,0,.825-.279.979.979,0,0,0,.33-.743h1.72a2.353,2.353,0,0,1-.381,1.279,2.513,2.513,0,0,1-1.025.9A3.208,3.208,0,0,1-4.485.127,2.982,2.982,0,0,1-6.808-.809,3.705,3.705,0,0,1-7.658-3.4v-.121a3.663,3.663,0,0,1,.844-2.533A2.947,2.947,0,0,1-4.5-7a2.889,2.889,0,0,1,2.066.733,2.6,2.6,0,0,1,.79,1.952h-1.72a1.261,1.261,0,0,0-.33-.871,1.1,1.1,0,0,0-.838-.335,1.1,1.1,0,0,0-.968.467,2.708,2.708,0,0,0-.327,1.516v.191A2.742,2.742,0,0,0-5.5-1.816,1.119,1.119,0,0,0-4.516-1.352ZM1.343,0H-.5V-6.868H1.343ZM-.606-8.646A.9.9,0,0,1-.33-9.325a1.037,1.037,0,0,1,.752-.267,1.04,1.04,0,0,1,.749.267.9.9,0,0,1,.279.679.9.9,0,0,1-.282.686,1.042,1.042,0,0,1-.746.267A1.042,1.042,0,0,1-.324-7.96.9.9,0,0,1-.606-8.646ZM2.568-3.485a4.139,4.139,0,0,1,.72-2.558A2.338,2.338,0,0,1,5.259-7a2.1,2.1,0,0,1,1.657.749v-3.5H8.757V0H7.1L7.011-.73A2.159,2.159,0,0,1,5.246.127,2.331,2.331,0,0,1,3.3-.828,4.272,4.272,0,0,1,2.568-3.485ZM4.4-3.348a2.711,2.711,0,0,0,.336,1.481,1.1,1.1,0,0,0,.978.515,1.227,1.227,0,0,0,1.2-.718V-4.785A1.21,1.21,0,0,0,5.729-5.5Q4.4-5.5,4.4-3.348ZM9.893-3.5a4.073,4.073,0,0,1,.394-1.822,2.881,2.881,0,0,1,1.133-1.238A3.306,3.306,0,0,1,13.136-7a3.128,3.128,0,0,1,2.269.851,3.414,3.414,0,0,1,.981,2.311l.013.47a3.59,3.59,0,0,1-.882,2.536,3.067,3.067,0,0,1-2.368.955,3.082,3.082,0,0,1-2.371-.952,3.653,3.653,0,0,1-.885-2.59Zm1.834.13a2.567,2.567,0,0,0,.368,1.5,1.215,1.215,0,0,0,1.054.518,1.217,1.217,0,0,0,1.041-.512A2.809,2.809,0,0,0,14.565-3.5a2.542,2.542,0,0,0-.375-1.488,1.217,1.217,0,0,0-1.054-.528,1.2,1.2,0,0,0-1.041.524A2.857,2.857,0,0,0,11.727-3.367Z" transform="translate(1083 7004)" fill="#ff8f00"/>
    <path id="Trazado_187523" data-name="Trazado 187523" d="M-10.781-1.9H-14.12L-14.755,0H-16.78l3.44-9.242h1.765L-8.115,0H-10.14Zm-2.825-1.542H-11.3l-1.162-3.459Zm1.542-8.271h2L-11.823-9.75h-1.492ZM-4.516-1.352a1.2,1.2,0,0,0,.825-.279.979.979,0,0,0,.33-.743h1.72a2.353,2.353,0,0,1-.381,1.279,2.513,2.513,0,0,1-1.025.9A3.208,3.208,0,0,1-4.485.127,2.982,2.982,0,0,1-6.808-.809,3.705,3.705,0,0,1-7.658-3.4v-.121a3.663,3.663,0,0,1,.844-2.533A2.947,2.947,0,0,1-4.5-7a2.889,2.889,0,0,1,2.066.733,2.6,2.6,0,0,1,.79,1.952h-1.72a1.261,1.261,0,0,0-.33-.871,1.1,1.1,0,0,0-.838-.335,1.1,1.1,0,0,0-.968.467,2.708,2.708,0,0,0-.327,1.516v.191A2.742,2.742,0,0,0-5.5-1.816,1.119,1.119,0,0,0-4.516-1.352ZM1.343,0H-.5V-6.868H1.343ZM-.606-8.646A.9.9,0,0,1-.33-9.325a1.037,1.037,0,0,1,.752-.267,1.04,1.04,0,0,1,.749.267.9.9,0,0,1,.279.679.9.9,0,0,1-.282.686,1.042,1.042,0,0,1-.746.267A1.042,1.042,0,0,1-.324-7.96.9.9,0,0,1-.606-8.646ZM2.568-3.485a4.139,4.139,0,0,1,.72-2.558A2.338,2.338,0,0,1,5.259-7a2.1,2.1,0,0,1,1.657.749v-3.5H8.757V0H7.1L7.011-.73A2.159,2.159,0,0,1,5.246.127,2.331,2.331,0,0,1,3.3-.828,4.272,4.272,0,0,1,2.568-3.485ZM4.4-3.348a2.711,2.711,0,0,0,.336,1.481,1.1,1.1,0,0,0,.978.515,1.227,1.227,0,0,0,1.2-.718V-4.785A1.21,1.21,0,0,0,5.729-5.5Q4.4-5.5,4.4-3.348ZM9.893-3.5a4.073,4.073,0,0,1,.394-1.822,2.881,2.881,0,0,1,1.133-1.238A3.306,3.306,0,0,1,13.136-7a3.128,3.128,0,0,1,2.269.851,3.414,3.414,0,0,1,.981,2.311l.013.47a3.59,3.59,0,0,1-.882,2.536,3.067,3.067,0,0,1-2.368.955,3.082,3.082,0,0,1-2.371-.952,3.653,3.653,0,0,1-.885-2.59Zm1.834.13a2.567,2.567,0,0,0,.368,1.5,1.215,1.215,0,0,0,1.054.518,1.217,1.217,0,0,0,1.041-.512A2.809,2.809,0,0,0,14.565-3.5a2.542,2.542,0,0,0-.375-1.488,1.217,1.217,0,0,0-1.054-.528,1.2,1.2,0,0,0-1.041.524A2.857,2.857,0,0,0,11.727-3.367Z" transform="translate(1083 7034)" fill="#ff8f00"/>
    <path id="Trazado_187524" data-name="Trazado 187524" d="M-9.868-2.051h-3.6L-14.147,0h-2.181l3.705-9.953h1.9L-7,0H-9.177ZM-12.91-3.712h2.488l-1.251-3.726Zm6.426-.041a4.335,4.335,0,0,1,.81-2.741A2.625,2.625,0,0,1-3.49-7.533,2.3,2.3,0,0,1-1.6-6.7l.082-.7H.277v7.15A3.161,3.161,0,0,1-.164,1.442,2.832,2.832,0,0,1-1.4,2.536a4.362,4.362,0,0,1-1.873.376,4.056,4.056,0,0,1-1.586-.325A2.815,2.815,0,0,1-6.033,1.75l.875-1.2a2.314,2.314,0,0,0,1.791.827A1.694,1.694,0,0,0-2.143.954,1.577,1.577,0,0,0-1.706-.239v-.4A2.285,2.285,0,0,1-3.5.137,2.618,2.618,0,0,1-5.66-.906a4.334,4.334,0,0,1-.824-2.765Zm1.976.147a2.7,2.7,0,0,0,.4,1.578A1.283,1.283,0,0,0-3-1.456a1.372,1.372,0,0,0,1.292-.678V-5.249a1.369,1.369,0,0,0-1.278-.678A1.291,1.291,0,0,0-4.1-5.345,3.042,3.042,0,0,0-4.508-3.606ZM6.224-.752A2.477,2.477,0,0,1,4.2.137,2.337,2.337,0,0,1,2.386-.547a2.918,2.918,0,0,1-.639-2V-7.4H3.722v4.784q0,1.157,1.053,1.157a1.426,1.426,0,0,0,1.381-.7V-7.4H8.138V0H6.279ZM13.915,0a2.194,2.194,0,0,1-.2-.663,2.39,2.39,0,0,1-1.866.8,2.626,2.626,0,0,1-1.8-.629,2.023,2.023,0,0,1-.714-1.586,2.09,2.09,0,0,1,.872-1.8,4.3,4.3,0,0,1,2.519-.636h.909v-.424a1.219,1.219,0,0,0-.263-.82,1.035,1.035,0,0,0-.831-.308,1.177,1.177,0,0,0-.783.239.813.813,0,0,0-.284.656H9.5a1.984,1.984,0,0,1,.4-1.189,2.621,2.621,0,0,1,1.121-.858,4.086,4.086,0,0,1,1.627-.311,3.228,3.228,0,0,1,2.17.687,2.4,2.4,0,0,1,.8,1.931v3.206a3.536,3.536,0,0,0,.294,1.593V0ZM12.281-1.374a1.7,1.7,0,0,0,.807-.195,1.28,1.28,0,0,0,.547-.523V-3.363H12.9q-1.483,0-1.579,1.025l-.007.116a.791.791,0,0,0,.26.608A1.009,1.009,0,0,0,12.281-1.374Z" transform="translate(906 7034)" fill="#ff8f00"/>
    <path id="Trazado_187525" data-name="Trazado 187525" d="M-22.331-1.9H-25.67L-26.3,0H-28.33l3.44-9.242h1.765L-19.665,0H-21.69Zm-2.825-1.542h2.311l-1.162-3.459Zm7.617-3.421.057.793A2.4,2.4,0,0,1-15.507-7a1.993,1.993,0,0,1,1.625.641,2.991,2.991,0,0,1,.546,1.917V0h-1.834V-4.393a1.19,1.19,0,0,0-.254-.847,1.137,1.137,0,0,0-.844-.263,1.262,1.262,0,0,0-1.162.66V0h-1.834V-6.868Zm7.382.749A2.29,2.29,0,0,1-8.322-7q2.234,0,2.266,2.6V0H-7.89V-4.348a1.276,1.276,0,0,0-.254-.873A1.089,1.089,0,0,0-8.988-5.5a1.249,1.249,0,0,0-1.168.622V0h-1.834V-9.75h1.834ZM-2.691,0H-4.526V-6.868h1.834Zm-.54-9.655h2L-2.99-7.687H-4.481ZM-1.4-3.485a4.139,4.139,0,0,1,.72-2.558A2.338,2.338,0,0,1,1.295-7a2.1,2.1,0,0,1,1.657.749v-3.5H4.792V0H3.136L3.047-.73A2.159,2.159,0,0,1,1.282.127,2.331,2.331,0,0,1-.663-.828,4.272,4.272,0,0,1-1.4-3.485Zm1.834.137A2.711,2.711,0,0,0,.774-1.867a1.1,1.1,0,0,0,.978.515,1.227,1.227,0,0,0,1.2-.718V-4.785A1.21,1.21,0,0,0,1.765-5.5Q.438-5.5.438-3.348Zm9.636-1.8a4.984,4.984,0,0,0-.66-.051,1.344,1.344,0,0,0-1.365.7V0H6.214V-6.868H7.947L8-6.049A1.7,1.7,0,0,1,9.528-7a1.922,1.922,0,0,1,.571.083ZM12.892,0H11.051V-6.868h1.841ZM10.943-8.646a.9.9,0,0,1,.276-.679,1.037,1.037,0,0,1,.752-.267,1.04,1.04,0,0,1,.749.267A.9.9,0,0,1,13-8.646a.9.9,0,0,1-.282.686,1.042,1.042,0,0,1-.746.267,1.042,1.042,0,0,1-.746-.267A.9.9,0,0,1,10.943-8.646Zm3.174,5.161a4.139,4.139,0,0,1,.72-2.558A2.338,2.338,0,0,1,16.809-7a2.1,2.1,0,0,1,1.657.749v-3.5h1.841V0H18.649l-.089-.73A2.159,2.159,0,0,1,16.8.127,2.331,2.331,0,0,1,14.85-.828,4.272,4.272,0,0,1,14.117-3.485Zm1.834.137a2.711,2.711,0,0,0,.336,1.481,1.1,1.1,0,0,0,.978.515,1.227,1.227,0,0,0,1.2-.718V-4.785A1.21,1.21,0,0,0,17.278-5.5Q15.952-5.5,15.952-3.348ZM21.442-3.5a4.073,4.073,0,0,1,.394-1.822,2.881,2.881,0,0,1,1.133-1.238A3.306,3.306,0,0,1,24.686-7a3.127,3.127,0,0,1,2.269.851,3.414,3.414,0,0,1,.981,2.311l.013.47a3.59,3.59,0,0,1-.882,2.536A3.067,3.067,0,0,1,24.7.127a3.082,3.082,0,0,1-2.371-.952,3.653,3.653,0,0,1-.885-2.59Zm1.834.13a2.567,2.567,0,0,0,.368,1.5,1.215,1.215,0,0,0,1.054.518,1.217,1.217,0,0,0,1.041-.512A2.809,2.809,0,0,0,26.114-3.5a2.542,2.542,0,0,0-.375-1.488,1.217,1.217,0,0,0-1.054-.528,1.2,1.2,0,0,0-1.041.524A2.857,2.857,0,0,0,23.277-3.367Z" transform="translate(764 7033)" fill="#ff8f00"/>
  </g>
</svg>
