<svg xmlns="http://www.w3.org/2000/svg" width="121.77" height="113.195" viewBox="0 0 121.77 113.195">
  <g id="Grupo_16021" data-name="Grupo 16021" transform="translate(-285.096 -1262.334)">
    <path id="Trazado_36649" data-name="Trazado 36649" d="M313.889,1708.467q-.33,0-.657-.008a1.846,1.846,0,1,1,.083-3.69q.286.006.574.006a1.846,1.846,0,0,1,0,3.692Zm-6.7-.842a1.859,1.859,0,0,1-.46-.058q-.319-.082-.636-.171a1.846,1.846,0,0,1,1-3.554q.275.078.553.149a1.846,1.846,0,0,1-.458,3.634Zm-6.28-2.49a1.837,1.837,0,0,1-.889-.229q-.289-.159-.574-.325a1.846,1.846,0,1,1,1.856-3.191q.248.144.5.283a1.846,1.846,0,0,1-.892,3.463Zm-5.461-3.973a1.84,1.84,0,0,1-1.263-.5q-.24-.225-.474-.455a1.846,1.846,0,0,1,2.586-2.634q.2.2.414.4a1.846,1.846,0,0,1-1.263,3.192Zm-4.31-5.195a1.844,1.844,0,0,1-1.558-.853q-.177-.277-.347-.557a1.846,1.846,0,0,1,3.156-1.915q.148.245.3.486a1.846,1.846,0,0,1-1.554,2.839Zm-2.892-6.1a1.846,1.846,0,0,1-1.754-1.272q-.1-.312-.2-.627a1.846,1.846,0,1,1,3.534-1.068q.083.275.172.547a1.847,1.847,0,0,1-1.754,2.42Zm-1.275-6.631a1.845,1.845,0,0,1-1.84-1.728q-.021-.327-.035-.656a1.846,1.846,0,0,1,3.688-.153q.012.288.03.574a1.846,1.846,0,0,1-1.724,1.959C287.052,1683.235,287.012,1683.236,286.972,1683.236Z" transform="translate(0 -332.938)" fill="#ffa028"/>
    <path id="Trazado_36650" data-name="Trazado 36650" d="M347.949,1622.224a20.235,20.235,0,1,1,20.235-20.235A20.258,20.258,0,0,1,347.949,1622.224Zm0-36.778a16.543,16.543,0,1,0,16.543,16.543A16.562,16.562,0,0,0,347.949,1585.447Z" transform="translate(-34.06 -255.278)" fill="#1e3796"/>
    <path id="Trazado_36651" data-name="Trazado 36651" d="M421.133,1688.052a1.846,1.846,0,1,1,0-3.691,9.2,9.2,0,0,0,9.187-9.188,1.846,1.846,0,0,1,3.692,0A12.893,12.893,0,0,1,421.133,1688.052Z" transform="translate(-107.244 -328.461)" fill="#ffa028"/>
    <path id="Trazado_36652" data-name="Trazado 36652" d="M640.432,1503.251a1.845,1.845,0,0,1-1.6-.923l-13.705-23.739a1.846,1.846,0,0,1,3.2-1.846l13.705,23.739a1.846,1.846,0,0,1-1.6,2.769Z" transform="translate(-271.55 -170.616)" fill="#1e3796"/>
    <path id="Trazado_36653" data-name="Trazado 36653" d="M540.112,1677.019H512.706a1.846,1.846,0,1,1,0-3.691h27.406a1.846,1.846,0,1,1,0,3.691Z" transform="translate(-180.428 -328.461)" fill="#1e3796"/>
    <path id="Trazado_36654" data-name="Trazado 36654" d="M466.911,1503.251a1.846,1.846,0,0,1-1.6-2.769l13.705-23.739a1.846,1.846,0,0,1,3.2,1.846l-13.706,23.739A1.846,1.846,0,0,1,466.911,1503.251Z" transform="translate(-143.831 -170.616)" fill="#1e3796"/>
    <path id="Trazado_36655" data-name="Trazado 36655" d="M767.7,1568.558a1.846,1.846,0,0,1-1.843-1.769q-.012-.287-.03-.574a1.846,1.846,0,0,1,3.684-.235q.021.327.035.656a1.846,1.846,0,0,1-1.768,1.921Zm-1.121-6.657a1.846,1.846,0,0,1-1.766-1.312q-.083-.275-.172-.547a1.846,1.846,0,0,1,3.508-1.148q.1.312.2.628a1.846,1.846,0,0,1-1.768,2.38Zm-2.748-6.167a1.845,1.845,0,0,1-1.58-.889q-.148-.245-.3-.486a1.846,1.846,0,1,1,3.112-1.985q.177.276.347.557a1.846,1.846,0,0,1-1.576,2.8Zm-4.195-5.291a1.839,1.839,0,0,1-1.293-.529q-.2-.2-.414-.4a1.846,1.846,0,1,1,2.526-2.692q.24.224.474.455a1.846,1.846,0,0,1-1.293,3.163Zm-5.371-4.095a1.838,1.838,0,0,1-.926-.25q-.248-.144-.5-.283a1.846,1.846,0,1,1,1.781-3.233q.289.159.574.325a1.846,1.846,0,0,1-.93,3.442Zm-6.217-2.634a1.854,1.854,0,0,1-.5-.07q-.275-.078-.553-.149a1.846,1.846,0,0,1,.918-3.576q.319.082.636.171a1.846,1.846,0,0,1-.5,3.623Zm-6.678-1h-.042q-.286-.007-.574-.007a1.846,1.846,0,1,1,0-3.691q.329,0,.657.008a1.846,1.846,0,0,1-.041,3.691Z" transform="translate(-362.682 -221.125)" fill="#ffa028"/>
    <path id="Trazado_36656" data-name="Trazado 36656" d="M667.573,1622.224a20.235,20.235,0,1,1,20.235-20.235A20.258,20.258,0,0,1,667.573,1622.224Zm0-36.778a16.543,16.543,0,1,0,16.543,16.543A16.562,16.562,0,0,0,667.573,1585.447Z" transform="translate(-289.499 -255.278)" fill="#1e3796"/>
    <path id="Trazado_36657" data-name="Trazado 36657" d="M740.755,1688.052a1.846,1.846,0,1,1,0-3.691,9.2,9.2,0,0,0,9.188-9.188,1.846,1.846,0,1,1,3.691,0A12.894,12.894,0,0,1,740.755,1688.052Z" transform="translate(-362.682 -328.461)" fill="#ffa028"/>
    <path id="Trazado_36658" data-name="Trazado 36658" d="M446.638,1292.973a1.846,1.846,0,0,1-1.846-1.846q0-.33.007-.657a1.846,1.846,0,1,1,3.691.083q-.007.286-.007.574A1.846,1.846,0,0,1,446.638,1292.973Zm.843-6.7a1.847,1.847,0,0,1-1.789-2.3q.082-.319.171-.635a1.846,1.846,0,0,1,3.553,1q-.077.275-.149.553A1.847,1.847,0,0,1,447.481,1286.274Zm2.487-6.278a1.846,1.846,0,0,1-1.615-2.737q.159-.289.325-.574a1.846,1.846,0,0,1,3.191,1.855q-.144.248-.283.5A1.846,1.846,0,0,1,449.968,1280Zm3.974-5.462a1.846,1.846,0,0,1-1.345-3.109q.225-.24.455-.474a1.846,1.846,0,1,1,2.634,2.586q-.2.205-.4.414A1.842,1.842,0,0,1,453.942,1274.534Zm5.2-4.312a1.846,1.846,0,0,1-.994-3.4q.277-.177.557-.347a1.846,1.846,0,0,1,1.915,3.156q-.245.148-.486.3A1.836,1.836,0,0,1,459.139,1270.222Zm6.1-2.89a1.846,1.846,0,0,1-.574-3.6q.312-.1.628-.2a1.846,1.846,0,1,1,1.068,3.533q-.275.083-.547.172A1.847,1.847,0,0,1,465.238,1267.332Zm6.629-1.274a1.846,1.846,0,0,1-.116-3.688q.327-.021.656-.035a1.846,1.846,0,0,1,.153,3.688q-.288.012-.574.03C471.946,1266.057,471.906,1266.058,471.867,1266.058Z" transform="translate(-127.627)" fill="#ffa028"/>
    <path id="Trazado_36659" data-name="Trazado 36659" d="M507.761,1345.423A20.235,20.235,0,1,1,528,1325.189,20.258,20.258,0,0,1,507.761,1345.423Zm0-36.778a16.543,16.543,0,1,0,16.543,16.543A16.562,16.562,0,0,0,507.761,1308.645Z" transform="translate(-161.779 -34.062)" fill="#1e3796"/>
    <path id="Trazado_36660" data-name="Trazado 36660" d="M580.944,1411.25a1.846,1.846,0,1,1,0-3.692,9.2,9.2,0,0,0,9.188-9.188,1.846,1.846,0,1,1,3.691,0A12.894,12.894,0,0,1,580.944,1411.25Z" transform="translate(-234.963 -107.244)" fill="#ffa028"/>
    <path id="Trazado_36661" data-name="Trazado 36661" d="M762.44,1422.276a1.846,1.846,0,0,1-1.305-3.151l1.449-1.449a1.846,1.846,0,1,1,2.61,2.61l-1.449,1.449A1.84,1.84,0,0,1,762.44,1422.276Z" transform="translate(-380.012 -123.716)" fill="#1e3796"/>
    <path id="Trazado_36662" data-name="Trazado 36662" d="M801.361,1383.355a1.846,1.846,0,0,1-1.305-3.151l1.449-1.448a1.846,1.846,0,1,1,2.61,2.61l-1.449,1.449A1.84,1.84,0,0,1,801.361,1383.355Z" transform="translate(-411.117 -92.611)" fill="#1e3796"/>
    <path id="Trazado_36663" data-name="Trazado 36663" d="M802.81,1422.276a1.84,1.84,0,0,1-1.305-.541l-1.448-1.449a1.846,1.846,0,0,1,2.61-2.61l1.448,1.449a1.846,1.846,0,0,1-1.305,3.151Z" transform="translate(-411.118 -123.716)" fill="#1e3796"/>
    <path id="Trazado_36664" data-name="Trazado 36664" d="M763.888,1383.355a1.839,1.839,0,0,1-1.305-.541l-1.449-1.449a1.846,1.846,0,1,1,2.61-2.61l1.449,1.449a1.846,1.846,0,0,1-1.305,3.151Z" transform="translate(-380.012 -92.61)" fill="#1e3796"/>
    <path id="Trazado_36665" data-name="Trazado 36665" d="M357.11,1473.3a1.839,1.839,0,0,1-1.305-.541l-.435-.435a1.846,1.846,0,1,1,2.611-2.61l.435.435a1.846,1.846,0,0,1-1.305,3.151Z" transform="translate(-55.73 -165.303)" fill="#1e3796"/>
    <path id="Trazado_36666" data-name="Trazado 36666" d="M388.113,1504.3a1.84,1.84,0,0,1-1.305-.541l-.435-.435a1.846,1.846,0,0,1,2.61-2.61l.435.435a1.846,1.846,0,0,1-1.305,3.151Z" transform="translate(-80.507 -190.08)" fill="#1e3796"/>
    <path id="Trazado_36667" data-name="Trazado 36667" d="M356.675,1504.3a1.846,1.846,0,0,1-1.305-3.151l.435-.436a1.846,1.846,0,0,1,2.611,2.609l-.435.436A1.84,1.84,0,0,1,356.675,1504.3Z" transform="translate(-55.73 -190.08)" fill="#1e3796"/>
    <path id="Trazado_36668" data-name="Trazado 36668" d="M387.677,1473.3a1.846,1.846,0,0,1-1.305-3.151l.436-.435a1.846,1.846,0,0,1,2.61,2.611l-.436.435A1.84,1.84,0,0,1,387.677,1473.3Z" transform="translate(-80.507 -165.303)" fill="#1e3796"/>
  </g>
</svg>
