<svg xmlns="http://www.w3.org/2000/svg" width="898" height="694" viewBox="0 0 898 694"><g transform="translate(-351 -4963)"><g transform="translate(50 -12)"><rect width="199" height="112" rx="17" transform="translate(301 4986)" fill="#98d8f8"/><rect width="140" height="81" rx="13" transform="translate(331 5184)" fill="#98d8f8"/><rect width="199" height="112" rx="17" transform="translate(580 5165)" fill="#98d8f8"/><rect width="199" height="112" rx="17" transform="translate(879.577 5179)" fill="#98d8f8"/><rect width="144" height="96" rx="17" transform="translate(331 5380)" fill="#d8f8d8"/><rect width="199" height="112" rx="17" transform="translate(580 5364)" fill="#d8f8d8"/><rect width="199" height="112" rx="17" transform="translate(870 5364)" fill="#d8f8d8"/><rect width="199" height="112" rx="17" transform="translate(301 5557)" fill="#d8f8d8"/><rect width="199" height="112" rx="17" transform="translate(1000 5557)" fill="#d8f8d8"/><text transform="translate(317 5019)" fill="#00223d" font-size="18" font-family="Roboto-Bold, Roboto" font-weight="700"><tspan x="0" y="0">HIDRURO METÁLICO</tspan></text><text transform="translate(335 5048)" fill="#00223d" font-size="18" font-family="Roboto-Regular, Roboto"><tspan x="0" y="0">hidruro de sodio</tspan></text><text transform="translate(383 5079)" fill="#fc0000" font-size="18" font-family="Roboto-Regular, Roboto"><tspan x="0" y="0">NaH</tspan></text><text transform="translate(373 5216)" fill="#00223d" font-size="18" font-family="Roboto-Bold, Roboto" font-weight="700"><tspan x="0" y="0">METAL</tspan></text><text transform="translate(378 5247)" fill="#fc0000" font-size="18" font-family="Roboto-Regular, Roboto"><tspan x="0" y="0">Sodio</tspan></text><text transform="translate(619 5197)" fill="#00223d" font-size="18" font-family="Roboto-Bold, Roboto" font-weight="700"><tspan x="0" y="0">ÓXIDO BASICO</tspan></text><text transform="translate(621 5226)" fill="#00223d" font-size="18" font-family="Roboto-Regular, Roboto"><tspan x="0" y="0">óxido de sodio</tspan></text><text transform="translate(659 5257)" fill="#fc0000" font-size="18" font-family="Roboto-Regular, Roboto"><tspan x="0" y="0">Na</tspan><tspan y="0" font-size="12">2</tspan><tspan y="0">O</tspan></text><text transform="translate(931.577 5211)" fill="#00223d" font-size="18" font-family="Roboto-Bold, Roboto" font-weight="700"><tspan x="0" y="0">HIDRÓXIDO</tspan></text><text transform="translate(905.577 5240)" fill="#00223d" font-size="18" font-family="Roboto-Regular, Roboto"><tspan x="0" y="0">hidróxido de sodio</tspan></text><text transform="translate(945.577 5271)" fill="#fc0000" font-size="18" font-family="Roboto-Regular, Roboto"><tspan x="0" y="0">Na + OH</tspan></text><g transform="translate(0 -30)"><text transform="translate(360 5448)" fill="#00223d" font-size="18" font-family="Roboto-Bold, Roboto" font-weight="700"><tspan x="0" y="0">NO METAL</tspan></text><text transform="translate(383 5482)" fill="#0f6e4c" font-size="18" font-family="Roboto-Regular, Roboto"><tspan x="0" y="0">Cloro</tspan></text></g><text transform="translate(625 5398)" fill="#00223d" font-size="18" font-family="Roboto-Bold, Roboto" font-weight="700"><tspan x="0" y="0">ÓXIDO ÁCIDO</tspan></text><text transform="translate(598 5427)" fill="#0f6e4c" font-size="18" font-family="Roboto-Regular, Roboto"><tspan x="0" y="0">Monóxido de dicloro</tspan></text><text transform="translate(660 5458)" fill="#0f6e4c" font-size="18" font-family="Roboto-Regular, Roboto"><tspan x="0" y="0">CL</tspan><tspan y="0" font-size="12">2</tspan><tspan y="0">O</tspan></text><text transform="translate(926 5398)" fill="#00223d" font-size="18" font-family="Roboto-Bold, Roboto" font-weight="700"><tspan x="0" y="0">OXOÁCIDO</tspan></text><text transform="translate(897 5427)" fill="#0f6e4c" font-size="18" font-family="Roboto-Regular, Roboto"><tspan x="0" y="0">Ácido hiplocoroso</tspan></text><g transform="translate(-82 -39)"><text transform="translate(1014 5497)" fill="#0f6e4c" font-size="18" font-family="Roboto-Regular, Roboto"><tspan x="0" y="0" xml:space="preserve">H. +  CL</tspan></text><text transform="translate(1028 5487)" fill="#0f6e4c" font-size="13" font-family="Roboto-Regular, Roboto"><tspan x="0" y="0">4</tspan></text><text transform="translate(1083 5485)" fill="#0f6e4c" font-size="13" font-family="Roboto-Regular, Roboto"><tspan x="0" y="0">-</tspan></text></g><text transform="translate(401 5583)" fill="#00223d" font-size="18" font-family="Roboto-Bold, Roboto" font-weight="700"><tspan x="-55.507" y="0">HIDRURO NO </tspan><tspan x="-44.257" y="25">METÁLICO</tspan></text><text transform="translate(317 5633)" fill="#0f6e4c" font-size="18" font-family="Roboto-Regular, Roboto"><tspan x="0" y="0">Cloruro de hidrogeno</tspan></text><text transform="translate(386 5656)" fill="#0f6e4c" font-size="18" font-family="Roboto-Regular, Roboto"><tspan x="0" y="0">HCI</tspan></text><text transform="translate(1100 5583)" fill="#00223d" font-size="18" font-family="Roboto-Bold, Roboto" font-weight="700"><tspan x="-47.206" y="0">HIDRÁCIDO</tspan></text><text transform="translate(1032 5614)" fill="#0f6e4c" font-size="18" font-family="Roboto-Regular, Roboto"><tspan x="0" y="0">Ácido clorhídrico</tspan></text><g transform="translate(-135 -70)"><text transform="translate(1199 5726)" fill="#0f6e4c" font-size="18" font-family="Roboto-Regular, Roboto"><tspan x="0" y="0" xml:space="preserve">H  +  CL </tspan></text><text transform="translate(1214 5711)" fill="#0f6e4c" font-size="13" font-family="Roboto-Regular, Roboto"><tspan x="0" y="0">+</tspan></text><text transform="translate(1264 5711)" fill="#0f6e4c" font-size="13" font-family="Roboto-Regular, Roboto"><tspan x="0" y="0">-</tspan></text></g><rect width="199" height="102" rx="17" transform="translate(790 5000)" fill="#fcdcb3"/><text transform="translate(855 5027)" fill="#12263f" font-size="18" font-family="Roboto-Black, Roboto" font-weight="800"><tspan x="0" y="0">OXOSAL</tspan></text><text transform="translate(810 5056)" fill="#00223d" font-size="18" font-family="Roboto-Regular, Roboto"><tspan x="0" y="0">hipoclorito de sodio</tspan></text><text transform="translate(862 5085)" fill="#ac6d1e" font-size="18" font-family="Roboto-Bold, Roboto" font-weight="700"><tspan x="0" y="0">NaCLO</tspan></text><rect width="178" height="130" rx="17" transform="translate(1000 4975)" fill="#86ebc7"/><text transform="translate(1089 5006)" fill="#12263f" font-size="18" font-family="Roboto-Black, Roboto" font-weight="800"><tspan x="-27.33" y="0">Sal de </tspan><tspan x="-39.546" y="25">Hidróxido</tspan></text><text transform="translate(1024 5059)" fill="#00223d" font-size="18" font-family="Roboto-Regular, Roboto"><tspan x="0" y="0">cloruro de sodio</tspan></text><text transform="translate(1067 5087)" fill="#1a5741" font-size="18" font-family="Roboto-Bold, Roboto" font-weight="700"><tspan x="0" y="0">NaCL</tspan></text><g transform="translate(495 5211.053)"><path d="M509.809,1201.675l-41.317,2.984v-19.2l41.317,2.984Z" transform="translate(-468.491 -1179.165)" fill="#ff8f00"/><path d="M569.47,1184.225l-2.79-15.9,24.768,15.9-24.768,15.9Z" transform="translate(-530.591 -1168.329)" fill="#ff8f00"/></g><g transform="translate(796.221 5211.053)"><path d="M509.809,1201.675l-41.317,2.984v-19.2l41.317,2.984Z" transform="translate(-468.491 -1179.165)" fill="#2649bf"/><path d="M569.47,1184.225l-2.79-15.9,24.768,15.9-24.768,15.9Z" transform="translate(-530.591 -1168.329)" fill="#2649bf"/></g><g transform="translate(495 5404.585)"><path d="M509.809,1201.675l-41.317,2.984v-19.2l41.317,2.984Z" transform="translate(-468.491 -1179.165)" fill="#ff8f00"/><path d="M569.47,1184.225l-2.79-15.9,24.768,15.9-24.768,15.9Z" transform="translate(-530.591 -1168.329)" fill="#ff8f00"/></g><g transform="translate(534 5613.053)"><path d="M893.612,1201.675l-27.5.193-397.62,2.791v-19.2l425.12,2.984Z" transform="translate(-468.491 -1179.165)" fill="#2649bf"/><path d="M569.47,1184.225l-2.79-15.9,24.768,15.9-24.768,15.9Z" transform="translate(-145.87 -1168.329)" fill="#2649bf"/></g><g transform="translate(968.208 5356) rotate(-90)"><path d="M509.809,1201.675l-41.317,2.984v-19.2l41.317,2.984Z" transform="translate(-468.491 -1179.165)" fill="#ff8f00"/><path d="M569.47,1184.225l-2.79-15.9,24.768,15.9-24.768,15.9Z" transform="translate(-530.591 -1168.329)" fill="#ff8f00"/></g><g transform="translate(888.708 5172.377) rotate(-90)"><path d="M509.809,1201.675l-41.317,2.984v-19.2l41.317,2.984Z" transform="translate(-468.491 -1179.165)" fill="#ff8f00"/><path d="M569.47,1184.225l-2.79-15.9,24.768,15.9-24.768,15.9Z" transform="translate(-530.591 -1168.329)" fill="#ff8f00"/></g><g transform="translate(1025.5 5172.377) rotate(-90)"><path d="M509.809,1201.675l-41.317,2.984v-19.2l41.317,2.984Z" transform="translate(-468.491 -1179.165)" fill="#86ebc7"/><path d="M569.47,1184.225l-2.79-15.9,24.768,15.9-24.768,15.9Z" transform="translate(-530.591 -1168.329)" fill="#86ebc7"/></g><g transform="translate(1093.209 5089.154) rotate(-90)"><path d="M866.694,1201.675l-398.2,2.984v-19.2l398.2,2.984Z" transform="translate(-904.599 -1179.165)" fill="#86ebc7"/><path d="M569.47,1184.225l-2.79-15.9,24.768,15.9-24.768,15.9Z" transform="translate(-609.814 -1168.329)" fill="#86ebc7"/></g><text transform="translate(505.635 5204)" fill="#ff8f00" font-size="18" font-family="SegoeUI-Bold, Segoe UI" font-weight="700"><tspan x="0" y="0">O</tspan><tspan y="0" font-size="12">2</tspan></text><text transform="translate(505.635 5393.533)" fill="#ff8f00" font-size="18" font-family="Roboto-Bold, Roboto" font-weight="700"><tspan x="0" y="0">O</tspan><tspan y="0" font-size="12">2</tspan></text><text transform="translate(805.856 5204)" fill="#2649bf" font-size="18" font-family="SegoeUI-Bold, Segoe UI" font-weight="700"><tspan x="0" y="0">H</tspan><tspan y="0" font-size="12">2</tspan><tspan y="0">O</tspan></text><g transform="translate(790 5393.663)"><path d="M509.809,1201.675l-41.317,2.984v-19.2l41.317,2.984Z" transform="translate(-468.491 -1179.165)" fill="#2649bf"/><path d="M569.47,1184.225l-2.79-15.9,24.768,15.9-24.768,15.9Z" transform="translate(-530.591 -1168.329)" fill="#2649bf"/></g><text transform="translate(799.635 5386.61)" fill="#2649bf" font-size="18" font-family="Roboto-Bold, Roboto" font-weight="700"><tspan x="0" y="0">H</tspan><tspan y="0" font-size="12">2</tspan><tspan y="0">O</tspan></text><text transform="translate(678 5603)" fill="#2649bf" font-size="18" font-family="Roboto-Regular, Roboto"><tspan x="0" y="0">En solución acuosa</tspan></text><g transform="translate(27.103)"><text transform="translate(383 5149)" fill="#2649bf" font-size="18" font-family="SegoeUI-Bold, Segoe UI" font-weight="700"><tspan x="0" y="0">H</tspan><tspan y="0" font-size="12">2</tspan></text><g transform="translate(342.897 5168.376) rotate(-90)"><path d="M509.809,1201.675l-41.317,2.984v-19.2l41.317,2.984Z" transform="translate(-468.491 -1179.165)" fill="#ff8f00"/><path d="M569.47,1184.225l-2.79-15.9,24.768,15.9-24.768,15.9Z" transform="translate(-530.591 -1168.329)" fill="#ff8f00"/></g></g><g transform="translate(416.792 5488.52) rotate(90)"><path d="M509.809,1201.675l-41.317,2.984v-19.2l41.317,2.984Z" transform="translate(-468.491 -1179.165)" fill="#ff8f00"/><path d="M569.47,1184.225l-2.79-15.9,24.768,15.9-24.768,15.9Z" transform="translate(-530.591 -1168.329)" fill="#ff8f00"/></g></g></g></svg>