<svg id="Grupo_178611" data-name="Grupo 178611" xmlns="http://www.w3.org/2000/svg" xmlns:xlink="http://www.w3.org/1999/xlink" width="295" height="552.614" viewBox="0 0 295 552.614">
  <defs>
    <clipPath id="clip-path">
      <rect id="Rectángulo_45335" data-name="Rectángulo 45335" width="39.617" height="87.706" fill="none"/>
    </clipPath>
    <clipPath id="clip-path-2">
      <rect id="Rectángulo_45330" data-name="Rectángulo 45330" width="13.803" height="8.073" fill="none"/>
    </clipPath>
    <clipPath id="clip-path-3">
      <rect id="Rectángulo_45331" data-name="Rectángulo 45331" width="13.445" height="4.953" fill="none"/>
    </clipPath>
    <clipPath id="clip-path-4">
      <rect id="Rectángulo_45332" data-name="Rectángulo 45332" width="11.49" height="11.49" fill="#2be9d6"/>
    </clipPath>
    <clipPath id="clip-path-5">
      <rect id="Rectángulo_45333" data-name="Rectángulo 45333" width="6.144" height="6.144" fill="#2be9d6"/>
    </clipPath>
    <clipPath id="clip-path-6">
      <rect id="Rectángulo_45334" data-name="Rectángulo 45334" width="8.737" height="8.737" fill="#2be9d6"/>
    </clipPath>
    <clipPath id="clip-path-7">
      <rect id="Rectángulo_46745" data-name="Rectángulo 46745" width="280.64" height="478.744" fill="none"/>
    </clipPath>
    <clipPath id="clip-path-9">
      <rect id="Rectángulo_46742" data-name="Rectángulo 46742" width="37.565" height="16.828" fill="none"/>
    </clipPath>
  </defs>
  <g id="Grupo_178248" data-name="Grupo 178248" transform="translate(0 0)">
    <g id="Grupo_175422" data-name="Grupo 175422" transform="translate(0 0)">
      <g id="Grupo_80269" data-name="Grupo 80269" transform="translate(0 0)">
        <path id="AdobeStock_63496949" d="M25,0H278.673a0,0,0,0,1,0,0V486.463a25,25,0,0,1-25,25H0a0,0,0,0,1,0,0V25A25,25,0,0,1,25,0Z" transform="translate(10.012 17.932)" fill="#31313c"/>
        <g id="Grupo_78301" data-name="Grupo 78301">
          <rect id="Rectángulo_34812" data-name="Rectángulo 34812" width="295" height="527.787" fill="none"/>
          <line id="Línea_138" data-name="Línea 138" y2="81.909" transform="translate(277.786 3.49)" fill="none" stroke="#f9a829" stroke-linecap="round" stroke-width="4" stroke-dasharray="8"/>
        </g>
      </g>
      <g id="Grupo_175415" data-name="Grupo 175415" transform="translate(22.743 464.908)" clip-path="url(#clip-path)">
        <path id="Trazado_145972" data-name="Trazado 145972" d="M32.6,64.227l1.166,3.453a1.792,1.792,0,0,1-.644,2.024,26.678,26.678,0,0,1-2.518,1.6l.48,1.412L46.2,117.3a7.009,7.009,0,0,1-4.375,8.886c-.112.038-.229.073-.346.107a7.007,7.007,0,0,1-8.553-4.49l-14.4-42.422-1.256-3.7a22.5,22.5,0,0,1-3.123.118,1.793,1.793,0,0,1-1.635-1.219l-1.082-3.207c-.37-1.1,4.069-3.578,9.913-5.551S32.225,63.135,32.6,64.227" transform="translate(-6.962 -38.854)" fill="#fff"/>
        <g id="Grupo_175402" data-name="Grupo 175402" transform="translate(10.315 32.453)" style="mix-blend-mode: multiply;isolation: isolate">
          <g id="Grupo_175401" data-name="Grupo 175401">
            <g id="Grupo_175400" data-name="Grupo 175400" clip-path="url(#clip-path-2)">
              <path id="Trazado_145973" data-name="Trazado 145973" d="M39.76,83.172l.479,1.412c-1.625,1.98-8.38,5.261-12.546,6.661l-1.256-3.705A35.553,35.553,0,0,0,39.76,83.172" transform="translate(-26.437 -83.172)" fill="#d9e5f9"/>
            </g>
          </g>
        </g>
        <path id="Trazado_145974" data-name="Trazado 145974" d="M54.642,125.026,64.488,154a4.826,4.826,0,0,1-9.138,3.105L45.5,128.131a14.948,14.948,0,0,1,1.786-1.284,12.629,12.629,0,0,1,7.351-1.821" transform="translate(-27.749 -76.233)" fill="#fed5c3"/>
        <path id="Trazado_145975" data-name="Trazado 145975" d="M66.832,177.454a2.074,2.074,0,1,0,.874-2.8,2.074,2.074,0,0,0-.874,2.8" transform="translate(-40.61 -106.361)" fill="#a82c3b"/>
        <path id="Trazado_145976" data-name="Trazado 145976" d="M51.667,142.9a2.074,2.074,0,1,0,.874-2.8,2.074,2.074,0,0,0-.874,2.8" transform="translate(-31.362 -85.291)" fill="#a82c3b"/>
        <path id="Trazado_145977" data-name="Trazado 145977" d="M81.647,197.29a1.291,1.291,0,1,0,.544-1.742,1.29,1.29,0,0,0-.544,1.742" transform="translate(-49.699 -119.156)" fill="#a82c3b"/>
        <path id="Trazado_145978" data-name="Trazado 145978" d="M69.95,160.481a1.291,1.291,0,1,0,.544-1.742,1.29,1.29,0,0,0-.544,1.742" transform="translate(-42.566 -96.71)" fill="#a82c3b"/>
        <path id="Trazado_145979" data-name="Trazado 145979" d="M54.642,125.026a10.549,10.549,0,0,1-9.138,3.1,12.859,12.859,0,0,1,9.138-3.1" transform="translate(-27.749 -76.233)" fill="#a82c3b"/>
        <g id="Grupo_175405" data-name="Grupo 175405" transform="translate(8.197 26.062)" style="mix-blend-mode: multiply;isolation: isolate">
          <g id="Grupo_175404" data-name="Grupo 175404">
            <g id="Grupo_175403" data-name="Grupo 175403" clip-path="url(#clip-path-3)">
              <path id="Trazado_145980" data-name="Trazado 145980" d="M34.444,67.006c.186.553-2.668,2.014-6.376,3.265s-6.865,1.817-7.051,1.265,2.668-2.015,6.376-3.266,6.865-1.817,7.051-1.265" transform="translate(-21.008 -66.794)" fill="#c9d6f7"/>
            </g>
          </g>
        </g>
        <g id="Grupo_175408" data-name="Grupo 175408" transform="translate(0 13.423)" style="mix-blend-mode: screen;isolation: isolate">
          <g id="Grupo_175407" data-name="Grupo 175407" transform="translate(0)" style="isolation: isolate">
            <g id="Grupo_175406" data-name="Grupo 175406" clip-path="url(#clip-path-4)">
              <path id="Trazado_145981" data-name="Trazado 145981" d="M11.183,38.3A5.744,5.744,0,1,1,3.9,34.708a5.744,5.744,0,0,1,7.286,3.59" transform="translate(0 -34.401)" fill="#2be9d6"/>
            </g>
          </g>
        </g>
        <g id="Grupo_175411" data-name="Grupo 175411" transform="translate(15.645 14.932)" style="isolation: isolate">
          <g id="Grupo_175410" data-name="Grupo 175410">
            <g id="Grupo_175409" data-name="Grupo 175409" clip-path="url(#clip-path-5)">
              <path id="Trazado_145982" data-name="Trazado 145982" d="M46.077,40.352a3.071,3.071,0,1,1-3.9-1.92,3.071,3.071,0,0,1,3.9,1.92" transform="translate(-40.097 -38.268)" fill="#2be9d6"/>
            </g>
          </g>
        </g>
        <g id="Grupo_175414" data-name="Grupo 175414" transform="translate(6.472)" style="isolation: isolate">
          <g id="Grupo_175413" data-name="Grupo 175413" transform="translate(0)">
            <g id="Grupo_175412" data-name="Grupo 175412" clip-path="url(#clip-path-6)">
              <path id="Trazado_145983" data-name="Trazado 145983" d="M25.091,2.963A4.367,4.367,0,1,1,19.55.233a4.367,4.367,0,0,1,5.54,2.73" transform="translate(-16.587 0)" fill="#2be9d6"/>
            </g>
          </g>
        </g>
      </g>
    </g>
  </g>
  <g id="Grupo_178606" data-name="Grupo 178606" transform="translate(14.36 45.242)">
    <g id="Grupo_178605" data-name="Grupo 178605" transform="translate(0)" clip-path="url(#clip-path-7)">
      <path id="Trazado_187357" data-name="Trazado 187357" d="M92.321,198.3l-18.527-2.554L75,233.133l17.664,1.655Z" transform="translate(87.712 232.66)" fill="#fff"/>
      <g id="Grupo_178604" data-name="Grupo 178604">
        <g id="Grupo_178603" data-name="Grupo 178603" clip-path="url(#clip-path-7)">
          <path id="Trazado_187358" data-name="Trazado 187358" d="M111.094,211.495s-14.618,6.012-21.483-3.465L59.517,226.311l56.107-.361Z" transform="translate(70.742 247.265)" fill="#131513"/>
          <rect id="Rectángulo_46740" data-name="Rectángulo 46740" width="56.11" height="5.167" transform="translate(130.26 473.577) rotate(-0.369)" fill="#fff"/>
          <path id="Trazado_187359" data-name="Trazado 187359" d="M68.362,114.264l6.294,203.577h29.373l3.629-208.392Z" transform="translate(81.255 130.091)" fill="#e7e8e9"/>
          <path id="Trazado_187360" data-name="Trazado 187360" d="M113.268,198.3l-18.527-2.554,1.208,37.39,17.664,1.655Z" transform="translate(112.61 232.66)" fill="#fff"/>
          <path id="Trazado_187361" data-name="Trazado 187361" d="M132.041,211.495s-14.618,6.012-21.483-3.465L80.464,226.311l56.107-.361Z" transform="translate(95.64 247.265)" fill="#131513"/>
          <rect id="Rectángulo_46741" data-name="Rectángulo 46741" width="56.109" height="5.167" transform="matrix(1, -0.006, 0.006, 1, 176.105, 473.577)" fill="#fff"/>
          <path id="Trazado_187362" data-name="Trazado 187362" d="M84.2,111.649l17.474,203.577h29.373l-6.43-131.06Z" transform="translate(100.081 132.706)" fill="#e7e8e9"/>
          <path id="Trazado_187363" data-name="Trazado 187363" d="M135.705,57.886a15.245,15.245,0,0,1-11.672,17.1l-21.151,7.268L61.743,96.666A16.411,16.411,0,0,1,42.215,84.885c-2.462-9.26,3.274-17.846,12.924-20.363,8.22-2.147,21.976-6.612,36.064-11.4,10.643-3.618,20.689-6.916,26.745-8a15.241,15.241,0,0,1,17.758,12.764" transform="translate(49.499 53.345)" fill="#fff"/>
          <path id="Trazado_187364" data-name="Trazado 187364" d="M43.245,28.018l7.437,13.758L36.843,50.434,29.717,33.741Z" transform="translate(35.322 33.302)" fill="#ffaf85"/>
          <path id="Trazado_187365" data-name="Trazado 187365" d="M39.889,43.507l1.7-5.5a11.658,11.658,0,0,0,.35-5.4L39.355,17.48a3,3,0,0,0-5.946.267L32.54,28.717Z" transform="translate(38.677 17.813)" fill="#ffaf85"/>
          <path id="Trazado_187366" data-name="Trazado 187366" d="M44.527,33.049,28.34,11.218a2.123,2.123,0,0,0-3.476,2.427l10.507,18.9Z" transform="translate(29.176 12.367)" fill="#ffaf85"/>
          <path id="Trazado_187367" data-name="Trazado 187367" d="M41.493,36.076,23.006,14.764a2.123,2.123,0,0,0-3.274,2.694L33.286,35.779Z" transform="translate(22.966 16.735)" fill="#ffaf85"/>
          <path id="Trazado_187368" data-name="Trazado 187368" d="M38.761,37.783,22.331,17.994a2.073,2.073,0,0,0-3.2,2.631L31.707,38.387Z" transform="translate(22.268 20.593)" fill="#ffaf85"/>
          <path id="Trazado_187369" data-name="Trazado 187369" d="M41.767,34.253,25,12a2.205,2.205,0,0,0-3.609,2.523L34.634,34.651Z" transform="translate(25.032 13.258)" fill="#ffaf85"/>
          <path id="Trazado_187370" data-name="Trazado 187370" d="M40.048,17.075,22.25,30.158s6.581,14.74,16.342,16.59L52.12,41.025,49.627,25.383l-7.071-3.955Z" transform="translate(26.446 20.295)" fill="#ffaf85"/>
          <path id="Trazado_187371" data-name="Trazado 187371" d="M36.283,19.32s-10.4,8.45-5.434,15.368" transform="translate(35.072 22.964)" fill="none" stroke="#1f0a00" stroke-linecap="round" stroke-linejoin="round" stroke-width="0.369"/>
          <path id="Trazado_187372" data-name="Trazado 187372" d="M36.654,18.234A31.029,31.029,0,0,0,23.433,28.56" transform="translate(27.853 21.673)" fill="none" stroke="#1f0a00" stroke-linecap="round" stroke-linejoin="round" stroke-width="0.369"/>
          <path id="Trazado_187373" data-name="Trazado 187373" d="M51.778,29.336l35.53,61.806a16.275,16.275,0,1,1-29.135,14.4L28.922,41.669Z" transform="translate(34.377 34.869)" fill="#fff"/>
          <line id="Línea_690" data-name="Línea 690" x2="6.933" y2="12.992" transform="translate(114.75 113.021)" fill="none" stroke="#ace8ff" stroke-linecap="round" stroke-linejoin="round" stroke-width="0.501"/>
          <path id="Trazado_187374" data-name="Trazado 187374" d="M66.8,33.4A33.4,33.4,0,1,1,33.4,0,33.4,33.4,0,0,1,66.8,33.4" transform="translate(0)" fill="#e16495"/>
          <path id="Trazado_187375" data-name="Trazado 187375" d="M22.828,12.349a6.966,6.966,0,1,1-6.966-6.966,6.966,6.966,0,0,1,6.966,6.966" transform="translate(10.573 6.398)" fill="#f880b5"/>
          <path id="Trazado_187376" data-name="Trazado 187376" d="M156.56,59.334,131.4,51.523,95.128,44.814S81.13,44.3,77.341,57.3l-1.88,80.223q-2.058,17.8-2.957,35.7L63.7,304.49l25.3,5.3,11.173-94.644,10.871,94.644H173.6L142.774,133.84l15.491-43.713Z" transform="translate(75.719 53.263)" fill="#fff"/>
          <path id="Trazado_187377" data-name="Trazado 187377" d="M108.17,47.877,83.251,79.645l1.7-31.768Z" transform="translate(98.952 56.907)" fill="#ffaf85"/>
          <line id="Línea_691" data-name="Línea 691" x1="6.312" y2="131.855" transform="translate(175.891 136.551)" fill="none" stroke="#ace8ff" stroke-linecap="round" stroke-linejoin="round" stroke-width="0.501"/>
          <path id="Trazado_187378" data-name="Trazado 187378" d="M98.98,54.615l-14.521-2.55-1.208,22.6Z" transform="translate(98.952 61.885)" fill="#4dc8e4"/>
          <path id="Trazado_187379" data-name="Trazado 187379" d="M95.256,45.884,78.049,59.413l10.418,6.415L74.26,73.41,93.24,96.572l32.4-12.223-10.6-13.635,15.182-4.583-11.37-15.883" transform="translate(88.266 54.537)" fill="none" stroke="#ace8ff" stroke-linecap="round" stroke-linejoin="round" stroke-width="0.501"/>
          <line id="Línea_692" data-name="Línea 692" x1="10.346" y2="37.366" transform="translate(149.618 206.99)" fill="none" stroke="#ace8ff" stroke-linecap="round" stroke-linejoin="round" stroke-width="0.501"/>
          <line id="Línea_693" data-name="Línea 693" y1="18.826" x2="0.51" transform="translate(152.381 116.778)" fill="none" stroke="#ace8ff" stroke-linecap="round" stroke-linejoin="round" stroke-width="0.501"/>
          <path id="Trazado_187380" data-name="Trazado 187380" d="M103.762,52.261a15.68,15.68,0,0,1,19.892,7.614l37.121,58.646a16.882,16.882,0,1,1-30.6,14.254c-3.508-8-12.455-21.884-20.6-34.845-6.15-9.792-6.677-11.2-9.2-17-3.528-8.1,3.386-28.669,3.386-28.669" transform="translate(118.116 60.776)" fill="#fff"/>
          <line id="Línea_694" data-name="Línea 694" x1="5.774" y1="9.291" transform="translate(222.469 150.297)" fill="none" stroke="#ace8ff" stroke-linecap="round" stroke-linejoin="round" stroke-width="0.501"/>
          <path id="Trazado_187381" data-name="Trazado 187381" d="M95.469,125.13l42.945-42.067a16.74,16.74,0,0,1,24.221.214h0a16.741,16.741,0,0,1-1.56,24.361l-53.7,42.967Z" transform="translate(113.475 92.695)" fill="#fff"/>
          <line id="Línea_695" data-name="Línea 695" x2="20.135" y2="42.971" transform="translate(204.564 206.99)" fill="none" stroke="#ace8ff" stroke-linecap="round" stroke-linejoin="round" stroke-width="0.501"/>
          <line id="Línea_696" data-name="Línea 696" x1="12.009" y2="11.764" transform="translate(209.679 205.342)" fill="none" stroke="#ace8ff" stroke-linecap="round" stroke-linejoin="round" stroke-width="0.501"/>
          <line id="Línea_697" data-name="Línea 697" x1="5.863" y2="4.69" transform="translate(221.554 238.048)" fill="none" stroke="#ace8ff" stroke-linecap="round" stroke-linejoin="round" stroke-width="0.501"/>
          <line id="Línea_698" data-name="Línea 698" y1="8.96" x2="9.72" transform="translate(242.169 175.757)" fill="none" stroke="#ace8ff" stroke-linecap="round" stroke-linejoin="round" stroke-width="0.501"/>
          <path id="Trazado_187382" data-name="Trazado 187382" d="M132.914,39.734c-1.832,14.473-15.611,24.648-30.776,22.726S76.168,47.25,78,32.779,93.613,8.131,108.776,10.053s25.972,15.209,24.138,29.682" transform="translate(92.473 11.672)" fill="#1f0a00"/>
          <path id="Trazado_187383" data-name="Trazado 187383" d="M88.249,31.9a7,7,0,1,1-3.532-9.242A6.995,6.995,0,0,1,88.249,31.9" transform="translate(88.984 26.204)" fill="#f09067"/>
          <path id="Trazado_187384" data-name="Trazado 187384" d="M87.252,42.3,84.026,72.756h23.223l-1.869-45.81Z" transform="translate(99.874 32.028)" fill="#ffaf85"/>
          <path id="Trazado_187385" data-name="Trazado 187385" d="M84.7,50.821l16.576-17.11-14.823.549Z" transform="translate(100.673 40.069)" fill="#1f0a00"/>
          <path id="Trazado_187386" data-name="Trazado 187386" d="M85.149,14.153c-2.049,1.328-4.2,6.559-4.968,8.866-2.294,6.842-4.894,18.656-3.353,26.421,2,10.1,8.131,18.207,21.151,17.4,0,0,15.43.392,21.008-18.509,8.886-30.113-16.3-45.562-33.838-34.177" transform="translate(90.766 12.367)" fill="#ffaf85"/>
          <path id="Trazado_187387" data-name="Trazado 187387" d="M81.326,24.061l-2.171,3.491a.771.771,0,0,0,.436.974l1.768.565" transform="translate(94.031 28.599)" fill="none" stroke="#1f0a00" stroke-linecap="round" stroke-linejoin="round" stroke-width="0.292"/>
          <path id="Trazado_187388" data-name="Trazado 187388" d="M87.281,23.995a1.8,1.8,0,1,1-1.635-1.959,1.8,1.8,0,0,1,1.635,1.959" transform="translate(99.462 26.183)" fill="#1f0a00"/>
          <path id="Trazado_187389" data-name="Trazado 187389" d="M80.586,23.044a1.673,1.673,0,1,1-1.517-1.817,1.674,1.674,0,0,1,1.517,1.817" transform="translate(91.815 25.223)" fill="#1f0a00"/>
          <path id="Trazado_187390" data-name="Trazado 187390" d="M83.251,18.32l12.76,3.355s-1.983-4.368-5.66-5.318-7.1,1.963-7.1,1.963" transform="translate(98.952 19.217)" fill="#1f0a00"/>
          <path id="Trazado_187391" data-name="Trazado 187391" d="M86.273,18.62l-10.124.7s2-3.867,4.922-4.051,5.2,3.351,5.2,3.351" transform="translate(90.511 18.14)" fill="#1f0a00"/>
          <path id="Trazado_187392" data-name="Trazado 187392" d="M79.452,28.3s6.586,2.983,9.632-.573" transform="translate(94.437 32.95)" fill="none" stroke="#1f0a00" stroke-linecap="round" stroke-linejoin="round" stroke-width="0.292"/>
          <g id="Grupo_178602" data-name="Grupo 178602" transform="translate(162.83 40.231)" opacity="0.36">
            <g id="Grupo_178601" data-name="Grupo 178601" transform="translate(0)">
              <g id="Grupo_178600" data-name="Grupo 178600" clip-path="url(#clip-path-9)">
                <path id="Trazado_187393" data-name="Trazado 187393" d="M111.964,21.751,74.4,18.383l.206,9.5a5.248,5.248,0,0,0,4.6,5.281l3.559.32a2.512,2.512,0,0,0,2.528-1.79c.633-1.784,1.992-3.5,4.629,1.018a3.215,3.215,0,0,0,2.46,1.635l9.288.834a7.509,7.509,0,0,0,7.66-5.38Z" transform="translate(-74.399 -18.381)" fill="#fffdff"/>
              </g>
            </g>
          </g>
          <path id="Trazado_187394" data-name="Trazado 187394" d="M75.531,19.594l34.95,3.134-2.206,6.728a6.466,6.466,0,0,1-6,4.646c-.169,0-.341-.007-.512-.022l-9.288-.834a2.123,2.123,0,0,1-1.6-1.09c-1.364-2.34-2.6-3.43-3.9-3.43-.825,0-1.968.451-2.729,2.6a1.476,1.476,0,0,1-1.379,1.059h-.009l-3.559-.32a4.154,4.154,0,0,1-3.591-4.2ZM74.4,18.382l.2,9.5a5.255,5.255,0,0,0,4.6,5.283l3.559.317c.066.007.131.009.2.009a2.547,2.547,0,0,0,2.331-1.8c.333-.941.869-1.863,1.687-1.863.733,0,1.694.742,2.941,2.882a3.217,3.217,0,0,0,2.46,1.633l9.288.834c.2.018.409.026.611.026a7.571,7.571,0,0,0,7.049-5.406l2.639-8.052Z" transform="translate(88.431 21.849)" fill="#fffdff"/>
          <rect id="Rectángulo_46743" data-name="Rectángulo 46743" width="2.369" height="37.715" transform="translate(162.619 42.592) rotate(-84.876)" fill="#1f0a00"/>
          <path id="Trazado_187395" data-name="Trazado 187395" d="M91.678,19.922l5.384,4.062-.214,2.392-5.382-4.095Z" transform="translate(108.716 23.679)" fill="#1f0a00"/>
          <path id="Trazado_187396" data-name="Trazado 187396" d="M98.886,13.219l-.8.867A20.137,20.137,0,0,0,92.94,30.7l2.132,14.486,19.6-13.841Z" transform="translate(110.213 15.712)" fill="#1f0a00"/>
          <path id="Trazado_187397" data-name="Trazado 187397" d="M106.788,33.534a6.963,6.963,0,1,1-3.515-9.2,6.964,6.964,0,0,1,3.515,9.2" transform="translate(111.096 28.205)" fill="#ffaf85"/>
          <path id="Trazado_187398" data-name="Trazado 187398" d="M101.491,26.417a4.219,4.219,0,0,0-6.078,2.9" transform="translate(113.408 30.857)" fill="none" stroke="#1f0a00" stroke-linecap="round" stroke-linejoin="round" stroke-width="0.292"/>
          <path id="Trazado_187399" data-name="Trazado 187399" d="M103.621,11.887s16.25,16.706,1.453,36.825L97.486,16.735Z" transform="translate(115.872 14.129)" fill="#1f0a00"/>
          <path id="Trazado_187400" data-name="Trazado 187400" d="M112.8,24.8s-4.922-7.4-15.423-5.058a46.663,46.663,0,0,1-18.122.716S79.174,8.331,100.342,7.736c5.914-.164,11.632.562,16.962,3.132C122.99,13.61,129.225,19,131.425,29.587Z" transform="translate(94.205 9.169)" fill="#1f0a00"/>
        </g>
      </g>
    </g>
  </g>
  <g id="Grupo_178609" data-name="Grupo 178609" transform="translate(226.262 110.106) rotate(90)">
    <line id="Línea_699" data-name="Línea 699" x2="67.533" y2="14.761" transform="translate(321.982 72.846)" fill="none" stroke="#f9a829" stroke-miterlimit="10" stroke-width="1"/>
    <line id="Línea_700" data-name="Línea 700" x1="37.498" y1="49.706" transform="translate(115.581 32.159)" fill="none" stroke="#f9a829" stroke-miterlimit="10" stroke-width="1"/>
    <path id="Trazado_187401" data-name="Trazado 187401" d="M0,8.686,173.938,109.041,165.9,0" transform="translate(152.537 74.887)" fill="none" stroke="#f9a829" stroke-miterlimit="10" stroke-width="1"/>
    <g id="Grupo_178608" data-name="Grupo 178608" transform="translate(0 0)">
      <g id="Grupo_178610" data-name="Grupo 178610">
        <path id="Trazado_187402" data-name="Trazado 187402" d="M0,87.087,65.068,49.74,154,0" transform="translate(0 80.899)" fill="none" stroke="#f9a829" stroke-miterlimit="10" stroke-width="1"/>
        <path id="Trazado_187403" data-name="Trazado 187403" d="M28.982,14.491A14.491,14.491,0,1,0,14.491,28.982,14.491,14.491,0,0,0,28.982,14.491" transform="translate(47.325 115.941)" fill="#3360ff"/>
        <path id="Trazado_187404" data-name="Trazado 187404" d="M6.045,3.023A3.023,3.023,0,1,0,3.023,6.045,3.023,3.023,0,0,0,6.045,3.023" transform="translate(55.771 133.766)" fill="#5179ff"/>
        <path id="Trazado_187405" data-name="Trazado 187405" d="M43.314,21.657A21.657,21.657,0,1,0,21.657,43.314,21.657,21.657,0,0,0,43.314,21.657" transform="translate(85.129 0)" fill="#e16495"/>
        <path id="Trazado_187406" data-name="Trazado 187406" d="M9.034,4.517A4.517,4.517,0,1,0,4.517,9.034,4.517,4.517,0,0,0,9.034,4.517" transform="translate(97.752 26.643)" fill="#f880b5"/>
        <path id="Trazado_187407" data-name="Trazado 187407" d="M21.6,10.8A10.8,10.8,0,1,0,10.8,21.6,10.8,10.8,0,0,0,21.6,10.8" transform="translate(315.674 176.104)" fill="#e16495"/>
        <path id="Trazado_187408" data-name="Trazado 187408" d="M4.507,2.252A2.254,2.254,0,1,0,2.252,4.506,2.253,2.253,0,0,0,4.507,2.252" transform="translate(321.968 189.392)" fill="#f880b5"/>
        <path id="Trazado_187409" data-name="Trazado 187409" d="M21.6,10.8A10.8,10.8,0,1,0,10.8,21.6,10.8,10.8,0,0,0,21.6,10.8" transform="translate(382.507 76.4)" fill="#e16495"/>
        <path id="Trazado_187410" data-name="Trazado 187410" d="M4.506,2.252A2.253,2.253,0,1,0,2.252,4.506,2.252,2.252,0,0,0,4.506,2.252" transform="translate(388.803 89.687)" fill="#f880b5"/>
        <path id="Trazado_187411" data-name="Trazado 187411" d="M21.6,10.8A10.8,10.8,0,1,0,10.8,21.6,10.8,10.8,0,0,0,21.6,10.8" transform="translate(141.736 72.773)" fill="#3360ff"/>
        <path id="Trazado_187412" data-name="Trazado 187412" d="M4.506,2.252A2.253,2.253,0,1,0,2.252,4.506,2.252,2.252,0,0,0,4.506,2.252" transform="translate(148.031 86.06)" fill="#5179ff"/>
        <path id="Trazado_187413" data-name="Trazado 187413" d="M41.662,20.831A20.831,20.831,0,1,0,20.831,41.662,20.831,20.831,0,0,0,41.662,20.831" transform="translate(297.607 49.868)" fill="#3360ff"/>
        <path id="Trazado_187414" data-name="Trazado 187414" d="M8.69,4.345A4.345,4.345,0,1,0,4.345,8.69,4.345,4.345,0,0,0,8.69,4.345" transform="translate(309.747 75.493)" fill="#5179ff"/>
      </g>
    </g>
  </g>
</svg>
