<svg xmlns="http://www.w3.org/2000/svg" width="175.519" height="101.072" viewBox="0 0 175.519 101.072">
  <g id="Grupo_178582" data-name="Grupo 178582" transform="translate(-453 -8041.126)">
    <g id="Grupo_16022" data-name="Grupo 16022" transform="translate(453 8041.126)">
      <ellipse id="Elipse_1184" data-name="Elipse 1184" cx="44.171" cy="44.171" rx="44.171" ry="44.171" transform="translate(0 13.817) rotate(-8.998)" fill="#a84158"/>
      <path id="Trazado_36669" data-name="Trazado 36669" d="M164.511,416.833c-4.747-4.747-9.392-10.539-14.865-14.427-7.223-5.132-20.187-8.191-27.675-2.039-1.311,1.077-1.779,2.29-3,3.042-1.552.954-3.245,1.042-4.418,2.715a28.134,28.134,0,0,1-2,3.011,31.251,31.251,0,0,0-2.324,2.753c-2.63,3.8-5.215,10.57-1.673,14.312,4.1,4.336,8.459,8.46,12.681,12.681l21.858,21.858a44.228,44.228,0,0,0,33.124-32.2Z" transform="translate(-82.865 -367.11)" fill="#a84158" opacity="0.2" style="mix-blend-mode: difference;isolation: isolate"/>
      <path id="Trazado_36670" data-name="Trazado 36670" d="M158.764,420.28a2.512,2.512,0,0,0,.308-1.018c.181-2.528-1.512-4.754-3.23-6.337a2.751,2.751,0,0,0,.172-1.574c-1.777-9.308-14.9-12.925-15.454-13.074s-13.728-3.577-19.921,3.6a2.754,2.754,0,0,0-.638,1.449c-2.28.512-4.859,1.594-5.966,3.873a2.511,2.511,0,0,0-.242,1.036,18.884,18.884,0,0,0-6.855,15.659,2.217,2.217,0,0,0,1.392,1.971,2.307,2.307,0,0,0,.29.1,2.278,2.278,0,0,0,2.13-.513,11.9,11.9,0,0,1,5.679-2.592,2.043,2.043,0,0,0,2.863.564,9.941,9.941,0,0,1,3.25-1.374,2.839,2.839,0,0,0,1.476.976,2.777,2.777,0,0,0,1.01.079A22.912,22.912,0,0,1,141.6,427.54a2.813,2.813,0,0,0,2.68.329,9.934,9.934,0,0,1,2.128,2.815,2.032,2.032,0,0,0,1.311,1.091,2.1,2.1,0,0,0,.28.054,2.051,2.051,0,0,0,1.171-.2,11.908,11.908,0,0,1,3.623,5.085,2.278,2.278,0,0,0,1.587,1.508,2.382,2.382,0,0,0,.3.06,2.216,2.216,0,0,0,2.19-1.011A18.882,18.882,0,0,0,158.764,420.28Zm-48.683,1.75a15.666,15.666,0,0,1,4.294-10.08l1.354,7.861A17.043,17.043,0,0,0,110.081,422.03Zm8.858-2.013-2-11.616a5.441,5.441,0,0,1,3.345-1.924l1.471,12.535A13.886,13.886,0,0,0,118.939,420.017Zm24.243,4.809a25.96,25.96,0,0,0-18.167-4.868l-1.9-16.166c4.987-5.534,16.516-2.525,16.633-2.494s11.6,3.189,13.157,10.476Zm5.233,3.089a13.9,13.9,0,0,0-1.936-2.277l7.542-10.12a5.442,5.442,0,0,1,1.935,3.339Zm6.664,6.173a17.054,17.054,0,0,0-3.781-4.746l5.1-6.131A15.669,15.669,0,0,1,155.079,434.087Z" transform="translate(-82.909 -367.278)" fill="#fff"/>
    </g>
    <g id="Grupo_16024" data-name="Grupo 16024" transform="translate(553.688 8051.027)">
      <ellipse id="Elipse_1185" data-name="Elipse 1185" cx="33.168" cy="33.168" rx="33.168" ry="33.168" transform="translate(0 9.125) rotate(-7.906)" fill="#ffaa20"/>
      <path id="Trazado_36671" data-name="Trazado 36671" d="M378.821,389.7c-3.361-.17-6.8.1-10.168.144a22.9,22.9,0,0,0-4.347.062c-1.228.274-1.069-.243-.626,1.367-1.292-1.342-2.668-2.871-4.752-2.412a3.624,3.624,0,0,0-1.4.65,3.593,3.593,0,0,0-1.4-.65c-1.252-.276-1.941.65-2.948.65-1.028,0-1.7-.939-2.982-.642a3.628,3.628,0,0,0-2.384,1.862c-.61-.7-2.585-1.038-3.041-.043-.415.906.454,1.416.942,1.94.593.636,1.715,1.32,1.7,2.22-.65-.462-1.832-1.44-2.588-.283-.573.877.365,1.521.852,2.047.569.616,1.475,1.211,1.737,1.971.294.855.542,6.352,0,6.96-.589.66-4.429.143-5.41.143-1.07,0-4.858-.624-5.62.21-.889.973.912,5.871,1.307,6.883a19.183,19.183,0,0,0,3.631,5.866c1.4,1.555,2.958,2.989,4.437,4.469a4.863,4.863,0,0,1,1.635,2.174c.24.939-.046,1.27.457,2.053a7.354,7.354,0,0,0,1.012,1.013l7.722,7.721,4.525,4.525a33.161,33.161,0,0,0,26.83-43.575l-3.229-3.229C382.881,391.961,381.473,389.829,378.821,389.7Z" transform="translate(-319.139 -370.33)" fill="#ffaa20" opacity="0.2" style="mix-blend-mode: difference;isolation: isolate"/>
      <g id="Grupo_16023" data-name="Grupo 16023" transform="translate(17.454 18.651)">
        <path id="Trazado_36672" data-name="Trazado 36672" d="M363.711,392.65a3.378,3.378,0,0,0-5.556-2.587,3.37,3.37,0,0,0-4.348,0,3.378,3.378,0,0,0-5.556,2.587v13.527H337.221a18.758,18.758,0,0,0,11.01,17.083v3.85h15.5v-3.85a18.758,18.758,0,0,0,11.01-17.083H363.711ZM352.6,406.176h-1.932V392.65a.966.966,0,1,1,1.932,0Zm4.348,0h-1.933V392.65a.966.966,0,1,1,1.933,0Zm4.348,0h-1.933V392.65a.966.966,0,1,1,1.933,0Z" transform="translate(-337.221 -389.268)" fill="#fff"/>
        <path id="Trazado_36673" data-name="Trazado 36673" d="M357.835,394.025l1.085.016a4.316,4.316,0,0,1,.463-1.5l-1.548.022c-.352.005-.631.139-.624.3q.018.434,0,.867C357.2,393.886,357.482,394.02,357.835,394.025Z" transform="translate(-348.824 -391.167)" fill="#fff"/>
        <path id="Trazado_36674" data-name="Trazado 36674" d="M417.92,393.867a.609.609,0,0,0,.668-.483q.031-.739,0-1.477a.61.61,0,0,0-.668-.483l-16.759.238a4.313,4.313,0,0,1,.615,1.977Z" transform="translate(-374.334 -390.519)" fill="#fff"/>
        <path id="Trazado_36675" data-name="Trazado 36675" d="M357.835,403.6l1.053.015v-1.493l-1.053.015c-.352.005-.631.139-.624.3q.018.434,0,.867C357.2,403.461,357.482,403.595,357.835,403.6Z" transform="translate(-348.824 -396.729)" fill="#fff"/>
        <path id="Trazado_36676" data-name="Trazado 36676" d="M418.789,400.989l-16.131.229V403.2l16.131.229a.609.609,0,0,0,.668-.483q.031-.739,0-1.477A.61.61,0,0,0,418.789,400.989Z" transform="translate(-375.203 -396.071)" fill="#fff"/>
      </g>
    </g>
  </g>
</svg>
