<svg xmlns="http://www.w3.org/2000/svg" width="392" height="129" viewBox="0 0 392 129">
  <g id="Grupo_178786" data-name="Grupo 178786" transform="translate(-9629 1902)">
    <path id="Trazado_187595" data-name="Trazado 187595" d="M10,0H382a10,10,0,0,1,10,10V119a10,10,0,0,1-10,10H10A10,10,0,0,1,0,119V10A10,10,0,0,1,10,0Z" transform="translate(9629 -1902)" fill="#fff"/>
    <g id="Grupo_178615" data-name="Grupo 178615" transform="translate(9663.925 -1875)">
      <text id="Ejemplo:_2-Butanona_CH3-CO-CH2_-CH3_" data-name="Ejemplo: 
2-Butanona 
CH3-CO-CH2 -CH3 " transform="translate(180.075 4)" fill="#12263f" font-size="16" font-family="Roboto-Bold, Roboto" font-weight="700"><tspan x="0" y="17">Ejemplo: </tspan><tspan x="0" y="41">2-Butanona </tspan><tspan x="0" y="65">CH3-CO-CH2 -CH3 </tspan></text>
    </g>
    <path id="Trazado_187596" data-name="Trazado 187596" d="M10.359,11.57a6.867,6.867,0,0,1-.594,2.945,4.472,4.472,0,0,1-1.7,1.953,4.7,4.7,0,0,1-2.535.688,4.732,4.732,0,0,1-2.523-.68,4.515,4.515,0,0,1-1.719-1.941,6.67,6.67,0,0,1-.617-2.9V11.07a6.831,6.831,0,0,1,.605-2.957A4.508,4.508,0,0,1,2.988,6.152a4.706,4.706,0,0,1,2.527-.684,4.706,4.706,0,0,1,2.527.684A4.508,4.508,0,0,1,9.754,8.113a6.811,6.811,0,0,1,.605,2.949Zm-2.375-.516a4.787,4.787,0,0,0-.641-2.719,2.088,2.088,0,0,0-1.828-.93,2.088,2.088,0,0,0-1.82.918,4.732,4.732,0,0,0-.648,2.691v.555a4.847,4.847,0,0,0,.641,2.7,2.082,2.082,0,0,0,1.844.961,2.064,2.064,0,0,0,1.813-.926,4.819,4.819,0,0,0,.641-2.7Z" transform="translate(9751 -1868)" fill="#12263f"/>
    <path id="Trazado_187597" data-name="Trazado 187597" d="M9.945,13.211A4.025,4.025,0,0,1,8.59,16.1a4.76,4.76,0,0,1-3.223,1.055,4.28,4.28,0,0,1-3.441-1.473A6.038,6.038,0,0,1,.672,11.641v-.7A6.819,6.819,0,0,1,1.25,8.055,4.332,4.332,0,0,1,2.9,6.137a4.629,4.629,0,0,1,2.5-.668A4.637,4.637,0,0,1,8.57,6.523,4.326,4.326,0,0,1,9.961,9.484H7.617A2.376,2.376,0,0,0,7,7.887a2.271,2.271,0,0,0-1.605-.5,1.991,1.991,0,0,0-1.754.84,4.707,4.707,0,0,0-.6,2.605V11.7a5.038,5.038,0,0,0,.559,2.7,1.954,1.954,0,0,0,1.762.852,2.314,2.314,0,0,0,1.621-.5A2.241,2.241,0,0,0,7.6,13.211ZM20.742,17H18.4V12.125h-4.57V17H11.484V5.625h2.344v4.609H18.4V5.625h2.344Zm6.388,0H22.257v-.967l2.3-2.451a5.674,5.674,0,0,0,.7-.9,1.451,1.451,0,0,0,.227-.732,1.086,1.086,0,0,0-.239-.745.864.864,0,0,0-.684-.271.931.931,0,0,0-.754.33,1.306,1.306,0,0,0-.276.867H22.115a2.331,2.331,0,0,1,.31-1.187A2.185,2.185,0,0,1,23.3,10.1a2.664,2.664,0,0,1,1.284-.305,2.522,2.522,0,0,1,1.707.527A1.866,1.866,0,0,1,26.9,11.81a2.39,2.39,0,0,1-.273,1.074,5.97,5.97,0,0,1-.937,1.274l-1.616,1.7H27.13Z" transform="translate(9688 -1825)" fill="#12263f"/>
    <path id="Trazado_187598" data-name="Trazado 187598" d="M9.945,13.211A4.025,4.025,0,0,1,8.59,16.1a4.76,4.76,0,0,1-3.223,1.055,4.28,4.28,0,0,1-3.441-1.473A6.038,6.038,0,0,1,.672,11.641v-.7A6.819,6.819,0,0,1,1.25,8.055,4.332,4.332,0,0,1,2.9,6.137a4.629,4.629,0,0,1,2.5-.668A4.637,4.637,0,0,1,8.57,6.523,4.326,4.326,0,0,1,9.961,9.484H7.617A2.376,2.376,0,0,0,7,7.887a2.271,2.271,0,0,0-1.605-.5,1.991,1.991,0,0,0-1.754.84,4.707,4.707,0,0,0-.6,2.605V11.7a5.038,5.038,0,0,0,.559,2.7,1.954,1.954,0,0,0,1.762.852,2.314,2.314,0,0,0,1.621-.5A2.241,2.241,0,0,0,7.6,13.211ZM20.742,17H18.4V12.125h-4.57V17H11.484V5.625h2.344v4.609H18.4V5.625h2.344Zm2.95-4.18h.752a1.06,1.06,0,0,0,.8-.269.984.984,0,0,0,.259-.713.87.87,0,0,0-.256-.669.993.993,0,0,0-.706-.239,1.041,1.041,0,0,0-.679.222.71.71,0,0,0-.273.579H22.174a1.735,1.735,0,0,1,.3-1,2,2,0,0,1,.84-.691A2.8,2.8,0,0,1,24.5,9.793a2.658,2.658,0,0,1,1.768.54,1.841,1.841,0,0,1,.64,1.487,1.5,1.5,0,0,1-.3.9,1.935,1.935,0,0,1-.781.63,1.766,1.766,0,0,1,.9.645,1.748,1.748,0,0,1,.3,1.016,1.871,1.871,0,0,1-.691,1.519A2.778,2.778,0,0,1,24.5,17.1a2.634,2.634,0,0,1-1.741-.562,1.834,1.834,0,0,1-.676-1.484H23.5a.818.818,0,0,0,.3.654,1.253,1.253,0,0,0,1.528-.012.919.919,0,0,0,.286-.706q0-1.064-1.172-1.064h-.747Z" transform="translate(9646 -1825)" fill="#12263f"/>
    <path id="Trazado_187599" data-name="Trazado 187599" d="M9.945,13.211A4.025,4.025,0,0,1,8.59,16.1a4.76,4.76,0,0,1-3.223,1.055,4.28,4.28,0,0,1-3.441-1.473A6.038,6.038,0,0,1,.672,11.641v-.7A6.819,6.819,0,0,1,1.25,8.055,4.332,4.332,0,0,1,2.9,6.137a4.629,4.629,0,0,1,2.5-.668A4.637,4.637,0,0,1,8.57,6.523,4.326,4.326,0,0,1,9.961,9.484H7.617A2.376,2.376,0,0,0,7,7.887a2.271,2.271,0,0,0-1.605-.5,1.991,1.991,0,0,0-1.754.84,4.707,4.707,0,0,0-.6,2.605V11.7a5.038,5.038,0,0,0,.559,2.7,1.954,1.954,0,0,0,1.762.852,2.314,2.314,0,0,0,1.621-.5A2.241,2.241,0,0,0,7.6,13.211ZM20.742,17H18.4V12.125h-4.57V17H11.484V5.625h2.344v4.609H18.4V5.625h2.344Zm2.95-4.18h.752a1.06,1.06,0,0,0,.8-.269.984.984,0,0,0,.259-.713.87.87,0,0,0-.256-.669.993.993,0,0,0-.706-.239,1.041,1.041,0,0,0-.679.222.71.71,0,0,0-.273.579H22.174a1.735,1.735,0,0,1,.3-1,2,2,0,0,1,.84-.691A2.8,2.8,0,0,1,24.5,9.793a2.658,2.658,0,0,1,1.768.54,1.841,1.841,0,0,1,.64,1.487,1.5,1.5,0,0,1-.3.9,1.935,1.935,0,0,1-.781.63,1.766,1.766,0,0,1,.9.645,1.748,1.748,0,0,1,.3,1.016,1.871,1.871,0,0,1-.691,1.519A2.778,2.778,0,0,1,24.5,17.1a2.634,2.634,0,0,1-1.741-.562,1.834,1.834,0,0,1-.676-1.484H23.5a.818.818,0,0,0,.3.654,1.253,1.253,0,0,0,1.528-.012.919.919,0,0,0,.286-.706q0-1.064-1.172-1.064h-.747Z" transform="translate(9800 -1825)" fill="#12263f"/>
    <path id="Trazado_187600" data-name="Trazado 187600" d="M9.945,13.211A4.025,4.025,0,0,1,8.59,16.1a4.76,4.76,0,0,1-3.223,1.055,4.28,4.28,0,0,1-3.441-1.473A6.038,6.038,0,0,1,.672,11.641v-.7A6.819,6.819,0,0,1,1.25,8.055,4.332,4.332,0,0,1,2.9,6.137a4.629,4.629,0,0,1,2.5-.668A4.637,4.637,0,0,1,8.57,6.523,4.326,4.326,0,0,1,9.961,9.484H7.617A2.376,2.376,0,0,0,7,7.887a2.271,2.271,0,0,0-1.605-.5,1.991,1.991,0,0,0-1.754.84,4.707,4.707,0,0,0-.6,2.605V11.7a5.038,5.038,0,0,0,.559,2.7,1.954,1.954,0,0,0,1.762.852,2.314,2.314,0,0,0,1.621-.5A2.241,2.241,0,0,0,7.6,13.211Z" transform="translate(9751 -1825)" fill="#12263f"/>
    <path id="Trazado_187601" data-name="Trazado 187601" d="M0,0H9" transform="translate(9677.425 -1815.5)" fill="none" stroke="#12263f" stroke-width="1"/>
    <path id="Trazado_187602" data-name="Trazado 187602" d="M0,0H28.075" transform="translate(9719.425 -1815.5)" fill="none" stroke="#12263f" stroke-width="1"/>
    <path id="Trazado_187603" data-name="Trazado 187603" d="M0,0H34" transform="translate(9764.5 -1815.5)" fill="none" stroke="#12263f" stroke-width="1"/>
    <g id="Grupo_178619" data-name="Grupo 178619" transform="translate(9759.5 -1825) rotate(180)">
      <line id="Línea_710" data-name="Línea 710" y1="24.405" fill="none" stroke="#12263f" stroke-width="1"/>
      <line id="Línea_715" data-name="Línea 715" y1="24.405" transform="translate(3.5 0)" fill="none" stroke="#12263f" stroke-width="1"/>
    </g>
  </g>
</svg>
