<svg xmlns="http://www.w3.org/2000/svg" xmlns:xlink="http://www.w3.org/1999/xlink" width="105" height="105" viewBox="0 0 105 105"><defs><clipPath id="a"><rect width="55.776" height="64.546" fill="#31313c"/></clipPath></defs><g transform="translate(-1164 -2495)"><circle cx="52.5" cy="52.5" r="52.5" transform="translate(1164 2495)" fill="#fed5c3"/><g transform="translate(1189 2515)"><g clip-path="url(#a)"><path d="M.027,17.189a.863.863,0,0,0,.854.844.866.866,0,0,0,.975-.705A2.7,2.7,0,0,0,1.9,16.64c0-4.726.01-9.451-.009-14.176,0-.462.1-.586.576-.586q15.909.024,31.817,0c.454,0,.6.082.592.572-.03,2.52-.018,5.04-.012,7.56a1.987,1.987,0,0,0,2.221,2.21c2.542,0,5.082.016,7.623-.012.485-.005.589.131.578.593-.033,1.322-.006,2.646-.016,3.969a.977.977,0,0,0,.528.99c.68.337,1.353-.155,1.361-1.016.013-1.533-.027-3.067.016-4.6a2.69,2.69,0,0,0-.888-2.118Q41.677,5.465,37.108.856A3.088,3.088,0,0,0,35.835,0H1.293A2.1,2.1,0,0,0,0,2.195C.037,7,.016,11.813.017,16.623a5.153,5.153,0,0,0,.01.567M36.752,3.4l6.938,6.94H38.824c-.567,0-1.134-.009-1.7,0-.255.006-.378-.056-.376-.346.01-2.216.006-4.433.006-6.6" transform="translate(0)" fill="#31313c"/><path d="M76.914,26.686q-.5-.257-1.014-.5a2.526,2.526,0,0,0-3.634,1.235Q63,46.215,53.75,65.012a2.053,2.053,0,0,0-.217,1.094c.044.565.055,1.133.08,1.7H53.6c.035.608.089,1.216.1,1.825a1.355,1.355,0,0,0,.734,1.352,1.409,1.409,0,0,0,1.53-.207q1.409-1.005,2.838-1.983a2.558,2.558,0,0,0,.875-1.041c1.115-2.3,2.252-4.586,3.382-6.878.528-1.071,1.066-2.137,1.581-3.214a.964.964,0,0,0-.47-1.41c-.5-.184-.946.036-1.253.655-.893,1.8-1.784,3.6-2.659,5.413-.16.33-.292.433-.646.221a10.187,10.187,0,0,0-1.52-.749c-.438-.171-.494-.333-.277-.768,1.805-3.616,3.58-7.247,5.364-10.873Q66.66,43.075,70.133,36c.2-.408.359-.516.775-.259a10.329,10.329,0,0,0,1.466.717c.387.162.468.326.261.733-.968,1.9-1.9,3.825-2.843,5.741q-2.457,4.988-4.911,9.976c-.33.673-.2,1.184.338,1.454s1.016.04,1.359-.627c.039-.074.076-.15.112-.225l5.772-11.724q2.831-5.748,5.658-11.5a2.528,2.528,0,0,0-1.206-3.6M55.531,68.765V66.41l1.982.973-1.982,1.381m3.377-4.477a1.993,1.993,0,0,1,.276.207c-.226.432-.41.828-.637,1.2-.078.128-.228-.017-.329-.066-.6-.287-1.184-.609-1.8-.871-.336-.145-.3-.295-.168-.564.469-.985.46-.989,1.425-.514.41.2.822.4,1.229.61M73.729,34.9c-.067.122-.2.032-.28-.009-.658-.32-1.308-.658-1.971-.968-.207-.1-.2-.18-.129-.379.431-1.145.44-1.155,1.541-.612.376.185.746.379,1.124.56.131.063.256.117.3.252-.206.411-.384.79-.585,1.156m2.812-5.772a3.12,3.12,0,0,1-.136.366c-.335.695-.692,1.379-1.012,2.081-.148.325-.293.374-.61.2-.545-.3-1.112-.573-1.683-.826-.286-.127-.378-.237-.209-.549.386-.715.737-1.45,1.09-2.182a.694.694,0,0,1,1.076-.354c.353.179.711.35,1.063.53a.682.682,0,0,1,.421.738" transform="translate(-22.675 -10.951)" fill="#31313c"/><path d="M47.113,59.08a.862.862,0,0,0-.882-.67.849.849,0,0,0-.875.595,2.4,2.4,0,0,0-.065.745c0,5.673-.013,11.345.013,17.017,0,.6-.126.751-.74.75q-20.956-.03-41.911,0c-.587,0-.754-.106-.753-.731q.033-20.136.014-40.272a3.144,3.144,0,0,0-.05-.749.868.868,0,0,0-.973-.714.875.875,0,0,0-.854.854c-.016.167-.009.335-.009.5q0,20.42,0,40.839c0,1.556.6,2.146,2.182,2.146H45c1.552,0,2.174-.62,2.174-2.17q0-8.729,0-17.458a2.626,2.626,0,0,0-.062-.684" transform="translate(-0.011 -14.846)" fill="#31313c"/><path d="M7.881,62.939a1.807,1.807,0,0,0,1.858,1.882q2.487.042,4.976,0a1.844,1.844,0,0,0,1.88-1.939q.019-2.425,0-4.85a1.771,1.771,0,0,0-1.749-1.917c-1.74-.055-3.485-.053-5.225,0a1.737,1.737,0,0,0-1.741,1.848c-.02.818,0,1.637,0,2.456,0,.84-.016,1.68,0,2.519m1.875-4.574c0-.3.092-.4.395-.4q2.106.019,4.212,0c.281,0,.353.1.351.368-.01,1.4-.017,2.809,0,4.212.006.369-.16.4-.452.394-.691-.015-1.383-.005-2.075-.005-.67,0-1.342-.017-2.012.007-.337.012-.427-.109-.423-.431q.021-2.074,0-4.149" transform="translate(-3.334 -23.755)" fill="#31313c"/><path d="M7.88,43.182A1.765,1.765,0,0,0,9.666,45.06q2.58.069,5.163-.006a1.784,1.784,0,0,0,1.766-1.9q.019-2.424,0-4.85a1.832,1.832,0,0,0-1.862-1.953q-2.518-.048-5.038,0a1.783,1.783,0,0,0-1.814,1.856c-.022.839,0,1.68-.005,2.519,0,.818-.016,1.637,0,2.456m1.876-4.575c0-.3.094-.394.4-.391,1.384.014,2.769.018,4.154,0,.349-.005.414.123.41.435q-.021,2.077,0,4.154c0,.3-.082.405-.388.4-.692-.02-1.384-.006-2.077-.006-.671,0-1.343-.013-2.014.006-.327.009-.49-.047-.484-.439.024-1.384.017-2.769,0-4.154" transform="translate(-3.334 -15.388)" fill="#31313c"/><path d="M7.885,82.75a1.793,1.793,0,0,0,1.852,1.814q2.488.023,4.976,0a1.824,1.824,0,0,0,1.88-1.866q.029-2.488,0-4.976a1.8,1.8,0,0,0-1.867-1.866q-2.487-.026-4.976,0a1.775,1.775,0,0,0-1.87,1.854c-.02.818,0,1.638,0,2.456h0c0,.861-.021,1.722.005,2.583m1.87-4.595c0-.322.074-.441.416-.429.691.026,1.384.008,2.077.008s1.385.013,2.077-.006c.3-.009.4.075.393.384-.016,1.406-.013,2.812,0,4.217,0,.269-.066.362-.349.359q-2.109-.021-4.217,0c-.291,0-.4-.065-.394-.379q.024-2.077,0-4.154" transform="translate(-3.334 -32.13)" fill="#31313c"/><path d="M16.588,18.436a1.792,1.792,0,0,0-1.8-1.809q-2.55-.041-5.1,0a1.761,1.761,0,0,0-1.8,1.8q-.04,2.55,0,5.1a1.768,1.768,0,0,0,1.852,1.807c.818.015,1.637,0,2.456,0H14.65c.042,0,.084,0,.126,0a1.806,1.806,0,0,0,1.812-1.8q.041-2.55,0-5.1m-2.26,5.017c-.691-.021-1.383-.006-2.076-.006-.713,0-1.426-.011-2.138.005-.27.006-.363-.072-.36-.352q.019-2.107,0-4.214c0-.3.088-.388.388-.385,1.4.014,2.809.012,4.214,0,.267,0,.362.065.359.348q-.021,2.107,0,4.214c0,.3-.082.4-.386.389" transform="translate(-3.332 -7.035)" fill="#31313c"/><path d="M47.507,47a.85.85,0,0,0-.627-.966,2.289,2.289,0,0,0-.681-.069q-9.726-.005-19.452,0a2.652,2.652,0,0,0-.563.03.927.927,0,0,0-.725,1.139,1,1,0,0,0,1.108.72c3.316-.011,6.631-.005,9.946-.005h9.632a3.485,3.485,0,0,0,.565-.013.867.867,0,0,0,.8-.834" transform="translate(-10.771 -19.47)" fill="#31313c"/><path d="M26.889,38.642a4.665,4.665,0,0,0-.629.021.86.86,0,0,0-.809.889.848.848,0,0,0,.7.918,2.965,2.965,0,0,0,.686.061q9.642,0,19.286,0a2.653,2.653,0,0,0,.807-.09.922.922,0,0,0-.126-1.763,3.575,3.575,0,0,0-.69-.034q-4.79,0-9.58,0H26.889" transform="translate(-10.782 -16.37)" fill="#31313c"/><path d="M45.643,67.573a.9.9,0,0,0,.988-1.031c-.054-.589-.452-.852-1.314-.852q-9.264,0-18.527,0a2.339,2.339,0,0,0-.744.086.847.847,0,0,0-.6.929.859.859,0,0,0,.726.834,3.529,3.529,0,0,0,.69.037q4.568,0,9.137,0h6.428c1.071,0,2.143.014,3.214-.008" transform="translate(-10.778 -27.828)" fill="#31313c"/><path d="M26.5,60.259c.1,0,.21,0,.315,0q8.571,0,17.142,0a2.028,2.028,0,0,0,.748-.066.923.923,0,0,0,.552-1.274,1.05,1.05,0,0,0-1.1-.553q-4.38.011-8.76,0H31.616c-1.7,0-3.4-.005-5.1,0a.955.955,0,0,0-1.075.9c-.021.571.4.957,1.067.987" transform="translate(-10.775 -24.725)" fill="#31313c"/><path d="M42.315,79.971a.915.915,0,0,0,.881-.9.929.929,0,0,0-.875-.972,5.014,5.014,0,0,0-.567-.008h-14.8a6.024,6.024,0,0,0-.629.007.926.926,0,0,0-.879.967.91.91,0,0,0,.873.907,3.957,3.957,0,0,0,.5.009H41.811a4.191,4.191,0,0,0,.5-.009" transform="translate(-10.777 -33.079)" fill="#31313c"/><path d="M26.632,28.128q7.278,0,14.555,0c.779,0,1.235-.359,1.235-.951s-.45-.938-1.236-.939q-3.623,0-7.246,0-3.654,0-7.309,0c-.749,0-1.176.331-1.195.909-.02.6.429.98,1.2.98" transform="translate(-10.775 -11.115)" fill="#31313c"/><path d="M26.195,20.737a3.555,3.555,0,0,0,.628.025q3.527,0,7.055,0h3.716c1.281,0,2.561.009,3.842-.007a.933.933,0,0,0,.986-.924.975.975,0,0,0-.919-.944,2.156,2.156,0,0,0-.252-.006q-7.338,0-14.676,0a1.505,1.505,0,0,0-.554.088.923.923,0,0,0,.173,1.763" transform="translate(-10.778 -7.999)" fill="#31313c"/><path d="M39.564,85.485a3.713,3.713,0,0,0-.69-.036q-2.991,0-5.982,0-2.518,0-5.037,0c-.524,0-1.051-.013-1.573.024a.844.844,0,0,0-.83.865.863.863,0,0,0,.733.953,2.536,2.536,0,0,0,.561.046q6.139,0,12.279,0a2.011,2.011,0,0,0,.68-.088.92.92,0,0,0-.141-1.762" transform="translate(-10.781 -36.197)" fill="#31313c"/></g></g></g></svg>