<svg xmlns="http://www.w3.org/2000/svg" xmlns:xlink="http://www.w3.org/1999/xlink" width="398.055" height="190.952" viewBox="0 0 398.055 190.952"><defs><clipPath id="a"><rect width="29.5" height="29.5" fill="#f9a829"/></clipPath><clipPath id="b"><rect width="40.409" height="40.409" fill="#f9a829"/></clipPath><clipPath id="c"><rect width="49.555" height="51.155" fill="#f9a829"/></clipPath><clipPath id="d"><rect width="61.809" height="139.337" fill="none"/></clipPath><clipPath id="e"><rect width="21.534" height="12.825" fill="none"/></clipPath><clipPath id="f"><rect width="20.976" height="7.869" fill="none"/></clipPath><clipPath id="g"><rect width="17.927" height="18.254" fill="#2be9d6"/></clipPath><clipPath id="h"><rect width="9.586" height="9.76" fill="#2be9d6"/></clipPath><clipPath id="i"><rect width="13.632" height="13.881" fill="#2be9d6"/></clipPath><clipPath id="j"><rect width="151.756" height="82.558" fill="none"/></clipPath><clipPath id="k"><rect width="104.354" height="174.519" fill="none"/></clipPath><clipPath id="m"><rect width="30.814" height="52.806" fill="none"/></clipPath><clipPath id="n"><rect width="23.722" height="23.722" fill="none"/></clipPath><clipPath id="o"><rect width="12.684" height="12.684" fill="none"/></clipPath><clipPath id="p"><rect width="18.039" height="18.039" fill="none"/></clipPath><clipPath id="q"><rect width="22.537" height="13.136" fill="none"/></clipPath><clipPath id="r"><rect width="23.267" height="17.476" fill="none"/></clipPath><clipPath id="s"><rect width="52.915" height="57.176" fill="none"/></clipPath><clipPath id="t"><rect width="88.35" height="91.618" fill="none"/></clipPath><clipPath id="v"><rect width="48.983" height="48.984" fill="none"/></clipPath><clipPath id="w"><rect width="29.883" height="46.168" fill="none"/></clipPath><clipPath id="x"><rect width="24.526" height="42.948" fill="none"/></clipPath></defs><g transform="translate(-175.945 -695.912)"><g transform="translate(180 704)"><g transform="translate(0 0)"><path d="M0,0H369a25,25,0,0,1,25,25V148.181a0,0,0,0,1,0,0H25a25,25,0,0,1-25-25V0A0,0,0,0,1,0,0Z" transform="translate(0 18.851)" fill="#31313c"/><g transform="translate(15.091 143.349)"><g clip-path="url(#a)"><path d="M29.1,15.195c-10.611,1.258-12.651,3.3-13.909,13.909a.448.448,0,0,1-.89,0C13.047,18.493,11.006,16.453.4,15.195a.448.448,0,0,1,0-.89C11.006,13.047,13.047,11.007,14.3.4a.448.448,0,0,1,.89,0C16.453,11.007,18.493,13.047,29.1,14.3a.448.448,0,0,1,0,.89" transform="translate(0 0)" fill="#f9a829"/></g></g><g transform="translate(344.591 0)"><g clip-path="url(#b)"><path d="M39.866,20.814c-14.534,1.723-17.329,4.518-19.052,19.052a.614.614,0,0,1-1.22,0C17.872,25.332,15.076,22.537.542,20.814a.614.614,0,0,1,0-1.219C15.076,17.872,17.872,15.077,19.594.542a.614.614,0,0,1,1.22,0c1.723,14.535,4.518,17.33,19.052,19.053a.614.614,0,0,1,0,1.219" transform="translate(0 0)" fill="#f9a829"/></g></g><g transform="translate(-4.055 8.429)"><g clip-path="url(#c)"><path d="M41.877,66.206c4.125-.673,6.749-2.327,7.479-4.759.857-2.856-1.058-6.255-5.393-9.571A51.952,51.952,0,0,0,27.769,44.1a51.947,51.947,0,0,0-17.8-2.428C4.529,42.057,1.057,43.841.2,46.7s1.058,6.255,5.393,9.571a51.938,51.938,0,0,0,16.194,7.772,51.956,51.956,0,0,0,17.8,2.428q1.212-.085,2.292-.262M7.995,44.178q.994-.162,2.135-.243a49.678,49.678,0,0,1,16.989,2.338C40.324,50.235,48.294,57.107,47.187,60.8c-.559,1.862-3.387,3.106-7.76,3.413a49.661,49.661,0,0,1-16.989-2.338,49.655,49.655,0,0,1-15.469-7.4c-3.482-2.664-5.159-5.26-4.6-7.122.462-1.539,2.474-2.656,5.626-3.17" transform="translate(0 -28.303)" fill="#f9a829"/><path d="M58.017,51.905c2.943-.48,5.16-3.691,6.243-9.039a51.953,51.953,0,0,0-.1-17.962A51.948,51.948,0,0,0,58.543,7.84C55.815,3.113,52.693.774,49.75,1.255s-5.16,3.69-6.243,9.039a51.957,51.957,0,0,0,.1,17.963,51.954,51.954,0,0,0,5.611,17.063c2.727,4.727,5.85,7.066,8.793,6.586m-7.9-48.416c3.8-.62,9.584,8.171,11.8,21.779s-.466,23.782-4.268,24.4-9.584-8.171-11.8-21.779.467-23.782,4.268-24.4" transform="translate(-29.106 -0.812)" fill="#f9a829"/><path d="M18.62,60.985q1.079-.176,2.256-.481a51.95,51.95,0,0,0,16.1-7.961A51.943,51.943,0,0,0,49.861,40.026c3.055-4.522,3.79-8.353,2.07-10.789s-5.577-3.024-10.86-1.654a51.948,51.948,0,0,0-16.1,7.96A51.948,51.948,0,0,0,12.086,48.062c-3.055,4.522-3.79,8.353-2.07,10.789,1.465,2.074,4.479,2.807,8.6,2.134M43.741,29.327c3.152-.514,5.414-.1,6.341,1.217,2.222,3.145-3.149,12.194-14.41,20.15a49.666,49.666,0,0,1-15.364,7.618c-4.244,1.1-7.321.819-8.443-.768s-.358-4.582,2.1-8.215A49.673,49.673,0,0,1,26.275,37.394a49.668,49.668,0,0,1,15.364-7.618c.737-.191,1.439-.341,2.1-.449" transform="translate(-6.196 -18.276)" fill="#f9a829"/><path d="M59.985,69.556A5.626,5.626,0,1,0,64.631,63.1a5.626,5.626,0,0,0-4.646,6.459" transform="translate(-40.763 -42.881)" fill="#f9a829"/><path d="M73.623,3.8A3.276,3.276,0,1,0,76.328.042,3.275,3.275,0,0,0,73.623,3.8" transform="translate(-50.064 0.001)" fill="#f9a829"/><path d="M3.65,106.789a3.306,3.306,0,1,0,2.73-3.795,3.306,3.306,0,0,0-2.73,3.795" transform="translate(-2.454 -70.048)" fill="#f9a829"/><path d="M129.828,74.384a3.306,3.306,0,1,0,2.73-3.795,3.305,3.305,0,0,0-2.73,3.795" transform="translate(-88.306 -48)" fill="#f9a829"/></g></g></g><g transform="translate(307.801 43.527)" clip-path="url(#d)"><path d="M33.231,64.529l-1.818,5.486a2.876,2.876,0,0,0,1,3.215,41.54,41.54,0,0,0,3.928,2.546L35.6,78.019,12,148.842a11.184,11.184,0,0,0,6.826,14.117c.175.061.358.115.54.17a10.9,10.9,0,0,0,13.345-7.134L55.171,88.6l1.96-5.886A34.469,34.469,0,0,0,62,82.9a2.8,2.8,0,0,0,2.551-1.936l1.687-5.094c.577-1.74-6.349-5.684-15.466-8.819S33.81,62.794,33.231,64.529" transform="translate(-11.417 -24.219)" fill="#fff"/><g transform="translate(24.18 51.557)" style="mix-blend-mode:multiply;isolation:isolate"><g transform="translate(0)"><g clip-path="url(#e)"><path d="M27.185,83.172l-.748,2.243C28.972,88.561,39.511,93.773,46.011,96l1.96-5.886a54.737,54.737,0,0,1-20.786-6.938" transform="translate(-26.437 -83.172)" fill="#d9e5f9"/></g></g></g><path d="M61.268,125.035,45.906,171.07a7.77,7.77,0,0,0,.377,5.854A7.478,7.478,0,0,0,60.162,176l15.362-46.036a23.337,23.337,0,0,0-2.787-2.04,19.427,19.427,0,0,0-11.469-2.893" transform="translate(-41.416 -47.518)" fill="#fed5c3"/><path d="M72.7,179.243a3.208,3.208,0,0,1-4.369,1.389,3.325,3.325,0,0,1-1.364-4.449,3.208,3.208,0,0,1,4.369-1.389,3.325,3.325,0,0,1,1.364,4.449" transform="translate(-51.8 -66.298)" fill="#a82c3b"/><path d="M57.533,144.692a3.208,3.208,0,0,1-4.369,1.389,3.325,3.325,0,0,1-1.364-4.449,3.207,3.207,0,0,1,4.369-1.389,3.326,3.326,0,0,1,1.364,4.449" transform="translate(-27.403 -53.165)" fill="#a82c3b"/><path d="M85.3,198.4a2,2,0,0,1-2.718.864,2.069,2.069,0,0,1-.849-2.768,2,2,0,0,1,2.718-.863A2.068,2.068,0,0,1,85.3,198.4" transform="translate(-73.332 -74.274)" fill="#a82c3b"/><path d="M73.6,161.594a2,2,0,0,1-2.718.864,2.069,2.069,0,0,1-.849-2.768,2,2,0,0,1,2.718-.864,2.069,2.069,0,0,1,.849,2.768" transform="translate(-54.515 -60.282)" fill="#a82c3b"/><path d="M45.5,125.035a16.167,16.167,0,0,0,6.542,4.224,15.909,15.909,0,0,0,7.714.709A19.836,19.836,0,0,0,45.5,125.035" transform="translate(-25.653 -47.518)" fill="#a82c3b"/><g transform="translate(28.044 41.405)" style="mix-blend-mode:multiply;isolation:isolate"><g clip-path="url(#f)"><path d="M21.021,67.131c-.29.878,4.163,3.2,9.948,5.187s10.71,2.887,11,2.01-4.163-3.2-9.948-5.188-10.71-2.887-11-2.009" transform="translate(-21.008 -66.794)" fill="#c9d6f7"/></g></g><g transform="translate(43.882 21.325)" style="mix-blend-mode:screen;isolation:isolate"><g transform="translate(0)" style="isolation:isolate"><g clip-path="url(#g)"><path d="M.479,40.593a9.165,9.165,0,0,0,5.6,11.575,8.924,8.924,0,0,0,11.367-5.7,9.165,9.165,0,0,0-5.6-11.575,8.924,8.924,0,0,0-11.367,5.7" transform="translate(0 -34.401)" fill="#2be9d6"/></g></g></g><g transform="translate(27.813 23.722)" style="isolation:isolate"><g transform="translate(0)"><g clip-path="url(#h)"><path d="M40.353,41.579a4.9,4.9,0,0,0,3,6.189,4.771,4.771,0,0,0,6.078-3.05,4.9,4.9,0,0,0-3-6.19,4.772,4.772,0,0,0-6.078,3.05" transform="translate(-40.097 -38.268)" fill="#2be9d6"/></g></g></g><g transform="translate(38.08)" style="isolation:isolate"><g transform="translate(0)"><g clip-path="url(#i)"><path d="M16.951,4.707a6.969,6.969,0,0,0,4.26,8.8,6.786,6.786,0,0,0,8.644-4.337,6.968,6.968,0,0,0-4.26-8.8,6.786,6.786,0,0,0-8.644,4.337" transform="translate(-16.587 0)" fill="#2be9d6"/></g></g></g></g><g transform="translate(3.973 62.217)"><g transform="translate(0 0)" clip-path="url(#j)"><path d="M35.923,77.169H12.847a1.309,1.309,0,0,1-1.134-.655L.175,56.529a1.31,1.31,0,0,1,0-1.31L11.713,35.235a1.309,1.309,0,0,1,1.134-.655H35.923a1.31,1.31,0,0,1,1.134.655L48.6,55.219a1.31,1.31,0,0,1,0,1.31L37.057,76.514a1.31,1.31,0,0,1-1.134.655M13.6,74.549H35.167L45.948,55.875,35.167,37.2H13.6L2.822,55.875Z" transform="translate(0 -14.596)" fill="#f2edfd"/><path d="M95.323,42.589H72.248a1.309,1.309,0,0,1-1.134-.655L59.575,21.949a1.313,1.313,0,0,1,0-1.31L71.114.655A1.309,1.309,0,0,1,72.248,0H95.323a1.31,1.31,0,0,1,1.134.655L108,20.639a1.31,1.31,0,0,1,0,1.31L96.458,41.934a1.31,1.31,0,0,1-1.134.655M73,39.969H94.568l10.781-18.675L94.568,2.62H73L62.222,21.294Z" transform="translate(-25.072)" fill="#f2edfd"/><path d="M156.324,77.169H133.249a1.309,1.309,0,0,1-1.134-.655L120.576,56.529a1.313,1.313,0,0,1,0-1.31l11.539-19.984a1.309,1.309,0,0,1,1.134-.655h23.076a1.31,1.31,0,0,1,1.134.655L169,55.219a1.313,1.313,0,0,1,0,1.31L157.459,76.514a1.31,1.31,0,0,1-1.134.655m-22.319-2.62h21.564L166.35,55.875,155.569,37.2H134.005L123.224,55.875Z" transform="translate(-50.82 -14.596)" fill="#f2edfd"/><path d="M214.126,111.749H191.05a1.309,1.309,0,0,1-1.134-.655L178.378,91.109a1.31,1.31,0,0,1,0-1.31l11.538-19.984a1.309,1.309,0,0,1,1.134-.655h23.075a1.31,1.31,0,0,1,1.134.655L226.8,89.8a1.313,1.313,0,0,1,0,1.31L215.26,111.094a1.31,1.31,0,0,1-1.134.655m-22.319-2.62H213.37l10.782-18.674L213.37,71.78H191.806L181.024,90.455Z" transform="translate(-75.217 -29.191)" fill="#f2edfd"/><path d="M95.323,111.749H72.248a1.309,1.309,0,0,1-1.134-.655L59.575,91.109a1.313,1.313,0,0,1,0-1.31L71.114,69.815a1.309,1.309,0,0,1,1.134-.655H95.323a1.31,1.31,0,0,1,1.134.655L108,89.8a1.31,1.31,0,0,1,0,1.31L96.458,111.094a1.31,1.31,0,0,1-1.134.655M73,109.129H94.568l10.781-18.674L94.568,71.78H73L62.222,90.455Z" transform="translate(-25.072 -29.191)" fill="#f2edfd"/><path d="M71.86,68.023A5.977,5.977,0,1,0,76.8,61.161a5.977,5.977,0,0,0-4.937,6.862" transform="translate(-30.298 -25.782)" fill="#dd5268"/><path d="M131.26,33.443a5.977,5.977,0,1,0,4.936-6.862,5.976,5.976,0,0,0-4.936,6.862" transform="translate(-55.37 -11.186)" fill="#ffab31"/><path d="M170.2,99.875a5.977,5.977,0,1,0,4.937-6.862,5.977,5.977,0,0,0-4.937,6.862" transform="translate(-71.808 -39.226)" fill="#dd5268"/></g></g></g><g transform="translate(377 695.912)"><g clip-path="url(#k)"><g clip-path="url(#k)"><path d="M59.28,77.818H10.628A3.37,3.37,0,0,0,7.142,81.06V206.076h6.971V84.3H59.28a3.25,3.25,0,1,0,0-6.483" transform="translate(-2.577 -31.557)" fill="#ffab31"/><path d="M18.489,76.923c0,4.748-4.139,8.6-9.244,8.6S0,81.671,0,76.923s4.139-8.6,9.244-8.6,9.244,3.849,9.244,8.6" transform="translate(0 -27.708)" fill="#ffab31"/><path d="M12.058,84.046a3.971,3.971,0,1,1,0-7.921,3.971,3.971,0,1,1,0,7.921" transform="translate(-2.814 -30.871)" fill="#ff8131"/><path d="M48.518,148.945h63.933c5.018,0,8.362-4.822,6.289-9.073L90.023,80.946V62.6H70.947V80.946L42.228,139.872c-2.07,4.251,1.271,9.073,6.29,9.073" transform="translate(-15.011 -25.387)" fill="#fff"/><path d="M128.682,102.847l16.334-22.888,2,3.991L134.75,115.3Z" transform="translate(-46.427 -32.425)" fill="#fff"/><path d="M49.862,150.24l29.18-59.873v-7.1h8.727v7.1l29.18,59.873a1.474,1.474,0,0,1-.122,1.536,1.711,1.711,0,0,1-1.455.738H51.439a1.711,1.711,0,0,1-1.454-.737,1.476,1.476,0,0,1-.123-1.537" transform="translate(-17.931 -33.768)" fill="#c9d6f7"/><path d="M85.421,76.648V83.9a.8.8,0,0,0,.828.767h20.092a.8.8,0,0,0,.825-.767V76.648a.8.8,0,0,0-.825-.767H86.249a.8.8,0,0,0-.828.767" transform="translate(-30.819 -30.772)" fill="#ffab31"/><path d="M85.421,76.648V83.9a.8.8,0,0,0,.828.767h20.092a.8.8,0,0,0,.825-.767V81.635c-2.981-.27-7.876-.747-12.594-1.361-7.5-.976-8.323-4.393-8.323-4.393a.8.8,0,0,0-.828.767" transform="translate(-30.819 -30.772)" fill="#ff8131"/><path d="M116.018,140.517s-3.553-3.087-9.62,1.827-10.42,7.467-15.459,4.846c0,0,.683,7.149,11.189,6.593s13.89-13.265,13.89-13.265" transform="translate(-32.81 -56.595)" fill="#68b8d4"/><path d="M65.644,140.455,49.789,172.986a1.518,1.518,0,0,0,.126,1.581,1.76,1.76,0,0,0,1.5.758h63.933a1.763,1.763,0,0,0,1.5-.759,1.517,1.517,0,0,0,.125-1.58l-15.854-32.532s-3.983,9.32-12.694,7.864c-7.452-1.245-9.054-12.312-22.774-7.864" transform="translate(-17.903 -56.533)" fill="#7edeed"/><path d="M73.7,160.865a4.221,4.221,0,1,0,4.21-3.915,4.071,4.071,0,0,0-4.21,3.915" transform="translate(-26.591 -63.648)" fill="#68b8d4"/><path d="M126.795,182.86a4.221,4.221,0,1,0,4.21-3.915,4.07,4.07,0,0,0-4.21,3.915" transform="translate(-45.746 -72.567)" fill="#68b8d4"/><path d="M83.5,187.967a2.626,2.626,0,1,0,2.619-2.436,2.533,2.533,0,0,0-2.619,2.436" transform="translate(-30.124 -75.238)" fill="#68b8d4"/><path d="M125.185,157.776a2.626,2.626,0,1,0,2.619-2.436,2.533,2.533,0,0,0-2.619,2.436" transform="translate(-45.165 -62.995)" fill="#68b8d4"/><g transform="translate(65.475 62.918)" opacity="0.8" style="mix-blend-mode:screen;isolation:isolate"><g clip-path="url(#m)"><path d="M108.027,105.839l25.217,52.806H102.43s18.13-6.052,16.782-14.719-11.185-38.087-11.185-38.087" transform="translate(-102.43 -105.839)" fill="#7edeed"/></g></g><path d="M98.332,171.577a2.626,2.626,0,1,0,2.619-2.436,2.533,2.533,0,0,0-2.619,2.436" transform="translate(-35.477 -68.591)" fill="#68b8d4"/><path d="M87.508,63.873l19.075,3.018V62.6H87.508Z" transform="translate(-31.572 -25.387)" fill="#c9d6f7"/><path d="M83.712,58.972h22.3a2.185,2.185,0,0,0,2.26-2.1V55.751a2.185,2.185,0,0,0-2.26-2.1h-22.3a2.185,2.185,0,0,0-2.26,2.1V56.87a2.185,2.185,0,0,0,2.26,2.1" transform="translate(-29.387 -21.757)" fill="#fff"/><path d="M104.179,7.64c0,4.22,3.678,7.64,8.215,7.64s8.215-3.421,8.215-7.64S116.931,0,112.394,0s-8.215,3.421-8.215,7.64" transform="translate(-37.586 0)" fill="#7edeed"/><path d="M82.4,33.284a5.389,5.389,0,0,0,10.75,0,5.389,5.389,0,0,0-10.75,0" transform="translate(-29.728 -11.47)" fill="#7edeed"/><path d="M77.128,5.36a4.1,4.1,0,0,0,8.171,0,4.1,4.1,0,0,0-8.171,0" transform="translate(-27.827 -0.633)" fill="#7edeed"/></g></g></g><g transform="translate(266 706.562)"><g transform="translate(0 0)"><path d="M123.726,131.422a47.068,47.068,0,0,1-17.444,63.686,45.8,45.8,0,0,1-62.852-17.676,47.224,47.224,0,0,1,7.217-55.743l-11.105-19.9a40.771,40.771,0,0,1-5.546,1.3,3.252,3.252,0,0,1-3.339-1.642l-3.034-5.436c-1.034-1.854,6.05-7.9,15.821-13.494s18.53-8.636,19.564-6.783l3.266,5.852a3.335,3.335,0,0,1-.456,3.889,47.809,47.809,0,0,1-3.955,3.779l11,19.706a45.91,45.91,0,0,1,50.864,22.462" transform="translate(-7.555 -56.67)" fill="#f2edfd"/><g transform="translate(0 23.037)" style="isolation:isolate"><g clip-path="url(#n)"><path d="M22.821,55.551A11.858,11.858,0,1,1,7.334,49.118a11.858,11.858,0,0,1,15.487,6.433" transform="translate(0 -48.217)" fill="#3157fa"/></g></g><g transform="translate(32.093 24.562)" style="isolation:isolate"><g clip-path="url(#o)"><path d="M56.439,54.073a6.341,6.341,0,1,1-8.281-3.44,6.34,6.34,0,0,1,8.281,3.44" transform="translate(-44.236 -50.151)" fill="#3157fa"/></g></g><g transform="translate(11.382)" style="isolation:isolate"><g clip-path="url(#p)"><path d="M33.043,14.751A9.017,9.017,0,1,1,21.266,9.859a9.017,9.017,0,0,1,11.777,4.892" transform="translate(-15.689 -9.174)" fill="#3157fa"/></g></g><g transform="translate(26.111 42.272)" style="mix-blend-mode:multiply;isolation:isolate"><g clip-path="url(#q)"><path d="M58.488,79.955c.522.924-4.081,4.515-10.282,8.022s-11.651,5.6-12.174,4.677,4.081-4.515,10.282-8.022,11.651-5.6,12.174-4.677" transform="translate(-35.991 -79.737)" fill="#f2edfd"/></g></g><g transform="translate(31.986 50.706)" style="mix-blend-mode:multiply;isolation:isolate"><g clip-path="url(#r)"><path d="M66.412,94.321a87.179,87.179,0,0,1-22.323,12.373l2.886,5.1S64.3,102.266,67.356,95.99Z" transform="translate(-44.089 -94.321)" fill="#f2edfd"/></g></g><path d="M124.716,156.589A37.262,37.262,0,1,1,55.9,183.048v0c-.013-.057-.027-.113-.038-.171.012-.47.779-1.342,2.173-2.527l.135-.116c.139-.119.283-.238.435-.358.1-.081.2-.162.3-.244,0,0,0,0,.007,0,.209-.169.429-.344.66-.521.053-.044.11-.086.165-.128,1.878-1.444,4.373-3.19,7.341-5.139q.834-.548,1.717-1.115h0q.589-.378,1.2-.765c1.627-1.032,3.358-2.106,5.179-3.212q.684-.416,1.382-.836l.7-.422c.236-.141.472-.283.71-.423s.479-.284.719-.428c2.147-1.271,4.39-2.568,6.706-3.878q2.606-1.475,5.12-2.848c13.622-7.444,24.734-12.454,27.061-12.172a.725.725,0,0,1,.283.084l.123.118v0l.157.149a37.279,37.279,0,0,1,6.575,8.5" transform="translate(-15.335 -74.932)" fill="#ffab31"/><path d="M96.6,211.715a7.137,7.137,0,1,1-9.32-3.871,7.136,7.136,0,0,1,9.32,3.871" transform="translate(-22.748 -91.286)" fill="#ff8131"/><path d="M139.425,204.671a7.136,7.136,0,1,1-9.32-3.871,7.137,7.137,0,0,1,9.32,3.871" transform="translate(-34.503 -89.352)" fill="#ff8131"/><path d="M116.614,200.272a3.815,3.815,0,1,1-4.983-2.07,3.814,3.814,0,0,1,4.983,2.07" transform="translate(-29.996 -84.049)" fill="#ff8131"/><path d="M90.847,190.915a3.815,3.815,0,1,1-4.983-2.07,3.816,3.816,0,0,1,4.983,2.07" transform="translate(-22.923 -80.337)" fill="#ff8131"/><path d="M137.084,173.235a7.137,7.137,0,1,1-9.32-3.871,7.136,7.136,0,0,1,9.32,3.871" transform="translate(-33.861 -73.328)" fill="#ff8131"/><path d="M117.982,147.94v0a.344.344,0,0,1,.036.218c-.243,2.021-13.07,10.766-29.527,20.072-17.143,9.694-31.733,16.329-32.588,14.816v0a.335.335,0,0,1-.038-.171c.012-.47.78-1.343,2.174-2.527l.134-.116c.139-.119.284-.238.435-.358.1-.081.2-.162.3-.244,0,0,0,0,.007,0,.21-.169.429-.345.661-.521.053-.044.11-.086.165-.128,1.878-1.444,4.373-3.19,7.341-5.139q.835-.548,1.717-1.115h0q.588-.381,1.2-.765c1.625-1.034,3.358-2.108,5.179-3.212q.683-.418,1.382-.835l.7-.422c.236-.141.472-.282.711-.423l.718-.428c2.148-1.27,4.39-2.567,6.706-3.877q2.606-1.475,5.121-2.848c13.622-7.444,24.733-12.454,27.061-12.172a.713.713,0,0,1,.282.084l.123.118" transform="translate(-15.335 -67.596)" fill="#ebba55"/><g transform="translate(61.544 67.634)" style="mix-blend-mode:screen;isolation:isolate"><g clip-path="url(#s)"><path d="M84.831,134.083s18.668-8.148,35.138,3.484,23.185,33.061,12.859,50.919c0,0,5.071-51.251-48-54.4" transform="translate(-84.831 -131.309)" fill="#ff8131"/></g></g></g></g><g transform="translate(418.418 778.813)"><g clip-path="url(#t)"><g clip-path="url(#t)"><path d="M41.966,112.577l5.129,4.846a1.615,1.615,0,0,0,2.283-.066l12.274-12.991,5.076-5.372-7.476-7.065-3.007,3.183L41.9,110.294a1.613,1.613,0,0,0,.064,2.282" transform="translate(-21.464 -47.592)" fill="#ffab31"/><path d="M72.116,95.113a22.274,22.274,0,0,0,5.406,9.254L82.6,98.994,75.123,91.93Z" transform="translate(-37.335 -47.592)" fill="#ff8131"/><path d="M.79,160.01l.975.921a2.521,2.521,0,0,0,3.565-.1L25.387,139.6l-4.641-4.385L.689,156.446a2.521,2.521,0,0,0,.1,3.564" transform="translate(0 -70.002)"/><path d="M71.233,8.954A28.926,28.926,0,1,0,112.131,8a28.927,28.927,0,0,0-40.9.953m3.21,3.063a24.49,24.49,0,1,1,.805,34.625,24.517,24.517,0,0,1-.805-34.625" transform="translate(-32.735 0)"/><g transform="translate(34.932 4.434)" style="mix-blend-mode:screen;isolation:isolate"><g clip-path="url(#v)"><path d="M74.033,24.972a24.378,24.378,0,1,0,1.438-3.107,24.519,24.519,0,0,0-1.438,3.107" transform="translate(-72.428 -9.194)" fill="#3157fa"/></g></g><g transform="translate(50.803 4.434)" opacity="0.25" style="mix-blend-mode:screen;isolation:isolate"><g clip-path="url(#w)"><path d="M105.336,10.777,125.33,55.362a24.4,24.4,0,0,0,9.889-9.519l-16.2-36.121a24.4,24.4,0,0,0-13.686,1.054" transform="translate(-105.336 -9.194)" fill="#fff"/></g></g><g transform="translate(37.974 10.471)" opacity="0.25" style="mix-blend-mode:screen;isolation:isolate"><g clip-path="url(#x)"><path d="M78.736,28.343l16.01,35.7a24.3,24.3,0,0,0,8.516.412L84.093,21.71a24.3,24.3,0,0,0-5.357,6.633" transform="translate(-78.736 -21.71)" fill="#fff"/></g></g></g></g></g></g></svg>