<svg xmlns="http://www.w3.org/2000/svg" xmlns:xlink="http://www.w3.org/1999/xlink" width="105" height="105" viewBox="0 0 105 105"><defs><clipPath id="a"><rect width="58.055" height="68.679" fill="#31313c"/></clipPath></defs><g transform="translate(-347 -3136)"><circle cx="52.5" cy="52.5" r="52.5" transform="translate(347 3136)" fill="#fed5c3"/><g transform="translate(370.24 3154.564)"><g clip-path="url(#a)"><path d="M9.189,133.046a26.237,26.237,0,0,1-2.624-.741,10.333,10.333,0,1,1,10.3-17.643c.17-.182.344-.372.521-.56a2.819,2.819,0,0,1,3.926-.275,2.656,2.656,0,0,1,.355,3.883,4.046,4.046,0,0,0-1.139,3.795,10.116,10.116,0,0,1-8.752,11.431,1.86,1.86,0,0,0-.311.109Zm6.319-16.8c-2.739-2.495-7.447-2.454-10.465.055A8.323,8.323,0,0,0,13.749,130.3c3.447-1.578,5.676-5.717,4.735-8.865-.164.176-.316.331-.459.494-1.536,1.743-3.052,3.5-4.611,5.225a2.774,2.774,0,0,1-4.337-.027Q7.26,125.07,5.5,122.961a2.82,2.82,0,1,1,4.3-3.644c.489.549.962,1.112,1.485,1.718l4.22-4.794m-7.92,3.916c-.275.243-.629.408-.677.636a1.28,1.28,0,0,0,.212.955c1.056,1.3,2.16,2.557,3.254,3.824.683.792,1.075.79,1.775,0q3.519-3.994,7.032-7.993a7.162,7.162,0,0,0,.938-1.128,1.014,1.014,0,0,0,0-.9,1.1,1.1,0,0,0-.853-.306c-.214.012-.439.276-.611.471q-3.217,3.636-6.419,7.284c-.7.789-1.241.784-1.936-.012-.66-.756-1.3-1.531-1.972-2.277a4.861,4.861,0,0,0-.747-.548" transform="translate(0 -64.367)" fill="#31313c"/><path d="M18.57,9.007c-.731.827-1.407,1.59-2.081,2.355-.975,1.106-1.941,2.222-2.925,3.321A2.823,2.823,0,0,1,9,14.622Q7.313,12.669,5.64,10.7A2.824,2.824,0,1,1,9.892,7c.473.533.935,1.077,1.447,1.668l4.222-4.8A8.248,8.248,0,0,0,5.235,3.81c-.139.112-.271.234-.417.337a.986.986,0,0,1-1.435-.113A1.011,1.011,0,0,1,3.55,2.6,10.181,10.181,0,0,1,8.745.135a10.546,10.546,0,0,1,8.178,2.152c.188-.2.377-.408.574-.609a2.817,2.817,0,0,1,4.242,3.7c-.457.578-1.183,1.051-1.378,1.7-.183.6.215,1.369.283,2.07A10.312,10.312,0,1,1,.092,10.171,16.544,16.544,0,0,1,.607,7.083c.188-.806.749-1.11,1.37-.889.564.2.755.752.524,1.52a8.224,8.224,0,0,0,3.744,9.821,7.868,7.868,0,0,0,8.8-.326,7.962,7.962,0,0,0,3.6-7.858c-.008-.081-.035-.16-.076-.343m1.891-5.426c-.192-.243-.323-.563-.543-.647A1.3,1.3,0,0,0,19.057,3c-.207.083-.349.334-.511.519q-3.12,3.544-6.238,7.09c-.712.809-1.269.8-1.98-.022-.642-.744-1.274-1.5-1.923-2.233-.439-.5-.888-.567-1.273-.229s-.382.784.053,1.295q1.67,1.965,3.357,3.915c.551.634.974.632,1.547-.017q3.967-4.492,7.917-9a5.589,5.589,0,0,0,.455-.733" transform="translate(-0.049 0)" fill="#31313c"/><path d="M16.913,58.44c.2-.217.366-.418.548-.608a2.818,2.818,0,0,1,4.256,3.692,15.554,15.554,0,0,1-1.151,1.307.854.854,0,0,0-.214.951A10.319,10.319,0,1,1,.074,66.306a9.829,9.829,0,0,1,5.733-9.074,9.934,9.934,0,0,1,10.64.878c.145.1.287.2.467.329m1.647,6.7c-.38.427-.685.779-1,1.122-.534.583-1.11.689-1.575.3-.481-.4-.451-1.028.088-1.643q1.524-1.739,3.055-3.474c.354-.4.721-.8,1.048-1.22a.731.731,0,0,0-.109-1.079.754.754,0,0,0-1.088.026,5.772,5.772,0,0,0-.455.492l-6.2,7.046c-.747.849-1.276.844-2.026-.022-.659-.76-1.309-1.527-1.97-2.285a.772.772,0,0,0-1.178-.157.759.759,0,0,0-.073,1.182c1.186,1.4,2.374,2.792,3.583,4.169a.774.774,0,0,0,1.276.009c.314-.317.584-.678.9-1a.994.994,0,1,1,1.513,1.288c-.271.354-.573.686-.877,1.013a2.8,2.8,0,0,1-4.387-.057q-1.763-2.02-3.493-4.07a2.823,2.823,0,1,1,4.292-3.66c.473.534.934,1.079,1.448,1.673l4.22-4.8a8.223,8.223,0,0,0-10.366-.025A8.316,8.316,0,1,0,18.56,65.138" transform="translate(-0.04 -32.126)" fill="#31313c"/><path d="M75.491,124.54H60.614c-.245,0-.551.079-.723-.037-.321-.216-.749-.525-.788-.839s.284-.742.56-1c.17-.16.549-.129.835-.129q14.977-.008,29.954,0a2.558,2.558,0,0,1,.853.111.886.886,0,0,1,.595,1.01.9.9,0,0,1-.8.86,4.341,4.341,0,0,1-.735.025H75.491" transform="translate(-33.854 -70.189)" fill="#31313c"/><path d="M75.357,23.876H60.884c-.179,0-.358,0-.536,0-.9-.007-1.384-.358-1.387-1s.477-1,1.38-1q15.076,0,30.152,0a2.964,2.964,0,0,1,.534.028.98.98,0,0,1,.07,1.911,3.5,3.5,0,0,1-.8.056q-7.47,0-14.942,0" transform="translate(-33.775 -12.533)" fill="#31313c"/><path d="M75.387,68.352q-7.4,0-14.809,0a6.3,6.3,0,0,1-.736-.02.978.978,0,0,1-.166-1.905,2.55,2.55,0,0,1,.726-.083q15.01-.006,30.02,0a2.618,2.618,0,0,1,.727.079A.981.981,0,0,1,91,68.33a5.348,5.348,0,0,1-.736.021q-7.438,0-14.876,0" transform="translate(-33.788 -38.002)" fill="#31313c"/><path d="M75.367,12.186H60.559a4.963,4.963,0,0,1-.736-.026.913.913,0,0,1-.834-.971.908.908,0,0,1,.775-.954,3.322,3.322,0,0,1,.666-.045q14.975,0,29.95,0a3.087,3.087,0,0,1,.731.055.893.893,0,0,1,.729.983.892.892,0,0,1-.8.927,4.382,4.382,0,0,1-.735.03q-7.471,0-14.942,0" transform="translate(-33.792 -5.836)" fill="#31313c"/><path d="M75.372,136.224q-7.4,0-14.808,0a5.08,5.08,0,0,1-.736-.026.978.978,0,0,1-.068-1.924,3.229,3.229,0,0,1,.666-.046q15.009,0,30.017,0a2.777,2.777,0,0,1,.665.052.981.981,0,0,1-.06,1.912,4.25,4.25,0,0,1-.735.032q-7.471,0-14.942,0" transform="translate(-33.792 -76.89)" fill="#31313c"/><path d="M75.359,80.05H60.805c-.2,0-.4,0-.6,0-.78-.018-1.249-.4-1.24-1.008s.472-.983,1.264-.983q15.191,0,30.381,0c.812,0,1.231.362,1.224,1.006s-.43.983-1.246.984q-7.613.007-15.224,0" transform="translate(-33.775 -44.713)" fill="#31313c"/><path d="M70.457,33.543h9.981a4,4,0,0,1,.668.023.9.9,0,0,1,.8.855.882.882,0,0,1-.588,1.013,2.811,2.811,0,0,1-.919.116q-9.948.009-19.9,0a3.254,3.254,0,0,1-.731-.051.985.985,0,0,1,.165-1.949c.357-.018.715-.009,1.072-.009h9.445" transform="translate(-33.79 -19.213)" fill="#31313c"/><path d="M70.46,89.73h9.914a5.91,5.91,0,0,1,.669.016.981.981,0,0,1,.148,1.921,3.166,3.166,0,0,1-.8.071q-9.947.005-19.894,0a3.16,3.16,0,0,1-.794-.076.977.977,0,0,1,.17-1.917c.355-.029.714-.016,1.071-.016H70.46" transform="translate(-33.788 -51.399)" fill="#31313c"/><path d="M70.475,147.914H60.563a5.363,5.363,0,0,1-.669-.018.982.982,0,0,1-.925-1.037.954.954,0,0,1,.958-.934c.178-.012.357-.009.536-.009H80.422a4.244,4.244,0,0,1,.668.027.979.979,0,0,1,.1,1.908,3.346,3.346,0,0,1-.8.06q-4.957.005-9.913,0" transform="translate(-33.776 -83.586)" fill="#31313c"/></g></g></g></svg>