<svg id="Grupo_175238" data-name="Grupo 175238" xmlns="http://www.w3.org/2000/svg" xmlns:xlink="http://www.w3.org/1999/xlink" width="42.454" height="40.326" viewBox="0 0 42.454 40.326">
  <defs>
    <clipPath id="clip-path">
      <rect id="Rectángulo_33781" data-name="Rectángulo 33781" width="42.454" height="40.326" fill="#31313c"/>
    </clipPath>
  </defs>
  <g id="Grupo_80152" data-name="Grupo 80152" clip-path="url(#clip-path)">
    <path id="Trazado_113653" data-name="Trazado 113653" d="M37.781,9.345a4.686,4.686,0,1,0-4.217-2.67l-5.083,5.083a7.925,7.925,0,0,0-9.643.9L16.644,9.782a2.833,2.833,0,1,0-1.358,1.037L17.7,13.976a7.932,7.932,0,0,0-1.111,6.567L9.965,23.555a5.666,5.666,0,1,0,1.3,2.851l6.731-3.061a7.936,7.936,0,0,0,8.591,2.695l4.047,7.746a4.009,4.009,0,1,0,2.776-1.45l-4.073-7.8a7.955,7.955,0,0,0,2.209-2.979l3.34.069a2.834,2.834,0,1,0,.036-1.708l-2.873-.06a7.975,7.975,0,0,0,.126-1.4,7.894,7.894,0,0,0-1.427-4.537l5.034-5.034a4.648,4.648,0,0,0,2,.456" transform="translate(0 0)" fill="#31313c"/>
  </g>
</svg>
