<svg xmlns="http://www.w3.org/2000/svg" xmlns:xlink="http://www.w3.org/1999/xlink" width="1328.598" height="1605.878" viewBox="0 0 1328.598 1605.878">
  <defs>
    <linearGradient id="linear-gradient" x1="0.556" y1="0.166" x2="0.606" y2="0.931" gradientUnits="objectBoundingBox">
      <stop offset="0" stop-color="#af4c4e"/>
      <stop offset="1" stop-color="#652425"/>
    </linearGradient>
  </defs>
  <path id="Trazado_186615" data-name="Trazado 186615" d="M7355.4,1205.966,7356,2634.2h-.3v177.647c-3.4-2.871-6.541-5.956-10.249-8.576-27.771-19.627-53.827-40.989-83.885-58.338-59.6-34.394-125.685-40.318-195.14-18.141q-36.258,11.577-71.564,24.85c-43.56,16.42-88.791,26.177-137.993,23.993-30.8-1.366-57.989-8.625-81.694-23.855-35.479-22.8-60.184-52.329-88.137-79.875-14.812-14.6-29.934-29.13-46.533-42.537-34.137-27.574-75.608-40.2-126.534-36.764-54.781,3.7-100.545,17.727-133.614,52.8-27.595,29.262-55.555,58.463-85.981,86.014-49.25,44.594-113.562,59.6-187.94,48.092-26.627-4.118-52.316-11.725-78.436-17.739l-.6-1555.8Z" transform="translate(-6027.401 -1205.967)" opacity="0.043" fill="url(#linear-gradient)"/>
</svg>
