<svg xmlns="http://www.w3.org/2000/svg" width="92" height="92" viewBox="0 0 92 92">
  <g id="Grupo_177982" data-name="Grupo 177982" transform="translate(-1154 9473)">
    <circle id="Elipse_4903" data-name="Elipse 4903" cx="46" cy="46" r="46" transform="translate(1154 -9473)" fill="#fff"/>
    <g id="Grupo_177981" data-name="Grupo 177981" transform="translate(782.5 -10062.56)">
      <g id="Grupo_14061" data-name="Grupo 14061" transform="translate(382.5 613.56)">
        <path id="Trazado_28235" data-name="Trazado 28235" d="M443.663,613.56H438.82a1,1,0,0,0-.592.2L425.5,623.16a1,1,0,0,0,.592,1.8h4.843a7.166,7.166,0,0,1,6.791,4.9H404.375a10.516,10.516,0,0,0-5.777,2.221l-11.682,8.451a1,1,0,0,0-.175.164,9.145,9.145,0,0,0,4.906,16.864.994.994,0,0,0,.592-.2l12.728-9.405a1,1,0,0,0-.592-1.8c-2.368,0-6.26-.658-6.65-4.9h33.211a9.1,9.1,0,0,0,5.69-1.99l.019-.013c1.276-.9,12.516-8.86,14.09-10.747a7.211,7.211,0,0,0,2.076-5.8A9.158,9.158,0,0,0,443.663,613.56Zm-45.44,32.757a8.26,8.26,0,0,0,3.486,1.574l-10.38,7.671a7.155,7.155,0,0,1,.319-14.3h4.079A6.9,6.9,0,0,0,398.223,646.317Zm32.713-7.05H392.067l7.718-5.583.042-.032a8.475,8.475,0,0,1,4.548-1.8h33.71q.005.128.005.258A7.162,7.162,0,0,1,430.935,639.267ZM449.2,627.233c-.789.945-5.217,4.277-9.463,7.356a9.151,9.151,0,0,0-8.807-11.624h-1.818l10.031-7.412h4.515a7.163,7.163,0,0,1,7.155,7.155A5.361,5.361,0,0,1,449.2,627.233Z" transform="translate(-382.5 -613.56)"/>
      </g>
      <g id="Grupo_14062" data-name="Grupo 14062" transform="translate(384.493 641.259)">
        <path id="Trazado_28236" data-name="Trazado 28236" d="M434.716,1106.731l-10.38,7.671a7.155,7.155,0,0,1,.319-14.3h4.079a6.9,6.9,0,0,0,2.5,5.057A8.263,8.263,0,0,0,434.716,1106.731Z" transform="translate(-417.5 -1100.1)" fill="#919d6c"/>
      </g>
      <g id="Grupo_14063" data-name="Grupo 14063" transform="translate(429.117 615.553)">
        <path id="Trazado_28237" data-name="Trazado 28237" d="M1223.031,655.715a5.361,5.361,0,0,1-1.613,4.525c-.789.945-5.217,4.277-9.463,7.356a9.151,9.151,0,0,0-8.807-11.624h-1.818l10.031-7.413h4.515A7.163,7.163,0,0,1,1223.031,655.715Z" transform="translate(-1201.33 -648.56)" fill="#ccdd98"/>
      </g>
      <g id="Grupo_14064" data-name="Grupo 14064" transform="translate(392.067 631.854)">
        <path id="Trazado_28238" data-name="Trazado 28238" d="M596.563,935.158a7.162,7.162,0,0,1-7.155,7.155H550.54l7.718-5.583.042-.032a8.475,8.475,0,0,1,4.548-1.8h33.71Q596.563,935.028,596.563,935.158Z" transform="translate(-550.54 -934.9)" fill="#ccdd98"/>
      </g>
    </g>
  </g>
</svg>
