<svg xmlns="http://www.w3.org/2000/svg" width="92" height="92" viewBox="0 0 92 92">
  <g id="Grupo_177977" data-name="Grupo 177977" transform="translate(-807 -2243)">
    <path id="Trazado_184411" data-name="Trazado 184411" d="M46,0A46,46,0,1,1,0,46,46,46,0,0,1,46,0Z" transform="translate(807 2243)" fill="#fff"/>
    <g id="Grupo_177975" data-name="Grupo 177975" transform="translate(132.174 -864.855)">
      <path id="Trazado_26808" data-name="Trazado 26808" d="M11.4-41.25h3.4v18.158H11.579L11.5-24.676A3.47,3.47,0,0,1,9.953-23.3a5.193,5.193,0,0,1-2.276.491,5.91,5.91,0,0,1-2.27-.437,5.634,5.634,0,0,1-1.862-1.235,5.631,5.631,0,0,1-1.259-2,7.392,7.392,0,0,1-.461-2.66,6.909,6.909,0,0,1,.8-3.387,5.508,5.508,0,0,1,2.122-2.2,5.844,5.844,0,0,1,2.926-.745,5.323,5.323,0,0,1,2.2.443A3.442,3.442,0,0,1,11.4-33.779ZM8.458-25.634a3.031,3.031,0,0,0,2.3-.969,3.549,3.549,0,0,0,.916-2.542,3.556,3.556,0,0,0-.922-2.548,3.027,3.027,0,0,0-2.293-.975,3.063,3.063,0,0,0-2.311.958,3.556,3.556,0,0,0-.916,2.565,3.539,3.539,0,0,0,.916,2.553A3.063,3.063,0,0,0,8.458-25.634Zm10.758-7.081V-35.3H29.654v2.589Zm0,5.19v-2.589H29.654v2.589Z" transform="translate(683 3185.303)" fill="#4e4e4e"/>
      <path id="Trazado_26809" data-name="Trazado 26809" d="M18.4-28.145a4.643,4.643,0,0,1,3.133.987,3.532,3.532,0,0,1,1.147,2.831v8.571h-3.4v-7.6a2.03,2.03,0,0,0-.544-1.537,1.9,1.9,0,0,0-1.371-.52,2.2,2.2,0,0,0-1.655.662,3.007,3.007,0,0,0-.638,2.14v6.856h-3.44v-7.566a2.084,2.084,0,0,0-.544-1.566,1.939,1.939,0,0,0-1.407-.526,2.127,2.127,0,0,0-1.643.7,3.331,3.331,0,0,0-.638,2.282v6.679H4V-27.908H7.394v1.43a4.132,4.132,0,0,1,3.523-1.667,5.2,5.2,0,0,1,2.287.467,3.113,3.113,0,0,1,1.436,1.354A4.3,4.3,0,0,1,18.4-28.145Z" transform="translate(726.682 3163)" fill="#4e4e4e"/>
      <path id="Trazado_26807" data-name="Trazado 26807" d="M2162.122,1879.742h34.238" transform="translate(-1438.869 1273.111)" fill="none" stroke="#ff8f00" stroke-width="3"/>
      <path id="Trazado_26810" data-name="Trazado 26810" d="M9.7-27.607h3.606L8.128-15.455H5.172L.054-27.607H3.636L6.662-19.3Z" transform="translate(733.294 3187.79)" fill="#4e4e4e"/>
    </g>
  </g>
</svg>
