<svg xmlns="http://www.w3.org/2000/svg" xmlns:xlink="http://www.w3.org/1999/xlink" width="92" height="92" viewBox="0 0 92 92">
  <defs>
    <clipPath id="clip-path">
      <rect id="Rectángulo_46490" data-name="Rectángulo 46490" width="71.707" height="68.79" fill="none"/>
    </clipPath>
  </defs>
  <g id="Grupo_177980" data-name="Grupo 177980" transform="translate(-839 9497)">
    <circle id="Elipse_4902" data-name="Elipse 4902" cx="46" cy="46" r="46" transform="translate(839 -9497)" fill="#fff"/>
    <g id="Grupo_177979" data-name="Grupo 177979" transform="translate(849 -9485)">
      <g id="Grupo_177978" data-name="Grupo 177978" transform="translate(0 0)" clip-path="url(#clip-path)">
        <path id="Trazado_185916" data-name="Trazado 185916" d="M70.492,36.407c2.346,0,13.637,7.3,14.686,9.948s1.573,23.709,1.573,25.2S66.645,75.867,64.372,75.7,50.385,66.748,48.987,64.758s-1.4-21.719,0-23.212,19.057-5.14,21.5-5.14" transform="translate(-15.598 -11.846)" fill="#8ad6f7"/>
        <path id="Trazado_185917" data-name="Trazado 185917" d="M72.977,55.659a54.086,54.086,0,0,1,8.284-1.374c2.794-.407,5.566-.963,8.364-1.335.486-.065.905.591.368.828-4.842,2.14-11.4,4.1-16.791,3.457-.923-.109-1.185-1.278-.225-1.577" transform="translate(-23.549 -17.228)" fill="#abe0f9"/>
        <path id="Trazado_185918" data-name="Trazado 185918" d="M52.107,46.344a30.242,30.242,0,0,1,4.535,3.086A29.7,29.7,0,0,0,61.417,52.2c.485.231.145.988-.368.828-3.53-1.1-7.841-2.675-9.876-5.8-.378-.582.35-1.168.934-.886" transform="translate(-16.617 -15.056)" fill="#d1edfb"/>
        <path id="Trazado_185919" data-name="Trazado 185919" d="M69.409,61.72a.562.562,0,0,1,1.12,0c.33,5.4,1.143,11.2.5,16.581-.087.727-1.34,1.05-1.475.19-.857-5.435-.273-11.286-.14-16.77" transform="translate(-22.481 -19.916)" fill="#abe0f9"/>
        <path id="Trazado_185920" data-name="Trazado 185920" d="M52.989,66.338a13.2,13.2,0,0,1,.3-2.83.776.776,0,0,1,.422-.534c.085-.455.161-.912.219-1.371a.631.631,0,0,1,1.256,0A37.057,37.057,0,0,0,57.7,70.768c1.224,2.9,3.517,5.41,4.436,8.405a.686.686,0,0,1-.857.813,8.32,8.32,0,0,1-2.618-1.169c-2.518-.928-5.115-3.313-5.8-5.668a13.651,13.651,0,0,1,.126-6.81" transform="translate(-17.076 -19.858)" fill="#56caf4"/>
        <path id="Trazado_185921" data-name="Trazado 185921" d="M70.079,40.336c3.957-2.557,12.073-.689,14.489,3.216.242.391-.152.772-.571.7-2.118-.345-4.185-1.147-6.306-1.571-2.441-.487-4.882.142-7.316-.2-1.166-.161-1.077-1.649-.3-2.154" transform="translate(-22.613 -12.743)" fill="#56caf4"/>
        <path id="Trazado_185922" data-name="Trazado 185922" d="M98.537,58.914c-.029-.837,1.388-1.04,1.556-.2.4,2.006,1.28,4.361.8,6.4a.927.927,0,0,1-1.647.2c-.94-1.9-.64-4.346-.712-6.4" transform="translate(-32.062 -18.93)" fill="#abe0f9"/>
        <path id="Trazado_185923" data-name="Trazado 185923" d="M99.827,71.927a.823.823,0,0,1,1.639,0,2.156,2.156,0,0,1-.318,1.8.734.734,0,0,1-1,0,2.156,2.156,0,0,1-.317-1.8" transform="translate(-32.465 -23.16)" fill="#abe0f9"/>
        <path id="Trazado_185924" data-name="Trazado 185924" d="M58.755,42.458a2.583,2.583,0,0,1,.417-.346,2.855,2.855,0,0,1,.683-.2l.206-.047c-.03.007.285-.088.177-.045a2.151,2.151,0,0,1,.675-.192.715.715,0,0,1,.733.7,1.829,1.829,0,0,1-.7,1.178,1.706,1.706,0,0,1-1.784.424.954.954,0,0,1-.649-.615.846.846,0,0,1,.239-.857" transform="translate(-19.03 -13.546)" fill="#d1edfb"/>
        <path id="Trazado_185925" data-name="Trazado 185925" d="M63.58,62.273c.364-.807,1.565-.318,1.606.412.034.61.035,1.222.1,1.83a3.886,3.886,0,0,1,.007,1.8.973.973,0,0,1-1.575.395c-1.1-1.143-.72-3.138-.135-4.435" transform="translate(-20.503 -20.127)" fill="#abe0f9"/>
        <path id="Trazado_185926" data-name="Trazado 185926" d="M63.445,71.3a.675.675,0,0,1,.927,0,1.035,1.035,0,0,1,.273.66c.073.9-1.546.9-1.473,0a1.042,1.042,0,0,1,.273-.66" transform="translate(-20.554 -23.141)" fill="#abe0f9"/>
        <path id="Trazado_185927" data-name="Trazado 185927" d="M97.6,87.482c1.689-.649,4.635-.024,4.94-2.356.138-1.054-.743-3.454.369-4.158a.071.071,0,0,1,.1.039,16.733,16.733,0,0,1,.3,3.045,3.436,3.436,0,0,1-.467,2.7c-1,1.241-3.623,1.493-5.144,1.423a.352.352,0,0,1-.1-.692" transform="translate(-31.672 -26.342)" fill="#d1edfb"/>
        <path id="Trazado_185928" data-name="Trazado 185928" d="M49.7,78a40.266,40.266,0,0,0,8.5,7.324c1.438.9,2.892,1.8,4.365,2.637,2.1,1.2,3.953.452,6.169.741.17.022.1.243-.037.26-1.862.222-3.755.979-5.588.239a41.392,41.392,0,0,1-5.45-3,24.357,24.357,0,0,1-8.475-7.828A.321.321,0,0,1,49.7,78" transform="translate(-15.991 -25.349)" fill="#d1edfb"/>
        <path id="Trazado_185929" data-name="Trazado 185929" d="M74.829,36.433c2.111-.72,4.435-1.873,6.625-.88,1.462.662,3.471,2.015,3.92,3.571a.118.118,0,0,1-.2.109,13.874,13.874,0,0,0-3.938-2.619c-2.145-1-4.124.758-6.295.633a.414.414,0,0,1-.116-.814" transform="translate(-24.248 -11.443)" fill="#d1edfb"/>
        <path id="Trazado_185930" data-name="Trazado 185930" d="M22.554,43.256c2.346,0,13.637,7.3,14.686,9.948s1.573,23.709,1.573,25.2S18.707,82.716,16.434,82.55,2.447,73.6,1.049,71.607s-1.4-21.719,0-23.212,19.057-5.14,21.5-5.14" transform="translate(0 -14.075)" fill="#8ad6f7"/>
        <path id="Trazado_185931" data-name="Trazado 185931" d="M25.039,62.507a54.174,54.174,0,0,1,8.283-1.374c2.794-.407,5.566-.963,8.364-1.335.487-.065.905.591.369.828-4.842,2.14-11.4,4.1-16.791,3.457-.923-.109-1.185-1.278-.225-1.577" transform="translate(-7.951 -19.456)" fill="#abe0f9"/>
        <path id="Trazado_185932" data-name="Trazado 185932" d="M4.169,53.192A30.241,30.241,0,0,1,8.7,56.278a29.733,29.733,0,0,0,4.775,2.774c.484.231.144.988-.368.828-3.529-1.1-7.841-2.675-9.876-5.8-.378-.582.35-1.168.934-.886" transform="translate(-1.019 -17.284)" fill="#abe0f9"/>
        <path id="Trazado_185933" data-name="Trazado 185933" d="M21.471,68.569a.562.562,0,0,1,1.12,0c.33,5.4,1.143,11.2.5,16.581-.087.727-1.34,1.05-1.475.19-.857-5.435-.273-11.286-.14-16.77" transform="translate(-6.883 -22.144)" fill="#abe0f9"/>
        <path id="Trazado_185934" data-name="Trazado 185934" d="M2.459,67.633a13.2,13.2,0,0,1,.3-2.83.776.776,0,0,1,.422-.534c.085-.455.161-.912.219-1.371a.631.631,0,0,1,1.256,0,37.028,37.028,0,0,0,2.516,9.164c1.224,2.9,3.517,5.41,4.436,8.405a.685.685,0,0,1-.856.813,8.3,8.3,0,0,1-2.618-1.169c-2.518-.928-5.115-3.313-5.8-5.668a13.651,13.651,0,0,1,.126-6.81" transform="translate(-0.634 -20.279)" fill="#56caf4"/>
        <path id="Trazado_185935" data-name="Trazado 185935" d="M22.141,47.184C26.1,44.627,34.214,46.494,36.63,50.4c.242.391-.152.772-.571.7-2.118-.345-4.185-1.147-6.306-1.571-2.441-.487-4.882.142-7.316-.2-1.166-.161-1.077-1.649-.3-2.154" transform="translate(-7.015 -14.971)" fill="#56caf4"/>
        <path id="Trazado_185936" data-name="Trazado 185936" d="M50.6,65.762c-.029-.837,1.388-1.04,1.556-.2.4,2.006,1.28,4.361.8,6.4a.927.927,0,0,1-1.647.2c-.94-1.9-.64-4.346-.712-6.4" transform="translate(-16.464 -21.158)" fill="#abe0f9"/>
        <path id="Trazado_185937" data-name="Trazado 185937" d="M51.889,78.775a.823.823,0,0,1,1.639,0,2.156,2.156,0,0,1-.318,1.8.734.734,0,0,1-1,0,2.156,2.156,0,0,1-.317-1.8" transform="translate(-16.867 -25.388)" fill="#abe0f9"/>
        <path id="Trazado_185938" data-name="Trazado 185938" d="M10.817,49.306a2.582,2.582,0,0,1,.417-.346,2.856,2.856,0,0,1,.683-.2l.206-.047c-.03.007.285-.088.177-.045a2.156,2.156,0,0,1,.675-.192.715.715,0,0,1,.733.7,1.829,1.829,0,0,1-.7,1.178,1.706,1.706,0,0,1-1.784.424.954.954,0,0,1-.649-.615.847.847,0,0,1,.239-.857" transform="translate(-3.432 -15.774)" fill="#abe0f9"/>
        <path id="Trazado_185939" data-name="Trazado 185939" d="M15.642,69.121c.364-.808,1.565-.318,1.606.412.034.61.035,1.222.1,1.83a3.886,3.886,0,0,1,.008,1.8.973.973,0,0,1-1.576.395c-1.1-1.143-.72-3.138-.135-4.435" transform="translate(-4.904 -22.355)" fill="#abe0f9"/>
        <path id="Trazado_185940" data-name="Trazado 185940" d="M15.507,78.151a.675.675,0,0,1,.927,0,1.035,1.035,0,0,1,.273.66c.073.9-1.546.9-1.473,0a1.042,1.042,0,0,1,.273-.66" transform="translate(-4.956 -25.369)" fill="#abe0f9"/>
        <path id="Trazado_185941" data-name="Trazado 185941" d="M49.661,94.33c1.689-.649,4.635-.024,4.94-2.356.138-1.054-.743-3.454.369-4.158a.071.071,0,0,1,.1.039,16.738,16.738,0,0,1,.3,3.045,3.434,3.434,0,0,1-.467,2.7c-1,1.241-3.623,1.493-5.144,1.423a.352.352,0,0,1-.1-.692" transform="translate(-16.074 -28.571)" fill="#d1edfb"/>
        <path id="Trazado_185942" data-name="Trazado 185942" d="M1.759,84.85a40.266,40.266,0,0,0,8.5,7.324c1.438.9,2.892,1.8,4.365,2.637,2.1,1.2,3.953.452,6.169.741.17.022.1.243-.036.26-1.863.222-3.756.979-5.589.239a41.434,41.434,0,0,1-5.45-3,24.357,24.357,0,0,1-8.475-7.828.321.321,0,0,1,.511-.374" transform="translate(-0.393 -27.577)" fill="#d1edfb"/>
        <path id="Trazado_185943" data-name="Trazado 185943" d="M26.891,43.281c2.111-.72,4.435-1.873,6.625-.88,1.462.662,3.471,2.015,3.92,3.571a.118.118,0,0,1-.2.109A13.874,13.874,0,0,0,33.3,43.462c-2.145-1-4.124.758-6.295.633a.414.414,0,0,1-.116-.814" transform="translate(-8.649 -13.671)" fill="#d1edfb"/>
        <path id="Trazado_185944" data-name="Trazado 185944" d="M40.786,1.241c2.345,0,13.637,7.3,14.686,9.948s1.573,23.709,1.573,25.2S36.938,40.7,34.665,40.535,20.679,31.582,19.281,29.592s-1.4-21.719,0-23.212,19.057-5.14,21.5-5.14" transform="translate(-5.932 -0.404)" fill="#abe0f9"/>
        <path id="Trazado_185945" data-name="Trazado 185945" d="M43.27,20.492a54.092,54.092,0,0,1,8.283-1.374c2.794-.407,5.566-.963,8.364-1.335.487-.065.905.591.369.828-4.842,2.14-11.4,4.1-16.791,3.457-.923-.109-1.185-1.278-.225-1.577" transform="translate(-13.883 -5.785)" fill="#d1edfb"/>
        <path id="Trazado_185946" data-name="Trazado 185946" d="M22.4,11.177a30.241,30.241,0,0,1,4.535,3.086,29.7,29.7,0,0,0,4.775,2.774c.485.231.145.988-.368.828-3.53-1.1-7.841-2.675-9.876-5.8-.378-.582.35-1.168.934-.886" transform="translate(-6.951 -3.613)" fill="#d1edfb"/>
        <path id="Trazado_185947" data-name="Trazado 185947" d="M39.7,26.554a.562.562,0,0,1,1.12,0c.33,5.4,1.143,11.2.5,16.581-.087.726-1.34,1.05-1.475.19-.857-5.435-.273-11.286-.14-16.77" transform="translate(-12.815 -8.473)" fill="#d1edfb"/>
        <path id="Trazado_185948" data-name="Trazado 185948" d="M20.691,25.618a13.2,13.2,0,0,1,.3-2.83.776.776,0,0,1,.422-.534c.085-.455.161-.912.219-1.371a.631.631,0,0,1,1.256,0A37.057,37.057,0,0,0,25.4,30.048c1.224,2.9,3.517,5.41,4.436,8.405a.686.686,0,0,1-.857.813A8.32,8.32,0,0,1,26.365,38.1c-2.518-.928-5.115-3.313-5.8-5.668a13.651,13.651,0,0,1,.126-6.81" transform="translate(-6.567 -6.608)" fill="#8ad6f7"/>
        <path id="Trazado_185949" data-name="Trazado 185949" d="M45.988,49.619a4.426,4.426,0,0,1-.513-3.334,1.655,1.655,0,0,1,2.694-.675c3.254,3.621,10.647.389,15.082,1.032a.577.577,0,0,1,.271.975C60.9,50.012,51.1,53.106,47.094,50.659a1.127,1.127,0,0,1-1.106-1.04" transform="translate(-14.764 -14.697)" fill="#8ad6f7"/>
        <path id="Trazado_185950" data-name="Trazado 185950" d="M40.373,5.169c3.957-2.557,12.073-.689,14.489,3.216.242.391-.152.772-.571.7-2.118-.345-4.185-1.147-6.306-1.57-2.441-.488-4.882.141-7.316-.2-1.166-.162-1.077-1.65-.3-2.155" transform="translate(-12.947 -1.3)" fill="#8ad6f7"/>
        <path id="Trazado_185951" data-name="Trazado 185951" d="M68.83,23.747c-.029-.837,1.388-1.04,1.556-.2.4,2.006,1.28,4.361.8,6.4a.927.927,0,0,1-1.647.2c-.94-1.9-.64-4.347-.712-6.4" transform="translate(-22.396 -7.487)" fill="#d1edfb"/>
        <path id="Trazado_185952" data-name="Trazado 185952" d="M70.12,36.76a.823.823,0,0,1,1.639,0,2.156,2.156,0,0,1-.318,1.8.734.734,0,0,1-1,0,2.156,2.156,0,0,1-.317-1.8" transform="translate(-22.799 -11.717)" fill="#d1edfb"/>
        <path id="Trazado_185953" data-name="Trazado 185953" d="M29.048,7.291a2.582,2.582,0,0,1,.417-.346,2.855,2.855,0,0,1,.683-.2l.206-.047c-.03.007.285-.088.177-.044a2.139,2.139,0,0,1,.675-.193.715.715,0,0,1,.733.7,1.829,1.829,0,0,1-.7,1.178,1.706,1.706,0,0,1-1.784.424.954.954,0,0,1-.649-.615.847.847,0,0,1,.239-.857" transform="translate(-9.364 -2.103)" fill="#d1edfb"/>
        <path id="Trazado_185954" data-name="Trazado 185954" d="M33.873,27.106c.364-.807,1.565-.318,1.606.412.034.61.035,1.222.1,1.83a3.886,3.886,0,0,1,.008,1.8.973.973,0,0,1-1.576.395c-1.1-1.143-.72-3.138-.135-4.435" transform="translate(-10.836 -8.684)" fill="#d1edfb"/>
        <path id="Trazado_185955" data-name="Trazado 185955" d="M33.738,36.136a.675.675,0,0,1,.927,0,1.035,1.035,0,0,1,.273.66c.073.9-1.546.9-1.473,0a1.042,1.042,0,0,1,.273-.66" transform="translate(-10.888 -11.698)" fill="#d1edfb"/>
        <path id="Trazado_185956" data-name="Trazado 185956" d="M67.892,52.315c1.689-.649,4.635-.024,4.94-2.356.138-1.054-.743-3.454.369-4.158a.071.071,0,0,1,.1.039,16.732,16.732,0,0,1,.3,3.044,3.435,3.435,0,0,1-.467,2.7c-1,1.241-3.623,1.493-5.144,1.423a.352.352,0,0,1-.1-.692" transform="translate(-22.006 -14.9)" fill="#d1edfb"/>
        <path id="Trazado_185957" data-name="Trazado 185957" d="M19.99,42.835a40.245,40.245,0,0,0,8.5,7.324c1.438.9,2.892,1.8,4.365,2.637,2.1,1.2,3.954.452,6.17.741.169.022.1.243-.037.26-1.863.222-3.756.979-5.589.239a41.263,41.263,0,0,1-5.45-3,24.353,24.353,0,0,1-8.475-7.828.321.321,0,0,1,.511-.374" transform="translate(-6.325 -13.906)" fill="#d1edfb"/>
        <path id="Trazado_185958" data-name="Trazado 185958" d="M45.122,1.266c2.111-.72,4.435-1.873,6.625-.88,1.462.662,3.471,2.015,3.92,3.571a.118.118,0,0,1-.2.109,13.874,13.874,0,0,0-3.938-2.619c-2.145-1-4.124.758-6.295.633a.414.414,0,0,1-.116-.814" transform="translate(-14.581 0)" fill="#d1edfb"/>
        <path id="Trazado_185959" data-name="Trazado 185959" d="M83.31,77.9c-.888-.4-2.578-.5-3.067-.751-.47-.242-.729-.967-.949-1.676-.6-1.946-.3-4.882-1.518-6.55a1.244,1.244,0,0,0-2.246.293,20.027,20.027,0,0,0-.443,4.159,17.975,17.975,0,0,0,.108,4.7c.631,3.762,5.63,6.449,8.556,3.244.866-.948.9-2.815-.441-3.424" transform="translate(-24.399 -22.236)" fill="#56caf4"/>
        <path id="Trazado_185960" data-name="Trazado 185960" d="M40.644,88.208c-1.692.018-3.412-.089-5.1-.206-1.727-.12-3.509-.987-5.215-.6a1.247,1.247,0,0,0-.735,1.805c.851,1.859,3.552,2.565,5.38,3.005a8.906,8.906,0,0,0,6.49-.974,1.635,1.635,0,0,0-.82-3.027" transform="translate(-9.585 -28.406)" fill="#56caf4"/>
      </g>
    </g>
  </g>
</svg>
