<svg xmlns="http://www.w3.org/2000/svg" width="92" height="92" viewBox="0 0 92 92">
  <g id="Grupo_177969" data-name="Grupo 177969" transform="translate(-1227 -1751)">
    <circle id="Elipse_4897" data-name="Elipse 4897" cx="46" cy="46" r="46" transform="translate(1227 1751)" fill="#fff"/>
    <g id="Grupo_13687" data-name="Grupo 13687" transform="translate(229 -431.287)">
      <g id="Grupo_13654" data-name="Grupo 13654" transform="translate(1006 2208.287)">
        <path id="Trazado_26771" data-name="Trazado 26771" d="M339.124,901.722c-2.527,0-4.586-1.637-4.586-3.64v-2.335l0-.042a1.736,1.736,0,0,1,.335-1.11c-.321-.091-.771-.272-.974-.353a2.661,2.661,0,0,0-.374,1.522v2.317c0,2.565,2.513,4.656,5.6,4.656s5.6-2.09,5.6-4.656h-1.016C343.713,900.085,341.654,901.722,339.124,901.722Z" transform="translate(-332.259 -862.934)" fill="#f9a819"/>
        <path id="Trazado_26772" data-name="Trazado 26772" d="M329.052,780.434a16.553,16.553,0,0,0,5.2.719c3.406,0,5.134-.426,5.134-1.274s-1.728-1.27-5.134-1.27a17.509,17.509,0,0,0-4.855.6,19,19,0,0,0,2.244.573,20.323,20.323,0,0,1,2.611-.157,19.31,19.31,0,0,1,3.41.255,18.878,18.878,0,0,1-3.41.258,20.848,20.848,0,0,1-2.6-.154c-.227-.031-.447-.063-.66-.1a8.046,8.046,0,0,1-1.944-.551,2.857,2.857,0,0,1-.293-.15h0a1.357,1.357,0,0,1-.82-1.11c0-.524.422-.939,1.117-1.256a6.422,6.422,0,0,1-.677-.8,2.331,2.331,0,0,0-1.455,2.059,2.1,2.1,0,0,1,0,3.626,2.1,2.1,0,0,1,0,3.626,2.1,2.1,0,0,1,0,3.626,2.093,2.093,0,0,1,0,3.626,2.094,2.094,0,0,1,0,3.623,2.467,2.467,0,0,0,1.728,2.2,9.284,9.284,0,0,0,.988.359,18.047,18.047,0,0,0,4.621.534c3.406,0,5.134-.429,5.134-1.27,0-1.42-4.924-1.434-5.134-1.434-2.5,0-3.745.227-4.733.883.538.171,1.093.311,1.553.412a12.541,12.541,0,0,1,3.18-.279,14.8,14.8,0,0,1,3.56.387,18.213,18.213,0,0,1-3.56.286,19.793,19.793,0,0,1-2.349-.129c-.4-.042-.782-.1-1.138-.168a6.122,6.122,0,0,1-1.414-.391,3.8,3.8,0,0,1-.478-.213c-.59-.3-.942-.695-.942-1.173,0-.52.422-.939,1.117-1.26a16.466,16.466,0,0,0,5.2.722c3.406,0,5.134-.426,5.134-1.274s-1.728-1.274-5.134-1.274a17.122,17.122,0,0,0-4.935.632,18.82,18.82,0,0,0,2.164.565,20.241,20.241,0,0,1,2.771-.181,18.9,18.9,0,0,1,3.41.258,18.878,18.878,0,0,1-3.41.258,21.2,21.2,0,0,1-2.436-.136c-.283-.035-.562-.073-.824-.122a8.219,8.219,0,0,1-1.944-.551c-.077-.035-.147-.07-.22-.112-.562-.3-.9-.684-.9-1.148,0-.527.426-.946,1.124-1.26a16.413,16.413,0,0,0,5.2.722c3.406,0,5.134-.433,5.134-1.274s-1.728-1.274-5.134-1.274a17.077,17.077,0,0,0-4.963.639,18.317,18.317,0,0,0,2.143.562,20.26,20.26,0,0,1,2.82-.185,18.878,18.878,0,0,1,3.41.258,18.971,18.971,0,0,1-3.41.255,21.09,21.09,0,0,1-2.384-.126c-.3-.038-.6-.08-.876-.129a8.4,8.4,0,0,1-1.941-.552h0c-.066-.031-.129-.066-.192-.1-.579-.3-.925-.695-.925-1.162,0-.523.422-.942,1.117-1.263a16.464,16.464,0,0,0,5.2.723c3.406,0,5.134-.426,5.134-1.274s-1.728-1.274-5.134-1.274a17,17,0,0,0-4.984.649,17.68,17.68,0,0,0,2.122.562h0a19.713,19.713,0,0,1,2.858-.192,18.982,18.982,0,0,1,3.41.255,18.873,18.873,0,0,1-3.41.258,21.16,21.16,0,0,1-2.335-.126c-.318-.035-.628-.077-.925-.133a8.213,8.213,0,0,1-1.944-.551c-.059-.028-.119-.056-.175-.087-.59-.3-.942-.695-.942-1.173,0-.52.422-.942,1.117-1.26a16.465,16.465,0,0,0,5.2.722c3.406,0,5.134-.429,5.134-1.274s-1.728-1.274-5.134-1.274a17.1,17.1,0,0,0-4.914.625,20.034,20.034,0,0,0,2.181.569,20.213,20.213,0,0,1,2.733-.178,18.926,18.926,0,0,1,3.413.258,18.912,18.912,0,0,1-3.413.258,21.063,21.063,0,0,1-2.478-.143c-.269-.031-.534-.07-.782-.115a8.232,8.232,0,0,1-1.941-.551h0c-.08-.042-.157-.08-.234-.122-.555-.3-.883-.677-.883-1.141C327.936,781.171,328.358,780.752,329.052,780.434Z" transform="translate(-326.92 -767.232)" fill="#f9a819"/>
        <path id="Trazado_26773" data-name="Trazado 26773" d="M339.6,737.7a18.645,18.645,0,0,0-4.331.454,5.924,5.924,0,0,0,1.33.775,20.107,20.107,0,0,1,3-.213,18.222,18.222,0,0,1,3.56.286,14.8,14.8,0,0,1-3.56.387,10.818,10.818,0,0,1-3.486-.373,5.573,5.573,0,0,1-1.134-.785,1.8,1.8,0,0,1-.44-1.253l0-2.37c0-2.01,2.059-3.643,4.586-3.643s4.589,1.633,4.589,3.643h1.016c0-2.572-2.513-4.659-5.6-4.659s-5.6,2.087-5.6,4.659v2.314a2.7,2.7,0,0,0,.464,1.668,5.406,5.406,0,0,0,.708.81c1.016.754,2.258,1.009,4.9,1.009.209,0,5.134-.018,5.134-1.434C344.729,738.128,343,737.7,339.6,737.7Z" transform="translate(-332.259 -729.951)" fill="#f9a819"/>
      </g>
      <g id="Grupo_13686" data-name="Grupo 13686" transform="translate(1028.357 2210.638)">
        <g id="Grupo_13655" data-name="Grupo 13655" transform="translate(32.071 26.156)">
          <path id="Trazado_26774" data-name="Trazado 26774" d="M864.079,412.139a.359.359,0,0,1-.011.089.728.728,0,0,1-.019.09.886.886,0,0,1-.127.276.463.463,0,0,1-.052.071c-.019.022-.037.045-.06.067a1.027,1.027,0,0,1-.138.112c-.026.019-.052.033-.078.048a.944.944,0,0,1-.444.112H842.913a.932.932,0,0,1-.615-1.633.943.943,0,0,1,.615-.231h20.238a.834.834,0,0,1,.1,0,.692.692,0,0,1,.09.015l.089.022a.584.584,0,0,1,.086.034.551.551,0,0,1,.082.037c.026.015.052.03.078.048a1.129,1.129,0,0,1,.1.082l.056.056A.909.909,0,0,1,864.079,412.139Z" transform="translate(-841.981 -411.14)" fill="#545460"/>
        </g>
        <g id="Grupo_13656" data-name="Grupo 13656" transform="translate(31.869 19.386)">
          <path id="Trazado_26775" data-name="Trazado 26775" d="M842.163,393.087a.932.932,0,0,1-.241-1.833l19.549-5.238a.932.932,0,1,1,.482,1.8L842.4,393.055A.94.94,0,0,1,842.163,393.087Z" transform="translate(-841.231 -385.985)" fill="#545460"/>
        </g>
        <g id="Grupo_13657" data-name="Grupo 13657" transform="translate(31.278 13.077)">
          <path id="Trazado_26776" data-name="Trazado 26776" d="M839.969,374.528a.932.932,0,0,1-.467-1.739l17.527-10.119a.932.932,0,1,1,.932,1.614L840.434,374.4A.927.927,0,0,1,839.969,374.528Z" transform="translate(-839.036 -362.544)" fill="#545460"/>
        </g>
        <g id="Grupo_13658" data-name="Grupo 13658" transform="translate(30.338 7.66)">
          <path id="Trazado_26777" data-name="Trazado 26777" d="M836.475,358.594a.932.932,0,0,1-.659-1.591l14.311-14.311a.932.932,0,0,1,1.318,1.318l-14.311,14.311A.928.928,0,0,1,836.475,358.594Z" transform="translate(-835.543 -342.419)" fill="#545460"/>
        </g>
        <g id="Grupo_13659" data-name="Grupo 13659" transform="translate(29.113 3.504)">
          <path id="Trazado_26778" data-name="Trazado 26778" d="M831.921,346.367a.932.932,0,0,1-.806-1.4l10.119-17.527a.932.932,0,1,1,1.614.932L832.729,345.9A.931.931,0,0,1,831.921,346.367Z" transform="translate(-830.99 -326.976)" fill="#545460"/>
        </g>
        <g id="Grupo_13660" data-name="Grupo 13660" transform="translate(27.686 0.891)">
          <path id="Trazado_26779" data-name="Trazado 26779" d="M826.621,338.68a.933.933,0,0,1-.9-1.174l5.238-19.549a.932.932,0,1,1,1.8.483l-5.238,19.549A.933.933,0,0,1,826.621,338.68Z" transform="translate(-825.688 -317.267)" fill="#545460"/>
        </g>
        <g id="Grupo_13661" data-name="Grupo 13661" transform="translate(26.154 0)">
          <path id="Trazado_26780" data-name="Trazado 26780" d="M820.931,336.059a.932.932,0,0,1-.932-.932V314.889a.932.932,0,0,1,1.864,0v20.239A.932.932,0,0,1,820.931,336.059Z" transform="translate(-819.999 -313.957)" fill="#545460"/>
        </g>
        <g id="Grupo_13662" data-name="Grupo 13662" transform="translate(19.385 0.891)">
          <path id="Trazado_26781" data-name="Trazado 26781" d="M801.016,338.681a.933.933,0,0,1-.9-.691l-5.238-19.549a.932.932,0,1,1,1.8-.483l5.238,19.549a.933.933,0,0,1-.9,1.174Z" transform="translate(-794.847 -317.268)" fill="#545460"/>
        </g>
        <g id="Grupo_13663" data-name="Grupo 13663" transform="translate(13.077 3.504)">
          <path id="Trazado_26782" data-name="Trazado 26782" d="M782.462,346.367a.931.931,0,0,1-.808-.466l-10.119-17.527a.932.932,0,1,1,1.614-.932l10.119,17.527a.932.932,0,0,1-.806,1.4Z" transform="translate(-771.41 -326.976)" fill="#545460"/>
        </g>
        <g id="Grupo_13664" data-name="Grupo 13664" transform="translate(7.661 7.66)">
          <path id="Trazado_26783" data-name="Trazado 26783" d="M766.527,358.594a.928.928,0,0,1-.659-.273L751.557,344.01a.932.932,0,0,1,1.318-1.318L767.186,357a.932.932,0,0,1-.659,1.591Z" transform="translate(-751.284 -342.419)" fill="#545460"/>
        </g>
        <g id="Grupo_13665" data-name="Grupo 13665" transform="translate(3.504 13.077)">
          <path id="Trazado_26784" data-name="Trazado 26784" d="M754.3,374.528a.927.927,0,0,1-.465-.125l-17.527-10.119a.932.932,0,0,1,.932-1.614l17.527,10.119a.932.932,0,0,1-.467,1.739Z" transform="translate(-735.84 -362.544)" fill="#545460"/>
        </g>
        <g id="Grupo_13666" data-name="Grupo 13666" transform="translate(0.891 19.386)">
          <path id="Trazado_26785" data-name="Trazado 26785" d="M746.614,393.087a.933.933,0,0,1-.242-.032l-19.549-5.238a.932.932,0,1,1,.482-1.8l19.549,5.238a.932.932,0,0,1-.241,1.833Z" transform="translate(-726.132 -385.985)" fill="#545460"/>
        </g>
        <g id="Grupo_13667" data-name="Grupo 13667" transform="translate(0 26.155)">
          <path id="Trazado_26786" data-name="Trazado 26786" d="M743.991,413H723.753a.932.932,0,1,1,0-1.864h20.238a.932.932,0,1,1,0,1.864Z" transform="translate(-722.821 -411.136)" fill="#545460"/>
        </g>
        <g id="Grupo_13668" data-name="Grupo 13668" transform="translate(0 26.154)">
          <path id="Trazado_26787" data-name="Trazado 26787" d="M743.992,415.834a.931.931,0,0,1-.13-.009l-20.238-2.836a.932.932,0,1,1,.258-1.845l20.239,2.835a.932.932,0,0,1-.128,1.855Z" transform="translate(-722.821 -411.135)" fill="#545460"/>
        </g>
        <g id="Grupo_13669" data-name="Grupo 13669" transform="translate(0 28.99)">
          <path id="Trazado_26788" data-name="Trazado 26788" d="M743.991,423.535H723.753a.932.932,0,1,1,0-1.864h20.238a.932.932,0,1,1,0,1.864Z" transform="translate(-722.821 -421.671)" fill="#545460"/>
        </g>
        <g id="Grupo_13670" data-name="Grupo 13670" transform="translate(0 28.99)">
          <path id="Trazado_26789" data-name="Trazado 26789" d="M723.752,426.371a.932.932,0,0,1-.128-1.855l20.238-2.835a.932.932,0,0,1,.259,1.846l-20.239,2.835A.925.925,0,0,1,723.752,426.371Z" transform="translate(-722.821 -421.671)" fill="#545460"/>
        </g>
        <g id="Grupo_13671" data-name="Grupo 13671" transform="translate(0 31.826)">
          <path id="Trazado_26790" data-name="Trazado 26790" d="M743.991,434.071H723.753a.932.932,0,1,1,0-1.864h20.238a.932.932,0,1,1,0,1.864Z" transform="translate(-722.821 -432.207)" fill="#545460"/>
        </g>
        <g id="Grupo_13672" data-name="Grupo 13672" transform="translate(0 34.661)">
          <path id="Trazado_26791" data-name="Trazado 26791" d="M743.991,444.607H723.753a.932.932,0,1,1,0-1.864h20.238a.932.932,0,1,1,0,1.864Z" transform="translate(-722.821 -442.743)" fill="#545460"/>
        </g>
        <g id="Grupo_13673" data-name="Grupo 13673" transform="translate(0 31.825)">
          <path id="Trazado_26792" data-name="Trazado 26792" d="M723.752,436.905a.932.932,0,0,1-.128-1.855l20.238-2.836a.932.932,0,0,1,.259,1.846L723.882,436.9A.924.924,0,0,1,723.752,436.905Z" transform="translate(-722.821 -432.206)" fill="#545460"/>
        </g>
        <g id="Grupo_13674" data-name="Grupo 13674" transform="translate(31.87 24.624)">
          <path id="Trazado_26793" data-name="Trazado 26793" d="M842.368,406.795a1.106,1.106,0,0,0-.775.317.915.915,0,0,1-.354-.8.927.927,0,0,1,1-.857l17.945,1.342Z" transform="translate(-841.236 -405.45)" fill="#545460"/>
        </g>
        <g id="Grupo_13675" data-name="Grupo 13675" transform="translate(31.279 19.865)">
          <path id="Trazado_26794" data-name="Trazado 26794" d="M840.272,392.379a1.106,1.106,0,0,0-.667.507.915.915,0,0,1-.55-.683.927.927,0,0,1,.743-1.087l17.681-3.348Z" transform="translate(-839.039 -387.768)" fill="#545460"/>
        </g>
        <g id="Grupo_13676" data-name="Grupo 13676" transform="translate(30.338 14.253)">
          <path id="Trazado_26795" data-name="Trazado 26795" d="M836.857,375.823a1.107,1.107,0,0,0-.513.662.914.914,0,0,1-.707-.517.926.926,0,0,1,.437-1.242l16.212-7.811Z" transform="translate(-835.543 -366.916)" fill="#545460"/>
        </g>
        <g id="Grupo_13677" data-name="Grupo 13677" transform="translate(29.112 9.516)">
          <path id="Trazado_26796" data-name="Trazado 26796" d="M832.357,361.912a1.106,1.106,0,0,0-.324.772.915.915,0,0,1-.817-.316.927.927,0,0,1,.1-1.313l13.638-11.74Z" transform="translate(-830.989 -349.315)" fill="#545460"/>
        </g>
        <g id="Grupo_13678" data-name="Grupo 13678" transform="translate(27.686 5.976)">
          <path id="Trazado_26797" data-name="Trazado 26797" d="M827.08,351.59a1.105,1.105,0,0,0-.113.83.914.914,0,0,1-.871-.094.927.927,0,0,1-.243-1.294l10.135-14.87Z" transform="translate(-825.688 -336.162)" fill="#545460"/>
        </g>
        <g id="Grupo_13679" data-name="Grupo 13679" transform="translate(26.155 3.875)">
          <path id="Trazado_26798" data-name="Trazado 26798" d="M821.384,345.562a1.108,1.108,0,0,0,.106.831.915.915,0,0,1-.866.135.926.926,0,0,1-.57-1.187l5.941-16.987Z" transform="translate(-820 -328.354)" fill="#545460"/>
        </g>
        <g id="Grupo_13680" data-name="Grupo 13680" transform="translate(24.624 3.355)">
          <path id="Trazado_26799" data-name="Trazado 26799" d="M815.659,344.239a1.106,1.106,0,0,0,.317.775.916.916,0,0,1-.8.354.927.927,0,0,1-.857-1l1.342-17.945Z" transform="translate(-814.314 -326.424)" fill="#545460"/>
        </g>
        <g id="Grupo_13681" data-name="Grupo 13681" transform="translate(19.866 4.453)">
          <path id="Trazado_26800" data-name="Trazado 26800" d="M801.243,347.711a1.106,1.106,0,0,0,.507.667.916.916,0,0,1-.682.55.927.927,0,0,1-1.087-.743L796.632,330.5Z" transform="translate(-796.632 -330.503)" fill="#545460"/>
        </g>
        <g id="Grupo_13682" data-name="Grupo 13682" transform="translate(14.254 7.093)">
          <path id="Trazado_26801" data-name="Trazado 26801" d="M784.688,355.74a1.106,1.106,0,0,0,.662.513.915.915,0,0,1-.517.707.926.926,0,0,1-1.242-.437l-7.81-16.212Z" transform="translate(-775.781 -340.312)" fill="#545460"/>
        </g>
        <g id="Grupo_13683" data-name="Grupo 13683" transform="translate(9.516 11.096)">
          <path id="Trazado_26802" data-name="Trazado 26802" d="M770.776,367.781a1.106,1.106,0,0,0,.773.324.916.916,0,0,1-.317.817.927.927,0,0,1-1.313-.1l-11.74-13.638Z" transform="translate(-758.179 -355.184)" fill="#545460"/>
        </g>
        <g id="Grupo_13684" data-name="Grupo 13684" transform="translate(5.976 16.188)">
          <path id="Trazado_26803" data-name="Trazado 26803" d="M760.454,383.012a1.1,1.1,0,0,0,.83.113.916.916,0,0,1-.094.871.927.927,0,0,1-1.294.243l-14.87-10.135Z" transform="translate(-745.026 -374.105)" fill="#545460"/>
        </g>
        <path id="Trazado_26804" data-name="Trazado 26804" d="M754.427,400.4a1.107,1.107,0,0,0,.831-.105.915.915,0,0,1,.135.866.927.927,0,0,1-1.187.57l-16.987-5.941Z" transform="translate(-733.344 -373.763)" fill="#545460"/>
        <g id="Grupo_13685" data-name="Grupo 13685" transform="translate(31.278 19.385)">
          <path id="Trazado_26805" data-name="Trazado 26805" d="M839.966,391.657a.932.932,0,0,1-.172-1.848L859.934,386a.932.932,0,1,1,.347,1.831l-20.14,3.811A.917.917,0,0,1,839.966,391.657Z" transform="translate(-839.035 -385.982)" fill="#545460"/>
        </g>
      </g>
    </g>
  </g>
</svg>
