<svg xmlns="http://www.w3.org/2000/svg" width="194.4" height="212.454" viewBox="0 0 194.4 212.454">
  <g id="Grupo_178782" data-name="Grupo 178782" transform="translate(-284.5 -5724.325)">
    <g id="Grupo_12735" data-name="Grupo 12735" transform="translate(285 5724.323)">
      <g id="Grupo_12842" data-name="Grupo 12842" transform="translate(0 117.266)">
        <path id="Trazado_26265" data-name="Trazado 26265" d="M101.712,89.225c0-2.275-5.672-2.05-5.672-2.05H19.661s-5.462-.129-6.83,1.143a2.369,2.369,0,0,0,.144,3.8,10.6,10.6,0,0,1,5,8.872v68.4s-.788,12.468,10,12.468H89.981c10.783,0,10-12.468,10-12.468v-68.4s.131-7.47.047-8.649a1.48,1.48,0,0,1,1.011-1.517A1.806,1.806,0,0,0,101.712,89.225Z" transform="translate(-11.953 -87.169)" fill="#e4eef3" stroke="#bebebe" stroke-linecap="round" stroke-linejoin="round" stroke-width="1" opacity="0.5"/>
        <path id="Trazado_26266" data-name="Trazado 26266" d="M101.6,141.561H21.84v41.756s-.765,12.124,9.72,12.124h60.31c10.488,0,9.723-12.126,9.723-12.126Z" transform="translate(-14.694 -102.267)" fill="#455aa0" opacity="0.8"/>
        <g id="Grupo_12841" data-name="Grupo 12841" transform="translate(0 0)">
          <path id="Trazado_26267" data-name="Trazado 26267" d="M101.712,89.225c0-2.275-5.672-2.05-5.672-2.05H19.661s-5.462-.129-6.83,1.143a2.369,2.369,0,0,0,.144,3.8,10.6,10.6,0,0,1,5,8.872v68.4s-.788,12.468,10,12.468H89.981c10.783,0,10-12.468,10-12.468v-68.4s.131-7.47.047-8.649a1.48,1.48,0,0,1,1.011-1.517A1.806,1.806,0,0,0,101.712,89.225ZM89.6,89.61c-.337,1.348-3.37,1.572-3.37,1.572L44.785,92.643H72.526l.366,77.471c-1.123,5.841-7.611,5.98-7.611,5.98H29.848c-9.548,0-9.659-10.446-9.659-10.446V101.064c-.225-4.718-1.685-7.413-3.483-8.874S14.8,90.168,14.8,90.168c-.9-2.247,2.471-2.134,2.471-2.134H86.793c3.369,0,2.808,1.576,2.808,1.576Z" transform="translate(-11.953 -87.169)" fill="#c3ccd1" opacity="0.4" style="mix-blend-mode: multiply;isolation: isolate"/>
          <path id="Trazado_26268" data-name="Trazado 26268" d="M34.183,91.175H26.545s-3.594.337-2.359,2.134c0,0,4.046,3.369,4.493,6.739v66.043s.785,8.489,7.973,8.489l4.941-.168V100.273S40.586,92.523,34.183,91.175Z" transform="translate(-15.277 -88.281)" fill="#fff" opacity="0.7" style="mix-blend-mode: overlay;isolation: isolate"/>
          <path id="Trazado_26269" data-name="Trazado 26269" d="M21.224,165.98s.111,10.446,9.659,10.446H66.318s6.488-.139,7.611-5.98l-.368-77.469H45.82l41.445-1.461s3.034-.224,3.37-1.572c0,0,.561-1.572-2.808-1.572H18.3s-3.37-.113-2.471,2.134c0,0,.111.561,1.909,2.023S21,96.684,21.224,101.4Z" transform="translate(-12.987 -87.503)" fill="none"/>
          <path id="Trazado_26270" data-name="Trazado 26270" d="M104.368,89.225c0-2.275-5.672-2.05-5.672-2.05H90.613a1.244,1.244,0,0,0,.578.108c4.128.085,10.009-.144,10.362,1.769.589,3.2-7.329,2.948-7.329,2.948l.168,79.858a9.748,9.748,0,0,1-10.024,8.34H30.031a11.049,11.049,0,0,1-8.509-4.97l.014.254a8.946,8.946,0,0,0,9.091,6.378H92.635c10.783,0,10-12.468,10-12.468v-68.4s.131-7.47.047-8.649a1.48,1.48,0,0,1,1.011-1.517A1.806,1.806,0,0,0,104.368,89.225Z" transform="translate(-14.609 -87.169)" fill="#b5bdc2" opacity="0.5" style="mix-blend-mode: multiply;isolation: isolate"/>
        </g>
      </g>
      <g id="Grupo_12722" data-name="Grupo 12722" transform="translate(40.791 61.923) rotate(-30)">
        <g id="Grupo_12721" data-name="Grupo 12721" transform="translate(0 0)">
          <g id="Grupo_12718" data-name="Grupo 12718" transform="translate(0 0)">
            <path id="Trazado_26075" data-name="Trazado 26075" d="M114.192,74.733l-.795,1.373A15.58,15.58,0,0,1,92.1,81.763L0,28.326,16.435,0l92.1,53.439a15.58,15.58,0,0,1,5.657,21.295Z" transform="translate(7.547 7.842)" fill="#e3f3fa"/>
            <path id="Trazado_26076" data-name="Trazado 26076" d="M106.173,47.663a12.455,12.455,0,0,1-17,4.515L0,0,52.557.26l49.9,29.026a12.452,12.452,0,0,1,4.515,17Z" transform="translate(12.053 34.711)" fill="#455aa0"/>
            <path id="Trazado_26077" data-name="Trazado 26077" d="M25.9,4.542,5.632,39.467A3.02,3.02,0,0,1,.409,36.432L20.672,1.5A3.021,3.021,0,0,1,25.9,4.539Z" transform="translate(0)" fill="#bdd3de"/>
          </g>
          <g id="Grupo_12719" data-name="Grupo 12719" transform="translate(12.059 30.358)" opacity="0.56" style="mix-blend-mode: screen;isolation: isolate">
            <path id="Trazado_26078" data-name="Trazado 26078" d="M1.712,0,0,2.949l89.966,52.2a15.552,15.552,0,0,0,12.8,1.283,16.768,16.768,0,0,1-7.684-2.258Z" transform="translate(0 0)" fill="#e3f3fa"/>
          </g>
          <g id="Grupo_12720" data-name="Grupo 12720" transform="translate(14.959 16.845)">
            <path id="Trazado_26079" data-name="Trazado 26079" d="M1.566,5.859A3.141,3.141,0,1,0,.424,1.566,3.141,3.141,0,0,0,1.566,5.859Z" transform="translate(93.848 50.716)" fill="#f4f4f4"/>
            <path id="Trazado_26080" data-name="Trazado 26080" d="M.665,2.491a1.334,1.334,0,1,0-.621-.813,1.336,1.336,0,0,0,.621.813Z" transform="translate(87.855 57.984)" fill="#dedede"/>
            <path id="Trazado_26081" data-name="Trazado 26081" d="M.666,2.489A1.334,1.334,0,1,0,.18.665,1.334,1.334,0,0,0,.666,2.489Z" transform="translate(95.358 66.333)" fill="#dedede"/>
            <path id="Trazado_26082" data-name="Trazado 26082" d="M.664,2.489A1.334,1.334,0,1,0,.18.664,1.334,1.334,0,0,0,.664,2.489Z" transform="translate(76.734 52.442)" fill="#dedede"/>
            <path id="Trazado_26083" data-name="Trazado 26083" d="M.667,2.491a1.335,1.335,0,1,0-.622-.812,1.335,1.335,0,0,0,.622.812Z" transform="translate(84.038 47.838)" fill="#f4f4f4"/>
            <path id="Trazado_26084" data-name="Trazado 26084" d="M.666,2.489a1.334,1.334,0,1,0-.621-.811,1.334,1.334,0,0,0,.621.811Z" transform="translate(64.827 49.887)" fill="#dedede"/>
            <path id="Trazado_26085" data-name="Trazado 26085" d="M.666,2.491A1.336,1.336,0,1,0,.18.667,1.336,1.336,0,0,0,.666,2.491Z" transform="translate(65.944 35.794)" fill="#f4f4f4"/>
            <path id="Trazado_26086" data-name="Trazado 26086" d="M.666,2.491a1.334,1.334,0,1,0-.621-.813,1.336,1.336,0,0,0,.621.813Z" transform="translate(52.671 42.833)" fill="#dedede"/>
            <path id="Trazado_26087" data-name="Trazado 26087" d="M.665,2.489a1.334,1.334,0,1,0-.62-.812,1.334,1.334,0,0,0,.62.812Z" transform="translate(47.728 36.245)" fill="#dedede"/>
            <path id="Trazado_26088" data-name="Trazado 26088" d="M.666,2.491A1.336,1.336,0,1,0,.18.667,1.336,1.336,0,0,0,.666,2.491Z" transform="translate(44.323 25.771)" fill="#fcfcfc"/>
            <path id="Trazado_26089" data-name="Trazado 26089" d="M.664,2.489A1.334,1.334,0,1,0,.18.664,1.334,1.334,0,0,0,.664,2.489Z" transform="translate(32.701 28.434)" fill="#fcfcfc"/>
            <path id="Trazado_26090" data-name="Trazado 26090" d="M.664,2.489A1.334,1.334,0,1,0,.18.664,1.334,1.334,0,0,0,.664,2.489Z" transform="translate(33.779 11.942)" fill="#fff"/>
            <path id="Trazado_26091" data-name="Trazado 26091" d="M.664,2.491A1.336,1.336,0,1,0,.18.666,1.336,1.336,0,0,0,.664,2.491Z" transform="translate(27.858 19.051)" fill="#f4f4f4"/>
            <path id="Trazado_26092" data-name="Trazado 26092" d="M.666,2.489A1.334,1.334,0,1,0,.18.665,1.334,1.334,0,0,0,.666,2.489Z" transform="translate(12.534 19.464)" fill="#fcfcfc"/>
            <path id="Trazado_26093" data-name="Trazado 26093" d="M.667,2.492A1.335,1.335,0,1,0,.045,1.68a1.336,1.336,0,0,0,.622.812Z" transform="translate(17.559 4.477)" fill="#fff"/>
            <path id="Trazado_26094" data-name="Trazado 26094" d="M1.566,5.858A3.14,3.14,0,1,0,.425,1.565,3.14,3.14,0,0,0,1.566,5.858Z" transform="translate(78.39 54.819)" fill="#dedede"/>
            <path id="Trazado_26095" data-name="Trazado 26095" d="M1.565,5.858A3.141,3.141,0,1,0,.425,1.565,3.141,3.141,0,0,0,1.565,5.858Z" transform="translate(73.962 38.145)" fill="#f4f4f4"/>
            <path id="Trazado_26096" data-name="Trazado 26096" d="M1.566,5.859A3.141,3.141,0,1,0,.425,1.566,3.141,3.141,0,0,0,1.566,5.859Z" transform="translate(57.67 42.471)" fill="#dedede"/>
            <path id="Trazado_26097" data-name="Trazado 26097" d="M1.566,5.858A3.14,3.14,0,1,0,.425,1.565,3.14,3.14,0,0,0,1.566,5.858Z" transform="translate(53.965 28.519)" fill="#f4f4f4"/>
            <path id="Trazado_26098" data-name="Trazado 26098" d="M1.056,3.955a2.12,2.12,0,1,0-.769-2.9,2.12,2.12,0,0,0,.769,2.9Z" transform="translate(37.573 30.93)" fill="#d3d3d3"/>
            <path id="Trazado_26099" data-name="Trazado 26099" d="M1.565,5.858A3.141,3.141,0,1,0,.425,1.565,3.141,3.141,0,0,0,1.565,5.858Z" transform="translate(36.278 19.121)" fill="#f4f4f4"/>
            <path id="Trazado_26100" data-name="Trazado 26100" d="M1.565,5.858A3.141,3.141,0,1,0,.425,1.565,3.141,3.141,0,0,0,1.565,5.858Z" transform="translate(19.767 21.476)" fill="#d3d3d3"/>
            <path id="Trazado_26101" data-name="Trazado 26101" d="M1.566,5.859a3.141,3.141,0,1,0-1.141-4.3,3.141,3.141,0,0,0,1.141,4.3Z" transform="translate(20.189 10.757)" fill="#fff"/>
            <path id="Trazado_26102" data-name="Trazado 26102" d="M1.566,5.858A3.14,3.14,0,1,0,.425,1.565,3.14,3.14,0,0,0,1.566,5.858Z" transform="translate(0 9.236)" fill="#fff"/>
            <path id="Trazado_26103" data-name="Trazado 26103" d="M1.566,5.859A3.141,3.141,0,1,0,.425,1.566,3.141,3.141,0,0,0,1.566,5.859Z" transform="translate(5.367 0)" fill="#fff"/>
            <path id="Trazado_26104" data-name="Trazado 26104" d="M.664,2.489A1.334,1.334,0,1,0,.18.664,1.334,1.334,0,0,0,.664,2.489Z" transform="translate(10.595 13.161)" fill="#fff"/>
          </g>
          <path id="Trazado_26105" data-name="Trazado 26105" d="M10.132,1.506,0,18.971,110.8,83.26l.4-.687a15.58,15.58,0,0,0-5.657-21.295L13.443,7.839l1.915-3.3A3.021,3.021,0,1,0,10.133,1.5Z" transform="translate(10.541 0.002)" fill="#e6e7e8" style="mix-blend-mode: multiply;isolation: isolate"/>
        </g>
      </g>
      <path id="Trazado_26106" data-name="Trazado 26106" d="M372.924,2096H343.516" transform="translate(-248.396 -1980.902)" fill="none" stroke="#ff8f00" stroke-width="1"/>
      <ellipse id="Elipse_852" data-name="Elipse 852" cx="42.623" cy="7.224" rx="42.623" ry="7.224" transform="translate(3.722 107.874)" fill="#9f9f9f"/>
      <ellipse id="Elipse_853" data-name="Elipse 853" cx="2.89" cy="0.722" rx="2.89" ry="0.722" transform="translate(10.946 115.821)" fill="#fff"/>
      <ellipse id="Elipse_854" data-name="Elipse 854" cx="2.89" cy="0.722" rx="2.89" ry="0.722" transform="translate(19.615 115.821)" fill="#fff"/>
      <ellipse id="Elipse_855" data-name="Elipse 855" cx="2.89" cy="0.722" rx="2.89" ry="0.722" transform="translate(27.562 115.821)" fill="#fff"/>
      <ellipse id="Elipse_856" data-name="Elipse 856" cx="2.89" cy="0.722" rx="2.89" ry="0.722" transform="translate(36.231 115.821)" fill="#fff"/>
      <ellipse id="Elipse_857" data-name="Elipse 857" cx="2.89" cy="0.722" rx="2.89" ry="0.722" transform="translate(44.177 115.821)" fill="#fff"/>
      <ellipse id="Elipse_858" data-name="Elipse 858" cx="2.89" cy="0.722" rx="2.89" ry="0.722" transform="translate(52.846 115.821)" fill="#fff"/>
      <ellipse id="Elipse_859" data-name="Elipse 859" cx="2.89" cy="0.722" rx="2.89" ry="0.722" transform="translate(60.793 115.821)" fill="#fff"/>
      <ellipse id="Elipse_860" data-name="Elipse 860" cx="2.89" cy="0.722" rx="2.89" ry="0.722" transform="translate(69.462 115.821)" fill="#fff"/>
      <ellipse id="Elipse_861" data-name="Elipse 861" cx="2.89" cy="0.722" rx="2.89" ry="0.722" transform="translate(15.28 112.931)" fill="#fff"/>
      <ellipse id="Elipse_862" data-name="Elipse 862" cx="2.89" cy="0.722" rx="2.89" ry="0.722" transform="translate(23.949 112.931)" fill="#fff"/>
      <ellipse id="Elipse_863" data-name="Elipse 863" cx="2.89" cy="0.722" rx="2.89" ry="0.722" transform="translate(31.896 112.931)" fill="#fff"/>
      <ellipse id="Elipse_864" data-name="Elipse 864" cx="2.89" cy="0.722" rx="2.89" ry="0.722" transform="translate(40.565 112.931)" fill="#fff"/>
      <ellipse id="Elipse_865" data-name="Elipse 865" cx="2.89" cy="0.722" rx="2.89" ry="0.722" transform="translate(48.512 112.931)" fill="#fff"/>
      <ellipse id="Elipse_866" data-name="Elipse 866" cx="2.89" cy="0.722" rx="2.89" ry="0.722" transform="translate(57.181 112.931)" fill="#fff"/>
      <ellipse id="Elipse_867" data-name="Elipse 867" cx="2.89" cy="0.722" rx="2.89" ry="0.722" transform="translate(65.128 112.931)" fill="#fff"/>
      <ellipse id="Elipse_868" data-name="Elipse 868" cx="2.89" cy="0.722" rx="2.89" ry="0.722" transform="translate(73.797 112.931)" fill="#fff"/>
      <ellipse id="Elipse_869" data-name="Elipse 869" cx="2.89" cy="0.722" rx="2.89" ry="0.722" transform="translate(19.615 110.041)" fill="#fff"/>
      <ellipse id="Elipse_870" data-name="Elipse 870" cx="2.89" cy="0.722" rx="2.89" ry="0.722" transform="translate(28.284 110.041)" fill="#fff"/>
      <ellipse id="Elipse_871" data-name="Elipse 871" cx="2.89" cy="0.722" rx="2.89" ry="0.722" transform="translate(36.231 110.041)" fill="#fff"/>
      <ellipse id="Elipse_872" data-name="Elipse 872" cx="2.89" cy="0.722" rx="2.89" ry="0.722" transform="translate(44.9 110.041)" fill="#fff"/>
      <ellipse id="Elipse_873" data-name="Elipse 873" cx="2.89" cy="0.722" rx="2.89" ry="0.722" transform="translate(52.846 110.041)" fill="#fff"/>
      <ellipse id="Elipse_874" data-name="Elipse 874" cx="2.89" cy="0.722" rx="2.89" ry="0.722" transform="translate(61.516 110.041)" fill="#fff"/>
      <ellipse id="Elipse_875" data-name="Elipse 875" cx="2.89" cy="0.722" rx="2.89" ry="0.722" transform="translate(69.462 110.041)" fill="#fff"/>
      <ellipse id="Elipse_876" data-name="Elipse 876" cx="2.89" cy="0.722" rx="2.89" ry="0.722" transform="translate(78.131 115.821)" fill="#fff"/>
      <ellipse id="Elipse_877" data-name="Elipse 877" cx="2.89" cy="0.722" rx="2.89" ry="0.722" transform="translate(7.334 112.931)" fill="#fff"/>
      <ellipse id="Elipse_878" data-name="Elipse 878" cx="2.89" cy="0.722" rx="2.89" ry="0.722" transform="translate(31.896 118.71)" fill="#fff"/>
      <ellipse id="Elipse_879" data-name="Elipse 879" cx="2.89" cy="0.722" rx="2.89" ry="0.722" transform="translate(40.565 118.71)" fill="#fff"/>
      <ellipse id="Elipse_880" data-name="Elipse 880" cx="2.89" cy="0.722" rx="2.89" ry="0.722" transform="translate(48.512 118.71)" fill="#fff"/>
      <ellipse id="Elipse_881" data-name="Elipse 881" cx="2.89" cy="0.722" rx="2.89" ry="0.722" transform="translate(23.227 118.71)" fill="#fff"/>
      <ellipse id="Elipse_882" data-name="Elipse 882" cx="2.89" cy="0.722" rx="2.89" ry="0.722" transform="translate(57.181 118.71)" fill="#fff"/>
      <ellipse id="Elipse_883" data-name="Elipse 883" cx="2.89" cy="0.722" rx="2.89" ry="0.722" transform="translate(65.85 118.71)" fill="#fff"/>
    </g>
    <path id="Trazado_36678" data-name="Trazado 36678" d="M9.174-17.639v2.328H6.15V-4.9H3.531V-15.312H.488V-17.64ZM18.619-4.9,17.69-7.525H12.337L11.415-4.9H8.707L13.4-17.639h3.236L21.326-4.9Zm-5.5-4.84h3.8l-1.9-5.406ZM37.846-4.9H35.209l-.838-9.6L31.142-4.9H29.431L26.2-14.5l-.847,9.6H22.711l1.067-12.743h3.775l2.716,8,2.751-8h3.775Zm2.767,0V-17.639h2.646V-4.9Zm8.254-2.337h6.12V-4.9H45.7v-2.09l6.041-8.325H45.71v-2.328h9.163v2.09Z" transform="translate(415.838 5849.375)" fill="#ff8f00"/>
  </g>
</svg>
