<svg xmlns="http://www.w3.org/2000/svg" xmlns:xlink="http://www.w3.org/1999/xlink" width="481" height="199" viewBox="0 0 481 199"><defs><clipPath id="a"><rect width="40.409" height="40.409" fill="#f6f6f6"/></clipPath><clipPath id="b"><rect width="402.594" height="183" fill="none"/></clipPath><clipPath id="c"><rect width="10.969" height="10.97" fill="none"/></clipPath><clipPath id="d"><rect width="8.576" height="8.576" fill="none"/></clipPath><clipPath id="e"><rect width="4.026" height="4.026" fill="none"/></clipPath><clipPath id="f"><rect width="3.167" height="3.167" fill="none"/></clipPath><clipPath id="g"><rect width="6.486" height="6.486" fill="none"/></clipPath><clipPath id="h"><rect width="5.41" height="5.41" fill="none"/></clipPath><clipPath id="i"><rect width="1.874" height="1.874" fill="none"/></clipPath><clipPath id="j"><rect width="3.466" height="3.467" fill="none"/></clipPath><clipPath id="k"><rect width="2.414" height="2.414" fill="none"/></clipPath><clipPath id="l"><rect width="2.634" height="2.634" fill="none"/></clipPath><clipPath id="m"><rect width="1.309" height="1.308" fill="none"/></clipPath><clipPath id="n"><rect width="1.362" height="1.362" fill="none"/></clipPath><clipPath id="o"><rect width="1.3" height="1.3" fill="none"/></clipPath><clipPath id="p"><rect width="5.012" height="5.013" fill="none"/></clipPath><clipPath id="q"><rect width="6.788" height="6.788" fill="none"/></clipPath><clipPath id="r"><rect width="2.036" height="2.037" fill="none"/></clipPath><clipPath id="s"><rect width="3.133" height="3.133" fill="none"/></clipPath><clipPath id="t"><rect width="6.588" height="6.588" fill="none"/></clipPath><clipPath id="z"><rect width="2.972" height="2.972" fill="none"/></clipPath><clipPath id="aa"><rect width="4.024" height="4.024" fill="none"/></clipPath><clipPath id="ab"><rect width="1.207" height="1.207" fill="none"/></clipPath><clipPath id="ac"><rect width="1.857" height="1.857" fill="none"/></clipPath><clipPath id="ad"><rect width="29.5" height="29.5" fill="#f9a829"/></clipPath></defs><g transform="translate(-205 -672)"><g transform="translate(0 -6)"><g transform="translate(205 683.443)"><g transform="translate(0 -5.444)"><path d="M0,0H455.5a25,25,0,0,1,25,25V198.684a0,0,0,0,1,0,0H25a25,25,0,0,1-25-25V0A0,0,0,0,1,0,0Z" transform="translate(0 0)" fill="#f6f6f6"/><g transform="translate(431.091 5.444)"><g clip-path="url(#a)"><path d="M39.866,20.814c-14.534,1.723-17.329,4.518-19.052,19.052a.614.614,0,0,1-1.22,0C17.872,25.332,15.076,22.537.542,20.814a.614.614,0,0,1,0-1.219C15.076,17.872,17.872,15.077,19.594.542a.614.614,0,0,1,1.22,0c1.723,14.535,4.518,17.33,19.052,19.053a.614.614,0,0,1,0,1.219" transform="translate(0 0)" fill="#f6f6f6"/></g></g></g></g><rect width="463" height="15" transform="translate(223 862)" fill="#f6dfb8"/><g transform="translate(243.953 691)"><g clip-path="url(#b)"><path d="M359.956,104.544a17.843,17.843,0,1,0-17.843,17.843,17.843,17.843,0,0,0,17.843-17.843" transform="translate(-143.171 -38.28)" fill="#fff"/><path d="M51.714,117.509l-1.675-.035,1.076-51.229c.088-4.506,1.293-7.468,3.58-8.8,3.175-1.852,7.112.235,7.278.324l.04.023L110.7,87.632a5.715,5.715,0,0,0,8.7-4.873V19.516a9.029,9.029,0,0,1,9.03-9.03h83.23l3.517-.025h.006a3.468,3.468,0,0,0,2.226-.794,8.209,8.209,0,0,1-1.18-2.208,7.04,7.04,0,0,1,.063-5.054A3.834,3.834,0,0,1,217.366.983a3.238,3.238,0,0,1,1.6-.753,1.95,1.95,0,0,1,1.844.743,2.8,2.8,0,0,1,.506,1.377,11.074,11.074,0,0,1-.24,4.177,9.315,9.315,0,0,1-1.4,3.131,5.864,5.864,0,0,0,.564.425,7.425,7.425,0,0,0,3.885,1.18,9.132,9.132,0,0,0,4.111-.848,7.857,7.857,0,0,0,2.263-1.607,8.813,8.813,0,0,1-.991-1.85,5.9,5.9,0,0,1-.212-4.1A4.005,4.005,0,0,1,231.786.518a1.944,1.944,0,0,1,1.851.555c1.182,1.19.686,3.848.575,4.368a9.043,9.043,0,0,1-1.528,3.38,8.8,8.8,0,0,0,1.569,1.271,10.048,10.048,0,0,0,4.868,1.545,9.513,9.513,0,0,0,3.029-.33,7.218,7.218,0,0,0,2.624-1.329l0,0a9.077,9.077,0,0,1-1.9-3.033,4.947,4.947,0,0,1,.343-4.222,2.523,2.523,0,0,1,2.041-1.169c1.675-.061,2.867,1.482,3.178,3.037a6.451,6.451,0,0,1-.4,3.709,7.506,7.506,0,0,1-.869,1.561,7.391,7.391,0,0,0,8.425.286q.258-.16.5-.338A6.5,6.5,0,0,1,255,7.543a7.015,7.015,0,0,1-.187-2.618c.1-.808.652-3.068,2.039-3.811a2.011,2.011,0,0,1,1.926.006A3.641,3.641,0,0,1,260.6,4.236a6.988,6.988,0,0,1-.527,3.3,8.954,8.954,0,0,1-1.54,2.324,6.94,6.94,0,0,0,2.167,1.068,9.019,9.019,0,0,0,4.045.229,8.576,8.576,0,0,0,4.009-1.735,7.234,7.234,0,0,1-1.67-4.743,6.255,6.255,0,0,1,.4-1.939A3.133,3.133,0,0,1,268.9.948a2.013,2.013,0,0,1,2.164.283,3.474,3.474,0,0,1,1.2,1.91,7.569,7.569,0,0,1,.29,1.949,6.93,6.93,0,0,1-1.093,3.818q-.156.24-.33.468a7.869,7.869,0,0,0,1.792.994,10.7,10.7,0,0,0,3.52.723,10.732,10.732,0,0,0,3.388-.389,7.767,7.767,0,0,0,2.037-.913,9.364,9.364,0,0,1-1.053-1.084,5.942,5.942,0,0,1-1.494-5.265A3.857,3.857,0,0,1,281.661.934a2.987,2.987,0,0,1,2.717.231,3.729,3.729,0,0,1,1.311,1.61,6.076,6.076,0,0,1,.279,4.121,7.377,7.377,0,0,1-1.411,2.732,9.607,9.607,0,0,0,3.822,1.088,9.228,9.228,0,0,0,5.642-1.351,10.48,10.48,0,0,1-1.352-1.685c-1.175-1.826-1.664-4.467.042-5.951a3.075,3.075,0,0,1,3.026-.531,4.046,4.046,0,0,1,2.7,2.8,5.076,5.076,0,0,1-.371,3.258,7.616,7.616,0,0,1-1.431,2.108,9.509,9.509,0,0,0,2.043,1.061,7.55,7.55,0,0,0,5.615,0A5.676,5.676,0,0,0,305.972,9.3,6.758,6.758,0,0,1,304.866,7.6a8.691,8.691,0,0,1-.42-3.317A5.683,5.683,0,0,1,305.6.613,2.171,2.171,0,0,1,308.207.27a2.428,2.428,0,0,1,1.246,1.478,6.064,6.064,0,0,1,.305,1.867,11.362,11.362,0,0,1-.393,3.239,8.717,8.717,0,0,1-1.077,2.271q.145.1.3.192a6.5,6.5,0,0,0,3.227.939,7.38,7.38,0,0,0,2.971-.593,8.02,8.02,0,0,1-.92-4.483,6.131,6.131,0,0,1,1.1-3.093A3.379,3.379,0,0,1,317.921.552a3.227,3.227,0,0,1,2.332,1.286,4.087,4.087,0,0,1,.871,2.462,6.369,6.369,0,0,1-1.938,4.268,11.109,11.109,0,0,1-1.826,1.582,3.781,3.781,0,0,0,2.208.461h9.124c2.045,0,4.116-.031,6.118-.062s4.087-.062,6.145-.062h55.122a9.03,9.03,0,0,1,9.03,9.03V40.682h-1.675V19.516a7.354,7.354,0,0,0-7.355-7.354H340.955c-2.046,0-4.117.031-6.12.062s-4.086.062-6.143.062h-9.131a4.813,4.813,0,0,1-3.746-1.248,9.142,9.142,0,0,1-4.029.893,8.091,8.091,0,0,1-4.072-1.182q-.255-.155-.494-.326a7.372,7.372,0,0,1-2.266,1.544,9.214,9.214,0,0,1-6.859.032,11.181,11.181,0,0,1-2.763-1.5,10.822,10.822,0,0,1-7.074,1.887,11.2,11.2,0,0,1-4.963-1.551,10.69,10.69,0,0,1-6.921,1.932,12.393,12.393,0,0,1-4.077-.842,9.453,9.453,0,0,1-2.329-1.327,10.188,10.188,0,0,1-4.944,2.218,10.7,10.7,0,0,1-4.8-.277,8.515,8.515,0,0,1-2.939-1.524,9.428,9.428,0,0,1-6.006,1.98,9.347,9.347,0,0,1-5.237-1.891q-.1.089-.207.175a9.953,9.953,0,0,1-6.789,2.032,11.75,11.75,0,0,1-5.692-1.807,10.526,10.526,0,0,1-1.763-1.408,9.517,9.517,0,0,1-2.64,1.84,10.815,10.815,0,0,1-4.869,1,9.1,9.1,0,0,1-4.758-1.458,7.528,7.528,0,0,1-.769-.584,5.158,5.158,0,0,1-3.37,1.242l-3.511.025H128.429a7.354,7.354,0,0,0-7.354,7.354V82.759a7.416,7.416,0,0,1-7.4,7.4h-.012a7.37,7.37,0,0,1-3.837-1.1L61.161,59.233c-.249-.128-3.355-1.671-5.627-.339A4.612,4.612,0,0,0,53.7,61.118a13.827,13.827,0,0,0-.912,5.161ZM317.731,2.222c-1.288,0-2.1,1.766-2.2,3.08a6.328,6.328,0,0,0,.726,3.57,9.42,9.42,0,0,0,1.7-1.443,4.9,4.9,0,0,0,1.491-3.12,2.38,2.38,0,0,0-.511-1.432,1.614,1.614,0,0,0-1.12-.651Zm-72.378,1h-.029a.836.836,0,0,0-.709.426,3.331,3.331,0,0,0-.166,2.706,7.422,7.422,0,0,0,1.464,2.376,5.807,5.807,0,0,0,.579-1.071,4.783,4.783,0,0,0,.306-2.746C246.634,4.1,246.037,3.226,245.352,3.226Zm37.484-.837a1.685,1.685,0,0,0-.583.113,2.215,2.215,0,0,0-1.321,1.388c-.435,1.574.675,3.149,1.172,3.753a7.76,7.76,0,0,0,1.05,1.049,5.68,5.68,0,0,0,1.195-2.233,4.342,4.342,0,0,0-.183-2.982,2.1,2.1,0,0,0-.705-.909A1.127,1.127,0,0,0,282.836,2.388Zm-25.045.16a.3.3,0,0,0-.15.042,4.079,4.079,0,0,0-1.167,2.534,5.147,5.147,0,0,0,.873,3.552,7.287,7.287,0,0,0,1.2-1.828,5.293,5.293,0,0,0,.384-2.464,2.1,2.1,0,0,0-.912-1.768A.519.519,0,0,0,257.791,2.548Zm-38.525-.663a.6.6,0,0,0-.078.006,2.061,2.061,0,0,0-1.351,1.162,5.371,5.371,0,0,0-.028,3.851,6.553,6.553,0,0,0,.725,1.456,7.921,7.921,0,0,0,.92-2.24,9.519,9.519,0,0,0,.206-3.54A1.4,1.4,0,0,0,219.488,2,.244.244,0,0,0,219.266,1.886Zm75.376.812a1.236,1.236,0,0,0-.832.3,1.805,1.805,0,0,0-.52,1.606,4.972,4.972,0,0,0,.787,2.173,8.845,8.845,0,0,0,1.256,1.53,4.452,4.452,0,0,0,1.474-3.912,2.407,2.407,0,0,0-1.582-1.6A1.945,1.945,0,0,0,294.643,2.7Zm-24.914-.268a.164.164,0,0,0-.08.019,1.7,1.7,0,0,0-.595.894,4.583,4.583,0,0,0-.294,1.379A5.54,5.54,0,0,0,269.915,8.2q.071-.1.137-.2a5.236,5.236,0,0,0,.824-2.885,3.754,3.754,0,0,0-.791-2.522A.662.662,0,0,0,269.728,2.429Zm37.343-.755a.37.37,0,0,0-.29.128,4.134,4.134,0,0,0-.66,2.537,7.5,7.5,0,0,0,.274,2.571,5.03,5.03,0,0,0,.646,1.059,7.085,7.085,0,0,0,.723-1.607,9.794,9.794,0,0,0,.32-2.7c-.032-1.2-.329-1.754-.573-1.866A1.087,1.087,0,0,0,307.071,1.674Zm-74.838.469a.4.4,0,0,0-.086.011,2.437,2.437,0,0,0-1.27,1.277,4.237,4.237,0,0,0,.2,2.92,7.055,7.055,0,0,0,.529,1.075,7.239,7.239,0,0,0,.97-2.336,4.3,4.3,0,0,0-.125-2.837A.294.294,0,0,0,232.234,2.143Z" transform="translate(-22.093 0.001)" fill="#f37577"/><path d="M8.287,270.208h44.47a6.782,6.782,0,0,0,6.473-8.8L45.473,217.38h-29.9L1.813,261.4a6.782,6.782,0,0,0,6.473,8.8" transform="translate(-0.662 -95.977)" fill="#fbcfcf"/><path d="M36.981,92.16h0a13.8,13.8,0,0,1,7.444,2.176l20.238,12.947a1.917,1.917,0,0,1,.581,2.644L60.1,117.973a1.914,1.914,0,0,1-2.645.581L37.217,105.607a.4.4,0,0,0-.226-.079.476.476,0,0,0-.22.065.377.377,0,0,0-.223.379v26.455l22.819,73.441a7.533,7.533,0,0,1,.232,3.615,7.669,7.669,0,0,1-3.984,5.419,7.533,7.533,0,0,1-3.521.857H7.624A7.534,7.534,0,0,1,4.1,214.9a7.669,7.669,0,0,1-3.984-5.419,7.533,7.533,0,0,1,.233-3.616l22.818-73.02v-22.6a30.179,30.179,0,0,1,1.114-9.13,11.792,11.792,0,0,1,3.408-5.37A13.884,13.884,0,0,1,36.981,92.16Zm21.5,25.021a.239.239,0,0,0,.2-.11l5.146-8.045a.239.239,0,0,0-.073-.33L43.524,95.748a12.129,12.129,0,0,0-6.542-1.913h0a12.21,12.21,0,0,0-8.17,3.154,10.183,10.183,0,0,0-2.934,4.641,28.607,28.607,0,0,0-1.032,8.614v22.731a.838.838,0,0,1-.038.25L1.951,206.367a5.944,5.944,0,0,0,5.673,7.717h44.47a5.944,5.944,0,0,0,5.673-7.717L34.921,132.838a.836.836,0,0,1-.048-.281V105.972a2.056,2.056,0,0,1,1.1-1.85l0,0a2.128,2.128,0,0,1,1.018-.267,2.067,2.067,0,0,1,1.13.344l20.237,12.946A.234.234,0,0,0,58.486,117.181Z" transform="translate(0.001 -40.69)" fill="#363d44"/><g transform="translate(14.969 124.7)" style="mix-blend-mode:soft-light;isolation:isolate"><g clip-path="url(#c)"><path d="M37.773,228.768a5.485,5.485,0,1,0-5.485,5.485,5.485,5.485,0,0,0,5.485-5.485" transform="translate(-26.803 -223.283)" fill="#020202"/></g></g><g transform="translate(21.65 139.619)" style="mix-blend-mode:soft-light;isolation:isolate"><g clip-path="url(#d)"><path d="M47.343,254.285a4.288,4.288,0,1,0-4.288,4.288,4.288,4.288,0,0,0,4.288-4.288" transform="translate(-38.766 -249.997)" fill="#020202"/></g></g><g transform="translate(30.761 131.898)" style="mix-blend-mode:soft-light;isolation:isolate"><g clip-path="url(#e)"><path d="M59.106,238.185a2.013,2.013,0,1,0-2.013,2.013,2.013,2.013,0,0,0,2.013-2.013" transform="translate(-55.08 -236.172)" fill="#020202"/></g></g><g transform="translate(12.167 148.195)" style="mix-blend-mode:soft-light;isolation:isolate"><g clip-path="url(#f)"><path d="M24.954,266.937a1.584,1.584,0,1,0-1.584,1.584,1.584,1.584,0,0,0,1.584-1.584" transform="translate(-21.787 -265.353)" fill="#020202"/></g></g><g transform="translate(17.211 153.673)" style="mix-blend-mode:soft-light;isolation:isolate"><g clip-path="url(#g)"><path d="M37.3,278.405a3.243,3.243,0,1,0-3.243,3.243,3.243,3.243,0,0,0,3.243-3.243" transform="translate(-30.817 -275.162)" fill="#020202"/></g></g><g transform="translate(30.069 154.211)" style="mix-blend-mode:soft-light;isolation:isolate"><g clip-path="url(#h)"><path d="M59.25,278.831a2.7,2.7,0,1,0-2.7,2.7,2.7,2.7,0,0,0,2.7-2.7" transform="translate(-53.841 -276.126)" fill="#020202"/></g></g><g transform="translate(38.544 147.258)" style="mix-blend-mode:soft-light;isolation:isolate"><g clip-path="url(#i)"><path d="M70.89,264.613a.937.937,0,1,0-.937.937.937.937,0,0,0,.937-.937" transform="translate(-69.016 -263.676)" fill="#020202"/></g></g><path d="M675.73,178.919V142.77h-7.614v36.149a15.6,15.6,0,1,0,7.614,0" transform="translate(-289.778 -63.036)" fill="#ef7575"/><path d="M671.26,182.8a16.44,16.44,0,0,1-4.645-32.208V80.909a.838.838,0,0,1,.838-.838h7.614a.838.838,0,0,1,.838.838V150.6A16.438,16.438,0,0,1,671.26,182.8ZM668.291,81.746v69.49a.838.838,0,0,1-.634.813,14.659,14.659,0,0,0-4.448,1.943,14.761,14.761,0,1,0,16.1,0,14.658,14.658,0,0,0-4.447-1.943.838.838,0,0,1-.634-.813V81.746Z" transform="translate(-289.116 -35.353)" fill="#363d44"/><path d="M685.28,73.487h-9.255V68.759a1.4,1.4,0,0,1,1.4-1.4h6.453a1.4,1.4,0,0,1,1.4,1.4Z" transform="translate(-298.477 -29.74)" fill="#363d44"/><g transform="translate(373.493 130.196)" style="mix-blend-mode:soft-light;isolation:isolate"><g clip-path="url(#j)"><path d="M672.231,234.858a1.734,1.734,0,1,0-1.734,1.734,1.734,1.734,0,0,0,1.734-1.734" transform="translate(-668.765 -233.124)" fill="#fff"/></g></g><g transform="translate(379.73 133.198)" style="mix-blend-mode:soft-light;isolation:isolate"><g clip-path="url(#k)"><path d="M682.347,239.708a1.207,1.207,0,1,0-1.207,1.207,1.207,1.207,0,0,0,1.207-1.207" transform="translate(-679.933 -238.501)" fill="#fff"/></g></g><g transform="translate(375.643 136.524)" style="mix-blend-mode:soft-light;isolation:isolate"><g clip-path="url(#l)"><path d="M675.248,245.773a1.317,1.317,0,1,0-1.317,1.317,1.317,1.317,0,0,0,1.317-1.317" transform="translate(-672.614 -244.456)" fill="#fff"/></g></g><g transform="translate(381.49 139.563)" style="mix-blend-mode:soft-light;isolation:isolate"><g clip-path="url(#m)"><path d="M684.393,250.551a.654.654,0,1,0-.654.654.654.654,0,0,0,.654-.654" transform="translate(-683.084 -249.897)" fill="#fff"/></g></g><g transform="translate(371.76 135.086)" style="mix-blend-mode:soft-light;isolation:isolate"><g clip-path="url(#n)"><path d="M667.023,242.562a.681.681,0,1,0-.681.681.681.681,0,0,0,.681-.681" transform="translate(-665.661 -241.881)" fill="#fff"/></g></g><g transform="translate(379.869 128.926)" style="mix-blend-mode:soft-light;isolation:isolate"><g clip-path="url(#o)"><path d="M681.482,231.5a.65.65,0,1,0-.65.65.65.65,0,0,0,.65-.65" transform="translate(-680.182 -230.852)" fill="#fff"/></g></g><path d="M3.8.175H-.662A.838.838,0,0,1-1.5-.662.838.838,0,0,1-.662-1.5H3.8a.838.838,0,0,1,.838.838A.838.838,0,0,1,3.8.175Z" transform="translate(379 49.083)" fill="#363d44"/><path d="M1.789.117H-.442A.558.558,0,0,1-1-.442.558.558,0,0,1-.442-1H1.789a.558.558,0,0,1,.558.558A.558.558,0,0,1,1.789.117Z" transform="translate(381.009 95.574)" fill="#363d44"/><path d="M1.789.117H-.442A.558.558,0,0,1-1-.442.558.558,0,0,1-.442-1H1.789a.558.558,0,0,1,.558.558A.558.558,0,0,1,1.789.117Z" transform="translate(381.009 100.741)" fill="#363d44"/><path d="M1.789.117H-.442A.558.558,0,0,1-1-.442.558.558,0,0,1-.442-1H1.789a.558.558,0,0,1,.558.558A.558.558,0,0,1,1.789.117Z" transform="translate(381.009 105.907)" fill="#363d44"/><path d="M1.789.117H-.442A.558.558,0,0,1-1-.442.558.558,0,0,1-.442-1H1.789a.558.558,0,0,1,.558.558A.558.558,0,0,1,1.789.117Z" transform="translate(381.009 111.074)" fill="#363d44"/><path d="M1.789.117H-.442A.558.558,0,0,1-1-.442.558.558,0,0,1-.442-1H1.789a.558.558,0,0,1,.558.558A.558.558,0,0,1,1.789.117Z" transform="translate(381.009 116.24)" fill="#363d44"/><path d="M1.789.117H-.442A.558.558,0,0,1-1-.442.558.558,0,0,1-.442-1H1.789a.558.558,0,0,1,.558.558A.558.558,0,0,1,1.789.117Z" transform="translate(381.009 121.406)" fill="#363d44"/><path d="M1.789.117H-.442A.558.558,0,0,1-1-.442.558.558,0,0,1-.442-1H1.789a.558.558,0,0,1,.558.558A.558.558,0,0,1,1.789.117Z" transform="translate(381.009 126.573)" fill="#363d44"/><path d="M1.789.117H-.442A.558.558,0,0,1-1-.442.558.558,0,0,1-.442-1H1.789a.558.558,0,0,1,.558.558A.558.558,0,0,1,1.789.117Z" transform="translate(381.009 131.739)" fill="#363d44"/><path d="M31.118.292H-1.1A1.4,1.4,0,0,1-2.5-1.1,1.4,1.4,0,0,1-1.1-2.5H31.118a1.4,1.4,0,0,1,1.4,1.4A1.4,1.4,0,0,1,31.118.292Z" transform="translate(367.648 141.975)" fill="#363d44"/><path d="M711.807,285.306a1.392,1.392,0,0,1-.987-.409,15.519,15.519,0,0,1-2.794-4.008,29.885,29.885,0,0,1-1.923-5,63.2,63.2,0,0,1-2.046-11.165,108.863,108.863,0,0,1-.517-13.678,1.4,1.4,0,1,1,2.79.1,108.175,108.175,0,0,0,.508,13.321c.94,9.118,3,15.5,5.956,18.457a1.4,1.4,0,0,1-.987,2.383Z" transform="translate(-310.61 -110.246)" fill="#363d44"/><path d="M678.816,276.365l2.792-7.08,2.792,7.08a3,3,0,1,1-5.585,0" transform="translate(-299.617 -118.894)" fill="#f7c341"/><path d="M680.884,280.141l1.675-4.288,1.675,4.288a1.8,1.8,0,1,1-3.351,0" transform="translate(-300.568 -121.794)" fill="#ef7575"/><path d="M683.724,288.627h-5.8a1.093,1.093,0,0,0-1.094,1.094v1.754h7.986v-1.754a1.093,1.093,0,0,0-1.093-1.094" transform="translate(-298.833 -127.434)" fill="#363d44"/><path d="M684.7,293.2H672.217a1.093,1.093,0,0,0-1.094,1.094v9.573h14.669v-9.573A1.093,1.093,0,0,0,684.7,293.2" transform="translate(-296.313 -129.453)" fill="#363d44"/><path d="M24.913.175H-.662A.838.838,0,0,1-1.5-.662.838.838,0,0,1-.662-1.5H24.913a.838.838,0,0,1,.838.838A.838.838,0,0,1,24.913.175Z" transform="translate(370.038 147.277)" fill="#363d44"/><path d="M1.789.117H-.442A.558.558,0,0,1-1-.442.558.558,0,0,1-.442-1H1.789a.558.558,0,0,1,.558.558A.558.558,0,0,1,1.789.117Z" transform="translate(381.009 54.243)" fill="#363d44"/><path d="M1.789.117H-.442A.558.558,0,0,1-1-.442.558.558,0,0,1-.442-1H1.789a.558.558,0,0,1,.558.558A.558.558,0,0,1,1.789.117Z" transform="translate(381.009 59.409)" fill="#363d44"/><path d="M1.789.117H-.442A.558.558,0,0,1-1-.442.558.558,0,0,1-.442-1H1.789a.558.558,0,0,1,.558.558A.558.558,0,0,1,1.789.117Z" transform="translate(381.009 64.576)" fill="#363d44"/><path d="M1.789.117H-.442A.558.558,0,0,1-1-.442.558.558,0,0,1-.442-1H1.789a.558.558,0,0,1,.558.558A.558.558,0,0,1,1.789.117Z" transform="translate(381.009 69.742)" fill="#363d44"/><path d="M1.789.117H-.442A.558.558,0,0,1-1-.442.558.558,0,0,1-.442-1H1.789a.558.558,0,0,1,.558.558A.558.558,0,0,1,1.789.117Z" transform="translate(381.009 74.908)" fill="#363d44"/><path d="M1.789.117H-.442A.558.558,0,0,1-1-.442.558.558,0,0,1-.442-1H1.789a.558.558,0,0,1,.558.558A.558.558,0,0,1,1.789.117Z" transform="translate(381.009 80.075)" fill="#363d44"/><path d="M1.789.117H-.442A.558.558,0,0,1-1-.442.558.558,0,0,1-.442-1H1.789a.558.558,0,0,1,.558.558A.558.558,0,0,1,1.789.117Z" transform="translate(381.009 85.241)" fill="#363d44"/><path d="M1.789.117H-.442A.558.558,0,0,1-1-.442.558.558,0,0,1-.442-1H1.789a.558.558,0,0,1,.558.558A.558.558,0,0,1,1.789.117Z" transform="translate(381.009 90.408)" fill="#363d44"/><path d="M649.035,285.306a1.4,1.4,0,0,1-.987-2.383c2.956-2.956,5.016-9.338,5.956-18.457a108.166,108.166,0,0,0,.508-13.321,1.4,1.4,0,0,1,2.79-.1,108.876,108.876,0,0,1-.517,13.678,63.192,63.192,0,0,1-2.046,11.165,29.882,29.882,0,0,1-1.923,5,15.518,15.518,0,0,1-2.794,4.008A1.392,1.392,0,0,1,649.035,285.306Z" transform="translate(-285.944 -110.246)" fill="#363d44"/><rect width="15.507" height="62.581" transform="translate(267.742 112.183)" fill="#f7c341"/><path d="M494.254,247.85H478.747a.838.838,0,0,1-.838-.838V164.473a.838.838,0,0,1,.838-.838h17.845a.838.838,0,0,1,.681,1.325l-2.182,3.051v79A.838.838,0,0,1,494.254,247.85Zm-14.669-1.675h13.831V167.743a.837.837,0,0,1,.156-.487l1.391-1.945H479.585Z" transform="translate(-211.006 -72.248)" fill="#363d44"/><path d="M3.052.175H-.662A.838.838,0,0,1-1.5-.662.838.838,0,0,1-.662-1.5H3.052a.838.838,0,0,1,.838.838A.838.838,0,0,1,3.052.175Z" transform="translate(276.591 148.009)" fill="#363d44"/><path d="M3.052.175H-.662A.838.838,0,0,1-1.5-.662.838.838,0,0,1-.662-1.5H3.052a.838.838,0,0,1,.838.838A.838.838,0,0,1,3.052.175Z" transform="translate(276.591 152.459)" fill="#363d44"/><path d="M3.052.175H-.662A.838.838,0,0,1-1.5-.662.838.838,0,0,1-.662-1.5H3.052a.838.838,0,0,1,.838.838A.838.838,0,0,1,3.052.175Z" transform="translate(276.591 156.909)" fill="#363d44"/><path d="M3.052.175H-.662A.838.838,0,0,1-1.5-.662.838.838,0,0,1-.662-1.5H3.052a.838.838,0,0,1,.838.838A.838.838,0,0,1,3.052.175Z" transform="translate(276.591 161.358)" fill="#363d44"/><path d="M3.052.175H-.662A.838.838,0,0,1-1.5-.662.838.838,0,0,1-.662-1.5H3.052a.838.838,0,0,1,.838.838A.838.838,0,0,1,3.052.175Z" transform="translate(276.591 165.808)" fill="#363d44"/><path d="M3.052.175H-.662A.838.838,0,0,1-1.5-.662.838.838,0,0,1-.662-1.5H3.052a.838.838,0,0,1,.838.838A.838.838,0,0,1,3.052.175Z" transform="translate(276.591 170.258)" fill="#363d44"/><path d="M3.052.175H-.662A.838.838,0,0,1-1.5-.662.838.838,0,0,1-.662-1.5H3.052a.838.838,0,0,1,.838.838A.838.838,0,0,1,3.052.175Z" transform="translate(276.591 120.528)" fill="#363d44"/><path d="M3.052.175H-.662A.838.838,0,0,1-1.5-.662.838.838,0,0,1-.662-1.5H3.052a.838.838,0,0,1,.838.838A.838.838,0,0,1,3.052.175Z" transform="translate(276.591 124.978)" fill="#363d44"/><path d="M3.052.175H-.662A.838.838,0,0,1-1.5-.662.838.838,0,0,1-.662-1.5H3.052a.838.838,0,0,1,.838.838A.838.838,0,0,1,3.052.175Z" transform="translate(276.591 129.427)" fill="#363d44"/><path d="M3.052.175H-.662A.838.838,0,0,1-1.5-.662.838.838,0,0,1-.662-1.5H3.052a.838.838,0,0,1,.838.838A.838.838,0,0,1,3.052.175Z" transform="translate(276.591 133.877)" fill="#363d44"/><path d="M3.052.175H-.662A.838.838,0,0,1-1.5-.662.838.838,0,0,1-.662-1.5H3.052a.838.838,0,0,1,.838.838A.838.838,0,0,1,3.052.175Z" transform="translate(276.591 138.326)" fill="#363d44"/><path d="M3.052.175H-.662A.838.838,0,0,1-1.5-.662.838.838,0,0,1-.662-1.5H3.052a.838.838,0,0,1,.838.838A.838.838,0,0,1,3.052.175Z" transform="translate(276.591 142.776)" fill="#363d44"/><path d="M3.052.175H-.662A.838.838,0,0,1-1.5-.662.838.838,0,0,1-.662-1.5H3.052a.838.838,0,0,1,.838.838A.838.838,0,0,1,3.052.175Z" transform="translate(276.591 106.395)" fill="#363d44"/><path d="M3.052.175H-.662A.838.838,0,0,1-1.5-.662.838.838,0,0,1-.662-1.5H3.052a.838.838,0,0,1,.838.838A.838.838,0,0,1,3.052.175Z" transform="translate(276.591 110.845)" fill="#363d44"/><path d="M3.052.175H-.662A.838.838,0,0,1-1.5-.662.838.838,0,0,1-.662-1.5H3.052a.838.838,0,0,1,.838.838A.838.838,0,0,1,3.052.175Z" transform="translate(276.591 115.295)" fill="#363d44"/><path d="M563.263,243.829a3.962,3.962,0,1,0-3.962,3.962,3.962,3.962,0,0,0,3.962-3.962" transform="translate(-245.192 -105.906)" fill="#b1fcf3"/><path d="M544.511,256.068a3.343,3.343,0,1,0-3.343,3.343,3.343,3.343,0,0,0,3.343-3.343" transform="translate(-237.459 -111.583)" fill="#b1fcf3"/><path d="M557.227,266.307a1.61,1.61,0,1,0-1.61,1.61,1.609,1.609,0,0,0,1.61-1.61" transform="translate(-244.605 -116.869)" fill="#b1fcf3"/><path d="M555.649,233.372a1.486,1.486,0,1,0-1.486,1.486,1.486,1.486,0,0,0,1.486-1.486" transform="translate(-244.017 -102.382)" fill="#b1fcf3"/><path d="M543.182,243.765A1.238,1.238,0,1,0,541.944,245a1.238,1.238,0,0,0,1.238-1.238" transform="translate(-238.731 -107.08)" fill="#b1fcf3"/><path d="M547.13,226.349a1.035,1.035,0,1,0-1.035,1.035,1.035,1.035,0,0,0,1.035-1.035" transform="translate(-240.654 -99.48)" fill="#b1fcf3"/><path d="M508.7,258.425h-1.675V239.288a11.178,11.178,0,0,0-.3-2.864,4.959,4.959,0,0,0-2.421-3.318c-1.44-.7-3.25-.372-5-.055-.2.037-.411.075-.616.11a11.215,11.215,0,0,1-3.43.14,6,6,0,0,1-1.676-.466,6.7,6.7,0,0,1-4.788,1.958,6.62,6.62,0,0,1-4.3-1.843,8.385,8.385,0,0,1-2.588,1,7.153,7.153,0,0,1-3.85-.24,6.234,6.234,0,0,1-2.191-1.37,5.855,5.855,0,0,1-2.4.966,6.11,6.11,0,0,1-4.221-.944q-.191-.122-.372-.256-.116.1-.235.189a7.061,7.061,0,0,1-2.648,1.272A5.914,5.914,0,0,1,463,233.52a6.011,6.011,0,0,1-1.736-.817c-.224.206-.444.4-.655.579a36.057,36.057,0,0,1-6.99,4.661l-.76-1.493a34.378,34.378,0,0,0,6.664-4.444q.268-.228.512-.451a4.849,4.849,0,0,1-.736-1.316,4.506,4.506,0,0,1-.122-2.639,4,4,0,0,1,1.462-2.235,2.829,2.829,0,0,1,2.2-.508,1.889,1.889,0,0,1,1.278.917,2.484,2.484,0,0,1,.266,1.322,7.213,7.213,0,0,1-1.932,4.381,4.334,4.334,0,0,0,1.006.432,4.764,4.764,0,0,0,4.148-.942l.04-.031a5.811,5.811,0,0,1-1.039-2.01,3.723,3.723,0,0,1,.437-3.306,2.6,2.6,0,0,1,1.955-.983,2.077,2.077,0,0,1,1.674.7,2.781,2.781,0,0,1,.589,1.832,5.914,5.914,0,0,1-.723,2.894,6.687,6.687,0,0,1-.517.812,4.492,4.492,0,0,0,3.174.773,4.17,4.17,0,0,0,1.609-.623,5.57,5.57,0,0,1-.807-3.595,3.291,3.291,0,0,1,1.14-2.232,2.337,2.337,0,0,1,1.406-.5,1.973,1.973,0,0,1,1.471.584,2.536,2.536,0,0,1,.63,1.761,6.11,6.11,0,0,1-1.456,4.073l-.08.094a4.53,4.53,0,0,0,1.509.917,5.48,5.48,0,0,0,2.948.174,6.682,6.682,0,0,0,1.818-.659,6.583,6.583,0,0,1-1.129-4.323,2.81,2.81,0,0,1,1.569-2.486,2.376,2.376,0,0,1,1.559-.04,3.175,3.175,0,0,1,1.871,1.568,3.861,3.861,0,0,1,.439,2.344,5.457,5.457,0,0,1-1.828,3.219,4.875,4.875,0,0,0,2.973,1.186,4.956,4.956,0,0,0,3.338-1.268q-.054-.057-.107-.116a5.969,5.969,0,0,1-1.335-3.523,4.728,4.728,0,0,1,.277-2.121,2.3,2.3,0,0,1,1.784-1.532,2.117,2.117,0,0,1,1.694.481,3.782,3.782,0,0,1,1.235,2.654,6.488,6.488,0,0,1-1.03,3.773,8.066,8.066,0,0,0,3.705.044l.6-.108c1.921-.348,4.1-.743,6.031.2a6.614,6.614,0,0,1,3.31,4.4,12.888,12.888,0,0,1,.349,3.286Zm-24.059-32.058a.527.527,0,0,0-.193.032c-.256.1-.461.536-.521,1.105a4.894,4.894,0,0,0,.83,3.177,3.843,3.843,0,0,0,1.281-2.189,1.929,1.929,0,0,0-1.123-2.082A.983.983,0,0,0,484.644,226.367Zm8.483-.157a.456.456,0,0,0-.069.006c-.48.074-.722,1.014-.646,1.846a4.443,4.443,0,0,0,.875,2.512,4.808,4.808,0,0,0,.773-2.794,2.143,2.143,0,0,0-.621-1.44A.485.485,0,0,0,493.127,226.21Zm-30.788.269a1.248,1.248,0,0,0-.7.233,2.325,2.325,0,0,0-.835,1.3,2.815,2.815,0,0,0,.073,1.648,3.091,3.091,0,0,0,.348.674,5.433,5.433,0,0,0,1.493-3.3.9.9,0,0,0-.052-.441c-.012-.022-.04-.072-.169-.1A.75.75,0,0,0,462.34,226.479Zm14.248-.1a.669.669,0,0,0-.4.136,1.783,1.783,0,0,0-.517,1.134,3.81,3.81,0,0,0,.405,2.2,4.421,4.421,0,0,0,.905-2.743c-.013-.434-.107-.594-.161-.65A.326.326,0,0,0,476.588,226.381Zm-7.51-.069h-.021a.914.914,0,0,0-.672.326,2.129,2.129,0,0,0-.158,1.829,4.09,4.09,0,0,0,.592,1.227,4.354,4.354,0,0,0,.778-2.49,1.272,1.272,0,0,0-.185-.77A.442.442,0,0,0,469.078,226.312Z" transform="translate(-199.948 -99.136)" fill="#f37577"/><path d="M565.984,166.547a.838.838,0,0,1-.817-1.025l4.6-20.112a.838.838,0,0,1,1.032-.623l20.759,5.509a.838.838,0,1,1-.43,1.619l-19.92-5.286L566.8,165.9A.838.838,0,0,1,565.984,166.547Z" transform="translate(-249.522 -63.914)" fill="#363d44"/><path d="M576.665,139.5a8.543,8.543,0,1,0-8.543,8.543,8.543,8.543,0,0,0,8.543-8.543" transform="translate(-247.064 -57.822)" fill="#ef7575"/><path d="M9.381,0a9.383,9.383,0,0,1,3.652,18.024A9.383,9.383,0,0,1,5.729.738,9.323,9.323,0,0,1,9.381,0Zm0,17.086A7.705,7.705,0,0,0,14.829,3.932a7.705,7.705,0,0,0-10.9,10.9A7.655,7.655,0,0,0,9.381,17.086Z" transform="translate(310.295 73.926) rotate(-9.217)" fill="#363d44"/><path d="M567.969,177.279a6.315,6.315,0,1,0-6.315,6.315,6.314,6.314,0,0,0,6.315-6.315" transform="translate(-245.192 -75.484)" fill="#f7c341"/><path d="M7.152,0A7.152,7.152,0,0,1,12.21,12.21,7.152,7.152,0,1,1,2.095,2.095,7.106,7.106,0,0,1,7.152,0Zm0,12.63A5.477,5.477,0,1,0,1.675,7.152,5.483,5.483,0,0,0,7.152,12.63Z" transform="translate(308.255 95.881) rotate(-9.217)" fill="#363d44"/><path d="M613.367,151.131a6.315,6.315,0,1,0-6.315,6.315,6.314,6.314,0,0,0,6.315-6.315" transform="translate(-265.237 -63.939)" fill="#f7c341"/><path d="M7.152,0A7.152,7.152,0,0,1,12.21,12.21,7.152,7.152,0,1,1,2.095,2.095,7.106,7.106,0,0,1,7.152,0Zm0,12.63A5.477,5.477,0,1,0,1.675,7.152,5.483,5.483,0,0,0,7.152,12.63Z" transform="translate(333.61 81.277) rotate(-9.217)" fill="#363d44"/><path d="M265.939,289.165a4.894,4.894,0,0,0-4.893,4.893v1.217a4.894,4.894,0,0,0,4.893,4.893h10.335v-11Z" transform="translate(-115.257 -127.672)" fill="#e55c5c"/><path d="M303.544,295.274v-1.216a4.894,4.894,0,0,0-4.893-4.894H288.315v11H298.65a4.894,4.894,0,0,0,4.893-4.893" transform="translate(-127.296 -127.671)" fill="#b1fcf3"/><path d="M4.231-1.5H24.9a5.738,5.738,0,0,1,5.731,5.731V5.448A5.738,5.738,0,0,1,24.9,11.179H4.231A5.738,5.738,0,0,1-1.5,5.448V4.231A5.738,5.738,0,0,1,4.231-1.5ZM24.9,9.5a4.06,4.06,0,0,0,4.056-4.056V4.231A4.06,4.06,0,0,0,24.9.175H4.231A4.06,4.06,0,0,0,.175,4.231V5.448A4.06,4.06,0,0,0,4.231,9.5Z" transform="translate(146.452 162.155)" fill="#363d44"/><path d="M252.305,269.461a4.893,4.893,0,0,0-4.893,4.893v1.217a4.894,4.894,0,0,0,4.893,4.893h10.335v-11Z" transform="translate(-109.237 -118.972)" fill="#2ee9d6"/><path d="M289.909,275.571v-1.216a4.894,4.894,0,0,0-4.893-4.894H274.68v11h10.335a4.894,4.894,0,0,0,4.893-4.893" transform="translate(-121.276 -118.972)" fill="#ffd5c2"/><path d="M4.231-1.5H24.9a5.738,5.738,0,0,1,5.731,5.731V5.448A5.738,5.738,0,0,1,24.9,11.179H4.231A5.738,5.738,0,0,1-1.5,5.448V4.231A5.738,5.738,0,0,1,4.231-1.5ZM24.9,9.5a4.06,4.06,0,0,0,4.056-4.056V4.231A4.06,4.06,0,0,0,24.9.175H4.231A4.06,4.06,0,0,0,.175,4.231V5.448A4.06,4.06,0,0,0,4.231,9.5Z" transform="translate(138.837 151.152)" fill="#363d44"/><path d="M12.134,261.593h0a1.919,1.919,0,0,0,0,2.714l12.344,12.344a1.919,1.919,0,0,0,2.714-2.714L14.848,261.593a1.919,1.919,0,0,0-2.714,0" transform="translate(-5.109 -115.25)" fill="#363d44"/><path d="M51.181,280.333H15.942S14.642,290.766,25.6,300H41.523c10.957-9.231,9.657-19.664,9.657-19.664" transform="translate(-7.018 -123.772)" fill="#ffd5c2"/><path d="M15.059,278.333H50.3a1.117,1.117,0,0,1,1.108.979,18.933,18.933,0,0,1-.752,6.807,25.345,25.345,0,0,1-2.934,6.619,30.87,30.87,0,0,1-6.36,7.23,1.117,1.117,0,0,1-.72.263H24.716a1.117,1.117,0,0,1-.72-.263,30.87,30.87,0,0,1-6.36-7.23,25.345,25.345,0,0,1-2.934-6.619,18.933,18.933,0,0,1-.752-6.807A1.117,1.117,0,0,1,15.059,278.333Zm34.171,2.234h-33.1c0,.207.006.444.019.707a19.812,19.812,0,0,0,.738,4.358,23.166,23.166,0,0,0,2.689,5.991A28.493,28.493,0,0,0,25.128,298h15.1a28.452,28.452,0,0,0,5.6-6.441,23.114,23.114,0,0,0,2.678-6.035A18.976,18.976,0,0,0,49.23,280.567Z" transform="translate(-6.135 -122.889)" fill="#363d44"/><path d="M23.168.234H-.883A1.117,1.117,0,0,1-2-.883,1.117,1.117,0,0,1-.883-2H23.168A1.117,1.117,0,0,1,24.285-.883,1.117,1.117,0,0,1,23.168.234Z" transform="translate(10.085 161.894)" fill="#363d44"/><path d="M.912.234h-1.8A1.117,1.117,0,0,1-2-.883,1.117,1.117,0,0,1-.883-2h1.8A1.117,1.117,0,0,1,2.029-.883,1.117,1.117,0,0,1,.912.234Z" transform="translate(38.47 161.894)" fill="#363d44"/><path d="M103.9,271.05h-.244a4.521,4.521,0,0,1-4.521-4.521V238.98h9.286v27.549a4.521,4.521,0,0,1-4.521,4.521" transform="translate(-43.771 -105.514)" fill="#e55c5c"/><path d="M103.241,258.305H103a5.365,5.365,0,0,1-5.359-5.359V209.054a.838.838,0,0,1,.838-.838h9.286a.838.838,0,0,1,.838.838v43.893A5.365,5.365,0,0,1,103.241,258.305Zm-3.927-48.414v43.055A3.687,3.687,0,0,0,103,256.63h.244a3.687,3.687,0,0,0,3.683-3.683V209.891Z" transform="translate(-43.109 -91.931)" fill="#363d44"/><path d="M1.292.117H-.442A.558.558,0,0,1-1-.442.558.558,0,0,1-.442-1H1.292a.558.558,0,0,1,.558.558A.558.558,0,0,1,1.292.117Z" transform="translate(57.913 124.064)" fill="#363d44"/><path d="M1.292.117H-.442A.558.558,0,0,1-1-.442.558.558,0,0,1-.442-1H1.292a.558.558,0,0,1,.558.558A.558.558,0,0,1,1.292.117Z" transform="translate(57.913 127.901)" fill="#363d44"/><path d="M1.292.117H-.442A.558.558,0,0,1-1-.442.558.558,0,0,1-.442-1H1.292a.558.558,0,0,1,.558.558A.558.558,0,0,1,1.292.117Z" transform="translate(57.913 131.738)" fill="#363d44"/><path d="M1.292.117H-.442A.558.558,0,0,1-1-.442.558.558,0,0,1-.442-1H1.292a.558.558,0,0,1,.558.558A.558.558,0,0,1,1.292.117Z" transform="translate(57.913 135.575)" fill="#363d44"/><path d="M1.292.117H-.442A.558.558,0,0,1-1-.442.558.558,0,0,1-.442-1H1.292a.558.558,0,0,1,.558.558A.558.558,0,0,1,1.292.117Z" transform="translate(57.913 139.412)" fill="#363d44"/><path d="M1.292.117H-.442A.558.558,0,0,1-1-.442.558.558,0,0,1-.442-1H1.292a.558.558,0,0,1,.558.558A.558.558,0,0,1,1.292.117Z" transform="translate(57.913 143.249)" fill="#363d44"/><path d="M1.292.117H-.442A.558.558,0,0,1-1-.442.558.558,0,0,1-.442-1H1.292a.558.558,0,0,1,.558.558A.558.558,0,0,1,1.292.117Z" transform="translate(57.913 147.086)" fill="#363d44"/><path d="M1.292.117H-.442A.558.558,0,0,1-1-.442.558.558,0,0,1-.442-1H1.292a.558.558,0,0,1,.558.558A.558.558,0,0,1,1.292.117Z" transform="translate(57.913 150.923)" fill="#363d44"/><path d="M1.292.117H-.442A.558.558,0,0,1-1-.442.558.558,0,0,1-.442-1H1.292a.558.558,0,0,1,.558.558A.558.558,0,0,1,1.292.117Z" transform="translate(57.913 154.76)" fill="#363d44"/><path d="M1.292.117H-.442A.558.558,0,0,1-1-.442.558.558,0,0,1-.442-1H1.292a.558.558,0,0,1,.558.558A.558.558,0,0,1,1.292.117Z" transform="translate(57.913 158.597)" fill="#363d44"/><path d="M138.044,271.05H137.8a4.521,4.521,0,0,1-4.521-4.521V238.98h9.286v27.549a4.521,4.521,0,0,1-4.521,4.521" transform="translate(-58.845 -105.514)" fill="#f7c341"/><path d="M137.382,258.305h-.244a5.365,5.365,0,0,1-5.359-5.359V209.054a.838.838,0,0,1,.838-.838H141.9a.838.838,0,0,1,.838.838v43.893A5.365,5.365,0,0,1,137.382,258.305Zm-3.927-48.414v43.055a3.687,3.687,0,0,0,3.683,3.683h.244a3.687,3.687,0,0,0,3.683-3.683V209.891Z" transform="translate(-58.183 -91.931)" fill="#363d44"/><path d="M1.292.117H-.442A.558.558,0,0,1-1-.442.558.558,0,0,1-.442-1H1.292a.558.558,0,0,1,.558.558A.558.558,0,0,1,1.292.117Z" transform="translate(76.98 124.064)" fill="#363d44"/><path d="M1.292.117H-.442A.558.558,0,0,1-1-.442.558.558,0,0,1-.442-1H1.292a.558.558,0,0,1,.558.558A.558.558,0,0,1,1.292.117Z" transform="translate(76.98 127.901)" fill="#363d44"/><path d="M1.292.117H-.442A.558.558,0,0,1-1-.442.558.558,0,0,1-.442-1H1.292a.558.558,0,0,1,.558.558A.558.558,0,0,1,1.292.117Z" transform="translate(76.98 131.738)" fill="#363d44"/><path d="M1.292.117H-.442A.558.558,0,0,1-1-.442.558.558,0,0,1-.442-1H1.292a.558.558,0,0,1,.558.558A.558.558,0,0,1,1.292.117Z" transform="translate(76.98 135.575)" fill="#363d44"/><path d="M1.292.117H-.442A.558.558,0,0,1-1-.442.558.558,0,0,1-.442-1H1.292a.558.558,0,0,1,.558.558A.558.558,0,0,1,1.292.117Z" transform="translate(76.98 139.412)" fill="#363d44"/><path d="M1.292.117H-.442A.558.558,0,0,1-1-.442.558.558,0,0,1-.442-1H1.292a.558.558,0,0,1,.558.558A.558.558,0,0,1,1.292.117Z" transform="translate(76.98 143.249)" fill="#363d44"/><path d="M1.292.117H-.442A.558.558,0,0,1-1-.442.558.558,0,0,1-.442-1H1.292a.558.558,0,0,1,.558.558A.558.558,0,0,1,1.292.117Z" transform="translate(76.98 147.086)" fill="#363d44"/><path d="M1.292.117H-.442A.558.558,0,0,1-1-.442.558.558,0,0,1-.442-1H1.292a.558.558,0,0,1,.558.558A.558.558,0,0,1,1.292.117Z" transform="translate(76.98 150.923)" fill="#363d44"/><path d="M1.292.117H-.442A.558.558,0,0,1-1-.442.558.558,0,0,1-.442-1H1.292a.558.558,0,0,1,.558.558A.558.558,0,0,1,1.292.117Z" transform="translate(76.98 154.76)" fill="#363d44"/><path d="M1.292.117H-.442A.558.558,0,0,1-1-.442.558.558,0,0,1-.442-1H1.292a.558.558,0,0,1,.558.558A.558.558,0,0,1,1.292.117Z" transform="translate(76.98 158.597)" fill="#363d44"/><path d="M172.185,271.05h-.244a4.521,4.521,0,0,1-4.521-4.521V238.98h9.286v27.549a4.521,4.521,0,0,1-4.521,4.521" transform="translate(-73.919 -105.514)" fill="#2ee9d6"/><path d="M171.523,258.305h-.244a5.365,5.365,0,0,1-5.359-5.359V209.054a.838.838,0,0,1,.838-.838h9.286a.838.838,0,0,1,.838.838v43.893A5.365,5.365,0,0,1,171.523,258.305ZM167.6,209.891v43.055a3.687,3.687,0,0,0,3.683,3.683h.244a3.687,3.687,0,0,0,3.683-3.683V209.891Z" transform="translate(-73.257 -91.931)" fill="#363d44"/><path d="M1.292.117H-.442A.558.558,0,0,1-1-.442.558.558,0,0,1-.442-1H1.292a.558.558,0,0,1,.558.558A.558.558,0,0,1,1.292.117Z" transform="translate(96.047 124.064)" fill="#363d44"/><path d="M1.292.117H-.442A.558.558,0,0,1-1-.442.558.558,0,0,1-.442-1H1.292a.558.558,0,0,1,.558.558A.558.558,0,0,1,1.292.117Z" transform="translate(96.047 127.901)" fill="#363d44"/><path d="M1.292.117H-.442A.558.558,0,0,1-1-.442.558.558,0,0,1-.442-1H1.292a.558.558,0,0,1,.558.558A.558.558,0,0,1,1.292.117Z" transform="translate(96.047 131.738)" fill="#363d44"/><path d="M1.292.117H-.442A.558.558,0,0,1-1-.442.558.558,0,0,1-.442-1H1.292a.558.558,0,0,1,.558.558A.558.558,0,0,1,1.292.117Z" transform="translate(96.047 135.575)" fill="#363d44"/><path d="M1.292.117H-.442A.558.558,0,0,1-1-.442.558.558,0,0,1-.442-1H1.292a.558.558,0,0,1,.558.558A.558.558,0,0,1,1.292.117Z" transform="translate(96.047 139.412)" fill="#363d44"/><path d="M1.292.117H-.442A.558.558,0,0,1-1-.442.558.558,0,0,1-.442-1H1.292a.558.558,0,0,1,.558.558A.558.558,0,0,1,1.292.117Z" transform="translate(96.047 143.249)" fill="#363d44"/><path d="M1.292.117H-.442A.558.558,0,0,1-1-.442.558.558,0,0,1-.442-1H1.292a.558.558,0,0,1,.558.558A.558.558,0,0,1,1.292.117Z" transform="translate(96.047 147.086)" fill="#363d44"/><path d="M1.292.117H-.442A.558.558,0,0,1-1-.442.558.558,0,0,1-.442-1H1.292a.558.558,0,0,1,.558.558A.558.558,0,0,1,1.292.117Z" transform="translate(96.047 150.923)" fill="#363d44"/><path d="M1.292.117H-.442A.558.558,0,0,1-1-.442.558.558,0,0,1-.442-1H1.292a.558.558,0,0,1,.558.558A.558.558,0,0,1,1.292.117Z" transform="translate(96.047 154.76)" fill="#363d44"/><path d="M1.292.117H-.442A.558.558,0,0,1-1-.442.558.558,0,0,1-.442-1H1.292a.558.558,0,0,1,.558.558A.558.558,0,0,1,1.292.117Z" transform="translate(96.047 158.597)" fill="#363d44"/><path d="M206.325,271.05h-.244a4.521,4.521,0,0,1-4.521-4.521V238.98h9.286v27.549a4.521,4.521,0,0,1-4.521,4.521" transform="translate(-88.992 -105.514)" fill="#ffd5c2"/><path d="M205.663,258.305h-.244a5.365,5.365,0,0,1-5.359-5.359V209.054a.838.838,0,0,1,.838-.838h9.286a.838.838,0,0,1,.838.838v43.893A5.365,5.365,0,0,1,205.663,258.305Zm-3.927-48.414v43.055a3.687,3.687,0,0,0,3.683,3.683h.244a3.687,3.687,0,0,0,3.683-3.683V209.891Z" transform="translate(-88.33 -91.931)" fill="#363d44"/><path d="M1.292.117H-.442A.558.558,0,0,1-1-.442.558.558,0,0,1-.442-1H1.292a.558.558,0,0,1,.558.558A.558.558,0,0,1,1.292.117Z" transform="translate(115.114 124.064)" fill="#363d44"/><path d="M1.292.117H-.442A.558.558,0,0,1-1-.442.558.558,0,0,1-.442-1H1.292a.558.558,0,0,1,.558.558A.558.558,0,0,1,1.292.117Z" transform="translate(115.114 127.901)" fill="#363d44"/><path d="M1.292.117H-.442A.558.558,0,0,1-1-.442.558.558,0,0,1-.442-1H1.292a.558.558,0,0,1,.558.558A.558.558,0,0,1,1.292.117Z" transform="translate(115.114 131.738)" fill="#363d44"/><path d="M1.292.117H-.442A.558.558,0,0,1-1-.442.558.558,0,0,1-.442-1H1.292a.558.558,0,0,1,.558.558A.558.558,0,0,1,1.292.117Z" transform="translate(115.114 135.575)" fill="#363d44"/><path d="M1.292.117H-.442A.558.558,0,0,1-1-.442.558.558,0,0,1-.442-1H1.292a.558.558,0,0,1,.558.558A.558.558,0,0,1,1.292.117Z" transform="translate(115.114 139.412)" fill="#363d44"/><path d="M1.292.117H-.442A.558.558,0,0,1-1-.442.558.558,0,0,1-.442-1H1.292a.558.558,0,0,1,.558.558A.558.558,0,0,1,1.292.117Z" transform="translate(115.114 143.249)" fill="#363d44"/><path d="M1.292.117H-.442A.558.558,0,0,1-1-.442.558.558,0,0,1-.442-1H1.292a.558.558,0,0,1,.558.558A.558.558,0,0,1,1.292.117Z" transform="translate(115.114 147.086)" fill="#363d44"/><path d="M1.292.117H-.442A.558.558,0,0,1-1-.442.558.558,0,0,1-.442-1H1.292a.558.558,0,0,1,.558.558A.558.558,0,0,1,1.292.117Z" transform="translate(115.114 150.923)" fill="#363d44"/><path d="M1.292.117H-.442A.558.558,0,0,1-1-.442.558.558,0,0,1-.442-1H1.292a.558.558,0,0,1,.558.558A.558.558,0,0,1,1.292.117Z" transform="translate(115.114 154.76)" fill="#363d44"/><path d="M1.292.117H-.442A.558.558,0,0,1-1-.442.558.558,0,0,1-.442-1H1.292a.558.558,0,0,1,.558.558A.558.558,0,0,1,1.292.117Z" transform="translate(115.114 158.597)" fill="#363d44"/><path d="M80.8.292H-1.1A1.4,1.4,0,0,1-2.5-1.1,1.4,1.4,0,0,1-1.1-2.5H80.8a1.4,1.4,0,0,1,1.4,1.4A1.4,1.4,0,0,1,80.8.292Z" transform="translate(49.042 143.912)" fill="#363d44"/><path d="M81.24.175H-.662A.838.838,0,0,1-1.5-.662.838.838,0,0,1-.662-1.5h81.9a.838.838,0,0,1,.838.838A.838.838,0,0,1,81.24.175Z" transform="translate(48.6 151.144)" fill="#363d44"/><path d="M78.081,288.816a1.4,1.4,0,0,1-.987-2.383c2.96-2.96,5.021-9.353,5.959-18.489a107.944,107.944,0,0,0,.5-13.289,1.4,1.4,0,1,1,2.79-.1,108.879,108.879,0,0,1-.517,13.678,63.2,63.2,0,0,1-2.046,11.165,29.885,29.885,0,0,1-1.923,5,15.519,15.519,0,0,1-2.794,4.008A1.392,1.392,0,0,1,78.081,288.816Z" transform="translate(-33.858 -111.795)" fill="#363d44"/><path d="M232.1,288.816a1.392,1.392,0,0,1-.987-.409,15.52,15.52,0,0,1-2.794-4.008,29.885,29.885,0,0,1-1.923-5,63.2,63.2,0,0,1-2.046-11.165,108.872,108.872,0,0,1-.517-13.678,1.4,1.4,0,1,1,2.79.1,108.17,108.17,0,0,0,.508,13.321c.94,9.118,3,15.5,5.956,18.457a1.4,1.4,0,0,1-.987,2.383Z" transform="translate(-98.812 -111.795)" fill="#363d44"/><path d="M-1.1,122.309a1.4,1.4,0,0,1-1.4-1.4V-1.1A1.4,1.4,0,0,1-1.1-2.5a1.4,1.4,0,0,1,1.4,1.4V120.913A1.4,1.4,0,0,1-1.1,122.309Z" transform="translate(145.015 53.411)" fill="#363d44"/><path d="M337.007,213.686h-1.675V144.053c0-1.832.04-3.682.078-5.47.033-1.552.068-3.15.076-4.734l-1.353,0H311.727v-1.675h22.406l1.352,0v-.179a34.87,34.87,0,0,1,.594-8.052,13.635,13.635,0,0,1,1.167-3.335,6.672,6.672,0,0,1,2.448-2.7,5.829,5.829,0,0,1,4.552-.524,7.059,7.059,0,0,1,3.805,2.59,8.413,8.413,0,0,1,1.517,4.2,11.046,11.046,0,0,1-.527,4.411,7.063,7.063,0,0,1-1.542,2.756,8.407,8.407,0,0,1-4.881,2.1,36.709,36.709,0,0,1-5.455.4c-.008,1.6-.043,3.213-.077,4.777-.038,1.779-.078,3.619-.078,5.434Zm5.524-94.862a3.845,3.845,0,0,0-1.981.522,4.964,4.964,0,0,0-1.823,2.043,12.01,12.01,0,0,0-1.016,2.927,33.1,33.1,0,0,0-.551,7.67v.18a35.151,35.151,0,0,0,5.187-.377,6.961,6.961,0,0,0,3.942-1.612,5.459,5.459,0,0,0,1.158-2.119,9.359,9.359,0,0,0,.45-3.736,6.74,6.74,0,0,0-1.2-3.366A5.354,5.354,0,0,0,343.8,119,4.863,4.863,0,0,0,342.531,118.823Z" transform="translate(-137.633 -51.723)" fill="#f37577"/><path d="M324.222,277.818l-7.437,14.149a4.772,4.772,0,0,0,4.224,6.992h33.7a4.772,4.772,0,0,0,4.224-6.992l-7.622-14.5Z" transform="translate(-139.622 -122.506)" fill="#f7c341"/><path d="M354.052,247.262h-33.7a5.61,5.61,0,0,1-4.966-8.22L330.1,211.049V161.016a2.541,2.541,0,0,1,2.538-2.538h9.132a2.541,2.541,0,0,1,2.538,2.538v50.033l14.714,27.994a5.61,5.61,0,0,1-4.965,8.22Zm-21.418-87.109a.864.864,0,0,0-.863.862v50.447l-14.906,28.36a3.934,3.934,0,0,0,3.483,5.765h33.7a3.934,3.934,0,0,0,3.482-5.765l-14.906-28.36V161.016a.863.863,0,0,0-.862-.862Z" transform="translate(-138.96 -69.971)" fill="#363d44"/><g transform="translate(186.491 161.493)" opacity="0.5" style="mix-blend-mode:soft-light;isolation:isolate"><g clip-path="url(#p)"><path d="M338.938,291.671a2.507,2.507,0,1,0-2.506,2.506,2.506,2.506,0,0,0,2.506-2.506" transform="translate(-333.925 -289.164)" fill="#fff"/></g></g><g transform="translate(192.861 166.506)" opacity="0.5" style="mix-blend-mode:soft-light;isolation:isolate"><g clip-path="url(#q)"><path d="M352.119,301.535a3.394,3.394,0,1,0-3.394,3.394,3.394,3.394,0,0,0,3.394-3.394" transform="translate(-345.331 -298.141)" fill="#fff"/></g></g><g transform="translate(194.715 160.475)" opacity="0.5" style="mix-blend-mode:soft-light;isolation:isolate"><g clip-path="url(#r)"><path d="M350.687,288.36a1.018,1.018,0,1,0-1.018,1.018,1.018,1.018,0,0,0,1.018-1.018" transform="translate(-348.651 -287.342)" fill="#fff"/></g></g><g transform="translate(186.439 169.482)" opacity="0.5" style="mix-blend-mode:soft-light;isolation:isolate"><g clip-path="url(#s)"><path d="M336.964,305.037A1.567,1.567,0,1,0,335.4,306.6a1.567,1.567,0,0,0,1.567-1.567" transform="translate(-333.831 -303.47)" fill="#fff"/></g></g><path d="M242.295,142.772a17.57,17.57,0,0,0,34.474,4.793H284.2a1.886,1.886,0,0,0,1.887-1.886v-2.728Z" transform="translate(-106.978 -63.036)" fill="#feedd3"/><path d="M259.2,109.811a18.411,18.411,0,0,1,18.232,15.864h6.1a2.727,2.727,0,0,1,2.724,2.724v2.727a2.727,2.727,0,0,1-2.724,2.724h-6.805a18.416,18.416,0,1,1-17.526-24.04Zm24.331,22.364a1.05,1.05,0,0,0,1.049-1.049V128.4a1.05,1.05,0,0,0-1.049-1.049h-7.6l-.073-.757a16.716,16.716,0,1,0-.556,6.192l.173-.61Z" transform="translate(-106.315 -48.484)" fill="#363d44"/><path d="M258.531,187.006c0-.879,1.133-1.927.875-2.72-.266-.822-1.808-1-2.305-1.686s-.2-2.21-.892-2.713-2.033.255-2.856-.012c-.793-.257-1.438-1.668-2.317-1.668s-1.524,1.411-2.317,1.669c-.822.267-2.171-.486-2.856.012s-.389,2.022-.892,2.713-2.038.864-2.305,1.686c-.257.793.875,1.841.875,2.72s-1.132,1.927-.875,2.72c.267.822,1.808,1,2.306,1.686s.2,2.21.892,2.713,2.033-.255,2.855.012c.793.258,1.438,1.669,2.317,1.669s1.524-1.411,2.318-1.669c.822-.267,2.171.486,2.855-.012s.389-2.022.892-2.713,2.038-.864,2.305-1.686c.257-.793-.875-1.841-.875-2.72" transform="translate(-107.125 -78.682)" fill="#363d44"/><path d="M257.361,193.64a3.859,3.859,0,1,0-5.457,0,3.858,3.858,0,0,0,5.457,0" transform="translate(-110.721 -82.587)" fill="#8e8e8e"/><g transform="translate(141.183 104.465)" opacity="0.5" style="mix-blend-mode:soft-light;isolation:isolate"><g clip-path="url(#t)"><path d="M258.254,193.64a3.859,3.859,0,0,0-5.457-5.457Z" transform="translate(-252.797 -187.052)" fill="#fff"/></g></g><path d="M20.811.292H-1.1A1.4,1.4,0,0,1-2.5-1.1,1.4,1.4,0,0,1-1.1-2.5H20.811a1.4,1.4,0,0,1,1.4,1.4A1.4,1.4,0,0,1,20.811.292Z" transform="translate(138.144 175.428)" fill="#363d44"/><path d="M13.309.292H-1.1A1.4,1.4,0,0,1-2.5-1.1,1.4,1.4,0,0,1-1.1-2.5H13.309a1.4,1.4,0,0,1,1.4,1.4A1.4,1.4,0,0,1,13.309.292Z" transform="translate(139.01 173.719)" fill="#363d44"/><path d="M8.389.292H-1.1A1.4,1.4,0,0,1-2.5-1.1,1.4,1.4,0,0,1-1.1-2.5H8.389a1.4,1.4,0,0,1,1.4,1.4A1.4,1.4,0,0,1,8.389.292Z" transform="translate(141.156 172.153)" fill="#363d44"/><path d="M280.568,139.392a4.471,4.471,0,1,0-4.471,4.471,4.471,4.471,0,0,0,4.471-4.471" transform="translate(-119.928 -59.57)" fill="#feedd3"/><path d="M268.211,127.8a2.1,2.1,0,1,0-2.1,2.1,2.105,2.105,0,0,0,2.1-2.1" transform="translate(-116.561 -55.496)" fill="#feedd3"/><path d="M281.722,124.845a1.075,1.075,0,1,0-1.075,1.075,1.075,1.075,0,0,0,1.075-1.075" transform="translate(-123.436 -54.647)" fill="#feedd3"/><path d="M287.845,130.454a.99.99,0,1,0-.991.991.991.991,0,0,0,.991-.991" transform="translate(-126.214 -57.16)" fill="#feedd3"/><path d="M273.087,117.338a1.66,1.66,0,1,0-1.66,1.66,1.66,1.66,0,0,0,1.66-1.66" transform="translate(-119.107 -51.074)" fill="#feedd3"/><path d="M413.955,304.023c8.616,0,15.6-3.633,15.6-12.25a15.59,15.59,0,0,0-.685-4.581H399.039a15.592,15.592,0,0,0-.685,4.581c0,8.616,6.985,12.25,15.6,12.25" transform="translate(-175.881 -126.801)" fill="#ef7575"/><path d="M427.257,213.954H418v-4.728a1.4,1.4,0,0,1,1.4-1.4h6.453a1.4,1.4,0,0,1,1.4,1.4Z" transform="translate(-184.555 -91.759)" fill="#363d44"/><g transform="translate(233.01 170.408)" style="mix-blend-mode:soft-light;isolation:isolate"><g clip-path="url(#k)"><path d="M419.634,306.334a1.207,1.207,0,1,0-1.207,1.207,1.207,1.207,0,0,0,1.207-1.207" transform="translate(-417.22 -305.127)" fill="#020202"/></g></g><g transform="translate(231.583 164.523)" style="mix-blend-mode:soft-light;isolation:isolate"><g clip-path="url(#l)"><path d="M417.3,295.907a1.317,1.317,0,1,0-1.317,1.317,1.317,1.317,0,0,0,1.317-1.317" transform="translate(-414.666 -294.59)" fill="#020202"/></g></g><g transform="translate(238.024 172.168)" style="mix-blend-mode:soft-light;isolation:isolate"><g clip-path="url(#m)"><path d="M427.508,308.933a.654.654,0,1,0-.654.654.654.654,0,0,0,.654-.654" transform="translate(-426.199 -308.279)" fill="#020202"/></g></g><g transform="translate(228.897 169.045)" style="mix-blend-mode:soft-light;isolation:isolate"><g clip-path="url(#n)"><path d="M411.217,303.368a.681.681,0,1,0-.681.681.681.681,0,0,0,.681-.681" transform="translate(-409.855 -302.687)" fill="#020202"/></g></g><g transform="translate(237.006 167.745)" style="mix-blend-mode:soft-light;isolation:isolate"><g clip-path="url(#o)"><path d="M425.676,301.009a.65.65,0,1,0-.65.65.65.65,0,0,0,.65-.65" transform="translate(-424.376 -300.359)" fill="#020202"/></g></g><path d="M3.8.175H-.662A.838.838,0,0,1-1.5-.662.838.838,0,0,1-.662-1.5H3.8a.838.838,0,0,1,.838.838A.838.838,0,0,1,3.8.175Z" transform="translate(234.88 127.532)" fill="#363d44"/><path d="M409.268,220.039h7.614A1.117,1.117,0,0,1,418,221.156v14.975a16.582,16.582,0,0,1,3.436,1.5l4.7-4.7a1.117,1.117,0,0,1,1.58,0l2.954,2.954a1.117,1.117,0,0,1,0,1.58L426.2,241.93a15.507,15.507,0,0,1,1.27,3.344,55.7,55.7,0,0,1,1.258,6.056,83.477,83.477,0,0,1,1.059,10.794,13.234,13.234,0,0,1-1.347,6.055,11.5,11.5,0,0,1-3.7,4.214c-2.881,2.026-6.918,3.1-11.674,3.1s-8.792-1.071-11.673-3.1a11.5,11.5,0,0,1-3.7-4.214,13.234,13.234,0,0,1-1.347-6.055c0-3.978,1.382-10.044,3.438-15.1a31.178,31.178,0,0,1,3.883-7.109,11.1,11.1,0,0,1,4.472-3.749V221.156A1.117,1.117,0,0,1,409.268,220.039Zm6.5,2.234h-5.38v14.706a1.117,1.117,0,0,1-.845,1.083c-2.605.653-5.4,4.229-7.674,9.81a49.723,49.723,0,0,0-2.41,7.727,31.663,31.663,0,0,0-.863,6.526,9.7,9.7,0,0,0,4.095,8.442c2.5,1.76,6.1,2.691,10.388,2.691s7.886-.93,10.388-2.691a9.7,9.7,0,0,0,4.095-8.442,81.009,81.009,0,0,0-1.031-10.443c-.753-4.736-1.725-8.156-2.6-9.148a1.117,1.117,0,0,1,.047-1.529l4.329-4.329-1.375-1.375-4.536,4.536a1.117,1.117,0,0,1-1.4.145,14.375,14.375,0,0,0-4.379-1.918,1.117,1.117,0,0,1-.845-1.083Z" transform="translate(-174.999 -97.151)" fill="#363d44"/><path d="M2.385,3.037a.835.835,0,0,1-.573-.227L-1.236-.052a.838.838,0,0,1-.037-1.184A.838.838,0,0,1-.089-1.273L2.959,1.589a.838.838,0,0,1-.574,1.448Z" transform="translate(250.141 139.679)" fill="#363d44"/><path d="M548.885,298.9H538.463a4.074,4.074,0,0,1-4.075-4.075v-15.61H552.96v15.61a4.075,4.075,0,0,1-4.075,4.075" transform="translate(-235.942 -123.279)" fill="#b1fcf3"/><path d="M548,290.472H537.58a5.2,5.2,0,0,1-5.192-5.192V258.712A1.117,1.117,0,0,1,533.5,257.6h18.572a1.117,1.117,0,0,1,1.117,1.117v26.569A5.2,5.2,0,0,1,548,290.472Zm-13.38-30.643v25.452a2.961,2.961,0,0,0,2.958,2.958H548a2.961,2.961,0,0,0,2.958-2.958V259.829Z" transform="translate(-235.059 -113.733)" fill="#363d44"/><path d="M1.663.117h-2.1A.558.558,0,0,1-1-.442.558.558,0,0,1-.442-1h2.1a.558.558,0,0,1,.558.558A.558.558,0,0,1,1.663.117Z" transform="translate(302.045 152.046)" fill="#363d44"/><path d="M1.663.117h-2.1A.558.558,0,0,1-1-.442.558.558,0,0,1-.442-1h2.1a.558.558,0,0,1,.558.558A.558.558,0,0,1,1.663.117Z" transform="translate(302.045 155.451)" fill="#363d44"/><path d="M1.663.117h-2.1A.558.558,0,0,1-1-.442.558.558,0,0,1-.442-1h2.1a.558.558,0,0,1,.558.558A.558.558,0,0,1,1.663.117Z" transform="translate(302.045 158.856)" fill="#363d44"/><path d="M1.663.117h-2.1A.558.558,0,0,1-1-.442.558.558,0,0,1-.442-1h2.1a.558.558,0,0,1,.558.558A.558.558,0,0,1,1.663.117Z" transform="translate(302.045 162.26)" fill="#363d44"/><path d="M1.663.117h-2.1A.558.558,0,0,1-1-.442.558.558,0,0,1-.442-1h2.1a.558.558,0,0,1,.558.558A.558.558,0,0,1,1.663.117Z" transform="translate(302.045 165.665)" fill="#363d44"/><path d="M1.663.117h-2.1A.558.558,0,0,1-1-.442.558.558,0,0,1-.442-1h2.1a.558.558,0,0,1,.558.558A.558.558,0,0,1,1.663.117Z" transform="translate(302.045 169.07)" fill="#363d44"/><path d="M598.924,242.22l-.1,4.96a2.006,2.006,0,0,0,1.2,1.878l1.159.5,1.221.531a2,2,0,0,0,2.176-.38l3.646-3.442Z" transform="translate(-264.393 -106.945)" fill="#363d44"/><path d="M626.593,261l-5.974-3.037c8.189-16.105.592-27.154.265-27.617l5.433-3.924C626.745,227.015,636.708,241.109,626.593,261Z" transform="translate(-274.014 -99.971)" fill="#363d44"/><path d="M608.309,220.578,599,216.526l13.325-30.614a3.137,3.137,0,0,1,4.128-1.625l3.557,1.548a3.137,3.137,0,0,1,1.624,4.128Z" transform="translate(-264.469 -81.251)" fill="#363d44"/><path d="M631.506,190.14a.843.843,0,0,1-.335-.07l-9.309-4.052a.839.839,0,0,1-.433-1.1,3.971,3.971,0,0,1,5.23-2.057l3.556,1.548a3.979,3.979,0,0,1,2.059,5.23.838.838,0,0,1-.461.445.848.848,0,0,1-.307.058" transform="translate(-274.341 -80.589)" fill="#fed5c3"/><path d="M624.412,182.7a3.123,3.123,0,0,1,1.25.261l3.557,1.548a3.137,3.137,0,0,1,1.625,4.128l-9.309-4.052a3.137,3.137,0,0,1,2.878-1.885m0-1.675h0A4.813,4.813,0,0,0,620,183.919a1.676,1.676,0,0,0,.868,2.2l9.309,4.052a1.674,1.674,0,0,0,2.2-.867,4.812,4.812,0,0,0-2.492-6.333l-3.557-1.548a4.778,4.778,0,0,0-1.918-.4" transform="translate(-273.679 -79.927)" fill="#363d44"/><path d="M607.271,233.374l-8.664-3.771a1.342,1.342,0,0,1-.7-1.766l6.216-14.283a1.342,1.342,0,0,1,1.766-.7l8.664,3.771a1.342,1.342,0,0,1,.695,1.766l-6.216,14.283a1.342,1.342,0,0,1-1.766.7" transform="translate(-263.939 -93.932)" fill="#fed5c3"/><path d="M2.18,0H17.758a2.182,2.182,0,0,1,2.18,2.18v9.449a2.183,2.183,0,0,1-2.18,2.18H2.18A2.183,2.183,0,0,1,0,11.629V2.18A2.183,2.183,0,0,1,2.18,0ZM17.757,12.134a.505.505,0,0,0,.5-.5V2.18a.505.505,0,0,0-.5-.5H2.18a.505.505,0,0,0-.5.5v9.449a.505.505,0,0,0,.5.5Z" transform="matrix(0.399, -0.917, 0.917, 0.399, 332.334, 135.57)" fill="#363d44"/><path d="M619.931,231.553a7.635,7.635,0,1,1,7.636-7.636,7.644,7.644,0,0,1-7.636,7.636" transform="translate(-270.339 -95.492)" fill="#fbcfcf"/><path d="M619.268,216.456a6.8,6.8,0,1,1-6.8,6.8,6.8,6.8,0,0,1,6.8-6.8m0-1.675a8.473,8.473,0,1,0,8.473,8.473,8.483,8.483,0,0,0-8.473-8.473" transform="translate(-269.677 -94.83)" fill="#363d44"/><path d="M626.74,227.034a3.692,3.692,0,1,0-3.693,3.693,3.692,3.692,0,0,0,3.693-3.693" transform="translate(-273.456 -98.609)" fill="#363d44"/><path d="M612.385,280.964h-26.85l12.025,12.025h18.8v-8.046a3.979,3.979,0,0,0-3.979-3.979" transform="translate(-258.524 -124.051)" fill="#363d44"/><path d="M583.884,279.451a1.514,1.514,0,0,1-1.512-1.513v-.316a1.985,1.985,0,0,1,1.983-1.983h17.527a1.985,1.985,0,0,1,1.982,1.983v1.828Z" transform="translate(-257.128 -121.7)" fill="#2ee9d6"/><path d="M601.219,275.815a1.145,1.145,0,0,1,1.145,1.145v.991H583.223a.675.675,0,0,1-.675-.675v-.316a1.145,1.145,0,0,1,1.145-1.145Zm0-1.675H583.692a2.824,2.824,0,0,0-2.82,2.82v.316a2.353,2.353,0,0,0,2.351,2.35h20.817V276.96a2.824,2.824,0,0,0-2.82-2.82" transform="translate(-256.466 -121.038)" fill="#363d44"/><path d="M603.689,279.19v.991H584.547a.675.675,0,0,1-.675-.675Z" transform="translate(-257.79 -123.267)" fill="#fed5c3"/><path d="M601.445,305.651a1.117,1.117,0,0,1-1.117-1.117v-4.189a2.6,2.6,0,0,1,2.592-2.593H622.9a1.117,1.117,0,0,1,1.117,1.117v5.665a1.117,1.117,0,0,1-1.117,1.117Z" transform="translate(-265.056 -131.463)" fill="#fed5c3"/><path d="M622.012,297.987v5.665H600.561v-4.189a1.476,1.476,0,0,1,1.476-1.475Zm0-2.234H602.036a3.714,3.714,0,0,0-3.709,3.709v4.189a2.234,2.234,0,0,0,2.234,2.234h21.451a2.234,2.234,0,0,0,2.234-2.234v-5.665a2.234,2.234,0,0,0-2.234-2.234" transform="translate(-264.172 -130.58)" fill="#363d44"/><rect width="21.451" height="1.021" transform="translate(336.389 172.049)" fill="#b1fcf3"/><path d="M-.221,1.73a.278.278,0,0,1-.107-.022.279.279,0,0,1-.15-.365l.7-1.672a.279.279,0,0,1,.365-.15.279.279,0,0,1,.15.365l-.7,1.672A.279.279,0,0,1-.221,1.73Z" transform="translate(350.833 103.74)" fill="#363d44"/><path d="M-.221,1.73a.278.278,0,0,1-.107-.022.279.279,0,0,1-.15-.365l.7-1.672a.279.279,0,0,1,.365-.15.279.279,0,0,1,.15.365l-.7,1.672A.279.279,0,0,1-.221,1.73Z" transform="translate(352.165 104.294)" fill="#363d44"/><path d="M-.221,1.73a.278.278,0,0,1-.107-.022.279.279,0,0,1-.15-.365l.7-1.672a.279.279,0,0,1,.365-.15.279.279,0,0,1,.15.365l-.7,1.672A.279.279,0,0,1-.221,1.73Z" transform="translate(353.497 104.847)" fill="#363d44"/><path d="M-.221,1.73a.278.278,0,0,1-.107-.022.279.279,0,0,1-.15-.365l.7-1.672a.279.279,0,0,1,.365-.15.279.279,0,0,1,.15.365l-.7,1.672A.279.279,0,0,1-.221,1.73Z" transform="translate(354.828 105.401)" fill="#363d44"/><path d="M7.715,3.34a.278.278,0,0,1-.107-.021L-.328.037A.279.279,0,0,1-.479-.328.279.279,0,0,1-.114-.479L7.822,2.8a.279.279,0,0,1-.107.537Z" transform="translate(335.078 133.625)" fill="#363d44"/><path d="M8.624.175H-.662A.838.838,0,0,1-1.5-.662.838.838,0,0,1-.662-1.5H8.624a.838.838,0,0,1,.838.838A.838.838,0,0,1,8.624.175Z" transform="translate(308.394 172.21)" fill="#363d44"/><path d="M338,303.57l-4.409,8.387a2.829,2.829,0,0,0,2.5,4.145h19.979a2.828,2.828,0,0,0,2.5-4.145l-4.518-8.6Z" transform="translate(-147.14 -133.939)" fill="#e55c5c"/><path d="M355.41,297.24H335.431a3.666,3.666,0,0,1-3.246-5.372l8.683-16.519V260.588a1.848,1.848,0,0,1,1.846-1.845h5.413a1.848,1.848,0,0,1,1.846,1.845v14.761l8.683,16.519a3.666,3.666,0,0,1-3.245,5.372Zm-12.7-36.821a.17.17,0,0,0-.17.17v15.174l-8.875,16.885a1.991,1.991,0,0,0,1.763,2.917H355.41a1.991,1.991,0,0,0,1.762-2.917L348.3,275.762V260.588a.17.17,0,0,0-.17-.17Z" transform="translate(-146.478 -114.24)" fill="#363d44"/><g transform="translate(191.977 173.294)" opacity="0.5" style="mix-blend-mode:soft-light;isolation:isolate"><g clip-path="url(#z)"><path d="M346.72,311.782a1.486,1.486,0,1,0-1.486,1.486,1.486,1.486,0,0,0,1.486-1.486" transform="translate(-343.748 -310.296)" fill="#fff"/></g></g><g transform="translate(195.753 176.266)" opacity="0.5" style="mix-blend-mode:soft-light;isolation:isolate"><g clip-path="url(#aa)"><path d="M354.534,317.627a2.012,2.012,0,1,0-2.012,2.012,2.012,2.012,0,0,0,2.012-2.012" transform="translate(-350.51 -315.616)" fill="#fff"/></g></g><g transform="translate(196.853 172.691)" opacity="0.5" style="mix-blend-mode:soft-light;isolation:isolate"><g clip-path="url(#ab)"><path d="M353.685,309.818a.6.6,0,1,0-.6.6.6.6,0,0,0,.6-.6" transform="translate(-352.478 -309.214)" fill="#fff"/></g></g><g transform="translate(191.946 178.03)" opacity="0.5" style="mix-blend-mode:soft-light;isolation:isolate"><g clip-path="url(#ac)"><path d="M345.55,319.7a.928.928,0,1,0-.929.929.929.929,0,0,0,.929-.929" transform="translate(-343.693 -318.775)" fill="#fff"/></g></g><path d="M3.052.175H-.662A.838.838,0,0,1-1.5-.662.838.838,0,0,1-.662-1.5H3.052a.838.838,0,0,1,.838.838A.838.838,0,0,1,3.052.175Z" transform="translate(195.89 149.256)" fill="#363d44"/><path d="M402.355,145.63a6.286,6.286,0,1,0-6.286,6.286,6.286,6.286,0,0,0,6.286-6.286" transform="translate(-172.097 -61.523)" fill="#fff"/><path d="M316.728,179.7a5.469,5.469,0,1,0-5.469,5.469,5.469,5.469,0,0,0,5.469-5.469" transform="translate(-135.012 -76.927)" fill="#fff"/><path d="M441.831,93.456a7.409,7.409,0,1,0-7.409,7.409,7.409,7.409,0,0,0,7.409-7.409" transform="translate(-188.534 -37.991)" fill="#fff"/><path d="M440.82,170.009a2.579,2.579,0,1,0-2.579,2.579,2.579,2.579,0,0,0,2.579-2.579" transform="translate(-192.353 -73.923)" fill="#fff"/><path d="M394.685,190.911a4.739,4.739,0,1,0-4.739,4.739,4.739,4.739,0,0,0,4.739-4.739" transform="translate(-170.075 -82.198)" fill="#fff"/></g></g><g transform="translate(208.091 847.5)"><g clip-path="url(#ad)"><path d="M29.1,15.195c-10.611,1.258-12.651,3.3-13.909,13.909a.448.448,0,0,1-.89,0C13.047,18.493,11.006,16.453.4,15.195a.448.448,0,0,1,0-.89C11.006,13.047,13.047,11.007,14.3.4a.448.448,0,0,1,.89,0C16.453,11.007,18.493,13.047,29.1,14.3a.448.448,0,0,1,0,.89" transform="translate(0 0)" fill="#f9a829"/></g></g></g></g></svg>