<svg xmlns="http://www.w3.org/2000/svg" xmlns:xlink="http://www.w3.org/1999/xlink" width="556" height="316" viewBox="0 0 556 316">
  <defs>
    <clipPath id="clip-path">
      <rect id="Rectángulo_46534" data-name="Rectángulo 46534" width="473.762" height="210.867" fill="none"/>
    </clipPath>
  </defs>
  <g id="Grupo_178778" data-name="Grupo 178778" transform="translate(-580 -3364.56)">
    <path id="Trazado_186253" data-name="Trazado 186253" d="M0,0H556V316H0Z" transform="translate(580 3364.56)" fill="#f6f6f6"/>
    <g id="Grupo_178091" data-name="Grupo 178091" transform="translate(628 3417.126)">
      <g id="Grupo_178090" data-name="Grupo 178090" clip-path="url(#clip-path)">
        <path id="Trazado_186138" data-name="Trazado 186138" d="M144.627,185.615c3.683,0,21.409,11.453,23.056,15.617s2.47,37.222,2.47,39.564-31.565,6.767-35.133,6.507-21.959-14.055-24.154-17.179-2.2-34.1,0-36.441,29.918-8.069,33.761-8.069" transform="translate(-58.448 -99.33)" fill="#8ad6f7"/>
        <path id="Trazado_186139" data-name="Trazado 186139" d="M165.838,227.554c4.136-1.291,8.71-1.531,13-2.156,4.386-.639,8.737-1.513,13.13-2.1.764-.1,1.422.928.579,1.3-7.6,3.36-17.89,6.432-26.36,5.428-1.448-.172-1.86-2.006-.354-2.476" transform="translate(-88.239 -119.495)" fill="#abe0f9"/>
        <path id="Trazado_186140" data-name="Trazado 186140" d="M117.982,208.2a47.451,47.451,0,0,1,7.12,4.846,46.531,46.531,0,0,0,7.5,4.354c.761.363.228,1.552-.578,1.3-5.54-1.723-12.309-4.2-15.5-9.11-.594-.913.55-1.834,1.467-1.391" transform="translate(-62.264 -111.356)" fill="#d1edfb"/>
        <path id="Trazado_186141" data-name="Trazado 186141" d="M157.91,242.923a.882.882,0,0,1,1.758,0c.518,8.481,1.8,17.578.777,26.03-.137,1.141-2.1,1.65-2.317.3-1.345-8.533-.429-17.718-.218-26.328" transform="translate(-84.237 -129.567)" fill="#abe0f9"/>
        <path id="Trazado_186142" data-name="Trazado 186142" d="M120.364,250.046a20.753,20.753,0,0,1,.469-4.443,1.221,1.221,0,0,1,.663-.838c.134-.715.253-1.432.344-2.152a.99.99,0,0,1,1.973,0A58.135,58.135,0,0,0,127.762,257c1.922,4.548,5.521,8.493,6.964,13.2a1.076,1.076,0,0,1-1.345,1.276,13.033,13.033,0,0,1-4.109-1.835c-3.954-1.457-8.03-5.2-9.107-8.9-1.056-3.626-.55-7.155.2-10.692" transform="translate(-63.983 -129.35)" fill="#56caf4"/>
        <path id="Trazado_186143" data-name="Trazado 186143" d="M159.252,193.733c6.212-4.014,18.954-1.082,22.746,5.049.379.614-.239,1.212-.9,1.105-3.324-.542-6.57-1.8-9.9-2.465-3.832-.765-7.665.223-11.485-.307-1.832-.254-1.692-2.591-.466-3.382" transform="translate(-84.732 -102.688)" fill="#56caf4"/>
        <path id="Trazado_186144" data-name="Trazado 186144" d="M224.5,236.37c-.046-1.315,2.179-1.632,2.443-.313.63,3.149,2.01,6.846,1.26,10.041a1.455,1.455,0,0,1-2.586.32c-1.475-2.982-1-6.823-1.117-10.048" transform="translate(-120.139 -125.872)" fill="#abe0f9"/>
        <path id="Trazado_186145" data-name="Trazado 186145" d="M227.4,266.01a1.292,1.292,0,0,1,2.573,0,3.384,3.384,0,0,1-.5,2.83,1.151,1.151,0,0,1-1.577,0,3.384,3.384,0,0,1-.5-2.83" transform="translate(-121.649 -141.723)" fill="#abe0f9"/>
        <path id="Trazado_186146" data-name="Trazado 186146" d="M133.672,198.815a4.035,4.035,0,0,1,.655-.543,4.531,4.531,0,0,1,1.072-.308l.323-.073c-.046.011.447-.138.278-.07a3.37,3.37,0,0,1,1.061-.3,1.122,1.122,0,0,1,1.151,1.091,2.876,2.876,0,0,1-1.1,1.85,2.68,2.68,0,0,1-2.8.665,1.5,1.5,0,0,1-1.019-.966,1.329,1.329,0,0,1,.375-1.345" transform="translate(-71.306 -105.7)" fill="#d1edfb"/>
        <path id="Trazado_186147" data-name="Trazado 186147" d="M144.453,244.249c.572-1.267,2.457-.5,2.521.648.053.957.056,1.918.152,2.872a6.1,6.1,0,0,1,.012,2.824,1.527,1.527,0,0,1-2.473.619c-1.734-1.794-1.131-4.927-.212-6.963" transform="translate(-76.824 -130.358)" fill="#abe0f9"/>
        <path id="Trazado_186148" data-name="Trazado 186148" d="M144.354,264.988a1.061,1.061,0,0,1,1.455,0,1.633,1.633,0,0,1,.429,1.037c.114,1.414-2.427,1.414-2.314,0a1.633,1.633,0,0,1,.429-1.037" transform="translate(-77.018 -141.652)" fill="#abe0f9"/>
        <path id="Trazado_186149" data-name="Trazado 186149" d="M222.178,297.357c2.651-1.019,7.276-.037,7.755-3.7.217-1.655-1.165-5.422.58-6.528a.11.11,0,0,1,.158.061c.482,1.371.273,3.31.47,4.78a5.39,5.39,0,0,1-.732,4.238c-1.577,1.949-5.688,2.344-8.076,2.235a.552.552,0,0,1-.155-1.086" transform="translate(-118.678 -153.648)" fill="#d1edfb"/>
        <path id="Trazado_186150" data-name="Trazado 186150" d="M112.836,280.311a63.22,63.22,0,0,0,13.351,11.5c2.257,1.406,4.54,2.819,6.853,4.14,3.3,1.884,6.206.709,9.686,1.163.267.035.162.381-.058.407-2.923.349-5.9,1.536-8.773.375a65.033,65.033,0,0,1-8.557-4.708c-5.134-3.039-10.291-7.26-13.3-12.288a.5.5,0,0,1,.8-.587" transform="translate(-59.92 -149.924)" fill="#d1edfb"/>
        <path id="Trazado_186151" data-name="Trazado 186151" d="M170.267,184.777c3.314-1.131,6.963-2.94,10.4-1.381,2.295,1.04,5.449,3.164,6.153,5.606a.185.185,0,0,1-.308.17,21.774,21.774,0,0,0-6.182-4.112c-3.366-1.574-6.474,1.19-9.881.995a.65.65,0,0,1-.183-1.278" transform="translate(-90.858 -97.819)" fill="#d1edfb"/>
        <path id="Trazado_186152" data-name="Trazado 186152" d="M35.408,201.217c3.683,0,21.409,11.453,23.056,15.617s2.47,37.222,2.47,39.564S29.37,263.166,25.8,262.906,3.843,248.85,1.647,245.727s-2.2-34.1,0-36.441,29.918-8.069,33.761-8.069" transform="translate(0 -107.68)" fill="#8ad6f7"/>
        <path id="Trazado_186153" data-name="Trazado 186153" d="M56.62,243.156c4.136-1.291,8.71-1.531,13-2.156,4.387-.639,8.738-1.513,13.131-2.1.764-.1,1.422.928.578,1.3-7.6,3.359-17.89,6.432-26.359,5.428-1.449-.172-1.86-2.006-.354-2.476" transform="translate(-29.792 -127.844)" fill="#abe0f9"/>
        <path id="Trazado_186154" data-name="Trazado 186154" d="M8.764,223.8a47.422,47.422,0,0,1,7.119,4.846,46.532,46.532,0,0,0,7.5,4.354c.761.363.228,1.552-.578,1.3-5.541-1.723-12.309-4.2-15.5-9.11-.594-.913.55-1.834,1.467-1.391" transform="translate(-3.817 -119.706)" fill="#abe0f9"/>
        <path id="Trazado_186155" data-name="Trazado 186155" d="M48.692,258.526a.883.883,0,0,1,1.759,0c.517,8.481,1.795,17.578.777,26.03-.137,1.141-2.1,1.65-2.317.3-1.345-8.533-.429-17.718-.219-26.328" transform="translate(-25.79 -137.917)" fill="#abe0f9"/>
        <path id="Trazado_186156" data-name="Trazado 186156" d="M5.242,253a20.749,20.749,0,0,1,.469-4.442,1.221,1.221,0,0,1,.663-.838c.134-.715.253-1.432.344-2.152a.99.99,0,0,1,1.973,0,58.136,58.136,0,0,0,3.949,14.387c1.922,4.548,5.521,8.493,6.964,13.2a1.076,1.076,0,0,1-1.345,1.276,13.034,13.034,0,0,1-4.109-1.835c-3.954-1.457-8.03-5.2-9.107-8.9-1.056-3.626-.551-7.155.2-10.692" transform="translate(-2.377 -130.93)" fill="#56caf4"/>
        <path id="Trazado_186157" data-name="Trazado 186157" d="M50.033,209.336c6.212-4.014,18.954-1.082,22.746,5.049.379.614-.239,1.212-.9,1.105-3.324-.542-6.57-1.8-9.9-2.465-3.832-.765-7.665.223-11.485-.307-1.831-.254-1.692-2.591-.466-3.382" transform="translate(-26.284 -111.038)" fill="#56caf4"/>
        <path id="Trazado_186158" data-name="Trazado 186158" d="M115.281,251.973c-.046-1.315,2.179-1.632,2.443-.314.63,3.149,2.01,6.846,1.26,10.041a1.455,1.455,0,0,1-2.586.32c-1.475-2.982-1-6.823-1.117-10.048" transform="translate(-61.692 -134.221)" fill="#abe0f9"/>
        <path id="Trazado_186159" data-name="Trazado 186159" d="M118.185,281.612a1.291,1.291,0,0,1,2.573,0,3.384,3.384,0,0,1-.5,2.83,1.151,1.151,0,0,1-1.577,0,3.384,3.384,0,0,1-.5-2.83" transform="translate(-63.202 -150.072)" fill="#abe0f9"/>
        <path id="Trazado_186160" data-name="Trazado 186160" d="M24.453,214.418a4.054,4.054,0,0,1,.655-.543,4.512,4.512,0,0,1,1.072-.308l.323-.073c-.046.011.448-.138.278-.07a3.365,3.365,0,0,1,1.06-.3,1.122,1.122,0,0,1,1.151,1.091,2.876,2.876,0,0,1-1.1,1.85,2.679,2.679,0,0,1-2.8.665,1.5,1.5,0,0,1-1.019-.966,1.329,1.329,0,0,1,.375-1.345" transform="translate(-12.858 -114.05)" fill="#abe0f9"/>
        <path id="Trazado_186161" data-name="Trazado 186161" d="M35.234,259.852c.572-1.267,2.457-.5,2.521.648.053.957.055,1.918.152,2.872a6.1,6.1,0,0,1,.012,2.824,1.528,1.528,0,0,1-2.473.619c-1.734-1.794-1.131-4.927-.212-6.963" transform="translate(-18.377 -138.708)" fill="#abe0f9"/>
        <path id="Trazado_186162" data-name="Trazado 186162" d="M35.136,280.591a1.061,1.061,0,0,1,1.455,0,1.632,1.632,0,0,1,.429,1.037c.114,1.414-2.427,1.414-2.314,0a1.632,1.632,0,0,1,.429-1.037" transform="translate(-18.571 -150.002)" fill="#abe0f9"/>
        <path id="Trazado_186163" data-name="Trazado 186163" d="M112.959,312.96c2.651-1.019,7.276-.037,7.755-3.7.217-1.655-1.165-5.422.58-6.527a.11.11,0,0,1,.158.06c.482,1.371.273,3.311.47,4.78a5.391,5.391,0,0,1-.732,4.238c-1.577,1.949-5.688,2.344-8.076,2.235a.552.552,0,0,1-.155-1.086" transform="translate(-60.23 -161.998)" fill="#d1edfb"/>
        <path id="Trazado_186164" data-name="Trazado 186164" d="M3.617,295.913a63.218,63.218,0,0,0,13.351,11.5c2.257,1.406,4.54,2.819,6.853,4.14,3.3,1.884,6.206.709,9.686,1.163.267.035.162.381-.058.407-2.923.349-5.9,1.536-8.773.375a65.033,65.033,0,0,1-8.557-4.708c-5.134-3.039-10.291-7.26-13.3-12.288a.5.5,0,0,1,.8-.587" transform="translate(-1.472 -158.273)" fill="#d1edfb"/>
        <path id="Trazado_186165" data-name="Trazado 186165" d="M61.049,200.379c3.314-1.131,6.963-2.94,10.4-1.381,2.3,1.04,5.449,3.164,6.153,5.606a.185.185,0,0,1-.308.17,21.775,21.775,0,0,0-6.182-4.112c-3.366-1.574-6.474,1.19-9.882.995a.65.65,0,0,1-.182-1.278" transform="translate(-32.41 -106.168)" fill="#d1edfb"/>
        <path id="Trazado_186166" data-name="Trazado 186166" d="M76.945,105.493c3.683,0,21.409,11.453,23.056,15.617s2.47,37.222,2.47,39.564-31.565,6.767-35.133,6.507S45.38,153.126,43.184,150s-2.2-34.1,0-36.441,29.918-8.069,33.761-8.069" transform="translate(-22.228 -56.454)" fill="#abe0f9"/>
        <path id="Trazado_186167" data-name="Trazado 186167" d="M98.157,147.432c4.136-1.291,8.71-1.531,13-2.156,4.387-.639,8.738-1.513,13.131-2.1.764-.1,1.422.928.578,1.3-7.6,3.359-17.89,6.432-26.359,5.428-1.449-.172-1.86-2.006-.354-2.476" transform="translate(-52.02 -76.618)" fill="#d1edfb"/>
        <path id="Trazado_186168" data-name="Trazado 186168" d="M50.3,128.08a47.421,47.421,0,0,1,7.119,4.846,46.532,46.532,0,0,0,7.5,4.354c.761.363.228,1.552-.578,1.3-5.541-1.723-12.309-4.2-15.5-9.11-.594-.913.55-1.834,1.467-1.391" transform="translate(-26.045 -68.48)" fill="#d1edfb"/>
        <path id="Trazado_186169" data-name="Trazado 186169" d="M90.229,162.8a.883.883,0,0,1,1.759,0c.517,8.481,1.795,17.578.777,26.03-.137,1.14-2.1,1.65-2.317.3-1.345-8.533-.429-17.718-.219-26.328" transform="translate(-48.018 -86.691)" fill="#d1edfb"/>
        <path id="Trazado_186170" data-name="Trazado 186170" d="M46.779,157.273a20.753,20.753,0,0,1,.469-4.443,1.221,1.221,0,0,1,.663-.838c.134-.715.253-1.432.344-2.152a.99.99,0,0,1,1.973,0,58.135,58.135,0,0,0,3.949,14.387c1.922,4.548,5.521,8.493,6.964,13.2A1.076,1.076,0,0,1,59.8,178.7a13.045,13.045,0,0,1-4.109-1.835c-3.954-1.457-8.03-5.2-9.107-8.9-1.056-3.626-.55-7.155.2-10.692" transform="translate(-24.605 -79.703)" fill="#8ad6f7"/>
        <path id="Trazado_186171" data-name="Trazado 186171" d="M104.34,212.564a6.952,6.952,0,0,1-.806-5.234c.3-1.739,3.061-2.359,4.229-1.059,5.108,5.684,16.715.61,23.678,1.621a.9.9,0,0,1,.426,1.529c-4.122,3.759-19.508,8.617-25.792,4.775a1.769,1.769,0,0,1-1.736-1.632" transform="translate(-55.32 -110.012)" fill="#8ad6f7"/>
        <path id="Trazado_186172" data-name="Trazado 186172" d="M91.57,113.612c6.212-4.014,18.954-1.082,22.746,5.049.379.613-.239,1.212-.9,1.1-3.324-.542-6.57-1.8-9.9-2.465-3.832-.766-7.665.222-11.485-.307-1.832-.254-1.692-2.591-.466-3.382" transform="translate(-48.513 -59.812)" fill="#8ad6f7"/>
        <path id="Trazado_186173" data-name="Trazado 186173" d="M156.817,156.248c-.046-1.315,2.179-1.632,2.443-.313.63,3.149,2.01,6.846,1.26,10.041a1.455,1.455,0,0,1-2.587.321c-1.474-2.982-1-6.823-1.117-10.048" transform="translate(-83.919 -82.995)" fill="#d1edfb"/>
        <path id="Trazado_186174" data-name="Trazado 186174" d="M159.721,185.888a1.291,1.291,0,0,1,2.573,0,3.384,3.384,0,0,1-.5,2.83,1.151,1.151,0,0,1-1.577,0,3.385,3.385,0,0,1-.5-2.83" transform="translate(-85.43 -98.846)" fill="#d1edfb"/>
        <path id="Trazado_186175" data-name="Trazado 186175" d="M65.99,118.694a4.056,4.056,0,0,1,.655-.543,4.508,4.508,0,0,1,1.073-.307l.323-.073c-.046.011.448-.138.278-.07a3.371,3.371,0,0,1,1.061-.3,1.122,1.122,0,0,1,1.151,1.091,2.875,2.875,0,0,1-1.1,1.85,2.679,2.679,0,0,1-2.8.665,1.5,1.5,0,0,1-1.019-.966,1.329,1.329,0,0,1,.375-1.345" transform="translate(-35.086 -62.824)" fill="#d1edfb"/>
        <path id="Trazado_186176" data-name="Trazado 186176" d="M76.771,164.127c.572-1.267,2.457-.5,2.521.648.053.957.056,1.918.152,2.872a6.1,6.1,0,0,1,.012,2.824,1.528,1.528,0,0,1-2.473.619c-1.734-1.794-1.131-4.927-.212-6.963" transform="translate(-40.605 -87.481)" fill="#d1edfb"/>
        <path id="Trazado_186177" data-name="Trazado 186177" d="M76.673,184.866a1.061,1.061,0,0,1,1.455,0,1.632,1.632,0,0,1,.429,1.037c.114,1.414-2.427,1.414-2.314,0a1.633,1.633,0,0,1,.429-1.037" transform="translate(-40.799 -98.775)" fill="#d1edfb"/>
        <path id="Trazado_186178" data-name="Trazado 186178" d="M154.5,217.235c2.651-1.019,7.276-.037,7.755-3.7.217-1.655-1.165-5.422.58-6.528a.11.11,0,0,1,.158.061c.482,1.371.273,3.31.47,4.78a5.391,5.391,0,0,1-.732,4.238c-1.577,1.949-5.688,2.344-8.075,2.235a.552.552,0,0,1-.155-1.086" transform="translate(-82.459 -110.771)" fill="#d1edfb"/>
        <path id="Trazado_186179" data-name="Trazado 186179" d="M45.154,200.189a63.218,63.218,0,0,0,13.351,11.5c2.257,1.406,4.54,2.819,6.853,4.14,3.3,1.884,6.206.71,9.686,1.163.267.035.162.381-.058.408-2.923.348-5.9,1.536-8.773.375a65.036,65.036,0,0,1-8.557-4.708c-5.134-3.039-10.291-7.26-13.3-12.289a.5.5,0,0,1,.8-.587" transform="translate(-23.7 -107.047)" fill="#d1edfb"/>
        <path id="Trazado_186180" data-name="Trazado 186180" d="M102.585,104.655c3.313-1.131,6.963-2.94,10.4-1.381,2.3,1.04,5.449,3.164,6.153,5.606a.185.185,0,0,1-.308.17,21.774,21.774,0,0,0-6.182-4.112c-3.366-1.574-6.474,1.19-9.882.995a.65.65,0,0,1-.182-1.278" transform="translate(-54.638 -54.942)" fill="#d1edfb"/>
        <path id="Trazado_186181" data-name="Trazado 186181" d="M183.911,273.37c-1.394-.633-4.048-.783-4.815-1.178-.736-.379-1.145-1.518-1.488-2.632-.943-3.056-.478-7.663-2.383-10.283a1.953,1.953,0,0,0-3.527.461c-.641,1.935-.506,4.492-.7,6.529a28.181,28.181,0,0,0,.17,7.385c.989,5.907,8.837,10.124,13.433,5.093,1.358-1.488,1.414-4.42-.693-5.376" transform="translate(-91.424 -138.26)" fill="#56caf4"/>
        <path id="Trazado_186182" data-name="Trazado 186182" d="M84.675,302.99c-2.657.029-5.358-.14-8.008-.324-2.712-.188-5.51-1.549-8.188-.947a1.957,1.957,0,0,0-1.153,2.835c1.336,2.919,5.576,4.026,8.446,4.718a13.981,13.981,0,0,0,10.188-1.53c2.248-1.217,1.211-4.779-1.286-4.752" transform="translate(-35.914 -161.381)" fill="#56caf4"/>
        <path id="Trazado_186183" data-name="Trazado 186183" d="M450.289,287.4a8.688,8.688,0,0,1,3.3,1.445c.567.506.951.137,1.336-.4q2.392-3.35,4.871-6.638a2.959,2.959,0,0,0,.449-3.413,5.316,5.316,0,0,1-.408-3.451c.43-2.165,1.9-3.6,3.373-3.307,1.683.333,3.056,2.5,2.773,4.461a14.832,14.832,0,0,1-2.177,5.6,24.607,24.607,0,0,1-2.71,4.04,15.555,15.555,0,0,0-4.041,10.049.862.862,0,0,0-.036,1.341q-.006.342-.012.685c-.21-.059-.415.849-.582.052a5.62,5.62,0,0,0-.772-1.845c-1.067-1.7-3.128-2.667-4.941-.517a3.692,3.692,0,0,0-.72,2.641,2.195,2.195,0,0,1-4.117,1.266,2.538,2.538,0,0,0-3.212-1.12c-1.365.408-2.541.9-2.9,2.618-.389,1.839-2.8,2.7-4.664,1.891-1.289-.56-1.323-1.311-.142-3.554a6.662,6.662,0,0,0,.672-1.157c.3-1.078.58-2.254-.232-3.188a2.558,2.558,0,0,0-3.089-.566,3.93,3.93,0,0,0-.922.381,2.243,2.243,0,0,1-2.068.2,5.561,5.561,0,0,1-4.415-3.671c-.244-.687-.727-1.5-1.686-1.4a2.135,2.135,0,0,0-1.858,1.476,6.183,6.183,0,0,1-.943,1.577c-1.189,1.5-4.444,1.977-5.413.827a6.681,6.681,0,0,0-7.086-1.683c-1.122.5-1.526,1.266-.69,2.2,1.048,1.175.492,1.786-.576,2.3a9.936,9.936,0,0,1-6.533.732c-1.852-.4-2.127-1.2-.809-2.482,1.141-1.114.733-1.859-.261-2.561a6.349,6.349,0,0,0-3.207-1.212c-1.907-.167-3.588.9-5.456.742-.672-4.226-3.724-6.989-6.211-10.1-.757-.947-1.716-1.761-1.95-3.043l-.161-.354a3.255,3.255,0,0,1,.018-1.986c.521-.04.729.5,1.157.628.017.9-.3,2.1,1.2,2,1.406-.092.98-1.149.844-2,1.015-.437,1.6-1.391,1.082-2.228-.632-1.014-1.7-.417-2.5.143-.453.315-.794.818-1.447.716a3.738,3.738,0,0,1,2.89-2.534,2.308,2.308,0,0,1,3.015,2.231,6.476,6.476,0,0,1-.226,1.814,7.11,7.11,0,0,0,2.566,7.222c.683.525,1.051.166,1.6-.157,1.05-.614,2.161-1.019,3.13.195a18.068,18.068,0,0,0,1.089,2.233,2.11,2.11,0,0,0,2.716,1.042c1.183-.524,1.29-1.583.882-2.693a15.3,15.3,0,0,1-.639-5.938c1.391-2.917,2.539-3.446,5.012-2.46a3.136,3.136,0,0,1,2.057,3.114c.028.671.013,1.343.018,2.015-.549.476-.3,1.158-.437,1.74-.469,2.022-.241,2.264,1.849,1.759,1.706-.412,2.958-.046,3.668,1.664.214.516.5,1,.759,1.5.4.762.813,1.455,1.85,1.472a2,2,0,0,0,1.9-1.39c.177-.351.361-.7.537-1.048,1.342-2.656,2.891-3.117,5.5-1.552,1.341.8,2.591,1.761,3.928,2.575,2.8,1.707,5.293.26,5.429-3.024.069-1.667-1.155-2.857-1.348-4.4a3.813,3.813,0,0,1,.559-2.4c1.477-2.263,3.935-2.073,5.45.41a4.961,4.961,0,0,1-.1,3.585,2.42,2.42,0,0,0,.22,2.682c.856.882,1.875.447,2.816.109,3.386-1.216,3.76-1.051,4.946,2.288.557,1.569,1.027,1.729,2.628.969a8.141,8.141,0,0,1,3.605-1.169m-17.206-8.491a2.035,2.035,0,0,0-1.209,2.751,1.368,1.368,0,0,0,2.032.5c.917-.511,1.749-1.308.881-2.554.035-.61.2-1.33-.565-1.576-.674-.218-1.024.245-1.138.884m31.081-2.689a10.067,10.067,0,0,0-.058-1.831c-.185-.885-.866-1.489-1.7-1.053-1.174.613-1.161,1.975-1.2,3.091a1.357,1.357,0,0,0,1.6,1.5c.6.307,1.27.644,1.776-.036a1.066,1.066,0,0,0-.417-1.667m-61.359,1.37a1.529,1.529,0,0,0-1.234.385c-.825.776-1.2,4.2-.5,5.079.41.514.866.889,1.474.12a6.811,6.811,0,0,0,1.6-2.888c.714-.43,1.208-.97.894-1.882-.409-1.188-1.427-.725-2.24-.815" transform="translate(-204.379 -145.342)" fill="#4fb6f0"/>
        <path id="Trazado_186184" data-name="Trazado 186184" d="M400.02,312.757c1.867.162,3.548-.909,5.456-.743a6.349,6.349,0,0,1,3.207,1.212c.994.7,1.4,1.448.261,2.561-1.317,1.286-1.043,2.083.809,2.483a9.936,9.936,0,0,0,6.533-.732c1.069-.515,1.624-1.127.576-2.3-.835-.937-.431-1.707.69-2.2a6.683,6.683,0,0,1,7.086,1.684c.969,1.15,4.224.673,5.413-.827a6.191,6.191,0,0,0,.943-1.577,2.134,2.134,0,0,1,1.858-1.476c.959-.1,1.442.714,1.686,1.4a5.562,5.562,0,0,0,4.415,3.671,2.244,2.244,0,0,0,2.068-.2,3.932,3.932,0,0,1,.922-.381,2.557,2.557,0,0,1,3.089.565c.812.934.534,2.11.232,3.188a6.687,6.687,0,0,1-.672,1.157c-1.181,2.242-1.147,2.994.142,3.554,1.86.808,4.276-.052,4.664-1.891.362-1.716,1.538-2.21,2.9-2.617a2.537,2.537,0,0,1,3.212,1.12,2.195,2.195,0,0,0,4.117-1.266,3.692,3.692,0,0,1,.72-2.641c1.814-2.15,3.875-1.185,4.941.516a5.627,5.627,0,0,1,.772,1.846c.167.8.372-.11.582-.052.5,2.043-.249,3.267-2.165,4.242a50.157,50.157,0,0,1-14.007,4.49,11.679,11.679,0,0,1-3.649.4,3.2,3.2,0,0,0-2.976-1.767c-2.755-.026-4.229-1.6-4.463-4.345a3.534,3.534,0,0,0-2.541-3.383c-3.923-1.3-6.915.236-8.674,4.726a2.226,2.226,0,0,1-2.626,1.714,2.64,2.64,0,0,1-2.335-2.062,9.316,9.316,0,0,1-.314-3.493,2.16,2.16,0,0,0-1.323-2.458c-1.187-.419-1.814.454-2.429,1.315a9.747,9.747,0,0,1-5.135,4.086c-3.3.983-7.944-.821-8.407-5.1-.3-2.738-.921-3.1-3.744-3.082a2,2,0,0,0-.5.009c-1.278.357-1.491-.363-1.419-1.383Z" transform="translate(-214.016 -166.337)" fill="#6fc2f1"/>
        <path id="Trazado_186185" data-name="Trazado 186185" d="M398.749,314.9c-.072,1.019.141,1.74,1.419,1.383a1.973,1.973,0,0,1,.5-.009c2.824-.019,3.449.344,3.744,3.082.462,4.277,5.109,6.081,8.407,5.1a9.747,9.747,0,0,0,5.135-4.086c.615-.861,1.243-1.734,2.429-1.316a2.162,2.162,0,0,1,1.323,2.459,9.313,9.313,0,0,0,.314,3.492,2.639,2.639,0,0,0,2.335,2.062,2.225,2.225,0,0,0,2.626-1.714c1.759-4.49,4.751-6.022,8.674-4.726a3.536,3.536,0,0,1,2.541,3.383c.234,2.74,1.707,4.319,4.463,4.345a3.2,3.2,0,0,1,2.976,1.767,12.255,12.255,0,0,1-4.266.563,94.074,94.074,0,0,1-30.113-2.321,40.676,40.676,0,0,1-12.042-5.017,2.6,2.6,0,0,1-1.458-2.88q.491-2.783.99-5.565" transform="translate(-212.829 -168.515)" fill="#a7d5ef"/>
        <path id="Trazado_186186" data-name="Trazado 186186" d="M386.878,337.614c2.659,1.39,5.306,2.8,7.979,4.167,6.224,3.173,12.984,4.17,19.824,4.8a155.331,155.331,0,0,0,18.006.342c10.98-.259,21.364-2.546,30.556-8.929.387-.269.9-.782,1.312-.227.393.533-.269.9-.58,1.237-4.375,4.761-9.975,7.339-16.111,8.9-11.3,2.877-22.7,2.328-34.114.818a62.83,62.83,0,0,1-19.663-5.577,18.908,18.908,0,0,1-7.209-5.535" transform="translate(-207.035 -180.623)" fill="#56b7ee"/>
        <path id="Trazado_186187" data-name="Trazado 186187" d="M457.757,281.231c.193,1.541,1.417,2.731,1.348,4.4-.136,3.285-2.627,4.731-5.429,3.024-1.336-.814-2.586-1.77-3.928-2.575-2.61-1.565-4.159-1.1-5.5,1.552-.177.351-.361.7-.537,1.048a2,2,0,0,1-1.9,1.39c-1.037-.017-1.453-.709-1.85-1.472-.259-.5-.545-.985-.759-1.5-.71-1.71-1.963-2.076-3.668-1.664-2.09.505-2.318.263-1.849-1.759.135-.581-.112-1.263.437-1.74.8-.383,1.6-.772,2.4-1.145,1.892-.88,3.75-1.872,5.731-.081a1.446,1.446,0,0,0,1.985-.268c.847-.773,1.7-1.555,1.277-2.863a4.62,4.62,0,0,1-.149-3.127,3.175,3.175,0,0,1,2.493-2.259,2.029,2.029,0,0,1,2.031,1.22c.722,1.142,1.128,2.362.28,3.615a9.606,9.606,0,0,1-1.346,1.494,1.992,1.992,0,0,0-.419,2.478,4.564,4.564,0,0,0,4.021,2.633c2.081-.021,4.112-.362,5.33-2.4M437.27,283.17c.764-.065,1.237-.632,1.945-.61.726.022.681-.654.55-1.127-.192-.695-.776-.593-1.206-.314a2.448,2.448,0,0,0-1.29,2.051m10.286-9.31a.99.99,0,1,0,.078,1.979.878.878,0,0,0,.938-.949.917.917,0,0,0-1.016-1.03" transform="translate(-231.974 -145.65)" fill="#a8d6f0"/>
        <path id="Trazado_186188" data-name="Trazado 186188" d="M392.975,342.7c-9.169-.665-18.544-1.879-27.234-6.141a17.473,17.473,0,0,1-7.262-6.1c-1.8-2.783-1.515-4.822.978-6.977,2.645-2.287,6-2.943,9.214-3.9.287-.086.583-.037.685.3.122.4-.166.613-.456.8-1.131.726-2.314,1.381-3.386,2.185-3.294,2.47-3.455,4.956-.509,7.842,3.5,3.429,7.932,5.249,12.433,6.829a89.369,89.369,0,0,0,17.985,4.167c.43.057,1.065.008,1.015.6-.053.63-.708.364-1.11.389-.672.041-1.347.011-2.353.011" transform="translate(-191.219 -171.003)" fill="#73c2f0"/>
        <path id="Trazado_186189" data-name="Trazado 186189" d="M534.351,314.3c4.425.734,9.246,2.5,9.459,7.862a11.282,11.282,0,0,1-4.856,9.856c-4.612,3.423-10,4.965-15.515,6.177a123.445,123.445,0,0,1-12.474,1.787c-.473.054-1.152.387-1.228-.339-.065-.623.687-.64,1.152-.721A87.694,87.694,0,0,0,526.3,334.82c4.488-1.658,8.889-3.532,12.105-7.3,3.8-4.448,2.591-9.409-2.8-11.684-.465-.2-.934-.383-1.4-.573-.342-.139-.88-.146-.734-.7.112-.423.562-.235.877-.263" transform="translate(-272.78 -168.188)" fill="#75c3ef"/>
        <path id="Trazado_186190" data-name="Trazado 186190" d="M512.294,289.222a8.142,8.142,0,0,0-3.605,1.17c-1.6.759-2.071.6-2.628-.969-1.186-3.339-1.56-3.5-4.946-2.288-.941.338-1.96.773-2.816-.109a2.42,2.42,0,0,1-.22-2.682,4.961,4.961,0,0,0,.1-3.585c1.968-.21,3.255.893,4.434,2.256a5.126,5.126,0,0,0,5.634,1.55,4.089,4.089,0,0,0,3.421-4.146,6.213,6.213,0,0,1,2.171-4.394c.943-.854,1.966-1.362,3.2-.748a3.673,3.673,0,0,1,1.525,3.791,7.062,7.062,0,0,1-2.425,3.359,9.594,9.594,0,0,0-3.841,6.8m1.024-8.95c.343-1.047,1.5-1.368,1.892-2.287.213-.5.438-1.145-.2-1.488-.487-.26-.875.189-1.089.562a3.493,3.493,0,0,0-.6,3.213" transform="translate(-266.384 -147.167)" fill="#a8d6f0"/>
        <path id="Trazado_186191" data-name="Trazado 186191" d="M454.484,379.666c-5.026.279-10.551-.8-16-2.43a7.747,7.747,0,0,1-1.263-.452c-.344-.172-.746-.44-.608-.894a.8.8,0,0,1,.968-.482,91.4,91.4,0,0,0,9.322,1.038c5.079.3,10.144.768,15.256.289a100.581,100.581,0,0,0,10.33-1.089c.449-.089,1.119-.26,1.277.422.146.63-.439.853-.914,1.017A54.013,54.013,0,0,1,463.4,379.3a62.434,62.434,0,0,1-8.916.369" transform="translate(-233.637 -200.888)" fill="#abd6ef"/>
        <path id="Trazado_186192" data-name="Trazado 186192" d="M576.027,332.086c.4-.545-.744-1.426.173-1.707.755-.232,1.408.561,1.905,1.168,1.592,1.941,1.18,4.491-1.043,6.952-2.934,3.247-6.745,5.133-10.667,6.8-2.256.957-4.622,1.661-6.953,2.433-.352.117-.895.626-1.156-.005-.234-.566.421-.7.782-.9a83.365,83.365,0,0,0,11.19-7.087,19.634,19.634,0,0,0,5.122-5.245,3.533,3.533,0,0,0,.645-2.408" transform="translate(-298.737 -176.777)" fill="#abd6ef"/>
        <path id="Trazado_186193" data-name="Trazado 186193" d="M356.1,346.832a70.2,70.2,0,0,1-9.319-2.864,28.471,28.471,0,0,1-6.221-3.277c-3.281-2.367-3.873-6.424-1.264-8.779a5.155,5.155,0,0,1,1.105-.747c.677-.344,1.638-1.036,2.1-.5.571.662-.662.912-1.006,1.423a3.813,3.813,0,0,0,.442,5.062c2.381,2.619,5.506,4.188,8.485,5.949,1.535.907,3.171,1.642,4.761,2.455a1.33,1.33,0,0,1,.919,1.28" transform="translate(-180.697 -176.847)" fill="#abd6ef"/>
        <path id="Trazado_186194" data-name="Trazado 186194" d="M409.748,279.32a15.294,15.294,0,0,0,.638,5.938c.409,1.11.3,2.17-.882,2.693a2.11,2.11,0,0,1-2.716-1.041,17.889,17.889,0,0,1-1.089-2.233c1.387.175,1.568-.846,1.682-1.8.3-2.513-1.154-4.308-4.291-5.4-1.806-.629-2.081-1.231-1.842-3.127a2.055,2.055,0,0,1,2.179-2.073c1.3-.01,2.6.405,2.711,1.942.185,2.483,1.694,3.905,3.608,5.1" transform="translate(-214.686 -145.707)" fill="#a8d6f0"/>
        <path id="Trazado_186195" data-name="Trazado 186195" d="M383.4,279.828c-.428-.132-.636-.668-1.157-.628a.68.68,0,0,1,.336-.741c.653.1.993-.4,1.447-.716.8-.56,1.872-1.157,2.5-.143.522.836-.066,1.791-1.082,2.228-.682-.533-1.365-.124-2.048,0" transform="translate(-204.546 -148.262)" fill="#72c2f0"/>
        <path id="Trazado_186196" data-name="Trazado 186196" d="M543.133,324.977a.862.862,0,0,1,.036-1.341q-.018.671-.036,1.341" transform="translate(-290.492 -173.191)" fill="#6fc2f1"/>
        <path id="Trazado_186197" data-name="Trazado 186197" d="M382.23,285.945l.161.354-.161-.354" transform="translate(-204.548 -153.021)" fill="#72c2f0"/>
        <path id="Trazado_186198" data-name="Trazado 186198" d="M425.78,287.178a6.815,6.815,0,0,1-1.605,2.888c-.607.77-1.063.394-1.473-.12-.7-.881-.326-4.3.5-5.079a1.533,1.533,0,0,1,1.235-.385c-1.125,1.76-.746,2.52,1.346,2.7" transform="translate(-226.008 -152.235)" fill="#6fc2f1"/>
        <path id="Trazado_186199" data-name="Trazado 186199" d="M554.082,279.755a1.357,1.357,0,0,1-1.6-1.5c.039-1.116.026-2.479,1.2-3.091.835-.436,1.515.169,1.7,1.053a10.065,10.065,0,0,1,.057,1.831c-1.39-.18-1.46.694-1.359,1.7" transform="translate(-295.657 -147.177)" fill="#6fc2f1"/>
        <path id="Trazado_186200" data-name="Trazado 186200" d="M492.082,288.017c.869,1.246.036,2.043-.881,2.554a1.368,1.368,0,0,1-2.032-.5,2.034,2.034,0,0,1,1.21-2.751c.251,1.01,1.075.61,1.7.692" transform="translate(-261.674 -153.76)" fill="#6fc2f1"/>
        <path id="Trazado_186201" data-name="Trazado 186201" d="M427.485,287.166c-2.092-.177-2.471-.937-1.346-2.7.813.091,1.831-.373,2.24.815.313.912-.18,1.452-.894,1.882" transform="translate(-227.713 -152.223)" fill="#a8d6f0"/>
        <path id="Trazado_186202" data-name="Trazado 186202" d="M384.736,282.717c.682-.122,1.365-.532,2.048,0,.136.847.562,1.9-.844,2-1.508.1-1.187-1.094-1.2-2" transform="translate(-205.879 -151.152)" fill="#b2e0f9"/>
        <path id="Trazado_186203" data-name="Trazado 186203" d="M555.888,283.215c-.1-1.009-.031-1.883,1.359-1.7a1.066,1.066,0,0,1,.417,1.667c-.507.68-1.174.343-1.776.036" transform="translate(-297.463 -150.637)" fill="#a7d5ef"/>
        <path id="Trazado_186204" data-name="Trazado 186204" d="M493.691,286.936c-.628-.082-1.452.318-1.7-.692.114-.64.464-1.1,1.138-.884.761.246.6.966.565,1.576" transform="translate(-263.284 -152.679)" fill="#a8d6f0"/>
        <path id="Trazado_186205" data-name="Trazado 186205" d="M441.633,293.226a2.447,2.447,0,0,1,1.29-2.051c.43-.279,1.014-.381,1.206.314.131.473.176,1.149-.55,1.127-.709-.021-1.181.546-1.945.61" transform="translate(-236.337 -155.706)" fill="#d2eaf9"/>
        <path id="Trazado_186206" data-name="Trazado 186206" d="M462.659,275.806a.917.917,0,0,1,1.016,1.03.878.878,0,0,1-.938.949.99.99,0,1,1-.078-1.979" transform="translate(-247.077 -147.596)" fill="#d2eaf9"/>
        <path id="Trazado_186207" data-name="Trazado 186207" d="M530.98,281.9a3.493,3.493,0,0,1,.6-3.213c.214-.373.6-.822,1.089-.562.642.343.417.992.2,1.488-.395.919-1.549,1.24-1.892,2.287" transform="translate(-284.046 -148.796)" fill="#d2eaf9"/>
        <path id="Trazado_186208" data-name="Trazado 186208" d="M418.921,70.749c.087-3.688,1.341-7.1,2.546-10.514a85.627,85.627,0,0,1,5.121-11.28c.25-.475.356-1.065,1.133-1.395,1.654,3.641,3.574,7.148,4.663,11.025-.651.723-.358,1.586-.245,2.362.087.6.237,1.08-.447,1.369l0-.012-.278-.384a3.458,3.458,0,0,0-1.091-2.554c.258,1.684.5,3.157.706,4.636a18.043,18.043,0,0,1,.314,4.669c-1.824,1.867-3.829,3.346-6.638,3.115-.156-1.31-.289-2.631-2.047-2.754-1.687-.118-2.2.954-2.4,2.348l-.036.387a2.722,2.722,0,0,0-1.3-1.019m5.027-9.257c-.194-.352.345-1.21-.335-1.338-.741-.139-.824.759-1.007,1.308a9.392,9.392,0,0,0-.675,3.936c.041.4-.22,1.045.4,1.109.5.052.672-.551.806-.959a10.845,10.845,0,0,0,.807-4.056m3.272-8.32c.455.016.749-.155.75-.653a.814.814,0,0,0-.729-.934.719.719,0,0,0-.864.763c-.01.52.342.775.843.824" transform="translate(-224.183 -25.452)" fill="#a8d6f0"/>
        <path id="Trazado_186209" data-name="Trazado 186209" d="M431.417,75.008c.684-.289.535-.77.447-1.369-.114-.777-.406-1.639.245-2.362,1.938,4.978,3.4,10.058,3.029,15.478-.37,5.471-3.861,7.523-8.71,7.245a10.327,10.327,0,0,1-3.764-.744c-2.62-1.2-3.757-3.379-4.066-6.112-.005-.131-.011-.262-.016-.393-.008-.2-.017-.394-.025-.59a.726.726,0,0,0-.148-.734q.011-.5.021-.993c.054-.236.109-.472.164-.708a.854.854,0,0,1,.053-.286,2.726,2.726,0,0,1,1.3,1.019c.053,1.357.331,2.6,2.017,2.657,1.546.051,2.247-.9,2.4-2.346q.026-.147.066-.291c2.808.23,4.814-1.249,6.638-3.115-.081,3.043-.371,5.966-3.889,7.149a2.712,2.712,0,0,0-.841.54,1.32,1.32,0,0,0,.416,2.354,4.452,4.452,0,0,0,3.389-.38c3.152-2.067,3.629-4.468,3.187-8.81-.255-2.5-1.387-4.775-1.91-7.209" transform="translate(-223.908 -38.143)" fill="#72c2f0"/>
        <path id="Trazado_186210" data-name="Trazado 186210" d="M461.911,128.412c.294-4.531,1.971-8.66,3.758-12.747.649-1.484,1.424-2.913,2.165-4.355.271-.528.7-1.15,1.117-.178,1.127,2.6,2.615,5.051,3.281,7.844-.688.519-.034,1.431-.5,2.022-.661-.347-.242-1.223-1.028-1.585-.161,1.082-.5,2.074.492,2.889q0,2.027,0,4.054c-1.364,1.122-2.769,2.153-4.666,2.086-.061-.937-.375-1.776-1.351-2.026-1.145-.294-1.86.411-2.4,1.328-.5-.054-.623.4-.878.668m3.9-7.264c-.125-.356.367-1.225-.369-1.29-.672-.06-.8.8-.922,1.4a2.166,2.166,0,0,0-.018,1c.232.768-.974,1.993.076,2.155.884.136.909-1.438,1.22-2.3a3.39,3.39,0,0,0,.013-.97" transform="translate(-247.188 -59.199)" fill="#a8d6f0"/>
        <path id="Trazado_186211" data-name="Trazado 186211" d="M466.532,138.059c1.9.068,3.3-.964,4.666-2.086.291,2.381-.456,4.174-2.822,5.1-.516.2-1.149.583-1,1.157a1.628,1.628,0,0,0,1.492,1.179c1.1.1,3.37-1.258,3.634-2.359a13.169,13.169,0,0,0-.636-8.7.794.794,0,0,0-.668-.431c-.993-.814-.653-1.806-.492-2.888.786.361.367,1.237,1.028,1.584.461-.591-.193-1.5.5-2.022a31.957,31.957,0,0,1,2.182,9.247c.139,2.156-.047,4.3-1.735,5.9-2.04,1.926-4.552,1.672-6.959,1.041-2.466-.646-3.571-2.516-3.653-5.017l-.164-.415q0-.66.006-1.319c.255-.273.375-.723.878-.668a3.006,3.006,0,0,1,.311.946,1.514,1.514,0,0,0,1.508,1.685c1.329.131,1.606-.965,1.931-1.932" transform="translate(-247.181 -68.816)" fill="#73c2f0"/>
        <path id="Trazado_186212" data-name="Trazado 186212" d="M464.293,225.986c-.028,3.936-2.652,6.367-6.859,6.356-3.969-.01-6.638-3.233-6.57-7.933a6.49,6.49,0,0,1,6.762-6.449c3.832.1,6.7,3.546,6.667,8.026m-3.63-4.783c-.044-1.365-.783-1.836-2.067-1.608-1.435-.013-2.956-.386-4.066.966-1.616-.194-1.8.773-1.645,2.022-.719,2.087-.741,4.061.928,5.763a4.68,4.68,0,0,0,4.885,2.222,4.624,4.624,0,0,0,3.869-3.9c.229-2.123.086-4.116-1.905-5.465" transform="translate(-241.276 -116.638)" fill="#75c3ef"/>
        <path id="Trazado_186213" data-name="Trazado 186213" d="M471.576,58.975c-.56-2.227.472-4.094,1.409-5.955.7-1.392,1.521-2.726,2.315-4.071.23-.39.548-1.123,1.031-.294,1.145,1.966,2.7,3.707,3.34,5.956-.531.279-.093,1.031-.636,1.305a4.753,4.753,0,0,0-1.193-2.449c0,1.854,1.373,3.565.47,5.476-1.1.282-2.137.893-3.34.706-.708-2.064-1.319-2.216-2.7-.675l-.691,0m2.387-5.192c-.248.846-.983,1.589-.518,2.552a.437.437,0,0,0,.407.057c.778-.785.388-1.7.112-2.609" transform="translate(-252.276 -25.834)" fill="#a8d6f0"/>
        <path id="Trazado_186214" data-name="Trazado 186214" d="M479.218,63.208c.543-.274.1-1.026.636-1.305a10.756,10.756,0,0,1,1.3,4.468c0,2.99-1.942,4.871-5.012,4.857-2.781-.013-4.386-1.827-4.386-4.96l.691,0,.367.995c.656,1.29,1.321,1.171,1.992.012l.345-.331c1.2.187,2.236-.423,3.34-.705.319,1.237-.736,1.631-1.409,2.227-.362.32-.707.586-.5,1.106.222.562.752.43,1.166.39,1.411-.135,1.965-1.065,2.133-2.366a10.688,10.688,0,0,0-.666-4.383" transform="translate(-252.459 -33.127)" fill="#75c3ef"/>
        <path id="Trazado_186215" data-name="Trazado 186215" d="M461.9,151.73q.082.207.164.415l-.164-.415" transform="translate(-247.181 -81.197)" fill="#a8d6f0"/>
        <path id="Trazado_186216" data-name="Trazado 186216" d="M439.918,75.908c.523,2.434,1.655,4.711,1.91,7.209.442,4.342-.035,6.743-3.187,8.81a4.452,4.452,0,0,1-3.389.38,1.32,1.32,0,0,1-.416-2.354,2.712,2.712,0,0,1,.841-.54c3.518-1.182,3.808-4.106,3.889-7.149a18.047,18.047,0,0,0-.315-4.67c-.2-1.479-.447-2.952-.705-4.636a3.458,3.458,0,0,1,1.091,2.554l.278.384Z" transform="translate(-232.41 -39.043)" fill="#4fb6f0"/>
        <path id="Trazado_186217" data-name="Trazado 186217" d="M426.132,99.5c-.152,1.445-.853,2.4-2.4,2.346-1.686-.056-1.963-1.3-2.017-2.657q.017-.193.036-.386a24.752,24.752,0,0,1,4.38.7" transform="translate(-225.678 -52.875)" fill="#b2e0f9"/>
        <path id="Trazado_186218" data-name="Trazado 186218" d="M426.173,96.789a24.751,24.751,0,0,0-4.38-.7c.2-1.394.711-2.466,2.4-2.348,1.759.123,1.891,1.444,2.047,2.754q-.038.144-.065.291" transform="translate(-225.719 -50.162)" fill="#d2eaf9"/>
        <path id="Trazado_186219" data-name="Trazado 186219" d="M427.38,75.973a10.842,10.842,0,0,1-.807,4.056c-.134.408-.3,1.012-.806.959-.624-.064-.363-.7-.4-1.109a9.391,9.391,0,0,1,.675-3.936c.183-.549.267-1.448,1.007-1.308.681.128.141.986.335,1.338" transform="translate(-227.614 -39.932)" fill="#d2eaf9"/>
        <path id="Trazado_186220" data-name="Trazado 186220" d="M435.8,57.8c-.5-.05-.853-.305-.842-.825a.718.718,0,0,1,.864-.763.813.813,0,0,1,.729.934c0,.5-.3.669-.75.655" transform="translate(-232.766 -30.077)" fill="#d2eaf9"/>
        <path id="Trazado_186221" data-name="Trazado 186221" d="M446.067,78.837l-.278-.384.278.384" transform="translate(-238.561 -41.984)" fill="#72c2f0"/>
        <path id="Trazado_186222" data-name="Trazado 186222" d="M477.472,135.748a.794.794,0,0,1,.668.431,13.169,13.169,0,0,1,.636,8.7c-.264,1.1-2.529,2.463-3.634,2.359a1.63,1.63,0,0,1-1.492-1.179c-.145-.575.488-.956,1.005-1.157,2.366-.922,3.112-2.716,2.821-5.1l0-4.054" transform="translate(-253.459 -72.645)" fill="#4fb6f0"/>
        <path id="Trazado_186223" data-name="Trazado 186223" d="M467.549,146.546c-.326.967-.6,2.063-1.931,1.932a1.514,1.514,0,0,1-1.508-1.685,3,3,0,0,0-.311-.946c.539-.917,1.255-1.621,2.4-1.328.976.251,1.29,1.089,1.351,2.026" transform="translate(-248.199 -77.302)" fill="#bcdef4"/>
        <path id="Trazado_186224" data-name="Trazado 186224" d="M468.372,131.777a3.388,3.388,0,0,1-.013.97c-.311.859-.336,2.433-1.22,2.3-1.05-.162.157-1.386-.076-2.155a2.166,2.166,0,0,1,.018-1c.119-.6.25-1.46.922-1.4.736.065.244.934.369,1.29" transform="translate(-249.753 -69.827)" fill="#d2eaf9"/>
        <path id="Trazado_186225" data-name="Trazado 186225" d="M455.6,230.166c-1.669-1.7-1.647-3.676-.928-5.762,2.062-.053,2.218-.245,1.645-2.022,1.11-1.353,2.631-.98,4.066-.967a1.277,1.277,0,0,0,.23,1.879c.672.594,1.3.311,1.837-.271,1.992,1.349,2.134,3.343,1.906,5.465-.9,0-1.2-.459-1.338-1.342-.238-1.49-1.866-2.242-2.832-1.3a15.141,15.141,0,0,1-2.738,1.858,3.683,3.683,0,0,0-1.847,2.467" transform="translate(-243.068 -118.458)" fill="#a7d5ef"/>
        <path id="Trazado_186226" data-name="Trazado 186226" d="M457.208,234.852a3.683,3.683,0,0,1,1.847-2.467,15.144,15.144,0,0,0,2.738-1.858c.966-.937,2.594-.185,2.832,1.3.14.883.439,1.342,1.338,1.342a4.625,4.625,0,0,1-3.87,3.9,4.68,4.68,0,0,1-4.885-2.223" transform="translate(-244.672 -123.144)" fill="#d2eaf9"/>
        <path id="Trazado_186227" data-name="Trazado 186227" d="M469.2,223.024c-.541.582-1.165.865-1.837.271a1.277,1.277,0,0,1-.23-1.879c1.283-.228,2.023.243,2.067,1.608" transform="translate(-249.819 -118.46)" fill="#d2eaf9"/>
        <path id="Trazado_186228" data-name="Trazado 186228" d="M456.8,223.531c.573,1.778.417,1.97-1.645,2.022-.159-1.25.029-2.216,1.645-2.022" transform="translate(-243.55 -119.608)" fill="#d2eaf9"/>
        <path id="Trazado_186229" data-name="Trazado 186229" d="M484.7,61.891a10.688,10.688,0,0,1,.666,4.383c-.168,1.3-.722,2.231-2.133,2.366-.414.04-.944.172-1.166-.39-.205-.52.139-.786.5-1.106.673-.6,1.729-.99,1.409-2.227.9-1.911-.476-3.622-.471-5.476a4.753,4.753,0,0,1,1.193,2.449" transform="translate(-257.943 -31.81)" fill="#53b7ef"/>
        <path id="Trazado_186230" data-name="Trazado 186230" d="M475.951,70.774l-.345.331-1.992-.013-.367-.995c1.386-1.541,2-1.388,2.7.676" transform="translate(-253.255 -36.961)" fill="#d2eaf9"/>
        <path id="Trazado_186231" data-name="Trazado 186231" d="M476.124,60.123c.277.911.666,1.825-.112,2.609a.437.437,0,0,1-.407-.057c-.464-.963.27-1.706.518-2.552" transform="translate(-254.436 -32.174)" fill="#d2eaf9"/>
        <path id="Trazado_186232" data-name="Trazado 186232" d="M474.036,73.426l1.992.013c-.671,1.159-1.336,1.278-1.992-.013" transform="translate(-253.677 -39.293)" fill="#b2e0f9"/>
        <path id="Trazado_186233" data-name="Trazado 186233" d="M769.269,149.029c6.268.053,11.892,1.69,16.234,6.538a9.058,9.058,0,0,1,2.023,3.754c.183.68.507.866,1.24.776a10.058,10.058,0,0,1,10.305,6.638c.183.534.182,1.176.953,1.249a7.072,7.072,0,0,0-3.39,1.937,3.665,3.665,0,0,0-1.081,3.986,3.841,3.841,0,0,0,3.118,2.136c2.348.314,4.3-.759,6.234-1.717a2.742,2.742,0,0,1,3.477.4,4.272,4.272,0,0,0,6.055-.5,5.25,5.25,0,0,0,1.09-5.056c1.269,1.982,3.249,2.42,5.41,2.949a6.662,6.662,0,0,1,4.984,6.868,2.68,2.68,0,0,1-2.69,2.776,14.26,14.26,0,0,1-6.19-1,3.563,3.563,0,0,0-3.235.381c-11.823,6.469-24.159,9.216-37.411,4.942-2.139-.69-4.13-1.775-6.323-2.334-2.139-.545-4.182.2-6.254.417-2.277.24-4.4.207-6.171-1.479-.455-.433-.815-.253-1.266.029a20.468,20.468,0,0,1-15.3,2.663,2.5,2.5,0,0,0-1.89.37,41.082,41.082,0,0,1-22.5,5.726,39.652,39.652,0,0,1-21.024-6.348c-2.084-1.369-3.75-1.779-6.121-.369-4.4,2.62-9.968,1.464-13.588-2.451-.684-.74-1.132-.881-2.025-.346A16.264,16.264,0,0,1,662.314,184c-1.96-.359-3.612-1.274-4.235-3.387,1.7-.211,3.414-.378,5.108-.644a14.636,14.636,0,0,0,7.128-2.685,2.12,2.12,0,0,1,2.5-.294,3.384,3.384,0,0,0,2.645.35,1.949,1.949,0,0,1,2.462.832c2.248,2.95,7.415,3.1,9.961,1.494a18.164,18.164,0,0,0,6.625-7.351,2.439,2.439,0,0,1,1-1.314,3.578,3.578,0,0,1,.25.427c1.641,4.161,3.378,4.982,7.753,3.616.82-.256.909.233,1.168.81.638,1.422.718,3.083,1.9,4.276a10.551,10.551,0,0,0,6.965,3.482,12.728,12.728,0,0,0,9.265-2.843c.69-.554,1.192-.551,1.652.167a3.587,3.587,0,0,0,2.485,1.527,10.273,10.273,0,0,0,6.53-.964c2.946-1.325,5.3-3.413,6.085-6.482,1.1-4.259.743-8.47-2.575-11.9-.61-.631-.482-1.067.317-1.387a11.479,11.479,0,0,0,2.542-.936,10.947,10.947,0,0,0,4.765-8.1,19.568,19.568,0,0,0-4.5-15.3,11.488,11.488,0,0,1-2.159-3,21.189,21.189,0,0,1,11.488,5.3,20.56,20.56,0,0,1,6.819,10.83,5.629,5.629,0,0,0,.391.912,13.138,13.138,0,0,0-.658,1.248c-.928,2.675-2.33,4.993-5.048,6.238-.668.306-.542.629-.026,1.029a19.142,19.142,0,0,0,4.863,2.349c1.787.714,3.5,1.568,3.836,3.79.118.774.461,1.025,1.283.649a19.846,19.846,0,0,1,4.669-1.312,11.412,11.412,0,0,1,10.414,3.314c.7.668.978.585,1.515-.136a11.823,11.823,0,0,0,2.167-7.526c-.043-4.961-2.691-8.073-6.711-10.461-1.186-.7-2.625-.682-3.683-1.588m17.878,26.121c1.719,0,2.435.814,2.194,2.3-.1.619-.882,1.48-.208,1.8.927.439.932-.839,1.307-1.331,1.481-1.944.584-5.284-1.761-5.566a8.72,8.72,0,0,1-4.444-1.789c-1.317-.955-3.219-.621-4.826-.022a4.611,4.611,0,0,0-2.348,3.534c.03.608.027,1.472.548,1.664.618.228.783-.671,1.093-1.1a3.093,3.093,0,0,1,3.039-1.487,2.6,2.6,0,0,1,2.177,2.007c.249.8.648.848,1.273.507a3.3,3.3,0,0,1,1.956-.522M765.754,173.1a3.766,3.766,0,0,0-6.009-2.579c-.431.3-.8.774-1.343.211-1.038-1.082-2.36-1.069-3.718-1.04a6.274,6.274,0,0,0-5.6,8.777c.1.246.141.631.544.489.346-.121.3-.45.214-.733a3.456,3.456,0,0,1,.238-2.238,5.871,5.871,0,0,1,7.412-3.031c.957.445,1.811.939,2.721-.225a3.194,3.194,0,0,1,2.1-.772c1.3-.2,2.223.617,3.443,1.141" transform="translate(-352.166 -71.921)" fill="#4fb6f0"/>
        <path id="Trazado_186234" data-name="Trazado 186234" d="M737.657,133.943a11.492,11.492,0,0,0,2.159,3,19.568,19.568,0,0,1,4.5,15.3,10.943,10.943,0,0,1-4.765,8.1,11.482,11.482,0,0,1-2.542.937c-.8.32-.926.756-.317,1.387,3.318,3.432,3.67,7.643,2.575,11.9-.789,3.068-3.14,5.156-6.085,6.481a10.274,10.274,0,0,1-6.53.965,3.586,3.586,0,0,1-2.485-1.527c-.461-.719-.963-.721-1.653-.168a12.728,12.728,0,0,1-9.265,2.844,10.552,10.552,0,0,1-6.965-3.483c-1.184-1.192-1.264-2.854-1.9-4.276-.259-.578-.349-1.066-1.168-.81-4.374,1.367-6.112.545-7.753-3.616a3.6,3.6,0,0,0-.25-.427,2.434,2.434,0,0,0-1,1.314,18.166,18.166,0,0,1-6.626,7.351c-2.545,1.607-7.713,1.457-9.961-1.494a1.949,1.949,0,0,0-2.462-.832,3.382,3.382,0,0,1-2.645-.35,2.121,2.121,0,0,0-2.5.294,14.637,14.637,0,0,1-7.127,2.685c-1.695.266-3.406.433-5.109.644a3.775,3.775,0,0,1,.417-3.439,9.566,9.566,0,0,1,5.779-4.646,34.994,34.994,0,0,1,10.807-1.111,1.922,1.922,0,0,0,2.158-1.606,13.7,13.7,0,0,0,.469-1.951,8.9,8.9,0,0,1,10.312-7.322c1.06.161,1.374-.033,1.512-1.113.719-5.639,6.6-11.11,13.236-10.471a2.159,2.159,0,0,0,2.4-1.183c1.4-2.239,3.767-2.571,6.215-2.405,1.04.07,2.221.763,3.055.277.792-.462.524-1.844.92-2.758a13.088,13.088,0,0,1,6.475-6.454c5.115-2.586,10.561-2.8,16.116-2.032M696.62,165.1a8,8,0,0,0,.019,1.429c.08.436.073,1.111.662,1.124.547.012.448-.653.563-1.03a9.566,9.566,0,0,1,4.231-5.169c2.82-1.874,6.583-.946,9.3-3.127.032-.026.094-.01.14-.02,3-.633,6-1.276,8.885.425a.521.521,0,0,0,.665-.032.428.428,0,0,0,0-.642c-.731-.572-.983-1.479-1.623-2.143-1.829-1.9-4.2-2.058-6.51-2-2.345.055-4.738.469-5.509,3.335-.132.492-.524.495-.924.4a8.191,8.191,0,0,0-5.521.837,7.418,7.418,0,0,0-4.377,6.614m35.418,8.2c.53-.246.606-.65.777-.975a4.376,4.376,0,0,0-.121-4.627,3.345,3.345,0,0,0-3.991-1.46c-.349.088-.749.108-.893-.237-.806-1.944-2.66-2.442-4.353-2.868-1.538-.388-3.281-.932-4.787.279-.469.377-1.186.907-.883,1.488.325.623,1.022.009,1.51-.144,2.766-.862,4.886-.039,6.385,2.545a1.6,1.6,0,0,0,1.731.886,4.553,4.553,0,0,1,4.069,1.965c.694.926.269,2.047.555,3.148" transform="translate(-351.874 -71.469)" fill="#abe0f9"/>
        <path id="Trazado_186235" data-name="Trazado 186235" d="M875.645,165.845c1.058.906,2.5.884,3.683,1.588,4.021,2.388,6.668,5.5,6.711,10.461a11.822,11.822,0,0,1-2.167,7.526c-.537.721-.812.8-1.516.136a11.413,11.413,0,0,0-10.414-3.314,19.848,19.848,0,0,0-4.669,1.312c-.821.376-1.164.125-1.282-.649-.338-2.222-2.05-3.076-3.837-3.79a19.145,19.145,0,0,1-4.863-2.349c-.516-.4-.642-.723.026-1.029,2.718-1.244,4.12-3.563,5.048-6.238a13.112,13.112,0,0,1,.658-1.248c2.818-.923,5.581-2.07,8.61-2.145.25.292.441.2.6-.093a15.174,15.174,0,0,1,3.41-.168" transform="translate(-458.543 -88.737)" fill="#abe0f9"/>
        <path id="Trazado_186236" data-name="Trazado 186236" d="M973.55,206.126a5.249,5.249,0,0,1-1.09,5.056,4.272,4.272,0,0,1-6.055.5,2.742,2.742,0,0,0-3.477-.4c-1.935.958-3.886,2.031-6.234,1.717a3.844,3.844,0,0,1-3.118-2.136,3.664,3.664,0,0,1,1.082-3.986,7.069,7.069,0,0,1,3.39-1.937,19.614,19.614,0,0,1,10.674-1.177,10,10,0,0,1,4.828,2.366" transform="translate(-510.19 -108.874)" fill="#abe0f9"/>
        <path id="Trazado_186237" data-name="Trazado 186237" d="M924.115,216.1a3.3,3.3,0,0,0-1.956.522c-.625.341-1.025.291-1.274-.507a2.6,2.6,0,0,0-2.176-2.007,3.093,3.093,0,0,0-3.039,1.487c-.31.426-.475,1.324-1.093,1.1-.521-.192-.518-1.056-.548-1.664a4.611,4.611,0,0,1,2.348-3.534c1.607-.6,3.509-.933,4.826.022a8.715,8.715,0,0,0,4.444,1.788c2.345.283,3.242,3.623,1.761,5.567-.375.492-.38,1.77-1.307,1.331-.675-.32.107-1.18.208-1.8.242-1.488-.475-2.3-2.194-2.3" transform="translate(-489.135 -112.869)" fill="#a8d6f0"/>
        <path id="Trazado_186238" data-name="Trazado 186238" d="M869.925,213.715c-1.22-.523-2.142-1.338-3.443-1.141a3.193,3.193,0,0,0-2.1.772c-.911,1.164-1.765.67-2.721.225a5.871,5.871,0,0,0-7.412,3.031,3.457,3.457,0,0,0-.238,2.238c.081.283.132.612-.214.733-.4.142-.443-.243-.544-.489a6.274,6.274,0,0,1,5.6-8.777c1.359-.029,2.68-.041,3.718,1.04.54.563.911.085,1.343-.211a3.766,3.766,0,0,1,6.009,2.579" transform="translate(-456.338 -112.54)" fill="#a7d5ef"/>
        <path id="Trazado_186239" data-name="Trazado 186239" d="M741.589,188.531a7.418,7.418,0,0,1,4.377-6.614,8.19,8.19,0,0,1,5.521-.837c.4.091.792.088.925-.4.77-2.866,3.164-3.28,5.509-3.334,2.313-.054,4.681.106,6.51,2,.64.664.892,1.571,1.623,2.143a.427.427,0,0,1,0,.642.52.52,0,0,1-.664.031c-2.89-1.7-5.887-1.058-8.885-.424-.047.01-.109-.006-.141.02-2.717,2.182-6.481,1.254-9.3,3.128a9.566,9.566,0,0,0-4.231,5.169c-.114.377-.015,1.042-.562,1.03-.589-.013-.582-.688-.662-1.124a8,8,0,0,1-.019-1.429" transform="translate(-396.843 -94.899)" fill="#d1edfb"/>
        <path id="Trazado_186240" data-name="Trazado 186240" d="M801.32,206.828c-.286-1.1.139-2.222-.555-3.148a4.553,4.553,0,0,0-4.069-1.965,1.6,1.6,0,0,1-1.731-.886c-1.5-2.584-3.619-3.407-6.385-2.545-.488.152-1.185.767-1.51.144-.3-.581.414-1.11.883-1.488,1.507-1.211,3.249-.667,4.787-.279,1.693.426,3.547.924,4.353,2.868.143.345.543.325.892.237a3.345,3.345,0,0,1,3.991,1.46,4.375,4.375,0,0,1,.121,4.627c-.171.325-.247.729-.777.975" transform="translate(-421.156 -104.993)" fill="#d1edfb"/>
        <path id="Trazado_186241" data-name="Trazado 186241" d="M219.083,144.909l-2.192-1.724L228,129.061a73.18,73.18,0,0,1,51.143-27.586l17.788-1.514.236,2.779-17.788,1.514a70.381,70.381,0,0,0-49.187,26.531Z" transform="translate(-116.068 -53.494)" fill="#a21e00"/>
        <path id="Trazado_186242" data-name="Trazado 186242" d="M612.223,136.491,602.712,125.7a70.381,70.381,0,0,0-50.6-23.734l-17.96-.518.08-2.788,17.96.518A73.179,73.179,0,0,1,604.8,123.856l9.511,10.791Z" transform="translate(-285.849 -52.797)" fill="#a21e00"/>
        <path id="Trazado_186243" data-name="Trazado 186243" d="M620.419,307.361l-.087-2.788,14.094-.441a70.379,70.379,0,0,0,50.539-23.855l11.848-13.508,2.1,1.839-11.848,13.508a73.178,73.178,0,0,1-52.548,24.8Z" transform="translate(-331.966 -142.76)" fill="#4fb6f0"/>
        <path id="Trazado_186244" data-name="Trazado 186244" d="M266.319,352.392a73.215,73.215,0,0,1-49.068-18.92l-9.78-8.875,1.874-2.066,9.78,8.875a70.38,70.38,0,0,0,52.921,17.96l17.907-1.482.23,2.78-17.907,1.482Q269.3,352.393,266.319,352.392Z" transform="translate(-102.56 -174.467)" fill="#4fb6f0"/>
        <path id="Trazado_186245" data-name="Trazado 186245" d="M450.08,53.829,396.922,27.435a235.858,235.858,0,0,0-207.484-.51L145.129,48.654l-1.228-2.5L188.21,24.421a238.664,238.664,0,0,1,209.952.516L451.32,51.331Z" transform="translate(-77.008 -0.188)" fill="#a21e00"/>
        <path id="Trazado_186246" data-name="Trazado 186246" d="M281.841,351.659a260.508,260.508,0,0,1-100.232-19.841l-64.263-26.394,1.06-2.58,64.263,26.394C236.023,351.151,292,354.676,353.81,340.014a179.314,179.314,0,0,0,98.1-62.365l11.648-14.567,2.178,1.742-11.648,14.567a182.115,182.115,0,0,1-99.638,63.337A313.948,313.948,0,0,1,281.841,351.659Z" transform="translate(-62.796 -140.786)" fill="#4fb6f0"/>
        <path id="Trazado_186247" data-name="Trazado 186247" d="M787.554,104.446l5.387-8.889,5,9.11Z" transform="translate(-421.454 -51.137)" fill="#a21e00"/>
        <path id="Trazado_186248" data-name="Trazado 186248" d="M691.486,171.149l9.425-4.382-.917,10.353Z" transform="translate(-370.043 -89.244)" fill="#a21e00"/>
        <path id="Trazado_186249" data-name="Trazado 186249" d="M380.609,102.191,380.566,91.8l9.022,5.159Z" transform="translate(-203.657 -49.125)" fill="#a21e00"/>
        <path id="Trazado_186250" data-name="Trazado 186250" d="M206.327,326.336l-.043-10.394,9.022,5.159Z" transform="translate(-101.924 -170.94)" fill="#4fb6f0"/>
        <path id="Trazado_186251" data-name="Trazado 186251" d="M614.985,353.524l-6.7-7.949,10.232-1.826Z" transform="translate(-325.521 -183.955)" fill="#4fb6f0"/>
        <path id="Trazado_186252" data-name="Trazado 186252" d="M114.445,354.224l-3.87-9.646,10.289,1.472Z" transform="translate(-59.173 -184.398)" fill="#4fb6f0"/>
      </g>
    </g>
    <path id="Trazado_187462" data-name="Trazado 187462" d="M6.05-2.611A1.052,1.052,0,0,0,5.64-3.5,5.38,5.38,0,0,0,4.163-4.16a10.467,10.467,0,0,1-1.688-.68,2.759,2.759,0,0,1-1.7-2.468,2.4,2.4,0,0,1,.455-1.439A2.965,2.965,0,0,1,2.54-9.734,4.914,4.914,0,0,1,4.45-10.09a4.473,4.473,0,0,1,1.9.386,3.026,3.026,0,0,1,1.3,1.09,2.853,2.853,0,0,1,.461,1.6H6.057a1.342,1.342,0,0,0-.431-1.063,1.77,1.77,0,0,0-1.21-.379,1.891,1.891,0,0,0-1.169.318A1,1,0,0,0,2.83-7.3a.96.96,0,0,0,.489.813,5.522,5.522,0,0,0,1.439.615,6.217,6.217,0,0,1,2.55,1.306,2.6,2.6,0,0,1,.8,1.941A2.4,2.4,0,0,1,7.13-.6,4.279,4.279,0,0,1,4.5.137a5.082,5.082,0,0,1-2.092-.42A3.31,3.31,0,0,1,.967-1.436a2.95,2.95,0,0,1-.5-1.7H2.529q0,1.647,1.969,1.647a1.915,1.915,0,0,0,1.142-.3A.967.967,0,0,0,6.05-2.611ZM13.795-.752a2.477,2.477,0,0,1-2.023.889A2.337,2.337,0,0,1,9.957-.547a2.918,2.918,0,0,1-.639-2V-7.4h1.976v4.784q0,1.157,1.053,1.157a1.426,1.426,0,0,0,1.381-.7V-7.4h1.982V0H13.85ZM23.864-3.63a4.479,4.479,0,0,1-.759,2.772,2.513,2.513,0,0,1-2.119.995,2.309,2.309,0,0,1-1.921-.923L18.977,0H17.2V-10.5h1.976v3.767a2.25,2.25,0,0,1,1.8-.8,2.534,2.534,0,0,1,2.123.995,4.485,4.485,0,0,1,.769,2.8Zm-1.976-.144a2.942,2.942,0,0,0-.355-1.637,1.2,1.2,0,0,0-1.06-.516,1.3,1.3,0,0,0-1.3.772v2.919a1.321,1.321,0,0,0,1.313.779A1.22,1.22,0,0,0,21.745-2.4,4.866,4.866,0,0,0,21.889-3.773ZM27.166,0H25.184V-10.5h1.982Zm3.712,0H28.9V-7.4h1.982Zm-2.1-9.311a.973.973,0,0,1,.3-.731,1.117,1.117,0,0,1,.81-.287,1.12,1.12,0,0,1,.807.287.967.967,0,0,1,.3.731.97.97,0,0,1-.3.738,1.122,1.122,0,0,1-.8.287,1.122,1.122,0,0,1-.8-.287A.97.97,0,0,1,28.779-9.311ZM34.357-7.4l.062.827a2.6,2.6,0,0,1,2.126-.964,1.973,1.973,0,0,1,1.962,1.128,2.54,2.54,0,0,1,2.222-1.128,2.206,2.206,0,0,1,1.791.7,3.221,3.221,0,0,1,.588,2.109V0H41.125V-4.717a1.408,1.408,0,0,0-.246-.919,1.091,1.091,0,0,0-.868-.291,1.233,1.233,0,0,0-1.23.848L38.787,0H36.812V-4.71a1.391,1.391,0,0,0-.253-.93,1.1,1.1,0,0,0-.861-.287,1.28,1.28,0,0,0-1.217.7V0H32.5V-7.4ZM48.911,0a2.194,2.194,0,0,1-.2-.663,2.39,2.39,0,0,1-1.866.8,2.626,2.626,0,0,1-1.8-.629,2.023,2.023,0,0,1-.714-1.586,2.09,2.09,0,0,1,.872-1.8,4.3,4.3,0,0,1,2.519-.636h.909v-.424a1.219,1.219,0,0,0-.263-.82,1.035,1.035,0,0,0-.831-.308,1.177,1.177,0,0,0-.783.239.813.813,0,0,0-.284.656H44.5a1.984,1.984,0,0,1,.4-1.189,2.621,2.621,0,0,1,1.121-.858,4.086,4.086,0,0,1,1.627-.311,3.228,3.228,0,0,1,2.17.687,2.4,2.4,0,0,1,.8,1.931v3.206a3.536,3.536,0,0,0,.294,1.593V0ZM47.277-1.374a1.7,1.7,0,0,0,.807-.195,1.28,1.28,0,0,0,.547-.523V-3.363h-.738q-1.483,0-1.579,1.025l-.007.116a.791.791,0,0,0,.26.608A1.009,1.009,0,0,0,47.277-1.374Zm7.93-.082a1.3,1.3,0,0,0,.889-.3,1.054,1.054,0,0,0,.355-.8H58.3a2.534,2.534,0,0,1-.41,1.377,2.706,2.706,0,0,1-1.1.971,3.455,3.455,0,0,1-1.548.345,3.211,3.211,0,0,1-2.5-1.008,3.99,3.99,0,0,1-.916-2.786v-.13a3.944,3.944,0,0,1,.909-2.728,3.174,3.174,0,0,1,2.5-1.019,3.111,3.111,0,0,1,2.225.79,2.8,2.8,0,0,1,.851,2.1H56.451A1.358,1.358,0,0,0,56.1-5.58a1.185,1.185,0,0,0-.9-.361,1.19,1.19,0,0,0-1.042.5A2.916,2.916,0,0,0,53.8-3.8V-3.6a2.953,2.953,0,0,0,.349,1.643A1.2,1.2,0,0,0,55.207-1.456ZM61.517,0H59.534V-7.4h1.982Zm-2.1-9.311a.973.973,0,0,1,.3-.731,1.117,1.117,0,0,1,.81-.287,1.12,1.12,0,0,1,.807.287.967.967,0,0,1,.3.731.97.97,0,0,1-.3.738,1.122,1.122,0,0,1-.8.287,1.122,1.122,0,0,1-.8-.287A.97.97,0,0,1,59.418-9.311Zm3.418,5.544a4.387,4.387,0,0,1,.424-1.962,3.1,3.1,0,0,1,1.22-1.333,3.56,3.56,0,0,1,1.849-.472,3.368,3.368,0,0,1,2.444.916,3.676,3.676,0,0,1,1.056,2.488l.014.506a3.866,3.866,0,0,1-.95,2.731A3.3,3.3,0,0,1,66.343.137,3.319,3.319,0,0,1,63.79-.889a3.934,3.934,0,0,1-.954-2.789Zm1.976.14a2.765,2.765,0,0,0,.4,1.612,1.308,1.308,0,0,0,1.135.558,1.311,1.311,0,0,0,1.121-.551,3.025,3.025,0,0,0,.4-1.763,2.737,2.737,0,0,0-.4-1.6,1.311,1.311,0,0,0-1.135-.568,1.29,1.29,0,0,0-1.121.565A3.076,3.076,0,0,0,64.812-3.626ZM66.719-10.5h2.153L66.979-8.381H65.372Zm6.159,3.1.062.854a2.582,2.582,0,0,1,2.126-.991,2.146,2.146,0,0,1,1.75.69A3.221,3.221,0,0,1,77.4-4.778V0H75.428V-4.73a1.282,1.282,0,0,0-.273-.913,1.224,1.224,0,0,0-.909-.284,1.359,1.359,0,0,0-1.251.711V0H71.019V-7.4Z" transform="translate(819 3406.422)" fill="#12263f"/>
    <path id="Trazado_187467" data-name="Trazado 187467" d="M6.05-2.611A1.052,1.052,0,0,0,5.64-3.5,5.38,5.38,0,0,0,4.163-4.16a10.467,10.467,0,0,1-1.688-.68,2.759,2.759,0,0,1-1.7-2.468,2.4,2.4,0,0,1,.455-1.439A2.965,2.965,0,0,1,2.54-9.734,4.914,4.914,0,0,1,4.45-10.09a4.473,4.473,0,0,1,1.9.386,3.026,3.026,0,0,1,1.3,1.09,2.853,2.853,0,0,1,.461,1.6H6.057a1.342,1.342,0,0,0-.431-1.063,1.77,1.77,0,0,0-1.21-.379,1.891,1.891,0,0,0-1.169.318A1,1,0,0,0,2.83-7.3a.96.96,0,0,0,.489.813,5.522,5.522,0,0,0,1.439.615,6.217,6.217,0,0,1,2.55,1.306,2.6,2.6,0,0,1,.8,1.941A2.4,2.4,0,0,1,7.13-.6,4.279,4.279,0,0,1,4.5.137a5.082,5.082,0,0,1-2.092-.42A3.31,3.31,0,0,1,.967-1.436a2.95,2.95,0,0,1-.5-1.7H2.529q0,1.647,1.969,1.647a1.915,1.915,0,0,0,1.142-.3A.967.967,0,0,0,6.05-2.611ZM13.795-.752a2.477,2.477,0,0,1-2.023.889A2.337,2.337,0,0,1,9.957-.547a2.918,2.918,0,0,1-.639-2V-7.4h1.976v4.784q0,1.157,1.053,1.157a1.426,1.426,0,0,0,1.381-.7V-7.4h1.982V0H13.85ZM23.864-3.63a4.479,4.479,0,0,1-.759,2.772,2.513,2.513,0,0,1-2.119.995,2.309,2.309,0,0,1-1.921-.923L18.977,0H17.2V-10.5h1.976v3.767a2.25,2.25,0,0,1,1.8-.8,2.534,2.534,0,0,1,2.123.995,4.485,4.485,0,0,1,.769,2.8Zm-1.976-.144a2.942,2.942,0,0,0-.355-1.637,1.2,1.2,0,0,0-1.06-.516,1.3,1.3,0,0,0-1.3.772v2.919a1.321,1.321,0,0,0,1.313.779A1.22,1.22,0,0,0,21.745-2.4,4.866,4.866,0,0,0,21.889-3.773ZM27.166,0H25.184V-10.5h1.982Zm3.712,0H28.9V-7.4h1.982Zm-2.1-9.311a.973.973,0,0,1,.3-.731,1.117,1.117,0,0,1,.81-.287,1.12,1.12,0,0,1,.807.287.967.967,0,0,1,.3.731.97.97,0,0,1-.3.738,1.122,1.122,0,0,1-.8.287,1.122,1.122,0,0,1-.8-.287A.97.97,0,0,1,28.779-9.311ZM34.357-7.4l.062.827a2.6,2.6,0,0,1,2.126-.964,1.973,1.973,0,0,1,1.962,1.128,2.54,2.54,0,0,1,2.222-1.128,2.206,2.206,0,0,1,1.791.7,3.221,3.221,0,0,1,.588,2.109V0H41.125V-4.717a1.408,1.408,0,0,0-.246-.919,1.091,1.091,0,0,0-.868-.291,1.233,1.233,0,0,0-1.23.848L38.787,0H36.812V-4.71a1.391,1.391,0,0,0-.253-.93,1.1,1.1,0,0,0-.861-.287,1.28,1.28,0,0,0-1.217.7V0H32.5V-7.4ZM48.911,0a2.194,2.194,0,0,1-.2-.663,2.39,2.39,0,0,1-1.866.8,2.626,2.626,0,0,1-1.8-.629,2.023,2.023,0,0,1-.714-1.586,2.09,2.09,0,0,1,.872-1.8,4.3,4.3,0,0,1,2.519-.636h.909v-.424a1.219,1.219,0,0,0-.263-.82,1.035,1.035,0,0,0-.831-.308,1.177,1.177,0,0,0-.783.239.813.813,0,0,0-.284.656H44.5a1.984,1.984,0,0,1,.4-1.189,2.621,2.621,0,0,1,1.121-.858,4.086,4.086,0,0,1,1.627-.311,3.228,3.228,0,0,1,2.17.687,2.4,2.4,0,0,1,.8,1.931v3.206a3.536,3.536,0,0,0,.294,1.593V0ZM47.277-1.374a1.7,1.7,0,0,0,.807-.195,1.28,1.28,0,0,0,.547-.523V-3.363h-.738q-1.483,0-1.579,1.025l-.007.116a.791.791,0,0,0,.26.608A1.009,1.009,0,0,0,47.277-1.374Zm7.93-.082a1.3,1.3,0,0,0,.889-.3,1.054,1.054,0,0,0,.355-.8H58.3a2.534,2.534,0,0,1-.41,1.377,2.706,2.706,0,0,1-1.1.971,3.455,3.455,0,0,1-1.548.345,3.211,3.211,0,0,1-2.5-1.008,3.99,3.99,0,0,1-.916-2.786v-.13a3.944,3.944,0,0,1,.909-2.728,3.174,3.174,0,0,1,2.5-1.019,3.111,3.111,0,0,1,2.225.79,2.8,2.8,0,0,1,.851,2.1H56.451A1.358,1.358,0,0,0,56.1-5.58a1.185,1.185,0,0,0-.9-.361,1.19,1.19,0,0,0-1.042.5A2.916,2.916,0,0,0,53.8-3.8V-3.6a2.953,2.953,0,0,0,.349,1.643A1.2,1.2,0,0,0,55.207-1.456ZM61.517,0H59.534V-7.4h1.982Zm-2.1-9.311a.973.973,0,0,1,.3-.731,1.117,1.117,0,0,1,.81-.287,1.12,1.12,0,0,1,.807.287.967.967,0,0,1,.3.731.97.97,0,0,1-.3.738,1.122,1.122,0,0,1-.8.287,1.122,1.122,0,0,1-.8-.287A.97.97,0,0,1,59.418-9.311Zm3.418,5.544a4.387,4.387,0,0,1,.424-1.962,3.1,3.1,0,0,1,1.22-1.333,3.56,3.56,0,0,1,1.849-.472,3.368,3.368,0,0,1,2.444.916,3.676,3.676,0,0,1,1.056,2.488l.014.506a3.866,3.866,0,0,1-.95,2.731A3.3,3.3,0,0,1,66.343.137,3.319,3.319,0,0,1,63.79-.889a3.934,3.934,0,0,1-.954-2.789Zm1.976.14a2.765,2.765,0,0,0,.4,1.612,1.308,1.308,0,0,0,1.135.558,1.311,1.311,0,0,0,1.121-.551,3.025,3.025,0,0,0,.4-1.763,2.737,2.737,0,0,0-.4-1.6,1.311,1.311,0,0,0-1.135-.568,1.29,1.29,0,0,0-1.121.565A3.076,3.076,0,0,0,64.812-3.626ZM66.719-10.5h2.153L66.979-8.381H65.372Zm6.159,3.1.062.854a2.582,2.582,0,0,1,2.126-.991,2.146,2.146,0,0,1,1.75.69A3.221,3.221,0,0,1,77.4-4.778V0H75.428V-4.73a1.282,1.282,0,0,0-.273-.913,1.224,1.224,0,0,0-.909-.284,1.359,1.359,0,0,0-1.251.711V0H71.019V-7.4ZM86.543-5.544a5.367,5.367,0,0,0-.711-.055,1.447,1.447,0,0,0-1.47.759V0H82.387V-7.4h1.866l.055.882a1.831,1.831,0,0,1,1.647-1.019,2.07,2.07,0,0,1,.615.089ZM90.9.137a3.631,3.631,0,0,1-2.649-1,3.548,3.548,0,0,1-1.022-2.659v-.191A4.468,4.468,0,0,1,87.657-5.7a3.161,3.161,0,0,1,1.22-1.354,3.425,3.425,0,0,1,1.8-.475,3.07,3.07,0,0,1,2.389.957,3.889,3.889,0,0,1,.872,2.714v.807h-4.71a1.835,1.835,0,0,0,.578,1.162,1.746,1.746,0,0,0,1.22.438,2.132,2.132,0,0,0,1.784-.827L93.782-1.2a2.966,2.966,0,0,1-1.2.981A3.947,3.947,0,0,1,90.9.137ZM90.672-5.94a1.234,1.234,0,0,0-.954.4A2.062,2.062,0,0,0,89.25-4.4H92V-4.56a1.471,1.471,0,0,0-.355-1.02A1.274,1.274,0,0,0,90.672-5.94Zm4.1,2.188a4.335,4.335,0,0,1,.81-2.741,2.625,2.625,0,0,1,2.184-1.039,2.3,2.3,0,0,1,1.894.834l.082-.7h1.791v7.15a3.161,3.161,0,0,1-.441,1.688,2.832,2.832,0,0,1-1.241,1.094,4.362,4.362,0,0,1-1.873.376,4.056,4.056,0,0,1-1.586-.325,2.815,2.815,0,0,1-1.169-.837L96.1.547a2.314,2.314,0,0,0,1.791.827,1.694,1.694,0,0,0,1.224-.42,1.577,1.577,0,0,0,.438-1.193v-.4a2.285,2.285,0,0,1-1.8.772A2.618,2.618,0,0,1,95.6-.906a4.334,4.334,0,0,1-.824-2.765Zm1.976.147a2.7,2.7,0,0,0,.4,1.578,1.283,1.283,0,0,0,1.107.572,1.372,1.372,0,0,0,1.292-.678V-5.249a1.369,1.369,0,0,0-1.278-.678,1.291,1.291,0,0,0-1.118.582A3.042,3.042,0,0,0,96.749-3.606Zm10.459-1.938A5.367,5.367,0,0,0,106.5-5.6a1.447,1.447,0,0,0-1.47.759V0h-1.976V-7.4h1.866l.055.882a1.831,1.831,0,0,1,1.647-1.019,2.07,2.07,0,0,1,.615.089ZM111.563.137a3.631,3.631,0,0,1-2.649-1,3.548,3.548,0,0,1-1.022-2.659v-.191a4.468,4.468,0,0,1,.431-1.993,3.161,3.161,0,0,1,1.22-1.354,3.425,3.425,0,0,1,1.8-.475,3.07,3.07,0,0,1,2.389.957,3.889,3.889,0,0,1,.872,2.714v.807h-4.71a1.835,1.835,0,0,0,.578,1.162,1.746,1.746,0,0,0,1.22.438,2.132,2.132,0,0,0,1.784-.827l.971,1.087a2.966,2.966,0,0,1-1.2.981A3.947,3.947,0,0,1,111.563.137Zm-.226-6.077a1.234,1.234,0,0,0-.954.4,2.062,2.062,0,0,0-.468,1.14h2.748V-4.56a1.471,1.471,0,0,0-.355-1.02A1.274,1.274,0,0,0,111.337-5.94Zm8.395,3.9a.637.637,0,0,0-.359-.571,4.077,4.077,0,0,0-1.152-.373q-2.639-.554-2.639-2.242a2.032,2.032,0,0,1,.817-1.644,3.3,3.3,0,0,1,2.136-.66,3.547,3.547,0,0,1,2.252.663,2.09,2.09,0,0,1,.844,1.723h-1.976a.956.956,0,0,0-.273-.7,1.157,1.157,0,0,0-.854-.277,1.182,1.182,0,0,0-.772.226.712.712,0,0,0-.273.574.609.609,0,0,0,.311.53,3.2,3.2,0,0,0,1.049.349,8.571,8.571,0,0,1,1.244.332,2.044,2.044,0,0,1,1.565,1.989,1.929,1.929,0,0,1-.868,1.637,3.745,3.745,0,0,1-2.242.625,3.912,3.912,0,0,1-1.651-.332A2.77,2.77,0,0,1,115.76-1.1a2.113,2.113,0,0,1-.41-1.248h1.873a1.031,1.031,0,0,0,.39.807,1.546,1.546,0,0,0,.971.28,1.43,1.43,0,0,0,.858-.215A.67.67,0,0,0,119.731-2.044ZM125.009,0h-1.982V-7.4h1.982Zm-2.1-9.311a.973.973,0,0,1,.3-.731,1.117,1.117,0,0,1,.81-.287,1.12,1.12,0,0,1,.807.287.967.967,0,0,1,.3.731.97.97,0,0,1-.3.738,1.122,1.122,0,0,1-.8.287,1.122,1.122,0,0,1-.8-.287A.97.97,0,0,1,122.91-9.311Zm6.494,6.9L130.778-7.4h2.064l-2.5,7.4h-1.887l-2.5-7.4h2.064ZM137.895,0a2.194,2.194,0,0,1-.2-.663,2.39,2.39,0,0,1-1.866.8,2.626,2.626,0,0,1-1.8-.629,2.023,2.023,0,0,1-.714-1.586,2.09,2.09,0,0,1,.872-1.8,4.3,4.3,0,0,1,2.519-.636h.909v-.424a1.219,1.219,0,0,0-.263-.82,1.035,1.035,0,0,0-.831-.308,1.177,1.177,0,0,0-.783.239.813.813,0,0,0-.284.656h-1.976a1.984,1.984,0,0,1,.4-1.189A2.621,2.621,0,0,1,135-7.222a4.086,4.086,0,0,1,1.627-.311,3.228,3.228,0,0,1,2.17.687,2.4,2.4,0,0,1,.8,1.931v3.206a3.536,3.536,0,0,0,.294,1.593V0Zm-1.634-1.374a1.7,1.7,0,0,0,.807-.195,1.28,1.28,0,0,0,.547-.523V-3.363h-.738q-1.483,0-1.579,1.025l-.007.116a.791.791,0,0,0,.26.608A1.009,1.009,0,0,0,136.261-1.374Z" transform="translate(789 3645.422)" fill="#12263f"/>
    <path id="Trazado_187463" data-name="Trazado 187463" d="M6.877-4.067H2.939V0H.889V-9.953h6.48v1.661H2.939v2.57H6.877ZM12.708-.752a2.477,2.477,0,0,1-2.023.889A2.337,2.337,0,0,1,8.87-.547a2.918,2.918,0,0,1-.639-2V-7.4h1.976v4.784q0,1.157,1.053,1.157a1.426,1.426,0,0,0,1.381-.7V-7.4h1.982V0H12.763Zm7.41-1.292a.637.637,0,0,0-.359-.571,4.077,4.077,0,0,0-1.152-.373q-2.639-.554-2.639-2.242a2.032,2.032,0,0,1,.817-1.644,3.3,3.3,0,0,1,2.136-.66,3.547,3.547,0,0,1,2.252.663,2.09,2.09,0,0,1,.844,1.723H20.043a.956.956,0,0,0-.273-.7,1.157,1.157,0,0,0-.854-.277,1.182,1.182,0,0,0-.772.226.712.712,0,0,0-.273.574.609.609,0,0,0,.311.53,3.2,3.2,0,0,0,1.049.349,8.571,8.571,0,0,1,1.244.332,2.044,2.044,0,0,1,1.565,1.989,1.929,1.929,0,0,1-.868,1.637,3.745,3.745,0,0,1-2.242.625,3.912,3.912,0,0,1-1.651-.332A2.77,2.77,0,0,1,16.146-1.1a2.113,2.113,0,0,1-.41-1.248h1.873a1.031,1.031,0,0,0,.39.807,1.546,1.546,0,0,0,.971.28,1.43,1.43,0,0,0,.858-.215A.67.67,0,0,0,20.118-2.044ZM25.4,0H23.413V-7.4H25.4ZM23.3-9.311a.973.973,0,0,1,.3-.731,1.117,1.117,0,0,1,.81-.287,1.12,1.12,0,0,1,.807.287.967.967,0,0,1,.3.731.97.97,0,0,1-.3.738,1.122,1.122,0,0,1-.8.287,1.122,1.122,0,0,1-.8-.287A.97.97,0,0,1,23.3-9.311Zm3.418,5.544a4.387,4.387,0,0,1,.424-1.962,3.1,3.1,0,0,1,1.22-1.333,3.56,3.56,0,0,1,1.849-.472,3.368,3.368,0,0,1,2.444.916,3.676,3.676,0,0,1,1.056,2.488l.014.506a3.866,3.866,0,0,1-.95,2.731A3.3,3.3,0,0,1,30.222.137,3.319,3.319,0,0,1,27.668-.889a3.934,3.934,0,0,1-.954-2.789Zm1.976.14a2.765,2.765,0,0,0,.4,1.612,1.308,1.308,0,0,0,1.135.558,1.311,1.311,0,0,0,1.121-.551,3.025,3.025,0,0,0,.4-1.763,2.737,2.737,0,0,0-.4-1.6,1.311,1.311,0,0,0-1.135-.568,1.29,1.29,0,0,0-1.121.565A3.076,3.076,0,0,0,28.69-3.626ZM36.757-7.4l.062.854a2.582,2.582,0,0,1,2.126-.991,2.146,2.146,0,0,1,1.75.69,3.221,3.221,0,0,1,.588,2.064V0H39.307V-4.73a1.282,1.282,0,0,0-.273-.913,1.224,1.224,0,0,0-.909-.284,1.359,1.359,0,0,0-1.251.711V0H34.9V-7.4Z" transform="translate(736.075 3482.037) rotate(-31)" fill="#12263f"/>
    <path id="Trazado_187464" data-name="Trazado 187464" d="M4.566-2.468,6.822-9.953H9.105L5.64,0H3.5L.048-9.953H2.324ZM13.884,0a2.194,2.194,0,0,1-.2-.663,2.39,2.39,0,0,1-1.866.8,2.626,2.626,0,0,1-1.8-.629A2.023,2.023,0,0,1,9.3-2.078a2.09,2.09,0,0,1,.872-1.8,4.3,4.3,0,0,1,2.519-.636H13.6v-.424a1.219,1.219,0,0,0-.263-.82,1.035,1.035,0,0,0-.831-.308,1.177,1.177,0,0,0-.783.239.813.813,0,0,0-.284.656H9.468a1.984,1.984,0,0,1,.4-1.189,2.621,2.621,0,0,1,1.121-.858,4.086,4.086,0,0,1,1.627-.311,3.228,3.228,0,0,1,2.17.687,2.4,2.4,0,0,1,.8,1.931v3.206A3.536,3.536,0,0,0,15.88-.116V0ZM12.25-1.374a1.7,1.7,0,0,0,.807-.195,1.28,1.28,0,0,0,.547-.523V-3.363h-.738q-1.483,0-1.579,1.025l-.007.116a.791.791,0,0,0,.26.608A1.009,1.009,0,0,0,12.25-1.374ZM23.762-3.63a4.436,4.436,0,0,1-.776,2.738,2.488,2.488,0,0,1-2.1,1.029,2.3,2.3,0,0,1-1.812-.779V2.844H17.1V-7.4h1.832L19-6.672a2.322,2.322,0,0,1,1.873-.861A2.5,2.5,0,0,1,23-6.521a4.556,4.556,0,0,1,.759,2.789Zm-1.976-.144a2.911,2.911,0,0,0-.366-1.593,1.191,1.191,0,0,0-1.063-.561,1.294,1.294,0,0,0-1.278.711v3.028a1.316,1.316,0,0,0,1.292.731Q21.786-1.456,21.786-3.773Zm2.892.007A4.387,4.387,0,0,1,25.1-5.729a3.1,3.1,0,0,1,1.22-1.333,3.56,3.56,0,0,1,1.849-.472,3.368,3.368,0,0,1,2.444.916,3.676,3.676,0,0,1,1.056,2.488l.014.506a3.866,3.866,0,0,1-.95,2.731A3.3,3.3,0,0,1,28.185.137,3.319,3.319,0,0,1,25.631-.889a3.934,3.934,0,0,1-.954-2.789Zm1.976.14a2.765,2.765,0,0,0,.4,1.612,1.308,1.308,0,0,0,1.135.558,1.311,1.311,0,0,0,1.121-.551,3.025,3.025,0,0,0,.4-1.763,2.737,2.737,0,0,0-.4-1.6,1.311,1.311,0,0,0-1.135-.568,1.29,1.29,0,0,0-1.121.565A3.076,3.076,0,0,0,26.653-3.626Zm10.4-1.918a5.367,5.367,0,0,0-.711-.055,1.447,1.447,0,0,0-1.47.759V0H32.9V-7.4h1.866l.055.882A1.831,1.831,0,0,1,36.47-7.533a2.07,2.07,0,0,1,.615.089ZM40.093,0H38.11V-7.4h1.982Zm-2.1-9.311a.973.973,0,0,1,.3-.731,1.117,1.117,0,0,1,.81-.287,1.12,1.12,0,0,1,.807.287.967.967,0,0,1,.3.731.97.97,0,0,1-.3.738,1.122,1.122,0,0,1-.8.287,1.122,1.122,0,0,1-.8-.287A.97.97,0,0,1,37.994-9.311Zm6,7.718h3.616V0H41.467V-1.2l3.479-4.6H41.569V-7.4H47.5v1.164ZM53.129,0a2.194,2.194,0,0,1-.2-.663,2.39,2.39,0,0,1-1.866.8,2.626,2.626,0,0,1-1.8-.629,2.023,2.023,0,0,1-.714-1.586,2.09,2.09,0,0,1,.872-1.8,4.3,4.3,0,0,1,2.519-.636h.909v-.424a1.219,1.219,0,0,0-.263-.82,1.035,1.035,0,0,0-.831-.308,1.177,1.177,0,0,0-.783.239.813.813,0,0,0-.284.656H48.713a1.984,1.984,0,0,1,.4-1.189,2.621,2.621,0,0,1,1.121-.858,4.086,4.086,0,0,1,1.627-.311,3.228,3.228,0,0,1,2.17.687,2.4,2.4,0,0,1,.8,1.931v3.206a3.536,3.536,0,0,0,.294,1.593V0ZM51.5-1.374a1.7,1.7,0,0,0,.807-.195,1.28,1.28,0,0,0,.547-.523V-3.363H52.11q-1.483,0-1.579,1.025l-.007.116a.791.791,0,0,0,.26.608A1.009,1.009,0,0,0,51.5-1.374Zm7.93-.082a1.3,1.3,0,0,0,.889-.3,1.054,1.054,0,0,0,.355-.8h1.853a2.534,2.534,0,0,1-.41,1.377,2.706,2.706,0,0,1-1.1.971,3.455,3.455,0,0,1-1.548.345,3.211,3.211,0,0,1-2.5-1.008,3.99,3.99,0,0,1-.916-2.786v-.13a3.944,3.944,0,0,1,.909-2.728,3.174,3.174,0,0,1,2.5-1.019,3.111,3.111,0,0,1,2.225.79,2.8,2.8,0,0,1,.851,2.1H60.669a1.358,1.358,0,0,0-.355-.938,1.185,1.185,0,0,0-.9-.361,1.19,1.19,0,0,0-1.042.5A2.916,2.916,0,0,0,58.017-3.8V-3.6a2.953,2.953,0,0,0,.349,1.643A1.2,1.2,0,0,0,59.425-1.456ZM65.734,0H63.752V-7.4h1.982Zm-2.1-9.311a.973.973,0,0,1,.3-.731,1.117,1.117,0,0,1,.81-.287,1.12,1.12,0,0,1,.807.287.967.967,0,0,1,.3.731.97.97,0,0,1-.3.738,1.122,1.122,0,0,1-.8.287,1.122,1.122,0,0,1-.8-.287A.97.97,0,0,1,63.636-9.311Zm3.418,5.544a4.387,4.387,0,0,1,.424-1.962A3.1,3.1,0,0,1,68.7-7.062a3.56,3.56,0,0,1,1.849-.472,3.368,3.368,0,0,1,2.444.916,3.676,3.676,0,0,1,1.056,2.488l.014.506a3.866,3.866,0,0,1-.95,2.731A3.3,3.3,0,0,1,70.561.137,3.319,3.319,0,0,1,68.007-.889a3.934,3.934,0,0,1-.954-2.789Zm1.976.14a2.765,2.765,0,0,0,.4,1.612,1.308,1.308,0,0,0,1.135.558,1.311,1.311,0,0,0,1.121-.551,3.025,3.025,0,0,0,.4-1.763,2.737,2.737,0,0,0-.4-1.6,1.311,1.311,0,0,0-1.135-.568,1.29,1.29,0,0,0-1.121.565A3.076,3.076,0,0,0,69.029-3.626ZM70.937-10.5H73.09L71.2-8.381H69.59ZM77.1-7.4l.062.854a2.582,2.582,0,0,1,2.126-.991,2.146,2.146,0,0,1,1.75.69,3.221,3.221,0,0,1,.588,2.064V0H79.646V-4.73a1.282,1.282,0,0,0-.273-.913,1.224,1.224,0,0,0-.909-.284,1.359,1.359,0,0,0-1.251.711V0H75.236V-7.4Z" transform="translate(886.417 3448.77) rotate(17)" fill="#12263f"/>
    <path id="Trazado_187466" data-name="Trazado 187466" d="M6.05-2.611A1.052,1.052,0,0,0,5.64-3.5,5.38,5.38,0,0,0,4.163-4.16a10.467,10.467,0,0,1-1.688-.68,2.759,2.759,0,0,1-1.7-2.468,2.4,2.4,0,0,1,.455-1.439A2.965,2.965,0,0,1,2.54-9.734,4.914,4.914,0,0,1,4.45-10.09a4.473,4.473,0,0,1,1.9.386,3.026,3.026,0,0,1,1.3,1.09,2.853,2.853,0,0,1,.461,1.6H6.057a1.342,1.342,0,0,0-.431-1.063,1.77,1.77,0,0,0-1.21-.379,1.891,1.891,0,0,0-1.169.318A1,1,0,0,0,2.83-7.3a.96.96,0,0,0,.489.813,5.522,5.522,0,0,0,1.439.615,6.217,6.217,0,0,1,2.55,1.306,2.6,2.6,0,0,1,.8,1.941A2.4,2.4,0,0,1,7.13-.6,4.279,4.279,0,0,1,4.5.137a5.082,5.082,0,0,1-2.092-.42A3.31,3.31,0,0,1,.967-1.436a2.95,2.95,0,0,1-.5-1.7H2.529q0,1.647,1.969,1.647a1.915,1.915,0,0,0,1.142-.3A.967.967,0,0,0,6.05-2.611ZM9.058-3.767a4.387,4.387,0,0,1,.424-1.962A3.1,3.1,0,0,1,10.7-7.062a3.56,3.56,0,0,1,1.849-.472,3.368,3.368,0,0,1,2.444.916,3.676,3.676,0,0,1,1.056,2.488l.014.506a3.866,3.866,0,0,1-.95,2.731A3.3,3.3,0,0,1,12.564.137,3.319,3.319,0,0,1,10.011-.889a3.934,3.934,0,0,1-.954-2.789Zm1.976.14a2.765,2.765,0,0,0,.4,1.612,1.308,1.308,0,0,0,1.135.558,1.311,1.311,0,0,0,1.121-.551,3.025,3.025,0,0,0,.4-1.763,2.737,2.737,0,0,0-.4-1.6,1.311,1.311,0,0,0-1.135-.568,1.29,1.29,0,0,0-1.121.565A3.076,3.076,0,0,0,11.033-3.626ZM19.366,0H17.384V-10.5h1.982Zm3.712,0H21.1V-7.4h1.982Zm-2.1-9.311a.973.973,0,0,1,.3-.731,1.117,1.117,0,0,1,.81-.287,1.12,1.12,0,0,1,.807.287.967.967,0,0,1,.3.731.97.97,0,0,1-.3.738,1.122,1.122,0,0,1-.8.287,1.122,1.122,0,0,1-.8-.287A.97.97,0,0,1,20.979-9.311ZM24.4-3.753a4.457,4.457,0,0,1,.776-2.755A2.517,2.517,0,0,1,27.3-7.533a2.265,2.265,0,0,1,1.784.807V-10.5h1.982V0H29.278l-.1-.786a2.325,2.325,0,0,1-1.9.923,2.511,2.511,0,0,1-2.1-1.029A4.6,4.6,0,0,1,24.4-3.753Zm1.976.147a2.92,2.92,0,0,0,.362,1.6,1.18,1.18,0,0,0,1.053.555A1.322,1.322,0,0,0,29.08-2.23V-5.153A1.3,1.3,0,0,0,27.8-5.927Q26.373-5.927,26.373-3.606ZM34.679,0H32.7V-7.4h1.982Zm-2.1-9.311a.973.973,0,0,1,.3-.731,1.117,1.117,0,0,1,.81-.287,1.12,1.12,0,0,1,.807.287.967.967,0,0,1,.3.731.97.97,0,0,1-.3.738,1.122,1.122,0,0,1-.8.287,1.122,1.122,0,0,1-.8-.287A.97.97,0,0,1,32.58-9.311ZM36.784,0V-5.947h-1.1V-7.4h1.1v-.342a2.774,2.774,0,0,1,.858-2.15,3.452,3.452,0,0,1,2.382-.755,7.9,7.9,0,0,1,2.242.4l-.287,1.634a8.748,8.748,0,0,0-1.039-.256,5.105,5.105,0,0,0-.793-.058q-1.381,0-1.381,1.224v.3h1.456v1.449H38.767V0Zm6.405,0H41.207V-7.4h1.982ZM47.9-1.456a1.3,1.3,0,0,0,.889-.3,1.054,1.054,0,0,0,.355-.8H51a2.534,2.534,0,0,1-.41,1.377,2.706,2.706,0,0,1-1.1.971,3.455,3.455,0,0,1-1.548.345,3.211,3.211,0,0,1-2.5-1.008,3.99,3.99,0,0,1-.916-2.786v-.13a3.944,3.944,0,0,1,.909-2.728,3.174,3.174,0,0,1,2.5-1.019,3.111,3.111,0,0,1,2.225.79A2.8,2.8,0,0,1,51-4.642H49.144a1.358,1.358,0,0,0-.355-.938,1.185,1.185,0,0,0-.9-.361,1.19,1.19,0,0,0-1.042.5A2.916,2.916,0,0,0,46.491-3.8V-3.6a2.953,2.953,0,0,0,.349,1.643A1.2,1.2,0,0,0,47.9-1.456ZM56.41,0a2.194,2.194,0,0,1-.2-.663,2.39,2.39,0,0,1-1.866.8,2.626,2.626,0,0,1-1.8-.629,2.023,2.023,0,0,1-.714-1.586,2.09,2.09,0,0,1,.872-1.8,4.3,4.3,0,0,1,2.519-.636h.909v-.424a1.219,1.219,0,0,0-.263-.82,1.035,1.035,0,0,0-.831-.308,1.177,1.177,0,0,0-.783.239.813.813,0,0,0-.284.656H51.994a1.984,1.984,0,0,1,.4-1.189,2.621,2.621,0,0,1,1.121-.858,4.086,4.086,0,0,1,1.627-.311,3.228,3.228,0,0,1,2.17.687,2.4,2.4,0,0,1,.8,1.931v3.206a3.536,3.536,0,0,0,.294,1.593V0ZM54.776-1.374a1.7,1.7,0,0,0,.807-.195,1.28,1.28,0,0,0,.547-.523V-3.363h-.738q-1.483,0-1.579,1.025l-.007.116a.791.791,0,0,0,.26.608A1.009,1.009,0,0,0,54.776-1.374Zm7.93-.082a1.3,1.3,0,0,0,.889-.3,1.054,1.054,0,0,0,.355-.8H65.8a2.534,2.534,0,0,1-.41,1.377,2.706,2.706,0,0,1-1.1.971A3.455,3.455,0,0,1,62.74.137a3.211,3.211,0,0,1-2.5-1.008,3.99,3.99,0,0,1-.916-2.786v-.13a3.944,3.944,0,0,1,.909-2.728,3.174,3.174,0,0,1,2.5-1.019,3.111,3.111,0,0,1,2.225.79,2.8,2.8,0,0,1,.851,2.1H63.95a1.358,1.358,0,0,0-.355-.938,1.185,1.185,0,0,0-.9-.361,1.19,1.19,0,0,0-1.042.5A2.916,2.916,0,0,0,61.3-3.8V-3.6a2.953,2.953,0,0,0,.349,1.643A1.2,1.2,0,0,0,62.706-1.456ZM69.016,0H67.033V-7.4h1.982Zm-2.1-9.311a.973.973,0,0,1,.3-.731,1.117,1.117,0,0,1,.81-.287,1.12,1.12,0,0,1,.807.287.967.967,0,0,1,.3.731.97.97,0,0,1-.3.738,1.122,1.122,0,0,1-.8.287,1.122,1.122,0,0,1-.8-.287A.97.97,0,0,1,66.917-9.311Zm3.418,5.544a4.387,4.387,0,0,1,.424-1.962,3.1,3.1,0,0,1,1.22-1.333,3.56,3.56,0,0,1,1.849-.472,3.368,3.368,0,0,1,2.444.916,3.676,3.676,0,0,1,1.056,2.488l.014.506a3.866,3.866,0,0,1-.95,2.731A3.3,3.3,0,0,1,73.842.137,3.319,3.319,0,0,1,71.289-.889a3.934,3.934,0,0,1-.954-2.789Zm1.976.14a2.765,2.765,0,0,0,.4,1.612,1.308,1.308,0,0,0,1.135.558,1.311,1.311,0,0,0,1.121-.551,3.025,3.025,0,0,0,.4-1.763,2.737,2.737,0,0,0-.4-1.6,1.311,1.311,0,0,0-1.135-.568,1.29,1.29,0,0,0-1.121.565A3.076,3.076,0,0,0,72.311-3.626ZM74.218-10.5h2.153L74.478-8.381H72.871Zm6.159,3.1.062.854a2.582,2.582,0,0,1,2.126-.991,2.146,2.146,0,0,1,1.75.69A3.221,3.221,0,0,1,84.9-4.778V0H82.927V-4.73a1.282,1.282,0,0,0-.273-.913,1.224,1.224,0,0,0-.909-.284,1.359,1.359,0,0,0-1.251.711V0H78.518V-7.4Z" transform="translate(718.064 3585.817) rotate(21)" fill="#12263f"/>
    <path id="Trazado_187465" data-name="Trazado 187465" d="M8.7-3.315A3.522,3.522,0,0,1,7.516-.786,4.165,4.165,0,0,1,4.7.137,3.745,3.745,0,0,1,1.685-1.152a5.284,5.284,0,0,1-1.1-3.538V-5.3a5.966,5.966,0,0,1,.506-2.529A3.791,3.791,0,0,1,2.54-9.505a4.05,4.05,0,0,1,2.184-.584A4.058,4.058,0,0,1,7.5-9.167,3.785,3.785,0,0,1,8.716-6.576H6.665a2.079,2.079,0,0,0-.537-1.4,1.987,1.987,0,0,0-1.4-.434,1.742,1.742,0,0,0-1.535.735,4.118,4.118,0,0,0-.523,2.28v.752a4.408,4.408,0,0,0,.489,2.358A1.71,1.71,0,0,0,4.7-1.538a2.025,2.025,0,0,0,1.418-.434,1.961,1.961,0,0,0,.537-1.343Zm.909-.451a4.387,4.387,0,0,1,.424-1.962,3.1,3.1,0,0,1,1.22-1.333A3.56,3.56,0,0,1,13.1-7.533a3.368,3.368,0,0,1,2.444.916A3.676,3.676,0,0,1,16.6-4.129l.014.506a3.866,3.866,0,0,1-.95,2.731A3.3,3.3,0,0,1,13.118.137,3.319,3.319,0,0,1,10.565-.889a3.934,3.934,0,0,1-.954-2.789Zm1.976.14a2.765,2.765,0,0,0,.4,1.612,1.308,1.308,0,0,0,1.135.558,1.311,1.311,0,0,0,1.121-.551,3.025,3.025,0,0,0,.4-1.763,2.737,2.737,0,0,0-.4-1.6A1.311,1.311,0,0,0,13.1-5.94a1.29,1.29,0,0,0-1.121.565A3.076,3.076,0,0,0,11.587-3.626ZM19.653-7.4l.062.854a2.582,2.582,0,0,1,2.126-.991,2.146,2.146,0,0,1,1.75.69,3.221,3.221,0,0,1,.588,2.064V0H22.2V-4.73a1.282,1.282,0,0,0-.273-.913,1.224,1.224,0,0,0-.909-.284,1.359,1.359,0,0,0-1.251.711V0H17.794V-7.4Zm5.715,3.644a4.457,4.457,0,0,1,.776-2.755,2.517,2.517,0,0,1,2.123-1.025,2.265,2.265,0,0,1,1.784.807V-10.5h1.982V0H30.249l-.1-.786a2.325,2.325,0,0,1-1.9.923,2.511,2.511,0,0,1-2.1-1.029A4.6,4.6,0,0,1,25.368-3.753Zm1.976.147a2.92,2.92,0,0,0,.362,1.6,1.18,1.18,0,0,0,1.053.555,1.322,1.322,0,0,0,1.292-.774V-5.153a1.3,1.3,0,0,0-1.278-.774Q27.344-5.927,27.344-3.606ZM36.969.137a3.631,3.631,0,0,1-2.649-1A3.548,3.548,0,0,1,33.3-3.521v-.191A4.468,4.468,0,0,1,33.729-5.7a3.161,3.161,0,0,1,1.22-1.354,3.425,3.425,0,0,1,1.8-.475,3.07,3.07,0,0,1,2.389.957,3.889,3.889,0,0,1,.872,2.714v.807H35.3a1.835,1.835,0,0,0,.578,1.162,1.746,1.746,0,0,0,1.22.438,2.132,2.132,0,0,0,1.784-.827L39.854-1.2a2.966,2.966,0,0,1-1.2.981A3.947,3.947,0,0,1,36.969.137ZM36.743-5.94a1.234,1.234,0,0,0-.954.4,2.062,2.062,0,0,0-.468,1.14h2.748V-4.56a1.471,1.471,0,0,0-.355-1.02A1.274,1.274,0,0,0,36.743-5.94ZM42.95-7.4l.062.854a2.582,2.582,0,0,1,2.126-.991,2.146,2.146,0,0,1,1.75.69,3.221,3.221,0,0,1,.588,2.064V0H45.5V-4.73a1.282,1.282,0,0,0-.273-.913,1.224,1.224,0,0,0-.909-.284,1.359,1.359,0,0,0-1.251.711V0H41.091V-7.4ZM52.979-2.044a.637.637,0,0,0-.359-.571,4.077,4.077,0,0,0-1.152-.373q-2.639-.554-2.639-2.242a2.032,2.032,0,0,1,.817-1.644,3.3,3.3,0,0,1,2.136-.66,3.547,3.547,0,0,1,2.252.663,2.09,2.09,0,0,1,.844,1.723H52.9a.956.956,0,0,0-.273-.7,1.157,1.157,0,0,0-.854-.277A1.182,1.182,0,0,0,51-5.9a.712.712,0,0,0-.273.574.609.609,0,0,0,.311.53,3.2,3.2,0,0,0,1.049.349,8.571,8.571,0,0,1,1.244.332A2.044,2.044,0,0,1,54.9-2.126a1.929,1.929,0,0,1-.868,1.637,3.745,3.745,0,0,1-2.242.625,3.912,3.912,0,0,1-1.651-.332A2.77,2.77,0,0,1,49.007-1.1a2.113,2.113,0,0,1-.41-1.248H50.47a1.031,1.031,0,0,0,.39.807,1.546,1.546,0,0,0,.971.28,1.43,1.43,0,0,0,.858-.215A.67.67,0,0,0,52.979-2.044ZM60.457,0a2.194,2.194,0,0,1-.2-.663,2.39,2.39,0,0,1-1.866.8,2.626,2.626,0,0,1-1.8-.629,2.023,2.023,0,0,1-.714-1.586,2.09,2.09,0,0,1,.872-1.8,4.3,4.3,0,0,1,2.519-.636h.909v-.424a1.219,1.219,0,0,0-.263-.82,1.035,1.035,0,0,0-.831-.308,1.177,1.177,0,0,0-.783.239.813.813,0,0,0-.284.656H56.041a1.984,1.984,0,0,1,.4-1.189,2.621,2.621,0,0,1,1.121-.858,4.086,4.086,0,0,1,1.627-.311,3.228,3.228,0,0,1,2.17.687,2.4,2.4,0,0,1,.8,1.931v3.206a3.536,3.536,0,0,0,.294,1.593V0ZM58.823-1.374a1.7,1.7,0,0,0,.807-.195,1.28,1.28,0,0,0,.547-.523V-3.363h-.738q-1.483,0-1.579,1.025l-.007.116a.791.791,0,0,0,.26.608A1.009,1.009,0,0,0,58.823-1.374Zm7.93-.082a1.3,1.3,0,0,0,.889-.3,1.054,1.054,0,0,0,.355-.8H69.85a2.534,2.534,0,0,1-.41,1.377,2.706,2.706,0,0,1-1.1.971,3.455,3.455,0,0,1-1.548.345,3.211,3.211,0,0,1-2.5-1.008,3.99,3.99,0,0,1-.916-2.786v-.13a3.944,3.944,0,0,1,.909-2.728,3.174,3.174,0,0,1,2.5-1.019A3.111,3.111,0,0,1,69-6.744a2.8,2.8,0,0,1,.851,2.1H68a1.358,1.358,0,0,0-.355-.938,1.185,1.185,0,0,0-.9-.361,1.19,1.19,0,0,0-1.042.5A2.916,2.916,0,0,0,65.345-3.8V-3.6a2.953,2.953,0,0,0,.349,1.643A1.2,1.2,0,0,0,66.753-1.456ZM73.063,0H71.08V-7.4h1.982Zm-2.1-9.311a.973.973,0,0,1,.3-.731,1.117,1.117,0,0,1,.81-.287,1.12,1.12,0,0,1,.807.287.967.967,0,0,1,.3.731.97.97,0,0,1-.3.738,1.122,1.122,0,0,1-.8.287,1.122,1.122,0,0,1-.8-.287A.97.97,0,0,1,70.964-9.311Zm3.418,5.544a4.387,4.387,0,0,1,.424-1.962,3.1,3.1,0,0,1,1.22-1.333,3.56,3.56,0,0,1,1.849-.472,3.368,3.368,0,0,1,2.444.916,3.676,3.676,0,0,1,1.056,2.488l.014.506a3.866,3.866,0,0,1-.95,2.731A3.3,3.3,0,0,1,77.889.137,3.319,3.319,0,0,1,75.335-.889a3.934,3.934,0,0,1-.954-2.789Zm1.976.14a2.765,2.765,0,0,0,.4,1.612,1.308,1.308,0,0,0,1.135.558,1.311,1.311,0,0,0,1.121-.551,3.025,3.025,0,0,0,.4-1.763,2.737,2.737,0,0,0-.4-1.6,1.311,1.311,0,0,0-1.135-.568,1.29,1.29,0,0,0-1.121.565A3.076,3.076,0,0,0,76.357-3.626ZM78.265-10.5h2.153L78.524-8.381H76.918Zm6.159,3.1.062.854a2.582,2.582,0,0,1,2.126-.991,2.146,2.146,0,0,1,1.75.69,3.221,3.221,0,0,1,.588,2.064V0H86.974V-4.73a1.282,1.282,0,0,0-.273-.913,1.224,1.224,0,0,0-.909-.284,1.359,1.359,0,0,0-1.251.711V0H82.564V-7.4Z" transform="matrix(0.899, -0.438, 0.438, 0.899, 924.898, 3604.438)" fill="#12263f"/>
  </g>
</svg>
