<svg xmlns="http://www.w3.org/2000/svg" xmlns:xlink="http://www.w3.org/1999/xlink" width="399" height="366.917" viewBox="0 0 399 366.917">
  <defs>
    <clipPath id="clip-path">
      <rect id="Rectángulo_46562" data-name="Rectángulo 46562" width="280.526" height="366.917" fill="none"/>
    </clipPath>
    <clipPath id="clip-path-2">
      <rect id="Rectángulo_46561" data-name="Rectángulo 46561" width="280.527" height="366.918" fill="none"/>
    </clipPath>
    <clipPath id="clip-path-3">
      <rect id="Rectángulo_46557" data-name="Rectángulo 46557" width="6.032" height="5.632" fill="none"/>
    </clipPath>
    <clipPath id="clip-path-4">
      <rect id="Rectángulo_46558" data-name="Rectángulo 46558" width="6.767" height="6.001" fill="none"/>
    </clipPath>
    <clipPath id="clip-path-5">
      <rect id="Rectángulo_46559" data-name="Rectángulo 46559" width="6.864" height="6.296" fill="none"/>
    </clipPath>
    <clipPath id="clip-path-6">
      <rect id="Rectángulo_46560" data-name="Rectángulo 46560" width="4.906" height="5.415" fill="none"/>
    </clipPath>
    <clipPath id="clip-path-7">
      <path id="Trazado_186416" data-name="Trazado 186416" d="M2.039,1.447,54.8,0l-.424,16.824L52.76,80.845,0,82.293Z" transform="translate(0 0)" fill="none"/>
    </clipPath>
    <clipPath id="clip-path-8">
      <rect id="Rectángulo_46390" data-name="Rectángulo 46390" width="39.101" height="43.181" fill="#31313c"/>
    </clipPath>
  </defs>
  <g id="Grupo_178140" data-name="Grupo 178140" transform="translate(-181 -6752.379)">
    <g id="Grupo_178139" data-name="Grupo 178139">
      <rect id="Rectángulo_34948" data-name="Rectángulo 34948" width="395.099" height="313.647" rx="81" transform="translate(184.826 6803.974)" fill="#e7e7e8"/>
      <g id="Grupo_178136" data-name="Grupo 178136" transform="translate(240 6752.379)" clip-path="url(#clip-path)">
        <path id="Trazado_186340" data-name="Trazado 186340" d="M451.193,1472.811l14.141,51.859H395.207l-3.866-11.243-9.932.481-1.464,10.529H317.758l-1.142-47.1Z" transform="translate(-249.001 -1158.286)" fill="#31313c"/>
        <path id="Trazado_186341" data-name="Trazado 186341" d="M315.15,1475.832l133.627-4.491,13.845,50.777H393.575l-3.872-11.263-10.774.522-1.461,10.507h-61.2Zm-.565-1.049-.529.018,1.167,48.152H378.4l1.467-10.552,9.089-.44,3.859,11.225H464.02l-14.436-52.941Z" transform="translate(-246.989 -1156.27)" fill="#fff"/>
        <g id="Grupo_178135" data-name="Grupo 178135" transform="translate(0 -0.001)">
          <g id="Grupo_178134" data-name="Grupo 178134" clip-path="url(#clip-path-2)">
            <path id="Trazado_186342" data-name="Trazado 186342" d="M107.083,609.241S63.422,615.3,46.426,632.3C23.776,654.95-.752,738.078.018,754.984s22.466,50.358,58.86,27.36l.38,21.958,149.264-6.718-.366-63.973s15.158,37.746,33.552,47.55,44.288-12.911,37.8-36.647-35.046-90.752-49.187-106.529S162.1,610.348,162.1,610.348Z" transform="translate(0 -479.135)" fill="#f37577"/>
            <path id="Trazado_186343" data-name="Trazado 186343" d="M446.817,15.351S463.106,6.02,458.885,1.2s-20.451,5.753-24.47,17.07c0,0-10.02-6.238-13.161-.883s5.947,6.669,9.019,6.207c0,0-14.1,5.909-17.587,25s10.963,30.732,10.963,30.732l82.013-3.406s8.476-9.439,3.357-31.352c-1.876-8.031-24.627-24.4-24.627-24.4Z" transform="translate(-324.128 0.002)" fill="#ffc849"/>
            <path id="Trazado_186344" data-name="Trazado 186344" d="M839.863,294.288s5.742-6.868,12.3-.309c5.812,5.812,0,14.7-5.6,16.06-5.235,1.268-11.277-4.325-11.277-4.325Z" transform="translate(-656.905 -228.967)" fill="#e27756"/>
            <path id="Trazado_186345" data-name="Trazado 186345" d="M851.754,324.715a.566.566,0,0,0,.484-.272c2.63-4.326,9.069-6.112,9.134-6.129a.567.567,0,0,0-.3-1.094,21.869,21.869,0,0,0-3.8,1.516,14.922,14.922,0,0,0-6.007,5.119.567.567,0,0,0,.484.861" transform="translate(-669.413 -249.46)"/>
            <path id="Trazado_186346" data-name="Trazado 186346" d="M865.772,341.081a.567.567,0,0,0,.359-1.005l-3.654-2.985a.567.567,0,1,0-.717.878l3.654,2.985a.564.564,0,0,0,.358.128" transform="translate(-677.564 -265.002)"/>
            <path id="Trazado_186347" data-name="Trazado 186347" d="M460.138,526.1c-20.682-.041-30.63,13.719-31.965,20.758-3.567,18.812,59.848,14.23,59.848,14.23s33.552,4.567,27.756-15.437c-5.665-19.551-33.489-19.507-55.639-19.55" transform="translate(-336.622 -413.752)" fill="#f37577"/>
            <path id="Trazado_186348" data-name="Trazado 186348" d="M589.7,449.143V397.837H562.207V441.38l21.786,12.527Z" transform="translate(-442.146 -312.877)" fill="#e27756"/>
            <path id="Trazado_186349" data-name="Trazado 186349" d="M587.6,492.647v15.138c-12.779,10.97-28.493-3.619-28.493-3.619V492.647Z" transform="translate(-439.709 -387.44)"/>
            <path id="Trazado_186350" data-name="Trazado 186350" d="M637.417,719.364a1.207,1.207,0,0,0,1.207-1.207v-30.4a1.207,1.207,0,1,0-2.413,0v30.4a1.207,1.207,0,0,0,1.207,1.207" transform="translate(-500.345 -539.938)"/>
            <path id="Trazado_186351" data-name="Trazado 186351" d="M681.385,719.364a1.207,1.207,0,0,0,1.207-1.207v-30.4a1.207,1.207,0,1,0-2.413,0v30.4a1.207,1.207,0,0,0,1.207,1.207" transform="translate(-534.923 -539.938)"/>
            <path id="Trazado_186352" data-name="Trazado 186352" d="M529.072,140.308c0-26.823-20.282-48.567-45.3-48.567s-45.3,21.744-45.3,48.567,20.282,48.567,45.3,48.567,45.3-21.744,45.3-48.567" transform="translate(-344.834 -72.149)" fill="#e27756"/>
            <path id="Trazado_186353" data-name="Trazado 186353" d="M503.3,303s-1.363-27.6-24.016-12.26c0,0,5.073,18.459,24.016,12.26" transform="translate(-376.93 -224.999)" fill="#fff"/>
            <path id="Trazado_186354" data-name="Trazado 186354" d="M543.979,234.442c.345-1.8-2.757-3.907-6.929-4.705s-7.832.013-8.177,1.814,2.757,3.907,6.929,4.705,7.832-.014,8.177-1.814" transform="translate(-415.91 -180.434)"/>
            <path id="Trazado_186355" data-name="Trazado 186355" d="M715.045,246.45c-.073-1.831-3.571-3.18-7.815-3.012s-7.625,1.789-7.553,3.62,3.571,3.18,7.815,3.012,7.625-1.789,7.553-3.62" transform="translate(-550.258 -191.439)"/>
            <path id="Trazado_186356" data-name="Trazado 186356" d="M378.072,1132.384c4.857,7.157,11.939,10.824,15.818,8.191s3.086-10.568-1.771-17.725-11.8-10.219-15.684-7.586-3.221,9.964,1.636,17.12" transform="translate(-294.069 -876.361)"/>
            <path id="Trazado_186357" data-name="Trazado 186357" d="M954.86,951.062c4.543-5.887,6.047-12.34,3.359-14.414s-8.549,1.017-13.092,6.9-6.046,12.341-3.359,14.414,8.549-1.017,13.091-6.9" transform="translate(-739.602 -736.115)"/>
            <path id="Trazado_186358" data-name="Trazado 186358" d="M639.74,379.579a.567.567,0,0,0,.459-.9l-3.622-5.035a.567.567,0,0,0-.861-.069l-3.483,3.491a.567.567,0,1,0,.8.8l3.012-3.018,3.233,4.494a.565.565,0,0,0,.46.236" transform="translate(-497.087 -293.666)"/>
            <path id="Trazado_186359" data-name="Trazado 186359" d="M593.283,439.287a.567.567,0,0,0-.189-1.113c-7.152.6-12.685-6.97-12.741-7.046a.567.567,0,0,0-.92.661,22.594,22.594,0,0,0,3.891,3.989c3.211,2.577,6.622,3.8,9.864,3.526a.572.572,0,0,0,.1-.016" transform="translate(-455.609 -338.873)"/>
            <path id="Trazado_186360" data-name="Trazado 186360" d="M381.395,280.375s-5.741-6.868-12.3-.309c-5.812,5.812,0,14.7,5.6,16.06,5.235,1.268,11.277-4.325,11.277-4.325Z" transform="translate(-288.375 -218.025)" fill="#e27756"/>
            <path id="Trazado_186361" data-name="Trazado 186361" d="M401.51,310.8a.567.567,0,0,0,.484-.861,14.921,14.921,0,0,0-6.007-5.119,21.882,21.882,0,0,0-3.8-1.516.567.567,0,0,0-.3,1.094c.065.017,6.5,1.8,9.134,6.129a.566.566,0,0,0,.485.272" transform="translate(-307.872 -238.518)"/>
            <path id="Trazado_186362" data-name="Trazado 186362" d="M408.909,327.168a.563.563,0,0,0,.358-.128l3.654-2.985a.567.567,0,1,0-.717-.878l-3.654,2.985a.567.567,0,0,0,.359,1.005" transform="translate(-321.139 -254.061)"/>
            <path id="Trazado_186363" data-name="Trazado 186363" d="M383.306,982.74s2.619-1.743,4.644-6.45c2.351-5.466,4.575-19.225,16.125-28.567s10.77,12.424,10.77,12.424l9.561,20.721-32.659,21.777s-9.634-5.614-8.441-19.9" transform="translate(-301.369 -743.5)" fill="#e27756"/>
            <path id="Trazado_186364" data-name="Trazado 186364" d="M468.751,72.405S466.072,89,446.524,97.654l1.369-16.535,21.729-19.387s5.666-8.312,23-7.214S526.683,67.356,538.323,75c7.458,4.9,16.936,11.967,6.423,16.193-8.211,3.3-22.568-1.811-28.407-7.65,0,0,11.311,7.362-5.537,9.37-16.647,1.985-28.415-4.872-42.051-20.512" transform="translate(-351.167 -42.796)" fill="#ffc849"/>
            <path id="Trazado_186365" data-name="Trazado 186365" d="M791.4,841.012s-2.118-2.979-8.784-15.3c-4.021-7.435-11.154-7.206-17.557-8.7s-12.479-2.249-19.517,1.568-12.107,8.454-15,10.222c-2.61,1.594-1.087,6.745,1.821,6.959,3.8.281,9.782-2.147,15.587-7.351,2.987-2.678,4.539-2.051,9.471-3.556s10.9,16.9,10.9,16.9L778.7,851.8Z" transform="translate(-573.478 -641.578)" fill="#e27756"/>
            <path id="Trazado_186366" data-name="Trazado 186366" d="M834.209,850.753c-3.94-4.54-23.524,1.8-23.524,1.8s-6.379,10.555,3.022,17.29,15.483,5.08,20.583,1.554c6.49-4.487,3.417-8.618,3.417-8.618Z" transform="translate(-635.897 -667.783)" fill="#e27756"/>
            <path id="Trazado_186367" data-name="Trazado 186367" d="M737.222,868.936c-1.832.992-1.966,1.615-1.291,2.861s1.9,2.644,3.736,1.652a3.713,3.713,0,0,0,1.569-4.652c-.675-1.246-2.182-.853-4.014.139" transform="translate(-578.477 -682.647)"/>
            <path id="Trazado_186368" data-name="Trazado 186368" d="M920.815,902.97a6.657,6.657,0,0,1,2.215,1.379c.724,1.188,1.505,2.442,2.3,3.672,2.3,3.438,1.8,7.848-.548,11.692-4.016,6.563-12.463,9.236-12.483,9.229-1.552-2.15-11.155-12.749-12.831-15.057-.567-2.925,1.515-4.505,2.813-7.987,2.76-7.4,13.588-4.774,18.537-2.927" transform="translate(-707.305 -708.561)" fill="#e27756"/>
            <path id="Trazado_186369" data-name="Trazado 186369" d="M821.713,817.373s-7.737,1.169-11.1,13.842,10.663,8.637,10.663,8.637l6.233-17.8Z" transform="translate(-637.092 -642.819)" fill="#e27756"/>
            <path id="Trazado_186370" data-name="Trazado 186370" d="M865.719,825.371s-7.643.954-10.716,12.956,10.745,8.447,10.745,8.447l5.809-16.822Z" transform="translate(-672.063 -649.109)" fill="#e27756"/>
            <path id="Trazado_186371" data-name="Trazado 186371" d="M907.862,840.189s-8.776-.072-11.7,11.578c-1.608,6.418,1.654,8.018,4.911,8.009,3.216-.009,5.871-.99,7.71-3.39,1.261-1.646,1.047-5.6-1.964-5.306l5.054-6.315Z" transform="translate(-704.454 -660.763)" fill="#e27756"/>
            <path id="Trazado_186372" data-name="Trazado 186372" d="M940.378,884.422a.329.329,0,0,0,.275-.509,2.452,2.452,0,0,1,.1-2.226,8.205,8.205,0,0,1,2.771-3.381.329.329,0,0,0,.346-.541c-.358-.357-.962.134-1.19.32-1.46,1.188-3.795,4.324-2.573,6.189a.328.328,0,0,0,.275.148" transform="translate(-739.071 -690.214)"/>
            <path id="Trazado_186373" data-name="Trazado 186373" d="M816.819,838.679q.454,0,.931-.033a15.927,15.927,0,0,0,3.407-.615.329.329,0,0,0-.2-.626c-.057.018-5.741,1.791-8.693-.778-1.637-1.425-2.157-3.945-1.547-7.49.623-3.614,2.234-8.57,6.375-11.661a11.309,11.309,0,0,1,4.741-2.161.329.329,0,0,0-.084-.652,11.731,11.731,0,0,0-5.018,2.263c-4.338,3.219-6.017,8.357-6.662,12.1-.653,3.788-.059,6.513,1.764,8.1a7.453,7.453,0,0,0,4.984,1.554" transform="translate(-636.875 -640.685)"/>
            <path id="Trazado_186374" data-name="Trazado 186374" d="M860.456,845.5a16.9,16.9,0,0,0,3.532-.377.329.329,0,1,0-.15-.64c-.061.014-6.116,1.39-8.868-1.421-1.435-1.466-1.744-3.845-.918-7.072,1.558-6.085,4.42-9.306,6.546-10.937a10.761,10.761,0,0,1,4.281-2.1.329.329,0,0,0-.1-.649,11.15,11.15,0,0,0-4.542,2.2c-2.221,1.693-5.207,5.03-6.818,11.322-.888,3.465-.522,6.055,1.086,7.7,1.553,1.584,3.955,1.977,5.954,1.977" transform="translate(-670.794 -646.695)"/>
            <path id="Trazado_186375" data-name="Trazado 186375" d="M899.842,856.225h.029c3.556-.01,6.163-1.161,7.971-3.519a4.665,4.665,0,0,0,.569-4.58c-.386-.718-1.248-1.544-3.162-1.408a.329.329,0,0,0,.047.656,2.409,2.409,0,0,1,2.536,1.064,3.984,3.984,0,0,1-.511,3.869c-1.675,2.185-4.112,3.252-7.451,3.262a5.109,5.109,0,0,1-4.118-1.589c-.995-1.271-1.154-3.294-.473-6.012,1.481-5.909,4.683-8.873,7.109-10.318a12.419,12.419,0,0,1,4.924-1.737.329.329,0,1,0-.046-.656,12.886,12.886,0,0,0-5.215,1.829c-2.533,1.51-5.874,4.6-7.41,10.723-.733,2.925-.534,5.137.593,6.577a5.588,5.588,0,0,0,4.609,1.841" transform="translate(-703.247 -656.883)"/>
            <path id="Trazado_186376" data-name="Trazado 186376" d="M888.178,935.085a14.736,14.736,0,0,0,2.893-.3.329.329,0,0,0-.129-.645c-3.828.766-6.852.05-8.988-2.13a8.657,8.657,0,0,1-2.088-3.546.329.329,0,0,0-.639.157,9.162,9.162,0,0,0,2.235,3.827,9.008,9.008,0,0,0,6.716,2.64" transform="translate(-691.457 -729.988)"/>
            <path id="Trazado_186377" data-name="Trazado 186377" d="M196.324,796.637a.384.384,0,0,0,.367-.494c-.1-.341-10.353-34.212-16.879-44.171a.384.384,0,0,0-.642.421c6.466,9.867,16.684,43.632,16.786,43.972a.384.384,0,0,0,.367.273" transform="translate(-140.859 -591.249)"/>
            <path id="Trazado_186378" data-name="Trazado 186378" d="M143.127,1190.2a.384.384,0,0,0,.173-.042,133.584,133.584,0,0,0,17.354-10.942,73.8,73.8,0,0,0,12.36-11.358c3.831-4.591,6.019-9.013,6.505-13.148l9.875-6.974a.384.384,0,0,0-.138-.688,28.871,28.871,0,0,1-9.92-4.749,18.7,18.7,0,0,1-5.936-7.3,19.364,19.364,0,0,1-.961-11.852.383.383,0,0,0-.583-.4l-7.815,5.01c-.669-.983-2.985-3.666-8.815-4.646a39.583,39.583,0,0,0-14.779.874c-7.136,1.574-15.491,4.666-24.83,9.19a.384.384,0,0,0,.334.69c9.239-4.475,17.5-7.54,24.555-9.108a39.181,39.181,0,0,1,14.479-.91,14.784,14.784,0,0,1,6.851,2.727,6.616,6.616,0,0,1,1.741,1.888.385.385,0,0,0,.549.149l7.4-4.742a19.743,19.743,0,0,0,1.18,11.45,19.467,19.467,0,0,0,6.187,7.6,29.487,29.487,0,0,0,9.387,4.66l-9.342,6.6a.384.384,0,0,0-.16.273c-.428,4.03-2.564,8.372-6.347,12.907a73.029,73.029,0,0,1-12.226,11.234,132.773,132.773,0,0,1-17.249,10.878.384.384,0,0,0,.174.726" transform="translate(-90.756 -882.932)"/>
            <path id="Trazado_186379" data-name="Trazado 186379" d="M149.08,1122.942a.383.383,0,0,0,.255-.67l-7.351-6.537a.384.384,0,0,0-.51.573l7.352,6.537a.384.384,0,0,0,.255.1" transform="translate(-111.16 -877.388)"/>
            <path id="Trazado_186380" data-name="Trazado 186380" d="M477.39,843.8V757.5a3.909,3.909,0,0,1,3.909-3.909h69.389A3.909,3.909,0,0,1,554.6,757.5V843.8a3.909,3.909,0,0,1-3.909,3.909H481.3a3.909,3.909,0,0,1-3.909-3.909" transform="translate(-375.442 -592.661)"/>
            <path id="Trazado_186381" data-name="Trazado 186381" d="M477.39,855.5V772.381a3.909,3.909,0,0,1,3.909-3.909h69.389a3.909,3.909,0,0,1,3.909,3.909V855.5a3.909,3.909,0,0,1-3.909,3.909H481.3a3.909,3.909,0,0,1-3.909-3.909" transform="translate(-375.442 -604.362)" fill="#7dbcf5"/>
            <path id="Trazado_186382" data-name="Trazado 186382" d="M494.833,802.348V793.8a2.489,2.489,0,0,1,2.489-2.489h9.922a2.489,2.489,0,0,1,2.489,2.489v8.544a2.49,2.49,0,0,1-2.489,2.49h-9.922a2.49,2.49,0,0,1-2.489-2.49" transform="translate(-389.16 -622.326)"/>
            <path id="Trazado_186383" data-name="Trazado 186383" d="M953.436,997.1a.384.384,0,0,0,.326-.586,20.436,20.436,0,0,1-2.179-6.511,36.313,36.313,0,0,1,1.743-18.111.382.382,0,0,0-.048-.341l-4.854-7.005a36.062,36.062,0,0,0,8.457-4.666,22.129,22.129,0,0,0,5.865-6.361,15.022,15.022,0,0,0,2.116-7.988l6.121,8.268a.383.383,0,0,0,.342.154,13.715,13.715,0,0,1,3.563.368,31.408,31.408,0,0,1,9.5,3.911,59.69,59.69,0,0,1,13.656,11.686,121.733,121.733,0,0,1,16.008,23.708.383.383,0,0,0,.677-.36,122.375,122.375,0,0,0-16.161-23.913A60.264,60.264,0,0,0,984.7,957.533c-7.2-4.276-12.138-4.388-13.227-4.351l-6.768-9.142a.383.383,0,0,0-.689.267,14.282,14.282,0,0,1-1.931,8.82,21.352,21.352,0,0,1-5.655,6.134A34.77,34.77,0,0,1,947.7,964a.384.384,0,0,0-.193.582l5.028,7.255a36.97,36.97,0,0,0-1.7,18.354,20.675,20.675,0,0,0,2.274,6.734.383.383,0,0,0,.326.181" transform="translate(-745.112 -742.314)"/>
            <path id="Trazado_186384" data-name="Trazado 186384" d="M350.123,1189.126a.383.383,0,0,0,.163-.731,21.742,21.742,0,0,1-7.655-5.62,14.248,14.248,0,0,1-2.95-5.836,13.264,13.264,0,0,1,.026-6.435.383.383,0,1,0-.731-.232,13.84,13.84,0,0,0-.042,6.844,15,15,0,0,0,3.106,6.148,22.487,22.487,0,0,0,7.921,5.825.378.378,0,0,0,.162.036" transform="translate(-266.24 -920.146)"/>
            <path id="Trazado_186385" data-name="Trazado 186385" d="M1002.772,754.313a.384.384,0,0,0,.343-.212l13.04-26.124a.384.384,0,1,0-.686-.343l-13.04,26.124a.384.384,0,0,0,.343.555" transform="translate(-788.325 -572.078)"/>
            <path id="Trazado_186386" data-name="Trazado 186386" d="M592.207,956.951c2.614-3.511,10.575-7.753,16.2-7.753s7.346,6.616,7.346,10.993-12.008,11.431-17.635,11.431-9.4-9.987-5.913-14.672" transform="translate(-464.682 -746.493)" fill="#dee9ec"/>
            <path id="Trazado_186387" data-name="Trazado 186387" d="M507.643,1087.772a51.051,51.051,0,0,0,22.028-7.07c5.8-3.516,9.119-5.783,10.959-7.136a3.313,3.313,0,0,0,.958-4.066,2.625,2.625,0,0,0-3.481-1.337c-3.32,1.542-9.579,4.255-14.459,5.246-6.976,1.417-16,14.362-16,14.362" transform="translate(-399.234 -839.865)" fill="#e27756"/>
            <path id="Trazado_186388" data-name="Trazado 186388" d="M509.481,1045.864s15.151-2.5,26.082-9c6.163-3.668,9.684-5.573,11.447-6.866a3.24,3.24,0,0,0,.645-3.766,3.283,3.283,0,0,0-4.107-1.709c-5.619,2.112-18.3,6.77-23.65,7.836-6.977,1.39-10.417,13.509-10.417,13.509" transform="translate(-400.679 -805.567)" fill="#e27756"/>
            <path id="Trazado_186389" data-name="Trazado 186389" d="M511.14,1001.2s16.009-3.156,27.381-10.251c6.451-4.025,10.082-6.214,11.9-7.6a3.167,3.167,0,0,0,.53-3.807,3.368,3.368,0,0,0-4.217-1.628c-5.79,2.347-19.322,7.72-25.031,9.037-7.363,1.7-10.561,14.252-10.561,14.252" transform="translate(-401.984 -768.886)" fill="#e27756"/>
            <path id="Trazado_186390" data-name="Trazado 186390" d="M480.372,971.014s15.8-3.082,27.027-10c6.675-4.113,10.2-6.269,11.913-7.582a2.794,2.794,0,0,0,.491-3.3,3.59,3.59,0,0,0-4.469-1.753c-5.809,2.324-18.954,7.473-24.533,8.745-7.267,1.658-10.429,13.889-10.429,13.889" transform="translate(-377.787 -745.657)" fill="#e27756"/>
            <path id="Trazado_186391" data-name="Trazado 186391" d="M709.458,303s1.363-27.6,24.016-12.26c0,0-5.073,18.459-24.016,12.26" transform="translate(-557.951 -224.999)" fill="#fff"/>
            <path id="Trazado_186392" data-name="Trazado 186392" d="M719.609,299.4a9.04,9.04,0,1,1,17.82,2.151,15.881,15.881,0,0,1-12.54,6.069,9.04,9.04,0,0,1-5.28-8.22" transform="translate(-565.934 -228.353)"/>
            <path id="Trazado_186393" data-name="Trazado 186393" d="M506.823,290.361a9.015,9.015,0,0,1,6.78,3.064,15.72,15.72,0,0,1,1.6,2.591,9.039,9.039,0,0,1-4.626,11.607,15.824,15.824,0,0,1-12.452-5.753,9.039,9.039,0,0,1,8.7-11.509" transform="translate(-391.48 -228.353)"/>
            <path id="Trazado_186394" data-name="Trazado 186394" d="M479.641,642.083l.06-.01c.285-.051,29.309-2.706,36.949-18.017l-.794-.336c-3.884,7.784-13.241,11.106-20.5,13.979a61.235,61.235,0,0,1-15.765,3.574c-19.188-1.49-31.99-6.9-39.353-11.174-7.983-4.637-11.47-8.981-11.5-9.024l-.707.473c.142.18,3.592,4.487,11.7,9.2,7.458,4.341,20.426,9.829,39.854,11.327Z" transform="translate(-336.622 -488.441)"/>
            <rect id="Rectángulo_46555" data-name="Rectángulo 46555" width="0.805" height="39.79" transform="translate(112.653 124.829) rotate(-59.229)"/>
            <rect id="Rectángulo_46556" data-name="Rectángulo 46556" width="23.769" height="0.804" transform="matrix(0.776, -0.631, 0.631, 0.776, 140.541, 140.817)"/>
            <path id="Trazado_186395" data-name="Trazado 186395" d="M474.44,1026.2l-15.077,6.011-1.862-38.46a69.506,69.506,0,0,0,14.471-2.847c8.122-2.468,11.006,31.891,2.467,35.3" transform="translate(-359.8 -779.196)" fill="#e27756"/>
            <path id="Trazado_186396" data-name="Trazado 186396" d="M507.528,802.756a2.295,2.295,0,1,1-2.289-2.136,2.217,2.217,0,0,1,2.289,2.136" transform="translate(-395.543 -629.644)" fill="#a3a3a3"/>
            <path id="Trazado_186397" data-name="Trazado 186397" d="M540.555,817.523a2.295,2.295,0,1,1-2.289-2.136,2.217,2.217,0,0,1,2.289,2.136" transform="translate(-421.517 -641.258)" fill="#a3a3a3"/>
            <path id="Trazado_186398" data-name="Trazado 186398" d="M507.528,829.875a2.295,2.295,0,1,1-2.289-2.136,2.217,2.217,0,0,1,2.289,2.136" transform="translate(-395.543 -650.972)" fill="#a3a3a3"/>
            <path id="Trazado_186399" data-name="Trazado 186399" d="M528.517,1003.624a.378.378,0,0,0,.08-.009,77.569,77.569,0,0,0,21.76-9.19.383.383,0,0,0-.4-.653,76.785,76.785,0,0,1-21.518,9.093.384.384,0,0,0,.08.759" transform="translate(-415.349 -781.503)"/>
            <path id="Trazado_186400" data-name="Trazado 186400" d="M553.533,1036.677a.384.384,0,0,0,.115-.018A102,102,0,0,0,577,1025.294a.383.383,0,1,0-.431-.634,101.139,101.139,0,0,1-23.156,11.268.383.383,0,0,0,.115.749" transform="translate(-435.022 -805.787)"/>
            <path id="Trazado_186401" data-name="Trazado 186401" d="M565.89,1076.82a.393.393,0,0,0,.112-.017,69.5,69.5,0,0,0,19.933-9.982.383.383,0,0,0-.453-.618,68.7,68.7,0,0,1-19.7,9.866.384.384,0,0,0,.112.75" transform="translate(-444.741 -838.453)"/>
            <g id="Grupo_178124" data-name="Grupo 178124" transform="translate(141.392 220.09)" style="mix-blend-mode: overlay;isolation: isolate">
              <g id="Grupo_178123" data-name="Grupo 178123">
                <g id="Grupo_178122" data-name="Grupo 178122" clip-path="url(#clip-path-3)">
                  <path id="Trazado_186402" data-name="Trazado 186402" d="M664.44,1036.236a3.734,3.734,0,0,0,2.186-.759c1.437-1.057,1.927-2.841,1.092-3.976a2.311,2.311,0,0,0-1.886-.9,3.9,3.9,0,0,0-3.623,2.667,2.21,2.21,0,0,0,2.182,2.964h.049m1.342-4.865h.037a1.565,1.565,0,0,1,1.28.585c.584.794.168,2.1-.929,2.9a2.963,2.963,0,0,1-1.768.609,1.448,1.448,0,0,1-1.459-1.982,3.141,3.141,0,0,1,2.838-2.117" transform="translate(-662.093 -1030.604)"/>
                </g>
              </g>
            </g>
            <g id="Grupo_178127" data-name="Grupo 178127" transform="translate(142.683 209.691)" style="mix-blend-mode: overlay;isolation: isolate">
              <g id="Grupo_178126" data-name="Grupo 178126">
                <g id="Grupo_178125" data-name="Grupo 178125" clip-path="url(#clip-path-4)">
                  <path id="Trazado_186403" data-name="Trazado 186403" d="M670.81,987.91a4.248,4.248,0,0,0,2.1-.589c1.7-.982,2.459-2.862,1.692-4.192a2.511,2.511,0,0,0-1.939-1.193,4.119,4.119,0,0,0-2.537.563c-1.7.982-2.459,2.862-1.692,4.192a2.509,2.509,0,0,0,1.94,1.193,3.5,3.5,0,0,0,.432.026m1.423-5.234a2.742,2.742,0,0,1,.34.021,1.764,1.764,0,0,1,1.37.816c.556.964-.077,2.374-1.411,3.144a3.351,3.351,0,0,1-2.059.466,1.765,1.765,0,0,1-1.37-.816c-.556-.964.077-2.374,1.411-3.144a3.473,3.473,0,0,1,1.719-.487" transform="translate(-668.139 -981.909)"/>
                </g>
              </g>
            </g>
            <g id="Grupo_178130" data-name="Grupo 178130" transform="translate(135.613 203.207)" style="mix-blend-mode: overlay;isolation: isolate">
              <g id="Grupo_178129" data-name="Grupo 178129">
                <g id="Grupo_178128" data-name="Grupo 178128" clip-path="url(#clip-path-5)">
                  <path id="Trazado_186404" data-name="Trazado 186404" d="M637.956,957.844a4.024,4.024,0,0,0,2-.554,3.914,3.914,0,0,0,1.731-1.983,2.764,2.764,0,0,0-.145-2.393,3.32,3.32,0,0,0-4.582-.815,3.916,3.916,0,0,0-1.731,1.984,2.683,2.683,0,0,0,2.144,3.714,3.528,3.528,0,0,0,.579.047m1.017-5.532a2.132,2.132,0,0,1,1.909.986,2.012,2.012,0,0,1,.091,1.74,3.3,3.3,0,0,1-3.47,2,1.918,1.918,0,0,1-1.552-2.688,3.147,3.147,0,0,1,1.4-1.589,3.274,3.274,0,0,1,1.626-.451" transform="translate(-635.029 -951.547)"/>
                </g>
              </g>
            </g>
            <g id="Grupo_178133" data-name="Grupo 178133" transform="translate(137.772 229.761)" style="mix-blend-mode: overlay;isolation: isolate">
              <g id="Grupo_178132" data-name="Grupo 178132">
                <g id="Grupo_178131" data-name="Grupo 178131" clip-path="url(#clip-path-6)">
                  <path id="Trazado_186405" data-name="Trazado 186405" d="M646.572,1076.606a3.194,3.194,0,0,1,3.31-.424,3.365,3.365,0,0,1,.16,1.15c-.016-.025-.03-.05-.047-.074a1.607,1.607,0,0,0-1.334-.606,2.8,2.8,0,0,0-1.634.571,2.762,2.762,0,0,0-1.048,1.459,1.583,1.583,0,0,0,.2,1.385,1.632,1.632,0,0,0,1.418.6q-.425.3-.92.638a2.2,2.2,0,0,1-1.116-.786,2.332,2.332,0,0,1-.322-2.043,3.528,3.528,0,0,1,1.333-1.873" transform="translate(-645.138 -1075.893)"/>
                </g>
              </g>
            </g>
          </g>
        </g>
      </g>
      <g id="Grupo_178138" data-name="Grupo 178138" transform="translate(504.641 7038.516) rotate(-16)" clip-path="url(#clip-path-7)">
        <path id="Trazado_186406" data-name="Trazado 186406" d="M37.558,2.677,1.2,3.674A1.208,1.208,0,0,1,0,2.37,1.372,1.372,0,0,1,1.264,1L37.625,0a1.209,1.209,0,0,1,1.2,1.3,1.372,1.372,0,0,1-1.264,1.372" transform="translate(8.804 6.991)" fill="#f2edfd"/>
        <path id="Trazado_186407" data-name="Trazado 186407" d="M37.558,2.677,1.2,3.674A1.208,1.208,0,0,1,0,2.37,1.372,1.372,0,0,1,1.264,1L37.625,0a1.209,1.209,0,0,1,1.2,1.3,1.372,1.372,0,0,1-1.264,1.372" transform="translate(8.52 18.242)" fill="#f2edfd"/>
        <path id="Trazado_186408" data-name="Trazado 186408" d="M37.558,2.677,1.2,3.675A1.208,1.208,0,0,1,0,2.37,1.372,1.372,0,0,1,1.264,1L37.625,0a1.209,1.209,0,0,1,1.2,1.3,1.372,1.372,0,0,1-1.264,1.372" transform="translate(8.237 29.493)" fill="#f2edfd"/>
        <path id="Trazado_186409" data-name="Trazado 186409" d="M37.558,2.677,1.2,3.675A1.208,1.208,0,0,1,0,2.37,1.372,1.372,0,0,1,1.264,1L37.625,0a1.209,1.209,0,0,1,1.2,1.3,1.372,1.372,0,0,1-1.264,1.372" transform="translate(7.669 51.996)" fill="#f2edfd"/>
        <path id="Trazado_186410" data-name="Trazado 186410" d="M37.558,2.677,1.2,3.675A1.209,1.209,0,0,1,0,2.37,1.372,1.372,0,0,1,1.264,1L37.625,0a1.209,1.209,0,0,1,1.2,1.3,1.373,1.373,0,0,1-1.264,1.372" transform="translate(7.385 63.248)" fill="#f2edfd"/>
        <path id="Trazado_186411" data-name="Trazado 186411" d="M37.558,2.677,1.2,3.675A1.209,1.209,0,0,1,0,2.37,1.372,1.372,0,0,1,1.264,1L37.625,0a1.209,1.209,0,0,1,1.2,1.3,1.372,1.372,0,0,1-1.264,1.372" transform="translate(7.102 74.499)" fill="#f2edfd"/>
        <path id="Trazado_186412" data-name="Trazado 186412" d="M15.011,33.765a30.612,30.612,0,0,0-5.657,3.151,20.81,20.81,0,0,1-3.143-3.262C-2.6,22.3.505,3.319.64,2.518A2.876,2.876,0,0,1,3.752.025,2.712,2.712,0,0,1,5.883,3.279a50.764,50.764,0,0,0-.519,6.277C5.217,15.4,5.9,24.043,10.37,29.791a14.941,14.941,0,0,0,4.641,3.974" transform="translate(1.778 1.363)" fill="#31313c"/>
        <path id="Trazado_186413" data-name="Trazado 186413" d="M24.753,2.8A30.827,30.827,0,0,1,14.017,5.837c-.675-.035-1.363-.043-2.073-.023A25.311,25.311,0,0,1,0,3.51,27.266,27.266,0,0,1,10.173,0q.933.041,1.917.014A24.281,24.281,0,0,1,24.753,2.8" transform="translate(15.064 37.299)" fill="#e65943"/>
        <path id="Trazado_186414" data-name="Trazado 186414" d="M14.7,35.481A2.945,2.945,0,0,1,12,38.087a2.9,2.9,0,0,1-.34-.013,2.7,2.7,0,0,1-2.227-3.18c.025-.183,2.507-18.64-5.4-28.479A15.769,15.769,0,0,0,0,2.839,29.237,29.237,0,0,0,5.809,0,21.828,21.828,0,0,1,8.135,2.486c9.448,11.782,6.685,32.136,6.565,33" transform="translate(37.832 42.838)" fill="#31313c"/>
        <path id="Trazado_186415" data-name="Trazado 186415" d="M2.739,82.128A2.578,2.578,0,0,1,.162,79.669c-.079-.855-1.819-21.088,8.237-33.4,4.726-5.789,11.2-8.836,19.244-9.056,6.643-.182,11.808-2.54,15.351-7.006A22.852,22.852,0,0,0,45.2,26.79C50.408,17.3,48.832,3.579,48.814,3.427a3.056,3.056,0,0,1,2.3-3.379A2.544,2.544,0,0,1,54.1,2.375c.1.8,2.251,19.634-7.149,31.485C42.318,39.7,35.772,42.782,27.5,43.009c-6.437.177-11.545,2.52-15.182,6.965C3.9,60.261,5.453,78.608,5.469,78.792a3.043,3.043,0,0,1-2.391,3.3,2.539,2.539,0,0,1-.339.033" transform="translate(0.195 0.083)" fill="#31313c"/>
      </g>
    </g>
    <g id="Grupo_178137" data-name="Grupo 178137">
      <g id="Grupo_177797" data-name="Grupo 177797" transform="translate(0 53.911)">
        <path id="Trazado_145969" data-name="Trazado 145969" d="M41.164,0A41.164,41.164,0,1,1,0,41.164,41.164,41.164,0,0,1,41.164,0Z" transform="translate(181 6742.089)" fill="#fd9827" opacity="0.444" style="mix-blend-mode: multiply;isolation: isolate"/>
        <path id="Trazado_145971" data-name="Trazado 145971" d="M4.7,0A4.7,4.7,0,1,1,0,4.7,4.7,4.7,0,0,1,4.7,0Z" transform="translate(199.56 7043.758)" fill="#31313c" opacity="0.444" style="mix-blend-mode: multiply;isolation: isolate"/>
        <line id="Línea_138" data-name="Línea 138" y2="100.505" transform="translate(199.56 6857.525)" fill="none" stroke="#31313c" stroke-linecap="round" stroke-width="3" stroke-dasharray="8"/>
        <g id="Grupo_177796" data-name="Grupo 177796" transform="translate(246.886 6761.662)" clip-path="url(#clip-path-8)">
          <path id="Trazado_185707" data-name="Trazado 185707" d="M.524,22.242C14.588,24.083,17.293,27.07,18.96,42.6a.59.59,0,0,0,1.18,0c1.666-15.532,4.372-18.518,18.436-20.359a.667.667,0,0,0,0-1.3C24.512,19.1,21.807,16.112,20.14.579a.59.59,0,0,0-1.18,0C17.293,16.112,14.588,19.1.524,20.939a.667.667,0,0,0,0,1.3" transform="translate(0.001 0)" fill="#31313c"/>
        </g>
      </g>
    </g>
  </g>
</svg>
