<svg xmlns="http://www.w3.org/2000/svg" xmlns:xlink="http://www.w3.org/1999/xlink" width="399" height="487.8" viewBox="0 0 399 487.8">
  <defs>
    <clipPath id="clip-path">
      <path id="Trazado_185706" data-name="Trazado 185706" d="M2.039,80.845,54.8,82.293l-.424-16.824L52.76,1.447,0,0Z" transform="translate(0 0)" fill="none"/>
    </clipPath>
    <clipPath id="clip-path-2">
      <rect id="Rectángulo_46390" data-name="Rectángulo 46390" width="39.101" height="43.181" fill="#31313c"/>
    </clipPath>
  </defs>
  <g id="Grupo_178121" data-name="Grupo 178121" transform="translate(-1025 -7252.957)">
    <g id="Grupo_177798" data-name="Grupo 177798" transform="translate(1025 7287)">
      <rect id="Rectángulo_34948" data-name="Rectángulo 34948" width="395.099" height="445.38" rx="197.55" transform="translate(0.075 7.974)" fill="#f6dfb8"/>
      <path id="Trazado_145969" data-name="Trazado 145969" d="M41.164,0A41.164,41.164,0,1,0,82.327,41.164,41.164,41.164,0,0,0,41.164,0Z" transform="translate(316.673)" fill="#fd9827" opacity="0.444" style="mix-blend-mode: multiply;isolation: isolate"/>
      <path id="Trazado_145971" data-name="Trazado 145971" d="M4.7,0A4.7,4.7,0,1,0,9.4,4.7,4.7,4.7,0,0,0,4.7,0Z" transform="translate(371.044 433.402)" fill="#31313c" opacity="0.444" style="mix-blend-mode: multiply;isolation: isolate"/>
      <line id="Línea_138" data-name="Línea 138" y2="100.505" transform="translate(380.44 184.208)" fill="none" stroke="#31313c" stroke-linecap="round" stroke-width="3" stroke-dasharray="8"/>
      <g id="Grupo_177795" data-name="Grupo 177795" transform="translate(52.676 453.354) rotate(-164)" clip-path="url(#clip-path)">
        <path id="Trazado_185696" data-name="Trazado 185696" d="M37.558,1,1.2,0A1.208,1.208,0,0,0,0,1.3,1.372,1.372,0,0,0,1.264,2.677l36.361,1a1.209,1.209,0,0,0,1.2-1.3A1.372,1.372,0,0,0,37.558,1" transform="translate(8.804 71.628)" fill="#f2edfd"/>
        <path id="Trazado_185697" data-name="Trazado 185697" d="M37.558,1,1.2,0A1.208,1.208,0,0,0,0,1.3,1.372,1.372,0,0,0,1.264,2.677l36.361,1a1.209,1.209,0,0,0,1.2-1.3A1.372,1.372,0,0,0,37.558,1" transform="translate(8.52 60.376)" fill="#f2edfd"/>
        <path id="Trazado_185698" data-name="Trazado 185698" d="M37.558,1,1.2,0A1.208,1.208,0,0,0,0,1.305,1.372,1.372,0,0,0,1.264,2.677l36.361,1a1.209,1.209,0,0,0,1.2-1.3A1.372,1.372,0,0,0,37.558,1" transform="translate(8.237 49.125)" fill="#f2edfd"/>
        <path id="Trazado_185699" data-name="Trazado 185699" d="M37.558,1,1.2,0A1.208,1.208,0,0,0,0,1.305,1.372,1.372,0,0,0,1.264,2.677l36.361,1a1.209,1.209,0,0,0,1.2-1.3A1.372,1.372,0,0,0,37.558,1" transform="translate(7.669 26.622)" fill="#f2edfd"/>
        <path id="Trazado_185700" data-name="Trazado 185700" d="M37.558,1,1.2,0A1.209,1.209,0,0,0,0,1.305,1.372,1.372,0,0,0,1.264,2.677l36.361,1a1.209,1.209,0,0,0,1.2-1.3A1.373,1.373,0,0,0,37.558,1" transform="translate(7.385 15.37)" fill="#f2edfd"/>
        <path id="Trazado_185701" data-name="Trazado 185701" d="M37.558,1,1.2,0A1.209,1.209,0,0,0,0,1.305,1.372,1.372,0,0,0,1.264,2.677l36.361,1a1.209,1.209,0,0,0,1.2-1.3A1.372,1.372,0,0,0,37.558,1" transform="translate(7.102 4.119)" fill="#f2edfd"/>
        <path id="Trazado_185702" data-name="Trazado 185702" d="M15.011,3.151A30.612,30.612,0,0,1,9.354,0,20.81,20.81,0,0,0,6.211,3.262C-2.6,14.615.505,33.6.64,34.4a2.876,2.876,0,0,0,3.112,2.492,2.712,2.712,0,0,0,2.131-3.254,50.764,50.764,0,0,1-.519-6.277C5.217,21.52,5.9,12.873,10.37,7.125a14.941,14.941,0,0,1,4.641-3.974" transform="translate(1.778 44.014)" fill="#31313c"/>
        <path id="Trazado_185703" data-name="Trazado 185703" d="M24.753,3.041A30.827,30.827,0,0,0,14.017,0c-.675.035-1.363.043-2.073.023A25.311,25.311,0,0,0,0,2.326a27.266,27.266,0,0,0,10.173,3.51q.933-.041,1.917-.014A24.281,24.281,0,0,0,24.753,3.041" transform="translate(15.064 39.157)" fill="#e65943"/>
        <path id="Trazado_185704" data-name="Trazado 185704" d="M14.7,2.607A2.945,2.945,0,0,0,12,0a2.9,2.9,0,0,0-.34.013,2.7,2.7,0,0,0-2.227,3.18c.025.183,2.507,18.64-5.4,28.479A15.769,15.769,0,0,1,0,35.25a29.237,29.237,0,0,1,5.809,2.839A21.828,21.828,0,0,0,8.135,35.6c9.448-11.782,6.685-32.136,6.565-33" transform="translate(37.832 1.366)" fill="#31313c"/>
        <path id="Trazado_185705" data-name="Trazado 185705" d="M2.739,0A2.578,2.578,0,0,0,.162,2.46c-.079.855-1.819,21.088,8.237,33.4,4.726,5.789,11.2,8.836,19.244,9.056,6.643.182,11.808,2.54,15.351,7.006A22.852,22.852,0,0,1,45.2,55.338c5.208,9.487,3.632,23.211,3.614,23.363a3.056,3.056,0,0,0,2.3,3.379A2.544,2.544,0,0,0,54.1,79.754c.1-.8,2.251-19.634-7.149-31.485-4.636-5.845-11.181-8.923-19.456-9.15-6.437-.177-11.545-2.52-15.182-6.965C3.9,21.868,5.453,3.52,5.469,3.337A3.043,3.043,0,0,0,3.078.033,2.539,2.539,0,0,0,2.739,0" transform="translate(0.195 0.081)" fill="#31313c"/>
      </g>
      <g id="Grupo_177796" data-name="Grupo 177796" transform="translate(294.013 19.573)" clip-path="url(#clip-path-2)">
        <path id="Trazado_185707" data-name="Trazado 185707" d="M38.576,22.242C24.512,24.083,21.807,27.07,20.14,42.6a.59.59,0,0,1-1.18,0C17.294,27.07,14.588,24.083.524,22.242a.667.667,0,0,1,0-1.3C14.588,19.1,17.294,16.112,18.96.579a.59.59,0,0,1,1.18,0c1.667,15.532,4.372,18.519,18.436,20.36a.667.667,0,0,1,0,1.3" transform="translate(0 0)" fill="#31313c"/>
      </g>
    </g>
    <g id="Grupo_178120" data-name="Grupo 178120" transform="translate(1042 7252.957)">
      <g id="Grupo_177871" data-name="Grupo 177871" transform="translate(0 0)">
        <path id="Trazado_185708" data-name="Trazado 185708" d="M244.993,76.464c-7.821,0-14.161,1.093-14.161,2.439v54.723a14.162,14.162,0,1,0,28.323,0V78.9c0-1.347-6.34-2.439-14.162-2.439" transform="translate(-130.903 -43.362)" fill="#fff"/>
        <path id="Trazado_185709" data-name="Trazado 185709" d="M237.28,104.078v44.627a11.37,11.37,0,0,0,22.74,0V104.078Z" transform="translate(-134.559 -59.022)" fill="#dd4b8e"/>
        <path id="Trazado_185710" data-name="Trazado 185710" d="M268.027,193.048a2.242,2.242,0,1,1-2.241-2.241,2.242,2.242,0,0,1,2.241,2.241" transform="translate(-149.453 -108.205)" fill="#a1295f"/>
        <path id="Trazado_185711" data-name="Trazado 185711" d="M267.78,163.591a4.75,4.75,0,1,1-4.75-4.75,4.749,4.749,0,0,1,4.75,4.75" transform="translate(-146.469 -90.077)" fill="#a1295f"/>
        <path id="Trazado_185712" data-name="Trazado 185712" d="M278.869,119.738a1.677,1.677,0,1,1-1.678-1.677,1.678,1.678,0,0,1,1.678,1.677" transform="translate(-156.241 -66.951)" fill="#a1295f"/>
        <path id="Trazado_185713" data-name="Trazado 185713" d="M155.457,227.638l-9.711,24.036L107.255,247l24.1-26.533Z" transform="translate(-60.823 -125.026)" fill="#ffb1a7"/>
        <rect id="Rectángulo_46415" data-name="Rectángulo 46415" width="60.53" height="147.347" transform="translate(145.65 340.453)" fill="#ccc"/>
        <path id="Trazado_185714" data-name="Trazado 185714" d="M416.76,883.351H341.785L319.232,747.763,306.148,883.351H250.389l30.783-185.839h94.257Z" transform="translate(-141.993 -395.552)" fill="#4e60ed"/>
        <path id="Trazado_185715" data-name="Trazado 185715" d="M381.414,725.76l-5.985-28.247H281.171L250.388,883.352h30.783l28.14-170.605Z" transform="translate(-141.993 -395.552)" fill="#3e4cb8"/>
        <path id="Línea_191" data-name="Línea 191" d="M2.626,50.334,4.212.083.853-.023-.733,50.228Z" transform="translate(176.292 301.931)" fill="#3e4cb8"/>
        <path id="Trazado_185716" data-name="Trazado 185716" d="M400.779,756.311l1.444-3.035c-.066-.032-6.875-3.353-6.875-8.155V733.749h-3.361V745.12C391.987,752.049,400.42,756.14,400.779,756.311Z" transform="translate(-223.836 -416.101)" fill="#3e4cb8"/>
        <path id="Trazado_185717" data-name="Trazado 185717" d="M411.244,824.6,482.7,955.421H433Z" transform="translate(-233.212 -467.622)" fill="#3e4cb8"/>
        <path id="Trazado_185718" data-name="Trazado 185718" d="M408.915,271.3l6.839,4.934V453.871H321.5l49.111-185.994,11.5,3.128Z" transform="translate(-182.317 -151.91)" fill="#dd4b8e"/>
        <path id="Trazado_185719" data-name="Trazado 185719" d="M447.467,316.431a18.31,18.31,0,0,0,4.224-.5c4.061-.964,7.457-3.784,10.094-8.381a45.009,45.009,0,0,0,4.585-13.014,93.816,93.816,0,0,0,1.86-17.275v-1.418l-5.311-3.831L427.5,269.839l-.9,1.1a121.114,121.114,0,0,0-9.056,12.945c-6.079,10.136-7.872,17.373-5.48,22.125,2.008,3.99,5.7,6.1,10.673,6.1a27.906,27.906,0,0,0,9.983-2.219C435.154,312.275,440.4,316.43,447.467,316.431Zm15.19-37.774a89.827,89.827,0,0,1-1.728,14.817c-2.681,12.678-7.2,16.277-10.518,17.065a12.759,12.759,0,0,1-2.943.35c-6.97,0-11.844-6-11.892-6.065l-1.417-1.8-2.022,1.058c-.045.023-4.919,2.483-9.4,2.483-3.754,0-5.064-1.74-5.722-3.048s-1.453-5.535,5.253-16.733a117.864,117.864,0,0,1,7.75-11.235l30.959,1.9Z" transform="translate(-235.35 -155.337)" fill="#a1295f"/>
        <path id="Trazado_185720" data-name="Trazado 185720" d="M340.2,503.532l4.077-32.608L340.2,413.437l12.526-57.988H340.2l-39.772,147.58Z" transform="translate(-170.372 -201.571)" fill="#a1295f"/>
        <path id="Trazado_185721" data-name="Trazado 185721" d="M486.135,275.1s29.932,6.542,43.412,10.308,33.1,14.669,47.377,44.4,40.042,80.481,40.042,80.481l-69.975,2.18-19.228-47.432-10.9,65.273,56.693,213.492H501.037a38.741,38.741,0,0,1-38.652-36.113L450.324,430.315Z" transform="translate(-255.374 -156.007)" fill="#fff"/>
        <path id="Trazado_185722" data-name="Trazado 185722" d="M502.41,338.321c6.092-21.244-18.258-39.356-18.632-39.633l-33.455,145,.473,6.953c8.284-9.612,32.053-38.481,34.748-56.279a32.47,32.47,0,0,0-7.334-25.814,51.182,51.182,0,0,0,24.2-30.23" transform="translate(-255.373 -169.383)" fill="#ccc"/>
        <path id="Trazado_185723" data-name="Trazado 185723" d="M523.2,548.133l10.9-65.273-26.761,38.512-40.583-16.991-5.252,22.764,38.7,28.065s-1.487,27.711,2.082,38.118l38.478,20.949Z" transform="translate(-261.717 -273.825)" fill="#ccc"/>
        <path id="Trazado_185724" data-name="Trazado 185724" d="M577.159,605.124c-8.524-2.775,1.784-46.584,1.784-46.584l26.563,4.758Z" transform="translate(-325.387 -316.742)" fill="#ccc"/>
        <path id="Trazado_185725" data-name="Trazado 185725" d="M194.014,260.937l-29.858,99.281,1.487,56.283L134.125,633.616H55.031L124.213,407.79l-.994-48.151-3.367-12.662s-14.57,17.84-35.384,41.925-55.6,19.03-68.686,10.407S-8.3,364.832,8.646,331.672s37.168-69.437,37.168-69.437l48.17,6.244-9.515,35.086s24.285-19.692,36.179-30.694,37.363-21.638,73.367-11.935" transform="translate(0 -145.816)" fill="#fff"/>
        <path id="Trazado_185726" data-name="Trazado 185726" d="M346.032,331.3c-11.137,22.079,2.189,36.317,2.189,36.317s-30.454,18.465,6.6,85.628l1.614-11.112-1.487-56.283,25.118-83.52c-8.362,3.473-25.653,12.344-34.038,28.969" transform="translate(-190.797 -171.448)" fill="#ccc"/>
        <path id="Trazado_185727" data-name="Trazado 185727" d="M223.741,391.7c-3.271,8.623-4.906,16.948-7.879,23.193-2.557,5.369-12.868,19.559-10.924,32.668,18.442-21.462,30.995-36.831,30.995-36.831-2.379-8.623-2.379-21.26,8.326-41.182,0,0-13.814,4.48-20.517,22.152" transform="translate(-116.081 -209.564)" fill="#ccc"/>
        <path id="Trazado_185728" data-name="Trazado 185728" d="M499.159,800.768h52.729s14.856,44.8-8.932,44.8-39.436-14.669-43.8-44.8" transform="translate(-283.068 -454.107)" fill="#ccc"/>
        <path id="Trazado_185729" data-name="Trazado 185729" d="M197.031,843.108a12.446,12.446,0,0,0,7.957,2.46c23.788,0,39.436-14.669,43.8-44.8H210" transform="translate(-111.734 -454.107)" fill="#ccc"/>
        <path id="Trazado_185730" data-name="Trazado 185730" d="M584.008,547.826l-28.745-4.855L550.9,560.218l31.717,17.047Z" transform="translate(-312.411 -307.913)" fill="#ffb1a7"/>
        <path id="Trazado_185731" data-name="Trazado 185731" d="M480.584,344.978a51.182,51.182,0,0,0,24.2-30.23c6.14-21.409-18.65-39.646-18.65-39.646l-35.81,155.213s34.324-37.927,37.594-59.524a32.47,32.47,0,0,0-7.334-25.814" transform="translate(-255.374 -156.007)" fill="#fff"/>
        <path id="Trazado_185732" data-name="Trazado 185732" d="M384.807,265.923s-27.479,8.335-38.778,30.734c-11.138,22.08,2.188,36.318,2.188,36.318s-31.328,18.988,8.218,88.512L354.949,365.2Z" transform="translate(-190.793 -150.802)" fill="#fff"/>
        <path id="Línea_192" data-name="Línea 192" d="M1.955,63.775,16.228.441l-2.5-.564L-.546,63.211Z" transform="translate(69.49 157.59)" fill="#ccc"/>
        <path id="Trazado_185733" data-name="Trazado 185733" d="M183.981,465.8a45.3,45.3,0,0,0-5-22.5l-2.265,1.2a43.326,43.326,0,0,1,4.71,21.1Z" transform="translate(-101.102 -251.878)" fill="#ccc"/>
        <path id="Línea_193" data-name="Línea 193" d="M1.889,42.81,16.855.671,14.439-.187-.527,41.952Z" transform="translate(56.042 119.531)" fill="#ccc"/>
        <path id="Trazado_185734" data-name="Trazado 185734" d="M134.425,297.53a2.28,2.28,0,1,1-2.28-2.28,2.28,2.28,0,0,1,2.28,2.28" transform="translate(-73.646 -167.433)" fill="#dd4b8e"/>
        <path id="Trazado_185735" data-name="Trazado 185735" d="M119.315,338.74a2.279,2.279,0,1,1-2.28-2.28,2.28,2.28,0,0,1,2.28,2.28" transform="translate(-65.077 -190.803)" fill="#dd4b8e"/>
        <path id="Línea_194" data-name="Línea 194" d="M1.982,31.959,6.74.3,4.2-.083-.553,31.578Z" transform="translate(271.674 177.267)" fill="#ccc"/>
        <path id="Trazado_185736" data-name="Trazado 185736" d="M631.017,448.559A55.2,55.2,0,0,0,643.9,433.166a62.412,62.412,0,0,0,4.247-8.534l-2.4-.913c-.064.168-5.532,14.242-16.327,22.833Z" transform="translate(-357.51 -240.657)" fill="#ccc"/>
        <path id="Trazado_185737" data-name="Trazado 185737" d="M575.756,425.806h7.619V409.883a3.81,3.81,0,1,0-7.619,0Zm5.055-2.564H578.32V409.883a1.246,1.246,0,1,1,2.491,0Z" transform="translate(-327.545 -231.32)" fill="#fff"/>
        <path id="Trazado_185738" data-name="Trazado 185738" d="M590.719,448.761l1.338-2.187c-3.2-1.957-2.128-8.39-.4-12.122,2.611-5.63,1.887-10.893-2.04-14.82l-1.813,1.813c3.986,3.987,3.031,8.687,1.527,11.929a20.873,20.873,0,0,0-1.9,8.041C587.381,444.874,588.518,447.414,590.719,448.761Z" transform="translate(-334.164 -238.704)" fill="#fff"/>
        <path id="Trazado_185739" data-name="Trazado 185739" d="M541.536,445.087h46.248l-8.507-2.512a69.188,69.188,0,0,0-17.457-2.5c-8.965,0-14.564,2.457-14.8,2.562Z" transform="translate(-311.432 -250.6)" fill="#fff"/>
        <path id="Trazado_185740" data-name="Trazado 185740" d="M143.832,166.025l31.32,6.343,6.343-16.986V144.128s4.163-4.616,7.285-4.765,8.177.743,8.326-1.189-7.582-3.42-13.083-2.081c0,0,5.65-2.528,9.961-1.933s6.1.149,6.244-1.189-8.772-3.865-15.908-1.19a16.9,16.9,0,0,1,8.772-3.122c5.2-.3,8.326.743,8.623-.892s-6.542-5.947-17.989-1.189c0,0,4.163-4.609,9.515-4.609s6.839-2.676,5.055-3.568-13.38,0-18.287,2.379-9.515,8.028-10.556,18.138Z" transform="translate(-81.566 -66.951)" fill="#e3ba33"/>
        <path id="Trazado_185741" data-name="Trazado 185741" d="M210.6,177.342a10.076,10.076,0,0,0,8.718,5.55V189s-9.7-2.837-8.718-11.658" transform="translate(-119.391 -100.569)" fill="#9a8025"/>
        <path id="Trazado_185742" data-name="Trazado 185742" d="M399.858,537.151H367.6a10.336,10.336,0,0,1-10.336-10.336V472.544a21.263,21.263,0,0,0-5.957-14.759l-1.866-1.935h60.75v70.965a10.336,10.336,0,0,1-10.336,10.336" transform="translate(-198.166 -258.508)" fill="#7080fa"/>
        <path id="Trazado_185743" data-name="Trazado 185743" d="M415.152,547.158H383.589a6.565,6.565,0,0,1-6.565-6.565V487.2a5.1,5.1,0,0,1,2.507-4.443c7.189-4.1,15.847,3.2,42.186,1.958v55.875a6.565,6.565,0,0,1-6.565,6.565" transform="translate(-213.806 -273.051)" fill="#fff"/>
        <path id="Trazado_185744" data-name="Trazado 185744" d="M442.771,557.8a8.69,8.69,0,1,1-8.69-8.69,8.69,8.69,0,0,1,8.69,8.69" transform="translate(-241.235 -311.393)" fill="#dfe6cb"/>
        <path id="Trazado_185745" data-name="Trazado 185745" d="M409.624,586.627A2.825,2.825,0,1,1,406.8,583.8a2.825,2.825,0,0,1,2.826,2.826" transform="translate(-229.089 -331.067)" fill="#dfe6cb"/>
        <path id="Trazado_185746" data-name="Trazado 185746" d="M410.107,518.5a5.45,5.45,0,1,1-5.45-5.45,5.45,5.45,0,0,1,5.45,5.45" transform="translate(-226.386 -290.945)" fill="#dfe6cb"/>
        <path id="Trazado_185747" data-name="Trazado 185747" d="M342.52,343.691h-2.114v-18.5a3.826,3.826,0,0,0-3.822-3.822H309.431a6.211,6.211,0,1,1,0-12.422h26.976a4,4,0,1,0,0-7.995h-68.3a7,7,0,0,1,0-14.009H292.9a3.4,3.4,0,0,0,0-6.806H267.318a6.223,6.223,0,0,1-6.216-6.216v-32.7h2.115v32.7a4.106,4.106,0,0,0,4.1,4.1H292.9a5.518,5.518,0,0,1,0,11.035h-24.79a4.89,4.89,0,0,0,0,9.779h68.3a6.112,6.112,0,1,1,0,12.224H309.431a4.1,4.1,0,0,0,0,8.194h27.153a5.942,5.942,0,0,1,5.936,5.936Z" transform="translate(-148.068 -136.792)" fill="#7080fa"/>
        <path id="Línea_195" data-name="Línea 195" d="M-.6,16.169h2.77V0H-.6Z" transform="translate(191.086 197.342)" fill="#fff"/>
        <path id="Línea_196" data-name="Línea 196" d="M-.6,16.169h2.77V0H-.6Z" transform="translate(194.169 197.342)" fill="#fff"/>
        <path id="Línea_197" data-name="Línea 197" d="M0,2.628H12.4V-.734H0Z" transform="translate(159.101 214.92)" fill="#3e4cb8"/>
        <path id="Línea_198" data-name="Línea 198" d="M0,2.628H8.363V-.734H0Z" transform="translate(159.101 219.116)" fill="#3e4cb8"/>
        <path id="Línea_199" data-name="Línea 199" d="M0,2.628H8.363V-.734H0Z" transform="translate(159.101 223.313)" fill="#3e4cb8"/>
        <path id="Línea_200" data-name="Línea 200" d="M0,2.628H12.4V-.734H0Z" transform="translate(159.101 227.51)" fill="#3e4cb8"/>
        <path id="Línea_201" data-name="Línea 201" d="M0,2.628H8.363V-.734H0Z" transform="translate(159.101 231.706)" fill="#3e4cb8"/>
        <path id="Línea_202" data-name="Línea 202" d="M0,2.628H8.363V-.734H0Z" transform="translate(159.101 235.903)" fill="#3e4cb8"/>
        <path id="Línea_203" data-name="Línea 203" d="M0,2.628H12.4V-.734H0Z" transform="translate(159.101 240.099)" fill="#3e4cb8"/>
        <path id="Línea_204" data-name="Línea 204" d="M0,2.628H8.363V-.734H0Z" transform="translate(159.101 244.296)" fill="#3e4cb8"/>
        <path id="Línea_205" data-name="Línea 205" d="M0,2.628H8.363V-.734H0Z" transform="translate(159.101 248.493)" fill="#3e4cb8"/>
        <path id="Línea_206" data-name="Línea 206" d="M0,2.628H12.4V-.734H0Z" transform="translate(159.101 252.689)" fill="#3e4cb8"/>
        <path id="Línea_207" data-name="Línea 207" d="M0,2.628H8.363V-.734H0Z" transform="translate(159.101 256.886)" fill="#3e4cb8"/>
        <path id="Línea_208" data-name="Línea 208" d="M0,2.628H8.363V-.734H0Z" transform="translate(159.101 261.082)" fill="#3e4cb8"/>
        <path id="Línea_209" data-name="Línea 209" d="M0,2.628H12.4V-.734H0Z" transform="translate(159.101 265.279)" fill="#3e4cb8"/>
        <path id="Trazado_185748" data-name="Trazado 185748" d="M568.81,164.362s4.726-6.393,14.39-3.122,10.11,14.719,8.177,23.342-8.623,23.639,8.028,27.95c-14.272,7.731-30.615-2.176-33.451-16.354a55.539,55.539,0,0,1,2.856-31.815" transform="translate(-320.326 -90.909)" fill="#31313c"/>
        <path id="Trazado_185749" data-name="Trazado 185749" d="M566.239,162.46l3.756,1.8a4.282,4.282,0,0,1,2.372,3.031,7.984,7.984,0,0,1-.739,5.467,4.22,4.22,0,0,1-4.138,2.037l-4.224-.442Z" transform="translate(-319.422 -92.129)" fill="#fff"/>
        <path id="Trazado_185750" data-name="Trazado 185750" d="M461.115,85.3s6.74,3.965,16.255,10.11,9.713,18.039,8.921,22.6-4.312,17.243-24.382,17.2l-14.471-2.726,2.181-12.489S442.284,105.32,446.248,96l-18.634,9.118s-9.033-5.319-5.6-18.534c4.559-17.543,32.983-17.621,39.1-1.289" transform="translate(-238.879 -41.53)" fill="#31313c"/>
        <path id="Trazado_185753" data-name="Trazado 185753" d="M452.912,158.991a1.1,1.1,0,0,1,.464-1.984c5.293-.86,7.252-4.129,7.554-7.907.4-4.956-3.392-6.76-6.74-5.03s-7.434,10.085-7.434,10.085l1.586-7.731c-7.5-9.824-3.37-25.175-3.37-25.175a59.827,59.827,0,0,0-14.044,2.261,12.965,12.965,0,0,0-9.083,10.474c-.317,2.132-.5,3.97-.61,5.352a19.821,19.821,0,0,0,8.443,34.78l1.765,17.9,1.338,27.95,28.545-31.816-3.568-25.72Z" transform="translate(-234.729 -68.759)" fill="#ffb1a7"/>
        <path id="Trazado_185754" data-name="Trazado 185754" d="M439.3,176.051a1.582,1.582,0,0,0,.433-3.1l-.679-.193.864-1.624a1.582,1.582,0,0,0-2.793-1.485L435.346,173a1.582,1.582,0,0,0,.963,2.264l2.56.73A1.584,1.584,0,0,0,439.3,176.051Z" transform="translate(-246.871 -95.251)" fill="#ac3a3a"/>
        <path id="Trazado_185755" data-name="Trazado 185755" d="M451.012,238.927c9.981-.851,18.074-7.3,20.062-15.7a19.8,19.8,0,0,1-20.75,8.722Z" transform="translate(-255.374 -126.588)" fill="#ac3a3a"/>
        <path id="Trazado_185756" data-name="Trazado 185756" d="M508.729,189.436a7.379,7.379,0,0,0,3.272-6.1,5.391,5.391,0,0,0-8.143-4.78,11.564,11.564,0,0,0-5.163,8.528h5.543c0,.006,0,.013,0,.02a6.335,6.335,0,0,1,.989-2.288,4.663,4.663,0,0,1,1.234-1.36,2.02,2.02,0,0,1-.661,1.276Z" transform="translate(-285.052 -103.075)" fill="#e06b6b"/>
        <path id="Trazado_185757" data-name="Trazado 185757" d="M422.945,144.85l-.564,1.446c-.1.253-2.428,6.235-3.319,9.254a6.025,6.025,0,0,0,.9,5.438,6.75,6.75,0,0,0,5.417,2.613,7.417,7.417,0,0,0,1.045-.075l.41-.059a15.537,15.537,0,0,1,2.161-.221c1.335,0,2.891.33,5.9,4.276,2.181,2.86,4.562,3.46,6.175,3.46,3.767,0,7.009-3.221,7.967-6.335,1.192-3.873,2.487-9.3,2.542-9.531l.367-1.542Zm2.438,15.389a3.379,3.379,0,0,1-2.725-1.265,2.705,2.705,0,0,1-.372-2.474c.593-2.009,1.915-5.552,2.67-7.535l22.98,6.911c-.475,1.915-1.326,5.242-2.108,7.782-.589,1.913-2.64,3.962-4.755,3.962a4.53,4.53,0,0,1-3.5-2.137c-3.072-4.029-5.475-5.6-8.572-5.6a18.17,18.17,0,0,0-2.646.257l-.4.058A4.043,4.043,0,0,1,425.383,160.239Z" transform="translate(-238.792 -83.81)" fill="#fff"/>
        <path id="Línea_210" data-name="Línea 210" d="M6.042,4.217,6.917.971.684-.708-.191,2.537Z" transform="translate(209.22 76.582)" fill="#fff"/>
        <path id="Trazado_185759" data-name="Trazado 185759" d="M439.684,224.49a8.715,8.715,0,0,0,3.426-.741,2.9,2.9,0,1,0-2.271-5.339,2.217,2.217,0,0,1-1.714.161c-.045-.019-.259-.119-.259-.119a2.9,2.9,0,0,0-4.469,3.7A6.975,6.975,0,0,0,439.684,224.49Z" transform="translate(-249.926 -134.426)" fill="#e06b6b"/>
        <path id="Trazado_185760" data-name="Trazado 185760" d="M462.2,166.6c-.426,1.458-1.427,2.449-2.235,2.212s-1.117-1.61-.691-3.068,1.427-2.449,2.234-2.212,1.117,1.61.691,3.068" transform="translate(-260.342 -92.715)" fill="#2a1e53"/>
        <path id="Trazado_185761" data-name="Trazado 185761" d="M438.056,159.535c-.426,1.458-1.427,2.449-2.235,2.212s-1.117-1.61-.69-3.068,1.427-2.448,2.235-2.212,1.117,1.61.69,3.068" transform="translate(-246.65 -88.711)" fill="#2a1e53"/>
        <path id="Línea_211" data-name="Línea 211" d="M7.3,4.638l.846-2.129L.661-.465-.185,1.665Z" transform="translate(200.391 60.909)" fill="#31313c"/>
        <path id="Línea_212" data-name="Línea 212" d="M6.488,2.531,6.749.254.2-.5-.057,1.78Z" transform="translate(188.836 58.91)" fill="#31313c"/>
        <path id="Trazado_185762" data-name="Trazado 185762" d="M490.667,518.467s.006,15.454-7.13,26.955l-23.391-14.267s-8.416.427-11.894-2.084-7.136-5.253-7.136-5.253-12.191,1.091-12.489,0,13.083-3.766,13.083-3.766a25.2,25.2,0,0,0-7.037-2.081c-2.973-.2-7.731.1-7.433-1.288s9.524-3.271,14.822-1.685l-8.281-4.361s-6.865.1-6.555-1.487,8.834-2.478,16.466.991l-5.749-4.956s-6.244-.2-6.046-1.288,3.667-1.535,7.137-1.263,24.382,13.751,24.382,13.751Z" transform="translate(-242.27 -284.994)" fill="#e3ba33"/>
        <path id="Trazado_185763" data-name="Trazado 185763" d="M691.4,566.524c9.515,19.823-2.036,60.658-52.161,49.16s-57.658-15.065-57.658-15.065,10.355-20.675,10.355-50.022Z" transform="translate(-329.808 -312.238)" fill="#fff"/>
        <path id="Línea_213" data-name="Línea 213" d="M49.984,10l.405-2.532L.317-.552-.088,1.979Z" transform="translate(285.699 241.439)" fill="#ccc"/>
        <path id="Línea_214" data-name="Línea 214" d="M.213,4.712,25.626,1.993,25.354-.556-.06,2.162Z" transform="translate(313.354 241.434)" fill="#ccc"/>
        <path id="Línea_215" data-name="Línea 215" d="M.966,11l16.8-9.24L16.531-.49-.27,8.75Z" transform="translate(307.126 235.748)" fill="#ccc"/>
        <path id="Línea_216" data-name="Línea 216" d="M39.241,10.157l.523-2.51L.409-.548l-.523,2.51Z" transform="translate(257.268 272.04)" fill="#ccc"/>
        <path id="Trazado_185764" data-name="Trazado 185764" d="M614.468,647.335a2.023,2.023,0,1,1-2.023-2.024,2.023,2.023,0,0,1,2.023,2.024" transform="translate(-346.164 -365.949)" fill="#dd4b8e"/>
        <path id="Trazado_185765" data-name="Trazado 185765" d="M646.434,653.893a2.023,2.023,0,1,1-2.023-2.023,2.023,2.023,0,0,1,2.023,2.023" transform="translate(-364.291 -369.668)" fill="#dd4b8e"/>
        <path id="Trazado_185766" data-name="Trazado 185766" d="M273.863,57.9a2.794,2.794,0,1,1-2.794-2.794,2.794,2.794,0,0,1,2.794,2.794" transform="translate(-152.135 -31.248)" fill="#dd4b8e"/>
        <path id="Trazado_185767" data-name="Trazado 185767" d="M248.65,15.889a5.685,5.685,0,1,1-5.685-5.685,5.685,5.685,0,0,1,5.685,5.685" transform="translate(-134.559 -5.787)" fill="#dd4b8e"/>
        <path id="Trazado_185768" data-name="Trazado 185768" d="M279.931,2.209A2.209,2.209,0,1,1,277.723,0a2.209,2.209,0,0,1,2.209,2.209" transform="translate(-156.241)" fill="#dd4b8e"/>
      </g>
    </g>
  </g>
</svg>
