<svg xmlns="http://www.w3.org/2000/svg" width="92" height="92" viewBox="0 0 92 92">
  <g id="Grupo_178786" data-name="Grupo 178786" transform="translate(-754 -7111.601)">
    <circle id="Elipse_4911" data-name="Elipse 4911" cx="46" cy="46" r="46" transform="translate(754 7111.601)" fill="#f9a829"/>
    <g id="Grupo_178108" data-name="Grupo 178108" transform="translate(771 7128.601)">
      <g id="Grupo_178109" data-name="Grupo 178109">
        <path id="Trazado_186269" data-name="Trazado 186269" d="M57.509,22.026c.66.66,1.1.652,1.783-.027q3.6-3.594,7.191-7.191c1.02-1.022,2.078-2.011,3.035-3.091A7.077,7.077,0,0,0,61.06.726c-.843.412-.975.971-.4,1.734.36.481.713.97,1.1,1.429a.438.438,0,0,1-.008.663c-.713.918-1.392,1.861-2.1,2.781a1.074,1.074,0,0,0-.03,1.427c.405.571.768,1.173,1.177,1.742a.385.385,0,0,1-.066.6c-.651.625-1.275,1.278-1.922,1.907a1.1,1.1,0,0,0-.317,1.3c.2.521.29,1.094.541,1.586.416.816.019,1.44-.334,2.157a11.1,11.1,0,0,0-.456-1.78,10.793,10.793,0,0,0-.968-1.515,4.221,4.221,0,0,0-.339-.5.57.57,0,0,1-.018-.835c.43-.577.8-1.2,1.211-1.791a1.078,1.078,0,0,0-.047-1.427c-.638-.824-1.228-1.686-1.89-2.489-.308-.374-.205-.531.129-.77.864-.618,1.712-1.258,2.551-1.909a.954.954,0,0,0,.119-1.589C58.43,2.875,57.87,2.3,57.27,1.767a7.086,7.086,0,0,0-9.547,10.47q4.873,4.914,9.785,9.789" transform="translate(-29.488 -0.001)" fill="#31313c"/>
        <path id="Trazado_186270" data-name="Trazado 186270" d="M12.106,71.619a.975.975,0,0,1,.846,0,8.5,8.5,0,0,0,4.641.625,8.657,8.657,0,0,0,1.938-16.642c-.78-.3-.78-.3-.39-1.083,1.225-2.455,1.225-2.455.117-4.578-.009-.018-.018-.036-.026-.054a1.084,1.084,0,0,0-1.1-.667c-1.143.017-2.287.024-3.431,0a1.179,1.179,0,0,0-1.226.763c-.283.622-.612,1.223-.955,1.9-.359-.724-.674-1.348-.979-1.976a1.1,1.1,0,0,0-1.094-.684q-1.775.025-3.551,0a1.1,1.1,0,0,0-1.092.688c-.263.539-.52,1.082-.8,1.61a1.189,1.189,0,0,0,0,1.2c.442.85.86,1.713,1.3,2.6l-.528.187a8.662,8.662,0,1,0,6.331,16.115m.781-2.678a.5.5,0,0,1-.757-.03,6.722,6.722,0,0,1,.008-10.48.5.5,0,0,1,.758-.013,6.774,6.774,0,0,1-.009,10.524m8.785-9.433a6.73,6.73,0,0,1-7.167,10.625,8.8,8.8,0,0,0,.04-12.9,6.594,6.594,0,0,1,7.127,2.27m-9.148-7.167c.48.965.914,1.836,1.344,2.708.047.094.17.18.046.308a3.753,3.753,0,0,1-1.793.371c-.349-.139-.7-.273-1.076-.418l1.48-2.969M3.464,67.959A6.758,6.758,0,0,1,3.152,59.8,6.644,6.644,0,0,1,10.5,57.231a8.789,8.789,0,0,0,0,12.855,6.543,6.543,0,0,1-7.035-2.127" transform="translate(0 -31.892)" fill="#31313c"/>
        <path id="Trazado_186271" data-name="Trazado 186271" d="M120.26,66.593c-.538.025-.6-.17-.6-.637.019-3.892.014-7.784.01-11.676a4.818,4.818,0,0,0-5.024-5.038q-4.574-.006-9.148,0a4.821,4.821,0,0,0-5.088,5.094c0,3.852-.016,7.7.016,11.556,0,.592-.148.732-.717.7-.9-.05-1.223.315-1.225,1.221q0,1.625,0,3.25c0,.984.308,1.292,1.292,1.292h10.232q5.207,0,10.413,0c.825,0,1.172-.347,1.177-1.165.006-1.083,0-2.167,0-3.25s-.285-1.4-1.342-1.347m-17.92-6.617c0-1.926,0-3.852,0-5.778a2.885,2.885,0,0,1,3.018-3.029q2.768-.009,5.537,0a2.877,2.877,0,0,1,3,2.988c.008,3.972-.005,7.945.014,11.917,0,.436-.126.515-.533.513q-5.266-.025-10.533,0c-.437,0-.517-.127-.513-.534.022-2.026.01-4.053.01-6.079M118.29,70.43c-5.758,0-11.515-.007-17.273.013-.5,0-.632-.111-.617-.615.038-1.323.012-1.324,1.339-1.324h8.305c3.029,0,6.059.011,9.088-.012.449,0,.565.1.556.553-.028,1.384-.006,1.384-1.4,1.384" transform="translate(-63.812 -31.904)" fill="#31313c"/>
        <path id="Trazado_186272" data-name="Trazado 186272" d="M74.081,114.42a4.824,4.824,0,0,0-3.006-4.28c-1.054-.467-2.116-.916-3.188-1.379a2.236,2.236,0,0,1,.6-.688,4.477,4.477,0,0,0,1.422-2.779,58.887,58.887,0,0,0,.043-6.01.862.862,0,0,0-.957-.812c-.742-.01-1.485-.027-2.225.012a4.821,4.821,0,0,0-4.388,3.814,11.328,11.328,0,0,0-.1,2.217,4.708,4.708,0,0,0,1.413,3.463,11.127,11.127,0,0,0,.87.71c-1.281.548-2.367.993-3.436,1.474a4.735,4.735,0,0,0-2.93,4.016c-.218,1.931-.4,3.867-.588,5.8-.047.476-.264,1.068-.062,1.4.222.366.887.159,1.352.243a.362.362,0,0,1,.059.009c.344.121.432-.024.464-.361.217-2.274.459-4.546.685-6.819a2.867,2.867,0,0,1,1.775-2.513c1.3-.574,2.607-1.119,3.908-1.684a.7.7,0,0,1,.622-.028c1.353.6,2.728,1.145,4.072,1.759a2.766,2.766,0,0,1,1.656,2.342q.322,2.958.6,5.921c.141,1.525.123,1.51,1.641,1.294.392-.056.416-.209.38-.544-.238-2.192-.47-4.384-.67-6.579" transform="translate(-37.228 -63.794)" fill="#31313c"/>
        <path id="Trazado_186273" data-name="Trazado 186273" d="M24.076,129.153a25.64,25.64,0,0,1-6.016-3.581,26.85,26.85,0,0,1-7.169-8.628c-.076-.144-.1-.353-.319-.394-.363.18-.712.38-1.082.527-.43.171-.548.33-.289.812a28.959,28.959,0,0,0,13.343,12.7c1.25.6,1.252.593,1.783-.711a.3.3,0,0,1,.026-.054c.242-.364.095-.519-.277-.675" transform="translate(-5.874 -75.516)" fill="#31313c"/>
        <path id="Trazado_186274" data-name="Trazado 186274" d="M125.253,119.591c-.418-.245-.6-.272-.886.214a26.852,26.852,0,0,1-11.748,10.835c-.434.21-1.141.254-1.229.688-.083.408.315.915.507,1.376.049.118.059.287.241.264.127-.059.235-.111.345-.159a28.954,28.954,0,0,0,13.233-11.467c.688-1.1.674-1.084-.464-1.751" transform="translate(-72.165 -77.375)" fill="#31313c"/>
        <path id="Trazado_186275" data-name="Trazado 186275" d="M10.381,23.974c.477.292.975.549,1.451.813.147.016.148.017.382-.388a27.279,27.279,0,0,1,7.31-8.2c.377-.283,1.051-.47,1.053-.875s-.5-.826-.746-1.26c-.154-.275-.275-.243-.5-.089a29.091,29.091,0,0,0-8.887,9.639c-.059.1-.24.251-.063.36" transform="translate(-6.677 -8.979)" fill="#31313c"/>
        <path id="Trazado_186276" data-name="Trazado 186276" d="M125.022,15.646a26.676,26.676,0,0,1,7.58,7.948c.243.388.45,1.043.75,1.091.376.06.822-.4,1.256-.6.345-.156.356-.3.169-.623a29.208,29.208,0,0,0-8.779-9.5c-.1-.068-.2-.132-.3-.2-.159-.01-.183.134-.245.222-.195.279-.358.582-.573.844-.285.348-.255.544.143.817" transform="translate(-80.79 -8.917)" fill="#31313c"/>
        <path id="Trazado_186278" data-name="Trazado 186278" d="M115.3,64.84c1.123-.02,2.246-.007,3.37-.007h2.467c1.459,0,1.442,0,1.452-1.449,0-.4-.115-.49-.5-.486-1.925.02-3.851.009-5.777.009-1.481,0-1.469,0-1.451,1.509,0,.346.1.431.437.425" transform="translate(-74.423 -40.752)" fill="#31313c"/>
        <path id="Trazado_186279" data-name="Trazado 186279" d="M123.031,73.845c-.822.019-1.645.007-2.467.007h-1.5c-1.484,0-1.472,0-1.454,1.5,0,.339.092.435.431.43,1.283-.02,2.567-.008,3.851-.008,1.582,0,1.573,0,1.514-1.565-.011-.287-.081-.374-.37-.368" transform="translate(-76.197 -47.846)" fill="#31313c"/>
        <path id="Trazado_186280" data-name="Trazado 186280" d="M123.031,84.787c-.822.019-1.645.007-2.467.007h-1.5c-1.484,0-1.472,0-1.454,1.5,0,.339.092.435.431.43,1.283-.02,2.567-.008,3.851-.008,1.582,0,1.573,0,1.514-1.565-.011-.287-.081-.374-.37-.368" transform="translate(-76.197 -54.936)" fill="#31313c"/>
      </g>
    </g>
  </g>
</svg>
