<svg xmlns="http://www.w3.org/2000/svg" xmlns:xlink="http://www.w3.org/1999/xlink" width="92" height="92" viewBox="0 0 92 92">
  <defs>
    <clipPath id="clip-path">
      <rect id="Rectángulo_46554" data-name="Rectángulo 46554" width="58" height="67.405" fill="#31313c"/>
    </clipPath>
  </defs>
  <g id="Grupo_178119" data-name="Grupo 178119" transform="translate(-754 -7348)">
    <circle id="Elipse_4913" data-name="Elipse 4913" cx="46" cy="46" r="46" transform="translate(754 7348)" fill="#f9a829"/>
    <g id="Grupo_178118" data-name="Grupo 178118" transform="translate(771 7360)">
      <g id="Grupo_178117" data-name="Grupo 178117" clip-path="url(#clip-path)">
        <path id="Trazado_186332" data-name="Trazado 186332" d="M16.452,0a3.083,3.083,0,0,1,2.1,2.225A2.8,2.8,0,1,1,14.847.172c.14-.055.28-.114.42-.171Zm-.79,3.623.3,0c.189-.272.493-.526.537-.821a.565.565,0,0,0-.684-.664.96.96,0,0,0-.632.646c-.014.269.308.555.484.834" transform="translate(-6.397 0)" fill="#31313c"/>
        <path id="Trazado_186333" data-name="Trazado 186333" d="M9.64,24.252C7.37,23.666,6.209,21.9,6.746,19.91A3.364,3.364,0,0,1,9.96,17.36q7.7-.032,15.4,0A3.4,3.4,0,0,1,28.68,20.42,3.432,3.432,0,0,1,26.3,24.077c-.185.06-.371.113-.624.19v.7c0,5.965.008,11.931-.013,17.9a1.094,1.094,0,0,0,.625,1.078,17.257,17.257,0,1,1-17.148-.518c.333-.18.536-.337.534-.776-.018-6.009-.012-12.019-.013-18.028,0-.108-.011-.216-.019-.37m21.5,28.27c-.11-.245-.191-.446-.287-.638a14.877,14.877,0,0,0-6.4-6.585,1.419,1.419,0,0,1-.878-1.452c.041-.934.01-1.871.01-2.872h-.87c-1.315,0-2.631.016-3.946-.017a1.043,1.043,0,1,1,.043-2.082c1.118-.018,2.237-.006,3.355-.007h1.369V36.786c-1.6,0-3.157.013-4.712-.006A1.039,1.039,0,0,1,17.679,35.7a1.027,1.027,0,0,1,1.138-1.01c1.162-.018,2.324-.007,3.487-.007h1.232V32.635c-.2-.01-.351-.024-.5-.025-1.425,0-2.851.012-4.276-.009a1.017,1.017,0,0,1-1.077-1.073,1.033,1.033,0,0,1,1.067-1.02c.306-.017.614,0,.921,0h3.876v-2.09H22.8c-1.316,0-2.632.008-3.947,0-.734-.007-1.171-.412-1.17-1.043s.44-1.029,1.174-1.056c.35-.013.7,0,1.052,0h3.678c0-.5-.035-.936.009-1.364.057-.558-.16-.7-.7-.695-3.487.022-6.973.01-10.46.013-.209,0-.418.027-.667.044v.838c0,6.1-.008,12.193.01,18.289a1.443,1.443,0,0,1-.914,1.491A14.916,14.916,0,0,0,2.883,53.9a12.247,12.247,0,0,0-.722,4.442,24.829,24.829,0,0,0,7.967.992,8.858,8.858,0,0,0,4.98-1.808,53.13,53.13,0,0,1,4.487-3.095,14.265,14.265,0,0,1,8.74-2.333c.909.073,1.808.269,2.809.423M2.28,60.658c.016.223.012.418.045.605a15.166,15.166,0,1,0,29.826-5.517.925.925,0,0,0-.654-.785,11.065,11.065,0,0,0-8.148-.023,32.263,32.263,0,0,0-7.207,4.406,11.689,11.689,0,0,1-2.63,1.445,14.274,14.274,0,0,1-6.94.569c-1.41-.169-2.806-.453-4.292-.7m15.339-41.2c-2.477,0-4.953-.007-7.43,0a1.346,1.346,0,0,0-1.452,1.291,1.33,1.33,0,0,0,1.351,1.391c.174.015.35.011.525.011q7.036,0,14.071,0a4.112,4.112,0,0,0,.914-.071,1.307,1.307,0,0,0,.938-1.68,1.374,1.374,0,0,0-1.486-.941q-3.715-.007-7.43,0" transform="translate(0 -8.521)" fill="#31313c"/>
        <path id="Trazado_186334" data-name="Trazado 186334" d="M88.329,46.327V47.2q0,16.255,0,32.51a6.574,6.574,0,0,1-3.964,6.424A6.678,6.678,0,0,1,74.983,80.6c-.031-.437-.041-.876-.042-1.315q0-16.025,0-32.05V46.3c-.431-.025-.777-.038-1.122-.068a3.436,3.436,0,0,1,.273-6.866c3.158-.023,6.318-.007,9.477-.007,1.886,0,3.773-.019,5.66.007a3.44,3.44,0,0,1,3.424,2.951,3.4,3.4,0,0,1-2.517,3.8,14,14,0,0,1-1.805.207m-2.117,8.019h-.762c-1.25,0-2.5.013-3.75-.007a1.046,1.046,0,1,1-.014-2.092c.789-.022,1.579-.007,2.368-.007h2.137V46.312H77.047v.829q0,16.187,0,32.373c0,.285,0,.571.028.854a4.4,4.4,0,0,0,2.878,3.907,4.343,4.343,0,0,0,4.725-.816c1.479-1.273,1.72-2.951,1.5-4.82h-.76c-1.184,0-2.369.012-3.553-.006-.794-.012-1.245-.415-1.246-1.053s.448-1.029,1.242-1.045c.46-.009.921,0,1.382,0h2.968v-6c-1.4,0-2.78,0-4.156,0-.946,0-1.435-.363-1.433-1.056s.49-1.047,1.439-1.049H86.2V62.45h-.742c-1.14,0-2.281.005-3.421,0-.948-.006-1.432-.38-1.419-1.08.012-.677.475-1.02,1.395-1.023,1.009,0,2.018,0,3.027,0h1.173ZM81.605,44.154c1.819,0,3.638,0,5.457,0,.767,0,1.537.025,2.3-.039a1.281,1.281,0,0,0,1.187-1.569c-.123-.684-.685-1.079-1.579-1.079q-7.331-.005-14.661,0a2.359,2.359,0,0,0-.647.079,1.283,1.283,0,0,0-.962,1.325A1.3,1.3,0,0,0,73.786,44.1a4.992,4.992,0,0,0,.851.053q3.485.005,6.969,0" transform="translate(-34.678 -19.334)" fill="#31313c"/>
        <path id="Trazado_186335" data-name="Trazado 186335" d="M61.934,5.48a3.485,3.485,0,1,1,6.97.012,3.485,3.485,0,0,1-6.97-.012m3.482-1.374a1.349,1.349,0,0,0-1.374,1.361A1.376,1.376,0,0,0,65.41,6.847a1.4,1.4,0,0,0,1.385-1.374,1.374,1.374,0,0,0-1.379-1.367" transform="translate(-30.429 -0.981)" fill="#31313c"/>
        <path id="Trazado_186336" data-name="Trazado 186336" d="M108.615,24.852a2.788,2.788,0,1,1-2.757-2.836,2.8,2.8,0,0,1,2.757,2.836m-2,.09c0-.105-.008-.211-.012-.316-.275-.169-.54-.456-.827-.48a.56.56,0,0,0-.607.722.959.959,0,0,0,.663.6c.259,0,.521-.337.782-.528" transform="translate(-50.625 -10.817)" fill="#31313c"/>
        <path id="Trazado_186337" data-name="Trazado 186337" d="M20.728,78.206a2.789,2.789,0,1,1,2.82,2.774,2.8,2.8,0,0,1-2.82-2.774m2.006-.175c0,.1,0,.209,0,.313.269.178.546.505.8.49a.966.966,0,0,0,.637-.63.556.556,0,0,0-.637-.693c-.285.035-.538.337-.805.52" transform="translate(-10.184 -37.029)" fill="#31313c"/>
        <path id="Trazado_186338" data-name="Trazado 186338" d="M32.075,112.419a3.476,3.476,0,1,1,3.464-3.481,3.484,3.484,0,0,1-3.464,3.481m-.048-2.111a1.365,1.365,0,1,0-1.35-1.392,1.366,1.366,0,0,0,1.35,1.392" transform="translate(-14.036 -51.817)" fill="#31313c"/>
        <path id="Trazado_186339" data-name="Trazado 186339" d="M50.572,106.1a2.8,2.8,0,1,1,2.8-2.813,2.827,2.827,0,0,1-2.8,2.813m-.2-2,.308.013c.191-.266.533-.534.529-.8a.965.965,0,0,0-.611-.669.566.566,0,0,0-.721.619c.029.292.32.558.495.835" transform="translate(-23.461 -49.375)" fill="#31313c"/>
      </g>
    </g>
  </g>
</svg>
