<svg xmlns="http://www.w3.org/2000/svg" xmlns:xlink="http://www.w3.org/1999/xlink" width="505" height="215.601" viewBox="0 0 505 215.601">
  <defs>
    <clipPath id="clip-path">
      <rect id="Rectángulo_33780" data-name="Rectángulo 33780" width="33.308" height="33.308" fill="#f9a829"/>
    </clipPath>
    <clipPath id="clip-path-2">
      <rect id="Rectángulo_33780-2" data-name="Rectángulo 33780" width="45.625" height="45.625" fill="#f9a829"/>
    </clipPath>
    <clipPath id="clip-path-3">
      <rect id="Rectángulo_45329" data-name="Rectángulo 45329" width="69.787" height="157.324" fill="none"/>
    </clipPath>
    <clipPath id="clip-path-4">
      <rect id="Rectángulo_45324" data-name="Rectángulo 45324" width="24.314" height="14.48" fill="none"/>
    </clipPath>
    <clipPath id="clip-path-5">
      <rect id="Rectángulo_45325" data-name="Rectángulo 45325" width="23.683" height="8.885" fill="none"/>
    </clipPath>
    <clipPath id="clip-path-6">
      <rect id="Rectángulo_45326" data-name="Rectángulo 45326" width="20.241" height="20.61" fill="#2be9d6"/>
    </clipPath>
    <clipPath id="clip-path-7">
      <rect id="Rectángulo_45327" data-name="Rectángulo 45327" width="10.823" height="11.02" fill="#2be9d6"/>
    </clipPath>
    <clipPath id="clip-path-8">
      <rect id="Rectángulo_45328" data-name="Rectángulo 45328" width="15.391" height="15.672" fill="#2be9d6"/>
    </clipPath>
    <clipPath id="clip-path-9">
      <rect id="Rectángulo_46430" data-name="Rectángulo 46430" width="171.346" height="93.215" fill="none"/>
    </clipPath>
    <clipPath id="clip-path-10">
      <rect id="Rectángulo_46424" data-name="Rectángulo 46424" width="117.825" height="197.046" fill="none"/>
    </clipPath>
    <clipPath id="clip-path-12">
      <rect id="Rectángulo_46422" data-name="Rectángulo 46422" width="34.791" height="59.622" fill="none"/>
    </clipPath>
    <clipPath id="clip-path-13">
      <rect id="Rectángulo_46416" data-name="Rectángulo 46416" width="26.785" height="26.784" fill="none"/>
    </clipPath>
    <clipPath id="clip-path-14">
      <rect id="Rectángulo_46417" data-name="Rectángulo 46417" width="14.322" height="14.322" fill="none"/>
    </clipPath>
    <clipPath id="clip-path-15">
      <rect id="Rectángulo_46418" data-name="Rectángulo 46418" width="20.368" height="20.367" fill="none"/>
    </clipPath>
    <clipPath id="clip-path-16">
      <rect id="Rectángulo_46419" data-name="Rectángulo 46419" width="25.446" height="14.831" fill="none"/>
    </clipPath>
    <clipPath id="clip-path-17">
      <rect id="Rectángulo_46420" data-name="Rectángulo 46420" width="26.27" height="19.732" fill="none"/>
    </clipPath>
    <clipPath id="clip-path-18">
      <rect id="Rectángulo_46421" data-name="Rectángulo 46421" width="59.746" height="64.557" fill="none"/>
    </clipPath>
    <clipPath id="clip-path-19">
      <rect id="Rectángulo_46429" data-name="Rectángulo 46429" width="99.755" height="103.445" fill="none"/>
    </clipPath>
    <clipPath id="clip-path-21">
      <rect id="Rectángulo_46425" data-name="Rectángulo 46425" width="55.306" height="55.307" fill="none"/>
    </clipPath>
    <clipPath id="clip-path-22">
      <rect id="Rectángulo_46426" data-name="Rectángulo 46426" width="33.741" height="52.127" fill="none"/>
    </clipPath>
    <clipPath id="clip-path-23">
      <rect id="Rectángulo_46427" data-name="Rectángulo 46427" width="27.692" height="48.492" fill="none"/>
    </clipPath>
  </defs>
  <g id="Grupo_178650" data-name="Grupo 178650" transform="translate(-180 -695.912)">
    <g id="Grupo_175398" data-name="Grupo 175398" transform="translate(180 705.044)">
      <g id="Grupo_175381" data-name="Grupo 175381" transform="translate(0 0)">
        <path id="AdobeStock_377563823" d="M0,0H480a25,25,0,0,1,25,25V167.309a0,0,0,0,1,0,0H25a25,25,0,0,1-25-25V0A0,0,0,0,1,0,0Z" transform="translate(0 21.284)" fill="#31313c"/>
        <g id="Grupo_175378" data-name="Grupo 175378" transform="translate(17.039 161.853)">
          <g id="Grupo_80148" data-name="Grupo 80148" clip-path="url(#clip-path)">
            <path id="Trazado_113652" data-name="Trazado 113652" d="M32.861,17.156c-11.98,1.42-14.284,3.724-15.7,15.7a.506.506,0,0,1-1.005,0c-1.419-11.98-3.724-14.284-15.7-15.7a.506.506,0,0,1,0-1c11.98-1.42,14.285-3.724,15.7-15.7a.506.506,0,0,1,1.005,0c1.42,11.981,3.724,14.285,15.7,15.7a.506.506,0,0,1,0,1" transform="translate(0 0)" fill="#f9a829"/>
          </g>
        </g>
        <g id="Grupo_175379" data-name="Grupo 175379" transform="translate(449.213)">
          <g id="Grupo_80148-2" data-name="Grupo 80148" clip-path="url(#clip-path-2)">
            <path id="Trazado_113652-2" data-name="Trazado 113652" d="M45.012,23.5C28.6,25.446,25.446,28.6,23.5,45.012a.693.693,0,0,1-1.377,0C20.179,28.6,17.022,25.446.612,23.5a.693.693,0,0,1,0-1.376c16.411-1.945,19.567-5.1,21.511-21.512a.693.693,0,0,1,1.377,0c1.945,16.411,5.1,19.567,21.511,21.512a.693.693,0,0,1,0,1.376" transform="translate(0 0)" fill="#f9a829"/>
          </g>
        </g>
      </g>
      <g id="Grupo_175397" data-name="Grupo 175397" transform="translate(407.674 49.146)" clip-path="url(#clip-path-3)">
        <path id="Trazado_113756" data-name="Trazado 113756" d="M36.046,64.634l-2.053,6.194a3.247,3.247,0,0,0,1.134,3.63,46.9,46.9,0,0,0,4.435,2.875l-.845,2.532L12.075,159.83a12.627,12.627,0,0,0,7.707,15.939c.2.069.4.13.61.192a12.3,12.3,0,0,0,15.067-8.055l25.36-76.094,2.213-6.646a38.917,38.917,0,0,0,5.5.211,3.166,3.166,0,0,0,2.88-2.186l1.905-5.752c.652-1.965-7.168-6.418-17.462-9.957s-19.156-4.809-19.81-2.85" transform="translate(-11.417 -19.12)" fill="#fff"/>
        <g id="Grupo_175384" data-name="Grupo 175384" transform="translate(27.302 58.213)" style="mix-blend-mode: multiply;isolation: isolate">
          <g id="Grupo_175383" data-name="Grupo 175383" transform="translate(0)">
            <g id="Grupo_175382" data-name="Grupo 175382" clip-path="url(#clip-path-4)">
              <path id="Trazado_113757" data-name="Trazado 113757" d="M27.281,83.172,26.437,85.7c2.862,3.552,14.761,9.437,22.1,11.948l2.213-6.646a61.8,61.8,0,0,1-23.47-7.834" transform="translate(-26.437 -83.172)" fill="#d9e5f9"/>
            </g>
          </g>
        </g>
        <path id="Trazado_113758" data-name="Trazado 113758" d="M63.3,125.038,45.957,177.016a8.773,8.773,0,0,0,.425,6.61,8.444,8.444,0,0,0,15.672-1.04L79.4,130.607a26.349,26.349,0,0,0-3.147-2.3A21.935,21.935,0,0,0,63.3,125.038" transform="translate(-40.889 -37.515)" fill="#fed5c3"/>
        <path id="Trazado_113759" data-name="Trazado 113759" d="M73.486,179.866a3.622,3.622,0,0,1-4.933,1.568,3.754,3.754,0,0,1-1.54-5.023,3.622,3.622,0,0,1,4.933-1.568,3.755,3.755,0,0,1,1.54,5.023" transform="translate(-49.89 -52.341)" fill="#a82c3b"/>
        <path id="Trazado_113760" data-name="Trazado 113760" d="M58.321,145.315a3.622,3.622,0,0,1-4.933,1.568,3.754,3.754,0,0,1-1.54-5.023,3.621,3.621,0,0,1,4.933-1.568,3.755,3.755,0,0,1,1.54,5.023" transform="translate(-24.302 -41.973)" fill="#a82c3b"/>
        <path id="Trazado_113761" data-name="Trazado 113761" d="M85.787,198.79a2.253,2.253,0,0,1-3.069.975,2.336,2.336,0,0,1-.958-3.125,2.253,2.253,0,0,1,3.069-.975,2.335,2.335,0,0,1,.958,3.125" transform="translate(-72.278 -58.638)" fill="#a82c3b"/>
        <path id="Trazado_113762" data-name="Trazado 113762" d="M74.09,161.981a2.253,2.253,0,0,1-3.069.976,2.337,2.337,0,0,1-.958-3.126,2.253,2.253,0,0,1,3.069-.975,2.336,2.336,0,0,1,.958,3.125" transform="translate(-52.541 -47.592)" fill="#a82c3b"/>
        <path id="Trazado_113763" data-name="Trazado 113763" d="M45.5,125.038a18.254,18.254,0,0,0,7.387,4.769,17.962,17.962,0,0,0,8.709.8,22.4,22.4,0,0,0-16.1-5.569" transform="translate(-23.09 -37.515)" fill="#a82c3b"/>
        <g id="Grupo_175387" data-name="Grupo 175387" transform="translate(31.664 46.75)" style="mix-blend-mode: multiply;isolation: isolate">
          <g id="Grupo_175386" data-name="Grupo 175386">
            <g id="Grupo_175385" data-name="Grupo 175385" clip-path="url(#clip-path-5)">
              <path id="Trazado_113764" data-name="Trazado 113764" d="M21.023,67.174c-.328.991,4.7,3.613,11.232,5.857S44.347,76.29,44.676,75.3s-4.7-3.614-11.232-5.858-12.093-3.259-12.421-2.268" transform="translate(-21.008 -66.794)" fill="#c9d6f7"/>
            </g>
          </g>
        </g>
        <g id="Grupo_175390" data-name="Grupo 175390" transform="translate(49.547 24.078)" style="mix-blend-mode: screen;isolation: isolate">
          <g id="Grupo_175389" data-name="Grupo 175389" transform="translate(0)" style="isolation: isolate">
            <g id="Grupo_175388" data-name="Grupo 175388" clip-path="url(#clip-path-6)">
              <path id="Trazado_113765" data-name="Trazado 113765" d="M.541,41.392A10.348,10.348,0,0,0,6.865,54.461,10.076,10.076,0,0,0,19.7,48.021a10.348,10.348,0,0,0-6.324-13.069A10.076,10.076,0,0,0,.541,41.392" transform="translate(-0.001 -34.401)" fill="#2be9d6"/>
            </g>
          </g>
        </g>
        <g id="Grupo_175393" data-name="Grupo 175393" transform="translate(31.404 26.784)" style="isolation: isolate">
          <g id="Grupo_175392" data-name="Grupo 175392" transform="translate(0)">
            <g id="Grupo_175391" data-name="Grupo 175391" clip-path="url(#clip-path-7)">
              <path id="Trazado_113766" data-name="Trazado 113766" d="M40.386,42.006a5.533,5.533,0,0,0,3.382,6.988,5.387,5.387,0,0,0,6.862-3.444,5.533,5.533,0,0,0-3.382-6.989,5.388,5.388,0,0,0-6.862,3.444" transform="translate(-40.097 -38.268)" fill="#2be9d6"/>
            </g>
          </g>
        </g>
        <g id="Grupo_175396" data-name="Grupo 175396" transform="translate(42.995)" style="isolation: isolate">
          <g id="Grupo_175395" data-name="Grupo 175395" transform="translate(0)">
            <g id="Grupo_175394" data-name="Grupo 175394" clip-path="url(#clip-path-8)">
              <path id="Trazado_113767" data-name="Trazado 113767" d="M17,5.315a7.868,7.868,0,0,0,4.809,9.938,7.662,7.662,0,0,0,9.76-4.9A7.868,7.868,0,0,0,26.758.418,7.661,7.661,0,0,0,17,5.315" transform="translate(-16.587 0)" fill="#2be9d6"/>
            </g>
          </g>
        </g>
      </g>
      <g id="Grupo_177917" data-name="Grupo 177917" transform="translate(4.485 70.248)">
        <g id="Grupo_177916" data-name="Grupo 177916" transform="translate(0 0)" clip-path="url(#clip-path-9)">
          <path id="Trazado_185811" data-name="Trazado 185811" d="M40.56,82.666H14.506a1.478,1.478,0,0,1-1.281-.739L.2,59.363a1.479,1.479,0,0,1,0-1.479L13.225,35.319a1.478,1.478,0,0,1,1.281-.739H40.56a1.479,1.479,0,0,1,1.281.739L54.868,57.883a1.479,1.479,0,0,1,0,1.479L41.841,81.927a1.479,1.479,0,0,1-1.281.739m-25.2-2.958H39.706L51.88,58.623,39.706,37.538H15.359L3.186,58.623Z" transform="translate(0 -12.016)" fill="#f2edfd"/>
          <path id="Trazado_185812" data-name="Trazado 185812" d="M99.961,48.086H73.907a1.478,1.478,0,0,1-1.281-.739L59.6,24.783a1.482,1.482,0,0,1,0-1.479L72.626.739A1.478,1.478,0,0,1,73.907,0H99.961a1.479,1.479,0,0,1,1.281.739L114.268,23.3a1.479,1.479,0,0,1,0,1.479L101.242,47.347a1.479,1.479,0,0,1-1.281.739m-25.2-2.958H99.107L111.28,24.043,99.107,2.958H74.76L62.586,24.043Z" transform="translate(-20.641)" fill="#f2edfd"/>
          <path id="Trazado_185813" data-name="Trazado 185813" d="M160.962,82.666H134.907a1.478,1.478,0,0,1-1.28-.739L120.6,59.363a1.482,1.482,0,0,1,0-1.479l13.028-22.564a1.478,1.478,0,0,1,1.28-.739h26.055a1.479,1.479,0,0,1,1.281.739L175.27,57.883a1.482,1.482,0,0,1,0,1.479L162.243,81.927a1.479,1.479,0,0,1-1.281.739m-25.2-2.958h24.347l12.173-21.085L160.108,37.538H135.761L123.588,58.623Z" transform="translate(-41.838 -12.016)" fill="#f2edfd"/>
          <path id="Trazado_185814" data-name="Trazado 185814" d="M218.763,117.246H192.709a1.478,1.478,0,0,1-1.281-.739L178.4,93.943a1.479,1.479,0,0,1,0-1.479L191.428,69.9a1.478,1.478,0,0,1,1.281-.739h26.054a1.479,1.479,0,0,1,1.281.739l13.027,22.564a1.482,1.482,0,0,1,0,1.479l-13.027,22.564a1.479,1.479,0,0,1-1.281.739m-25.2-2.958h24.347L230.083,93.2,217.909,72.118H193.562L181.388,93.2Z" transform="translate(-61.924 -24.032)" fill="#f2edfd"/>
          <path id="Trazado_185815" data-name="Trazado 185815" d="M99.961,117.246H73.907a1.478,1.478,0,0,1-1.281-.739L59.6,93.943a1.482,1.482,0,0,1,0-1.479L72.626,69.9a1.478,1.478,0,0,1,1.281-.739H99.961a1.479,1.479,0,0,1,1.281.739l13.027,22.564a1.479,1.479,0,0,1,0,1.479l-13.027,22.564a1.479,1.479,0,0,1-1.281.739m-25.2-2.958H99.107L111.28,93.2,99.107,72.118H74.76L62.586,93.2Z" transform="translate(-20.641 -24.032)" fill="#f2edfd"/>
          <path id="Trazado_185816" data-name="Trazado 185816" d="M71.871,68.919a6.749,6.749,0,1,0,5.574-7.747,6.749,6.749,0,0,0-5.574,7.747" transform="translate(-24.943 -21.225)" fill="#dd5268"/>
          <path id="Trazado_185817" data-name="Trazado 185817" d="M131.27,34.339a6.749,6.749,0,1,0,5.573-7.747,6.748,6.748,0,0,0-5.573,7.747" transform="translate(-45.584 -9.209)" fill="#ffab31"/>
          <path id="Trazado_185818" data-name="Trazado 185818" d="M170.214,100.771a6.749,6.749,0,1,0,5.574-7.747,6.748,6.748,0,0,0-5.574,7.747" transform="translate(-59.117 -32.293)" fill="#dd5268"/>
        </g>
      </g>
    </g>
    <g id="Grupo_177902" data-name="Grupo 177902" transform="translate(443.334 695.912)">
      <g id="Grupo_177901" data-name="Grupo 177901" clip-path="url(#clip-path-10)">
        <g id="Grupo_177900" data-name="Grupo 177900">
          <g id="Grupo_177899" data-name="Grupo 177899" clip-path="url(#clip-path-10)">
            <path id="Trazado_185783" data-name="Trazado 185783" d="M66.01,77.818H11.078a3.8,3.8,0,0,0-3.936,3.66V222.632h7.87V85.138h51a3.669,3.669,0,1,0,0-7.32" transform="translate(-1.987 -25.586)" fill="#ffab31"/>
            <path id="Trazado_185784" data-name="Trazado 185784" d="M20.875,78.033c0,5.361-4.673,9.707-10.438,9.707S0,83.394,0,78.033s4.673-9.707,10.438-9.707,10.438,4.346,10.438,9.707" transform="translate(0 -22.465)" fill="#ffab31"/>
            <path id="Trazado_185785" data-name="Trazado 185785" d="M12.608,85.068a4.483,4.483,0,1,1,0-8.943,4.483,4.483,0,1,1,0,8.943" transform="translate(-2.171 -25.029)" fill="#ff8131"/>
            <path id="Trazado_185786" data-name="Trazado 185786" d="M49.41,160.091H121.6c5.666,0,9.441-5.444,7.1-10.244L96.273,83.314V62.6H74.734V83.314L42.309,149.847c-2.338,4.8,1.436,10.244,7.1,10.244" transform="translate(-11.578 -20.583)" fill="#fff"/>
            <path id="Trazado_185787" data-name="Trazado 185787" d="M128.682,105.8l18.443-25.843,2.253,4.507-13.844,35.4Z" transform="translate(-35.809 -26.289)" fill="#fff"/>
            <path id="Trazado_185788" data-name="Trazado 185788" d="M49.883,158.885l32.947-67.6V83.27h9.854v8.014l32.947,67.6a1.665,1.665,0,0,1-.138,1.734,1.932,1.932,0,0,1-1.643.833H51.663a1.932,1.932,0,0,1-1.642-.832,1.666,1.666,0,0,1-.139-1.735" transform="translate(-13.83 -27.378)" fill="#c9d6f7"/>
            <path id="Trazado_185789" data-name="Trazado 185789" d="M85.421,76.747v8.188a.9.9,0,0,0,.935.867h22.685a.9.9,0,0,0,.931-.867V76.747a.9.9,0,0,0-.931-.866H86.356a.9.9,0,0,0-.935.866" transform="translate(-23.771 -24.949)" fill="#ffab31"/>
            <path id="Trazado_185790" data-name="Trazado 185790" d="M85.421,76.747v8.188a.9.9,0,0,0,.935.867h22.685a.9.9,0,0,0,.931-.867V82.378c-3.366-.305-8.892-.844-14.219-1.536-8.466-1.1-9.4-4.96-9.4-4.96a.9.9,0,0,0-.935.866" transform="translate(-23.771 -24.949)" fill="#ff8131"/>
            <path id="Trazado_185791" data-name="Trazado 185791" d="M119.255,140.641s-4.012-3.486-10.861,2.063-11.765,8.43-17.455,5.471c0,0,.772,8.072,12.633,7.444s15.683-14.977,15.683-14.977" transform="translate(-25.306 -45.886)" fill="#68b8d4"/>
            <path id="Trazado_185792" data-name="Trazado 185792" d="M67.712,140.59l-17.9,36.731a1.714,1.714,0,0,0,.142,1.785,1.987,1.987,0,0,0,1.689.856h72.186a1.991,1.991,0,0,0,1.69-.856,1.712,1.712,0,0,0,.141-1.784l-17.9-36.731s-4.5,10.523-14.333,8.879c-8.414-1.406-10.223-13.9-25.714-8.879" transform="translate(-13.809 -45.835)" fill="#7edeed"/>
            <path id="Trazado_185793" data-name="Trazado 185793" d="M73.7,161.371a4.766,4.766,0,1,0,4.753-4.421,4.6,4.6,0,0,0-4.753,4.421" transform="translate(-20.51 -51.604)" fill="#68b8d4"/>
            <path id="Trazado_185794" data-name="Trazado 185794" d="M126.8,183.366a4.766,4.766,0,1,0,4.753-4.421,4.6,4.6,0,0,0-4.753,4.421" transform="translate(-35.284 -58.835)" fill="#68b8d4"/>
            <path id="Trazado_185795" data-name="Trazado 185795" d="M83.5,188.282a2.965,2.965,0,1,0,2.958-2.751,2.86,2.86,0,0,0-2.958,2.751" transform="translate(-23.235 -61.001)" fill="#68b8d4"/>
            <path id="Trazado_185796" data-name="Trazado 185796" d="M125.185,158.091a2.965,2.965,0,1,0,2.957-2.751,2.86,2.86,0,0,0-2.957,2.751" transform="translate(-34.836 -51.074)" fill="#68b8d4"/>
            <g id="Grupo_177898" data-name="Grupo 177898" transform="translate(73.926 71.04)" opacity="0.8" style="mix-blend-mode: screen;isolation: isolate">
              <g id="Grupo_177897" data-name="Grupo 177897">
                <g id="Grupo_177896" data-name="Grupo 177896" clip-path="url(#clip-path-12)">
                  <path id="Trazado_185797" data-name="Trazado 185797" d="M108.749,105.839l28.472,59.622H102.43s20.47-6.834,18.948-16.618-12.629-43-12.629-43" transform="translate(-102.43 -105.839)" fill="#7edeed"/>
                </g>
              </g>
            </g>
            <path id="Trazado_185798" data-name="Trazado 185798" d="M98.332,171.891a2.965,2.965,0,1,0,2.958-2.75,2.86,2.86,0,0,0-2.958,2.75" transform="translate(-27.363 -55.612)" fill="#68b8d4"/>
            <path id="Trazado_185799" data-name="Trazado 185799" d="M87.508,64.037l21.538,3.408V62.6H87.508Z" transform="translate(-24.351 -20.583)" fill="#c9d6f7"/>
            <path id="Trazado_185800" data-name="Trazado 185800" d="M84,59.659h25.177a2.467,2.467,0,0,0,2.552-2.373V56.023a2.467,2.467,0,0,0-2.552-2.373H84a2.467,2.467,0,0,0-2.551,2.373v1.263A2.467,2.467,0,0,0,84,59.659" transform="translate(-22.666 -17.64)" fill="#fff"/>
            <path id="Trazado_185801" data-name="Trazado 185801" d="M104.179,8.626c0,4.764,4.153,8.626,9.276,8.626s9.276-3.862,9.276-8.626S118.577,0,113.455,0s-9.276,3.862-9.276,8.626" transform="translate(-28.99 0)" fill="#7edeed"/>
            <path id="Trazado_185802" data-name="Trazado 185802" d="M82.4,33.929a6.085,6.085,0,0,0,12.137,0,6.085,6.085,0,0,0-12.137,0" transform="translate(-22.929 -9.3)" fill="#7edeed"/>
            <path id="Trazado_185803" data-name="Trazado 185803" d="M77.128,5.85a4.625,4.625,0,0,0,9.226,0,4.625,4.625,0,0,0-9.226,0" transform="translate(-21.463 -0.513)" fill="#7edeed"/>
          </g>
        </g>
      </g>
    </g>
    <g id="Grupo_177893" data-name="Grupo 177893" transform="translate(296.127 707.937)">
      <g id="Grupo_177895" data-name="Grupo 177895" transform="translate(0 0)">
        <g id="Grupo_177891" data-name="Grupo 177891">
          <g id="Grupo_177894" data-name="Grupo 177894">
            <path id="Trazado_185769" data-name="Trazado 185769" d="M136.144,138.681c14.158,25.367,5.339,57.562-19.7,71.907A51.714,51.714,0,0,1,45.483,190.63a53.319,53.319,0,0,1,8.149-62.939L41.093,105.224a46.034,46.034,0,0,1-6.262,1.467,3.671,3.671,0,0,1-3.77-1.854L27.636,98.7c-1.167-2.093,6.831-8.914,17.864-15.236S66.422,73.712,67.589,75.8l3.688,6.607a3.765,3.765,0,0,1-.514,4.391A53.979,53.979,0,0,1,66.3,91.069l12.417,22.25a51.837,51.837,0,0,1,57.43,25.362" transform="translate(-4.978 -54.279)" fill="#f2edfd"/>
            <g id="Grupo_177874" data-name="Grupo 177874" transform="translate(0 26.011)" style="isolation: isolate">
              <g id="Grupo_177873" data-name="Grupo 177873">
                <g id="Grupo_177872" data-name="Grupo 177872" clip-path="url(#clip-path-13)">
                  <path id="Trazado_185770" data-name="Trazado 185770" d="M25.767,56.5A13.389,13.389,0,1,1,8.281,49.234,13.389,13.389,0,0,1,25.767,56.5" transform="translate(0 -48.217)" fill="#3157fa"/>
                </g>
              </g>
            </g>
            <g id="Grupo_177877" data-name="Grupo 177877" transform="translate(36.236 27.733)" style="isolation: isolate">
              <g id="Grupo_177876" data-name="Grupo 177876">
                <g id="Grupo_177875" data-name="Grupo 177875" clip-path="url(#clip-path-14)">
                  <path id="Trazado_185771" data-name="Trazado 185771" d="M58.014,54.579a7.159,7.159,0,1,1-9.35-3.884,7.159,7.159,0,0,1,9.35,3.884" transform="translate(-44.236 -50.151)" fill="#3157fa"/>
                </g>
              </g>
            </g>
            <g id="Grupo_177880" data-name="Grupo 177880" transform="translate(12.851)" style="isolation: isolate">
              <g id="Grupo_177879" data-name="Grupo 177879">
                <g id="Grupo_177878" data-name="Grupo 177878" clip-path="url(#clip-path-15)">
                  <path id="Trazado_185772" data-name="Trazado 185772" d="M35.283,15.471a10.181,10.181,0,1,1-13.3-5.523,10.181,10.181,0,0,1,13.3,5.523" transform="translate(-15.689 -9.174)" fill="#3157fa"/>
                </g>
              </g>
            </g>
            <g id="Grupo_177883" data-name="Grupo 177883" transform="translate(29.482 47.728)" style="mix-blend-mode: multiply;isolation: isolate">
              <g id="Grupo_177882" data-name="Grupo 177882">
                <g id="Grupo_177881" data-name="Grupo 177881" clip-path="url(#clip-path-16)">
                  <path id="Trazado_185773" data-name="Trazado 185773" d="M61.392,79.984c.59,1.043-4.608,5.1-11.609,9.058s-13.155,6.323-13.746,5.28,4.608-5.1,11.61-9.058,13.155-6.323,13.745-5.28" transform="translate(-35.991 -79.737)" fill="#f2edfd"/>
                </g>
              </g>
            </g>
            <g id="Grupo_177886" data-name="Grupo 177886" transform="translate(36.115 57.252)" style="mix-blend-mode: multiply;isolation: isolate">
              <g id="Grupo_177885" data-name="Grupo 177885">
                <g id="Grupo_177884" data-name="Grupo 177884" clip-path="url(#clip-path-17)">
                  <path id="Trazado_185774" data-name="Trazado 185774" d="M69.294,94.321a98.433,98.433,0,0,1-25.2,13.97l3.259,5.763S66.913,103.291,70.36,96.205Z" transform="translate(-44.089 -94.321)" fill="#f2edfd"/>
                </g>
              </g>
            </g>
            <path id="Trazado_185775" data-name="Trazado 185775" d="M133.6,157.734a42.072,42.072,0,1,1-77.694,29.874l0,0c-.015-.064-.03-.128-.043-.193.014-.531.88-1.515,2.453-2.853.048-.043.1-.088.152-.131.157-.134.319-.269.491-.4.108-.091.223-.183.339-.276,0,0,0,0,.007,0,.236-.191.484-.388.745-.588.06-.049.124-.1.187-.145,2.121-1.631,4.938-3.6,8.289-5.8q.941-.619,1.938-1.259l0,0q.665-.426,1.352-.863c1.837-1.166,3.792-2.378,5.847-3.627q.773-.469,1.56-.944l.795-.476c.266-.16.532-.319.8-.478s.541-.321.812-.483c2.425-1.435,4.957-2.9,7.571-4.378q2.943-1.665,5.781-3.215c15.38-8.4,27.927-14.061,30.554-13.744a.819.819,0,0,1,.319.1c.046.043.093.089.139.133v0l.177.169a42.09,42.09,0,0,1,7.424,9.6" transform="translate(-10.104 -65.535)" fill="#ffab31"/>
            <path id="Trazado_185776" data-name="Trazado 185776" d="M98.377,212.285a8.058,8.058,0,1,1-10.523-4.371,8.057,8.057,0,0,1,10.523,4.371" transform="translate(-14.988 -76.31)" fill="#ff8131"/>
            <path id="Trazado_185777" data-name="Trazado 185777" d="M141.2,205.241a8.058,8.058,0,1,1-10.524-4.371,8.058,8.058,0,0,1,10.524,4.371" transform="translate(-22.732 -75.036)" fill="#ff8131"/>
            <path id="Trazado_185778" data-name="Trazado 185778" d="M117.562,200.577a4.307,4.307,0,1,1-5.626-2.337,4.307,4.307,0,0,1,5.626,2.337" transform="translate(-19.763 -69.351)" fill="#ff8131"/>
            <path id="Trazado_185779" data-name="Trazado 185779" d="M91.795,191.22a4.307,4.307,0,1,1-5.626-2.337,4.308,4.308,0,0,1,5.626,2.337" transform="translate(-15.103 -66.367)" fill="#ff8131"/>
            <path id="Trazado_185780" data-name="Trazado 185780" d="M138.857,173.8a8.058,8.058,0,1,1-10.523-4.371,8.057,8.057,0,0,1,10.523,4.371" transform="translate(-22.309 -61.002)" fill="#ff8131"/>
            <path id="Trazado_185781" data-name="Trazado 185781" d="M126,147.968v0a.388.388,0,0,1,.04.247c-.274,2.282-14.758,12.155-33.338,22.663-19.355,10.945-35.829,18.436-36.795,16.728v0a.379.379,0,0,1-.043-.193c.014-.531.881-1.516,2.454-2.853l.152-.131c.157-.134.32-.269.491-.4.109-.092.223-.183.339-.276,0,0,0,0,.007,0,.237-.191.484-.389.746-.588.06-.049.124-.1.187-.145,2.12-1.631,4.937-3.6,8.288-5.8q.942-.619,1.938-1.259l0,0q.663-.43,1.352-.864c1.835-1.167,3.791-2.38,5.847-3.627q.772-.472,1.56-.943l.795-.477c.266-.159.532-.319.8-.478s.541-.321.811-.483c2.425-1.434,4.957-2.9,7.571-4.377q2.943-1.665,5.781-3.215c15.38-8.4,27.926-14.061,30.554-13.744a.805.805,0,0,1,.319.1l.139.133" transform="translate(-10.104 -57.252)" fill="#ebba55"/>
            <g id="Grupo_177889" data-name="Grupo 177889" transform="translate(69.489 76.365)" style="mix-blend-mode: screen;isolation: isolate">
              <g id="Grupo_177888" data-name="Grupo 177888">
                <g id="Grupo_177887" data-name="Grupo 177887" clip-path="url(#clip-path-18)">
                  <path id="Trazado_185782" data-name="Trazado 185782" d="M84.831,134.441s21.077-9.2,39.673,3.934,26.178,37.329,14.519,57.491c0,0,5.726-57.867-54.193-61.425" transform="translate(-84.831 -131.309)" fill="#ff8131"/>
                </g>
              </g>
            </g>
          </g>
        </g>
      </g>
    </g>
    <g id="Grupo_177915" data-name="Grupo 177915" transform="translate(496.106 789.514)">
      <g id="Grupo_177914" data-name="Grupo 177914" clip-path="url(#clip-path-19)">
        <g id="Grupo_177913" data-name="Grupo 177913">
          <g id="Grupo_177912" data-name="Grupo 177912" clip-path="url(#clip-path-19)">
            <path id="Trazado_185804" data-name="Trazado 185804" d="M42.031,115.242l5.791,5.472a1.823,1.823,0,0,0,2.577-.075l13.859-14.668,5.731-6.065-8.441-7.977-3.4,3.594-16.2,17.142a1.821,1.821,0,0,0,.072,2.577" transform="translate(-18.883 -41.869)" fill="#ffab31"/>
            <path id="Trazado_185805" data-name="Trazado 185805" d="M72.116,95.524a25.149,25.149,0,0,0,6.1,10.448l5.732-6.066L75.511,91.93Z" transform="translate(-32.845 -41.869)" fill="#ff8131"/>
            <path id="Trazado_185806" data-name="Trazado 185806" d="M.892,163.211l1.1,1.04a2.847,2.847,0,0,0,4.025-.114l22.646-23.969-5.24-4.951L.778,159.187a2.846,2.846,0,0,0,.114,4.024" transform="translate(0 -61.584)"/>
            <path id="Trazado_185807" data-name="Trazado 185807" d="M72.266,10.11a32.66,32.66,0,1,0,46.178-1.076A32.661,32.661,0,0,0,72.266,10.11m3.624,3.458A27.651,27.651,0,1,1,76.8,52.663a27.682,27.682,0,0,1-.909-39.095" transform="translate(-28.798 0)"/>
            <g id="Grupo_177905" data-name="Grupo 177905" transform="translate(39.441 5.007)" style="mix-blend-mode: screen;isolation: isolate">
              <g id="Grupo_177904" data-name="Grupo 177904">
                <g id="Grupo_177903" data-name="Grupo 177903" clip-path="url(#clip-path-21)">
                  <path id="Trazado_185808" data-name="Trazado 185808" d="M74.24,27.008A27.525,27.525,0,1,0,75.863,23.5a27.684,27.684,0,0,0-1.623,3.509" transform="translate(-72.428 -9.194)" fill="#3157fa"/>
                </g>
              </g>
            </g>
            <g id="Grupo_177908" data-name="Grupo 177908" transform="translate(57.361 5.007)" opacity="0.25" style="mix-blend-mode: screen;isolation: isolate">
              <g id="Grupo_177907" data-name="Grupo 177907">
                <g id="Grupo_177906" data-name="Grupo 177906" clip-path="url(#clip-path-22)">
                  <path id="Trazado_185809" data-name="Trazado 185809" d="M105.336,10.981l22.575,50.341a27.551,27.551,0,0,0,11.166-10.747L120.788,9.791a27.547,27.547,0,0,0-15.452,1.19" transform="translate(-105.336 -9.194)" fill="#fff"/>
                </g>
              </g>
            </g>
            <g id="Grupo_177911" data-name="Grupo 177911" transform="translate(42.876 11.822)" opacity="0.25" style="mix-blend-mode: screen;isolation: isolate">
              <g id="Grupo_177910" data-name="Grupo 177910">
                <g id="Grupo_177909" data-name="Grupo 177909" clip-path="url(#clip-path-23)">
                  <path id="Trazado_185810" data-name="Trazado 185810" d="M78.736,29.2,96.813,69.512a27.436,27.436,0,0,0,9.616.465L84.785,21.71A27.439,27.439,0,0,0,78.736,29.2" transform="translate(-78.736 -21.71)" fill="#fff"/>
                </g>
              </g>
            </g>
          </g>
        </g>
      </g>
    </g>
  </g>
</svg>
