<svg xmlns="http://www.w3.org/2000/svg" width="574.976" height="275.758" viewBox="0 0 574.976 275.758">
  <g id="Grupo_178784" data-name="Grupo 178784" transform="translate(5716.026 5296.793)">
    <g id="Grupo_12903" data-name="Grupo 12903" transform="translate(-6038.902 -5465.452)">
      <g id="Grupo_12901" data-name="Grupo 12901" transform="translate(533.902 168.658)">
        <g id="Grupo_12898" data-name="Grupo 12898" transform="translate(1.101 0)">
          <path id="Trazado_26363" data-name="Trazado 26363" d="M1041.008,693.684c0,2.006.954,3.092,2.327,3.092s2.327-1.086,2.327-3.092-2.327-5.073-2.327-5.073S1041.008,691.678,1041.008,693.684Z" transform="translate(-902.074 -545.028)" fill="#be1e2d"/>
          <g id="Grupo_12894" data-name="Grupo 12894" transform="translate(18.543 137.497)">
            <path id="Trazado_26364" data-name="Trazado 26364" d="M670.52,673.192c0-2.056-1.359-3.723-3.035-3.723h-.023a2.96,2.96,0,0,0-2.675-2.9c-1.49,0-2.7,1.482-2.7,3.309,0,.122.006.243.017.361a4.181,4.181,0,0,0-2.209,3.878A4.647,4.647,0,0,0,660.85,677a4.168,4.168,0,0,0-2.807,4.206,4.8,4.8,0,0,0,1.041,3.053,4.357,4.357,0,0,0-1.041,2.893,4.057,4.057,0,0,0,1.861,3.564,2.54,2.54,0,0,0,2.27,2.64,2.574,2.574,0,0,0,2.277-2.792,3.239,3.239,0,0,0-.383-1.549,4.724,4.724,0,0,0,0-3.723,2.459,2.459,0,0,0,.971.2,2.822,2.822,0,0,0,2.388-1.5,5.348,5.348,0,0,0,2.08-4.394,5.828,5.828,0,0,0-.808-3A3.825,3.825,0,0,0,670.52,673.192Z" transform="translate(-643.406 -666.574)" fill="#f1f2f2" opacity="0.29"/>
            <path id="Trazado_26365" data-name="Trazado 26365" d="M611.977,742.011a1.839,1.839,0,0,0-1.687-1.961h-.013a1.6,1.6,0,0,0-1.487-1.526,1.635,1.635,0,0,0-1.5,1.743c0,.064,0,.128.009.19a2.186,2.186,0,0,0-1.228,2.043,2.364,2.364,0,0,0,.529,1.515,2.2,2.2,0,0,0-1.56,2.216,2.446,2.446,0,0,0,.579,1.608,2.224,2.224,0,0,0-.579,1.524,2.109,2.109,0,0,0,1.035,1.878,1.366,1.366,0,0,0,1.262,1.391,1.38,1.38,0,0,0,1.266-1.471,1.635,1.635,0,0,0-.213-.816,2.368,2.368,0,0,0,0-1.961,1.431,1.431,0,0,0,.54.108,1.58,1.58,0,0,0,1.328-.79,2.765,2.765,0,0,0,1.156-2.314,2.95,2.95,0,0,0-.449-1.581A1.992,1.992,0,0,0,611.977,742.011Z" transform="translate(-605.04 -718.656)" fill="#f1f2f2" opacity="0.29"/>
            <path id="Trazado_26366" data-name="Trazado 26366" d="M752.2,762.358a1.475,1.475,0,0,0-1.475-1.475h-.011a1.31,1.31,0,0,0-2.611.163,1.273,1.273,0,0,0,.008.143,1.636,1.636,0,0,0-.611,2.676,1.7,1.7,0,0,0-.858,2.876,1.553,1.553,0,0,0,.4,2.558,1.105,1.105,0,1,0,2.023-.674,1.558,1.558,0,0,0,0-1.475,1.426,1.426,0,0,0,1.633-.513,2,2,0,0,0,.618-2.93A1.474,1.474,0,0,0,752.2,762.358Z" transform="translate(-707.174 -734.01)" fill="#f1f2f2" opacity="0.29"/>
          </g>
          <g id="Grupo_12895" data-name="Grupo 12895" transform="translate(0 113.258)">
            <path id="Trazado_26367" data-name="Trazado 26367" d="M584.764,600.019V584.69a3.033,3.033,0,0,0,2.023-2.858h0a3.035,3.035,0,0,0-3.035-3.035H571.387a3.035,3.035,0,0,0-3.035,3.035h0a3.033,3.033,0,0,0,2.023,2.858v15.33a39.68,39.68,0,1,0,14.388,0Z" transform="translate(-537.889 -578.796)" fill="#00aeef" opacity="0.4"/>
            <path id="Trazado_26368" data-name="Trazado 26368" d="M613.589,791.691c-3.934,0-3.934,3.372-7.868,3.372s-3.934-3.372-7.867-3.372-3.934,3.372-7.869,3.372-3.934-3.372-7.867-3.372-3.934,3.372-7.868,3.372-3.934-3.372-7.868-3.372-3.934,3.372-7.868,3.372-3.934-3.372-7.868-3.372a5.89,5.89,0,0,0-.884.064,1.628,1.628,0,0,0-1.37,1.61v.012a36.8,36.8,0,0,0,73.561,1.665c-.159.012-.322.021-.5.021C617.523,795.063,617.523,791.691,613.589,791.691Z" transform="translate(-545.491 -732.901)" fill="#be1e2d"/>
            <circle id="Elipse_895" data-name="Elipse 895" cx="3.316" cy="3.316" r="3.316" transform="translate(23.453 77.057)" fill="#fff" opacity="0.24"/>
            <circle id="Elipse_896" data-name="Elipse 896" cx="2.751" cy="2.751" r="2.751" transform="translate(42.194 90.016) rotate(-45)" fill="#fff" opacity="0.24"/>
            <path id="Trazado_26369" data-name="Trazado 26369" d="M780.235,851.842a1.856,1.856,0,1,0-1.856,1.855A1.855,1.855,0,0,0,780.235,851.842Z" transform="translate(-710.626 -775.098)" fill="#fff" opacity="0.24"/>
            <circle id="Elipse_897" data-name="Elipse 897" cx="2.062" cy="2.062" r="2.062" transform="translate(30.161 90.016)" fill="#fff" opacity="0.24"/>
            <circle id="Elipse_898" data-name="Elipse 898" cx="2.062" cy="2.062" r="2.062" transform="translate(12.288 77.547)" fill="#fff" opacity="0.24"/>
            <circle id="Elipse_899" data-name="Elipse 899" cx="2.062" cy="2.062" r="2.062" transform="translate(9.442 69.019)" fill="#fff" opacity="0.24"/>
            <circle id="Elipse_900" data-name="Elipse 900" cx="1.74" cy="1.74" r="1.74" transform="translate(51.411 79.609)" fill="#fff" opacity="0.24"/>
            <circle id="Elipse_901" data-name="Elipse 901" cx="1.74" cy="1.74" r="1.74" transform="translate(58.043 84.891)" fill="#fff" opacity="0.24"/>
            <circle id="Elipse_902" data-name="Elipse 902" cx="2.3" cy="2.3" r="2.3" transform="translate(36.707 78.073)" fill="#fff" opacity="0.24"/>
            <circle id="Elipse_903" data-name="Elipse 903" cx="2.165" cy="2.165" r="2.165" transform="translate(56.625 71.966)" fill="#fff" opacity="0.24"/>
            <circle id="Elipse_904" data-name="Elipse 904" cx="2.027" cy="2.027" r="2.027" transform="translate(45.499 72.69)" fill="#fff" opacity="0.24"/>
            <path id="Trazado_26370" data-name="Trazado 26370" d="M616.836,895.033a1.441,1.441,0,1,0-1.441,1.441A1.441,1.441,0,0,0,616.836,895.033Z" transform="translate(-592.949 -806.662)" fill="#fff" opacity="0.24"/>
            <circle id="Elipse_905" data-name="Elipse 905" cx="1.441" cy="1.441" r="1.441" transform="translate(19.13 71.249)" fill="#fff" opacity="0.24"/>
            <circle id="Elipse_906" data-name="Elipse 906" cx="2.367" cy="2.367" r="2.367" transform="translate(29.856 69.599)" fill="#fff" opacity="0.24"/>
          </g>
          <g id="Grupo_12897" data-name="Grupo 12897" transform="translate(34.084)">
            <path id="Trazado_26371" data-name="Trazado 26371" d="M734.551,573.061l74.393,23.849c-1.507,3.291-4.839,5.133-7.854,4.171l-4.05-1.288-2.671,8.39L782.157,604.3l2.671-8.39-46.308-14.73C735.454,580.2,733.792,576.679,734.551,573.061Z" transform="translate(-714.196 -461.387)" fill="#e27356"/>
            <path id="Trazado_26372" data-name="Trazado 26372" d="M820.012,536.263l-74.261-23.8c1.6-3.008,4.758-4.64,7.635-3.726l4.05,1.288,2.668-8.39,12.211,3.885-2.668,8.39,46.308,14.734C818.879,529.572,820.528,532.82,820.012,536.263Z" transform="translate(-722.435 -409.683)" fill="#e27356"/>
            <g id="Grupo_12896" data-name="Grupo 12896" transform="translate(3.344)">
              <rect id="Rectángulo_2687" data-name="Rectángulo 2687" width="4.44" height="87.488" rx="2.22" fill="#fff" opacity="0.75"/>
              <rect id="Rectángulo_2688" data-name="Rectángulo 2688" width="1.684" height="59.432" rx="0.842" transform="translate(1.378 27.076)" fill="#ed1c24"/>
              <rect id="Rectángulo_2689" data-name="Rectángulo 2689" width="0.817" height="0.465" transform="translate(0 83.127)"/>
              <rect id="Rectángulo_2690" data-name="Rectángulo 2690" width="0.817" height="0.465" transform="translate(0 79.871)"/>
              <rect id="Rectángulo_2691" data-name="Rectángulo 2691" width="0.817" height="0.465" transform="translate(0 76.615)"/>
              <rect id="Rectángulo_2692" data-name="Rectángulo 2692" width="0.817" height="0.465" transform="translate(0 73.36)"/>
              <rect id="Rectángulo_2693" data-name="Rectángulo 2693" width="1.123" height="0.465" transform="translate(0 70.104)" fill="#be1e2d"/>
              <rect id="Rectángulo_2694" data-name="Rectángulo 2694" width="0.817" height="0.465" transform="translate(0 66.848)"/>
              <rect id="Rectángulo_2695" data-name="Rectángulo 2695" width="0.817" height="0.465" transform="translate(0 63.592)"/>
              <rect id="Rectángulo_2696" data-name="Rectángulo 2696" width="0.817" height="0.465" transform="translate(0 60.337)"/>
              <rect id="Rectángulo_2697" data-name="Rectángulo 2697" width="0.817" height="0.465" transform="translate(0 57.081)"/>
              <rect id="Rectángulo_2698" data-name="Rectángulo 2698" width="1.123" height="0.465" transform="translate(0 53.825)" fill="#be1e2d"/>
              <rect id="Rectángulo_2699" data-name="Rectángulo 2699" width="0.817" height="0.465" transform="translate(0 50.57)"/>
              <rect id="Rectángulo_2700" data-name="Rectángulo 2700" width="0.817" height="0.465" transform="translate(0 47.314)"/>
              <rect id="Rectángulo_2701" data-name="Rectángulo 2701" width="0.817" height="0.465" transform="translate(0 44.058)"/>
              <rect id="Rectángulo_2702" data-name="Rectángulo 2702" width="0.817" height="0.465" transform="translate(0 40.803)"/>
              <rect id="Rectángulo_2703" data-name="Rectángulo 2703" width="1.123" height="0.465" transform="translate(0 37.547)" fill="#be1e2d"/>
              <rect id="Rectángulo_2704" data-name="Rectángulo 2704" width="0.817" height="0.465" transform="translate(0 34.291)"/>
              <rect id="Rectángulo_2705" data-name="Rectángulo 2705" width="0.817" height="0.465" transform="translate(0 31.036)"/>
              <rect id="Rectángulo_2706" data-name="Rectángulo 2706" width="0.817" height="0.465" transform="translate(0 27.78)"/>
              <rect id="Rectángulo_2707" data-name="Rectángulo 2707" width="0.817" height="0.465" transform="translate(0 24.524)"/>
              <rect id="Rectángulo_2708" data-name="Rectángulo 2708" width="1.123" height="0.465" transform="translate(0 21.269)" fill="#be1e2d"/>
              <rect id="Rectángulo_2709" data-name="Rectángulo 2709" width="0.817" height="0.465" transform="translate(0 18.013)"/>
              <rect id="Rectángulo_2710" data-name="Rectángulo 2710" width="0.817" height="0.465" transform="translate(0 14.757)"/>
              <rect id="Rectángulo_2711" data-name="Rectángulo 2711" width="0.817" height="0.465" transform="translate(0 11.502)"/>
              <rect id="Rectángulo_2712" data-name="Rectángulo 2712" width="0.817" height="0.465" transform="translate(0 8.246)"/>
              <rect id="Rectángulo_2713" data-name="Rectángulo 2713" width="1.123" height="0.465" transform="translate(0 4.99)" fill="#be1e2d"/>
            </g>
            <path id="Trazado_26373" data-name="Trazado 26373" d="M764.334,424.31a4.693,4.693,0,0,0-3.244-4.114l-2.2-.7-74.261-23.8-12.187-3.909V379.452l-.563-7.685-2.3-31.453h-5.409l-2.3,31.453-.563,7.685v45.411h11.128V401.628l9.227,2.957,74.393,23.849,2.162.691a4.694,4.694,0,0,0,4.947-1.366,9.979,9.979,0,0,1,5.315,8.734l3.591-.216A13.5,13.5,0,0,0,764.334,424.31Z" transform="translate(-661.318 -292.911)" fill="#00aeef" opacity="0.4"/>
          </g>
        </g>
        <g id="Grupo_12899" data-name="Grupo 12899" transform="translate(101.008 158.258)">
          <path id="Trazado_26374" data-name="Trazado 26374" d="M983.595,843.941l-32.142-63.19V747.307a2.72,2.72,0,0,0,2.042-2.754,2.648,2.648,0,0,0-2.465-2.8h-17.7a2.648,2.648,0,0,0-2.465,2.8,2.72,2.72,0,0,0,2.042,2.754v33.444l-32.142,63.19c-3.062,6.021.766,13.547,6.891,13.547H976.7C982.829,857.488,986.657,849.962,983.595,843.941Z" transform="translate(-899.681 -741.755)" fill="#00aeef" opacity="0.4"/>
          <path id="Trazado_26375" data-name="Trazado 26375" d="M967.394,1032.828c-4.053,0-4.053-6.745-8.107-6.745s-4.053,6.745-8.106,6.745-4.054-6.745-8.107-6.745-4.053,6.745-8.107,6.745-4.053-6.745-8.107-6.745c-2.815,0-3.675,3.252-5.3,5.239l-10.248,20.147a6.193,6.193,0,0,0,0,5.6,4.81,4.81,0,0,0,4.271,2.8h69.055a4.81,4.81,0,0,0,4.271-2.8,6.191,6.191,0,0,0,0-5.6l-12.891-25.343a3.3,3.3,0,0,0-.522-.044C971.448,1026.083,971.448,1032.828,967.394,1032.828Z" transform="translate(-907.62 -947.567)" fill="#be1e2d"/>
          <path id="Trazado_26376" data-name="Trazado 26376" d="M1046.974,828.946c0,2.1,1,3.244,2.442,3.244s2.442-1.139,2.442-3.244-2.442-5.323-2.442-5.323S1046.974,826.841,1046.974,828.946Z" transform="translate(-1006.3 -801.016)" fill="#be1e2d"/>
          <path id="Trazado_26377" data-name="Trazado 26377" d="M1037.768,899.225c0,2.044.972,3.15,2.371,3.15s2.371-1.106,2.371-3.15-2.371-5.168-2.371-5.168S1037.768,897.182,1037.768,899.225Z" transform="translate(-999.636 -851.999)" fill="#be1e2d"/>
          <path id="Trazado_26378" data-name="Trazado 26378" d="M1047.161,961.3c0,2.373,1.129,3.657,2.753,3.657s2.753-1.284,2.753-3.657-2.753-6-2.753-6S1047.161,958.923,1047.161,961.3Z" transform="translate(-1006.435 -896.327)" fill="#be1e2d"/>
          <path id="Trazado_26379" data-name="Trazado 26379" d="M1037.806,769.039c0,2.006.954,3.092,2.327,3.092s2.327-1.086,2.327-3.092-2.327-5.073-2.327-5.073S1037.806,767.033,1037.806,769.039Z" transform="translate(-999.663 -757.833)" fill="#be1e2d"/>
        </g>
        <g id="Grupo_12900" data-name="Grupo 12900" transform="translate(0 213.322)">
          <path id="Trazado_26380" data-name="Trazado 26380" d="M627.965,948.427H568.731a1.775,1.775,0,0,1-1.775-1.775h0a1.775,1.775,0,0,1,1.775-1.775h59.234a1.775,1.775,0,0,1,1.775,1.775h0A1.775,1.775,0,0,1,627.965,948.427Z" transform="translate(-557.828 -943.849)" fill="#808285"/>
          <path id="Trazado_26381" data-name="Trazado 26381" d="M614.624,942.839h-79.88A.842.842,0,0,1,533.9,942h0a.841.841,0,0,1,.842-.841h79.88a.841.841,0,0,1,.841.841h0A.842.842,0,0,1,614.624,942.839Z" transform="translate(-533.902 -941.156)"/>
          <path id="Trazado_26382" data-name="Trazado 26382" d="M565.689,947.716l-2.384-.466-11.523,58.986h2.475Z" transform="translate(-546.845 -945.568)" fill="#808285"/>
          <path id="Trazado_26383" data-name="Trazado 26383" d="M763.408,947.251l-2.384.466,11.432,58.52h2.475Z" transform="translate(-698.305 -945.568)" fill="#808285"/>
        </g>
      </g>
      <g id="Grupo_12902" data-name="Grupo 12902" transform="translate(561.638 390.679)">
        <path id="Trazado_26384" data-name="Trazado 26384" d="M671.776,990.262a11.858,11.858,0,0,0,.691,2.926c-.035,0-.07-.005-.107-.005h-4.5a.452.452,0,0,0-.082.005,5.4,5.4,0,0,1-.234-1.974c.114-1.551.87-2.063.674-3.48-.11-.793-.378-.85-.438-1.765a15.319,15.319,0,0,1,.231-2.088c.07-1.24-.216-1.39-.124-2.361.1-1.141.512-1.086.746-2.237.4-1.964-.632-3.067.164-3.977.333-.38.649-.353.994-.87a2.708,2.708,0,0,0,.373-1.78,3.442,3.442,0,0,1,.582,2.277,7.32,7.32,0,0,0-.209,1.409,5.4,5.4,0,0,0,.124,1.161c.288,1.432.785,1.6.706,2.443-.047.485-.231.629-.152,1.1a2.425,2.425,0,0,0,.482.974,6.323,6.323,0,0,1,.746,1.824c.179.833-.164,1.29-.455,2.361A10.539,10.539,0,0,0,671.776,990.262Z" transform="translate(-658.363 -972.656)" fill="#f9ed32"/>
        <path id="Trazado_26385" data-name="Trazado 26385" d="M673.263,1070.843v12.182a.617.617,0,0,0-.067,0h-4.32a.617.617,0,0,0-.067,0v-12.182Z" transform="translate(-659.29 -1043.729)" fill="#8d6743"/>
        <path id="Trazado_26386" data-name="Trazado 26386" d="M673.263,1130.242v4.477h-4.455v-4.477a.617.617,0,0,0,.067,0h4.32A.617.617,0,0,0,673.263,1130.242Z" transform="translate(-659.29 -1086.725)" fill="#8d6743"/>
        <path id="Trazado_26387" data-name="Trazado 26387" d="M671.586,1116.053v2.018a1.1,1.1,0,0,1-1.034,1.1.588.588,0,0,1-.067,0h-4.32a.587.587,0,0,1-.067,0,1.1,1.1,0,0,1-1.034-1.1v-2.018a1.1,1.1,0,0,1,1.034-1.1.617.617,0,0,1,.067,0h4.32a.617.617,0,0,1,.067,0A1.1,1.1,0,0,1,671.586,1116.053Z" transform="translate(-656.58 -1075.655)" fill="#675044"/>
        <path id="Trazado_26388" data-name="Trazado 26388" d="M671.586,1048v2.207a1.061,1.061,0,0,1-.02.2h-6.483a1.066,1.066,0,0,1-.02-.2V1048a1,1,0,0,1,.927-1,.452.452,0,0,1,.082-.005h4.5c.037,0,.072,0,.107.005A1.01,1.01,0,0,1,671.586,1048Z" transform="translate(-656.58 -1026.462)" fill="#c8ab7a"/>
        <path id="Trazado_26389" data-name="Trazado 26389" d="M657.832,1149.126a1.305,1.305,0,0,1-1.305,1.305h-20.88a1.305,1.305,0,0,1,0-2.61h4.917a.769.769,0,0,1-.07-.313v-.306a.749.749,0,0,1,.748-.748h9.689a.749.749,0,0,1,.748.748v.306a.77.77,0,0,1-.07.313h4.917A1.305,1.305,0,0,1,657.832,1149.126Z" transform="translate(-634.342 -1098.46)" fill="#4c4f69"/>
        <path id="Trazado_26390" data-name="Trazado 26390" d="M671.447,1022.662a2.538,2.538,0,0,0,0-1.352,8.888,8.888,0,0,1,1.367-4.77c.838-.994-.032-2.515-.186-2.888s.1-.4.547.186,1.223,1.211.572,4.6.683,4.226.683,4.226Z" transform="translate(-661.176 -1002.135)" fill="#be1e2d"/>
        <path id="Trazado_26391" data-name="Trazado 26391" d="M671.586,1059.366v2.294a.875.875,0,0,1-.875.875h-4.773a.875.875,0,0,1-.875-.875v-2.294Z" transform="translate(-656.58 -1035.421)" fill="#5c8ba4"/>
      </g>
    </g>
    <path id="Trazado_187553" data-name="Trazado 187553" d="M8.9-5.432H4.052v3.059h5.73V0H.967V-12.8H9.8v2.382H4.052v2.7H8.9Zm5.221,3.059h5.37V0H11.039V-12.8h3.085Zm14.238,0h5.37V0H25.277V-12.8h3.085ZM38.32,0H35.244V-12.8H38.32ZM37.151-16.225H40.28l-2.443,2.76-2.417,0ZM51.319-6.135a7.562,7.562,0,0,1-.589,3.1A5.385,5.385,0,0,1,49.1-.914L51.17.721,49.263,2.338,46.512.123a5.718,5.718,0,0,1-.773.053,5.547,5.547,0,0,1-2.9-.756,5.141,5.141,0,0,1-1.973-2.162,7.343,7.343,0,0,1-.734-3.234v-.677a7.572,7.572,0,0,1,.69-3.322A5.142,5.142,0,0,1,42.79-12.19a5.5,5.5,0,0,1,2.931-.782,5.479,5.479,0,0,1,2.9.773A5.211,5.211,0,0,1,50.6-10a7.362,7.362,0,0,1,.716,3.274Zm-3.138-.536a5.381,5.381,0,0,0-.637-2.9,2.044,2.044,0,0,0-1.824-.989,2.03,2.03,0,0,0-1.837.976,5.451,5.451,0,0,0-.624,2.856v.589a5.531,5.531,0,0,0,.624,2.9,2.043,2.043,0,0,0,1.854,1.006,2.014,2.014,0,0,0,1.806-.993,5.414,5.414,0,0,0,.637-2.856ZM62.93-12.8v8.376a4.814,4.814,0,0,1-.606,2.465,3.929,3.929,0,0,1-1.74,1.586A6.131,6.131,0,0,1,57.9.176,5.3,5.3,0,0,1,54.22-1.037a4.326,4.326,0,0,1-1.371-3.322V-12.8h3.1v8.5Q56-2.2,57.9-2.2a1.889,1.889,0,0,0,1.45-.527,2.465,2.465,0,0,0,.492-1.714V-12.8ZM68.142,0H65.065V-12.8h3.076Zm2.145,0V-12.8h4.122a6.064,6.064,0,0,1,3.05.769,5.406,5.406,0,0,1,2.114,2.171,6.554,6.554,0,0,1,.769,3.142v.589A6.592,6.592,0,0,1,79.6-2.975,5.429,5.429,0,0,1,77.506-.8,5.93,5.93,0,0,1,74.5,0Zm3.085-10.415v8.042h1.072a2.4,2.4,0,0,0,2.039-.945,4.63,4.63,0,0,0,.712-2.808V-6.68a4.592,4.592,0,0,0-.712-2.795,2.442,2.442,0,0,0-2.074-.94ZM92.76-6.135a7.546,7.546,0,0,1-.694,3.313A5.132,5.132,0,0,1,90.092-.6a5.494,5.494,0,0,1-2.914.778,5.572,5.572,0,0,1-2.9-.751,5.123,5.123,0,0,1-1.973-2.149,7.329,7.329,0,0,1-.743-3.208v-.721a7.58,7.58,0,0,1,.69-3.318A5.119,5.119,0,0,1,84.23-12.19a5.533,5.533,0,0,1,2.931-.782,5.479,5.479,0,0,1,2.9.773A5.211,5.211,0,0,1,92.043-10a7.362,7.362,0,0,1,.716,3.274Zm-3.138-.536a5.381,5.381,0,0,0-.637-2.9,2.044,2.044,0,0,0-1.824-.989q-2.32,0-2.452,3.48l-.009.94a5.535,5.535,0,0,0,.624,2.892,2.041,2.041,0,0,0,1.854,1.011,2.016,2.016,0,0,0,1.8-.993,5.383,5.383,0,0,0,.642-2.856ZM105.434-3.4a1.268,1.268,0,0,0-.479-1.055,5.954,5.954,0,0,0-1.683-.782,16.147,16.147,0,0,1-1.969-.782q-2.487-1.222-2.487-3.357a3.011,3.011,0,0,1,.62-1.876,4.008,4.008,0,0,1,1.753-1.266,6.823,6.823,0,0,1,2.549-.453,5.969,5.969,0,0,1,2.474.492,3.917,3.917,0,0,1,1.7,1.4A3.661,3.661,0,0,1,108.519-9h-3.076a1.547,1.547,0,0,0-.479-1.213,1.867,1.867,0,0,0-1.3-.431,2.106,2.106,0,0,0-1.305.365,1.119,1.119,0,0,0-.479.927,1.127,1.127,0,0,0,.527.892,6.65,6.65,0,0,0,1.854.826,11.36,11.36,0,0,1,2.18.918,3.663,3.663,0,0,1,2.074,3.3,3.125,3.125,0,0,1-1.266,2.637,5.629,5.629,0,0,1-3.472.958,6.888,6.888,0,0,1-2.817-.558,4.247,4.247,0,0,1-1.9-1.529,3.985,3.985,0,0,1-.637-2.237h3.094a1.963,1.963,0,0,0,.532,1.516,2.513,2.513,0,0,0,1.727.488,1.985,1.985,0,0,0,1.208-.33A1.088,1.088,0,0,0,105.434-3.4Zm12.6-2.03h-4.852v3.059h5.73V0H110.1V-12.8h8.833v2.382h-5.748v2.7h4.852ZM11.32,20.667a4.673,4.673,0,0,1-.721,2.36,4.35,4.35,0,0,1-1.85,1.586,6.3,6.3,0,0,1-2.72.563,5.025,5.025,0,0,1-3.973-1.644,6.786,6.786,0,0,1-1.45-4.641v-.633a7.746,7.746,0,0,1,.655-3.292,4.961,4.961,0,0,1,1.885-2.18,5.26,5.26,0,0,1,2.848-.769,5.516,5.516,0,0,1,3.744,1.226,4.844,4.844,0,0,1,1.608,3.379H8.271a2.292,2.292,0,0,0-.589-1.679,2.422,2.422,0,0,0-1.687-.51,1.843,1.843,0,0,0-1.687.861,5.536,5.536,0,0,0-.562,2.751v.905a6.125,6.125,0,0,0,.514,2.927,1.882,1.882,0,0,0,1.771.879,2.369,2.369,0,0,0,1.626-.5,2.126,2.126,0,0,0,.6-1.591Zm12.3-1.8a7.546,7.546,0,0,1-.694,3.313A5.132,5.132,0,0,1,20.949,24.4a5.494,5.494,0,0,1-2.914.778,5.572,5.572,0,0,1-2.9-.751,5.123,5.123,0,0,1-1.973-2.149,7.329,7.329,0,0,1-.743-3.208v-.721a7.58,7.58,0,0,1,.69-3.318,5.119,5.119,0,0,1,1.978-2.219,5.533,5.533,0,0,1,2.931-.782,5.479,5.479,0,0,1,2.9.773A5.211,5.211,0,0,1,22.9,15a7.362,7.362,0,0,1,.716,3.274Zm-3.138-.536a5.381,5.381,0,0,0-.637-2.9,2.044,2.044,0,0,0-1.824-.989q-2.32,0-2.452,3.48l-.009.94a5.535,5.535,0,0,0,.624,2.892,2.041,2.041,0,0,0,1.854,1.011,2.016,2.016,0,0,0,1.8-.993,5.383,5.383,0,0,0,.642-2.856ZM35.895,25H32.827l-4.535-7.963V25H25.207V12.2h3.085l4.526,7.963V12.2h3.076Zm6.917-3.48L45.36,12.2h3.445L44.5,25H41.124L36.853,12.2h3.419ZM53.024,25H49.948V12.2h3.076Zm10.081-5.432H58.254v3.059h5.73V25H55.169V12.2H64v2.382H58.254v2.7h4.852ZM70,20.474h-1.67V25H65.241V12.2h5.036a5.621,5.621,0,0,1,3.56,1.01,3.421,3.421,0,0,1,1.283,2.853,4.155,4.155,0,0,1-.541,2.213A3.837,3.837,0,0,1,72.888,19.7l2.672,5.167V25h-3.3ZM68.326,18.1h1.951a1.751,1.751,0,0,0,1.323-.463,1.788,1.788,0,0,0,.444-1.291,1.809,1.809,0,0,0-.448-1.3,1.735,1.735,0,0,0-1.318-.471H68.326ZM86.59,14.585H82.749V25H79.664V14.585H75.894V12.2h10.7Zm9.237,4.983H90.976v3.059h5.73V25H87.891V12.2h8.833v2.382H90.976v2.7h4.852Zm14.555,0H105.53v3.059h5.73V25h-8.815V12.2h8.833v2.382H105.53v2.7h4.852ZM123.205,25h-3.067L115.6,17.037V25h-3.085V12.2H115.6l4.526,7.963V12.2h3.076ZM5.933,46.52,8.481,37.2h3.445L7.62,50H4.245L-.026,37.2H3.393Zm13.535,1.09H15.24L14.5,50h-3.3L15.9,37.2h2.9L23.528,50H20.215Zm-3.489-2.382h2.751l-1.38-4.438Zm11.566.431V50H24.46V37.2h5.106a5.948,5.948,0,0,1,2.6.541,4.074,4.074,0,0,1,1.749,1.538,4.2,4.2,0,0,1,.62,2.263,3.7,3.7,0,0,1-1.34,2.993,5.561,5.561,0,0,1-3.678,1.121Zm0-2.382h2.021a1.906,1.906,0,0,0,1.367-.448,1.665,1.665,0,0,0,.47-1.266,2.059,2.059,0,0,0-.483-1.433,1.712,1.712,0,0,0-1.318-.545H27.545Zm19.468.589a7.546,7.546,0,0,1-.694,3.313A5.132,5.132,0,0,1,44.345,49.4a5.494,5.494,0,0,1-2.914.778,5.572,5.572,0,0,1-2.9-.751,5.123,5.123,0,0,1-1.973-2.149,7.329,7.329,0,0,1-.743-3.208v-.721a7.58,7.58,0,0,1,.69-3.318,5.119,5.119,0,0,1,1.978-2.219,5.854,5.854,0,0,1,5.832-.009A5.211,5.211,0,0,1,46.3,40a7.362,7.362,0,0,1,.716,3.274Zm-3.138-.536a5.381,5.381,0,0,0-.637-2.9,2.044,2.044,0,0,0-1.824-.989q-2.32,0-2.452,3.48l-.009.94a5.535,5.535,0,0,0,.624,2.892,2.041,2.041,0,0,0,1.854,1.011,2.016,2.016,0,0,0,1.8-.993,5.383,5.383,0,0,0,.642-2.856Zm9.483,2.145h-1.67V50H48.6V37.2H53.64a5.621,5.621,0,0,1,3.56,1.01,3.421,3.421,0,0,1,1.283,2.853,4.155,4.155,0,0,1-.541,2.213A3.837,3.837,0,0,1,56.25,44.7l2.672,5.167V50h-3.3ZM51.688,43.1H53.64a1.751,1.751,0,0,0,1.323-.463,1.788,1.788,0,0,0,.444-1.291,1.809,1.809,0,0,0-.448-1.3,1.735,1.735,0,0,0-1.318-.471H51.688Z" transform="translate(-5716 -5190)" fill="#f37577"/>
    <path id="Trazado_187554" data-name="Trazado 187554" d="M5.019-12.8l2.856,8.9,2.848-8.9h4.061V0H11.689V-2.988l.3-6.117L8.895,0H6.855l-3.1-9.114.3,6.126V0H.967V-12.8ZM24.68-5.432H19.828v3.059h5.73V0H16.743V-12.8h8.833v2.382H19.828v2.7H24.68Zm5.6,3.059H36.4V0H26.429V-1.626l6.1-8.789H26.394V-12.8h9.94v1.582Zm17.868-1.96a4.673,4.673,0,0,1-.721,2.36,4.35,4.35,0,0,1-1.85,1.586,6.3,6.3,0,0,1-2.72.563,5.025,5.025,0,0,1-3.973-1.644,6.786,6.786,0,0,1-1.45-4.641v-.633a7.746,7.746,0,0,1,.655-3.292,4.961,4.961,0,0,1,1.885-2.18,5.26,5.26,0,0,1,2.848-.769,5.516,5.516,0,0,1,3.744,1.226,4.844,4.844,0,0,1,1.608,3.379H45.1a2.292,2.292,0,0,0-.589-1.679,2.422,2.422,0,0,0-1.687-.51,1.843,1.843,0,0,0-1.687.861,5.536,5.536,0,0,0-.562,2.751v.905a6.126,6.126,0,0,0,.514,2.927,1.882,1.882,0,0,0,1.771.879,2.369,2.369,0,0,0,1.626-.5,2.126,2.126,0,0,0,.6-1.591Zm4.544,1.96h5.37V0H49.605V-12.8H52.69ZM66.8-2.391H62.569L61.831,0h-3.3l4.693-12.8h2.9L70.857,0H67.544ZM63.308-4.772h2.751l-1.38-4.438ZM76.271,0V-12.8h4.122a6.064,6.064,0,0,1,3.05.769,5.406,5.406,0,0,1,2.114,2.171,6.554,6.554,0,0,1,.769,3.142v.589a6.592,6.592,0,0,1-.743,3.151A5.429,5.429,0,0,1,83.492-.8a5.93,5.93,0,0,1-3.01.8Zm3.085-10.415v8.042h1.072a2.4,2.4,0,0,0,2.039-.945,4.63,4.63,0,0,0,.712-2.808V-6.68a4.592,4.592,0,0,0-.712-2.795,2.442,2.442,0,0,0-2.074-.94ZM95.845-5.432H90.993v3.059h5.73V0H87.908V-12.8h8.833v2.382H90.993v2.7h4.852ZM4.052,22.627h5.37V25H.967V12.2H4.052ZM14.01,25H10.934V12.2H14.01Zm13-6.135a7.562,7.562,0,0,1-.589,3.1,5.385,5.385,0,0,1-1.626,2.123l2.065,1.635-1.907,1.617L22.2,25.123a5.718,5.718,0,0,1-.773.053,5.547,5.547,0,0,1-2.9-.756,5.141,5.141,0,0,1-1.973-2.162,7.343,7.343,0,0,1-.734-3.234v-.677a7.572,7.572,0,0,1,.69-3.322,5.142,5.142,0,0,1,1.969-2.215,5.854,5.854,0,0,1,5.832-.009A5.211,5.211,0,0,1,26.292,15a7.362,7.362,0,0,1,.716,3.274Zm-3.138-.536a5.381,5.381,0,0,0-.637-2.9,2.2,2.2,0,0,0-3.661-.013,5.451,5.451,0,0,0-.624,2.856v.589a5.531,5.531,0,0,0,.624,2.9,2.043,2.043,0,0,0,1.854,1.006,2.014,2.014,0,0,0,1.806-.993,5.414,5.414,0,0,0,.637-2.856ZM38.619,12.2v8.376a4.814,4.814,0,0,1-.606,2.465,3.929,3.929,0,0,1-1.74,1.586,6.131,6.131,0,0,1-2.681.545,5.3,5.3,0,0,1-3.683-1.213,4.326,4.326,0,0,1-1.371-3.322V12.2h3.1v8.5q.053,2.1,1.951,2.1a1.889,1.889,0,0,0,1.45-.527,2.465,2.465,0,0,0,.492-1.714V12.2ZM43.831,25H40.755V12.2h3.076Zm2.145,0V12.2H50.1a6.064,6.064,0,0,1,3.05.769,5.406,5.406,0,0,1,2.114,2.171,6.554,6.554,0,0,1,.769,3.142v.589a6.592,6.592,0,0,1-.743,3.151A5.429,5.429,0,0,1,53.2,24.2a5.93,5.93,0,0,1-3.01.8Zm3.085-10.415v8.042h1.072a2.4,2.4,0,0,0,2.039-.945,4.63,4.63,0,0,0,.712-2.808V18.32a4.592,4.592,0,0,0-.712-2.795,2.442,2.442,0,0,0-2.074-.94Zm19.389,4.28a7.546,7.546,0,0,1-.694,3.313A5.132,5.132,0,0,1,65.782,24.4a5.494,5.494,0,0,1-2.914.778,5.572,5.572,0,0,1-2.9-.751,5.123,5.123,0,0,1-1.973-2.149,7.329,7.329,0,0,1-.743-3.208v-.721a7.58,7.58,0,0,1,.69-3.318,5.119,5.119,0,0,1,1.978-2.219,5.854,5.854,0,0,1,5.832-.009A5.211,5.211,0,0,1,67.733,15a7.362,7.362,0,0,1,.716,3.274Zm-3.138-.536a5.381,5.381,0,0,0-.637-2.9,2.044,2.044,0,0,0-1.824-.989q-2.32,0-2.452,3.48l-.009.94a5.535,5.535,0,0,0,.624,2.892,2.041,2.041,0,0,0,1.854,1.011,2.016,2.016,0,0,0,1.8-.993,5.383,5.383,0,0,0,.642-2.856ZM76.641,21.6a1.268,1.268,0,0,0-.479-1.055,5.954,5.954,0,0,0-1.683-.782,16.147,16.147,0,0,1-1.969-.782q-2.487-1.222-2.487-3.357a3.011,3.011,0,0,1,.62-1.876A4.008,4.008,0,0,1,72.4,12.48a6.823,6.823,0,0,1,2.549-.453,5.969,5.969,0,0,1,2.474.492,3.917,3.917,0,0,1,1.7,1.4A3.661,3.661,0,0,1,79.726,16H76.649a1.547,1.547,0,0,0-.479-1.213,1.867,1.867,0,0,0-1.3-.431,2.106,2.106,0,0,0-1.305.365,1.074,1.074,0,0,0,.048,1.819,6.65,6.65,0,0,0,1.854.826,11.36,11.36,0,0,1,2.18.918,3.663,3.663,0,0,1,2.074,3.3,3.125,3.125,0,0,1-1.266,2.637,5.629,5.629,0,0,1-3.472.958,6.888,6.888,0,0,1-2.817-.558,4.247,4.247,0,0,1-1.9-1.529,3.985,3.985,0,0,1-.637-2.237h3.094a1.963,1.963,0,0,0,.532,1.516,2.513,2.513,0,0,0,1.727.488,1.985,1.985,0,0,0,1.208-.33A1.088,1.088,0,0,0,76.641,21.6Z" transform="translate(-5716 -5078)" fill="#f37577"/>
    <path id="Trazado_187555" data-name="Trazado 187555" d="M4.052-2.373h5.37V0H.967V-12.8H4.052ZM14.01,0H10.934V-12.8H14.01ZM12.841-16.225H15.97l-2.443,2.76-2.417,0ZM27.009-6.135a7.562,7.562,0,0,1-.589,3.1A5.385,5.385,0,0,1,24.794-.914L26.859.721,24.952,2.338,22.2.123a5.718,5.718,0,0,1-.773.053,5.547,5.547,0,0,1-2.9-.756,5.141,5.141,0,0,1-1.973-2.162,7.343,7.343,0,0,1-.734-3.234v-.677a7.572,7.572,0,0,1,.69-3.322,5.142,5.142,0,0,1,1.969-2.215,5.5,5.5,0,0,1,2.931-.782,5.479,5.479,0,0,1,2.9.773A5.211,5.211,0,0,1,26.292-10a7.362,7.362,0,0,1,.716,3.274Zm-3.138-.536a5.381,5.381,0,0,0-.637-2.9,2.044,2.044,0,0,0-1.824-.989,2.03,2.03,0,0,0-1.837.976,5.451,5.451,0,0,0-.624,2.856v.589a5.531,5.531,0,0,0,.624,2.9,2.043,2.043,0,0,0,1.854,1.006,2.014,2.014,0,0,0,1.806-.993,5.414,5.414,0,0,0,.637-2.856ZM38.619-12.8v8.376a4.814,4.814,0,0,1-.606,2.465,3.929,3.929,0,0,1-1.74,1.586,6.131,6.131,0,0,1-2.681.545,5.3,5.3,0,0,1-3.683-1.213,4.326,4.326,0,0,1-1.371-3.322V-12.8h3.1v8.5q.053,2.1,1.951,2.1a1.889,1.889,0,0,0,1.45-.527,2.465,2.465,0,0,0,.492-1.714V-12.8ZM43.831,0H40.755V-12.8h3.076Zm2.145,0V-12.8H50.1a6.064,6.064,0,0,1,3.05.769,5.406,5.406,0,0,1,2.114,2.171,6.554,6.554,0,0,1,.769,3.142v.589a6.592,6.592,0,0,1-.743,3.151A5.429,5.429,0,0,1,53.2-.8a5.93,5.93,0,0,1-3.01.8Zm3.085-10.415v8.042h1.072a2.4,2.4,0,0,0,2.039-.945,4.63,4.63,0,0,0,.712-2.808V-6.68a4.592,4.592,0,0,0-.712-2.795,2.442,2.442,0,0,0-2.074-.94Zm19.389,4.28a7.546,7.546,0,0,1-.694,3.313A5.132,5.132,0,0,1,65.782-.6a5.494,5.494,0,0,1-2.914.778,5.572,5.572,0,0,1-2.9-.751,5.123,5.123,0,0,1-1.973-2.149,7.329,7.329,0,0,1-.743-3.208v-.721a7.58,7.58,0,0,1,.69-3.318,5.119,5.119,0,0,1,1.978-2.219,5.533,5.533,0,0,1,2.931-.782,5.479,5.479,0,0,1,2.9.773A5.211,5.211,0,0,1,67.733-10a7.362,7.362,0,0,1,.716,3.274Zm-3.138-.536a5.381,5.381,0,0,0-.637-2.9,2.044,2.044,0,0,0-1.824-.989q-2.32,0-2.452,3.48l-.009.94a5.535,5.535,0,0,0,.624,2.892,2.041,2.041,0,0,0,1.854,1.011,2.016,2.016,0,0,0,1.8-.993,5.383,5.383,0,0,0,.642-2.856ZM4.052,20.658V25H.967V12.2H6.073a5.948,5.948,0,0,1,2.6.541,4.074,4.074,0,0,1,1.749,1.538,4.2,4.2,0,0,1,.62,2.263A3.7,3.7,0,0,1,9.7,19.538a5.561,5.561,0,0,1-3.678,1.121Zm0-2.382H6.073a1.906,1.906,0,0,0,1.367-.448,1.665,1.665,0,0,0,.47-1.266,2.059,2.059,0,0,0-.483-1.433,1.712,1.712,0,0,0-1.318-.545H4.052ZM22.72,12.2v8.376a4.814,4.814,0,0,1-.606,2.465,3.929,3.929,0,0,1-1.74,1.586,6.131,6.131,0,0,1-2.681.545,5.3,5.3,0,0,1-3.683-1.213,4.326,4.326,0,0,1-1.371-3.322V12.2h3.1v8.5q.053,2.1,1.951,2.1a1.889,1.889,0,0,0,1.45-.527,2.465,2.465,0,0,0,.492-1.714V12.2Zm6.68,8.271h-1.67V25H24.645V12.2h5.036a5.621,5.621,0,0,1,3.56,1.01,3.421,3.421,0,0,1,1.283,2.853,4.155,4.155,0,0,1-.541,2.213A3.837,3.837,0,0,1,32.291,19.7l2.672,5.167V25h-3.3ZM27.729,18.1h1.951A1.751,1.751,0,0,0,31,17.638a1.788,1.788,0,0,0,.444-1.291,1.809,1.809,0,0,0-.448-1.3,1.735,1.735,0,0,0-1.318-.471H27.729Zm19.494.765a7.546,7.546,0,0,1-.694,3.313A5.132,5.132,0,0,1,44.556,24.4a5.494,5.494,0,0,1-2.914.778,5.572,5.572,0,0,1-2.9-.751,5.123,5.123,0,0,1-1.973-2.149,7.329,7.329,0,0,1-.743-3.208v-.721a7.58,7.58,0,0,1,.69-3.318,5.119,5.119,0,0,1,1.978-2.219,5.854,5.854,0,0,1,5.832-.009A5.211,5.211,0,0,1,46.507,15a7.362,7.362,0,0,1,.716,3.274Zm-3.138-.536a5.381,5.381,0,0,0-.637-2.9,2.044,2.044,0,0,0-1.824-.989q-2.32,0-2.452,3.48l-.009.94a5.535,5.535,0,0,0,.624,2.892,2.041,2.041,0,0,0,1.854,1.011,2.016,2.016,0,0,0,1.8-.993,5.383,5.383,0,0,0,.642-2.856Z" transform="translate(-5209.5 -5046.211)" fill="#f37577"/>
    <path id="Trazado_26392" data-name="Trazado 26392" d="M112.471,5509.789H275.323" transform="translate(-5740 -10663)" fill="none" stroke="#31313c" stroke-width="2"/>
    <path id="Trazado_26394" data-name="Trazado 26394" d="M112.471,5509.789H275.323" transform="translate(-5487 -10550)" fill="none" stroke="#ff8f00" stroke-width="2"/>
    <path id="Trazado_187556" data-name="Trazado 187556" d="M-51.379-5.07a7.053,7.053,0,0,1-2.809-1.363,2.6,2.6,0,0,1-.879-2,2.752,2.752,0,0,1,1.074-2.223,4.269,4.269,0,0,1,2.793-.879,4.66,4.66,0,0,1,2.09.453,3.436,3.436,0,0,1,1.422,1.25,3.2,3.2,0,0,1,.5,1.742h-1.508a2.08,2.08,0,0,0-.656-1.627A2.669,2.669,0,0,0-51.2-10.3a2.732,2.732,0,0,0-1.73.489,1.632,1.632,0,0,0-.621,1.358,1.468,1.468,0,0,0,.59,1.178,5.785,5.785,0,0,0,2.008.88,9.316,9.316,0,0,1,2.219.88A3.367,3.367,0,0,1-47.547-4.4a2.861,2.861,0,0,1,.387,1.508A2.658,2.658,0,0,1-48.238-.676a4.6,4.6,0,0,1-2.883.832,5.347,5.347,0,0,1-2.187-.449,3.681,3.681,0,0,1-1.566-1.23A3,3,0,0,1-55.426-3.3h1.508a1.959,1.959,0,0,0,.762,1.629,3.207,3.207,0,0,0,2.035.6,2.948,2.948,0,0,0,1.82-.484,1.573,1.573,0,0,0,.633-1.32,1.545,1.545,0,0,0-.586-1.293A6.755,6.755,0,0,0-51.379-5.07ZM-40.246,0a3.036,3.036,0,0,1-.2-.891A3.225,3.225,0,0,1-42.855.156a2.984,2.984,0,0,1-2.051-.707,2.287,2.287,0,0,1-.8-1.793,2.39,2.39,0,0,1,1-2.051,4.733,4.733,0,0,1,2.824-.73h1.406v-.664A1.623,1.623,0,0,0-40.926-7a1.821,1.821,0,0,0-1.336-.449,2.107,2.107,0,0,0-1.3.391,1.151,1.151,0,0,0-.523.945h-1.453a2,2,0,0,1,.449-1.223,3.066,3.066,0,0,1,1.219-.934,4.1,4.1,0,0,1,1.691-.344,3.342,3.342,0,0,1,2.289.73,2.635,2.635,0,0,1,.859,2.012v3.891a4.757,4.757,0,0,0,.3,1.852V0Zm-2.4-1.1a2.54,2.54,0,0,0,1.289-.352,2.127,2.127,0,0,0,.883-.914V-4.1h-1.133q-2.656,0-2.656,1.555a1.316,1.316,0,0,0,.453,1.063A1.742,1.742,0,0,0-42.645-1.1ZM-35.191,0h-1.445V-12h1.445Zm3.883,0h-1.445V-8.453h1.445Zm-1.562-10.7a.863.863,0,0,1,.215-.594.807.807,0,0,1,.637-.242.819.819,0,0,1,.641.242.854.854,0,0,1,.219.594.826.826,0,0,1-.219.586.834.834,0,0,1-.641.234.821.821,0,0,1-.637-.234A.834.834,0,0,1-32.871-10.7Zm3.523,6.4a4.952,4.952,0,0,1,.922-3.129,2.915,2.915,0,0,1,2.414-1.184A2.932,2.932,0,0,1-23.66-7.594V-12h1.445V0h-1.328l-.07-.906A2.943,2.943,0,0,1-26.027.156a2.887,2.887,0,0,1-2.395-1.2,5.008,5.008,0,0,1-.926-3.141Zm1.445.164a3.749,3.749,0,0,0,.594,2.25,1.92,1.92,0,0,0,1.641.813A2.108,2.108,0,0,0-23.66-2.3V-6.187a2.125,2.125,0,0,0-1.992-1.2,1.929,1.929,0,0,0-1.656.82A4.128,4.128,0,0,0-27.9-4.133ZM-14.754,0a3.036,3.036,0,0,1-.2-.891A3.225,3.225,0,0,1-17.363.156a2.984,2.984,0,0,1-2.051-.707,2.287,2.287,0,0,1-.8-1.793,2.39,2.39,0,0,1,1-2.051,4.733,4.733,0,0,1,2.824-.73h1.406v-.664A1.623,1.623,0,0,0-15.434-7a1.821,1.821,0,0,0-1.336-.449,2.108,2.108,0,0,0-1.3.391,1.151,1.151,0,0,0-.523.945h-1.453a2,2,0,0,1,.449-1.223,3.066,3.066,0,0,1,1.219-.934,4.1,4.1,0,0,1,1.691-.344,3.342,3.342,0,0,1,2.289.73,2.635,2.635,0,0,1,.859,2.012v3.891a4.757,4.757,0,0,0,.3,1.852V0Zm-2.4-1.1a2.54,2.54,0,0,0,1.289-.352,2.127,2.127,0,0,0,.883-.914V-4.1h-1.133q-2.656,0-2.656,1.555a1.316,1.316,0,0,0,.453,1.063A1.742,1.742,0,0,0-17.152-1.1ZM-.8-2.977H-5.566L-6.637,0H-8.184L-3.84-11.375h1.313L1.824,0H.285ZM-5.113-4.2h3.867l-1.937-5.32Zm7.9-.094A4.968,4.968,0,0,1,3.7-7.441,2.923,2.923,0,0,1,6.121-8.609,2.908,2.908,0,0,1,8.535-7.516l.07-.937h1.32V-.2a3.439,3.439,0,0,1-.973,2.586,3.589,3.589,0,0,1-2.613.945,4.348,4.348,0,0,1-1.789-.391,3.08,3.08,0,0,1-1.336-1.07L3.965,1A2.826,2.826,0,0,0,6.238,2.148a2.214,2.214,0,0,0,1.645-.594,2.269,2.269,0,0,0,.59-1.672V-.844a2.971,2.971,0,0,1-2.367,1,2.887,2.887,0,0,1-2.4-1.2A5.224,5.224,0,0,1,2.785-4.3Zm1.453.164a3.79,3.79,0,0,0,.586,2.246,1.9,1.9,0,0,0,1.641.816A2.117,2.117,0,0,0,8.473-2.312V-6.172A2.142,2.142,0,0,0,6.48-7.383a1.921,1.921,0,0,0-1.648.82A4.128,4.128,0,0,0,4.238-4.133Zm13.086,3.3a3.07,3.07,0,0,1-2.477.992,2.628,2.628,0,0,1-2.059-.785,3.4,3.4,0,0,1-.715-2.324v-5.5H13.52v5.461q0,1.922,1.563,1.922a2.163,2.163,0,0,0,2.2-1.234V-8.453H18.73V0H17.355ZM26.145,0a3.036,3.036,0,0,1-.2-.891A3.225,3.225,0,0,1,23.535.156a2.984,2.984,0,0,1-2.051-.707,2.287,2.287,0,0,1-.8-1.793,2.39,2.39,0,0,1,1-2.051,4.733,4.733,0,0,1,2.824-.73h1.406v-.664A1.623,1.623,0,0,0,25.465-7a1.821,1.821,0,0,0-1.336-.449,2.108,2.108,0,0,0-1.3.391,1.151,1.151,0,0,0-.523.945H20.855A2,2,0,0,1,21.3-7.332a3.066,3.066,0,0,1,1.219-.934,4.1,4.1,0,0,1,1.691-.344,3.342,3.342,0,0,1,2.289.73,2.635,2.635,0,0,1,.859,2.012v3.891a4.757,4.757,0,0,0,.3,1.852V0Zm-2.4-1.1a2.54,2.54,0,0,0,1.289-.352,2.127,2.127,0,0,0,.883-.914V-4.1H24.785q-2.656,0-2.656,1.555a1.316,1.316,0,0,0,.453,1.063A1.742,1.742,0,0,0,23.746-1.1ZM34.3,0V-7.336H32.965V-8.453H34.3V-9.32a2.878,2.878,0,0,1,.727-2.1,2.745,2.745,0,0,1,2.055-.742,3.816,3.816,0,0,1,.992.132L38-10.867a4.151,4.151,0,0,0-.781-.07,1.41,1.41,0,0,0-1.086.411,1.669,1.669,0,0,0-.383,1.18v.893h1.8v1.117h-1.8V0Zm8.93-7.156a4.331,4.331,0,0,0-.711-.055A1.9,1.9,0,0,0,40.59-6V0H39.145V-8.453h1.406l.023.977A2.251,2.251,0,0,1,42.59-8.609a1.477,1.477,0,0,1,.641.109ZM46.129,0H44.684V-8.453h1.445ZM44.566-10.7a.863.863,0,0,1,.215-.594.807.807,0,0,1,.637-.242.819.819,0,0,1,.641.242.854.854,0,0,1,.219.594.826.826,0,0,1-.219.586.834.834,0,0,1-.641.234.821.821,0,0,1-.637-.234A.834.834,0,0,1,44.566-10.7ZM53.66,0a3.036,3.036,0,0,1-.2-.891A3.225,3.225,0,0,1,51.051.156,2.984,2.984,0,0,1,49-.551a2.287,2.287,0,0,1-.8-1.793,2.39,2.39,0,0,1,1-2.051,4.733,4.733,0,0,1,2.824-.73h1.406v-.664A1.623,1.623,0,0,0,52.98-7a1.821,1.821,0,0,0-1.336-.449,2.107,2.107,0,0,0-1.3.391,1.151,1.151,0,0,0-.523.945H48.371a2,2,0,0,1,.449-1.223,3.066,3.066,0,0,1,1.219-.934,4.1,4.1,0,0,1,1.691-.344,3.342,3.342,0,0,1,2.289.73,2.635,2.635,0,0,1,.859,2.012v3.891a4.757,4.757,0,0,0,.3,1.852V0Zm-2.4-1.1a2.54,2.54,0,0,0,1.289-.352,2.127,2.127,0,0,0,.883-.914V-4.1H52.3q-2.656,0-2.656,1.555A1.316,1.316,0,0,0,50.1-1.484,1.742,1.742,0,0,0,51.262-1.1Z" transform="translate(-5269 -5220.098)" fill="#12263f"/>
    <path id="Trazado_187557" data-name="Trazado 187557" d="M-53.8-5.258h-4.93v4.031H-53V0h-7.227V-11.375h7.148v1.227h-5.648v3.664h4.93Zm3.8-3.2.047,1.063a3.08,3.08,0,0,1,2.531-1.219q2.68,0,2.7,3.023V0h-1.445V-5.594a1.946,1.946,0,0,0-.418-1.352,1.675,1.675,0,0,0-1.277-.437,2.086,2.086,0,0,0-1.234.375,2.546,2.546,0,0,0-.828.984V0h-1.445V-8.453ZM-40.57-10.5v2.047h1.578v1.117H-40.57v5.249a1.173,1.173,0,0,0,.211.763.888.888,0,0,0,.719.254,3.5,3.5,0,0,0,.688-.094V0a4.215,4.215,0,0,1-1.109.155A1.8,1.8,0,0,1-41.523-.43a2.517,2.517,0,0,1-.492-1.664V-7.336h-1.539V-8.453h1.539V-10.5Zm7.352,3.344a4.331,4.331,0,0,0-.711-.055A1.9,1.9,0,0,0-35.859-6V0H-37.3V-8.453H-35.9l.023.977a2.251,2.251,0,0,1,2.016-1.133,1.477,1.477,0,0,1,.641.109ZM-26.984,0a3.036,3.036,0,0,1-.2-.891A3.225,3.225,0,0,1-29.594.156a2.984,2.984,0,0,1-2.051-.707,2.287,2.287,0,0,1-.8-1.793,2.39,2.39,0,0,1,1-2.051,4.733,4.733,0,0,1,2.824-.73h1.406v-.664A1.623,1.623,0,0,0-27.664-7,1.821,1.821,0,0,0-29-7.445a2.108,2.108,0,0,0-1.3.391,1.151,1.151,0,0,0-.523.945h-1.453a2,2,0,0,1,.449-1.223,3.066,3.066,0,0,1,1.219-.934,4.1,4.1,0,0,1,1.691-.344,3.342,3.342,0,0,1,2.289.73,2.635,2.635,0,0,1,.859,2.012v3.891a4.757,4.757,0,0,0,.3,1.852V0Zm-2.4-1.1a2.54,2.54,0,0,0,1.289-.352,2.127,2.127,0,0,0,.883-.914V-4.1h-1.133Q-31-4.1-31-2.547a1.316,1.316,0,0,0,.453,1.063A1.742,1.742,0,0,0-29.383-1.1Zm5.531-3.2a4.952,4.952,0,0,1,.922-3.129,2.915,2.915,0,0,1,2.414-1.184,2.932,2.932,0,0,1,2.352,1.016V-12h1.445V0h-1.328l-.07-.906A2.943,2.943,0,0,1-20.531.156a2.887,2.887,0,0,1-2.395-1.2,5.008,5.008,0,0,1-.926-3.141Zm1.445.164a3.749,3.749,0,0,0,.594,2.25,1.92,1.92,0,0,0,1.641.813A2.108,2.108,0,0,0-18.164-2.3V-6.187a2.125,2.125,0,0,0-1.992-1.2,1.929,1.929,0,0,0-1.656.82A4.128,4.128,0,0,0-22.406-4.133ZM-9.258,0a3.036,3.036,0,0,1-.2-.891A3.225,3.225,0,0,1-11.867.156a2.984,2.984,0,0,1-2.051-.707,2.287,2.287,0,0,1-.8-1.793,2.39,2.39,0,0,1,1-2.051,4.733,4.733,0,0,1,2.824-.73h1.406v-.664A1.623,1.623,0,0,0-9.937-7a1.821,1.821,0,0,0-1.336-.449,2.107,2.107,0,0,0-1.3.391,1.151,1.151,0,0,0-.523.945h-1.453A2,2,0,0,1-14.1-7.332a3.066,3.066,0,0,1,1.219-.934,4.1,4.1,0,0,1,1.691-.344,3.342,3.342,0,0,1,2.289.73,2.635,2.635,0,0,1,.859,2.012v3.891a4.757,4.757,0,0,0,.3,1.852V0Zm-2.4-1.1a2.54,2.54,0,0,0,1.289-.352,2.127,2.127,0,0,0,.883-.914V-4.1h-1.133q-2.656,0-2.656,1.555a1.316,1.316,0,0,0,.453,1.063A1.742,1.742,0,0,0-11.656-1.1ZM4.7-2.977H-.07L-1.141,0H-2.687L1.656-11.375H2.969L7.32,0H5.781ZM.383-4.2H4.25L2.313-9.523Zm7.9-.094A4.968,4.968,0,0,1,9.2-7.441a2.923,2.923,0,0,1,2.422-1.168,2.908,2.908,0,0,1,2.414,1.094l.07-.937h1.32V-.2a3.439,3.439,0,0,1-.973,2.586,3.589,3.589,0,0,1-2.613.945,4.348,4.348,0,0,1-1.789-.391,3.08,3.08,0,0,1-1.336-1.07L9.461,1a2.826,2.826,0,0,0,2.273,1.148,2.214,2.214,0,0,0,1.645-.594,2.269,2.269,0,0,0,.59-1.672V-.844a2.971,2.971,0,0,1-2.367,1,2.887,2.887,0,0,1-2.4-1.2A5.224,5.224,0,0,1,8.281-4.3Zm1.453.164a3.79,3.79,0,0,0,.586,2.246,1.9,1.9,0,0,0,1.641.816,2.117,2.117,0,0,0,2.008-1.242V-6.172a2.142,2.142,0,0,0-1.992-1.211,1.921,1.921,0,0,0-1.648.82A4.128,4.128,0,0,0,9.734-4.133ZM22.82-.836a3.07,3.07,0,0,1-2.477.992,2.628,2.628,0,0,1-2.059-.785,3.4,3.4,0,0,1-.715-2.324v-5.5h1.445v5.461q0,1.922,1.563,1.922a2.163,2.163,0,0,0,2.2-1.234V-8.453h1.445V0H22.852ZM31.641,0a3.036,3.036,0,0,1-.2-.891A3.225,3.225,0,0,1,29.031.156,2.984,2.984,0,0,1,26.98-.551a2.287,2.287,0,0,1-.8-1.793,2.39,2.39,0,0,1,1-2.051,4.733,4.733,0,0,1,2.824-.73h1.406v-.664A1.623,1.623,0,0,0,30.961-7a1.821,1.821,0,0,0-1.336-.449,2.108,2.108,0,0,0-1.3.391,1.151,1.151,0,0,0-.523.945H26.352A2,2,0,0,1,26.8-7.332a3.066,3.066,0,0,1,1.219-.934,4.1,4.1,0,0,1,1.691-.344A3.342,3.342,0,0,1,32-7.879a2.635,2.635,0,0,1,.859,2.012v3.891a4.757,4.757,0,0,0,.3,1.852V0Zm-2.4-1.1a2.54,2.54,0,0,0,1.289-.352,2.127,2.127,0,0,0,.883-.914V-4.1H30.281q-2.656,0-2.656,1.555a1.316,1.316,0,0,0,.453,1.063A1.742,1.742,0,0,0,29.242-1.1ZM39.8,0V-7.336H38.461V-8.453H39.8V-9.32a2.878,2.878,0,0,1,.727-2.1,2.745,2.745,0,0,1,2.055-.742,3.816,3.816,0,0,1,.992.132l-.078,1.165a4.151,4.151,0,0,0-.781-.07,1.41,1.41,0,0,0-1.086.411,1.669,1.669,0,0,0-.383,1.18v.893h1.8v1.117h-1.8V0Zm8.93-7.156a4.331,4.331,0,0,0-.711-.055A1.9,1.9,0,0,0,46.086-6V0H44.641V-8.453h1.406l.023.977a2.251,2.251,0,0,1,2.016-1.133,1.477,1.477,0,0,1,.641.109ZM51.625,0H50.18V-8.453h1.445ZM50.063-10.7a.863.863,0,0,1,.215-.594.807.807,0,0,1,.637-.242.819.819,0,0,1,.641.242.854.854,0,0,1,.219.594.826.826,0,0,1-.219.586.834.834,0,0,1-.641.234.821.821,0,0,1-.637-.234A.834.834,0,0,1,50.063-10.7ZM59.156,0a3.036,3.036,0,0,1-.2-.891A3.225,3.225,0,0,1,56.547.156,2.984,2.984,0,0,1,54.5-.551a2.287,2.287,0,0,1-.8-1.793,2.39,2.39,0,0,1,1-2.051,4.733,4.733,0,0,1,2.824-.73H58.93v-.664A1.623,1.623,0,0,0,58.477-7a1.821,1.821,0,0,0-1.336-.449,2.107,2.107,0,0,0-1.3.391,1.151,1.151,0,0,0-.523.945H53.867a2,2,0,0,1,.449-1.223,3.066,3.066,0,0,1,1.219-.934,4.1,4.1,0,0,1,1.691-.344,3.342,3.342,0,0,1,2.289.73,2.635,2.635,0,0,1,.859,2.012v3.891a4.757,4.757,0,0,0,.3,1.852V0Zm-2.4-1.1a2.54,2.54,0,0,0,1.289-.352,2.127,2.127,0,0,0,.883-.914V-4.1H57.8q-2.656,0-2.656,1.555a1.316,1.316,0,0,0,.453,1.063A1.742,1.742,0,0,0,56.758-1.1Z" transform="translate(-5264 -5187)" fill="#12263f"/>
    <path id="Trazado_26395" data-name="Trazado 26395" d="M316.779,5456l90.227-18.2" transform="translate(-5740 -10663)" fill="none" stroke="#082143" stroke-width="2"/>
    <path id="Trazado_26396" data-name="Trazado 26396" d="M344.906,5509.789l62.367-34.633" transform="translate(-5740 -10663)" fill="none" stroke="#082143" stroke-width="2"/>
  </g>
</svg>
