<svg xmlns="http://www.w3.org/2000/svg" width="581.5" height="280.583" viewBox="0 0 581.5 280.583"><g transform="translate(5717 5296.793)"><g transform="translate(-6340 -11959)"><g transform="translate(301.098 6493.548)"><g transform="translate(533.902 168.658)"><g transform="translate(1.101 0)"><path d="M1041.008,693.684c0,2.006.954,3.092,2.327,3.092s2.327-1.086,2.327-3.092-2.327-5.073-2.327-5.073S1041.008,691.678,1041.008,693.684Z" transform="translate(-902.074 -545.028)" fill="#be1e2d"/><g transform="translate(18.543 137.497)"><path d="M670.52,673.192c0-2.056-1.359-3.723-3.035-3.723h-.023a2.96,2.96,0,0,0-2.675-2.9c-1.49,0-2.7,1.482-2.7,3.309,0,.122.006.243.017.361a4.181,4.181,0,0,0-2.209,3.878A4.647,4.647,0,0,0,660.85,677a4.168,4.168,0,0,0-2.807,4.206,4.8,4.8,0,0,0,1.041,3.053,4.357,4.357,0,0,0-1.041,2.893,4.057,4.057,0,0,0,1.861,3.564,2.54,2.54,0,0,0,2.27,2.64,2.574,2.574,0,0,0,2.277-2.792,3.239,3.239,0,0,0-.383-1.549,4.724,4.724,0,0,0,0-3.723,2.459,2.459,0,0,0,.971.2,2.822,2.822,0,0,0,2.388-1.5,5.348,5.348,0,0,0,2.08-4.394,5.828,5.828,0,0,0-.808-3A3.825,3.825,0,0,0,670.52,673.192Z" transform="translate(-643.406 -666.574)" fill="#f1f2f2" opacity="0.29"/><path d="M611.977,742.011a1.839,1.839,0,0,0-1.687-1.961h-.013a1.6,1.6,0,0,0-1.487-1.526,1.635,1.635,0,0,0-1.5,1.743c0,.064,0,.128.009.19a2.186,2.186,0,0,0-1.228,2.043,2.364,2.364,0,0,0,.529,1.515,2.2,2.2,0,0,0-1.56,2.216,2.446,2.446,0,0,0,.579,1.608,2.224,2.224,0,0,0-.579,1.524,2.109,2.109,0,0,0,1.035,1.878,1.366,1.366,0,0,0,1.262,1.391,1.38,1.38,0,0,0,1.266-1.471,1.635,1.635,0,0,0-.213-.816,2.368,2.368,0,0,0,0-1.961,1.431,1.431,0,0,0,.54.108,1.58,1.58,0,0,0,1.328-.79,2.765,2.765,0,0,0,1.156-2.314,2.95,2.95,0,0,0-.449-1.581A1.992,1.992,0,0,0,611.977,742.011Z" transform="translate(-605.04 -718.656)" fill="#f1f2f2" opacity="0.29"/><path d="M752.2,762.358a1.475,1.475,0,0,0-1.475-1.475h-.011a1.31,1.31,0,0,0-2.611.163,1.273,1.273,0,0,0,.008.143,1.636,1.636,0,0,0-.611,2.676,1.7,1.7,0,0,0-.858,2.876,1.553,1.553,0,0,0,.4,2.558,1.105,1.105,0,1,0,2.023-.674,1.558,1.558,0,0,0,0-1.475,1.426,1.426,0,0,0,1.633-.513,2,2,0,0,0,.618-2.93A1.474,1.474,0,0,0,752.2,762.358Z" transform="translate(-707.174 -734.01)" fill="#f1f2f2" opacity="0.29"/></g><g transform="translate(0 113.258)"><path d="M584.764,600.019V584.69a3.033,3.033,0,0,0,2.023-2.858h0a3.035,3.035,0,0,0-3.035-3.035H571.387a3.035,3.035,0,0,0-3.035,3.035h0a3.033,3.033,0,0,0,2.023,2.858v15.33a39.68,39.68,0,1,0,14.388,0Z" transform="translate(-537.889 -578.796)" fill="#00aeef" opacity="0.4"/><path d="M613.589,791.691c-3.934,0-3.934,3.372-7.868,3.372s-3.934-3.372-7.867-3.372-3.934,3.372-7.869,3.372-3.934-3.372-7.867-3.372-3.934,3.372-7.868,3.372-3.934-3.372-7.868-3.372-3.934,3.372-7.868,3.372-3.934-3.372-7.868-3.372a5.89,5.89,0,0,0-.884.064,1.628,1.628,0,0,0-1.37,1.61v.012a36.8,36.8,0,0,0,73.561,1.665c-.159.012-.322.021-.5.021C617.523,795.063,617.523,791.691,613.589,791.691Z" transform="translate(-545.491 -732.901)" fill="#be1e2d"/><circle cx="3.316" cy="3.316" r="3.316" transform="translate(23.453 77.057)" fill="#fff" opacity="0.24"/><circle cx="2.751" cy="2.751" r="2.751" transform="translate(42.194 90.016) rotate(-45)" fill="#fff" opacity="0.24"/><path d="M780.235,851.842a1.856,1.856,0,1,0-1.856,1.855A1.855,1.855,0,0,0,780.235,851.842Z" transform="translate(-710.626 -775.098)" fill="#fff" opacity="0.24"/><circle cx="2.062" cy="2.062" r="2.062" transform="translate(30.161 90.016)" fill="#fff" opacity="0.24"/><circle cx="2.062" cy="2.062" r="2.062" transform="translate(12.288 77.547)" fill="#fff" opacity="0.24"/><circle cx="2.062" cy="2.062" r="2.062" transform="translate(9.442 69.019)" fill="#fff" opacity="0.24"/><circle cx="1.74" cy="1.74" r="1.74" transform="translate(51.411 79.609)" fill="#fff" opacity="0.24"/><circle cx="1.74" cy="1.74" r="1.74" transform="translate(58.043 84.891)" fill="#fff" opacity="0.24"/><circle cx="2.3" cy="2.3" r="2.3" transform="translate(36.707 78.073)" fill="#fff" opacity="0.24"/><circle cx="2.165" cy="2.165" r="2.165" transform="translate(56.625 71.966)" fill="#fff" opacity="0.24"/><circle cx="2.027" cy="2.027" r="2.027" transform="translate(45.499 72.69)" fill="#fff" opacity="0.24"/><path d="M616.836,895.033a1.441,1.441,0,1,0-1.441,1.441A1.441,1.441,0,0,0,616.836,895.033Z" transform="translate(-592.949 -806.662)" fill="#fff" opacity="0.24"/><circle cx="1.441" cy="1.441" r="1.441" transform="translate(19.13 71.249)" fill="#fff" opacity="0.24"/><circle cx="2.367" cy="2.367" r="2.367" transform="translate(29.856 69.599)" fill="#fff" opacity="0.24"/></g><g transform="translate(34.084)"><path d="M734.551,573.061l74.393,23.849c-1.507,3.291-4.839,5.133-7.854,4.171l-4.05-1.288-2.671,8.39L782.157,604.3l2.671-8.39-46.308-14.73C735.454,580.2,733.792,576.679,734.551,573.061Z" transform="translate(-714.196 -461.387)" fill="#e27356"/><path d="M820.012,536.263l-74.261-23.8c1.6-3.008,4.758-4.64,7.635-3.726l4.05,1.288,2.668-8.39,12.211,3.885-2.668,8.39,46.308,14.734C818.879,529.572,820.528,532.82,820.012,536.263Z" transform="translate(-722.435 -409.683)" fill="#e27356"/><g transform="translate(3.344)"><rect width="4.44" height="87.488" rx="2.22" fill="#fff" opacity="0.75"/><rect width="1.684" height="59.432" rx="0.842" transform="translate(1.378 27.076)" fill="#ed1c24"/><rect width="0.817" height="0.465" transform="translate(0 83.127)"/><rect width="0.817" height="0.465" transform="translate(0 79.871)"/><rect width="0.817" height="0.465" transform="translate(0 76.615)"/><rect width="0.817" height="0.465" transform="translate(0 73.36)"/><rect width="1.123" height="0.465" transform="translate(0 70.104)" fill="#be1e2d"/><rect width="0.817" height="0.465" transform="translate(0 66.848)"/><rect width="0.817" height="0.465" transform="translate(0 63.592)"/><rect width="0.817" height="0.465" transform="translate(0 60.337)"/><rect width="0.817" height="0.465" transform="translate(0 57.081)"/><rect width="1.123" height="0.465" transform="translate(0 53.825)" fill="#be1e2d"/><rect width="0.817" height="0.465" transform="translate(0 50.57)"/><rect width="0.817" height="0.465" transform="translate(0 47.314)"/><rect width="0.817" height="0.465" transform="translate(0 44.058)"/><rect width="0.817" height="0.465" transform="translate(0 40.803)"/><rect width="1.123" height="0.465" transform="translate(0 37.547)" fill="#be1e2d"/><rect width="0.817" height="0.465" transform="translate(0 34.291)"/><rect width="0.817" height="0.465" transform="translate(0 31.036)"/><rect width="0.817" height="0.465" transform="translate(0 27.78)"/><rect width="0.817" height="0.465" transform="translate(0 24.524)"/><rect width="1.123" height="0.465" transform="translate(0 21.269)" fill="#be1e2d"/><rect width="0.817" height="0.465" transform="translate(0 18.013)"/><rect width="0.817" height="0.465" transform="translate(0 14.757)"/><rect width="0.817" height="0.465" transform="translate(0 11.502)"/><rect width="0.817" height="0.465" transform="translate(0 8.246)"/><rect width="1.123" height="0.465" transform="translate(0 4.99)" fill="#be1e2d"/></g><path d="M764.334,424.31a4.693,4.693,0,0,0-3.244-4.114l-2.2-.7-74.261-23.8-12.187-3.909V379.452l-.563-7.685-2.3-31.453h-5.409l-2.3,31.453-.563,7.685v45.411h11.128V401.628l9.227,2.957,74.393,23.849,2.162.691a4.694,4.694,0,0,0,4.947-1.366,9.979,9.979,0,0,1,5.315,8.734l3.591-.216A13.5,13.5,0,0,0,764.334,424.31Z" transform="translate(-661.318 -292.911)" fill="#00aeef" opacity="0.4"/></g></g><g transform="translate(101.008 158.258)"><path d="M983.595,843.941l-32.142-63.19V747.307a2.72,2.72,0,0,0,2.042-2.754,2.648,2.648,0,0,0-2.465-2.8h-17.7a2.648,2.648,0,0,0-2.465,2.8,2.72,2.72,0,0,0,2.042,2.754v33.444l-32.142,63.19c-3.062,6.021.766,13.547,6.891,13.547H976.7C982.829,857.488,986.657,849.962,983.595,843.941Z" transform="translate(-899.681 -741.755)" fill="#00aeef" opacity="0.4"/><path d="M967.394,1032.828c-4.053,0-4.053-6.745-8.107-6.745s-4.053,6.745-8.106,6.745-4.054-6.745-8.107-6.745-4.053,6.745-8.107,6.745-4.053-6.745-8.107-6.745c-2.815,0-3.675,3.252-5.3,5.239l-10.248,20.147a6.193,6.193,0,0,0,0,5.6,4.81,4.81,0,0,0,4.271,2.8h69.055a4.81,4.81,0,0,0,4.271-2.8,6.191,6.191,0,0,0,0-5.6l-12.891-25.343a3.3,3.3,0,0,0-.522-.044C971.448,1026.083,971.448,1032.828,967.394,1032.828Z" transform="translate(-907.62 -947.567)" fill="#be1e2d"/><path d="M1046.974,828.946c0,2.1,1,3.244,2.442,3.244s2.442-1.139,2.442-3.244-2.442-5.323-2.442-5.323S1046.974,826.841,1046.974,828.946Z" transform="translate(-1006.3 -801.016)" fill="#be1e2d"/><path d="M1037.768,899.225c0,2.044.972,3.15,2.371,3.15s2.371-1.106,2.371-3.15-2.371-5.168-2.371-5.168S1037.768,897.182,1037.768,899.225Z" transform="translate(-999.636 -851.999)" fill="#be1e2d"/><path d="M1047.161,961.3c0,2.373,1.129,3.657,2.753,3.657s2.753-1.284,2.753-3.657-2.753-6-2.753-6S1047.161,958.923,1047.161,961.3Z" transform="translate(-1006.435 -896.327)" fill="#be1e2d"/><path d="M1037.806,769.039c0,2.006.954,3.092,2.327,3.092s2.327-1.086,2.327-3.092-2.327-5.073-2.327-5.073S1037.806,767.033,1037.806,769.039Z" transform="translate(-999.663 -757.833)" fill="#be1e2d"/></g><g transform="translate(0 213.322)"><path d="M627.965,948.427H568.731a1.775,1.775,0,0,1-1.775-1.775h0a1.775,1.775,0,0,1,1.775-1.775h59.234a1.775,1.775,0,0,1,1.775,1.775h0A1.775,1.775,0,0,1,627.965,948.427Z" transform="translate(-557.828 -943.849)" fill="#808285"/><path d="M614.624,942.839h-79.88A.842.842,0,0,1,533.9,942h0a.841.841,0,0,1,.842-.841h79.88a.841.841,0,0,1,.841.841h0A.842.842,0,0,1,614.624,942.839Z" transform="translate(-533.902 -941.156)"/><path d="M565.689,947.716l-2.384-.466-11.523,58.986h2.475Z" transform="translate(-546.845 -945.568)" fill="#808285"/><path d="M763.408,947.251l-2.384.466,11.432,58.52h2.475Z" transform="translate(-698.305 -945.568)" fill="#808285"/></g></g><g transform="translate(561.638 390.679)"><path d="M671.776,990.262a11.858,11.858,0,0,0,.691,2.926c-.035,0-.07-.005-.107-.005h-4.5a.452.452,0,0,0-.082.005,5.4,5.4,0,0,1-.234-1.974c.114-1.551.87-2.063.674-3.48-.11-.793-.378-.85-.438-1.765a15.319,15.319,0,0,1,.231-2.088c.07-1.24-.216-1.39-.124-2.361.1-1.141.512-1.086.746-2.237.4-1.964-.632-3.067.164-3.977.333-.38.649-.353.994-.87a2.708,2.708,0,0,0,.373-1.78,3.442,3.442,0,0,1,.582,2.277,7.32,7.32,0,0,0-.209,1.409,5.4,5.4,0,0,0,.124,1.161c.288,1.432.785,1.6.706,2.443-.047.485-.231.629-.152,1.1a2.425,2.425,0,0,0,.482.974,6.323,6.323,0,0,1,.746,1.824c.179.833-.164,1.29-.455,2.361A10.539,10.539,0,0,0,671.776,990.262Z" transform="translate(-658.363 -972.656)" fill="#f9ed32"/><path d="M673.263,1070.843v12.182a.617.617,0,0,0-.067,0h-4.32a.617.617,0,0,0-.067,0v-12.182Z" transform="translate(-659.29 -1043.729)" fill="#8d6743"/><path d="M673.263,1130.242v4.477h-4.455v-4.477a.617.617,0,0,0,.067,0h4.32A.617.617,0,0,0,673.263,1130.242Z" transform="translate(-659.29 -1086.725)" fill="#8d6743"/><path d="M671.586,1116.053v2.018a1.1,1.1,0,0,1-1.034,1.1.588.588,0,0,1-.067,0h-4.32a.587.587,0,0,1-.067,0,1.1,1.1,0,0,1-1.034-1.1v-2.018a1.1,1.1,0,0,1,1.034-1.1.617.617,0,0,1,.067,0h4.32a.617.617,0,0,1,.067,0A1.1,1.1,0,0,1,671.586,1116.053Z" transform="translate(-656.58 -1075.655)" fill="#675044"/><path d="M671.586,1048v2.207a1.061,1.061,0,0,1-.02.2h-6.483a1.066,1.066,0,0,1-.02-.2V1048a1,1,0,0,1,.927-1,.452.452,0,0,1,.082-.005h4.5c.037,0,.072,0,.107.005A1.01,1.01,0,0,1,671.586,1048Z" transform="translate(-656.58 -1026.462)" fill="#c8ab7a"/><path d="M657.832,1149.126a1.305,1.305,0,0,1-1.305,1.305h-20.88a1.305,1.305,0,0,1,0-2.61h4.917a.769.769,0,0,1-.07-.313v-.306a.749.749,0,0,1,.748-.748h9.689a.749.749,0,0,1,.748.748v.306a.77.77,0,0,1-.07.313h4.917A1.305,1.305,0,0,1,657.832,1149.126Z" transform="translate(-634.342 -1098.46)" fill="#4c4f69"/><path d="M671.447,1022.662a2.538,2.538,0,0,0,0-1.352,8.888,8.888,0,0,1,1.367-4.77c.838-.994-.032-2.515-.186-2.888s.1-.4.547.186,1.223,1.211.572,4.6.683,4.226.683,4.226Z" transform="translate(-661.176 -1002.135)" fill="#be1e2d"/><path d="M671.586,1059.366v2.294a.875.875,0,0,1-.875.875h-4.773a.875.875,0,0,1-.875-.875v-2.294Z" transform="translate(-656.58 -1035.421)" fill="#5c8ba4"/></g></g><text transform="translate(624 6769)" fill="#f37577" font-size="18" font-family="Roboto-Black, Roboto" font-weight="800"><tspan x="0" y="0">EL LÍQUIDO SE </tspan><tspan x="0" y="25">CONVIERTE EN</tspan><tspan x="0" y="50">VAPOR</tspan></text><text transform="translate(624 6881)" fill="#f37577" font-size="18" font-family="Roboto-Black, Roboto" font-weight="800"><tspan x="0" y="0">MEZCLA DE</tspan><tspan x="0" y="25">LÍQUIDOS</tspan></text><text transform="translate(1130.5 6912.789)" fill="#f37577" font-size="18" font-family="Roboto-Black, Roboto" font-weight="800"><tspan x="0" y="0">LÍQUIDO </tspan><tspan x="0" y="25">PURO</tspan></text><path d="M112.471,5509.789H275.323" transform="translate(600 1296)" fill="none" stroke="#31313c" stroke-width="2"/><path d="M112.471,5509.789H275.323" transform="translate(853 1409)" fill="none" stroke="#ff8f00" stroke-width="2"/><text transform="translate(1071 6738.902)" fill="#12263f" font-size="16" font-family="Roboto-Regular, Roboto"><tspan x="-56.051" y="0">Salida Agua fria</tspan></text><text transform="translate(1076 6772)" fill="#12263f" font-size="16" font-family="Roboto-Regular, Roboto"><tspan x="-61.547" y="0">Entrada Agua fria</tspan></text><path d="M316.779,5456l90.227-18.2" transform="translate(600 1296)" fill="none" stroke="#082143" stroke-width="2"/><path d="M344.906,5509.789l62.367-34.633" transform="translate(600 1296)" fill="none" stroke="#082143" stroke-width="2"/></g></g></svg>