<svg xmlns="http://www.w3.org/2000/svg" xmlns:xlink="http://www.w3.org/1999/xlink" width="739.714" height="287.089" viewBox="0 0 739.714 287.089"><defs><linearGradient id="a" x1="0.5" y1="0.984" x2="0.5" y2="-0.272" gradientUnits="objectBoundingBox"><stop offset="0" stop-color="#df8f96"/><stop offset="0.225" stop-color="#d56e78"/><stop offset="0.572" stop-color="#c8434f"/><stop offset="0.842" stop-color="#c02836"/><stop offset="1" stop-color="#be1e2d"/></linearGradient></defs><g transform="translate(4531 5284.339)"><g transform="translate(-5094 -12614.303)"><g transform="translate(657.514 7334.712)"><g transform="translate(293.613 0)"><g transform="translate(111.44 58.498)"><path d="M1029.226,631.755H994.408v3h34.818a1.513,1.513,0,1,0,0-3Z" transform="translate(-994.408 -630.237)" fill="#939598"/><rect width="15.283" height="6.036" rx="3.018" transform="translate(26.947)" fill="#594a42"/></g><g transform="translate(129.374 19.5)"><rect width="53.609" height="213.725" fill="#e0e0e0"/><path d="M1087.509,568.957c-1.214-4.6-2.98-11.3-5.389-11.276-.464,0-.842.329-1.579.979-1.817,1.6-2.518,3.323-3.651,6.482-.862,2.405-1.308,3.605-1.464,4.222-1.187,4.7-1.42,9.226-.312,11.966,1.06,2.824,3.461,3.86,6.443,3.51a7.845,7.845,0,0,0,6.4-5.006C1088.794,577.55,1089.073,574.887,1087.509,568.957Z" transform="translate(-1054.712 -552.002)" fill="#f9ed32"/><path d="M1086.312,652.4a17.633,17.633,0,0,1-2.872-2.622,10.869,10.869,0,0,1-1.657-2.828c.153-.283.306-.586.452-.912a13.618,13.618,0,0,0,.83-2.42,18.017,18.017,0,0,0,.729-7.57c-.2-1.224-.421-2.445-1.318-2.693-.633-.175-1.052.286-2.757.481-1.22.139-1.46-.046-2.158.1a4.426,4.426,0,0,0-2.757,2.212c-1.08,1.872-.386,3.849,1.064,7.715.459,1.222.9,2.215,1.207,2.883a13.332,13.332,0,0,1-1.864,3.3c-1.5,1.955-2.79,2.573-3.883,3.608-3.209,3.038-3.878,8.868-.719,11.639,1.314,1.153,3.208,1.7,5.444,2.353a8.29,8.29,0,0,0,3.429.431,7.2,7.2,0,0,0,2.706-.916,12.558,12.558,0,0,0,5.322-5.715C1088.5,658.977,1088.96,654.808,1086.312,652.4Z" transform="translate(-1051.616 -592.068)" fill="#ed1c24"/><path d="M1085.333,738.263c.778-1.278,5.234-8.6,1.507-11.75-2.388-2.018-7.879-2.1-10.335-.173-2.267,1.782-.321,4-2.584,8.985-1.283,2.827-2.119,2.577-3.445,5.529a17.632,17.632,0,0,0-1.507,8.813c.46,4.475,2.445,4.17,3.66,9.33,1.243,5.28-.421,7.36,2.153,10.194,1.165,1.283,3.46,3.008,5.383,2.592,2.154-.466,2.84-3.4,3.23-5.184,1.03-4.7-.586-6.761-1.723-15.378-.506-3.831-.505-5.842.431-8.121C1083.013,740.886,1083.909,740.6,1085.333,738.263Z" transform="translate(-1051.794 -640.601)" fill="url(#a)"/><path d="M1088.237,857.35c-.314-1.589-1.186-6-3.51-7.53a7,7,0,0,0,2.143-4.319c.144-2.415-1.473-5.332-3.528-5.53-2.519-.244-5.449,3.622-5.825,7.063-.132,1.2-.067,3.416.877,4.551a8.708,8.708,0,0,0-2.758,5.894c.009,5.569,7.947,10.283,11.044,9.187C1089.855,865.543,1088.4,858.153,1088.237,857.35Z" transform="translate(-1055.368 -701.525)" fill="#474b7a"/><path d="M1084.255,928.822c-.756,2.93-1.134,4.4-1.795,4.435-1.284.075-3.224-5.279-3.445-10.453-.11-2.571-.389-9.117,3.445-10.453a6.27,6.27,0,0,1,4.863.532c.814.494,1.838,1.49,1.525,2.289s-1.653.595-2.727,1.383c-1.445,1.059-.617,2.6-.862,6.566A27.754,27.754,0,0,1,1084.255,928.822Z" transform="translate(-1057.13 -739.727)" fill="#262262"/><path d="M1088.546,982.906c.663-1.965-3.217-5.175-7.366-5.283-3.289-.086-7.061,1.77-7.036,3.725.025,2.018,4.09,3.483,7.036,3.724C1083.961,985.3,1087.967,984.621,1088.546,982.906Z" transform="translate(-1054.577 -774.443)" fill="#080828"/></g><g transform="translate(104.662 49.986)"><g transform="translate(0 1.873)"><path d="M1025.827,633.724H986.765a1.951,1.951,0,0,1-1.3-.467c-4.115-3.73-5.922-7.435-5.372-11.012.737-4.787,5.477-7.474,5.678-7.586a2.064,2.064,0,0,1,1-.249h39.062a1.392,1.392,0,1,1,0,2.7H987.372c-.968.66-3.437,2.6-3.866,5.488-.392,2.64.973,5.47,4.059,8.419h38.261a1.392,1.392,0,1,1,0,2.7Z" transform="translate(-979.995 -614.41)" fill="#939598"/></g><rect width="15.283" height="6.036" rx="3.018" transform="translate(33.725)" fill="#594a42"/><rect width="15.283" height="6.037" rx="3.018" transform="translate(33.725 17.024)" fill="#594a42"/></g><path d="M882.041,562.909H814.3V504.143h-9.941v58.766H783.21a4.362,4.362,0,0,0,0,5.5h21.152V771.494H814.3V568.409h67.737Z" transform="translate(-770.579 -504.143)" fill="#603913"/><rect width="194.5" height="22.008" rx="11.004" transform="translate(21.573 260.333)" fill="#3c2415"/><path d="M767.368,596.32c-2.5,0-4.672,3.827-5.791,9.469a1.579,1.579,0,0,0-.48-.078c-2.012,0-3.644,3.928-3.644,8.774s1.631,8.775,3.644,8.775a1.581,1.581,0,0,0,.48-.078c1.119,5.641,3.293,9.469,5.791,9.469,3.643,0,6.6-8.133,6.6-18.165S771.01,596.32,767.368,596.32Z" transform="translate(-757.453 -552.969)" fill="#594a42"/><rect width="32.164" height="19.883" rx="9.942" transform="translate(25.181 51.575)" fill="#594a42"/><g transform="translate(113.587 149.164)"><path d="M1019.707,932.478c-9.409,0-17.065-8.294-17.065-18.489V837.748a11.767,11.767,0,0,0-2.437-7.219,5.927,5.927,0,0,1-.744-5.982,5.106,5.106,0,0,1,4.685-3.239h74.835a5.106,5.106,0,0,1,4.685,3.239,5.928,5.928,0,0,1-.745,5.982,11.768,11.768,0,0,0-2.437,7.219v76.241c0,10.195-7.655,18.489-17.064,18.489Z" transform="translate(-998.973 -821.309)" fill="#7fcae5" opacity="0.5"/><path d="M1012.93,995.1v10.887c0,8.48,6.344,15.354,14.17,15.354h43.714c7.826,0,14.17-6.874,14.17-15.354V995.1Z" transform="translate(-1006.366 -913.365)" fill="#474d9e"/></g><circle cx="11.53" cy="11.53" r="11.53" transform="matrix(0.456, -0.89, 0.89, 0.456, 87.3, 66.528)" fill="#006838"/><g transform="translate(120.893 21.993)"><rect width="17.494" height="0.941"/></g><g transform="translate(101.108 196.255)"><rect width="16.149" height="0.941"/></g><g transform="translate(106.239 225.954)"><rect width="42.702" height="0.941"/></g><g transform="translate(188.628 244.308)"><rect width="17.136" height="0.941"/></g><g transform="translate(158.523 64.593)"><rect width="36.062" height="0.941"/></g></g><g transform="translate(0 0)"><g transform="translate(111.44 58.498)"><path d="M404.919,631.755H370.1v3h34.818a1.513,1.513,0,1,0,0-3Z" transform="translate(-370.101 -630.237)" fill="#939598"/><rect width="15.283" height="6.036" rx="3.018" transform="translate(26.947)" fill="#594a42"/></g><rect width="53.609" height="213.725" transform="translate(129.374 19.5)" fill="#e6e6e6"/><path d="M464.239,982.906c.663-1.965-3.217-5.175-7.366-5.283-3.289-.086-7.062,1.77-7.036,3.725.025,2.018,4.09,3.483,7.036,3.724C459.654,985.3,463.66,984.621,464.239,982.906Z" transform="translate(-300.896 -754.943)"/><g transform="translate(104.662 49.986)"><g transform="translate(0 1.873)"><path d="M401.52,633.724H362.458a1.951,1.951,0,0,1-1.3-.467c-4.115-3.73-5.923-7.435-5.372-11.012.737-4.787,5.477-7.474,5.678-7.586a2.064,2.064,0,0,1,1-.249H401.52a1.392,1.392,0,1,1,0,2.7H363.065c-.968.66-3.437,2.6-3.866,5.488-.392,2.64.973,5.47,4.059,8.419H401.52a1.392,1.392,0,1,1,0,2.7Z" transform="translate(-355.688 -614.41)" fill="#939598"/></g><rect width="15.283" height="6.036" rx="3.018" transform="translate(33.725)" fill="#594a42"/><rect width="15.283" height="6.037" rx="3.018" transform="translate(33.725 17.024)" fill="#594a42"/></g><path d="M257.734,562.909H190V504.143h-9.941v58.766H158.9a4.362,4.362,0,0,0,0,5.5h21.152V771.494H190V568.409h67.737Z" transform="translate(-146.272 -504.143)" fill="#603913"/><rect width="194.5" height="22.008" rx="11.004" transform="translate(21.573 260.333)" fill="#3c2415"/><path d="M143.061,596.32c-2.5,0-4.672,3.827-5.791,9.469a1.578,1.578,0,0,0-.48-.078c-2.012,0-3.644,3.928-3.644,8.774s1.631,8.775,3.644,8.775a1.58,1.58,0,0,0,.48-.078c1.119,5.641,3.293,9.469,5.791,9.469,3.643,0,6.6-8.133,6.6-18.165S146.7,596.32,143.061,596.32Z" transform="translate(-133.146 -552.969)" fill="#594a42"/><rect width="32.164" height="19.883" rx="9.942" transform="translate(25.181 51.575)" fill="#594a42"/><g transform="translate(113.587 149.164)"><path d="M395.4,932.478c-9.409,0-17.064-8.294-17.064-18.489V837.748a11.767,11.767,0,0,0-2.437-7.219,5.927,5.927,0,0,1-.745-5.982,5.106,5.106,0,0,1,4.685-3.239h74.835a5.106,5.106,0,0,1,4.685,3.239,5.927,5.927,0,0,1-.745,5.982,11.768,11.768,0,0,0-2.437,7.219v76.241c0,10.195-7.655,18.489-17.064,18.489Z" transform="translate(-374.666 -821.309)" fill="#7fcae5" opacity="0.5"/><path d="M388.623,995.1v10.887c0,8.48,6.344,15.354,14.17,15.354h43.714c7.826,0,14.17-6.874,14.17-15.354V995.1Z" transform="translate(-382.059 -913.365)" fill="#474d9e"/></g><circle cx="11.53" cy="11.53" r="11.53" transform="translate(86.631 63.493) rotate(-51.964)" fill="#006838"/><g transform="translate(120.893 21.993)"><rect width="17.494" height="0.941"/></g><g transform="translate(101.108 196.255)"><rect width="16.149" height="0.941"/></g><g transform="translate(25.181 225.954)"><rect width="123.76" height="0.941"/></g><g transform="translate(112.238 242.558)"><rect width="22.054" height="0.941"/></g></g><g transform="translate(248.844 44.272)"><path d="M668.505,625.484V774.408H670.6V625.484h6.245l-7.291-27.2-7.291,27.2Z" transform="translate(-662.26 -598.279)"/></g></g><path d="M5.086-1.992l3.25-9.383H9.977L5.758,0H4.43L.219-11.375H1.852ZM16.133,0a3.036,3.036,0,0,1-.2-.891A3.225,3.225,0,0,1,13.523.156a2.984,2.984,0,0,1-2.051-.707,2.287,2.287,0,0,1-.8-1.793,2.39,2.39,0,0,1,1-2.051,4.733,4.733,0,0,1,2.824-.73h1.406v-.664A1.623,1.623,0,0,0,15.453-7a1.821,1.821,0,0,0-1.336-.449,2.107,2.107,0,0,0-1.3.391,1.151,1.151,0,0,0-.523.945H10.844a2,2,0,0,1,.449-1.223,3.066,3.066,0,0,1,1.219-.934A4.1,4.1,0,0,1,14.2-8.609a3.342,3.342,0,0,1,2.289.73,2.635,2.635,0,0,1,.859,2.012v3.891a4.757,4.757,0,0,0,.3,1.852V0Zm-2.4-1.1a2.54,2.54,0,0,0,1.289-.352,2.127,2.127,0,0,0,.883-.914V-4.1H14.773q-2.656,0-2.656,1.555a1.316,1.316,0,0,0,.453,1.063A1.742,1.742,0,0,0,13.734-1.1Zm10.8-1.141a1.064,1.064,0,0,0-.441-.91,4.249,4.249,0,0,0-1.539-.559,7.277,7.277,0,0,1-1.742-.562,2.479,2.479,0,0,1-.953-.781,1.869,1.869,0,0,1-.309-1.078,2.193,2.193,0,0,1,.879-1.758,3.432,3.432,0,0,1,2.246-.719,3.532,3.532,0,0,1,2.332.742,2.357,2.357,0,0,1,.895,1.9H24.453a1.3,1.3,0,0,0-.5-1.023,1.888,1.888,0,0,0-1.27-.43,1.976,1.976,0,0,0-1.234.344,1.082,1.082,0,0,0-.445.9.877.877,0,0,0,.414.789,5.1,5.1,0,0,0,1.5.508,7.8,7.8,0,0,1,1.754.578,2.558,2.558,0,0,1,1,.809,1.988,1.988,0,0,1,.324,1.152,2.163,2.163,0,0,1-.906,1.816,3.8,3.8,0,0,1-2.352.684A4.257,4.257,0,0,1,20.93-.2a2.922,2.922,0,0,1-1.223-1A2.42,2.42,0,0,1,19.266-2.6h1.445a1.5,1.5,0,0,0,.582,1.152,2.258,2.258,0,0,0,1.434.426,2.331,2.331,0,0,0,1.316-.332A1.02,1.02,0,0,0,24.539-2.242ZM27.484-4.3a4.993,4.993,0,0,1,.488-2.234A3.643,3.643,0,0,1,29.332-8.07a3.7,3.7,0,0,1,1.988-.539,3.565,3.565,0,0,1,2.793,1.2,4.6,4.6,0,0,1,1.066,3.18v.1a5.036,5.036,0,0,1-.473,2.215A3.589,3.589,0,0,1,33.355-.391a3.743,3.743,0,0,1-2.02.547,3.556,3.556,0,0,1-2.785-1.2A4.575,4.575,0,0,1,27.484-4.2Zm1.453.172a3.616,3.616,0,0,0,.652,2.258,2.088,2.088,0,0,0,1.746.852,2.075,2.075,0,0,0,1.75-.863A3.955,3.955,0,0,0,33.734-4.3a3.61,3.61,0,0,0-.66-2.254,2.1,2.1,0,0,0-1.754-.863,2.075,2.075,0,0,0-1.727.852A3.925,3.925,0,0,0,28.938-4.133ZM40.6-4.3a4.952,4.952,0,0,1,.922-3.129,2.915,2.915,0,0,1,2.414-1.184,2.932,2.932,0,0,1,2.352,1.016V-12h1.445V0H46.406l-.07-.906A2.943,2.943,0,0,1,43.922.156a2.887,2.887,0,0,1-2.395-1.2A5.008,5.008,0,0,1,40.6-4.187Zm1.445.164a3.749,3.749,0,0,0,.594,2.25,1.92,1.92,0,0,0,1.641.813A2.108,2.108,0,0,0,46.289-2.3V-6.187a2.125,2.125,0,0,0-1.992-1.2,1.929,1.929,0,0,0-1.656.82A4.128,4.128,0,0,0,42.047-4.133ZM53.484.156a3.693,3.693,0,0,1-2.8-1.129,4.19,4.19,0,0,1-1.078-3.02v-.266A5.073,5.073,0,0,1,50.09-6.5a3.748,3.748,0,0,1,1.344-1.547A3.378,3.378,0,0,1,53.3-8.609a3.166,3.166,0,0,1,2.563,1.086,4.7,4.7,0,0,1,.914,3.109v.6H51.055a3,3,0,0,0,.73,2.02,2.3,2.3,0,0,0,1.777.77,2.517,2.517,0,0,0,1.3-.312,3.259,3.259,0,0,0,.93-.828l.883.688A3.55,3.55,0,0,1,53.484.156ZM53.3-7.422a1.928,1.928,0,0,0-1.469.637A3.1,3.1,0,0,0,51.1-5h4.234v-.109a2.753,2.753,0,0,0-.594-1.707A1.815,1.815,0,0,0,53.3-7.422ZM2.664,24H1.219V12H2.664ZM10.2,24a3.036,3.036,0,0,1-.2-.891,3.225,3.225,0,0,1-2.406,1.047,2.984,2.984,0,0,1-2.051-.707,2.287,2.287,0,0,1-.8-1.793,2.39,2.39,0,0,1,1-2.051,4.733,4.733,0,0,1,2.824-.73H9.969v-.664A1.623,1.623,0,0,0,9.516,17a1.821,1.821,0,0,0-1.336-.449,2.108,2.108,0,0,0-1.3.391,1.151,1.151,0,0,0-.523.945H4.906a2,2,0,0,1,.449-1.223,3.066,3.066,0,0,1,1.219-.934,4.1,4.1,0,0,1,1.691-.344,3.342,3.342,0,0,1,2.289.73,2.635,2.635,0,0,1,.859,2.012v3.891a4.757,4.757,0,0,0,.3,1.852V24ZM7.8,22.9a2.54,2.54,0,0,0,1.289-.352,2.127,2.127,0,0,0,.883-.914V19.9H8.836q-2.656,0-2.656,1.555a1.316,1.316,0,0,0,.453,1.063A1.742,1.742,0,0,0,7.8,22.9Zm13.039-3.031a5.026,5.026,0,0,1-.891,3.113,2.846,2.846,0,0,1-2.391,1.176,2.947,2.947,0,0,1-2.477-1.133l-.07.977H13.68V12h1.445v4.477a2.93,2.93,0,0,1,2.414-1.086,2.863,2.863,0,0,1,2.418,1.164,5.177,5.177,0,0,1,.879,3.188ZM19.391,19.7a3.906,3.906,0,0,0-.57-2.281,1.888,1.888,0,0,0-1.641-.8,2.122,2.122,0,0,0-2.055,1.328V21.6A2.181,2.181,0,0,0,17.2,22.93a1.878,1.878,0,0,0,1.617-.8A4.153,4.153,0,0,0,19.391,19.7Zm2.883-.008a4.993,4.993,0,0,1,.488-2.234,3.643,3.643,0,0,1,1.359-1.531,3.7,3.7,0,0,1,1.988-.539,3.565,3.565,0,0,1,2.793,1.2,4.6,4.6,0,0,1,1.066,3.18v.1a5.036,5.036,0,0,1-.473,2.215,3.589,3.589,0,0,1-1.352,1.527,3.743,3.743,0,0,1-2.02.547,3.556,3.556,0,0,1-2.785-1.2A4.575,4.575,0,0,1,22.273,19.8Zm1.453.172a3.616,3.616,0,0,0,.652,2.258,2.211,2.211,0,0,0,3.5-.012,3.955,3.955,0,0,0,.648-2.418,3.61,3.61,0,0,0-.66-2.254,2.1,2.1,0,0,0-1.754-.863,2.075,2.075,0,0,0-1.727.852A3.925,3.925,0,0,0,23.727,19.867Zm12.141-3.023a4.331,4.331,0,0,0-.711-.055A1.9,1.9,0,0,0,33.227,18v6H31.781V15.547h1.406l.023.977a2.251,2.251,0,0,1,2.016-1.133,1.477,1.477,0,0,1,.641.109ZM42.1,24a3.036,3.036,0,0,1-.2-.891,3.225,3.225,0,0,1-2.406,1.047,2.984,2.984,0,0,1-2.051-.707,2.287,2.287,0,0,1-.8-1.793,2.39,2.39,0,0,1,1-2.051,4.733,4.733,0,0,1,2.824-.73h1.406v-.664A1.623,1.623,0,0,0,41.422,17a1.821,1.821,0,0,0-1.336-.449,2.107,2.107,0,0,0-1.3.391,1.151,1.151,0,0,0-.523.945H36.813a2,2,0,0,1,.449-1.223,3.066,3.066,0,0,1,1.219-.934,4.1,4.1,0,0,1,1.691-.344,3.342,3.342,0,0,1,2.289.73,2.635,2.635,0,0,1,.859,2.012v3.891a4.757,4.757,0,0,0,.3,1.852V24Zm-2.4-1.1a2.54,2.54,0,0,0,1.289-.352,2.127,2.127,0,0,0,.883-.914V19.9H40.742q-2.656,0-2.656,1.555a1.316,1.316,0,0,0,.453,1.063A1.742,1.742,0,0,0,39.7,22.9Zm7.844-9.4v2.047h1.578v1.117H47.547v5.249a1.173,1.173,0,0,0,.211.763.888.888,0,0,0,.719.254,3.5,3.5,0,0,0,.688-.094V24a4.215,4.215,0,0,1-1.109.155,1.8,1.8,0,0,1-1.461-.586,2.517,2.517,0,0,1-.492-1.664V16.664H44.563V15.547H46.1V13.5Zm2.727,6.2a4.993,4.993,0,0,1,.488-2.234,3.643,3.643,0,0,1,1.359-1.531,3.7,3.7,0,0,1,1.988-.539,3.565,3.565,0,0,1,2.793,1.2,4.6,4.6,0,0,1,1.066,3.18v.1a5.036,5.036,0,0,1-.473,2.215,3.589,3.589,0,0,1-1.352,1.527,3.743,3.743,0,0,1-2.02.547,3.556,3.556,0,0,1-2.785-1.2A4.575,4.575,0,0,1,50.273,19.8Zm1.453.172a3.616,3.616,0,0,0,.652,2.258,2.211,2.211,0,0,0,3.5-.012,3.955,3.955,0,0,0,.648-2.418,3.61,3.61,0,0,0-.66-2.254,2.1,2.1,0,0,0-1.754-.863,2.075,2.075,0,0,0-1.727.852A3.925,3.925,0,0,0,51.727,19.867Zm12.141-3.023a4.331,4.331,0,0,0-.711-.055A1.9,1.9,0,0,0,61.227,18v6H59.781V15.547h1.406l.023.977a2.251,2.251,0,0,1,2.016-1.133,1.477,1.477,0,0,1,.641.109ZM66.766,24H65.32V15.547h1.445ZM65.2,13.3a.863.863,0,0,1,.215-.594.807.807,0,0,1,.637-.242.819.819,0,0,1,.641.242.854.854,0,0,1,.219.594.826.826,0,0,1-.219.586.834.834,0,0,1-.641.234.821.821,0,0,1-.637-.234A.834.834,0,0,1,65.2,13.3ZM68.7,19.7a4.993,4.993,0,0,1,.488-2.234,3.643,3.643,0,0,1,1.359-1.531,3.7,3.7,0,0,1,1.988-.539,3.565,3.565,0,0,1,2.793,1.2,4.6,4.6,0,0,1,1.066,3.18v.1a5.036,5.036,0,0,1-.473,2.215,3.589,3.589,0,0,1-1.352,1.527,3.743,3.743,0,0,1-2.02.547,3.556,3.556,0,0,1-2.785-1.2A4.575,4.575,0,0,1,68.7,19.8Zm1.453.172a3.616,3.616,0,0,0,.652,2.258,2.211,2.211,0,0,0,3.5-.012,3.955,3.955,0,0,0,.648-2.418,3.61,3.61,0,0,0-.66-2.254,2.1,2.1,0,0,0-1.754-.863,2.075,2.075,0,0,0-1.727.852A3.925,3.925,0,0,0,70.148,19.867Z" transform="translate(706.521 7498.241)" fill="#12263f"/><text transform="translate(563 7564.872)" fill="#12263f" font-size="16" font-family="Roboto-Regular, Roboto"><tspan x="0" y="0">Mancha de tinta</tspan></text><text transform="translate(706.521 7581.499)" fill="#12263f" font-size="16" font-family="Roboto-Regular, Roboto"><tspan x="0" y="0">Solvente</tspan></text><text transform="translate(891.174 7574.498)" fill="#12263f" font-size="16" font-family="Roboto-Regular, Roboto"><tspan x="0" y="0">Agua</tspan></text><text transform="translate(707.396 7349.589)" fill="#12263f" font-size="16" font-family="Roboto-Regular, Roboto"><tspan x="0" y="0">Papel de filtro</tspan></text><text transform="translate(1008.441 7346.964)" fill="#12263f" font-size="16" font-family="Roboto-Regular, Roboto"><tspan x="0" y="0">Papel de filtro</tspan></text><text transform="translate(1148.714 7353.589)" fill="#12263f" font-size="16" font-family="Roboto-Regular, Roboto"><tspan x="0" y="17">Los pigmentos </tspan><tspan x="0" y="41">individuales viajan a </tspan><tspan x="0" y="65">diferentes distancias </tspan><tspan x="0" y="89">hacia arriba del papel</tspan></text><path d="M5.086-1.992l3.25-9.383H9.977L5.758,0H4.43L.219-11.375H1.852ZM16.133,0a3.036,3.036,0,0,1-.2-.891A3.225,3.225,0,0,1,13.523.156a2.984,2.984,0,0,1-2.051-.707,2.287,2.287,0,0,1-.8-1.793,2.39,2.39,0,0,1,1-2.051,4.733,4.733,0,0,1,2.824-.73h1.406v-.664A1.623,1.623,0,0,0,15.453-7a1.821,1.821,0,0,0-1.336-.449,2.107,2.107,0,0,0-1.3.391,1.151,1.151,0,0,0-.523.945H10.844a2,2,0,0,1,.449-1.223,3.066,3.066,0,0,1,1.219-.934A4.1,4.1,0,0,1,14.2-8.609a3.342,3.342,0,0,1,2.289.73,2.635,2.635,0,0,1,.859,2.012v3.891a4.757,4.757,0,0,0,.3,1.852V0Zm-2.4-1.1a2.54,2.54,0,0,0,1.289-.352,2.127,2.127,0,0,0,.883-.914V-4.1H14.773q-2.656,0-2.656,1.555a1.316,1.316,0,0,0,.453,1.063A1.742,1.742,0,0,0,13.734-1.1Zm10.8-1.141a1.064,1.064,0,0,0-.441-.91,4.249,4.249,0,0,0-1.539-.559,7.277,7.277,0,0,1-1.742-.562,2.479,2.479,0,0,1-.953-.781,1.869,1.869,0,0,1-.309-1.078,2.193,2.193,0,0,1,.879-1.758,3.432,3.432,0,0,1,2.246-.719,3.532,3.532,0,0,1,2.332.742,2.357,2.357,0,0,1,.895,1.9H24.453a1.3,1.3,0,0,0-.5-1.023,1.888,1.888,0,0,0-1.27-.43,1.976,1.976,0,0,0-1.234.344,1.082,1.082,0,0,0-.445.9.877.877,0,0,0,.414.789,5.1,5.1,0,0,0,1.5.508,7.8,7.8,0,0,1,1.754.578,2.558,2.558,0,0,1,1,.809,1.988,1.988,0,0,1,.324,1.152,2.163,2.163,0,0,1-.906,1.816,3.8,3.8,0,0,1-2.352.684A4.257,4.257,0,0,1,20.93-.2a2.922,2.922,0,0,1-1.223-1A2.42,2.42,0,0,1,19.266-2.6h1.445a1.5,1.5,0,0,0,.582,1.152,2.258,2.258,0,0,0,1.434.426,2.331,2.331,0,0,0,1.316-.332A1.02,1.02,0,0,0,24.539-2.242ZM27.484-4.3a4.993,4.993,0,0,1,.488-2.234A3.643,3.643,0,0,1,29.332-8.07a3.7,3.7,0,0,1,1.988-.539,3.565,3.565,0,0,1,2.793,1.2,4.6,4.6,0,0,1,1.066,3.18v.1a5.036,5.036,0,0,1-.473,2.215A3.589,3.589,0,0,1,33.355-.391a3.743,3.743,0,0,1-2.02.547,3.556,3.556,0,0,1-2.785-1.2A4.575,4.575,0,0,1,27.484-4.2Zm1.453.172a3.616,3.616,0,0,0,.652,2.258,2.088,2.088,0,0,0,1.746.852,2.075,2.075,0,0,0,1.75-.863A3.955,3.955,0,0,0,33.734-4.3a3.61,3.61,0,0,0-.66-2.254,2.1,2.1,0,0,0-1.754-.863,2.075,2.075,0,0,0-1.727.852A3.925,3.925,0,0,0,28.938-4.133ZM40.6-4.3a4.952,4.952,0,0,1,.922-3.129,2.915,2.915,0,0,1,2.414-1.184,2.932,2.932,0,0,1,2.352,1.016V-12h1.445V0H46.406l-.07-.906A2.943,2.943,0,0,1,43.922.156a2.887,2.887,0,0,1-2.395-1.2A5.008,5.008,0,0,1,40.6-4.187Zm1.445.164a3.749,3.749,0,0,0,.594,2.25,1.92,1.92,0,0,0,1.641.813A2.108,2.108,0,0,0,46.289-2.3V-6.187a2.125,2.125,0,0,0-1.992-1.2,1.929,1.929,0,0,0-1.656.82A4.128,4.128,0,0,0,42.047-4.133ZM53.484.156a3.693,3.693,0,0,1-2.8-1.129,4.19,4.19,0,0,1-1.078-3.02v-.266A5.073,5.073,0,0,1,50.09-6.5a3.748,3.748,0,0,1,1.344-1.547A3.378,3.378,0,0,1,53.3-8.609a3.166,3.166,0,0,1,2.563,1.086,4.7,4.7,0,0,1,.914,3.109v.6H51.055a3,3,0,0,0,.73,2.02,2.3,2.3,0,0,0,1.777.77,2.517,2.517,0,0,0,1.3-.312,3.259,3.259,0,0,0,.93-.828l.883.688A3.55,3.55,0,0,1,53.484.156ZM53.3-7.422a1.928,1.928,0,0,0-1.469.637A3.1,3.1,0,0,0,51.1-5h4.234v-.109a2.753,2.753,0,0,0-.594-1.707A1.815,1.815,0,0,0,53.3-7.422ZM2.664,24H1.219V12H2.664ZM10.2,24a3.036,3.036,0,0,1-.2-.891,3.225,3.225,0,0,1-2.406,1.047,2.984,2.984,0,0,1-2.051-.707,2.287,2.287,0,0,1-.8-1.793,2.39,2.39,0,0,1,1-2.051,4.733,4.733,0,0,1,2.824-.73H9.969v-.664A1.623,1.623,0,0,0,9.516,17a1.821,1.821,0,0,0-1.336-.449,2.108,2.108,0,0,0-1.3.391,1.151,1.151,0,0,0-.523.945H4.906a2,2,0,0,1,.449-1.223,3.066,3.066,0,0,1,1.219-.934,4.1,4.1,0,0,1,1.691-.344,3.342,3.342,0,0,1,2.289.73,2.635,2.635,0,0,1,.859,2.012v3.891a4.757,4.757,0,0,0,.3,1.852V24ZM7.8,22.9a2.54,2.54,0,0,0,1.289-.352,2.127,2.127,0,0,0,.883-.914V19.9H8.836q-2.656,0-2.656,1.555a1.316,1.316,0,0,0,.453,1.063A1.742,1.742,0,0,0,7.8,22.9Zm13.039-3.031a5.026,5.026,0,0,1-.891,3.113,2.846,2.846,0,0,1-2.391,1.176,2.947,2.947,0,0,1-2.477-1.133l-.07.977H13.68V12h1.445v4.477a2.93,2.93,0,0,1,2.414-1.086,2.863,2.863,0,0,1,2.418,1.164,5.177,5.177,0,0,1,.879,3.188ZM19.391,19.7a3.906,3.906,0,0,0-.57-2.281,1.888,1.888,0,0,0-1.641-.8,2.122,2.122,0,0,0-2.055,1.328V21.6A2.181,2.181,0,0,0,17.2,22.93a1.878,1.878,0,0,0,1.617-.8A4.153,4.153,0,0,0,19.391,19.7Zm2.883-.008a4.993,4.993,0,0,1,.488-2.234,3.643,3.643,0,0,1,1.359-1.531,3.7,3.7,0,0,1,1.988-.539,3.565,3.565,0,0,1,2.793,1.2,4.6,4.6,0,0,1,1.066,3.18v.1a5.036,5.036,0,0,1-.473,2.215,3.589,3.589,0,0,1-1.352,1.527,3.743,3.743,0,0,1-2.02.547,3.556,3.556,0,0,1-2.785-1.2A4.575,4.575,0,0,1,22.273,19.8Zm1.453.172a3.616,3.616,0,0,0,.652,2.258,2.211,2.211,0,0,0,3.5-.012,3.955,3.955,0,0,0,.648-2.418,3.61,3.61,0,0,0-.66-2.254,2.1,2.1,0,0,0-1.754-.863,2.075,2.075,0,0,0-1.727.852A3.925,3.925,0,0,0,23.727,19.867Zm12.141-3.023a4.331,4.331,0,0,0-.711-.055A1.9,1.9,0,0,0,33.227,18v6H31.781V15.547h1.406l.023.977a2.251,2.251,0,0,1,2.016-1.133,1.477,1.477,0,0,1,.641.109ZM42.1,24a3.036,3.036,0,0,1-.2-.891,3.225,3.225,0,0,1-2.406,1.047,2.984,2.984,0,0,1-2.051-.707,2.287,2.287,0,0,1-.8-1.793,2.39,2.39,0,0,1,1-2.051,4.733,4.733,0,0,1,2.824-.73h1.406v-.664A1.623,1.623,0,0,0,41.422,17a1.821,1.821,0,0,0-1.336-.449,2.107,2.107,0,0,0-1.3.391,1.151,1.151,0,0,0-.523.945H36.813a2,2,0,0,1,.449-1.223,3.066,3.066,0,0,1,1.219-.934,4.1,4.1,0,0,1,1.691-.344,3.342,3.342,0,0,1,2.289.73,2.635,2.635,0,0,1,.859,2.012v3.891a4.757,4.757,0,0,0,.3,1.852V24Zm-2.4-1.1a2.54,2.54,0,0,0,1.289-.352,2.127,2.127,0,0,0,.883-.914V19.9H40.742q-2.656,0-2.656,1.555a1.316,1.316,0,0,0,.453,1.063A1.742,1.742,0,0,0,39.7,22.9Zm7.844-9.4v2.047h1.578v1.117H47.547v5.249a1.173,1.173,0,0,0,.211.763.888.888,0,0,0,.719.254,3.5,3.5,0,0,0,.688-.094V24a4.215,4.215,0,0,1-1.109.155,1.8,1.8,0,0,1-1.461-.586,2.517,2.517,0,0,1-.492-1.664V16.664H44.563V15.547H46.1V13.5Zm2.727,6.2a4.993,4.993,0,0,1,.488-2.234,3.643,3.643,0,0,1,1.359-1.531,3.7,3.7,0,0,1,1.988-.539,3.565,3.565,0,0,1,2.793,1.2,4.6,4.6,0,0,1,1.066,3.18v.1a5.036,5.036,0,0,1-.473,2.215,3.589,3.589,0,0,1-1.352,1.527,3.743,3.743,0,0,1-2.02.547,3.556,3.556,0,0,1-2.785-1.2A4.575,4.575,0,0,1,50.273,19.8Zm1.453.172a3.616,3.616,0,0,0,.652,2.258,2.211,2.211,0,0,0,3.5-.012,3.955,3.955,0,0,0,.648-2.418,3.61,3.61,0,0,0-.66-2.254,2.1,2.1,0,0,0-1.754-.863,2.075,2.075,0,0,0-1.727.852A3.925,3.925,0,0,0,51.727,19.867Zm12.141-3.023a4.331,4.331,0,0,0-.711-.055A1.9,1.9,0,0,0,61.227,18v6H59.781V15.547h1.406l.023.977a2.251,2.251,0,0,1,2.016-1.133,1.477,1.477,0,0,1,.641.109ZM66.766,24H65.32V15.547h1.445ZM65.2,13.3a.863.863,0,0,1,.215-.594.807.807,0,0,1,.637-.242.819.819,0,0,1,.641.242.854.854,0,0,1,.219.594.826.826,0,0,1-.219.586.834.834,0,0,1-.641.234.821.821,0,0,1-.637-.234A.834.834,0,0,1,65.2,13.3ZM68.7,19.7a4.993,4.993,0,0,1,.488-2.234,3.643,3.643,0,0,1,1.359-1.531,3.7,3.7,0,0,1,1.988-.539,3.565,3.565,0,0,1,2.793,1.2,4.6,4.6,0,0,1,1.066,3.18v.1a5.036,5.036,0,0,1-.473,2.215,3.589,3.589,0,0,1-1.352,1.527,3.743,3.743,0,0,1-2.02.547,3.556,3.556,0,0,1-2.785-1.2A4.575,4.575,0,0,1,68.7,19.8Zm1.453.172a3.616,3.616,0,0,0,.652,2.258,2.211,2.211,0,0,0,3.5-.012,3.955,3.955,0,0,0,.648-2.418,3.61,3.61,0,0,0-.66-2.254,2.1,2.1,0,0,0-1.754-.863,2.075,2.075,0,0,0-1.727.852A3.925,3.925,0,0,0,70.148,19.867Z" transform="translate(1001.221 7498.241)" fill="#12263f"/><text transform="translate(1001.44 7556.12)" fill="#12263f" font-size="16" font-family="Roboto-Regular, Roboto"><tspan x="0" y="0">Mancha </tspan><tspan x="0" y="24">de tinta</tspan></text><text transform="translate(1164.214 7582.374)" fill="#12263f" font-size="16" font-family="Roboto-Regular, Roboto"><tspan x="0" y="0">Solvente</tspan></text></g></g></svg>