<svg xmlns="http://www.w3.org/2000/svg" xmlns:xlink="http://www.w3.org/1999/xlink" width="400" height="247.703" viewBox="0 0 400 247.703">
  <defs>
    <clipPath id="clip-path">
      <path id="AdobeStock_377563823" d="M0,0H375a25,25,0,0,1,25,25V227.972a0,0,0,0,1,0,0H25a25,25,0,0,1-25-25V0A0,0,0,0,1,0,0Z" fill="#fed5c3"/>
    </clipPath>
    <clipPath id="clip-path-2">
      <rect id="Rectángulo_46605" data-name="Rectángulo 46605" width="370.823" height="236.497" fill="none"/>
    </clipPath>
    <clipPath id="clip-path-3">
      <rect id="Rectángulo_46604" data-name="Rectángulo 46604" width="370.824" height="236.497" fill="none"/>
    </clipPath>
    <clipPath id="clip-path-4">
      <rect id="Rectángulo_46571" data-name="Rectángulo 46571" width="37.886" height="73.925" fill="none"/>
    </clipPath>
    <clipPath id="clip-path-5">
      <rect id="Rectángulo_46572" data-name="Rectángulo 46572" width="15.058" height="73.92" fill="none"/>
    </clipPath>
    <clipPath id="clip-path-6">
      <rect id="Rectángulo_46583" data-name="Rectángulo 46583" width="68.424" height="15.13" fill="none"/>
    </clipPath>
    <clipPath id="clip-path-7">
      <rect id="Rectángulo_46588" data-name="Rectángulo 46588" width="36.992" height="15.13" fill="none"/>
    </clipPath>
    <clipPath id="clip-path-8">
      <rect id="Rectángulo_46593" data-name="Rectángulo 46593" width="41.633" height="15.13" fill="none"/>
    </clipPath>
    <clipPath id="clip-path-9">
      <rect id="Rectángulo_46597" data-name="Rectángulo 46597" width="46.603" height="66.124" fill="none"/>
    </clipPath>
    <clipPath id="clip-path-10">
      <rect id="Rectángulo_46600" data-name="Rectángulo 46600" width="32.663" height="90.506" fill="none"/>
    </clipPath>
    <clipPath id="clip-path-11">
      <rect id="Rectángulo_46601" data-name="Rectángulo 46601" width="32.44" height="2.137" fill="none"/>
    </clipPath>
    <clipPath id="clip-path-12">
      <rect id="Rectángulo_46602" data-name="Rectángulo 46602" width="31.064" height="16.735" fill="none"/>
    </clipPath>
    <clipPath id="clip-path-13">
      <rect id="Rectángulo_46603" data-name="Rectángulo 46603" width="24.304" height="1.601" fill="none"/>
    </clipPath>
  </defs>
  <g id="Grupo_178190" data-name="Grupo 178190" transform="translate(-180 -10830.09)">
    <g id="Grupo_178189" data-name="Grupo 178189" transform="translate(180 10830.09)">
      <g id="Enmascarar_grupo_293" data-name="Enmascarar grupo 293" transform="translate(0 19.73)" clip-path="url(#clip-path)">
        <g id="Grupo_178186" data-name="Grupo 178186" transform="translate(0 0)">
          <g id="Grupo_177823" data-name="Grupo 177823" transform="translate(0 0)">
            <g id="Grupo_175381" data-name="Grupo 175381" transform="translate(0 0)">
              <path id="AdobeStock_377563823-2" data-name="AdobeStock_377563823" d="M0,0H375a25,25,0,0,1,25,25V227.972a0,0,0,0,1,0,0H25a25,25,0,0,1-25-25V0A0,0,0,0,1,0,0Z" fill="#fed5c3"/>
            </g>
          </g>
          <g id="Grupo_178185" data-name="Grupo 178185" transform="translate(0 0)">
            <path id="Trazado_186551" data-name="Trazado 186551" d="M414.737,147.609a16.589,16.589,0,1,1-16.586-16.255,16.423,16.423,0,0,1,16.586,16.255" transform="translate(-271.529 29.236)" fill="#fee8de"/>
            <path id="Trazado_186552" data-name="Trazado 186552" d="M150.925,186.616A22.062,22.062,0,1,1,128.866,165a21.842,21.842,0,0,1,22.059,21.619" transform="translate(-54.689 -91.82)" fill="#fee8de"/>
            <path id="Trazado_186553" data-name="Trazado 186553" d="M640.627,49.238a22.062,22.062,0,1,1-22.058-21.619,21.842,21.842,0,0,1,22.058,21.619" transform="translate(-305.427 51.686)" fill="#fee8de"/>
            <path id="Trazado_186554" data-name="Trazado 186554" d="M258.582,36.441a18.3,18.3,0,0,1-36.587,0,18.3,18.3,0,0,1,36.587,0" transform="translate(-113.666 -9.658)" fill="#fee8de"/>
            <path id="Trazado_186555" data-name="Trazado 186555" d="M757.888,85.387a5.55,5.55,0,1,1-5.549-5.438,5.494,5.494,0,0,1,5.549,5.438" transform="translate(-382.373 -44.102)" fill="#fee8de"/>
            <path id="Trazado_186556" data-name="Trazado 186556" d="M480.032,36.427a4.468,4.468,0,1,1-4.467-4.378,4.423,4.423,0,0,1,4.467,4.378" transform="translate(-241.213 -16.721)" fill="#fee8de"/>
            <path id="Trazado_186557" data-name="Trazado 186557" d="M328.241,61.588a5.55,5.55,0,1,1-5.549-5.438,5.494,5.494,0,0,1,5.549,5.438" transform="translate(-162.384 -29.295)" fill="#fee8de"/>
            <path id="Trazado_186558" data-name="Trazado 186558" d="M416.019,277.041a5.55,5.55,0,1,1-5.549-5.438,5.494,5.494,0,0,1,5.549,5.438" transform="translate(-207.328 -149.826)" fill="#fee8de"/>
            <path id="Trazado_186559" data-name="Trazado 186559" d="M310.058,154.545a2.8,2.8,0,1,1-2.8-2.742,2.77,2.77,0,0,1,2.8,2.742" transform="translate(-155.891 -83.636)" fill="#fee8de"/>
            <path id="Trazado_186560" data-name="Trazado 186560" d="M741.029,180.867a2.1,2.1,0,1,1-2.095-2.053,2.074,2.074,0,0,1,2.095,2.053" transform="translate(-377.278 -98.488)" fill="#fee8de"/>
            <path id="Trazado_186561" data-name="Trazado 186561" d="M108.534,32.521a2.962,2.962,0,1,1-2.962-2.9,2.932,2.932,0,0,1,2.962,2.9" transform="translate(-52.539 -15.453)" fill="#fee8de"/>
            <g id="Grupo_178184" data-name="Grupo 178184" transform="translate(320.866 130.528)">
              <path id="Trazado_186562" data-name="Trazado 186562" d="M736.676,108.682v-.2c-32.8,5.367-31.563,39.118-31.03,53.617.057,1.533.105,2.856.105,3.908,0,4.492-1.256,7.228-4.337,9.443s-7.881,3.892-15.153,6.433c-3.158,1.1-6.738,2.354-10.812,3.874-11.771,4.388-15.861,10.5-17.219,14.853a15.168,15.168,0,0,0-.675,5.168h.2a14.964,14.964,0,0,1,.67-5.122c2.442-7.805,10.644-12.311,17.1-14.716,4.073-1.518,7.651-2.769,10.808-3.872,14.28-4.99,19.623-6.857,19.623-16.06,0-1.056-.049-2.38-.105-3.915-.532-14.441-1.763-48.054,30.83-53.412" transform="translate(-657.542 -108.484)" fill="#fee8de"/>
              <path id="Trazado_186563" data-name="Trazado 186563" d="M741.97,212.163V120.72c-26.685,3.79-28.018,31.653-26.612,45.779,1.445,14.521-2.53,18.417-25.3,26.563-17.559,6.283-21.36,15.3-22.18,19.1Z" transform="translate(-662.836 -114.869)" fill="#fee8de"/>
            </g>
            <path id="Trazado_186564" data-name="Trazado 186564" d="M43.83,37.768c.389-6.565.832-14.006,2.9-21.336A41,41,0,0,1,55.433,0h-.266a41.252,41.252,0,0,0-8.625,16.38c-2.077,7.35-2.519,14.8-2.91,21.377-.117,1.958-.226,3.808-.373,5.544-.633,7.472,1.116,16.547,2.659,24.553,1.2,6.241,2.34,12.136,2.111,16.165-.507,8.937-5.122,11.538-24.645,18.778C9.849,107.815,2.911,115.859,0,120.153v.333a37.142,37.142,0,0,1,3.754-4.749,50.562,50.562,0,0,1,19.7-12.759c19.621-7.276,24.26-9.9,24.774-18.95.23-4.052-.909-9.959-2.114-16.212-1.541-7.994-3.288-17.054-2.657-24.5.147-1.738.257-3.589.374-5.548" transform="translate(0 0)" fill="#fee8de"/>
            <path id="Trazado_186565" data-name="Trazado 186565" d="M0,0V114.791A52.659,52.659,0,0,1,21.444,99.345C39.491,92.269,47.011,86.963,42.8,64.559,39.064,44.68,35.8,13.9,49.613,0Z" transform="translate(0 0)" fill="#fee8de"/>
            <path id="Trazado_186566" data-name="Trazado 186566" d="M768.935,10.9c2.219,11.6,3.329,22.109,22.18,16.319V0H763.862a25.3,25.3,0,0,1,5.073,10.9" transform="translate(-391.114 0.001)" fill="#fee8de"/>
            <path id="Trazado_186567" data-name="Trazado 186567" d="M785.329,32.237a42,42,0,0,0-10.063,2.138c-2.757.869-5.06.75-7.039-.363-3.739-2.1-6.486-7.8-8.906-18.469C757.513,7.572,754.905,2.777,752.807,0h-.244c2.093,2.734,4.736,7.528,6.563,15.585,2.433,10.73,5.209,16.465,9,18.6a7.509,7.509,0,0,0,3.755.962,11.493,11.493,0,0,0,3.444-.583,42.1,42.1,0,0,1,10-2.137Z" transform="translate(-385.329 0)" fill="#fee8de"/>
          </g>
        </g>
      </g>
      <g id="Grupo_178188" data-name="Grupo 178188" transform="translate(19.932)">
        <g id="Grupo_178182" data-name="Grupo 178182" clip-path="url(#clip-path-2)">
          <g id="Grupo_178181" data-name="Grupo 178181" transform="translate(0 0)">
            <g id="Grupo_178180" data-name="Grupo 178180" clip-path="url(#clip-path-3)">
              <g id="Grupo_178152" data-name="Grupo 178152" transform="translate(312.427 161.734)" opacity="0.5">
                <g id="Grupo_178151" data-name="Grupo 178151">
                  <g id="Grupo_178150" data-name="Grupo 178150" clip-path="url(#clip-path-4)">
                    <path id="Trazado_186476" data-name="Trazado 186476" d="M2006.937,1096.466l-16.641-.005-8.8,0a6.232,6.232,0,0,1-6.209-6.216l.02-61.492a6.227,6.227,0,0,1,6.213-6.21l7.806,0,17.638,0a6.23,6.23,0,0,1,6.209,6.215l-.018,61.492a6.232,6.232,0,0,1-6.214,6.211" transform="translate(-1975.284 -1022.541)" fill="#c0d8fb"/>
                  </g>
                </g>
              </g>
              <path id="Trazado_186477" data-name="Trazado 186477" d="M2018.166,1246.557l-.442-3.236-.441-3.238a3.043,3.043,0,0,0-3.415-2.595c-.092.012-.181.03-.269.051a3,3,0,0,0,.521-1.434,3.03,3.03,0,0,0,5.745-1.87l-.76-3.177-.76-3.178a3.033,3.033,0,0,0-5.9,1.411l1.146,4.787a3,3,0,0,0-2.392-1.288,8.3,8.3,0,0,0-.63-6.4l-5.037-4.163a3.031,3.031,0,0,0-4.132,4.42,3,3,0,0,0-.808.1l-3.152.863-3.15.862a3.037,3.037,0,0,0-2.143,2.209l-.331-.792-1.259-3.014a3.033,3.033,0,0,0-5.6,2.338l1.259,3.014.806,1.932a3.04,3.04,0,0,0-1.915,2.663l-.165,3.262-.165,3.264a3.043,3.043,0,0,0,2.875,3.181,2.982,2.982,0,0,0,1.024-.128,3.057,3.057,0,0,0-.241,2.05,3.006,3.006,0,0,0-1.286,1.46l-1.248,3.019-1.248,3.019a10.988,10.988,0,0,1,5.974,4.428,3.04,3.04,0,0,0,4.251-.564l1.985-2.594,1.986-2.594a1.979,1.979,0,0,1,2.561-1.672l.521-.359-.72.941-1.986,2.594a3.033,3.033,0,0,0,4.816,3.687l1.986-2.594,1.986-2.595c.026-.033.047-.068.071-.1a3.008,3.008,0,0,0,.581.683l-.708.924a3.033,3.033,0,0,0,4.817,3.687l3.971-5.189a3.022,3.022,0,0,0-1.289-4.658c.037,0,.073,0,.11-.01a3.041,3.041,0,0,0,2.595-3.415m-27.328-2.894.057-1.113a2.907,2.907,0,0,0,1.129,1.1l-1.39.958a2.957,2.957,0,0,0,.2-.941m20.435-2.76.594,4.352a3.039,3.039,0,0,0-3.148-1.668,3,3,0,0,0,.826-.739l1.705-2.227c0,.094.011.187.023.282m-6.9-11.758.764.631-.787.542a2.992,2.992,0,0,0,.023-1.174m.66,9.616a3.041,3.041,0,0,0-.537-1.287,3,3,0,0,0,.652-.337l2.39-1.648Zm1.983,5.674a3.056,3.056,0,0,0-2.286-.689l.065-.816a3.058,3.058,0,0,0,.5.483,1.258,1.258,0,1,1,1.726,1.022m-6.109-11.477a3.041,3.041,0,0,0,.022,3.4c.013.019.029.036.042.055a.666.666,0,1,1-.5-1,3.021,3.021,0,0,0-1.159-2.009l-.009-.007Zm-3.019,7.292,1.169-1.528c-.017.094-.03.189-.037.287l-.222,2.805a3.035,3.035,0,0,0-1.54-.742Zm-5.476,12.817.344-.83a3.013,3.013,0,0,0,.145-1.845c.07-.04.139-.081.206-.127l5.379-3.709c.034-.024.065-.051.1-.076a3.068,3.068,0,0,0,.343.83l-.957.66a4.586,4.586,0,0,1-3.934,2.978Zm14.268-3.738.168.7a3.009,3.009,0,0,0-.84-.238Zm6.405.708-.234-.977-.044-.186a.769.769,0,1,1,.278,1.163m-18.369-15.623-1.646,2.149-1.985,2.594c-.009.012-.017.025-.025.036l.1-2.056c0-.052,0-.1,0-.156.094-.029.186-.062.278-.1a2.079,2.079,0,0,1,3.274-2.467" transform="translate(-1670.555 -1028.332)" fill="#afcdfb"/>
              <g id="Grupo_178155" data-name="Grupo 178155" transform="translate(312.427 161.734)" opacity="0.5">
                <g id="Grupo_178154" data-name="Grupo 178154">
                  <g id="Grupo_178153" data-name="Grupo 178153" clip-path="url(#clip-path-5)">
                    <path id="Trazado_186478" data-name="Trazado 186478" d="M1990.3,1096.461l-8.8,0a6.232,6.232,0,0,1-6.209-6.216l.02-61.492a6.227,6.227,0,0,1,6.213-6.21l7.806,0a7.609,7.609,0,0,1,1.019,3.841l-.021,69.455q0,.314-.025.621" transform="translate(-1975.284 -1022.541)" fill="#afcdfb"/>
                  </g>
                </g>
              </g>
              <path id="Trazado_186479" data-name="Trazado 186479" d="M2008.619,997.175l-23.635-.007-13.414,0a1.21,1.21,0,0,1-1.207-1.208l0-5.791a1.211,1.211,0,0,1,1.208-1.207l13.4,0h0l23.651.006a1.211,1.211,0,0,1,1.207,1.208v5.791a1.212,1.212,0,0,1-1.209,1.208" transform="translate(-1658.714 -832.534)" fill="#f99746"/>
              <path id="Trazado_186480" data-name="Trazado 186480" d="M1984.984,997.168l-13.414,0a1.21,1.21,0,0,1-1.207-1.208l0-5.791a1.211,1.211,0,0,1,1.208-1.207l13.395,0h0a1.211,1.211,0,0,1,1.2,1.208v5.791a1.212,1.212,0,0,1-1.19,1.208" transform="translate(-1658.714 -832.534)" fill="#ef7e29"/>
              <rect id="Rectángulo_46573" data-name="Rectángulo 46573" width="175.514" height="235.802" transform="translate(123.005 0)" fill="#abddda"/>
              <rect id="Rectángulo_46574" data-name="Rectángulo 46574" width="156.856" height="217.58" transform="translate(133.298 7.642)" fill="#fff"/>
              <path id="Trazado_186481" data-name="Trazado 186481" d="M1136.359,0V7.985a7.984,7.984,0,0,0,7.98,7.988H1187.2a7.984,7.984,0,0,0,7.981-7.988V0Z" transform="translate(-956.623 0.003)" fill="#f99746"/>
              <rect id="Rectángulo_46575" data-name="Rectángulo 46575" width="2.227" height="10.312" transform="translate(164.52 38.441)" fill="#abddda"/>
              <path id="Trazado_186482" data-name="Trazado 186482" d="M1085.693,253.35h-2.228l-4.336-6.785v6.785H1076.9V243.038h2.227l4.344,6.8v-6.8h2.22Z" transform="translate(-906.57 -204.596)" fill="#abddda"/>
              <path id="Trazado_186483" data-name="Trazado 186483" d="M1157.584,249.89a1.381,1.381,0,0,0-.081-.485.949.949,0,0,0-.316-.4,2.923,2.923,0,0,0-.646-.361,10.549,10.549,0,0,0-1.065-.375,13.454,13.454,0,0,1-1.4-.51,5.18,5.18,0,0,1-1.151-.669,3.012,3.012,0,0,1-.78-.889,2.337,2.337,0,0,1-.286-1.176,2.411,2.411,0,0,1,.293-1.179,2.7,2.7,0,0,1,.824-.91,4.134,4.134,0,0,1,1.262-.584,5.838,5.838,0,0,1,1.607-.209,5.3,5.3,0,0,1,1.633.237,3.8,3.8,0,0,1,1.255.662,2.953,2.953,0,0,1,.8,1.009,2.907,2.907,0,0,1,.282,1.278h-2.227a1.648,1.648,0,0,0-.108-.6,1.225,1.225,0,0,0-.33-.475,1.565,1.565,0,0,0-.557-.308,2.536,2.536,0,0,0-.787-.11,2.791,2.791,0,0,0-.761.092,1.57,1.57,0,0,0-.534.255,1.075,1.075,0,0,0-.319.382,1.043,1.043,0,0,0-.108.467,1,1,0,0,0,.546.854,6.32,6.32,0,0,0,1.6.641,10.81,10.81,0,0,1,1.555.581,4.647,4.647,0,0,1,1.121.722,2.774,2.774,0,0,1,.679.907,2.715,2.715,0,0,1,.23,1.14,2.573,2.573,0,0,1-.278,1.211,2.536,2.536,0,0,1-.791.9,3.814,3.814,0,0,1-1.236.56,6.217,6.217,0,0,1-1.615.195,6.529,6.529,0,0,1-1.069-.089,5.324,5.324,0,0,1-1.021-.273,4.505,4.505,0,0,1-.9-.46,3.282,3.282,0,0,1-.724-.652,2.9,2.9,0,0,1-.482-.853,3.068,3.068,0,0,1-.175-1.059h2.235a1.82,1.82,0,0,0,.156.793,1.363,1.363,0,0,0,.434.528,1.847,1.847,0,0,0,.672.294,3.862,3.862,0,0,0,.876.092,2.819,2.819,0,0,0,.75-.089,1.57,1.57,0,0,0,.527-.244.98.98,0,0,0,.309-.372,1.093,1.093,0,0,0,.1-.464" transform="translate(-969.391 -203.842)" fill="#abddda"/>
              <path id="Trazado_186484" data-name="Trazado 186484" d="M1230.729,243.037v6.806a3.766,3.766,0,0,1-.312,1.576,3.2,3.2,0,0,1-.862,1.144,3.7,3.7,0,0,1-1.31.694,6.03,6.03,0,0,1-3.326,0,3.707,3.707,0,0,1-1.31-.694,3.167,3.167,0,0,1-.858-1.144,3.807,3.807,0,0,1-.308-1.576v-6.806h2.227v6.806a1.907,1.907,0,0,0,.509,1.477,2.365,2.365,0,0,0,2.814,0,1.927,1.927,0,0,0,.5-1.477v-6.806Z" transform="translate(-1029.091 -204.596)" fill="#abddda"/>
              <path id="Trazado_186485" data-name="Trazado 186485" d="M1299.989,249.574h-1.774v3.775h-2.227V243.037H1300a6.408,6.408,0,0,1,1.678.2,3.577,3.577,0,0,1,1.254.595,2.624,2.624,0,0,1,.787.974,3.115,3.115,0,0,1,.274,1.346,3.558,3.558,0,0,1-.133,1.016,2.646,2.646,0,0,1-.386.8,2.75,2.75,0,0,1-.609.613,4.033,4.033,0,0,1-.8.453l2.339,4.214v.1h-2.391Zm-1.774-1.721h1.8a2.438,2.438,0,0,0,.769-.11,1.487,1.487,0,0,0,.549-.312,1.3,1.3,0,0,0,.33-.481,1.673,1.673,0,0,0,.112-.627,1.517,1.517,0,0,0-.435-1.147,1.858,1.858,0,0,0-1.332-.418h-1.789Z" transform="translate(-1091.003 -204.596)" fill="#abddda"/>
              <path id="Trazado_186486" data-name="Trazado 186486" d="M1368.194,251.225h-3.905l-.742,2.125h-2.368l4.024-10.312h2.064l4.046,10.312h-2.368Zm-3.3-1.721h2.7l-1.359-3.86Z" transform="translate(-1145.883 -204.596)" fill="#abddda"/>
              <path id="Trazado_186487" data-name="Trazado 186487" d="M1450.037,253.35h-2.228l-4.335-6.785v6.785h-2.228V243.038h2.228l4.343,6.8v-6.8h2.22Z" transform="translate(-1213.287 -204.596)" fill="#abddda"/>
              <path id="Trazado_186488" data-name="Trazado 186488" d="M1525.481,249.161a4.074,4.074,0,0,1-.372,1.445,3.368,3.368,0,0,1-.861,1.13,3.986,3.986,0,0,1-1.332.737,5.547,5.547,0,0,1-1.786.266,4.832,4.832,0,0,1-1.867-.344,3.816,3.816,0,0,1-1.4-.988,4.431,4.431,0,0,1-.883-1.562,6.444,6.444,0,0,1-.308-2.058v-.68a6.243,6.243,0,0,1,.32-2.061,4.491,4.491,0,0,1,.9-1.565,3.911,3.911,0,0,1,1.414-.992,4.779,4.779,0,0,1,1.856-.347,5.374,5.374,0,0,1,1.785.273,3.866,3.866,0,0,1,1.318.758,3.44,3.44,0,0,1,.847,1.154,4.674,4.674,0,0,1,.386,1.455h-2.227a3.084,3.084,0,0,0-.167-.814,1.59,1.59,0,0,0-.375-.595,1.569,1.569,0,0,0-.631-.365,3.09,3.09,0,0,0-.936-.124,1.921,1.921,0,0,0-1.682.783,4.245,4.245,0,0,0-.553,2.426v.694a7.119,7.119,0,0,0,.122,1.4,2.886,2.886,0,0,0,.387,1.006,1.668,1.668,0,0,0,.683.605,2.319,2.319,0,0,0,1.014.2,3.22,3.22,0,0,0,.91-.113,1.631,1.631,0,0,0,.639-.344,1.557,1.557,0,0,0,.4-.577,2.735,2.735,0,0,0,.178-.807Z" transform="translate(-1276.779 -203.842)" fill="#abddda"/>
              <path id="Trazado_186489" data-name="Trazado 186489" d="M1597.751,248.881h-4.277v2.762h5.018v1.707h-7.245V243.038h7.231v1.721h-5v2.458h4.277Z" transform="translate(-1339.562 -204.596)" fill="#abddda"/>
              <path id="Trazado_186490" data-name="Trazado 186490" d="M1316.322,1275.554a18.451,18.451,0,0,1-6.823,1.068c-2.909-.243-4.547-1.767-4.612-4.293a6.478,6.478,0,0,1,2.41-5.182c-.016-.137-.029-.274-.039-.411-.107-1.413.195-2.352.9-2.79,1.136-.708,2.824.261,2.9.3l-.377.645c-.379-.22-1.5-.7-2.123-.313-.536.336-.6,1.26-.553,2.012a15.857,15.857,0,0,1,5.172-2.315,27.794,27.794,0,0,1,4.874-.833c.009-.175.023-.333.042-.462.051-.347.172-.753.513-.834a.562.562,0,0,1,.6.315,1.8,1.8,0,0,1,.229.907c.541-.012,1.045,0,1.491.031l.012-.029a8.53,8.53,0,0,1,.115-2.6c.189-.865.5-1.3.935-1.345a.572.572,0,0,1,.592.366c.243.587-.213,2.172-.874,3.692a.07.07,0,0,0,0,.008c.62.1,1.041.276,1.173.516a.557.557,0,0,1-.151.7.883.883,0,0,1-1.093.234,1.066,1.066,0,0,1-.4-.459,7.8,7.8,0,0,1-1.473,2.193.734.734,0,0,1-.869.126.8.8,0,0,1-.19-.151,10.177,10.177,0,0,1-.568,1.177c-.782,1.372-1.662,2.078-2.546,2.036a1.436,1.436,0,0,1-.953-.422,13.886,13.886,0,0,1-1.714,2.819,2.006,2.006,0,0,1-2.232.792c-1.449-.453-2.76-2.55-3.251-5.035a5.6,5.6,0,0,0-1.8,4.291c.055,2.155,1.377,3.355,3.927,3.568,6.437.536,17.724-5.449,18.579-9.852-.7,3.58-6.052,7.66-11.818,9.528m-8.233-8.108c.392,2.621,1.7,4.547,2.818,4.895a1.272,1.272,0,0,0,1.429-.548,12.867,12.867,0,0,0,1.8-3.076,4.565,4.565,0,0,1-.311-.975,7.029,7.029,0,0,1,0-2.863,18.944,18.944,0,0,0-3.524,1.226,11.561,11.561,0,0,0-2.215,1.341m6.872,1.226a.856.856,0,0,0,.657.448c.565.024,1.246-.579,1.863-1.659a9.847,9.847,0,0,0,.771-1.742,7.379,7.379,0,0,1-.21-1.518c-.828.066-1.731.178-2.66.346.484.944.2,2.538-.42,4.125m4.07-2.939c.116.351.221.419.221.419a6.981,6.981,0,0,0,1.329-2.021c-.354-.014-.755-.015-1.19,0a9.138,9.138,0,0,1-.36,1.605m-4.386-.96a5.724,5.724,0,0,0-.1,2.794,3.67,3.67,0,0,0,.1-2.794m7.357-.477h0m-.11-3.834a4.716,4.716,0,0,0-.177.782,5.765,5.765,0,0,0,.177-.782" transform="translate(-1098.492 -1060.222)" fill="#f99746"/>
              <path id="Trazado_186491" data-name="Trazado 186491" d="M989.593,511.945H961.224V483.576h28.369Zm-27.033-1.336h25.7v-25.7h-25.7Z" transform="translate(-809.188 -407.089)" fill="#abddda"/>
              <path id="Trazado_186492" data-name="Trazado 186492" d="M998.1,480.355a2,2,0,0,1-1.545-.727l-8.754-10.59a2,2,0,0,1,3.09-2.554l6.943,8.4,12.56-21.08a2,2,0,1,1,3.444,2.052l-14.015,23.522a2,2,0,0,1-1.568.973c-.051,0-.1.006-.154.006" transform="translate(-831.174 -381.201)" fill="#f99746"/>
              <path id="Trazado_186493" data-name="Trazado 186493" d="M989.593,792.389H961.224V764.02h28.369Zm-27.033-1.336h25.7v-25.7h-25.7Z" transform="translate(-809.188 -643.176)" fill="#abddda"/>
              <path id="Trazado_186494" data-name="Trazado 186494" d="M998.1,759.252a2,2,0,0,1-1.545-.727l-8.754-10.59a2,2,0,0,1,3.09-2.554l6.943,8.4,12.56-21.08a2,2,0,1,1,3.444,2.052l-14.015,23.522a2,2,0,0,1-1.568.973c-.051,0-.1.006-.154.006" transform="translate(-831.174 -615.985)" fill="#f99746"/>
              <path id="Trazado_186495" data-name="Trazado 186495" d="M989.593,1067.025H961.224v-28.369h28.369Zm-27.033-1.336h25.7v-25.7h-25.7Z" transform="translate(-809.188 -874.373)" fill="#abddda"/>
              <path id="Trazado_186496" data-name="Trazado 186496" d="M998.1,1031.248a2,2,0,0,1-1.545-.727l-8.754-10.59a2,2,0,0,1,3.09-2.554l6.943,8.4,12.56-21.08a2,2,0,1,1,3.444,2.052l-14.015,23.522a2,2,0,0,1-1.568.973c-.051,0-.1.006-.154.006" transform="translate(-831.174 -844.96)" fill="#f99746"/>
              <g id="Grupo_178158" data-name="Grupo 178158" transform="translate(199.523 83.106)" opacity="0.5">
                <g id="Grupo_178157" data-name="Grupo 178157">
                  <g id="Grupo_178156" data-name="Grupo 178156" clip-path="url(#clip-path-6)">
                    <rect id="Rectángulo_46576" data-name="Rectángulo 46576" width="36.992" height="2.768" transform="translate(0 0)" fill="#abddda"/>
                    <rect id="Rectángulo_46577" data-name="Rectángulo 46577" width="8.408" height="2.768" transform="translate(60.017 0)" fill="#abddda"/>
                    <rect id="Rectángulo_46578" data-name="Rectángulo 46578" width="36.992" height="2.768" transform="translate(0 12.363)" fill="#abddda"/>
                    <rect id="Rectángulo_46579" data-name="Rectángulo 46579" width="12.535" height="2.768" transform="translate(55.89 12.363)" fill="#abddda"/>
                    <rect id="Rectángulo_46580" data-name="Rectángulo 46580" width="10.303" height="2.768" transform="translate(58.121 6.181)" fill="#abddda"/>
                    <rect id="Rectángulo_46581" data-name="Rectángulo 46581" width="10.303" height="2.768" transform="translate(27.329 6.181)" fill="#abddda"/>
                    <rect id="Rectángulo_46582" data-name="Rectángulo 46582" width="22.893" height="2.768" transform="translate(0 6.181)" fill="#abddda"/>
                  </g>
                </g>
              </g>
              <g id="Grupo_178161" data-name="Grupo 178161" transform="translate(199.523 125.709)" opacity="0.5">
                <g id="Grupo_178160" data-name="Grupo 178160">
                  <g id="Grupo_178159" data-name="Grupo 178159" clip-path="url(#clip-path-7)">
                    <rect id="Rectángulo_46584" data-name="Rectángulo 46584" width="35.58" height="2.768" transform="translate(0 0)" fill="#abddda"/>
                    <rect id="Rectángulo_46585" data-name="Rectángulo 46585" width="36.992" height="2.768" transform="translate(0 12.362)" fill="#abddda"/>
                    <rect id="Rectángulo_46586" data-name="Rectángulo 46586" width="9.573" height="2.768" transform="translate(25.546 6.181)" fill="#abddda"/>
                    <rect id="Rectángulo_46587" data-name="Rectángulo 46587" width="22.893" height="2.768" transform="translate(0 6.181)" fill="#abddda"/>
                  </g>
                </g>
              </g>
              <g id="Grupo_178164" data-name="Grupo 178164" transform="translate(199.523 169.519)" opacity="0.5">
                <g id="Grupo_178163" data-name="Grupo 178163">
                  <g id="Grupo_178162" data-name="Grupo 178162" clip-path="url(#clip-path-8)">
                    <rect id="Rectángulo_46589" data-name="Rectángulo 46589" width="36.992" height="2.768" transform="translate(0)" fill="#abddda"/>
                    <rect id="Rectángulo_46590" data-name="Rectángulo 46590" width="36.992" height="2.768" transform="translate(0 12.362)" fill="#abddda"/>
                    <rect id="Rectángulo_46591" data-name="Rectángulo 46591" width="16.087" height="2.768" transform="translate(25.545 6.181)" fill="#abddda"/>
                    <rect id="Rectángulo_46592" data-name="Rectángulo 46592" width="22.893" height="2.768" transform="translate(0 6.181)" fill="#abddda"/>
                  </g>
                </g>
              </g>
              <rect id="Rectángulo_46594" data-name="Rectángulo 46594" width="19.406" height="1.964" transform="translate(152.036 207.818)" fill="#abddda"/>
              <rect id="Rectángulo_46595" data-name="Rectángulo 46595" width="19.407" height="1.964" transform="translate(175.937 207.818)" fill="#abddda"/>
              <rect id="Rectángulo_46596" data-name="Rectángulo 46596" width="26.915" height="1.964" transform="translate(152.036 212.176)" fill="#abddda"/>
              <path id="Trazado_186497" data-name="Trazado 186497" d="M233.479,623.308v67.838a7.592,7.592,0,0,1-7.57,7.57H185.588a7.483,7.483,0,0,1-3.038-.641,7.6,7.6,0,0,1-4.532-6.929V623.308a7.592,7.592,0,0,1,7.57-7.57h40.321a7.59,7.59,0,0,1,7.57,7.57" transform="translate(-149.861 -518.347)" fill="#fcecdb"/>
              <path id="Trazado_186498" data-name="Trazado 186498" d="M387.284,692.1a8.24,8.24,0,1,1,10.61-4.817,8.239,8.239,0,0,1-10.61,4.817" transform="translate(-321.528 -569.198)" fill="#f7e0cb"/>
              <path id="Trazado_186499" data-name="Trazado 186499" d="M400.706,687.282l-15.428-5.793a8.24,8.24,0,0,1,15.428,5.793" transform="translate(-324.339 -569.198)" fill="#efcbab"/>
              <path id="Trazado_186500" data-name="Trazado 186500" d="M223.565,690.778a8.24,8.24,0,1,1,11.594-1.172,8.239,8.239,0,0,1-11.594,1.172" transform="translate(-185.654 -569.208)" fill="#f7e0cb"/>
              <path id="Trazado_186501" data-name="Trazado 186501" d="M245.044,689.605l-12.766-10.421a8.24,8.24,0,0,1,12.766,10.421" transform="translate(-195.539 -569.208)" fill="#efcbab"/>
              <path id="Trazado_186502" data-name="Trazado 186502" d="M387.284,1009.884a8.24,8.24,0,1,1,10.61-4.817,8.239,8.239,0,0,1-10.61,4.817" transform="translate(-321.528 -836.72)" fill="#f7e0cb"/>
              <path id="Trazado_186503" data-name="Trazado 186503" d="M400.706,1008.607l-15.428-5.793a8.24,8.24,0,1,1,15.428,5.793" transform="translate(-324.339 -839.7)" fill="#efcbab"/>
              <path id="Trazado_186504" data-name="Trazado 186504" d="M223.565,1008.564a8.24,8.24,0,1,1,11.594-1.172,8.239,8.239,0,0,1-11.594,1.172" transform="translate(-185.654 -836.73)" fill="#f7e0cb"/>
              <path id="Trazado_186505" data-name="Trazado 186505" d="M245.044,1010.931l-12.766-10.421a8.24,8.24,0,0,1,12.766,10.421" transform="translate(-195.539 -839.71)" fill="#efcbab"/>
              <path id="Trazado_186506" data-name="Trazado 186506" d="M393.711,856.642a8.24,8.24,0,1,1,3.917-10.975,8.239,8.239,0,0,1-3.917,10.975" transform="translate(-321.529 -707.942)" fill="#f7e0cb"/>
              <path id="Trazado_186507" data-name="Trazado 186507" d="M397.628,845.668l-14.891,7.058a8.24,8.24,0,1,1,14.891-7.058" transform="translate(-321.53 -707.942)" fill="#efcbab"/>
              <path id="Trazado_186508" data-name="Trazado 186508" d="M221.118,846.132a8.24,8.24,0,1,1,4.588,10.712,8.239,8.239,0,0,1-4.588-10.712" transform="translate(-185.646 -707.939)" fill="#f7e0cb"/>
              <path id="Trazado_186509" data-name="Trazado 186509" d="M253.275,860l6.123-15.3a8.24,8.24,0,0,1-6.123,15.3" transform="translate(-213.215 -711.091)" fill="#efcbab"/>
              <g id="Grupo_178167" data-name="Grupo 178167" transform="translate(37.015 114.244)" opacity="0.5">
                <g id="Grupo_178166" data-name="Grupo 178166">
                  <g id="Grupo_178165" data-name="Grupo 178165" clip-path="url(#clip-path-9)">
                    <path id="Trazado_186510" data-name="Trazado 186510" d="M280.626,722.292v59.032a7.031,7.031,0,0,1-6.926,7.092H236.8a6.71,6.71,0,0,1-2.78-.6V730.464a8.241,8.241,0,0,1,2.538-5.962,8.015,8.015,0,0,1,1.95-1.379,7.756,7.756,0,0,1,3.494-.831Z" transform="translate(-234.023 -722.292)" fill="#efcbab"/>
                  </g>
                </g>
              </g>
              <path id="Trazado_186511" data-name="Trazado 186511" d="M242.35,800.109V732.271a7.592,7.592,0,0,1,7.57-7.57h40.322a7.592,7.592,0,0,1,7.57,7.57v67.838a7.592,7.592,0,0,1-7.57,7.569H249.92a7.592,7.592,0,0,1-7.57-7.569" transform="translate(-204.018 -610.076)" fill="#fcecdb"/>
              <path id="Trazado_186512" data-name="Trazado 186512" d="M451.615,801.066a8.24,8.24,0,1,1,10.61-4.818,8.239,8.239,0,0,1-10.61,4.818" transform="translate(-375.684 -660.93)" fill="#f7e0cb"/>
              <path id="Trazado_186513" data-name="Trazado 186513" d="M465.036,796.249l-15.428-5.793a8.24,8.24,0,1,1,15.428,5.793" transform="translate(-378.494 -660.93)" fill="#efcbab"/>
              <path id="Trazado_186514" data-name="Trazado 186514" d="M287.9,799.745a8.24,8.24,0,1,1,11.593-1.172,8.238,8.238,0,0,1-11.593,1.172" transform="translate(-239.81 -660.94)" fill="#f7e0cb"/>
              <path id="Trazado_186515" data-name="Trazado 186515" d="M309.375,798.573l-12.766-10.421a8.24,8.24,0,1,1,12.766,10.421" transform="translate(-249.695 -660.94)" fill="#efcbab"/>
              <path id="Trazado_186516" data-name="Trazado 186516" d="M451.615,1118.852a8.24,8.24,0,1,1,10.61-4.817,8.239,8.239,0,0,1-10.61,4.817" transform="translate(-375.684 -928.453)" fill="#f7e0cb"/>
              <path id="Trazado_186517" data-name="Trazado 186517" d="M465.036,1117.575l-15.428-5.792a8.24,8.24,0,1,1,15.428,5.792" transform="translate(-378.494 -931.433)" fill="#efcbab"/>
              <path id="Trazado_186518" data-name="Trazado 186518" d="M287.9,1117.532a8.24,8.24,0,1,1,11.593-1.173,8.239,8.239,0,0,1-11.593,1.173" transform="translate(-239.81 -928.463)" fill="#f7e0cb"/>
              <path id="Trazado_186519" data-name="Trazado 186519" d="M309.375,1119.9l-12.766-10.422a8.24,8.24,0,1,1,12.766,10.422" transform="translate(-249.695 -931.442)" fill="#efcbab"/>
              <path id="Trazado_186520" data-name="Trazado 186520" d="M458.042,965.61a8.24,8.24,0,1,1,3.917-10.975,8.239,8.239,0,0,1-3.917,10.975" transform="translate(-375.685 -799.675)" fill="#f7e0cb"/>
              <path id="Trazado_186521" data-name="Trazado 186521" d="M461.959,954.635l-14.892,7.058a8.24,8.24,0,0,1,14.892-7.058" transform="translate(-375.685 -799.674)" fill="#efcbab"/>
              <path id="Trazado_186522" data-name="Trazado 186522" d="M285.449,955.1a8.24,8.24,0,1,1,4.588,10.712,8.239,8.239,0,0,1-4.588-10.712" transform="translate(-239.802 -799.672)" fill="#f7e0cb"/>
              <path id="Trazado_186523" data-name="Trazado 186523" d="M317.607,968.963l6.123-15.3a8.24,8.24,0,1,1-6.123,15.3" transform="translate(-267.371 -802.824)" fill="#efcbab"/>
              <rect id="Rectángulo_46598" data-name="Rectángulo 46598" width="63.329" height="94.511" transform="translate(24.223 141.685)" fill="#ef7e29"/>
              <rect id="Rectángulo_46599" data-name="Rectángulo 46599" width="63.329" height="94.511" transform="translate(33.044 141.684)" fill="#f99746"/>
              <path id="Trazado_186524" data-name="Trazado 186524" d="M161.967,901.265l-3.035,4.72h-5.786v-10.2h8.821Z" transform="translate(-128.923 -754.096)" fill="#d8661a"/>
              <path id="Trazado_186525" data-name="Trazado 186525" d="M127.765,903.227h-8.821l5.409-7.446h8.821Z" transform="translate(-100.131 -754.097)" fill="#f99746"/>
              <g id="Grupo_178170" data-name="Grupo 178170" transform="translate(33.044 145.991)" opacity="0.5">
                <g id="Grupo_178169" data-name="Grupo 178169">
                  <g id="Grupo_178168" data-name="Grupo 178168" clip-path="url(#clip-path-10)">
                    <path id="Trazado_186526" data-name="Trazado 186526" d="M241.581,1013.515H208.918V923.009l32.663,3.139Z" transform="translate(-208.918 -923.009)" fill="#efcbab"/>
                  </g>
                </g>
              </g>
              <path id="Trazado_186527" data-name="Trazado 186527" d="M272.247,903.225l-5.138,2.758H211.97l-3.053-4.72v-5.484Z" transform="translate(-175.873 -754.094)" fill="#ef7e29"/>
              <path id="Trazado_186528" data-name="Trazado 186528" d="M276.717,903.227H213.387l-4.474-7.446h63.329Z" transform="translate(-175.87 -754.097)" fill="#f99746"/>
              <path id="Trazado_186529" data-name="Trazado 186529" d="M75.79,1191.355H7.668A7.691,7.691,0,0,1,0,1183.687v-41.245a7.69,7.69,0,0,1,7.668-7.668H75.79a7.69,7.69,0,0,1,7.668,7.668v41.245a7.69,7.69,0,0,1-7.668,7.668" transform="translate(0 -955.288)" fill="#fcecdb"/>
              <path id="Trazado_186530" data-name="Trazado 186530" d="M76.808,1189.5a8.253,8.253,0,0,1-10.672,4.914,8.442,8.442,0,0,1-4.845-10.824,8.254,8.254,0,0,1,10.672-4.915,8.443,8.443,0,0,1,4.845,10.825" transform="translate(-51.149 -991.796)" fill="#f7e0cb"/>
              <path id="Trazado_186531" data-name="Trazado 186531" d="M71.962,1178.68l-5.826,15.739a8.442,8.442,0,0,1-4.845-10.825,8.254,8.254,0,0,1,10.672-4.914" transform="translate(-51.149 -991.796)" fill="#efcbab"/>
              <path id="Trazado_186532" data-name="Trazado 186532" d="M75.478,1356.55a8.207,8.207,0,0,1-11.661,1.2,8.488,8.488,0,0,1-1.179-11.828,8.209,8.209,0,0,1,11.661-1.2,8.489,8.489,0,0,1,1.179,11.827" transform="translate(-51.159 -1130.435)" fill="#f7e0cb"/>
              <path id="Trazado_186533" data-name="Trazado 186533" d="M74.3,1344.723l-10.482,13.023a8.488,8.488,0,0,1-1.179-11.828,8.209,8.209,0,0,1,11.661-1.2" transform="translate(-51.159 -1130.435)" fill="#efcbab"/>
              <path id="Trazado_186534" data-name="Trazado 186534" d="M396.434,1189.5a8.253,8.253,0,0,1-10.672,4.914,8.442,8.442,0,0,1-4.845-10.824,8.254,8.254,0,0,1,10.672-4.915,8.443,8.443,0,0,1,4.845,10.825" transform="translate(-320.221 -991.796)" fill="#f7e0cb"/>
              <path id="Trazado_186535" data-name="Trazado 186535" d="M391.6,1178.68l-5.826,15.739a8.442,8.442,0,0,1-4.845-10.825,8.254,8.254,0,0,1,10.672-4.914" transform="translate(-320.231 -991.796)" fill="#efcbab"/>
              <path id="Trazado_186536" data-name="Trazado 186536" d="M395.105,1356.547a8.2,8.2,0,0,1-11.289,1.483c-.126-.089-.249-.187-.371-.287a8.487,8.487,0,0,1-1.178-11.827,8.206,8.206,0,0,1,11.66-1.2c.121.1.237.2.352.308a8.492,8.492,0,0,1,.827,11.519" transform="translate(-320.231 -1130.431)" fill="#f7e0cb"/>
              <path id="Trazado_186537" data-name="Trazado 186537" d="M394.279,1345.028l-10.463,13c-.126-.089-.249-.187-.371-.287a8.487,8.487,0,0,1-1.178-11.827,8.206,8.206,0,0,1,11.66-1.2c.121.1.237.2.352.308" transform="translate(-320.231 -1130.431)" fill="#efcbab"/>
              <path id="Trazado_186538" data-name="Trazado 186538" d="M242.305,1182.951a8.459,8.459,0,0,1-3.94,11.2,8.237,8.237,0,0,1-11.038-4,8.46,8.46,0,0,1,3.94-11.2,8.238,8.238,0,0,1,11.038,4" transform="translate(-190.698 -991.797)" fill="#f7e0cb"/>
              <path id="Trazado_186539" data-name="Trazado 186539" d="M231.267,1183.275l7.1,15.192a8.237,8.237,0,0,1-11.038-4,8.46,8.46,0,0,1,3.94-11.2" transform="translate(-190.698 -996.117)" fill="#efcbab"/>
              <path id="Trazado_186540" data-name="Trazado 186540" d="M231.733,1359.025a8.446,8.446,0,0,1-4.615-10.927,8.248,8.248,0,0,1,10.773-4.681,8.447,8.447,0,0,1,4.615,10.927,8.249,8.249,0,0,1-10.773,4.681" transform="translate(-190.694 -1130.421)" fill="#f7e0cb"/>
              <path id="Trazado_186541" data-name="Trazado 186541" d="M245.677,1354.344l-15.388-6.247a8.248,8.248,0,0,1,10.774-4.681,8.447,8.447,0,0,1,4.615,10.927" transform="translate(-193.865 -1130.421)" fill="#efcbab"/>
              <path id="Trazado_186542" data-name="Trazado 186542" d="M864.734,1414.384a6.8,6.8,0,0,1-6.775,6.776h-32a6.775,6.775,0,0,1,0-13.55h32a6.8,6.8,0,0,1,6.775,6.774" transform="translate(-689.62 -1184.97)" fill="#2b478b"/>
              <path id="Trazado_186543" data-name="Trazado 186543" d="M848.229,1414.384a6.795,6.795,0,0,1-6.774,6.776H825.963a6.775,6.775,0,0,1,0-13.55h15.492a6.794,6.794,0,0,1,6.774,6.774" transform="translate(-689.62 -1184.97)" fill="#699ff0"/>
              <g id="Grupo_178173" data-name="Grupo 178173" transform="translate(137.402 224.142)" opacity="0.4">
                <g id="Grupo_178172" data-name="Grupo 178172">
                  <g id="Grupo_178171" data-name="Grupo 178171" clip-path="url(#clip-path-11)">
                    <path id="Trazado_186544" data-name="Trazado 186544" d="M900.183,1419.244H869.664a.963.963,0,0,1-.96-.96v-.216a.963.963,0,0,1,.96-.96h30.518a.963.963,0,0,1,.96.96v.216a.963.963,0,0,1-.96.96" transform="translate(-868.704 -1417.107)" fill="#e9f3fe"/>
                  </g>
                </g>
              </g>
              <path id="Trazado_186545" data-name="Trazado 186545" d="M700.741,1308.037a7.207,7.207,0,0,1-3.2,9.64l-30.326,15.2a7.182,7.182,0,0,1-6.436-12.842l30.326-15.2a7.2,7.2,0,0,1,9.639,3.2" transform="translate(-552.929 -1097.814)" fill="#ef7e29"/>
              <path id="Trazado_186546" data-name="Trazado 186546" d="M685.1,1357.6a7.2,7.2,0,0,1-3.2,9.639l-14.684,7.359a7.182,7.182,0,0,1-6.436-12.842l14.684-7.359a7.2,7.2,0,0,1,9.637,3.2" transform="translate(-552.929 -1139.534)" fill="#f99746"/>
              <g id="Grupo_178176" data-name="Grupo 178176" transform="translate(109.912 208.081)" opacity="0.5">
                <g id="Grupo_178175" data-name="Grupo 178175">
                  <g id="Grupo_178174" data-name="Grupo 178174" clip-path="url(#clip-path-12)">
                    <path id="Trazado_186547" data-name="Trazado 186547" d="M725.409,1317.693l-28.926,14.5a1.021,1.021,0,0,1-1.366-.454l-.1-.206a1.021,1.021,0,0,1,.454-1.366l28.926-14.5a1.021,1.021,0,0,1,1.366.454l.1.206a1.02,1.02,0,0,1-.454,1.365" transform="translate(-694.906 -1315.56)" fill="#ffe2cc"/>
                  </g>
                </g>
              </g>
              <path id="Trazado_186548" data-name="Trazado 186548" d="M2162.876,1433.019a5.093,5.093,0,0,1-5.076,5.076h-23.971a5.075,5.075,0,0,1,0-10.151H2157.8a5.091,5.091,0,0,1,5.076,5.075" transform="translate(-1792.052 -1202.088)" fill="#ef7e29"/>
              <path id="Trazado_186549" data-name="Trazado 186549" d="M2150.51,1433.019a5.093,5.093,0,0,1-5.076,5.076h-11.606a5.075,5.075,0,0,1,0-10.151h11.606a5.091,5.091,0,0,1,5.076,5.075" transform="translate(-1792.052 -1202.088)" fill="#f99746"/>
              <g id="Grupo_178179" data-name="Grupo 178179" transform="translate(342.569 226.982)" opacity="0.5">
                <g id="Grupo_178178" data-name="Grupo 178178">
                  <g id="Grupo_178177" data-name="Grupo 178177" clip-path="url(#clip-path-13)">
                    <path id="Trazado_186550" data-name="Trazado 186550" d="M2189.434,1436.66h-22.865a.721.721,0,0,1-.719-.719v-.162a.721.721,0,0,1,.719-.719h22.865a.722.722,0,0,1,.72.719v.162a.722.722,0,0,1-.72.719" transform="translate(-2165.85 -1435.059)" fill="#ffe2cc"/>
                  </g>
                </g>
              </g>
            </g>
          </g>
        </g>
      </g>
    </g>
  </g>
</svg>
