<svg xmlns="http://www.w3.org/2000/svg" width="275" height="425" viewBox="0 0 275 425">
  <g id="Grupo_178789" data-name="Grupo 178789" transform="translate(-2342 -26)">
    <path id="Trazado_187651" data-name="Trazado 187651" d="M14,0H261a14,14,0,0,1,14,14V411a14,14,0,0,1-14,14H14A14,14,0,0,1,0,411V14A14,14,0,0,1,14,0Z" transform="translate(2342 26)" fill="#fff"/>
    <g id="Trazado_187652" data-name="Trazado 187652" transform="translate(2512.614 58)" fill="#d1cbcb">
      <path d="M 7.000200271606445 379.4998168945312 C 4.324650287628174 379.4998168945312 2.147900342941284 377.3230590820312 2.147900342941284 374.6475219726562 L 2.147900342941284 340.7409057617188 C 2.147900342941284 339.9599609375 2.327500343322754 339.2145690917969 2.681700468063354 338.5253601074219 L 2.854900360107422 338.1884155273438 L 2.577350378036499 337.9305114746094 C 1.257750391960144 336.704345703125 0.5009003877639771 334.9685974121094 0.5009003877639771 333.1683044433594 L 0.5009003877639771 6.999308586120605 C 0.5009003877639771 3.415558338165283 3.416450500488281 0.5000084638595581 7.000200271606445 0.5000084638595581 C 10.58440017700195 0.5000084638595581 13.50040054321289 3.415558338165283 13.50040054321289 6.999308586120605 L 13.50040054321289 333.1683044433594 C 13.50040054321289 334.96826171875 12.74345016479492 336.7039489746094 11.42365074157715 337.9303588867188 L 11.14610004425049 338.1882934570312 L 11.31935024261475 338.5252685546875 C 11.6737003326416 339.2145690917969 11.85340023040771 339.9600219726562 11.85340023040771 340.7409057617188 L 11.85340023040771 374.6475219726562 C 11.85340023040771 377.3230590820312 9.676250457763672 379.4998168945312 7.000200271606445 379.4998168945312 Z" stroke="none"/>
      <path d="M 7.000200271606445 378.9998168945312 C 9.400550842285156 378.9998168945312 11.35340023040771 377.04736328125 11.35340023040771 374.6475219726562 L 11.35340023040771 340.7409057617188 C 11.35340023040771 340.0403137207031 11.19235038757324 339.3717651367188 10.87465000152588 338.75390625 L 10.52815055847168 338.0799560546875 L 11.08330059051514 337.5641174316406 C 12.30165004730225 336.4319458007812 13.00040054321289 334.8297729492188 13.00040054321289 333.1683044433594 L 13.00040054321289 6.999308586120605 C 13.00040054321289 3.691258430480957 10.30870056152344 1.000008463859558 7.000200271606445 1.000008463859558 C 3.692150354385376 1.000008463859558 1.000900387763977 3.691258430480957 1.000900387763977 6.999308586120605 L 1.000900387763977 333.1683044433594 C 1.000900387763977 334.8301086425781 1.69955039024353 336.432373046875 2.917700290679932 337.5642700195312 L 3.472750425338745 338.0800170898438 L 3.126400470733643 338.75390625 C 2.808900356292725 339.3717041015625 2.647900342941284 340.0402221679688 2.647900342941284 340.7409057617188 L 2.647900342941284 374.6475219726562 C 2.647900342941284 377.04736328125 4.600350379943848 378.9998168945312 7.000200271606445 378.9998168945312 M 7.000200271606445 379.9998168945312 C 4.043700218200684 379.9998168945312 1.647900462150574 377.6031188964844 1.647900462150574 374.6475219726562 L 1.647900462150574 340.7409057617188 C 1.647900462150574 339.8603210449219 1.860400438308716 339.0295715332031 2.237000465393066 338.2968139648438 C 0.8614504337310791 337.0186462402344 0.0009004058665595949 335.1940002441406 0.0009004058665595949 333.1683044433594 L 0.0009004058665595949 6.999308586120605 C 0.0009004058665595949 3.133808374404907 3.134700298309326 8.447265827271622e-06 7.000200271606445 8.447265827271622e-06 C 10.86570072174072 8.447265827271622e-06 14.00040054321289 3.133808374404907 14.00040054321289 6.999308586120605 L 14.00040054321289 333.1683044433594 C 14.00040054321289 335.1938171386719 13.13950061798096 337.0184936523438 11.76399993896484 338.2966613769531 C 12.140700340271 339.0293579101562 12.35340023040771 339.8603210449219 12.35340023040771 340.7409057617188 L 12.35340023040771 374.6475219726562 C 12.35340023040771 377.6031188964844 9.956700325012207 379.9998168945312 7.000200271606445 379.9998168945312 Z" stroke="none" fill="#31313c"/>
    </g>
    <path id="Trazado_187653" data-name="Trazado 187653" d="M1.5,0h6a1.5,1.5,0,0,1,0,3h-6a1.5,1.5,0,0,1,0-3Z" transform="translate(2514.614 395)" fill="#e55242"/>
    <path id="Trazado_187654" data-name="Trazado 187654" d="M2.79,0H312.358a2.79,2.79,0,1,1,0,5.581H2.79A2.79,2.79,0,0,1,2.79,0Z" transform="translate(2516.403 435.421) rotate(-90)" fill="#e55242"/>
    <path id="Trazado_187655" data-name="Trazado 187655" d="M1.594,0H40.26a1.594,1.594,0,1,1,0,3.189H1.594A1.594,1.594,0,0,1,1.594,0Z" transform="translate(2517.998 435.421) rotate(-90)" fill="#ea8f68"/>
    <path id="Trazado_187656" data-name="Trazado 187656" d="M0,0H11.958" transform="translate(2514.41 120.12)" fill="none" stroke="#31313c" stroke-width="1"/>
    <path id="Trazado_187657" data-name="Trazado 187657" d="M0,0H11.958" transform="translate(2514.41 142.442)" fill="none" stroke="#31313c" stroke-width="1"/>
    <path id="Trazado_187658" data-name="Trazado 187658" d="M0,0H11.958" transform="translate(2514.41 163.968)" fill="none" stroke="#31313c" stroke-width="1"/>
    <path id="Trazado_187659" data-name="Trazado 187659" d="M0,0H11.958" transform="translate(2514.41 186.29)" fill="none" stroke="#31313c" stroke-width="1"/>
    <path id="Trazado_187660" data-name="Trazado 187660" d="M0,0H11.958" transform="translate(2514.41 210.206)" fill="none" stroke="#31313c" stroke-width="1"/>
    <path id="Trazado_187661" data-name="Trazado 187661" d="M0,0H11.958" transform="translate(2514.41 231.731)" fill="none" stroke="#31313c" stroke-width="1"/>
    <path id="Trazado_187662" data-name="Trazado 187662" d="M0,0H11.958" transform="translate(2514.41 254.054)" fill="none" stroke="#31313c" stroke-width="1"/>
    <path id="Trazado_187663" data-name="Trazado 187663" d="M0,0H11.958" transform="translate(2514.41 276.376)" fill="none" stroke="#31313c" stroke-width="1"/>
    <path id="Trazado_187664" data-name="Trazado 187664" d="M0,0H11.958" transform="translate(2514.41 298.697)" fill="none" stroke="#31313c" stroke-width="1"/>
    <path id="Trazado_187665" data-name="Trazado 187665" d="M0,0H11.958" transform="translate(2514.41 321.02)" fill="none" stroke="#31313c" stroke-width="1"/>
    <path id="Trazado_187666" data-name="Trazado 187666" d="M0,0H11.958" transform="translate(2514.41 343.342)" fill="none" stroke="#31313c" stroke-width="1"/>
    <path id="Trazado_187667" data-name="Trazado 187667" d="M0,0H11.958" transform="translate(2514.41 365.664)" fill="none" stroke="#31313c" stroke-width="1"/>
    <path id="Trazado_187668" data-name="Trazado 187668" d="M0,0H11.958" transform="translate(2514.41 387.986)" fill="none" stroke="#31313c" stroke-width="1"/>
    <path id="Trazado_187669" data-name="Trazado 187669" d="M0,0H9.567" transform="translate(2516.802 132.079)" fill="none" stroke="#31313c" stroke-width="1"/>
    <path id="Trazado_187670" data-name="Trazado 187670" d="M0,0H9.567" transform="translate(2516.802 154.401)" fill="none" stroke="#31313c" stroke-width="1"/>
    <path id="Trazado_187671" data-name="Trazado 187671" d="M0,0H9.567" transform="translate(2516.802 175.926)" fill="none" stroke="#31313c" stroke-width="1"/>
    <path id="Trazado_187672" data-name="Trazado 187672" d="M0,0H9.567" transform="translate(2516.802 198.248)" fill="none" stroke="#31313c" stroke-width="1"/>
    <path id="Trazado_187673" data-name="Trazado 187673" d="M0,0H9.567" transform="translate(2516.802 222.165)" fill="none" stroke="#31313c" stroke-width="1"/>
    <path id="Trazado_187674" data-name="Trazado 187674" d="M0,0H9.567" transform="translate(2516.802 243.689)" fill="none" stroke="#31313c" stroke-width="1"/>
    <path id="Trazado_187675" data-name="Trazado 187675" d="M0,0H9.567" transform="translate(2516.802 266.012)" fill="none" stroke="#31313c" stroke-width="1"/>
    <path id="Trazado_187676" data-name="Trazado 187676" d="M0,0H9.567" transform="translate(2516.802 288.334)" fill="none" stroke="#31313c" stroke-width="1"/>
    <path id="Trazado_187677" data-name="Trazado 187677" d="M0,0H9.567" transform="translate(2516.802 310.656)" fill="none" stroke="#31313c" stroke-width="1"/>
    <path id="Trazado_187678" data-name="Trazado 187678" d="M0,0H9.567" transform="translate(2516.802 332.979)" fill="none" stroke="#31313c" stroke-width="1"/>
    <path id="Trazado_187679" data-name="Trazado 187679" d="M0,0H9.567" transform="translate(2516.802 355.3)" fill="none" stroke="#31313c" stroke-width="1"/>
    <path id="Trazado_187680" data-name="Trazado 187680" d="M0,0H9.567" transform="translate(2516.802 377.622)" fill="none" stroke="#31313c" stroke-width="1"/>
    <path id="Trazado_187681" data-name="Trazado 187681" d="M2.3-5.016h.9a1.271,1.271,0,0,0,.955-.322,1.181,1.181,0,0,0,.311-.855A1.044,1.044,0,0,0,4.163-7a1.192,1.192,0,0,0-.847-.287,1.25,1.25,0,0,0-.814.267.852.852,0,0,0-.328.694H.48a2.083,2.083,0,0,1,.36-1.2A2.4,2.4,0,0,1,1.849-8.35a3.364,3.364,0,0,1,1.427-.3A3.19,3.19,0,0,1,5.4-8a2.209,2.209,0,0,1,.768,1.784,1.8,1.8,0,0,1-.357,1.078,2.322,2.322,0,0,1-.937.756,2.12,2.12,0,0,1,1.075.773A2.1,2.1,0,0,1,6.3-2.391,2.246,2.246,0,0,1,5.47-.568,3.334,3.334,0,0,1,3.275.117,3.161,3.161,0,0,1,1.187-.557,2.2,2.2,0,0,1,.375-2.338H2.068a.981.981,0,0,0,.36.785,1.328,1.328,0,0,0,.888.3,1.334,1.334,0,0,0,.946-.319,1.1,1.1,0,0,0,.343-.847q0-1.277-1.406-1.277H2.3Zm10.963-2.57L9.967,0H8.18l3.3-7.166H7.242V-8.531h6.023Zm2.807,2.57h.9a1.271,1.271,0,0,0,.955-.322,1.181,1.181,0,0,0,.311-.855,1.044,1.044,0,0,0-.308-.8,1.192,1.192,0,0,0-.847-.287,1.25,1.25,0,0,0-.814.267.852.852,0,0,0-.328.694H14.25a2.083,2.083,0,0,1,.36-1.2,2.4,2.4,0,0,1,1.008-.829,3.364,3.364,0,0,1,1.427-.3A3.19,3.19,0,0,1,19.166-8a2.209,2.209,0,0,1,.768,1.784,1.8,1.8,0,0,1-.357,1.078,2.322,2.322,0,0,1-.937.756,2.12,2.12,0,0,1,1.075.773,2.1,2.1,0,0,1,.354,1.219,2.246,2.246,0,0,1-.829,1.822,3.334,3.334,0,0,1-2.194.686,3.161,3.161,0,0,1-2.089-.674,2.2,2.2,0,0,1-.812-1.781h1.693a.981.981,0,0,0,.36.785,1.328,1.328,0,0,0,.888.3,1.334,1.334,0,0,0,.946-.319,1.1,1.1,0,0,0,.343-.847q0-1.277-1.406-1.277h-.9Zm5.32,4.184a.852.852,0,0,1,.272-.656.967.967,0,0,1,.683-.252.975.975,0,0,1,.688.252.852.852,0,0,1,.272.656.841.841,0,0,1-.27.647.979.979,0,0,1-.691.249.971.971,0,0,1-.686-.249A.841.841,0,0,1,21.393-.832ZM28.834,0H27.141V-6.527L25.119-5.9V-7.277l3.533-1.266h.182Zm3.023-4.2.492-4.336h4.781v1.412H33.738l-.211,1.834a2.685,2.685,0,0,1,1.283-.322,2.459,2.459,0,0,1,1.91.756,3.019,3.019,0,0,1,.691,2.115,3.093,3.093,0,0,1-.349,1.479,2.461,2.461,0,0,1-1,1.014,3.119,3.119,0,0,1-1.535.36A3.312,3.312,0,0,1,33.094-.2a2.546,2.546,0,0,1-1.046-.882,2.4,2.4,0,0,1-.407-1.295h1.676a1.252,1.252,0,0,0,.372.829,1.18,1.18,0,0,0,.835.3,1.041,1.041,0,0,0,.885-.413,1.914,1.914,0,0,0,.311-1.169,1.582,1.582,0,0,0-.357-1.113,1.312,1.312,0,0,0-1.014-.387,1.466,1.466,0,0,0-.979.316l-.164.152Zm12.475.773-.914.984V0H41.66V-8.531h1.758v3.867l.773-1.061,2.174-2.807h2.162L45.5-4.74,48.615,0H46.523Z" transform="translate(2536.614 121)" fill="#12263f"/>
    <path id="Trazado_187682" data-name="Trazado 187682" d="M3.434-3.422l-.914.984V0H.762V-8.531H2.52v3.867l.773-1.061L5.467-8.531H7.629L4.6-4.74,7.717,0H5.625ZM11.186.117A3.112,3.112,0,0,1,8.915-.738a3.041,3.041,0,0,1-.876-2.279v-.164A3.83,3.83,0,0,1,8.408-4.89,2.709,2.709,0,0,1,9.454-6.05,2.936,2.936,0,0,1,11-6.457a2.631,2.631,0,0,1,2.048.82,3.333,3.333,0,0,1,.747,2.326v.691H9.756a1.573,1.573,0,0,0,.5,1,1.5,1.5,0,0,0,1.046.375,1.828,1.828,0,0,0,1.529-.709l.832.932a2.542,2.542,0,0,1-1.031.841A3.383,3.383,0,0,1,11.186.117Zm-.193-5.209a1.058,1.058,0,0,0-.817.341,1.768,1.768,0,0,0-.4.977h2.355v-.135a1.261,1.261,0,0,0-.3-.874A1.092,1.092,0,0,0,10.992-5.092ZM16.541,0h-1.7V-9h1.7Zm3.768-2.068L21.486-6.34h1.77L21.117,0H19.5L17.361-6.34h1.77ZM25.787,0h-1.7V-6.34h1.7Zm-1.8-7.98a.834.834,0,0,1,.255-.627.958.958,0,0,1,.694-.246.96.96,0,0,1,.691.246.829.829,0,0,1,.258.627.831.831,0,0,1-.261.633.962.962,0,0,1-.688.246.962.962,0,0,1-.688-.246A.831.831,0,0,1,23.988-7.98ZM28.74-6.34l.053.732a2.213,2.213,0,0,1,1.822-.85,1.84,1.84,0,0,1,1.5.592,2.761,2.761,0,0,1,.5,1.77V0H30.926V-4.055a1.1,1.1,0,0,0-.234-.782,1.049,1.049,0,0,0-.779-.243,1.165,1.165,0,0,0-1.072.609V0H27.146V-6.34Z" transform="translate(2497.614 51)" fill="#12263f"/>
    <path id="Trazado_187683" data-name="Trazado 187683" d="M3.943-2.971H.645V-4.336h3.3Zm6.3-.24h.967v1.365h-.967V0H8.549V-1.846h-3.5L4.975-2.912,8.531-8.531h1.711Zm-3.58,0H8.549V-6.223l-.111.193Zm11.2-.316A4.322,4.322,0,0,1,17.127-.82a2.557,2.557,0,0,1-2.145.938A2.574,2.574,0,0,1,12.85-.8a4.2,4.2,0,0,1-.756-2.637V-5.01a4.265,4.265,0,0,1,.741-2.713,2.576,2.576,0,0,1,2.136-.926,2.578,2.578,0,0,1,2.133.917A4.182,4.182,0,0,1,17.859-5.1ZM16.166-5.254a3.124,3.124,0,0,0-.29-1.546.98.98,0,0,0-.905-.484.963.963,0,0,0-.882.46,2.924,2.924,0,0,0-.3,1.44v2.076a3.279,3.279,0,0,0,.284,1.551.967.967,0,0,0,.911.507.951.951,0,0,0,.9-.487,3.2,3.2,0,0,0,.287-1.49Zm2.481-.629a2.193,2.193,0,0,1,.212-.981,1.551,1.551,0,0,1,.61-.666,1.78,1.78,0,0,1,.925-.236,1.684,1.684,0,0,1,1.222.458,1.838,1.838,0,0,1,.528,1.244l.007.253a1.933,1.933,0,0,1-.475,1.365,1.651,1.651,0,0,1-1.275.514,1.66,1.66,0,0,1-1.277-.513,1.967,1.967,0,0,1-.477-1.394Zm.988.07a1.382,1.382,0,0,0,.2.806.654.654,0,0,0,.567.279A.655.655,0,0,0,20.961-5a1.513,1.513,0,0,0,.2-.881,1.368,1.368,0,0,0-.2-.8.655.655,0,0,0-.567-.284.645.645,0,0,0-.561.282A1.538,1.538,0,0,0,19.635-5.813Zm10.2,2.971A3.019,3.019,0,0,1,28.822-.674a3.57,3.57,0,0,1-2.417.791,3.21,3.21,0,0,1-2.581-1.1,4.529,4.529,0,0,1-.94-3.032v-.521a5.114,5.114,0,0,1,.434-2.168,3.249,3.249,0,0,1,1.239-1.438,3.471,3.471,0,0,1,1.872-.5,3.478,3.478,0,0,1,2.379.791A3.244,3.244,0,0,1,29.85-5.637H28.093a1.782,1.782,0,0,0-.46-1.2,1.7,1.7,0,0,0-1.2-.372,1.494,1.494,0,0,0-1.315.63,3.53,3.53,0,0,0-.448,1.954v.645a3.778,3.778,0,0,0,.419,2.021,1.466,1.466,0,0,0,1.321.639,1.735,1.735,0,0,0,1.216-.372,1.681,1.681,0,0,0,.46-1.151Z" transform="translate(2372 378)" fill="#12263f"/>
    <path id="Trazado_187684" data-name="Trazado 187684" d="M6.322-3.527A4.322,4.322,0,0,1,5.59-.82,2.557,2.557,0,0,1,3.445.117,2.574,2.574,0,0,1,1.313-.8,4.2,4.2,0,0,1,.557-3.439V-5.01A4.265,4.265,0,0,1,1.3-7.723a2.576,2.576,0,0,1,2.136-.926,2.578,2.578,0,0,1,2.133.917A4.182,4.182,0,0,1,6.322-5.1ZM4.629-5.254A3.124,3.124,0,0,0,4.339-6.8a.98.98,0,0,0-.905-.484.963.963,0,0,0-.882.46,2.924,2.924,0,0,0-.3,1.44v2.076a3.279,3.279,0,0,0,.284,1.551.967.967,0,0,0,.911.507.951.951,0,0,0,.9-.487,3.2,3.2,0,0,0,.287-1.49ZM7.11-5.883a2.193,2.193,0,0,1,.212-.981,1.551,1.551,0,0,1,.61-.666,1.78,1.78,0,0,1,.925-.236,1.684,1.684,0,0,1,1.222.458,1.838,1.838,0,0,1,.528,1.244l.007.253a1.933,1.933,0,0,1-.475,1.365,1.651,1.651,0,0,1-1.275.514,1.66,1.66,0,0,1-1.277-.513A1.967,1.967,0,0,1,7.11-5.839Zm.988.07a1.382,1.382,0,0,0,.2.806.654.654,0,0,0,.567.279A.655.655,0,0,0,9.424-5a1.513,1.513,0,0,0,.2-.881,1.368,1.368,0,0,0-.2-.8.655.655,0,0,0-.567-.284.645.645,0,0,0-.561.282A1.538,1.538,0,0,0,8.1-5.813ZM18.3-2.842A3.019,3.019,0,0,1,17.285-.674a3.57,3.57,0,0,1-2.417.791,3.21,3.21,0,0,1-2.581-1.1,4.529,4.529,0,0,1-.94-3.032v-.521a5.114,5.114,0,0,1,.434-2.168,3.249,3.249,0,0,1,1.239-1.438,3.471,3.471,0,0,1,1.872-.5,3.478,3.478,0,0,1,2.379.791,3.244,3.244,0,0,1,1.043,2.221H16.555a1.782,1.782,0,0,0-.46-1.2,1.7,1.7,0,0,0-1.2-.372,1.494,1.494,0,0,0-1.315.63,3.53,3.53,0,0,0-.448,1.954v.645a3.778,3.778,0,0,0,.419,2.021,1.466,1.466,0,0,0,1.321.639,1.735,1.735,0,0,0,1.216-.372,1.681,1.681,0,0,0,.46-1.151Z" transform="translate(2385.526 292.5)" fill="#12263f"/>
    <path id="Trazado_187685" data-name="Trazado 187685" d="M4.693,0H3V-6.527L.979-5.9V-7.277L4.512-8.543h.182Zm8.514-3.527A4.322,4.322,0,0,1,12.475-.82,2.557,2.557,0,0,1,10.33.117,2.574,2.574,0,0,1,8.2-.8a4.2,4.2,0,0,1-.756-2.637V-5.01a4.265,4.265,0,0,1,.741-2.713,2.576,2.576,0,0,1,2.136-.926,2.578,2.578,0,0,1,2.133.917A4.182,4.182,0,0,1,13.207-5.1ZM11.514-5.254a3.124,3.124,0,0,0-.29-1.546.98.98,0,0,0-.905-.484.963.963,0,0,0-.882.46,2.924,2.924,0,0,0-.3,1.44v2.076a3.279,3.279,0,0,0,.284,1.551.967.967,0,0,0,.911.507.951.951,0,0,0,.9-.487,3.2,3.2,0,0,0,.287-1.49Zm8.578,1.727A4.322,4.322,0,0,1,19.359-.82a2.557,2.557,0,0,1-2.145.938A2.574,2.574,0,0,1,15.082-.8a4.2,4.2,0,0,1-.756-2.637V-5.01a4.265,4.265,0,0,1,.741-2.713A2.576,2.576,0,0,1,17.2-8.648a2.578,2.578,0,0,1,2.133.917A4.182,4.182,0,0,1,20.092-5.1ZM18.4-5.254a3.124,3.124,0,0,0-.29-1.546.98.98,0,0,0-.905-.484.963.963,0,0,0-.882.46,2.924,2.924,0,0,0-.3,1.44v2.076A3.279,3.279,0,0,0,16.3-1.755a.967.967,0,0,0,.911.507.951.951,0,0,0,.9-.487,3.2,3.2,0,0,0,.287-1.49Zm2.481-.629a2.193,2.193,0,0,1,.212-.981,1.551,1.551,0,0,1,.61-.666,1.78,1.78,0,0,1,.925-.236,1.684,1.684,0,0,1,1.222.458,1.838,1.838,0,0,1,.528,1.244l.007.253a1.933,1.933,0,0,1-.475,1.365,1.651,1.651,0,0,1-1.275.514,1.66,1.66,0,0,1-1.277-.513,1.967,1.967,0,0,1-.477-1.394Zm.988.07a1.382,1.382,0,0,0,.2.806.654.654,0,0,0,.567.279A.655.655,0,0,0,23.194-5a1.513,1.513,0,0,0,.2-.881,1.368,1.368,0,0,0-.2-.8.655.655,0,0,0-.567-.284.645.645,0,0,0-.561.282A1.538,1.538,0,0,0,21.868-5.813Zm10.2,2.971A3.019,3.019,0,0,1,31.054-.674a3.57,3.57,0,0,1-2.417.791,3.21,3.21,0,0,1-2.581-1.1,4.529,4.529,0,0,1-.94-3.032v-.521a5.114,5.114,0,0,1,.434-2.168,3.249,3.249,0,0,1,1.239-1.438,3.471,3.471,0,0,1,1.872-.5,3.478,3.478,0,0,1,2.379.791,3.244,3.244,0,0,1,1.043,2.221H30.325a1.782,1.782,0,0,0-.46-1.2,1.7,1.7,0,0,0-1.2-.372,1.494,1.494,0,0,0-1.315.63A3.53,3.53,0,0,0,26.9-4.623v.645a3.778,3.778,0,0,0,.419,2.021,1.466,1.466,0,0,0,1.321.639,1.735,1.735,0,0,0,1.216-.372,1.681,1.681,0,0,0,.46-1.151Z" transform="translate(2372 121.5)" fill="#12263f"/>
    <path id="Trazado_187686" data-name="Trazado 187686" d="M.226-5.883a2.193,2.193,0,0,1,.212-.981,1.551,1.551,0,0,1,.61-.666,1.78,1.78,0,0,1,.925-.236,1.684,1.684,0,0,1,1.222.458,1.838,1.838,0,0,1,.528,1.244l.007.253a1.933,1.933,0,0,1-.475,1.365,1.651,1.651,0,0,1-1.275.514A1.66,1.66,0,0,1,.7-4.444,1.967,1.967,0,0,1,.226-5.839Zm.988.07a1.382,1.382,0,0,0,.2.806.654.654,0,0,0,.567.279A.655.655,0,0,0,2.539-5a1.513,1.513,0,0,0,.2-.881,1.368,1.368,0,0,0-.2-.8.655.655,0,0,0-.567-.284.645.645,0,0,0-.561.282A1.538,1.538,0,0,0,1.213-5.813Zm10.2,2.971A3.019,3.019,0,0,1,10.4-.674,3.57,3.57,0,0,1,7.983.117,3.21,3.21,0,0,1,5.4-.987a4.529,4.529,0,0,1-.94-3.032v-.521A5.114,5.114,0,0,1,4.9-6.709,3.249,3.249,0,0,1,6.135-8.147a3.471,3.471,0,0,1,1.872-.5,3.478,3.478,0,0,1,2.379.791,3.244,3.244,0,0,1,1.043,2.221H9.671a1.782,1.782,0,0,0-.46-1.2,1.7,1.7,0,0,0-1.2-.372,1.494,1.494,0,0,0-1.315.63,3.53,3.53,0,0,0-.448,1.954v.645a3.778,3.778,0,0,0,.419,2.021,1.466,1.466,0,0,0,1.321.639A1.735,1.735,0,0,0,9.2-1.69a1.681,1.681,0,0,0,.46-1.151Zm9.416-1.529H15.595V-5.754h5.238Zm0,2.537H15.595V-3.217h5.238Zm7.254-1.588-.914.984V0H25.415V-8.531h1.758v3.867l.773-1.061L30.12-8.531h2.162L29.253-4.74,32.37,0H30.278ZM39.2-2.971H35.9V-4.336h3.3ZM49.327,0H43.479V-1.16L46.239-4.1a6.808,6.808,0,0,0,.841-1.084,1.742,1.742,0,0,0,.272-.879,1.3,1.3,0,0,0-.287-.894,1.036,1.036,0,0,0-.82-.325,1.118,1.118,0,0,0-.905.4,1.567,1.567,0,0,0-.331,1.04h-1.7a2.8,2.8,0,0,1,.372-1.424,2.622,2.622,0,0,1,1.052-1.011,3.2,3.2,0,0,1,1.541-.366,3.027,3.027,0,0,1,2.048.633,2.239,2.239,0,0,1,.729,1.787,2.868,2.868,0,0,1-.328,1.289A7.164,7.164,0,0,1,47.6-3.41L45.659-1.365h3.668Zm6.838-7.586L52.866,0H51.079l3.3-7.166H50.141V-8.531h6.023Zm2.807,2.57h.9a1.271,1.271,0,0,0,.955-.322,1.181,1.181,0,0,0,.311-.855,1.044,1.044,0,0,0-.308-.8,1.192,1.192,0,0,0-.847-.287,1.25,1.25,0,0,0-.814.267.852.852,0,0,0-.328.694H57.149a2.083,2.083,0,0,1,.36-1.2,2.4,2.4,0,0,1,1.008-.829,3.364,3.364,0,0,1,1.427-.3A3.19,3.19,0,0,1,62.065-8a2.209,2.209,0,0,1,.768,1.784,1.8,1.8,0,0,1-.357,1.078,2.322,2.322,0,0,1-.937.756,2.12,2.12,0,0,1,1.075.773,2.1,2.1,0,0,1,.354,1.219,2.246,2.246,0,0,1-.829,1.822,3.334,3.334,0,0,1-2.194.686,3.161,3.161,0,0,1-2.089-.674,2.2,2.2,0,0,1-.812-1.781h1.693a.981.981,0,0,0,.36.785,1.328,1.328,0,0,0,.888.3,1.334,1.334,0,0,0,.946-.319,1.1,1.1,0,0,0,.343-.847q0-1.277-1.406-1.277h-.9Zm5.32,4.184a.852.852,0,0,1,.272-.656.967.967,0,0,1,.683-.252.975.975,0,0,1,.688.252.852.852,0,0,1,.272.656.841.841,0,0,1-.27.647.979.979,0,0,1-.691.249.971.971,0,0,1-.686-.249A.841.841,0,0,1,64.292-.832ZM71.733,0H70.04V-6.527L68.018-5.9V-7.277l3.533-1.266h.182Zm3.023-4.2.492-4.336H80.03v1.412H76.637l-.211,1.834a2.685,2.685,0,0,1,1.283-.322,2.459,2.459,0,0,1,1.91.756,3.019,3.019,0,0,1,.691,2.115,3.093,3.093,0,0,1-.349,1.479,2.461,2.461,0,0,1-1,1.014,3.119,3.119,0,0,1-1.535.36A3.312,3.312,0,0,1,75.993-.2a2.546,2.546,0,0,1-1.046-.882,2.4,2.4,0,0,1-.407-1.295h1.676a1.252,1.252,0,0,0,.372.829,1.18,1.18,0,0,0,.835.3,1.041,1.041,0,0,0,.885-.413,1.914,1.914,0,0,0,.311-1.169,1.582,1.582,0,0,0-.357-1.113,1.312,1.312,0,0,0-1.014-.387,1.466,1.466,0,0,0-.979.316l-.164.152Z" transform="translate(2384.614 431)" fill="#12263f"/>
    <path id="Trazado_187687" data-name="Trazado 187687" d="M3.434-3.422l-.914.984V0H.762V-8.531H2.52v3.867l.773-1.061L5.467-8.531H7.629L4.6-4.74,7.717,0H5.625Zm13.207-.949H11.4V-5.754h5.238Zm0,2.537H11.4V-3.217h5.238Zm8.352-4.541a3,3,0,0,1-.26,1.289,1.956,1.956,0,0,1-.743.854,2.056,2.056,0,0,1-1.109.3,2.07,2.07,0,0,1-1.1-.3,1.975,1.975,0,0,1-.752-.849,2.918,2.918,0,0,1-.27-1.27v-.246a2.988,2.988,0,0,1,.265-1.294,1.972,1.972,0,0,1,.748-.858,2.059,2.059,0,0,1,1.106-.3,2.059,2.059,0,0,1,1.106.3,1.972,1.972,0,0,1,.748.858,2.98,2.98,0,0,1,.265,1.29ZM23.954-6.6a2.094,2.094,0,0,0-.28-1.189.913.913,0,0,0-.8-.407.914.914,0,0,0-.8.4,2.07,2.07,0,0,0-.284,1.177v.243a2.12,2.12,0,0,0,.28,1.183.911.911,0,0,0,.807.42.9.9,0,0,0,.793-.405,2.108,2.108,0,0,0,.28-1.181Zm8.8,3.759A3.019,3.019,0,0,1,31.736-.674a3.57,3.57,0,0,1-2.417.791,3.21,3.21,0,0,1-2.581-1.1A4.529,4.529,0,0,1,25.8-4.02v-.521a5.114,5.114,0,0,1,.434-2.168A3.249,3.249,0,0,1,27.47-8.147a3.471,3.471,0,0,1,1.872-.5,3.478,3.478,0,0,1,2.379.791,3.244,3.244,0,0,1,1.043,2.221H31.007a1.782,1.782,0,0,0-.46-1.2,1.7,1.7,0,0,0-1.2-.372,1.494,1.494,0,0,0-1.315.63,3.53,3.53,0,0,0-.448,1.954v.645A3.778,3.778,0,0,0,28-1.957a1.466,1.466,0,0,0,1.321.639,1.735,1.735,0,0,0,1.216-.372,1.681,1.681,0,0,0,.46-1.151ZM40.2-4.775h2.115v1.529H40.2V-.855H38.589V-3.246H36.467V-4.775h2.121V-7.066H40.2ZM52.1,0H46.253V-1.16L49.012-4.1a6.808,6.808,0,0,0,.841-1.084,1.742,1.742,0,0,0,.272-.879,1.3,1.3,0,0,0-.287-.894,1.036,1.036,0,0,0-.82-.325,1.118,1.118,0,0,0-.905.4,1.567,1.567,0,0,0-.331,1.04h-1.7a2.8,2.8,0,0,1,.372-1.424,2.622,2.622,0,0,1,1.052-1.011,3.2,3.2,0,0,1,1.541-.366,3.027,3.027,0,0,1,2.048.633,2.239,2.239,0,0,1,.729,1.787A2.868,2.868,0,0,1,51.5-4.939,7.164,7.164,0,0,1,50.372-3.41L48.432-1.365H52.1Zm6.838-7.586L55.639,0H53.852l3.3-7.166H52.915V-8.531h6.023Zm2.807,2.57h.9a1.271,1.271,0,0,0,.955-.322,1.181,1.181,0,0,0,.311-.855,1.044,1.044,0,0,0-.308-.8,1.192,1.192,0,0,0-.847-.287,1.25,1.25,0,0,0-.814.267.852.852,0,0,0-.328.694H59.923a2.083,2.083,0,0,1,.36-1.2,2.4,2.4,0,0,1,1.008-.829,3.364,3.364,0,0,1,1.427-.3A3.19,3.19,0,0,1,64.839-8a2.209,2.209,0,0,1,.768,1.784,1.8,1.8,0,0,1-.357,1.078,2.322,2.322,0,0,1-.937.756,2.12,2.12,0,0,1,1.075.773,2.1,2.1,0,0,1,.354,1.219,2.246,2.246,0,0,1-.829,1.822,3.334,3.334,0,0,1-2.194.686,3.161,3.161,0,0,1-2.089-.674,2.2,2.2,0,0,1-.812-1.781H61.51a.981.981,0,0,0,.36.785,1.328,1.328,0,0,0,.888.3,1.334,1.334,0,0,0,.946-.319,1.1,1.1,0,0,0,.343-.847q0-1.277-1.406-1.277h-.9Zm5.32,4.184a.852.852,0,0,1,.272-.656.967.967,0,0,1,.683-.252.975.975,0,0,1,.688.252.852.852,0,0,1,.272.656.841.841,0,0,1-.27.647.979.979,0,0,1-.691.249.971.971,0,0,1-.686-.249A.841.841,0,0,1,67.065-.832ZM74.507,0H72.813V-6.527L70.792-5.9V-7.277l3.533-1.266h.182ZM77.53-4.2l.492-4.336H82.8v1.412H79.411L79.2-5.285a2.685,2.685,0,0,1,1.283-.322,2.459,2.459,0,0,1,1.91.756,3.019,3.019,0,0,1,.691,2.115,3.093,3.093,0,0,1-.349,1.479,2.461,2.461,0,0,1-1,1.014A3.119,3.119,0,0,1,80.2.117,3.312,3.312,0,0,1,78.766-.2a2.546,2.546,0,0,1-1.046-.882,2.4,2.4,0,0,1-.407-1.295h1.676a1.252,1.252,0,0,0,.372.829,1.18,1.18,0,0,0,.835.3,1.041,1.041,0,0,0,.885-.413,1.914,1.914,0,0,0,.311-1.169,1.582,1.582,0,0,0-.357-1.113A1.312,1.312,0,0,0,80.02-4.33a1.466,1.466,0,0,0-.979.316l-.164.152Z" transform="translate(2384.614 409)" fill="#12263f"/>
    <path id="Trazado_187688" data-name="Trazado 187688" d="M4.693,0H3V-6.527L.979-5.9V-7.277L4.512-8.543h.182Zm8.514-3.527A4.322,4.322,0,0,1,12.475-.82,2.557,2.557,0,0,1,10.33.117,2.574,2.574,0,0,1,8.2-.8a4.2,4.2,0,0,1-.756-2.637V-5.01a4.265,4.265,0,0,1,.741-2.713,2.576,2.576,0,0,1,2.136-.926,2.578,2.578,0,0,1,2.133.917A4.182,4.182,0,0,1,13.207-5.1ZM11.514-5.254a3.124,3.124,0,0,0-.29-1.546.98.98,0,0,0-.905-.484.963.963,0,0,0-.882.46,2.924,2.924,0,0,0-.3,1.44v2.076a3.279,3.279,0,0,0,.284,1.551.967.967,0,0,0,.911.507.951.951,0,0,0,.9-.487,3.2,3.2,0,0,0,.287-1.49Zm8.578,1.727A4.322,4.322,0,0,1,19.359-.82a2.557,2.557,0,0,1-2.145.938A2.574,2.574,0,0,1,15.082-.8a4.2,4.2,0,0,1-.756-2.637V-5.01a4.265,4.265,0,0,1,.741-2.713A2.576,2.576,0,0,1,17.2-8.648a2.578,2.578,0,0,1,2.133.917A4.182,4.182,0,0,1,20.092-5.1ZM18.4-5.254a3.124,3.124,0,0,0-.29-1.546.98.98,0,0,0-.905-.484.963.963,0,0,0-.882.46,2.924,2.924,0,0,0-.3,1.44v2.076A3.279,3.279,0,0,0,16.3-1.755a.967.967,0,0,0,.911.507.951.951,0,0,0,.9-.487,3.2,3.2,0,0,0,.287-1.49Zm8.678,1.832-.914.984V0H24.4V-8.531h1.758v3.867l.773-1.061,2.174-2.807h2.162L28.242-4.74,31.359,0H29.268ZM34.828.117a3.112,3.112,0,0,1-2.271-.855,3.041,3.041,0,0,1-.876-2.279v-.164a3.83,3.83,0,0,1,.369-1.708A2.709,2.709,0,0,1,33.1-6.05a2.936,2.936,0,0,1,1.544-.407,2.631,2.631,0,0,1,2.048.82,3.333,3.333,0,0,1,.747,2.326v.691H33.4a1.573,1.573,0,0,0,.5,1,1.5,1.5,0,0,0,1.046.375,1.828,1.828,0,0,0,1.529-.709l.832.932a2.542,2.542,0,0,1-1.031.841A3.383,3.383,0,0,1,34.828.117Zm-.193-5.209a1.058,1.058,0,0,0-.817.341,1.768,1.768,0,0,0-.4.977h2.355v-.135a1.261,1.261,0,0,0-.3-.874A1.092,1.092,0,0,0,34.635-5.092ZM40.184,0h-1.7V-9h1.7Zm3.768-2.068L45.129-6.34H46.9L44.76,0H43.143L41-6.34h1.77ZM49.43,0h-1.7V-6.34h1.7Zm-1.8-7.98a.834.834,0,0,1,.255-.627.958.958,0,0,1,.694-.246.96.96,0,0,1,.691.246.829.829,0,0,1,.258.627.831.831,0,0,1-.261.633.962.962,0,0,1-.688.246.962.962,0,0,1-.688-.246A.831.831,0,0,1,47.631-7.98ZM52.383-6.34l.053.732a2.213,2.213,0,0,1,1.822-.85,1.84,1.84,0,0,1,1.5.592,2.761,2.761,0,0,1,.5,1.77V0H54.568V-4.055a1.1,1.1,0,0,0-.234-.782,1.049,1.049,0,0,0-.779-.243,1.165,1.165,0,0,0-1.072.609V0H50.789V-6.34Zm8.6,4.588a.546.546,0,0,0-.308-.489,3.494,3.494,0,0,0-.987-.319q-2.262-.475-2.262-1.922a1.742,1.742,0,0,1,.7-1.409,2.825,2.825,0,0,1,1.831-.565,3.04,3.04,0,0,1,1.931.568,1.791,1.791,0,0,1,.724,1.477H60.914a.819.819,0,0,0-.234-.6.992.992,0,0,0-.732-.237,1.013,1.013,0,0,0-.662.193.61.61,0,0,0-.234.492.522.522,0,0,0,.267.454,2.743,2.743,0,0,0,.9.3,7.346,7.346,0,0,1,1.066.284,1.752,1.752,0,0,1,1.342,1.705,1.654,1.654,0,0,1-.744,1.4,3.21,3.21,0,0,1-1.922.536,3.353,3.353,0,0,1-1.415-.284,2.374,2.374,0,0,1-.97-.779,1.811,1.811,0,0,1-.352-1.069h1.605a.884.884,0,0,0,.334.691,1.325,1.325,0,0,0,.832.24,1.226,1.226,0,0,0,.735-.185A.574.574,0,0,0,60.979-1.752Z" transform="translate(2394.614 207)" fill="#12263f"/>
    <path id="Trazado_187689" data-name="Trazado 187689" d="M6.963,0H.628V-1.257l2.99-3.187a7.376,7.376,0,0,0,.911-1.174,1.887,1.887,0,0,0,.3-.952,1.412,1.412,0,0,0-.311-.968,1.123,1.123,0,0,0-.889-.352,1.211,1.211,0,0,0-.981.428,1.7,1.7,0,0,0-.359,1.127H.444a3.03,3.03,0,0,1,.4-1.542A2.841,2.841,0,0,1,1.987-8.972a3.463,3.463,0,0,1,1.669-.4,3.279,3.279,0,0,1,2.219.686,2.425,2.425,0,0,1,.79,1.936,3.108,3.108,0,0,1-.355,1.4A7.76,7.76,0,0,1,5.091-3.694L2.99-1.479H6.963Zm7.408-8.218L10.8,0H8.861l3.58-7.763h-4.6V-9.242h6.525Zm3.041,2.785h.978a1.377,1.377,0,0,0,1.035-.349,1.279,1.279,0,0,0,.336-.927,1.131,1.131,0,0,0-.333-.87,1.292,1.292,0,0,0-.917-.311,1.354,1.354,0,0,0-.882.289.923.923,0,0,0-.355.752H15.438a2.256,2.256,0,0,1,.39-1.3,2.6,2.6,0,0,1,1.092-.9,3.644,3.644,0,0,1,1.546-.324,3.456,3.456,0,0,1,2.3.7,2.393,2.393,0,0,1,.832,1.933,1.945,1.945,0,0,1-.387,1.168,2.516,2.516,0,0,1-1.016.819,2.3,2.3,0,0,1,1.165.838,2.273,2.273,0,0,1,.384,1.32,2.433,2.433,0,0,1-.9,1.974,3.611,3.611,0,0,1-2.377.743A3.424,3.424,0,0,1,16.2-.6a2.384,2.384,0,0,1-.879-1.93h1.834a1.063,1.063,0,0,0,.39.851,1.439,1.439,0,0,0,.962.33A1.445,1.445,0,0,0,19.535-1.7a1.194,1.194,0,0,0,.371-.917Q19.906-4,18.383-4h-.971ZM23.175-.9a.924.924,0,0,1,.3-.711,1.047,1.047,0,0,1,.74-.273,1.056,1.056,0,0,1,.746.273.924.924,0,0,1,.3.711.911.911,0,0,1-.292.7,1.06,1.06,0,0,1-.749.27,1.052,1.052,0,0,1-.743-.27A.911.911,0,0,1,23.175-.9Zm8.062.9H29.4V-7.071l-2.19.679V-7.884L31.04-9.255h.2Zm3.275-4.545.533-4.7h5.18v1.53H36.55l-.229,1.987a2.908,2.908,0,0,1,1.39-.349,2.664,2.664,0,0,1,2.069.819,3.271,3.271,0,0,1,.749,2.292,3.351,3.351,0,0,1-.378,1.6,2.666,2.666,0,0,1-1.082,1.1,3.379,3.379,0,0,1-1.663.39,3.588,3.588,0,0,1-1.555-.34,2.758,2.758,0,0,1-1.133-.955,2.6,2.6,0,0,1-.441-1.4h1.815a1.356,1.356,0,0,0,.4.9,1.278,1.278,0,0,0,.9.321,1.128,1.128,0,0,0,.958-.448A2.073,2.073,0,0,0,38.7-3.066a1.714,1.714,0,0,0-.387-1.206,1.421,1.421,0,0,0-1.1-.419,1.588,1.588,0,0,0-1.06.343l-.178.165Zm13.514.838-.99,1.066V0h-1.9V-9.242h1.9v4.189L47.874-6.2l2.355-3.041h2.342L49.29-5.135,52.667,0H50.4Z" transform="translate(2533.614 293)" fill="#12263f"/>
    <path id="Trazado_187690" data-name="Trazado 187690" d="M6.963,0H.628V-1.257l2.99-3.187a7.376,7.376,0,0,0,.911-1.174,1.887,1.887,0,0,0,.3-.952,1.412,1.412,0,0,0-.311-.968,1.123,1.123,0,0,0-.889-.352,1.211,1.211,0,0,0-.981.428,1.7,1.7,0,0,0-.359,1.127H.444a3.03,3.03,0,0,1,.4-1.542A2.841,2.841,0,0,1,1.987-8.972a3.463,3.463,0,0,1,1.669-.4,3.279,3.279,0,0,1,2.219.686,2.425,2.425,0,0,1,.79,1.936,3.108,3.108,0,0,1-.355,1.4A7.76,7.76,0,0,1,5.091-3.694L2.99-1.479H6.963Zm2.99-5.434h.978a1.377,1.377,0,0,0,1.035-.349,1.279,1.279,0,0,0,.336-.927,1.131,1.131,0,0,0-.333-.87,1.292,1.292,0,0,0-.917-.311,1.354,1.354,0,0,0-.882.289.923.923,0,0,0-.355.752H7.979a2.256,2.256,0,0,1,.39-1.3,2.6,2.6,0,0,1,1.092-.9,3.644,3.644,0,0,1,1.546-.324,3.456,3.456,0,0,1,2.3.7,2.393,2.393,0,0,1,.832,1.933,1.945,1.945,0,0,1-.387,1.168,2.516,2.516,0,0,1-1.016.819A2.3,2.3,0,0,1,13.9-3.91a2.273,2.273,0,0,1,.384,1.32,2.433,2.433,0,0,1-.9,1.974,3.611,3.611,0,0,1-2.377.743A3.424,3.424,0,0,1,8.744-.6a2.384,2.384,0,0,1-.879-1.93H9.7a1.063,1.063,0,0,0,.39.851,1.439,1.439,0,0,0,.962.33A1.445,1.445,0,0,0,12.076-1.7a1.194,1.194,0,0,0,.371-.917Q12.448-4,10.924-4H9.953Zm7.458,0h.978a1.377,1.377,0,0,0,1.035-.349,1.279,1.279,0,0,0,.336-.927,1.131,1.131,0,0,0-.333-.87,1.292,1.292,0,0,0-.917-.311,1.354,1.354,0,0,0-.882.289.923.923,0,0,0-.355.752H15.438a2.256,2.256,0,0,1,.39-1.3,2.6,2.6,0,0,1,1.092-.9,3.644,3.644,0,0,1,1.546-.324,3.456,3.456,0,0,1,2.3.7,2.393,2.393,0,0,1,.832,1.933,1.945,1.945,0,0,1-.387,1.168,2.516,2.516,0,0,1-1.016.819,2.3,2.3,0,0,1,1.165.838,2.273,2.273,0,0,1,.384,1.32,2.433,2.433,0,0,1-.9,1.974,3.611,3.611,0,0,1-2.377.743A3.424,3.424,0,0,1,16.2-.6a2.384,2.384,0,0,1-.879-1.93h1.834a1.063,1.063,0,0,0,.39.851,1.439,1.439,0,0,0,.962.33A1.445,1.445,0,0,0,19.535-1.7a1.194,1.194,0,0,0,.371-.917Q19.906-4,18.383-4h-.971ZM23.175-.9a.924.924,0,0,1,.3-.711,1.047,1.047,0,0,1,.74-.273,1.056,1.056,0,0,1,.746.273.924.924,0,0,1,.3.711.911.911,0,0,1-.292.7,1.06,1.06,0,0,1-.749.27,1.052,1.052,0,0,1-.743-.27A.911.911,0,0,1,23.175-.9Zm8.062.9H29.4V-7.071l-2.19.679V-7.884L31.04-9.255h.2Zm3.275-4.545.533-4.7h5.18v1.53H36.55l-.229,1.987a2.908,2.908,0,0,1,1.39-.349,2.664,2.664,0,0,1,2.069.819,3.271,3.271,0,0,1,.749,2.292,3.351,3.351,0,0,1-.378,1.6,2.666,2.666,0,0,1-1.082,1.1,3.379,3.379,0,0,1-1.663.39,3.588,3.588,0,0,1-1.555-.34,2.758,2.758,0,0,1-1.133-.955,2.6,2.6,0,0,1-.441-1.4h1.815a1.356,1.356,0,0,0,.4.9,1.278,1.278,0,0,0,.9.321,1.128,1.128,0,0,0,.958-.448A2.073,2.073,0,0,0,38.7-3.066a1.714,1.714,0,0,0-.387-1.206,1.421,1.421,0,0,0-1.1-.419,1.588,1.588,0,0,0-1.06.343l-.178.165Zm13.514.838-.99,1.066V0h-1.9V-9.242h1.9v4.189L47.874-6.2l2.355-3.041h2.342L49.29-5.135,52.667,0H50.4Z" transform="translate(2533.614 378)" fill="#12263f"/>
    <path id="Trazado_186613" data-name="Trazado 186613" d="M358.889-176.5s-11.354,2.028-10.679,33.656,4.509,44.744-5.481,49.88" transform="translate(2139.178 294.229)" fill="none" stroke="#707070" stroke-width="2"/>
    <path id="Trazado_186614" data-name="Trazado 186614" d="M358.889-92.964s-11.354-2.028-10.679-33.656,4.509-44.744-5.481-49.88" transform="translate(2139.178 377.765)" fill="none" stroke="#707070" stroke-width="2"/>
    <path id="Trazado_187691" data-name="Trazado 187691" d="M0,0H89.289" transform="translate(2415.555 117.729)" fill="none" stroke="#f37577" stroke-width="2"/>
    <path id="Trazado_187692" data-name="Trazado 187692" d="M0,0H94.072" transform="translate(2410.772 288.334)" fill="none" stroke="#2b91e9" stroke-width="2"/>
    <path id="Trazado_187693" data-name="Trazado 187693" d="M0,0H94.072" transform="translate(2410.772 375.231)" fill="none" stroke="#2b91e9" stroke-width="2"/>
    <path id="Trazado_187694" data-name="Trazado 187694" d="M0,0H23.917" transform="translate(2461.794 201.437)" fill="none" stroke="#707070" stroke-width="2"/>
  </g>
</svg>
