<svg xmlns="http://www.w3.org/2000/svg" xmlns:xlink="http://www.w3.org/1999/xlink" width="398.925" height="578.555" viewBox="0 0 398.925 578.555">
  <defs>
    <clipPath id="clip-path">
      <rect id="Rectángulo_46570" data-name="Rectángulo 46570" width="369.293" height="571.756" fill="none"/>
    </clipPath>
    <clipPath id="clip-path-2">
      <rect id="Rectángulo_46390" data-name="Rectángulo 46390" width="39.101" height="43.181" fill="#f9a829"/>
    </clipPath>
  </defs>
  <g id="Grupo_178147" data-name="Grupo 178147" transform="translate(-1021.075 -9817.323)">
    <rect id="Rectángulo_34948" data-name="Rectángulo 34948" width="395.099" height="558.703" rx="197.55" transform="translate(1021.075 9825.297)" fill="#e7e7e8"/>
    <path id="Trazado_145971" data-name="Trazado 145971" d="M4.7,0A4.7,4.7,0,1,0,9.4,4.7,4.7,4.7,0,0,0,4.7,0Z" transform="translate(1392.044 10364.048)" fill="#31313c" opacity="0.444" style="mix-blend-mode: multiply;isolation: isolate"/>
    <line id="Línea_138" data-name="Línea 138" y2="100.505" transform="translate(1401.44 10060.692)" fill="none" stroke="#31313c" stroke-linecap="round" stroke-width="3" stroke-dasharray="8"/>
    <rect id="Rectángulo_46569" data-name="Rectángulo 46569" width="197.674" height="111.711" transform="translate(1109.09 10247.207)" fill="#f37577"/>
    <g id="Grupo_178145" data-name="Grupo 178145" transform="translate(1036 9824.122)">
      <g id="Grupo_178144" data-name="Grupo 178144" clip-path="url(#clip-path)">
        <path id="Trazado_186418" data-name="Trazado 186418" d="M26.618,230.033S103.646,313.865,97,409.38c-5.4,16.612-27.824,19.519-34.884,15.781S23.912,322.586,23.912,322.586,6.068,255.42,26.618,230.033" transform="translate(255.158)" fill="#fff"/>
        <path id="Trazado_186419" data-name="Trazado 186419" d="M47.449,536.457S76.519,377.4,148.57,337.329c.416-1.661,4.569-13.289,2.492-32.392s-6.852-86.171,12.874-100.914c17.958-13.421,45.824-28.695,74.958-23.463,17.481,3.139,36.182,21.7,57.517,41.321,56.894,52.325-19.33,114.564-25.332,152.823,55.024,64.577,72.882,185.424,72.882,185.424s-69.353,8.721-91.363,11.628c-7.059-7.89-11.835-124.792-11.835-124.792L214.808,571.341S64.061,553.068,47.449,536.457" transform="translate(-22.117)" fill="#fff"/>
        <path id="Trazado_186420" data-name="Trazado 186420" d="M170.995,178.036,148.131,246.8s-27.409-21.179-27.824-39.036c2.907-11.628,8.513-30.668,8.513-30.668s39.707-3.865,42.175.943" transform="translate(77.991)" fill="#ebaa82"/>
        <path id="Trazado_186421" data-name="Trazado 186421" d="M162.924,180.491c-10.751.97-7.522,11.489-7.522,11.489s18.273,15.365,24.917,27.824S198.853,293.7,198.853,293.7L160.8,253.442l10.382-6.645s-14.535-5.4-23.671-8.306c-.415.416-19.1-18.272-19.934-25.747-.83-1.246,13.705-30.316,13.705-30.316l25.747-10.8s-1.983,2.354-4.106,8.86" transform="translate(42.896)" fill="#fff"/>
        <path id="Trazado_186422" data-name="Trazado 186422" d="M162.924,180.491c-10.751.97-7.522,11.489-7.522,11.489s18.273,15.365,24.917,27.824S198.853,293.7,198.853,293.7L160.8,253.442l10.382-6.645s-14.535-5.4-23.671-8.306c-.415.416-19.1-18.272-19.934-25.747-.83-1.246,13.705-30.316,13.705-30.316l25.747-10.8S165.047,173.985,162.924,180.491Z" transform="translate(42.896)" fill="none" stroke="#a3a8c4" stroke-miterlimit="10" stroke-width="1.177"/>
        <path id="Trazado_186423" data-name="Trazado 186423" d="M121.481,184.656s19.619,19.783,18.789,48.853c.83.83-16.611,8.721-16.611,8.721l7.059,21.594s-12.612,15.754-14.273,29.874L103.69,235.741Z" transform="translate(125.304)" fill="#fff"/>
        <path id="Trazado_186424" data-name="Trazado 186424" d="M121.481,184.656s19.619,19.783,18.789,48.853c.83.83-16.611,8.721-16.611,8.721l7.059,21.594s-12.612,15.754-14.273,29.874L103.69,235.741Z" transform="translate(125.304)" fill="none" stroke="#a3a8c4" stroke-miterlimit="10" stroke-width="1.177"/>
        <path id="Trazado_186425" data-name="Trazado 186425" d="M166.8,335.368l4.2,2.672a20.787,20.787,0,0,0,18.366,1.952l4.411-1.633a20.788,20.788,0,0,0,13.447-17.229l3.8-34.7-49.95-5.475-3.793,34.609a20.787,20.787,0,0,0,9.512,19.807" transform="translate(1.096)" fill="#dcdff2"/>
        <path id="Trazado_186426" data-name="Trazado 186426" d="M166.8,335.368l4.2,2.672a20.787,20.787,0,0,0,18.366,1.952l4.411-1.633a20.788,20.788,0,0,0,13.447-17.229l3.8-34.7-49.95-5.475-3.793,34.609A20.787,20.787,0,0,0,166.8,335.368Z" transform="translate(1.096)" fill="none" stroke="#a3a8c4" stroke-miterlimit="10" stroke-width="1.177"/>
        <path id="Trazado_186427" data-name="Trazado 186427" d="M126.677,446.964l-1.246-68.522s37.79-46.381,23.048-89.013" transform="translate(91.97)" fill="none" stroke="#a3a8c4" stroke-miterlimit="10" stroke-width="1.177"/>
        <path id="Trazado_186428" data-name="Trazado 186428" d="M226.254,432.429l56.894,10.382a103.721,103.721,0,0,1-2.7,12.281c-4.835,17.375-17.238,46.723-45.475,43.782-48.588-8.721-8.721-66.445-8.721-66.445" transform="translate(-124.717)" fill="#dcdff2"/>
        <path id="Trazado_186429" data-name="Trazado 186429" d="M226.254,432.429l56.894,10.382a103.721,103.721,0,0,1-2.7,12.281c-4.835,17.375-17.238,46.723-45.475,43.782C186.387,490.153,226.254,432.429,226.254,432.429Z" transform="translate(-124.717)" fill="none" stroke="#a3a8c4" stroke-miterlimit="10" stroke-width="1.177"/>
        <path id="Trazado_186430" data-name="Trazado 186430" d="M330.464,276.7l-4.982,61.046s-77.244,80.15-101.33,205.565" transform="translate(-185.323)" fill="none" stroke="#a3a8c4" stroke-miterlimit="10" stroke-width="1.177"/>
        <path id="Trazado_186431" data-name="Trazado 186431" d="M167.546,296.306h0A3.737,3.737,0,0,0,171.669,293l1.584-14.449a3.738,3.738,0,0,0-7.431-.814l-1.584,14.449a3.738,3.738,0,0,0,3.308,4.122" transform="translate(31.802)" fill="#4e9bdf"/>
        <path id="Trazado_186432" data-name="Trazado 186432" d="M122.383,177.093s39.707-3.865,42.175.943L160.589,189.7c-16.282,4.1-31.2-.523-40.282-4.985,1.736-6.107,2.076-7.619,2.076-7.619" transform="translate(84.428)" fill="#d67869"/>
        <path id="Trazado_186433" data-name="Trazado 186433" d="M89.433,221.881c56.894,52.326-16.124,150.333-16.124,150.333l34.162,79.318" transform="translate(184.861)" fill="none" stroke="#a3a8c4" stroke-miterlimit="10" stroke-width="1.177"/>
        <path id="Trazado_186434" data-name="Trazado 186434" d="M173.555,373.71s-9.026-2.982-9.026-7.42,10.408-1.04,10.408-1.04Z" transform="translate(29.827)" fill="#2a2b49"/>
        <line id="Línea_624" data-name="Línea 624" x2="61.047" y2="11.213" transform="translate(94.477 444.057)" fill="#dcdff2"/>
        <line id="Línea_625" data-name="Línea 625" x2="61.047" y2="11.213" transform="translate(94.477 444.057)" fill="none" stroke="#a3a8c4" stroke-miterlimit="10" stroke-width="1.177"/>
        <path id="Trazado_186435" data-name="Trazado 186435" d="M0,77.362C0,104.885,18.291,127.2,40.855,127.2S81.71,104.885,81.71,77.362,63.418,27.528,40.855,27.528,0,49.84,0,77.362" transform="translate(287.583)" fill="#2e3235"/>
        <path id="Trazado_186436" data-name="Trazado 186436" d="M85.641,45.385s-46.1,124.586,21.595,134.137,79.174-54.609,79.174-54.609S217.7,21.715,85.641,45.385" transform="translate(109.334)" fill="#ebaa82"/>
        <path id="Trazado_186437" data-name="Trazado 186437" d="M126.751,39.364S117.2,52.653,135.472,63.45c.415.416-5.814-11.212-5.814-19.518s-2.907-4.568-2.907-4.568" transform="translate(109.545)" fill="#2e3235"/>
        <path id="Trazado_186438" data-name="Trazado 186438" d="M147.659,45.385s-14.12,4.984-16.611,14.121c-.416.83-3.738-16.612,16.611-19.1,2.492,1.245,3.322,3.322,0,4.982" transform="translate(88.845)" fill="#2e3235"/>
        <path id="Trazado_186439" data-name="Trazado 186439" d="M61.427,42.271s29.693,39.66,74.128,35.091c2.907.416-11.836-72.051-64.161-42.566-1.661,1.661-9.967,3.738-9.967,7.475" transform="translate(171.962)" fill="#2e3235"/>
        <path id="Trazado_186440" data-name="Trazado 186440" d="M178.886,42.479s-1.038-17.649-23.048-15.158-33.015,20.557-33.015,20.557,22.01,3.322,56.063-5.4" transform="translate(67.584)" fill="#2e3235"/>
        <path id="Trazado_186441" data-name="Trazado 186441" d="M62.259,70.1S48.711,95.289,69.5,112.9c-.78,1.176,11.653,3.91,15.391-9.794S81.362,63.866,62.259,70.1" transform="translate(225.532)" fill="#2e3235"/>
        <line id="Línea_626" data-name="Línea 626" x1="16.489" y1="22.545" transform="translate(284.782 86.083)" fill="none" stroke="#fff" stroke-miterlimit="10" stroke-width="1.177"/>
        <path id="Trazado_186442" data-name="Trazado 186442" d="M174.792,75.713s-.652-18.284,4.331-27.836l4.122-1.245Z" transform="translate(11.284)" fill="#2f2d2e"/>
        <path id="Trazado_186443" data-name="Trazado 186443" d="M178.885,124.7s-22.01-2.492-32.807-4.153c0,0,2.907,21.18,16.611,19.1s16.2-14.95,16.2-14.95" transform="translate(44.33)" fill="#42210b"/>
        <path id="Trazado_186444" data-name="Trazado 186444" d="M135.32,92.7c-.486,2.709.218,5.1,1.572,5.345s2.847-1.756,3.333-4.465-.218-5.1-1.572-5.345-2.847,1.756-3.333,4.465" transform="translate(93.748)" fill="#2e3235"/>
        <path id="Trazado_186445" data-name="Trazado 186445" d="M173.941,85.643c-.486,2.709.218,5.1,1.572,5.345s2.847-1.756,3.333-4.465-.218-5.1-1.572-5.345-2.847,1.756-3.333,4.465" transform="translate(16.506)" fill="#2e3235"/>
        <path id="Trazado_186446" data-name="Trazado 186446" d="M83.991,94.8s15.365-44.02,66.445-14.95c1.661,2.907-6.071,46.7-39.867,47.342C88.559,127.611,83.991,94.8,83.991,94.8Z" transform="translate(134.656)" fill="none" stroke="#fff" stroke-miterlimit="10" stroke-width="7.063"/>
        <path id="Trazado_186447" data-name="Trazado 186447" d="M157.814,94.8s-3.124-5.814-7.168-1.661" transform="translate(60.833)" fill="none" stroke="#fff" stroke-miterlimit="10" stroke-width="7.063"/>
        <path id="Trazado_186448" data-name="Trazado 186448" d="M169.07,134.65a18.96,18.96,0,0,1-10.509,5.005,10.643,10.643,0,0,1-6.8-1.086c5.6-6.684,12.975-5.485,17.305-3.919" transform="translate(48.458)" fill="#c1272d"/>
        <path id="Trazado_186449" data-name="Trazado 186449" d="M218.216,92.147s-1.387-46.6-58.852-34.277c-2.46,2.272-8.284,46.364,23.749,57.155C203.975,122.053,218.216,92.147,218.216,92.147Z" transform="translate(-6.231)" fill="none" stroke="#fff" stroke-miterlimit="10" stroke-width="7.063"/>
        <line id="Línea_627" data-name="Línea 627" x1="27.828" y1="37.829" transform="translate(154.693 58.674)" fill="none" stroke="#fff" stroke-miterlimit="10" stroke-width="1.177"/>
        <path id="Trazado_186450" data-name="Trazado 186450" d="M174.318,96.05l-20.349,2.076s1.246,10.8,9.967,13.289" transform="translate(41.006)" fill="#ebaa82"/>
        <path id="Trazado_186451" data-name="Trazado 186451" d="M174.318,96.05l-20.349,2.076s1.246,10.8,9.967,13.289" transform="translate(41.006)" fill="none" stroke="#8e3c23" stroke-miterlimit="10" stroke-width="1.177"/>
        <path id="Trazado_186452" data-name="Trazado 186452" d="M170.528,143.72s-6.173,4.493-11.9-1.873" transform="translate(40.134)" fill="#ebaa82"/>
        <path id="Trazado_186453" data-name="Trazado 186453" d="M170.528,143.72s-6.173,4.493-11.9-1.873" transform="translate(40.134)" fill="none" stroke="#8e3c23" stroke-miterlimit="10" stroke-width="1.177"/>
        <path id="Trazado_186454" data-name="Trazado 186454" d="M52.847,128.234c0,11.009,6.805,19.934,15.2,19.934s15.2-8.925,15.2-19.934-6.8-19.934-15.2-19.934-15.2,8.925-15.2,19.934" transform="translate(233.2)" fill="#ebaa82"/>
        <path id="Trazado_186455" data-name="Trazado 186455" d="M77.085,94.8s4.153,16.2-1.661,20.764S69.195,132.18,72.1,137.993c.415.831,0-4.152,11.628-10.8S88.3,95.635,77.085,94.8" transform="translate(209.253)" fill="#2e3235"/>
        <path id="Trazado_186456" data-name="Trazado 186456" d="M57,128.442c0,5.39,3.347,9.759,7.476,9.759s7.475-4.369,7.475-9.759-3.347-9.759-7.475-9.759S57,123.052,57,128.442" transform="translate(240.342)" fill="#d67869"/>
        <path id="Trazado_186457" data-name="Trazado 186457" d="M71.743,118.475s-11.628-5.814-12.874,13.289" transform="translate(238.681)" fill="none" stroke="#8e3c23" stroke-miterlimit="10" stroke-width="1.177"/>
        <path id="Trazado_186458" data-name="Trazado 186458" d="M343.96,108.716,312.4,105.394l-16.2,44.435,39.036,2.907Z" transform="translate(-270.87)" fill="#ebaa82"/>
        <path id="Trazado_186459" data-name="Trazado 186459" d="M321.749,108.716l10.8-42.774S315.935,43.1,286.035,56.806a340.928,340.928,0,0,0,.415,48.172Z" transform="translate(-248.659)" fill="#2a2b49"/>
        <path id="Trazado_186460" data-name="Trazado 186460" d="M327.8,65.942S297.9,9.879,296.653,2.819s-16.2-.415-9.552,14.95,8.721,31.977,17.442,40.7" transform="translate(-243.912)" fill="#2a2b49"/>
        <path id="Trazado_186461" data-name="Trazado 186461" d="M329.3,36.264s-20.183-7.7-20.6,9.745,2.492,24.917,8.721,24.5,6.645-12.043,6.645-12.043l2.058,9.406,17.46-3.592S332.457,36.9,329.3,36.264" transform="translate(-282.954)" fill="#2a2b49"/>
        <path id="Trazado_186462" data-name="Trazado 186462" d="M329.519,47.745s-17.539-2.18-14.468,11.76,6.839,19.314,11.708,17.769,2.932-10.865,2.932-10.865L335.284,77.7l11.05-10.478s-14.182-19.586-16.815-19.477" transform="translate(-291.731)" fill="#2a2b49"/>
        <path id="Trazado_186463" data-name="Trazado 186463" d="M337.925,74.248s.831-10.382-7.475-14.12c-4.037-1.816-9.421-3.785-16.2-6.229-6.082-2.194-17.812-6.283-18.069-.474-.212,4.782,6.026,12.933,12.67,12.517.306,6.242,8.209,6.242,8.209,6.242s-5.717-.843-11.116,6.217" transform="translate(-264.835)" fill="#2a2b49"/>
        <path id="Trazado_186464" data-name="Trazado 186464" d="M337.925,74.248s.831-10.382-7.475-14.12c-4.037-1.816-9.421-3.785-16.2-6.229-6.082-2.194-17.812-6.283-18.069-.474-.212,4.782,6.026,12.933,12.67,12.517.306,6.242,8.209,6.242,8.209,6.242s-5.717-.843-11.116,6.217" transform="translate(-264.835)" fill="none" stroke="#2b83ba" stroke-linecap="round" stroke-linejoin="round" stroke-width="1"/>
        <path id="Trazado_186465" data-name="Trazado 186465" d="M359.946,193.018,201.615,228.01s-4.28,45.48,55.53,48.189,89.771.468,89.771.468,39.442-20.808,13.03-83.649" transform="translate(-201.308)" fill="#fff"/>
        <path id="Trazado_186466" data-name="Trazado 186466" d="M369.293,128.234l-17.442,98.837-40.282,26.994L296.2,232.885l22.01-114.2s29.9,13.7,51.08,9.551" transform="translate(-296.203)" fill="#fff"/>
        <path id="Trazado_186467" data-name="Trazado 186467" d="M199.746,276.2c59.81,2.709,89.771.469,89.771.469s43.685-20.7,13.03-83.65" transform="translate(-143.909)" fill="none" stroke="#a3a8c4" stroke-miterlimit="10" stroke-width="1.177"/>
        <path id="Trazado_186468" data-name="Trazado 186468" d="M171.3,311.471l-59.417-9.7a9.653,9.653,0,0,0-11.082,7.971L84.869,407.312a9.652,9.652,0,0,0,7.971,11.082l59.417,9.7" transform="translate(113.251)" fill="#666"/>
        <path id="Trazado_186469" data-name="Trazado 186469" d="M78.622,419.393l59.417,9.7a9.652,9.652,0,0,0,11.082-7.971l15.933-97.572a9.652,9.652,0,0,0-7.971-11.082l-59.417-9.7a9.652,9.652,0,0,0-11.082,7.97L70.651,408.311a9.653,9.653,0,0,0,7.971,11.082" transform="translate(133.588)" fill="gray"/>
        <path id="Trazado_186470" data-name="Trazado 186470" d="M107.53,331.31h0a3.646,3.646,0,0,0,4.187-3.012l1.646-10.078a3.647,3.647,0,1,0-7.2-1.176l-1.646,10.079a3.648,3.648,0,0,0,3.012,4.187" transform="translate(151.412)" fill="#666"/>
        <path id="Trazado_186471" data-name="Trazado 186471" d="M153.387,338.507h0a1.641,1.641,0,0,0,1.884-1.355l2.881-17.638a1.641,1.641,0,0,0-3.24-.529l-2.88,17.638a1.641,1.641,0,0,0,1.355,1.884" transform="translate(59.109)" fill="#4d4d4d"/>
        <path id="Trazado_186472" data-name="Trazado 186472" d="M111.048,320.562a2.553,2.553,0,1,0-2.931,2.108,2.553,2.553,0,0,0,2.931-2.108" transform="translate(152.236)" fill="#333"/>
        <path id="Trazado_186473" data-name="Trazado 186473" d="M134.994,339.613l-26.768-6.608-3.884,34.95,24.683,9.431Z" transform="translate(129.956)" fill="#ebaa82"/>
        <path id="Trazado_186474" data-name="Trazado 186474" d="M172.718,367.955s-19.992,2.219-36.06,0c.009.255-3.677-.113-4.438-2.774-1.109-3.883.351-4.236.555-6.657.174-2.069-1.664-2.774-1.664-7.212,0-8.894,5.251-5.849,3.883-10.541-3.883-13.314,10.541-11.65,10.541-11.65a94.777,94.777,0,0,1,31.066,3.884c0,2.219-3.883,34.95-3.883,34.95" transform="translate(61.581)" fill="#2a2b49"/>
        <path id="Trazado_186475" data-name="Trazado 186475" d="M120.551,366.606a60.165,60.165,0,0,0-30.316-19.1C70.3,342.1,22.96,335.46,22.96,335.46l-6.645,45.681s58,45.153,77.38,45.417,36.823-5.55,26.856-59.952" transform="translate(229.532)" fill="#fff"/>
      </g>
    </g>
    <g id="Grupo_178146" data-name="Grupo 178146">
      <path id="Trazado_145969" data-name="Trazado 145969" d="M41.164,0A41.164,41.164,0,1,0,82.327,41.164,41.164,41.164,0,0,0,41.164,0Z" transform="translate(1337.673 9817.323)" fill="#fd9827" opacity="0.444" style="mix-blend-mode: multiply;isolation: isolate"/>
      <g id="Grupo_177796" data-name="Grupo 177796" transform="translate(1315.013 9836.896)" clip-path="url(#clip-path-2)">
        <path id="Trazado_185707" data-name="Trazado 185707" d="M38.576,22.242C24.512,24.083,21.807,27.07,20.14,42.6a.59.59,0,0,1-1.18,0C17.294,27.07,14.588,24.083.524,22.242a.667.667,0,0,1,0-1.3C14.588,19.1,17.294,16.112,18.96.579a.59.59,0,0,1,1.18,0c1.667,15.532,4.372,18.519,18.436,20.36a.667.667,0,0,1,0,1.3" transform="translate(0 0)" fill="#f9a829"/>
      </g>
    </g>
  </g>
</svg>
