<svg xmlns="http://www.w3.org/2000/svg" width="275" height="425" viewBox="0 0 275 425">
  <g id="Grupo_178788" data-name="Grupo 178788" transform="translate(-1352 -26)">
    <path id="Trazado_187609" data-name="Trazado 187609" d="M14,0H261a14,14,0,0,1,14,14V411a14,14,0,0,1-14,14H14A14,14,0,0,1,0,411V14A14,14,0,0,1,14,0Z" transform="translate(1352 26)" fill="#fff"/>
    <g id="Trazado_187615" data-name="Trazado 187615" transform="translate(1549 58)" fill="#d1cbcb">
      <path d="M 7.000200271606445 379.4998168945312 C 4.324650287628174 379.4998168945312 2.147900342941284 377.3230590820312 2.147900342941284 374.6475219726562 L 2.147900342941284 340.7409057617188 C 2.147900342941284 339.9599609375 2.327500343322754 339.2145690917969 2.681700468063354 338.5253601074219 L 2.854900360107422 338.1884155273438 L 2.577350378036499 337.9305114746094 C 1.257750391960144 336.704345703125 0.5009003877639771 334.9685974121094 0.5009003877639771 333.1683044433594 L 0.5009003877639771 6.999308586120605 C 0.5009003877639771 3.415558338165283 3.416450500488281 0.5000084638595581 7.000200271606445 0.5000084638595581 C 10.58440017700195 0.5000084638595581 13.50040054321289 3.415558338165283 13.50040054321289 6.999308586120605 L 13.50040054321289 333.1683044433594 C 13.50040054321289 334.96826171875 12.74345016479492 336.7039489746094 11.42365074157715 337.9303588867188 L 11.14610004425049 338.1882934570312 L 11.31935024261475 338.5252685546875 C 11.6737003326416 339.2145690917969 11.85340023040771 339.9600219726562 11.85340023040771 340.7409057617188 L 11.85340023040771 374.6475219726562 C 11.85340023040771 377.3230590820312 9.676250457763672 379.4998168945312 7.000200271606445 379.4998168945312 Z" stroke="none"/>
      <path d="M 7.000200271606445 378.9998168945312 C 9.400550842285156 378.9998168945312 11.35340023040771 377.04736328125 11.35340023040771 374.6475219726562 L 11.35340023040771 340.7409057617188 C 11.35340023040771 340.0403137207031 11.19235038757324 339.3717651367188 10.87465000152588 338.75390625 L 10.52815055847168 338.0799560546875 L 11.08330059051514 337.5641174316406 C 12.30165004730225 336.4319458007812 13.00040054321289 334.8297729492188 13.00040054321289 333.1683044433594 L 13.00040054321289 6.999308586120605 C 13.00040054321289 3.691258430480957 10.30870056152344 1.000008463859558 7.000200271606445 1.000008463859558 C 3.692150354385376 1.000008463859558 1.000900387763977 3.691258430480957 1.000900387763977 6.999308586120605 L 1.000900387763977 333.1683044433594 C 1.000900387763977 334.8301086425781 1.69955039024353 336.432373046875 2.917700290679932 337.5642700195312 L 3.472750425338745 338.0800170898438 L 3.126400470733643 338.75390625 C 2.808900356292725 339.3717041015625 2.647900342941284 340.0402221679688 2.647900342941284 340.7409057617188 L 2.647900342941284 374.6475219726562 C 2.647900342941284 377.04736328125 4.600350379943848 378.9998168945312 7.000200271606445 378.9998168945312 M 7.000200271606445 379.9998168945312 C 4.043700218200684 379.9998168945312 1.647900462150574 377.6031188964844 1.647900462150574 374.6475219726562 L 1.647900462150574 340.7409057617188 C 1.647900462150574 339.8603210449219 1.860400438308716 339.0295715332031 2.237000465393066 338.2968139648438 C 0.8614504337310791 337.0186462402344 0.0009004058665595949 335.1940002441406 0.0009004058665595949 333.1683044433594 L 0.0009004058665595949 6.999308586120605 C 0.0009004058665595949 3.133808374404907 3.134700298309326 8.447265827271622e-06 7.000200271606445 8.447265827271622e-06 C 10.86570072174072 8.447265827271622e-06 14.00040054321289 3.133808374404907 14.00040054321289 6.999308586120605 L 14.00040054321289 333.1683044433594 C 14.00040054321289 335.1938171386719 13.13950061798096 337.0184936523438 11.76399993896484 338.2966613769531 C 12.140700340271 339.0293579101562 12.35340023040771 339.8603210449219 12.35340023040771 340.7409057617188 L 12.35340023040771 374.6475219726562 C 12.35340023040771 377.6031188964844 9.956700325012207 379.9998168945312 7.000200271606445 379.9998168945312 Z" stroke="none" fill="#31313c"/>
    </g>
    <path id="Trazado_187650" data-name="Trazado 187650" d="M1.5,0h6a1.5,1.5,0,0,1,0,3h-6a1.5,1.5,0,0,1,0-3Z" transform="translate(1551 395)" fill="#e55242"/>
    <path id="Trazado_187616" data-name="Trazado 187616" d="M2.79,0H312.358a2.79,2.79,0,1,1,0,5.581H2.79A2.79,2.79,0,0,1,2.79,0Z" transform="translate(1552.789 435.421) rotate(-90)" fill="#e55242"/>
    <path id="Trazado_187649" data-name="Trazado 187649" d="M1.594,0H40.26a1.594,1.594,0,1,1,0,3.189H1.594A1.594,1.594,0,0,1,1.594,0Z" transform="translate(1554.384 435.421) rotate(-90)" fill="#ea8f68"/>
    <path id="Trazado_187617" data-name="Trazado 187617" d="M0,0H11.958" transform="translate(1550.796 120.12)" fill="none" stroke="#31313c" stroke-width="1"/>
    <path id="Trazado_187618" data-name="Trazado 187618" d="M0,0H11.958" transform="translate(1550.796 142.442)" fill="none" stroke="#31313c" stroke-width="1"/>
    <path id="Trazado_187619" data-name="Trazado 187619" d="M0,0H11.958" transform="translate(1550.796 163.968)" fill="none" stroke="#31313c" stroke-width="1"/>
    <path id="Trazado_187620" data-name="Trazado 187620" d="M0,0H11.958" transform="translate(1550.796 186.29)" fill="none" stroke="#31313c" stroke-width="1"/>
    <path id="Trazado_187621" data-name="Trazado 187621" d="M0,0H11.958" transform="translate(1550.796 210.206)" fill="none" stroke="#31313c" stroke-width="1"/>
    <path id="Trazado_187627" data-name="Trazado 187627" d="M0,0H11.958" transform="translate(1550.796 231.731)" fill="none" stroke="#31313c" stroke-width="1"/>
    <path id="Trazado_187630" data-name="Trazado 187630" d="M0,0H11.958" transform="translate(1550.796 254.054)" fill="none" stroke="#31313c" stroke-width="1"/>
    <path id="Trazado_187633" data-name="Trazado 187633" d="M0,0H11.958" transform="translate(1550.796 276.376)" fill="none" stroke="#31313c" stroke-width="1"/>
    <path id="Trazado_187637" data-name="Trazado 187637" d="M0,0H11.958" transform="translate(1550.796 298.697)" fill="none" stroke="#31313c" stroke-width="1"/>
    <path id="Trazado_187639" data-name="Trazado 187639" d="M0,0H11.958" transform="translate(1550.796 321.02)" fill="none" stroke="#31313c" stroke-width="1"/>
    <path id="Trazado_187642" data-name="Trazado 187642" d="M0,0H11.958" transform="translate(1550.796 343.342)" fill="none" stroke="#31313c" stroke-width="1"/>
    <path id="Trazado_187646" data-name="Trazado 187646" d="M0,0H11.958" transform="translate(1550.796 365.664)" fill="none" stroke="#31313c" stroke-width="1"/>
    <path id="Trazado_187648" data-name="Trazado 187648" d="M0,0H11.958" transform="translate(1550.796 387.986)" fill="none" stroke="#31313c" stroke-width="1"/>
    <path id="Trazado_187622" data-name="Trazado 187622" d="M0,0H9.567" transform="translate(1553.188 132.079)" fill="none" stroke="#31313c" stroke-width="1"/>
    <path id="Trazado_187623" data-name="Trazado 187623" d="M0,0H9.567" transform="translate(1553.188 154.401)" fill="none" stroke="#31313c" stroke-width="1"/>
    <path id="Trazado_187624" data-name="Trazado 187624" d="M0,0H9.567" transform="translate(1553.188 175.926)" fill="none" stroke="#31313c" stroke-width="1"/>
    <path id="Trazado_187625" data-name="Trazado 187625" d="M0,0H9.567" transform="translate(1553.188 198.248)" fill="none" stroke="#31313c" stroke-width="1"/>
    <path id="Trazado_187626" data-name="Trazado 187626" d="M0,0H9.567" transform="translate(1553.188 222.165)" fill="none" stroke="#31313c" stroke-width="1"/>
    <path id="Trazado_187629" data-name="Trazado 187629" d="M0,0H9.567" transform="translate(1553.188 243.689)" fill="none" stroke="#31313c" stroke-width="1"/>
    <path id="Trazado_187631" data-name="Trazado 187631" d="M0,0H9.567" transform="translate(1553.188 266.012)" fill="none" stroke="#31313c" stroke-width="1"/>
    <path id="Trazado_187636" data-name="Trazado 187636" d="M0,0H9.567" transform="translate(1553.188 288.334)" fill="none" stroke="#31313c" stroke-width="1"/>
    <path id="Trazado_187638" data-name="Trazado 187638" d="M0,0H9.567" transform="translate(1553.188 310.656)" fill="none" stroke="#31313c" stroke-width="1"/>
    <path id="Trazado_187640" data-name="Trazado 187640" d="M0,0H9.567" transform="translate(1553.188 332.979)" fill="none" stroke="#31313c" stroke-width="1"/>
    <path id="Trazado_187643" data-name="Trazado 187643" d="M0,0H9.567" transform="translate(1553.188 355.3)" fill="none" stroke="#31313c" stroke-width="1"/>
    <path id="Trazado_187647" data-name="Trazado 187647" d="M0,0H9.567" transform="translate(1553.188 377.622)" fill="none" stroke="#31313c" stroke-width="1"/>
    <path id="Trazado_187628" data-name="Trazado 187628" d="M6.428,0H.58V-1.16L3.34-4.1a6.808,6.808,0,0,0,.841-1.084,1.742,1.742,0,0,0,.272-.879,1.3,1.3,0,0,0-.287-.894,1.036,1.036,0,0,0-.82-.325,1.118,1.118,0,0,0-.905.4,1.567,1.567,0,0,0-.331,1.04H.41A2.8,2.8,0,0,1,.782-7.271,2.622,2.622,0,0,1,1.834-8.282a3.2,3.2,0,0,1,1.541-.366,3.027,3.027,0,0,1,2.048.633,2.239,2.239,0,0,1,.729,1.787,2.868,2.868,0,0,1-.328,1.289A7.164,7.164,0,0,1,4.7-3.41L2.76-1.365H6.428Zm5.15,0H9.885V-6.527L7.863-5.9V-7.277L11.4-8.543h.182ZM20.2,0H14.35V-1.16L17.109-4.1a6.808,6.808,0,0,0,.841-1.084,1.742,1.742,0,0,0,.272-.879,1.3,1.3,0,0,0-.287-.894,1.036,1.036,0,0,0-.82-.325,1.118,1.118,0,0,0-.905.4,1.567,1.567,0,0,0-.331,1.04h-1.7a2.8,2.8,0,0,1,.372-1.424A2.622,2.622,0,0,1,15.6-8.282a3.2,3.2,0,0,1,1.541-.366,3.027,3.027,0,0,1,2.048.633,2.239,2.239,0,0,1,.729,1.787,2.868,2.868,0,0,1-.328,1.289A7.164,7.164,0,0,1,18.469-3.41L16.529-1.365H20.2Zm.683-5.883a2.193,2.193,0,0,1,.212-.981,1.551,1.551,0,0,1,.61-.666,1.78,1.78,0,0,1,.925-.236,1.684,1.684,0,0,1,1.222.458,1.838,1.838,0,0,1,.528,1.244l.007.253a1.933,1.933,0,0,1-.475,1.365,1.651,1.651,0,0,1-1.275.514,1.66,1.66,0,0,1-1.277-.513,1.967,1.967,0,0,1-.477-1.394Zm.988.07a1.382,1.382,0,0,0,.2.806.654.654,0,0,0,.567.279A.655.655,0,0,0,23.194-5a1.513,1.513,0,0,0,.2-.881,1.368,1.368,0,0,0-.2-.8.655.655,0,0,0-.567-.284.645.645,0,0,0-.561.282A1.538,1.538,0,0,0,21.868-5.813Zm8.639,2.327H27.132V0H25.374V-8.531h5.555v1.424h-3.8v2.2h3.375Z" transform="translate(1573 121)" fill="#12263f"/>
    <path id="Trazado_187612" data-name="Trazado 187612" d="M5.895-3.486H2.52V0H.762V-8.531H6.316v1.424H2.52v2.2H5.895ZM10.7,0a1.88,1.88,0,0,1-.17-.568,2.049,2.049,0,0,1-1.6.686A2.251,2.251,0,0,1,7.386-.422a1.734,1.734,0,0,1-.612-1.359,1.792,1.792,0,0,1,.747-1.547A3.686,3.686,0,0,1,9.68-3.873h.779v-.363a1.045,1.045,0,0,0-.226-.7A.887.887,0,0,0,9.521-5.2,1.009,1.009,0,0,0,8.851-5a.7.7,0,0,0-.243.563H6.914a1.7,1.7,0,0,1,.34-1.02,2.246,2.246,0,0,1,.961-.735,3.5,3.5,0,0,1,1.395-.267,2.767,2.767,0,0,1,1.86.589,2.06,2.06,0,0,1,.688,1.655v2.748A3.031,3.031,0,0,0,12.41-.1V0ZM9.3-1.178a1.458,1.458,0,0,0,.691-.167,1.1,1.1,0,0,0,.469-.448v-1.09H9.826q-1.271,0-1.354.879l-.006.1a.678.678,0,0,0,.223.521A.865.865,0,0,0,9.3-1.178Zm5.813-4.471A2.113,2.113,0,0,1,16.8-6.457q2.063,0,2.092,2.4V0H17.2V-4.014a1.178,1.178,0,0,0-.234-.806,1,1,0,0,0-.779-.261,1.153,1.153,0,0,0-1.078.574V0H13.418V-9h1.693Zm8.625.9a4.6,4.6,0,0,0-.609-.047,1.24,1.24,0,0,0-1.26.65V0H20.174V-6.34h1.6l.047.756a1.569,1.569,0,0,1,1.412-.873,1.774,1.774,0,0,1,.527.076ZM27.469.117A3.112,3.112,0,0,1,25.2-.738a3.041,3.041,0,0,1-.876-2.279v-.164a3.83,3.83,0,0,1,.369-1.708,2.709,2.709,0,0,1,1.046-1.16,2.936,2.936,0,0,1,1.544-.407,2.631,2.631,0,0,1,2.048.82,3.333,3.333,0,0,1,.747,2.326v.691H26.039a1.573,1.573,0,0,0,.5,1,1.5,1.5,0,0,0,1.046.375,1.828,1.828,0,0,0,1.529-.709l.832.932a2.542,2.542,0,0,1-1.031.841A3.383,3.383,0,0,1,27.469.117Zm-.193-5.209a1.058,1.058,0,0,0-.817.341,1.768,1.768,0,0,0-.4.977h2.355v-.135a1.261,1.261,0,0,0-.3-.874A1.092,1.092,0,0,0,27.275-5.092ZM32.6-6.34l.053.732a2.213,2.213,0,0,1,1.822-.85,1.84,1.84,0,0,1,1.5.592,2.761,2.761,0,0,1,.5,1.77V0H34.781V-4.055a1.1,1.1,0,0,0-.234-.782,1.049,1.049,0,0,0-.779-.243,1.165,1.165,0,0,0-1.072.609V0H31V-6.34Zm6.814.691A2.113,2.113,0,0,1,41.1-6.457q2.063,0,2.092,2.4V0H41.5V-4.014a1.178,1.178,0,0,0-.234-.806,1,1,0,0,0-.779-.261,1.153,1.153,0,0,0-1.078.574V0H37.717V-9H39.41ZM47.391.117A3.112,3.112,0,0,1,45.12-.738a3.041,3.041,0,0,1-.876-2.279v-.164a3.83,3.83,0,0,1,.369-1.708,2.709,2.709,0,0,1,1.046-1.16A2.936,2.936,0,0,1,47.2-6.457a2.631,2.631,0,0,1,2.048.82A3.333,3.333,0,0,1,50-3.311v.691H45.961a1.573,1.573,0,0,0,.5,1,1.5,1.5,0,0,0,1.046.375,1.828,1.828,0,0,0,1.529-.709l.832.932a2.542,2.542,0,0,1-1.031.841A3.383,3.383,0,0,1,47.391.117ZM47.2-5.092a1.058,1.058,0,0,0-.817.341,1.768,1.768,0,0,0-.4.977h2.355v-.135a1.261,1.261,0,0,0-.3-.874A1.092,1.092,0,0,0,47.2-5.092ZM52.746,0h-1.7V-6.34h1.7Zm-1.8-7.98a.834.834,0,0,1,.255-.627.958.958,0,0,1,.694-.246.96.96,0,0,1,.691.246.829.829,0,0,1,.258.627.831.831,0,0,1-.261.633A.962.962,0,0,1,51.9-7.1a.962.962,0,0,1-.688-.246A.831.831,0,0,1,50.947-7.98Zm5.221.082V-6.34h1.084V-5.1H56.168v3.164a.756.756,0,0,0,.135.5.677.677,0,0,0,.516.152,2.7,2.7,0,0,0,.5-.041V-.035a3.486,3.486,0,0,1-1.025.152,1.617,1.617,0,0,1-1.816-1.8V-5.1h-.926V-6.34h.926V-7.9Z" transform="translate(1526 51)" fill="#12263f"/>
    <path id="Trazado_187610" data-name="Trazado 187610" d="M.762,0V-8.531H3.75a3.924,3.924,0,0,1,2.355.595,2.034,2.034,0,0,1,.8,1.743,1.927,1.927,0,0,1-.322,1.1,1.861,1.861,0,0,1-.9.7,1.8,1.8,0,0,1,1.034.662A1.957,1.957,0,0,1,7.1-2.508,2.251,2.251,0,0,1,6.316-.645,3.535,3.535,0,0,1,4.078,0ZM2.52-3.715v2.3H4.025a1.453,1.453,0,0,0,.97-.3,1.015,1.015,0,0,0,.349-.817A1.071,1.071,0,0,0,4.131-3.715Zm0-1.242h1.3Q5.15-4.98,5.15-6.018a.98.98,0,0,0-.337-.835A1.772,1.772,0,0,0,3.75-7.107H2.52ZM8.045-3.229A3.76,3.76,0,0,1,8.408-4.91,2.659,2.659,0,0,1,9.454-6.053a3.051,3.051,0,0,1,1.585-.4,2.887,2.887,0,0,1,2.095.785,3.151,3.151,0,0,1,.905,2.133l.012.434a3.314,3.314,0,0,1-.814,2.341,2.831,2.831,0,0,1-2.186.882A2.845,2.845,0,0,1,8.862-.762a3.372,3.372,0,0,1-.817-2.391Zm1.693.12a2.37,2.37,0,0,0,.34,1.382,1.121,1.121,0,0,0,.973.478,1.124,1.124,0,0,0,.961-.472,2.593,2.593,0,0,0,.346-1.511A2.346,2.346,0,0,0,12.012-4.6a1.124,1.124,0,0,0-.973-.487,1.105,1.105,0,0,0-.961.484A2.637,2.637,0,0,0,9.738-3.108ZM16.881,0h-1.7V-6.34h1.7Zm-1.8-7.98a.834.834,0,0,1,.255-.627.958.958,0,0,1,.694-.246.96.96,0,0,1,.691.246.829.829,0,0,1,.258.627.831.831,0,0,1-.261.633.962.962,0,0,1-.688.246.962.962,0,0,1-.688-.246A.831.831,0,0,1,15.082-7.98ZM20.063,0h-1.7V-9h1.7Zm3.182,0h-1.7V-6.34h1.7Zm-1.8-7.98a.834.834,0,0,1,.255-.627.958.958,0,0,1,.694-.246.96.96,0,0,1,.691.246.829.829,0,0,1,.258.627.831.831,0,0,1-.261.633.962.962,0,0,1-.688.246.962.962,0,0,1-.688-.246A.831.831,0,0,1,21.445-7.98ZM26.2-6.34l.053.732a2.213,2.213,0,0,1,1.822-.85,1.84,1.84,0,0,1,1.5.592,2.761,2.761,0,0,1,.5,1.77V0H28.383V-4.055a1.1,1.1,0,0,0-.234-.782,1.049,1.049,0,0,0-.779-.243,1.165,1.165,0,0,0-1.072.609V0H24.6V-6.34Zm4.916,3.123a3.716,3.716,0,0,1,.694-2.35,2.25,2.25,0,0,1,1.872-.891,1.973,1.973,0,0,1,1.623.715l.07-.6h1.535V-.211a2.71,2.71,0,0,1-.378,1.447,2.427,2.427,0,0,1-1.063.938,3.739,3.739,0,0,1-1.605.322A3.476,3.476,0,0,1,32.5,2.218a2.413,2.413,0,0,1-1-.718L32.25.469a1.984,1.984,0,0,0,1.535.709,1.452,1.452,0,0,0,1.049-.36,1.352,1.352,0,0,0,.375-1.022v-.34a1.959,1.959,0,0,1-1.541.662,2.244,2.244,0,0,1-1.849-.894,3.715,3.715,0,0,1-.706-2.37Zm1.693.126a2.314,2.314,0,0,0,.346,1.353,1.1,1.1,0,0,0,.949.49,1.176,1.176,0,0,0,1.107-.581V-4.5a1.173,1.173,0,0,0-1.1-.581,1.107,1.107,0,0,0-.958.5A2.608,2.608,0,0,0,32.807-3.091Zm14.1-.021a3.8,3.8,0,0,1-.665,2.347,2.132,2.132,0,0,1-1.8.882,1.975,1.975,0,0,1-1.553-.668V2.438H41.2V-6.34h1.57l.059.621a1.99,1.99,0,0,1,1.605-.738,2.147,2.147,0,0,1,1.822.867A3.905,3.905,0,0,1,46.9-3.2Zm-1.693-.123A2.5,2.5,0,0,0,44.9-4.6a1.021,1.021,0,0,0-.911-.48,1.109,1.109,0,0,0-1.1.609v2.6A1.128,1.128,0,0,0,44-1.248Q45.211-1.248,45.211-3.234Zm2.479.006a3.76,3.76,0,0,1,.363-1.682A2.659,2.659,0,0,1,49.1-6.053a3.051,3.051,0,0,1,1.585-.4,2.887,2.887,0,0,1,2.095.785,3.151,3.151,0,0,1,.905,2.133l.012.434a3.314,3.314,0,0,1-.814,2.341A2.831,2.831,0,0,1,50.7.117a2.845,2.845,0,0,1-2.188-.879,3.372,3.372,0,0,1-.817-2.391Zm1.693.12a2.37,2.37,0,0,0,.34,1.382,1.121,1.121,0,0,0,.973.478,1.124,1.124,0,0,0,.961-.472A2.593,2.593,0,0,0,52-3.232,2.346,2.346,0,0,0,51.656-4.6a1.124,1.124,0,0,0-.973-.487,1.105,1.105,0,0,0-.961.484A2.637,2.637,0,0,0,49.383-3.108ZM56.525,0h-1.7V-6.34h1.7Zm-1.8-7.98a.834.834,0,0,1,.255-.627.958.958,0,0,1,.694-.246.96.96,0,0,1,.691.246.829.829,0,0,1,.258.627.831.831,0,0,1-.261.633.962.962,0,0,1-.688.246.962.962,0,0,1-.688-.246A.831.831,0,0,1,54.727-7.98ZM59.479-6.34l.053.732a2.213,2.213,0,0,1,1.822-.85,1.84,1.84,0,0,1,1.5.592,2.761,2.761,0,0,1,.5,1.77V0H61.664V-4.055a1.1,1.1,0,0,0-.234-.782,1.049,1.049,0,0,0-.779-.243,1.165,1.165,0,0,0-1.072.609V0H57.885V-6.34ZM66.668-7.9V-6.34h1.084V-5.1H66.668v3.164a.756.756,0,0,0,.135.5.677.677,0,0,0,.516.152,2.7,2.7,0,0,0,.5-.041V-.035a3.486,3.486,0,0,1-1.025.152,1.617,1.617,0,0,1-1.816-1.8V-5.1h-.926V-6.34h.926V-7.9ZM.387,9.771A3.76,3.76,0,0,1,.75,8.09,2.659,2.659,0,0,1,1.8,6.947a3.051,3.051,0,0,1,1.585-.4,2.887,2.887,0,0,1,2.095.785,3.151,3.151,0,0,1,.905,2.133l.012.434a3.314,3.314,0,0,1-.814,2.341,2.831,2.831,0,0,1-2.186.882A2.845,2.845,0,0,1,1.2,12.238,3.372,3.372,0,0,1,.387,9.848Zm1.693.12a2.37,2.37,0,0,0,.34,1.382,1.121,1.121,0,0,0,.973.478,1.124,1.124,0,0,0,.961-.472A2.593,2.593,0,0,0,4.7,9.768,2.346,2.346,0,0,0,4.354,8.4a1.124,1.124,0,0,0-.973-.487,1.105,1.105,0,0,0-.961.484A2.637,2.637,0,0,0,2.08,9.892ZM7.9,13V7.9H6.955V6.66H7.9V6.121a2.189,2.189,0,0,1,.612-1.655,2.371,2.371,0,0,1,1.714-.589,3.959,3.959,0,0,1,.861.117l-.018,1.313a2.159,2.159,0,0,0-.516-.053q-.955,0-.955.9v.51h1.26V7.9H9.6V13Zm12.34-2.3L21.07,6.66h1.635L21.088,13H19.67l-1.2-3.99L17.268,13H15.855L14.238,6.66h1.635l.826,4.031,1.16-4.031h1.225ZM27.217,13a1.88,1.88,0,0,1-.17-.568,2.049,2.049,0,0,1-1.6.686,2.251,2.251,0,0,1-1.544-.539,1.734,1.734,0,0,1-.612-1.359,1.792,1.792,0,0,1,.747-1.547A3.686,3.686,0,0,1,26.2,9.127h.779V8.764a1.045,1.045,0,0,0-.226-.7.887.887,0,0,0-.712-.264A1.009,1.009,0,0,0,25.368,8a.7.7,0,0,0-.243.563H23.432a1.7,1.7,0,0,1,.34-1.02,2.246,2.246,0,0,1,.961-.735,3.5,3.5,0,0,1,1.395-.267,2.767,2.767,0,0,1,1.86.589,2.06,2.06,0,0,1,.688,1.655v2.748a3.031,3.031,0,0,0,.252,1.365V13Zm-1.4-1.178a1.458,1.458,0,0,0,.691-.167,1.1,1.1,0,0,0,.469-.448v-1.09h-.633q-1.271,0-1.354.879l-.006.1a.678.678,0,0,0,.223.521A.865.865,0,0,0,25.816,11.822ZM32,5.1V6.66h1.084V7.9H32v3.164a.756.756,0,0,0,.135.5.677.677,0,0,0,.516.152,2.7,2.7,0,0,0,.5-.041v1.283a3.486,3.486,0,0,1-1.025.152,1.617,1.617,0,0,1-1.816-1.8V7.9h-.926V6.66h.926V5.1Zm4.945,8.016a3.112,3.112,0,0,1-2.271-.855A3.041,3.041,0,0,1,33.8,9.982V9.818a3.83,3.83,0,0,1,.369-1.708,2.709,2.709,0,0,1,1.046-1.16,2.936,2.936,0,0,1,1.544-.407,2.631,2.631,0,0,1,2.048.82,3.333,3.333,0,0,1,.747,2.326v.691H35.52a1.573,1.573,0,0,0,.5,1,1.5,1.5,0,0,0,1.046.375,1.828,1.828,0,0,0,1.529-.709l.832.932a2.542,2.542,0,0,1-1.031.841A3.383,3.383,0,0,1,36.949,13.117Zm-.193-5.209a1.058,1.058,0,0,0-.817.341,1.768,1.768,0,0,0-.4.977h2.355V9.091a1.261,1.261,0,0,0-.3-.874A1.092,1.092,0,0,0,36.756,7.908Zm7.324.34a4.6,4.6,0,0,0-.609-.047,1.24,1.24,0,0,0-1.26.65V13H40.518V6.66h1.6l.047.756a1.569,1.569,0,0,1,1.412-.873,1.774,1.774,0,0,1,.527.076Z" transform="translate(1375 121)" fill="#12263f"/>
    <path id="Trazado_187632" data-name="Trazado 187632" d="M5.895-3.486H2.52V0H.762V-8.531H6.316v1.424H2.52v2.2H5.895Zm4.74-1.266a4.6,4.6,0,0,0-.609-.047,1.24,1.24,0,0,0-1.26.65V0H7.072V-6.34h1.6l.047.756a1.569,1.569,0,0,1,1.412-.873,1.774,1.774,0,0,1,.527.076ZM14.367.117A3.112,3.112,0,0,1,12.1-.738a3.041,3.041,0,0,1-.876-2.279v-.164A3.83,3.83,0,0,1,11.59-4.89a2.709,2.709,0,0,1,1.046-1.16,2.936,2.936,0,0,1,1.544-.407,2.631,2.631,0,0,1,2.048.82,3.333,3.333,0,0,1,.747,2.326v.691H12.938a1.573,1.573,0,0,0,.5,1,1.5,1.5,0,0,0,1.046.375,1.828,1.828,0,0,0,1.529-.709l.832.932a2.542,2.542,0,0,1-1.031.841A3.383,3.383,0,0,1,14.367.117Zm-.193-5.209a1.058,1.058,0,0,0-.817.341,1.768,1.768,0,0,0-.4.977h2.355v-.135a1.261,1.261,0,0,0-.3-.874A1.092,1.092,0,0,0,14.174-5.092ZM20.854.117a3.112,3.112,0,0,1-2.271-.855,3.041,3.041,0,0,1-.876-2.279v-.164a3.83,3.83,0,0,1,.369-1.708,2.709,2.709,0,0,1,1.046-1.16,2.936,2.936,0,0,1,1.544-.407,2.631,2.631,0,0,1,2.048.82,3.333,3.333,0,0,1,.747,2.326v.691H19.424a1.573,1.573,0,0,0,.5,1,1.5,1.5,0,0,0,1.046.375,1.828,1.828,0,0,0,1.529-.709l.832.932a2.542,2.542,0,0,1-1.031.841A3.383,3.383,0,0,1,20.854.117ZM20.66-5.092a1.058,1.058,0,0,0-.817.341,1.768,1.768,0,0,0-.4.977H21.8v-.135a1.261,1.261,0,0,0-.3-.874A1.092,1.092,0,0,0,20.66-5.092Zm5.707,3.727h3.1V0H24.205V-1.031l2.982-3.943H24.293V-6.34h5.08v1ZM32.314,0h-1.7V-6.34h1.7Zm-1.8-7.98a.834.834,0,0,1,.255-.627.958.958,0,0,1,.694-.246.96.96,0,0,1,.691.246.829.829,0,0,1,.258.627.831.831,0,0,1-.261.633.962.962,0,0,1-.688.246.962.962,0,0,1-.688-.246A.831.831,0,0,1,30.516-7.98ZM35.268-6.34l.053.732a2.213,2.213,0,0,1,1.822-.85,1.84,1.84,0,0,1,1.5.592,2.761,2.761,0,0,1,.5,1.77V0H37.453V-4.055a1.1,1.1,0,0,0-.234-.782,1.049,1.049,0,0,0-.779-.243,1.165,1.165,0,0,0-1.072.609V0H33.674V-6.34Zm4.916,3.123a3.716,3.716,0,0,1,.694-2.35,2.25,2.25,0,0,1,1.872-.891,1.973,1.973,0,0,1,1.623.715l.07-.6h1.535V-.211A2.71,2.71,0,0,1,45.6,1.236a2.427,2.427,0,0,1-1.063.938,3.739,3.739,0,0,1-1.605.322,3.476,3.476,0,0,1-1.359-.278,2.413,2.413,0,0,1-1-.718L41.32.469a1.984,1.984,0,0,0,1.535.709A1.452,1.452,0,0,0,43.9.817a1.352,1.352,0,0,0,.375-1.022v-.34a1.959,1.959,0,0,1-1.541.662A2.244,2.244,0,0,1,40.89-.776a3.715,3.715,0,0,1-.706-2.37Zm1.693.126a2.314,2.314,0,0,0,.346,1.353,1.1,1.1,0,0,0,.949.49,1.176,1.176,0,0,0,1.107-.581V-4.5a1.173,1.173,0,0,0-1.1-.581,1.107,1.107,0,0,0-.958.5A2.608,2.608,0,0,0,41.877-3.091Zm14.1-.021A3.8,3.8,0,0,1,55.31-.765a2.132,2.132,0,0,1-1.8.882,1.975,1.975,0,0,1-1.553-.668V2.438H50.268V-6.34h1.57l.059.621A1.99,1.99,0,0,1,53.5-6.457a2.147,2.147,0,0,1,1.822.867,3.905,3.905,0,0,1,.65,2.391Zm-1.693-.123A2.5,2.5,0,0,0,53.968-4.6a1.021,1.021,0,0,0-.911-.48,1.109,1.109,0,0,0-1.1.609v2.6a1.128,1.128,0,0,0,1.107.627Q54.281-1.248,54.281-3.234Zm2.479.006a3.76,3.76,0,0,1,.363-1.682,2.659,2.659,0,0,1,1.046-1.143,3.051,3.051,0,0,1,1.585-.4,2.887,2.887,0,0,1,2.095.785,3.151,3.151,0,0,1,.905,2.133l.012.434a3.314,3.314,0,0,1-.814,2.341,2.831,2.831,0,0,1-2.186.882,2.845,2.845,0,0,1-2.188-.879,3.372,3.372,0,0,1-.817-2.391Zm1.693.12a2.37,2.37,0,0,0,.34,1.382,1.121,1.121,0,0,0,.973.478,1.124,1.124,0,0,0,.961-.472,2.593,2.593,0,0,0,.346-1.511A2.346,2.346,0,0,0,60.727-4.6a1.124,1.124,0,0,0-.973-.487,1.105,1.105,0,0,0-.961.484A2.637,2.637,0,0,0,58.453-3.108ZM65.6,0H63.9V-6.34h1.7ZM63.8-7.98a.834.834,0,0,1,.255-.627.958.958,0,0,1,.694-.246.96.96,0,0,1,.691.246.829.829,0,0,1,.258.627.831.831,0,0,1-.261.633.962.962,0,0,1-.688.246.962.962,0,0,1-.688-.246A.831.831,0,0,1,63.8-7.98ZM68.549-6.34l.053.732a2.213,2.213,0,0,1,1.822-.85,1.84,1.84,0,0,1,1.5.592,2.761,2.761,0,0,1,.5,1.77V0H70.734V-4.055a1.1,1.1,0,0,0-.234-.782,1.049,1.049,0,0,0-.779-.243,1.165,1.165,0,0,0-1.072.609V0H66.955V-6.34ZM75.738-7.9V-6.34h1.084V-5.1H75.738v3.164a.756.756,0,0,0,.135.5.677.677,0,0,0,.516.152,2.7,2.7,0,0,0,.5-.041V-.035a3.486,3.486,0,0,1-1.025.152,1.617,1.617,0,0,1-1.816-1.8V-5.1h-.926V-6.34h.926V-7.9ZM.387,9.771A3.76,3.76,0,0,1,.75,8.09,2.659,2.659,0,0,1,1.8,6.947a3.051,3.051,0,0,1,1.585-.4,2.887,2.887,0,0,1,2.095.785,3.151,3.151,0,0,1,.905,2.133l.012.434a3.314,3.314,0,0,1-.814,2.341,2.831,2.831,0,0,1-2.186.882A2.845,2.845,0,0,1,1.2,12.238,3.372,3.372,0,0,1,.387,9.848Zm1.693.12a2.37,2.37,0,0,0,.34,1.382,1.121,1.121,0,0,0,.973.478,1.124,1.124,0,0,0,.961-.472A2.593,2.593,0,0,0,4.7,9.768,2.346,2.346,0,0,0,4.354,8.4a1.124,1.124,0,0,0-.973-.487,1.105,1.105,0,0,0-.961.484A2.637,2.637,0,0,0,2.08,9.892ZM7.9,13V7.9H6.955V6.66H7.9V6.121a2.189,2.189,0,0,1,.612-1.655,2.371,2.371,0,0,1,1.714-.589,3.959,3.959,0,0,1,.861.117l-.018,1.313a2.159,2.159,0,0,0-.516-.053q-.955,0-.955.9v.51h1.26V7.9H9.6V13Zm12.34-2.3L21.07,6.66h1.635L21.088,13H19.67l-1.2-3.99L17.268,13H15.855L14.238,6.66h1.635l.826,4.031,1.16-4.031h1.225ZM27.217,13a1.88,1.88,0,0,1-.17-.568,2.049,2.049,0,0,1-1.6.686,2.251,2.251,0,0,1-1.544-.539,1.734,1.734,0,0,1-.612-1.359,1.792,1.792,0,0,1,.747-1.547A3.686,3.686,0,0,1,26.2,9.127h.779V8.764a1.045,1.045,0,0,0-.226-.7.887.887,0,0,0-.712-.264A1.009,1.009,0,0,0,25.368,8a.7.7,0,0,0-.243.563H23.432a1.7,1.7,0,0,1,.34-1.02,2.246,2.246,0,0,1,.961-.735,3.5,3.5,0,0,1,1.395-.267,2.767,2.767,0,0,1,1.86.589,2.06,2.06,0,0,1,.688,1.655v2.748a3.031,3.031,0,0,0,.252,1.365V13Zm-1.4-1.178a1.458,1.458,0,0,0,.691-.167,1.1,1.1,0,0,0,.469-.448v-1.09h-.633q-1.271,0-1.354.879l-.006.1a.678.678,0,0,0,.223.521A.865.865,0,0,0,25.816,11.822ZM32,5.1V6.66h1.084V7.9H32v3.164a.756.756,0,0,0,.135.5.677.677,0,0,0,.516.152,2.7,2.7,0,0,0,.5-.041v1.283a3.486,3.486,0,0,1-1.025.152,1.617,1.617,0,0,1-1.816-1.8V7.9h-.926V6.66h.926V5.1Zm4.945,8.016a3.112,3.112,0,0,1-2.271-.855A3.041,3.041,0,0,1,33.8,9.982V9.818a3.83,3.83,0,0,1,.369-1.708,2.709,2.709,0,0,1,1.046-1.16,2.936,2.936,0,0,1,1.544-.407,2.631,2.631,0,0,1,2.048.82,3.333,3.333,0,0,1,.747,2.326v.691H35.52a1.573,1.573,0,0,0,.5,1,1.5,1.5,0,0,0,1.046.375,1.828,1.828,0,0,0,1.529-.709l.832.932a2.542,2.542,0,0,1-1.031.841A3.383,3.383,0,0,1,36.949,13.117Zm-.193-5.209a1.058,1.058,0,0,0-.817.341,1.768,1.768,0,0,0-.4.977h2.355V9.091a1.261,1.261,0,0,0-.3-.874A1.092,1.092,0,0,0,36.756,7.908Zm7.324.34a4.6,4.6,0,0,0-.609-.047,1.24,1.24,0,0,0-1.26.65V13H40.518V6.66h1.6l.047.756a1.569,1.569,0,0,1,1.412-.873,1.774,1.774,0,0,1,.527.076Z" transform="translate(1375 281)" fill="#12263f"/>
    <path id="Trazado_187641" data-name="Trazado 187641" d="M.226-5.883a2.193,2.193,0,0,1,.212-.981,1.551,1.551,0,0,1,.61-.666,1.78,1.78,0,0,1,.925-.236,1.684,1.684,0,0,1,1.222.458,1.838,1.838,0,0,1,.528,1.244l.007.253a1.933,1.933,0,0,1-.475,1.365,1.651,1.651,0,0,1-1.275.514A1.66,1.66,0,0,1,.7-4.444,1.967,1.967,0,0,1,.226-5.839Zm.988.07a1.382,1.382,0,0,0,.2.806.654.654,0,0,0,.567.279A.655.655,0,0,0,2.539-5a1.513,1.513,0,0,0,.2-.881,1.368,1.368,0,0,0-.2-.8.655.655,0,0,0-.567-.284.645.645,0,0,0-.561.282A1.538,1.538,0,0,0,1.213-5.813ZM9.852-3.486H6.477V0H4.72V-8.531h5.555v1.424h-3.8v2.2H9.852Zm6.715-.885H11.329V-5.754h5.238Zm0,2.537H11.329V-3.217h5.238ZM19.7-5.016h.9a1.271,1.271,0,0,0,.955-.322,1.181,1.181,0,0,0,.311-.855,1.044,1.044,0,0,0-.308-.8,1.192,1.192,0,0,0-.847-.287,1.25,1.25,0,0,0-.814.267.852.852,0,0,0-.328.694H17.88a2.083,2.083,0,0,1,.36-1.2,2.4,2.4,0,0,1,1.008-.829,3.364,3.364,0,0,1,1.427-.3A3.19,3.19,0,0,1,22.8-8a2.209,2.209,0,0,1,.768,1.784,1.8,1.8,0,0,1-.357,1.078,2.322,2.322,0,0,1-.937.756,2.12,2.12,0,0,1,1.075.773A2.1,2.1,0,0,1,23.7-2.391a2.246,2.246,0,0,1-.829,1.822,3.334,3.334,0,0,1-2.194.686,3.161,3.161,0,0,1-2.089-.674,2.2,2.2,0,0,1-.812-1.781h1.693a.981.981,0,0,0,.36.785,1.328,1.328,0,0,0,.888.3,1.334,1.334,0,0,0,.946-.319A1.1,1.1,0,0,0,22-2.414Q22-3.691,20.6-3.691h-.9ZM30.712,0H24.864V-1.16L27.624-4.1a6.808,6.808,0,0,0,.841-1.084,1.742,1.742,0,0,0,.272-.879,1.3,1.3,0,0,0-.287-.894,1.036,1.036,0,0,0-.82-.325,1.118,1.118,0,0,0-.905.4,1.567,1.567,0,0,0-.331,1.04h-1.7a2.8,2.8,0,0,1,.372-1.424,2.622,2.622,0,0,1,1.052-1.011,3.2,3.2,0,0,1,1.541-.366,3.027,3.027,0,0,1,2.048.633,2.239,2.239,0,0,1,.729,1.787,2.868,2.868,0,0,1-.328,1.289A7.164,7.164,0,0,1,28.983-3.41L27.044-1.365h3.668Zm1.2-.832a.852.852,0,0,1,.272-.656.967.967,0,0,1,.683-.252.975.975,0,0,1,.688.252.852.852,0,0,1,.272.656.841.841,0,0,1-.27.647.979.979,0,0,1-.691.249.971.971,0,0,1-.686-.249A.841.841,0,0,1,31.907-.832Zm9.07-2.7A4.322,4.322,0,0,1,40.245-.82,2.557,2.557,0,0,1,38.1.117,2.574,2.574,0,0,1,35.968-.8a4.2,4.2,0,0,1-.756-2.637V-5.01a4.265,4.265,0,0,1,.741-2.713,2.576,2.576,0,0,1,2.136-.926,2.578,2.578,0,0,1,2.133.917A4.182,4.182,0,0,1,40.977-5.1ZM39.284-5.254a3.124,3.124,0,0,0-.29-1.546.98.98,0,0,0-.905-.484.963.963,0,0,0-.882.46,2.924,2.924,0,0,0-.3,1.44v2.076a3.279,3.279,0,0,0,.284,1.551.967.967,0,0,0,.911.507.951.951,0,0,0,.9-.487,3.2,3.2,0,0,0,.287-1.49Zm6.322.478h2.115v1.529H45.606V-.855H43.995V-3.246H41.874V-4.775h2.121V-7.066h1.611Zm3.211,1.307a8.992,8.992,0,0,1,.357-2.555,6.742,6.742,0,0,1,1.055-2.147,3.938,3.938,0,0,1,1.512-1.3l.328.914A4.079,4.079,0,0,0,50.733-6.6a9.061,9.061,0,0,0-.48,3.094v.182a9.235,9.235,0,0,0,.475,3.105A4.158,4.158,0,0,0,52.069,1.77l-.328.9A3.94,3.94,0,0,1,50.256,1.4,6.629,6.629,0,0,1,49.2-.686a8.939,8.939,0,0,1-.387-2.473Zm8.027.059a2.138,2.138,0,0,1-1.547.65,2.287,2.287,0,0,1-1.811-.776,3.068,3.068,0,0,1-.68-2.095,3.268,3.268,0,0,1,.366-1.538A2.686,2.686,0,0,1,54.2-8.259a2.837,2.837,0,0,1,1.477-.39,2.713,2.713,0,0,1,1.5.422,2.774,2.774,0,0,1,1.02,1.213A4.355,4.355,0,0,1,58.561-5.2v.627A4.935,4.935,0,0,1,57.5-1.225a4.01,4.01,0,0,1-3.006,1.3l-.416.006V-1.33l.375-.006A2.165,2.165,0,0,0,56.845-3.41Zm-1.131-.645a1.184,1.184,0,0,0,.706-.211,1.409,1.409,0,0,0,.448-.51v-.7a2.328,2.328,0,0,0-.328-1.336,1.018,1.018,0,0,0-.879-.475.989.989,0,0,0-.838.466,1.981,1.981,0,0,0-.328,1.169A1.927,1.927,0,0,0,54.814-4.5,1.04,1.04,0,0,0,55.714-4.055ZM60.372.732h-1.26l3.141-9.264h1.26ZM64.5-4.2l.492-4.336h4.781v1.412H66.384l-.211,1.834a2.685,2.685,0,0,1,1.283-.322,2.459,2.459,0,0,1,1.91.756,3.019,3.019,0,0,1,.691,2.115,3.093,3.093,0,0,1-.349,1.479,2.461,2.461,0,0,1-1,1.014,3.119,3.119,0,0,1-1.535.36A3.312,3.312,0,0,1,65.739-.2a2.546,2.546,0,0,1-1.046-.882,2.4,2.4,0,0,1-.407-1.295h1.676a1.252,1.252,0,0,0,.372.829,1.18,1.18,0,0,0,.835.3,1.041,1.041,0,0,0,.885-.413,1.914,1.914,0,0,0,.311-1.169,1.582,1.582,0,0,0-.357-1.113,1.312,1.312,0,0,0-1.014-.387,1.466,1.466,0,0,0-.979.316l-.164.152Zm9.621.861a8.533,8.533,0,0,1-.381,2.549,6.919,6.919,0,0,1-1.1,2.162,3.948,3.948,0,0,1-1.529,1.289l-.328-.9A4.12,4.12,0,0,0,72.1-.164a8.954,8.954,0,0,0,.5-3.006V-3.48a9.156,9.156,0,0,0-.478-3.088,4.3,4.3,0,0,0-1.333-2l.328-.9a3.949,3.949,0,0,1,1.5,1.254,6.83,6.83,0,0,1,1.1,2.115,8.472,8.472,0,0,1,.407,2.5Zm.888-2.549a2.193,2.193,0,0,1,.212-.981,1.551,1.551,0,0,1,.61-.666,1.78,1.78,0,0,1,.925-.236,1.684,1.684,0,0,1,1.222.458,1.838,1.838,0,0,1,.528,1.244l.007.253a1.933,1.933,0,0,1-.475,1.365,1.651,1.651,0,0,1-1.275.514,1.66,1.66,0,0,1-1.277-.513,1.967,1.967,0,0,1-.477-1.394Zm.988.07a1.382,1.382,0,0,0,.2.806.654.654,0,0,0,.567.279A.655.655,0,0,0,77.325-5a1.513,1.513,0,0,0,.2-.881,1.368,1.368,0,0,0-.2-.8.656.656,0,0,0-.567-.284.645.645,0,0,0-.561.282A1.538,1.538,0,0,0,76-5.813ZM86.2-2.842A3.019,3.019,0,0,1,85.186-.674a3.57,3.57,0,0,1-2.417.791,3.21,3.21,0,0,1-2.581-1.1,4.529,4.529,0,0,1-.94-3.032v-.521a5.114,5.114,0,0,1,.434-2.168A3.249,3.249,0,0,1,80.92-8.147a3.471,3.471,0,0,1,1.872-.5,3.478,3.478,0,0,1,2.379.791,3.244,3.244,0,0,1,1.043,2.221H84.457a1.782,1.782,0,0,0-.46-1.2,1.7,1.7,0,0,0-1.2-.372,1.494,1.494,0,0,0-1.315.63,3.53,3.53,0,0,0-.448,1.954v.645a3.778,3.778,0,0,0,.419,2.021,1.466,1.466,0,0,0,1.321.639,1.735,1.735,0,0,0,1.216-.372,1.681,1.681,0,0,0,.46-1.151Z" transform="translate(1398 352)" fill="#12263f"/>
    <path id="Trazado_187644" data-name="Trazado 187644" d="M.226-5.883a2.193,2.193,0,0,1,.212-.981,1.551,1.551,0,0,1,.61-.666,1.78,1.78,0,0,1,.925-.236,1.684,1.684,0,0,1,1.222.458,1.838,1.838,0,0,1,.528,1.244l.007.253a1.933,1.933,0,0,1-.475,1.365,1.651,1.651,0,0,1-1.275.514A1.66,1.66,0,0,1,.7-4.444,1.967,1.967,0,0,1,.226-5.839Zm.988.07a1.382,1.382,0,0,0,.2.806.654.654,0,0,0,.567.279A.655.655,0,0,0,2.539-5a1.513,1.513,0,0,0,.2-.881,1.368,1.368,0,0,0-.2-.8.655.655,0,0,0-.567-.284.645.645,0,0,0-.561.282A1.538,1.538,0,0,0,1.213-5.813Zm10.2,2.971A3.019,3.019,0,0,1,10.4-.674,3.57,3.57,0,0,1,7.983.117,3.21,3.21,0,0,1,5.4-.987a4.529,4.529,0,0,1-.94-3.032v-.521A5.114,5.114,0,0,1,4.9-6.709,3.249,3.249,0,0,1,6.135-8.147a3.471,3.471,0,0,1,1.872-.5,3.478,3.478,0,0,1,2.379.791,3.244,3.244,0,0,1,1.043,2.221H9.671a1.782,1.782,0,0,0-.46-1.2,1.7,1.7,0,0,0-1.2-.372,1.494,1.494,0,0,0-1.315.63,3.53,3.53,0,0,0-.448,1.954v.645a3.778,3.778,0,0,0,.419,2.021,1.466,1.466,0,0,0,1.321.639A1.735,1.735,0,0,0,9.2-1.69a1.681,1.681,0,0,0,.46-1.151Zm6.428-1.529H12.606V-5.754h5.238Zm0,2.537H12.606V-3.217h5.238ZM19.4-3.469a8.992,8.992,0,0,1,.357-2.555,6.742,6.742,0,0,1,1.055-2.147,3.938,3.938,0,0,1,1.512-1.3l.328.914A4.079,4.079,0,0,0,21.319-6.6a9.061,9.061,0,0,0-.48,3.094v.182a9.235,9.235,0,0,0,.475,3.105A4.158,4.158,0,0,0,22.655,1.77l-.328.9A3.94,3.94,0,0,1,20.842,1.4,6.629,6.629,0,0,1,19.79-.686,8.939,8.939,0,0,1,19.4-3.158Zm8.018-2.907a3,3,0,0,1-.26,1.289,1.956,1.956,0,0,1-.743.854,2.056,2.056,0,0,1-1.109.3,2.07,2.07,0,0,1-1.1-.3,1.975,1.975,0,0,1-.752-.849,2.918,2.918,0,0,1-.27-1.27v-.246a2.988,2.988,0,0,1,.265-1.294,1.972,1.972,0,0,1,.748-.858,2.059,2.059,0,0,1,1.106-.3,2.059,2.059,0,0,1,1.106.3,1.972,1.972,0,0,1,.748.858,2.98,2.98,0,0,1,.265,1.29ZM26.382-6.6A2.094,2.094,0,0,0,26.1-7.79a.913.913,0,0,0-.8-.407.914.914,0,0,0-.8.4,2.07,2.07,0,0,0-.284,1.177v.243a2.12,2.12,0,0,0,.28,1.183.911.911,0,0,0,.807.42.9.9,0,0,0,.793-.405,2.108,2.108,0,0,0,.28-1.181Zm7.234,3.115H30.242V0H28.484V-8.531h5.555v1.424h-3.8v2.2h3.375Zm4.623.516h-3.3V-4.336h3.3Zm3.012-2.045h.9a1.271,1.271,0,0,0,.955-.322,1.181,1.181,0,0,0,.311-.855,1.044,1.044,0,0,0-.308-.8,1.192,1.192,0,0,0-.847-.287,1.25,1.25,0,0,0-.814.267.852.852,0,0,0-.328.694H39.429a2.083,2.083,0,0,1,.36-1.2A2.4,2.4,0,0,1,40.8-8.35a3.364,3.364,0,0,1,1.427-.3A3.19,3.19,0,0,1,44.345-8a2.209,2.209,0,0,1,.768,1.784,1.8,1.8,0,0,1-.357,1.078,2.322,2.322,0,0,1-.937.756,2.12,2.12,0,0,1,1.075.773,2.1,2.1,0,0,1,.354,1.219,2.246,2.246,0,0,1-.829,1.822,3.334,3.334,0,0,1-2.194.686,3.161,3.161,0,0,1-2.089-.674,2.2,2.2,0,0,1-.812-1.781h1.693a.981.981,0,0,0,.36.785,1.328,1.328,0,0,0,.888.3,1.334,1.334,0,0,0,.946-.319,1.1,1.1,0,0,0,.343-.847q0-1.277-1.406-1.277h-.9ZM52.261,0H46.414V-1.16L49.173-4.1a6.808,6.808,0,0,0,.841-1.084,1.742,1.742,0,0,0,.272-.879A1.3,1.3,0,0,0,50-6.958a1.036,1.036,0,0,0-.82-.325,1.118,1.118,0,0,0-.905.4,1.567,1.567,0,0,0-.331,1.04h-1.7a2.8,2.8,0,0,1,.372-1.424,2.622,2.622,0,0,1,1.052-1.011,3.2,3.2,0,0,1,1.541-.366,3.027,3.027,0,0,1,2.048.633,2.239,2.239,0,0,1,.729,1.787,2.868,2.868,0,0,1-.328,1.289A7.164,7.164,0,0,1,50.533-3.41L48.593-1.365h3.668Zm1.2-.832a.852.852,0,0,1,.272-.656.967.967,0,0,1,.683-.252.975.975,0,0,1,.688.252.852.852,0,0,1,.272.656.841.841,0,0,1-.27.647.979.979,0,0,1-.691.249.971.971,0,0,1-.686-.249A.841.841,0,0,1,53.457-.832Zm9.07-2.7A4.322,4.322,0,0,1,61.794-.82,2.557,2.557,0,0,1,59.65.117,2.574,2.574,0,0,1,57.517-.8a4.2,4.2,0,0,1-.756-2.637V-5.01A4.265,4.265,0,0,1,57.5-7.723a2.576,2.576,0,0,1,2.136-.926,2.578,2.578,0,0,1,2.133.917A4.182,4.182,0,0,1,62.527-5.1ZM60.833-5.254a3.124,3.124,0,0,0-.29-1.546.98.98,0,0,0-.905-.484.963.963,0,0,0-.882.46,2.924,2.924,0,0,0-.3,1.44v2.076a3.279,3.279,0,0,0,.284,1.551.967.967,0,0,0,.911.507.951.951,0,0,0,.9-.487,3.2,3.2,0,0,0,.287-1.49Zm2.982,1.785a8.992,8.992,0,0,1,.357-2.555,6.742,6.742,0,0,1,1.055-2.147,3.938,3.938,0,0,1,1.512-1.3l.328.914A4.079,4.079,0,0,0,65.732-6.6a9.061,9.061,0,0,0-.48,3.094v.182a9.235,9.235,0,0,0,.475,3.105A4.158,4.158,0,0,0,67.068,1.77l-.328.9A3.94,3.94,0,0,1,65.254,1.4,6.629,6.629,0,0,1,64.2-.686a8.939,8.939,0,0,1-.387-2.473ZM68.134-4.2l.492-4.336h4.781v1.412H70.015L69.8-5.285a2.685,2.685,0,0,1,1.283-.322A2.459,2.459,0,0,1,73-4.852a3.019,3.019,0,0,1,.691,2.115,3.093,3.093,0,0,1-.349,1.479,2.461,2.461,0,0,1-1,1.014,3.119,3.119,0,0,1-1.535.36A3.312,3.312,0,0,1,69.371-.2a2.546,2.546,0,0,1-1.046-.882,2.4,2.4,0,0,1-.407-1.295h1.676a1.252,1.252,0,0,0,.372.829,1.18,1.18,0,0,0,.835.3,1.041,1.041,0,0,0,.885-.413A1.914,1.914,0,0,0,72-2.83a1.582,1.582,0,0,0-.357-1.113,1.312,1.312,0,0,0-1.014-.387,1.466,1.466,0,0,0-.979.316l-.164.152ZM75.371.732h-1.26l3.141-9.264h1.26ZM83.21-3.41a2.138,2.138,0,0,1-1.547.65,2.287,2.287,0,0,1-1.811-.776,3.068,3.068,0,0,1-.68-2.095,3.268,3.268,0,0,1,.366-1.538,2.686,2.686,0,0,1,1.022-1.09,2.837,2.837,0,0,1,1.477-.39,2.713,2.713,0,0,1,1.5.422,2.774,2.774,0,0,1,1.02,1.213A4.355,4.355,0,0,1,84.927-5.2v.627a4.935,4.935,0,0,1-1.061,3.352,4.01,4.01,0,0,1-3.006,1.3l-.416.006V-1.33l.375-.006A2.165,2.165,0,0,0,83.21-3.41ZM82.08-4.055a1.184,1.184,0,0,0,.706-.211,1.409,1.409,0,0,0,.448-.51v-.7a2.328,2.328,0,0,0-.328-1.336,1.018,1.018,0,0,0-.879-.475.989.989,0,0,0-.838.466,1.981,1.981,0,0,0-.328,1.169A1.927,1.927,0,0,0,81.18-4.5,1.04,1.04,0,0,0,82.08-4.055Zm7.043.721a8.533,8.533,0,0,1-.381,2.549,6.919,6.919,0,0,1-1.1,2.162,3.948,3.948,0,0,1-1.529,1.289l-.328-.9A4.12,4.12,0,0,0,87.1-.164a8.954,8.954,0,0,0,.5-3.006V-3.48a9.156,9.156,0,0,0-.478-3.088,4.3,4.3,0,0,0-1.333-2l.328-.9a3.949,3.949,0,0,1,1.5,1.254,6.83,6.83,0,0,1,1.1,2.115,8.472,8.472,0,0,1,.407,2.5Z" transform="translate(1398 374)" fill="#12263f"/>
    <path id="Trazado_187613" data-name="Trazado 187613" d="M4.693,0H3V-6.527L.979-5.9V-7.277L4.512-8.543h.182Zm8.332-6.264a1.984,1.984,0,0,1-.311,1.1,2.235,2.235,0,0,1-.855.768,2.474,2.474,0,0,1,.984.823,2.112,2.112,0,0,1,.363,1.233,2.236,2.236,0,0,1-.773,1.8,3.137,3.137,0,0,1-2.1.659A3.152,3.152,0,0,1,8.221-.545a2.231,2.231,0,0,1-.779-1.793A2.125,2.125,0,0,1,7.8-3.574a2.429,2.429,0,0,1,.979-.82,2.212,2.212,0,0,1-.853-.768,2,2,0,0,1-.308-1.1A2.211,2.211,0,0,1,8.35-8a2.861,2.861,0,0,1,1.975-.647,2.88,2.88,0,0,1,1.972.642A2.2,2.2,0,0,1,13.025-6.264Zm-1.518,3.8a1.228,1.228,0,0,0-.322-.891,1.149,1.149,0,0,0-.867-.334,1.147,1.147,0,0,0-.861.331,1.226,1.226,0,0,0-.322.894,1.225,1.225,0,0,0,.316.879,1.152,1.152,0,0,0,.879.334,1.15,1.15,0,0,0,.864-.322A1.223,1.223,0,0,0,11.508-2.461Zm-.176-3.721a1.172,1.172,0,0,0-.264-.8.936.936,0,0,0-.744-.3.942.942,0,0,0-.738.293,1.165,1.165,0,0,0-.264.809,1.224,1.224,0,0,0,.264.82.923.923,0,0,0,.744.311.914.914,0,0,0,.741-.311A1.233,1.233,0,0,0,11.332-6.182Zm8.76,2.654A4.322,4.322,0,0,1,19.359-.82a2.557,2.557,0,0,1-2.145.938A2.574,2.574,0,0,1,15.082-.8a4.2,4.2,0,0,1-.756-2.637V-5.01a4.265,4.265,0,0,1,.741-2.713A2.576,2.576,0,0,1,17.2-8.648a2.578,2.578,0,0,1,2.133.917A4.182,4.182,0,0,1,20.092-5.1ZM18.4-5.254a3.124,3.124,0,0,0-.29-1.546.98.98,0,0,0-.905-.484.963.963,0,0,0-.882.46,2.924,2.924,0,0,0-.3,1.44v2.076A3.279,3.279,0,0,0,16.3-1.755a.967.967,0,0,0,.911.507.951.951,0,0,0,.9-.487,3.2,3.2,0,0,0,.287-1.49ZM29.537-3.486H26.162V0H24.4V-8.531h5.555v1.424h-3.8v2.2h3.375ZM34.342,0a1.88,1.88,0,0,1-.17-.568,2.049,2.049,0,0,1-1.6.686,2.251,2.251,0,0,1-1.544-.539,1.734,1.734,0,0,1-.612-1.359,1.792,1.792,0,0,1,.747-1.547,3.686,3.686,0,0,1,2.159-.545H34.1v-.363a1.045,1.045,0,0,0-.226-.7.887.887,0,0,0-.712-.264A1.009,1.009,0,0,0,32.493-5a.7.7,0,0,0-.243.563H30.557a1.7,1.7,0,0,1,.34-1.02,2.246,2.246,0,0,1,.961-.735,3.5,3.5,0,0,1,1.395-.267,2.767,2.767,0,0,1,1.86.589A2.06,2.06,0,0,1,35.8-4.213v2.748A3.031,3.031,0,0,0,36.053-.1V0Zm-1.4-1.178a1.458,1.458,0,0,0,.691-.167,1.1,1.1,0,0,0,.469-.448v-1.09h-.633q-1.271,0-1.354.879l-.006.1a.678.678,0,0,0,.223.521A.865.865,0,0,0,32.941-1.178Zm5.813-4.471a2.113,2.113,0,0,1,1.693-.809q2.063,0,2.092,2.4V0H40.846V-4.014a1.178,1.178,0,0,0-.234-.806,1,1,0,0,0-.779-.261,1.153,1.153,0,0,0-1.078.574V0H37.061V-9h1.693Zm8.625.9A4.6,4.6,0,0,0,46.77-4.8a1.24,1.24,0,0,0-1.26.65V0H43.816V-6.34h1.6l.047.756a1.569,1.569,0,0,1,1.412-.873,1.774,1.774,0,0,1,.527.076ZM51.111.117a3.112,3.112,0,0,1-2.271-.855,3.041,3.041,0,0,1-.876-2.279v-.164a3.83,3.83,0,0,1,.369-1.708A2.709,2.709,0,0,1,49.38-6.05a2.936,2.936,0,0,1,1.544-.407,2.631,2.631,0,0,1,2.048.82,3.333,3.333,0,0,1,.747,2.326v.691H49.682a1.573,1.573,0,0,0,.5,1,1.5,1.5,0,0,0,1.046.375,1.828,1.828,0,0,0,1.529-.709l.832.932a2.542,2.542,0,0,1-1.031.841A3.383,3.383,0,0,1,51.111.117Zm-.193-5.209a1.058,1.058,0,0,0-.817.341,1.768,1.768,0,0,0-.4.977h2.355v-.135a1.261,1.261,0,0,0-.3-.874A1.092,1.092,0,0,0,50.918-5.092Zm5.32-1.248.053.732a2.213,2.213,0,0,1,1.822-.85,1.84,1.84,0,0,1,1.5.592,2.761,2.761,0,0,1,.5,1.77V0H58.424V-4.055a1.1,1.1,0,0,0-.234-.782,1.049,1.049,0,0,0-.779-.243,1.165,1.165,0,0,0-1.072.609V0H54.645V-6.34Zm6.814.691a2.113,2.113,0,0,1,1.693-.809q2.063,0,2.092,2.4V0H65.145V-4.014a1.178,1.178,0,0,0-.234-.806,1,1,0,0,0-.779-.261,1.153,1.153,0,0,0-1.078.574V0H61.359V-9h1.693ZM71.033.117a3.112,3.112,0,0,1-2.271-.855,3.041,3.041,0,0,1-.876-2.279v-.164a3.83,3.83,0,0,1,.369-1.708A2.709,2.709,0,0,1,69.3-6.05a2.936,2.936,0,0,1,1.544-.407,2.631,2.631,0,0,1,2.048.82,3.333,3.333,0,0,1,.747,2.326v.691H69.6a1.573,1.573,0,0,0,.5,1,1.5,1.5,0,0,0,1.046.375,1.828,1.828,0,0,0,1.529-.709l.832.932a2.542,2.542,0,0,1-1.031.841A3.383,3.383,0,0,1,71.033.117ZM70.84-5.092a1.058,1.058,0,0,0-.817.341,1.768,1.768,0,0,0-.4.977h2.355v-.135a1.261,1.261,0,0,0-.3-.874A1.092,1.092,0,0,0,70.84-5.092ZM76.389,0h-1.7V-6.34h1.7Zm-1.8-7.98a.834.834,0,0,1,.255-.627.958.958,0,0,1,.694-.246.96.96,0,0,1,.691.246.829.829,0,0,1,.258.627.831.831,0,0,1-.261.633.962.962,0,0,1-.688.246.962.962,0,0,1-.688-.246A.831.831,0,0,1,74.59-7.98Zm5.221.082V-6.34h1.084V-5.1H79.811v3.164a.756.756,0,0,0,.135.5.677.677,0,0,0,.516.152,2.7,2.7,0,0,0,.5-.041V-.035a3.486,3.486,0,0,1-1.025.152,1.617,1.617,0,0,1-1.816-1.8V-5.1h-.926V-6.34h.926V-7.9ZM.387,9.783a3.821,3.821,0,0,1,.665-2.361,2.158,2.158,0,0,1,1.819-.879A1.942,1.942,0,0,1,4.4,7.234V4H6.1v9H4.57l-.082-.674a1.993,1.993,0,0,1-1.629.791,2.152,2.152,0,0,1-1.8-.882A3.944,3.944,0,0,1,.387,9.783Zm1.693.126a2.5,2.5,0,0,0,.311,1.367,1.012,1.012,0,0,0,.9.475A1.133,1.133,0,0,0,4.4,11.089V8.583A1.117,1.117,0,0,0,3.3,7.92Q2.08,7.92,2.08,9.909Zm8.25,3.208a3.112,3.112,0,0,1-2.271-.855,3.041,3.041,0,0,1-.876-2.279V9.818A3.83,3.83,0,0,1,7.553,8.11,2.709,2.709,0,0,1,8.6,6.95a2.936,2.936,0,0,1,1.544-.407,2.631,2.631,0,0,1,2.048.82,3.333,3.333,0,0,1,.747,2.326v.691H8.9a1.573,1.573,0,0,0,.5,1,1.5,1.5,0,0,0,1.046.375,1.828,1.828,0,0,0,1.529-.709l.832.932a2.542,2.542,0,0,1-1.031.841A3.383,3.383,0,0,1,10.33,13.117Zm-.193-5.209a1.058,1.058,0,0,0-.817.341,1.768,1.768,0,0,0-.4.977h2.355V9.091a1.261,1.261,0,0,0-.3-.874A1.092,1.092,0,0,0,10.137,7.908Zm3.516,1.875a3.716,3.716,0,0,1,.694-2.35,2.25,2.25,0,0,1,1.872-.891,1.973,1.973,0,0,1,1.623.715l.07-.6h1.535v6.129a2.71,2.71,0,0,1-.378,1.447,2.427,2.427,0,0,1-1.063.938A3.739,3.739,0,0,1,16.4,15.5a3.476,3.476,0,0,1-1.359-.278,2.413,2.413,0,0,1-1-.718l.75-1.031a1.984,1.984,0,0,0,1.535.709,1.452,1.452,0,0,0,1.049-.36,1.352,1.352,0,0,0,.375-1.022v-.34a1.959,1.959,0,0,1-1.541.662,2.244,2.244,0,0,1-1.849-.894,3.715,3.715,0,0,1-.706-2.37Zm1.693.126a2.314,2.314,0,0,0,.346,1.353,1.1,1.1,0,0,0,.949.49,1.176,1.176,0,0,0,1.107-.581V8.5a1.173,1.173,0,0,0-1.1-.581,1.107,1.107,0,0,0-.958.5A2.608,2.608,0,0,0,15.346,9.909Zm8.965-1.661A4.6,4.6,0,0,0,23.7,8.2a1.24,1.24,0,0,0-1.26.65V13H20.748V6.66h1.6l.047.756a1.569,1.569,0,0,1,1.412-.873,1.774,1.774,0,0,1,.527.076Zm3.732,4.869a3.112,3.112,0,0,1-2.271-.855A3.041,3.041,0,0,1,24.9,9.982V9.818a3.83,3.83,0,0,1,.369-1.708,2.709,2.709,0,0,1,1.046-1.16,2.936,2.936,0,0,1,1.544-.407,2.631,2.631,0,0,1,2.048.82,3.333,3.333,0,0,1,.747,2.326v.691H26.613a1.573,1.573,0,0,0,.5,1,1.5,1.5,0,0,0,1.046.375,1.828,1.828,0,0,0,1.529-.709l.832.932a2.542,2.542,0,0,1-1.031.841A3.383,3.383,0,0,1,28.043,13.117ZM27.85,7.908a1.058,1.058,0,0,0-.817.341,1.768,1.768,0,0,0-.4.977h2.355V9.091a1.261,1.261,0,0,0-.3-.874A1.092,1.092,0,0,0,27.85,7.908Zm6.68,5.209a3.112,3.112,0,0,1-2.271-.855,3.041,3.041,0,0,1-.876-2.279V9.818a3.83,3.83,0,0,1,.369-1.708A2.709,2.709,0,0,1,32.8,6.95a2.936,2.936,0,0,1,1.544-.407,2.631,2.631,0,0,1,2.048.82,3.333,3.333,0,0,1,.747,2.326v.691H33.1a1.573,1.573,0,0,0,.5,1,1.5,1.5,0,0,0,1.046.375,1.828,1.828,0,0,0,1.529-.709l.832.932a2.542,2.542,0,0,1-1.031.841A3.383,3.383,0,0,1,34.529,13.117Zm-.193-5.209a1.058,1.058,0,0,0-.817.341,1.768,1.768,0,0,0-.4.977h2.355V9.091a1.261,1.261,0,0,0-.3-.874A1.092,1.092,0,0,0,34.336,7.908Zm7.2,3.34a.546.546,0,0,0-.308-.489,3.494,3.494,0,0,0-.987-.319q-2.262-.475-2.262-1.922a1.742,1.742,0,0,1,.7-1.409,2.825,2.825,0,0,1,1.831-.565,3.04,3.04,0,0,1,1.931.568,1.791,1.791,0,0,1,.724,1.477H41.467a.819.819,0,0,0-.234-.6A.992.992,0,0,0,40.5,7.75a1.013,1.013,0,0,0-.662.193.61.61,0,0,0-.234.492.522.522,0,0,0,.267.454,2.743,2.743,0,0,0,.9.3,7.346,7.346,0,0,1,1.066.284,1.752,1.752,0,0,1,1.342,1.705,1.654,1.654,0,0,1-.744,1.4,3.21,3.21,0,0,1-1.922.536,3.353,3.353,0,0,1-1.415-.284,2.374,2.374,0,0,1-.97-.779,1.811,1.811,0,0,1-.352-1.069h1.605a.884.884,0,0,0,.334.691,1.325,1.325,0,0,0,.832.24,1.226,1.226,0,0,0,.735-.185A.574.574,0,0,0,41.531,11.248Z" transform="translate(1414 200)" fill="#12263f"/>
    <path id="Trazado_187634" data-name="Trazado 187634" d="M2.495-5.434h.978a1.377,1.377,0,0,0,1.035-.349,1.279,1.279,0,0,0,.336-.927,1.131,1.131,0,0,0-.333-.87,1.292,1.292,0,0,0-.917-.311A1.354,1.354,0,0,0,2.71-7.6a.923.923,0,0,0-.355.752H.521a2.256,2.256,0,0,1,.39-1.3A2.6,2.6,0,0,1,2-9.045a3.644,3.644,0,0,1,1.546-.324,3.456,3.456,0,0,1,2.3.7,2.393,2.393,0,0,1,.832,1.933,1.945,1.945,0,0,1-.387,1.168,2.516,2.516,0,0,1-1.016.819A2.3,2.3,0,0,1,6.44-3.91a2.273,2.273,0,0,1,.384,1.32,2.433,2.433,0,0,1-.9,1.974A3.611,3.611,0,0,1,3.548.127,3.424,3.424,0,0,1,1.285-.6a2.384,2.384,0,0,1-.879-1.93H2.241a1.063,1.063,0,0,0,.39.851,1.439,1.439,0,0,0,.962.33A1.445,1.445,0,0,0,4.618-1.7a1.194,1.194,0,0,0,.371-.917Q4.989-4,3.466-4H2.495ZM14.422,0H8.087V-1.257l2.99-3.187a7.376,7.376,0,0,0,.911-1.174,1.887,1.887,0,0,0,.3-.952,1.412,1.412,0,0,0-.311-.968,1.123,1.123,0,0,0-.889-.352,1.211,1.211,0,0,0-.981.428,1.7,1.7,0,0,0-.359,1.127H7.9a3.03,3.03,0,0,1,.4-1.542A2.841,2.841,0,0,1,9.445-8.972a3.463,3.463,0,0,1,1.669-.4,3.279,3.279,0,0,1,2.219.686,2.425,2.425,0,0,1,.79,1.936,3.108,3.108,0,0,1-.355,1.4,7.76,7.76,0,0,1-1.219,1.657l-2.1,2.215h3.974Zm.739-6.04a2.376,2.376,0,0,1,.23-1.063,1.681,1.681,0,0,1,.661-.722,1.928,1.928,0,0,1,1-.255,1.824,1.824,0,0,1,1.324.5,1.991,1.991,0,0,1,.572,1.348l.007.274a2.094,2.094,0,0,1-.515,1.479,1.789,1.789,0,0,1-1.381.557,1.8,1.8,0,0,1-1.383-.555,2.131,2.131,0,0,1-.517-1.511Zm1.07.076a1.5,1.5,0,0,0,.215.873.708.708,0,0,0,.615.3.71.71,0,0,0,.607-.3,1.639,1.639,0,0,0,.218-.955,1.482,1.482,0,0,0-.218-.868.71.71,0,0,0-.615-.308.7.7,0,0,0-.607.306A1.666,1.666,0,0,0,16.231-5.964ZM25.59-3.777H21.934V0h-1.9V-9.242h6.018V-7.7H21.934v2.387H25.59Z" transform="translate(1570 293)" fill="#12263f"/>
    <path id="Trazado_187645" data-name="Trazado 187645" d="M4.272-3.218H.7V-4.7H4.272Zm6.824-.26h1.047V-2H11.1V0H9.261V-2H5.472L5.389-3.155,9.242-9.242H11.1Zm-3.878,0H9.261V-6.741l-.121.209Zm12.13-.343a4.682,4.682,0,0,1-.793,2.933A2.77,2.77,0,0,1,16.231.127a2.789,2.789,0,0,1-2.311-1A4.545,4.545,0,0,1,13.1-3.726v-1.7a4.621,4.621,0,0,1,.8-2.939,2.79,2.79,0,0,1,2.314-1,2.793,2.793,0,0,1,2.311.993,4.531,4.531,0,0,1,.819,2.853Zm-1.834-1.87A3.384,3.384,0,0,0,17.2-7.366a1.062,1.062,0,0,0-.981-.524,1.043,1.043,0,0,0-.955.5,3.167,3.167,0,0,0-.327,1.56v2.249A3.553,3.553,0,0,0,15.244-1.9a1.048,1.048,0,0,0,.987.55,1.03,1.03,0,0,0,.971-.527,3.468,3.468,0,0,0,.311-1.614ZM20.2-6.04a2.376,2.376,0,0,1,.23-1.063,1.681,1.681,0,0,1,.661-.722,1.928,1.928,0,0,1,1-.255,1.824,1.824,0,0,1,1.324.5,1.991,1.991,0,0,1,.572,1.348L24-5.962a2.094,2.094,0,0,1-.515,1.479,1.789,1.789,0,0,1-1.381.557,1.8,1.8,0,0,1-1.383-.555A2.131,2.131,0,0,1,20.2-5.992Zm1.07.076a1.5,1.5,0,0,0,.215.873.708.708,0,0,0,.615.3.71.71,0,0,0,.607-.3,1.639,1.639,0,0,0,.218-.955,1.482,1.482,0,0,0-.218-.868.71.71,0,0,0-.615-.308.7.7,0,0,0-.607.306A1.666,1.666,0,0,0,21.271-5.964ZM30.63-3.777H26.974V0h-1.9V-9.242h6.018V-7.7H26.974v2.387H30.63Z" transform="translate(1570 374)" fill="#12263f"/>
    <path id="Trazado_186613" data-name="Trazado 186613" d="M358.889-176.5s-11.354,2.028-10.679,33.656,4.509,44.744-5.481,49.88" transform="translate(1175.564 294.229)" fill="none" stroke="#707070" stroke-width="2"/>
    <path id="Trazado_186614" data-name="Trazado 186614" d="M358.889-92.964s-11.354-2.028-10.679-33.656,4.509-44.744-5.481-49.88" transform="translate(1175.564 377.765)" fill="none" stroke="#707070" stroke-width="2"/>
    <path id="Trazado_187611" data-name="Trazado 187611" d="M0,0H89.289" transform="translate(1451.941 117.729)" fill="none" stroke="#f37577" stroke-width="2"/>
    <path id="Trazado_187635" data-name="Trazado 187635" d="M0,0H94.072" transform="translate(1447.157 288.334)" fill="none" stroke="#2b91e9" stroke-width="2"/>
    <path id="Trazado_187614" data-name="Trazado 187614" d="M0,0H23.917" transform="translate(1498.18 201.437)" fill="none" stroke="#707070" stroke-width="2"/>
  </g>
</svg>
