<svg xmlns="http://www.w3.org/2000/svg" width="92" height="92" viewBox="0 0 92 92">
  <g id="Grupo_177972" data-name="Grupo 177972" transform="translate(-597 -1383)">
    <circle id="Elipse_4893" data-name="Elipse 4893" cx="46" cy="46" r="46" transform="translate(597 1383)" fill="#fff"/>
    <g id="Grupo_13232" data-name="Grupo 13232" transform="translate(-346.336 126.213)">
      <g id="Grupo_13088" data-name="Grupo 13088" transform="translate(1001.292 1288.002)">
        <g id="Grupo_12996" data-name="Grupo 12996" transform="translate(0.529 0.529)">
          <g id="Grupo_12950" data-name="Grupo 12950" transform="translate(0 3.745)">
            <g id="Grupo_12949" data-name="Grupo 12949">
              <g id="Grupo_12948" data-name="Grupo 12948">
                <g id="Grupo_12947" data-name="Grupo 12947">
                  <g id="Grupo_12946" data-name="Grupo 12946">
                    <g id="Grupo_12945" data-name="Grupo 12945">
                      <g id="Grupo_12944" data-name="Grupo 12944">
                        <g id="Grupo_12943" data-name="Grupo 12943">
                          <g id="Grupo_12942" data-name="Grupo 12942">
                            <rect id="Rectángulo_2751" data-name="Rectángulo 2751" width="18.141" height="26.991" rx="9.07" transform="translate(18.141 26.991) rotate(180)" fill="#646872"/>
                          </g>
                        </g>
                      </g>
                    </g>
                  </g>
                </g>
              </g>
            </g>
          </g>
          <g id="Grupo_12959" data-name="Grupo 12959" transform="translate(9.133 3.745)">
            <g id="Grupo_12958" data-name="Grupo 12958">
              <g id="Grupo_12957" data-name="Grupo 12957">
                <g id="Grupo_12956" data-name="Grupo 12956">
                  <g id="Grupo_12955" data-name="Grupo 12955">
                    <g id="Grupo_12954" data-name="Grupo 12954">
                      <g id="Grupo_12953" data-name="Grupo 12953">
                        <g id="Grupo_12952" data-name="Grupo 12952">
                          <g id="Grupo_12951" data-name="Grupo 12951">
                            <path id="Trazado_26537" data-name="Trazado 26537" d="M648.5,395.478h-4.341v26.991H648.5a4.668,4.668,0,0,0,4.668-4.668V400.146A4.668,4.668,0,0,0,648.5,395.478Z" transform="translate(-644.155 -395.478)" fill="#5c5f67"/>
                          </g>
                        </g>
                      </g>
                    </g>
                  </g>
                </g>
              </g>
            </g>
          </g>
          <g id="Grupo_12968" data-name="Grupo 12968" transform="translate(2.546 0)">
            <g id="Grupo_12967" data-name="Grupo 12967" transform="translate(0 0)">
              <g id="Grupo_12966" data-name="Grupo 12966">
                <g id="Grupo_12965" data-name="Grupo 12965">
                  <g id="Grupo_12964" data-name="Grupo 12964">
                    <g id="Grupo_12963" data-name="Grupo 12963">
                      <g id="Grupo_12962" data-name="Grupo 12962">
                        <g id="Grupo_12961" data-name="Grupo 12961">
                          <g id="Grupo_12960" data-name="Grupo 12960">
                            <rect id="Rectángulo_2752" data-name="Rectángulo 2752" width="13.049" height="3.745" rx="1.872" transform="translate(13.049 3.745) rotate(-180)" fill="#8ac7ed"/>
                          </g>
                        </g>
                      </g>
                    </g>
                  </g>
                </g>
              </g>
            </g>
          </g>
          <g id="Grupo_12977" data-name="Grupo 12977" transform="translate(9.06)">
            <g id="Grupo_12976" data-name="Grupo 12976">
              <g id="Grupo_12975" data-name="Grupo 12975">
                <g id="Grupo_12974" data-name="Grupo 12974">
                  <g id="Grupo_12973" data-name="Grupo 12973">
                    <g id="Grupo_12972" data-name="Grupo 12972">
                      <g id="Grupo_12971" data-name="Grupo 12971">
                        <g id="Grupo_12970" data-name="Grupo 12970">
                          <g id="Grupo_12969" data-name="Grupo 12969">
                            <path id="Trazado_26538" data-name="Trazado 26538" d="M649.247,378.014h-5.429v3.745h5.429a1.106,1.106,0,0,0,1.106-1.106V379.12A1.106,1.106,0,0,0,649.247,378.014Z" transform="translate(-643.818 -378.014)" fill="#0782c7"/>
                          </g>
                        </g>
                      </g>
                    </g>
                  </g>
                </g>
              </g>
            </g>
          </g>
          <g id="Grupo_12986" data-name="Grupo 12986" transform="translate(3.222 16.384)">
            <g id="Grupo_12985" data-name="Grupo 12985" transform="translate(0 0)">
              <g id="Grupo_12984" data-name="Grupo 12984">
                <g id="Grupo_12983" data-name="Grupo 12983">
                  <g id="Grupo_12982" data-name="Grupo 12982">
                    <g id="Grupo_12981" data-name="Grupo 12981">
                      <g id="Grupo_12980" data-name="Grupo 12980">
                        <g id="Grupo_12979" data-name="Grupo 12979">
                          <g id="Grupo_12978" data-name="Grupo 12978">
                            <rect id="Rectángulo_2753" data-name="Rectángulo 2753" width="11.696" height="10.35" rx="5.175" transform="translate(11.696 10.35) rotate(180)" fill="#e5e6e7"/>
                          </g>
                        </g>
                      </g>
                    </g>
                  </g>
                </g>
              </g>
            </g>
          </g>
          <g id="Grupo_12995" data-name="Grupo 12995" transform="translate(9.133 16.384)">
            <g id="Grupo_12994" data-name="Grupo 12994">
              <g id="Grupo_12993" data-name="Grupo 12993">
                <g id="Grupo_12992" data-name="Grupo 12992">
                  <g id="Grupo_12991" data-name="Grupo 12991">
                    <g id="Grupo_12990" data-name="Grupo 12990">
                      <g id="Grupo_12989" data-name="Grupo 12989">
                        <g id="Grupo_12988" data-name="Grupo 12988">
                          <g id="Grupo_12987" data-name="Grupo 12987">
                            <path id="Trazado_26539" data-name="Trazado 26539" d="M648.162,454.423h-4.007v10.35h4.007A1.776,1.776,0,0,0,649.941,463v-6.8A1.777,1.777,0,0,0,648.162,454.423Z" transform="translate(-644.155 -454.423)" fill="#babcbe"/>
                          </g>
                        </g>
                      </g>
                    </g>
                  </g>
                </g>
              </g>
            </g>
          </g>
        </g>
        <g id="Grupo_13060" data-name="Grupo 13060" transform="translate(0 3.745)">
          <g id="Grupo_13059" data-name="Grupo 13059">
            <g id="Grupo_13058" data-name="Grupo 13058">
              <g id="Grupo_13057" data-name="Grupo 13057">
                <g id="Grupo_13056" data-name="Grupo 13056">
                  <g id="Grupo_13055" data-name="Grupo 13055">
                    <g id="Grupo_13054" data-name="Grupo 13054">
                      <g id="Grupo_13053" data-name="Grupo 13053">
                        <g id="Grupo_13052" data-name="Grupo 13052">
                          <path id="Trazado_26543" data-name="Trazado 26543" d="M613.1,421.062H604.3a5.2,5.2,0,0,1-5.2-5.2V398.209a5.2,5.2,0,0,1,5.2-5.2H613.1a5.2,5.2,0,0,1,5.2,5.2v17.656A5.2,5.2,0,0,1,613.1,421.062ZM604.3,394.07a4.144,4.144,0,0,0-4.139,4.139v17.656A4.144,4.144,0,0,0,604.3,420H613.1a4.144,4.144,0,0,0,4.139-4.139V398.209a4.144,4.144,0,0,0-4.139-4.139Z" transform="translate(-599.099 -393.013)" fill="#272525"/>
                        </g>
                      </g>
                    </g>
                  </g>
                </g>
              </g>
            </g>
          </g>
        </g>
        <g id="Grupo_13069" data-name="Grupo 13069" transform="translate(2.546 0)">
          <g id="Grupo_13068" data-name="Grupo 13068">
            <g id="Grupo_13067" data-name="Grupo 13067">
              <g id="Grupo_13066" data-name="Grupo 13066">
                <g id="Grupo_13065" data-name="Grupo 13065">
                  <g id="Grupo_13064" data-name="Grupo 13064">
                    <g id="Grupo_13063" data-name="Grupo 13063">
                      <g id="Grupo_13062" data-name="Grupo 13062">
                        <g id="Grupo_13061" data-name="Grupo 13061">
                          <path id="Trazado_26544" data-name="Trazado 26544" d="M623.444,380.351H612.608a1.637,1.637,0,0,1-1.635-1.635v-1.533a1.636,1.636,0,0,1,1.635-1.634h10.837a1.636,1.636,0,0,1,1.634,1.634v1.533A1.636,1.636,0,0,1,623.444,380.351Zm-10.837-3.745a.578.578,0,0,0-.577.577v1.533a.578.578,0,0,0,.577.577h10.837a.578.578,0,0,0,.577-.577v-1.533a.578.578,0,0,0-.577-.577Z" transform="translate(-610.973 -375.549)" fill="#272525"/>
                        </g>
                      </g>
                    </g>
                  </g>
                </g>
              </g>
            </g>
          </g>
        </g>
      </g>
      <path id="Trazado_26574" data-name="Trazado 26574" d="M1.946-8.8a1.265,1.265,0,0,1-.914-.341,1.177,1.177,0,0,1-.355-.889,1.175,1.175,0,0,1,.354-.889,1.269,1.269,0,0,1,.916-.339,1.262,1.262,0,0,1,.767.228,1.018,1.018,0,0,1,.4.643L2.5-10.32a.525.525,0,0,0-.2-.311.6.6,0,0,0-.359-.1.543.543,0,0,0-.433.193.759.759,0,0,0-.166.511.76.76,0,0,0,.166.51.542.542,0,0,0,.433.195.6.6,0,0,0,.358-.1.537.537,0,0,0,.2-.311l.613.067a1.021,1.021,0,0,1-.4.643A1.257,1.257,0,0,1,1.946-8.8Zm4.441-2.458a.9.9,0,0,1,.61.192.688.688,0,0,1,.223.552v1.67H6.557v-1.481a.4.4,0,0,0-.106-.3.371.371,0,0,0-.267-.1.428.428,0,0,0-.322.129.586.586,0,0,0-.124.417v1.336h-.67v-1.474a.406.406,0,0,0-.106-.305.378.378,0,0,0-.274-.1.414.414,0,0,0-.32.136.649.649,0,0,0-.124.445v1.3H3.581v-2.368h.661v.279a.805.805,0,0,1,.686-.325,1.012,1.012,0,0,1,.446.091.607.607,0,0,1,.28.264A.837.837,0,0,1,6.387-11.258Z" transform="translate(1005.315 1320.861)" fill="#082143"/>
      <path id="Trazado_26573" data-name="Trazado 26573" d="M2.171-12.317a1.194,1.194,0,0,1-.908-.3,1.319,1.319,0,0,1-.286-.931l.68-.03a2.406,2.406,0,0,0,.01.244.844.844,0,0,0,.041.189.338.338,0,0,0,.088.142.4.4,0,0,0,.15.082.74.74,0,0,0,.225.03.54.54,0,0,0,.393-.134.467.467,0,0,0,.137-.35.471.471,0,0,0-.131-.36.494.494,0,0,0-.352-.123H2.088v-.516h.12a.36.36,0,0,0,.275-.117.419.419,0,0,0,.109-.3.335.335,0,0,0-.12-.276.487.487,0,0,0-.316-.1.473.473,0,0,0-.18.031.335.335,0,0,0-.121.079.351.351,0,0,0-.071.122.642.642,0,0,0-.035.145,1.449,1.449,0,0,0-.008.161l-.67-.032a1.066,1.066,0,0,1,.286-.8,1.089,1.089,0,0,1,.792-.278,1.133,1.133,0,0,1,.76.255.8.8,0,0,1,.3.632.72.72,0,0,1-.128.428.732.732,0,0,1-.291.253A.82.82,0,0,1,3-14.074a.869.869,0,0,1,.185.159.709.709,0,0,1,.137.242.973.973,0,0,1,.051.322.941.941,0,0,1-.329.752A1.3,1.3,0,0,1,2.171-12.317Z" transform="translate(1012.155 1322.451)" fill="#082143"/>
      <g id="Grupo_13218" data-name="Grupo 13218" transform="translate(958.03 1285)">
        <g id="Grupo_13181" data-name="Grupo 13181" transform="translate(0.521 0.521)">
          <g id="Grupo_13134" data-name="Grupo 13134">
            <g id="Grupo_13097" data-name="Grupo 13097" transform="translate(0)">
              <g id="Grupo_13096" data-name="Grupo 13096">
                <g id="Grupo_13095" data-name="Grupo 13095">
                  <g id="Grupo_13094" data-name="Grupo 13094">
                    <g id="Grupo_13093" data-name="Grupo 13093">
                      <g id="Grupo_13092" data-name="Grupo 13092">
                        <g id="Grupo_13091" data-name="Grupo 13091">
                          <g id="Grupo_13090" data-name="Grupo 13090">
                            <g id="Grupo_13089" data-name="Grupo 13089">
                              <rect id="Rectángulo_2754" data-name="Rectángulo 2754" width="17.39" height="4.726" rx="2.363" fill="#8ac7ed"/>
                            </g>
                          </g>
                        </g>
                      </g>
                    </g>
                  </g>
                </g>
              </g>
            </g>
            <g id="Grupo_13106" data-name="Grupo 13106" transform="translate(8.759 0)">
              <g id="Grupo_13105" data-name="Grupo 13105">
                <g id="Grupo_13104" data-name="Grupo 13104">
                  <g id="Grupo_13103" data-name="Grupo 13103">
                    <g id="Grupo_13102" data-name="Grupo 13102">
                      <g id="Grupo_13101" data-name="Grupo 13101">
                        <g id="Grupo_13100" data-name="Grupo 13100">
                          <g id="Grupo_13099" data-name="Grupo 13099">
                            <g id="Grupo_13098" data-name="Grupo 13098">
                              <path id="Trazado_26545" data-name="Trazado 26545" d="M825.441,878.514h-7.055v4.725h7.055a1.576,1.576,0,0,0,1.576-1.576V880.09A1.576,1.576,0,0,0,825.441,878.514Z" transform="translate(-818.386 -878.514)" fill="#0782c7"/>
                            </g>
                          </g>
                        </g>
                      </g>
                    </g>
                  </g>
                </g>
              </g>
            </g>
            <g id="Grupo_13115" data-name="Grupo 13115" transform="translate(0 4.726)">
              <g id="Grupo_13114" data-name="Grupo 13114">
                <g id="Grupo_13113" data-name="Grupo 13113">
                  <g id="Grupo_13112" data-name="Grupo 13112">
                    <g id="Grupo_13111" data-name="Grupo 13111">
                      <g id="Grupo_13110" data-name="Grupo 13110">
                        <g id="Grupo_13109" data-name="Grupo 13109">
                          <g id="Grupo_13108" data-name="Grupo 13108">
                            <g id="Grupo_13107" data-name="Grupo 13107">
                              <path id="Trazado_26546" data-name="Trazado 26546" d="M794.927,927.925V907.66a2.1,2.1,0,0,0-2.1-2.1h-2.659v-5.005H782.3v5.005H779.64a2.1,2.1,0,0,0-2.1,2.1v20.265a2.088,2.088,0,0,0,.32,1.11q.043.069.091.135a2.089,2.089,0,0,0,1.692.858h13.185a2.121,2.121,0,0,0,.215-.011,2.089,2.089,0,0,0,.853-.283,2.116,2.116,0,0,0,.624-.564q.048-.066.092-.135A2.09,2.09,0,0,0,794.927,927.925Z" transform="translate(-777.537 -900.552)" fill="#cfd0d2"/>
                            </g>
                          </g>
                        </g>
                      </g>
                    </g>
                  </g>
                </g>
              </g>
            </g>
            <g id="Grupo_13124" data-name="Grupo 13124" transform="translate(8.707 4.726)">
              <g id="Grupo_13123" data-name="Grupo 13123">
                <g id="Grupo_13122" data-name="Grupo 13122">
                  <g id="Grupo_13121" data-name="Grupo 13121">
                    <g id="Grupo_13120" data-name="Grupo 13120">
                      <g id="Grupo_13119" data-name="Grupo 13119">
                        <g id="Grupo_13118" data-name="Grupo 13118">
                          <g id="Grupo_13117" data-name="Grupo 13117">
                            <g id="Grupo_13116" data-name="Grupo 13116">
                              <path id="Trazado_26547" data-name="Trazado 26547" d="M824.723,905.557h-2.659v-5.005h-3.921v29.476h6.581a2.122,2.122,0,0,0,.215-.011,2.089,2.089,0,0,0,.853-.283,2.117,2.117,0,0,0,.624-.564q.048-.066.092-.135a2.089,2.089,0,0,0,.319-1.11V907.66A2.1,2.1,0,0,0,824.723,905.557Z" transform="translate(-818.142 -900.552)" fill="#babcbe"/>
                            </g>
                          </g>
                        </g>
                      </g>
                    </g>
                  </g>
                </g>
              </g>
            </g>
            <g id="Grupo_13133" data-name="Grupo 13133" transform="translate(14.807 14.389)">
              <g id="Grupo_13132" data-name="Grupo 13132">
                <g id="Grupo_13131" data-name="Grupo 13131">
                  <g id="Grupo_13130" data-name="Grupo 13130">
                    <g id="Grupo_13129" data-name="Grupo 13129">
                      <g id="Grupo_13128" data-name="Grupo 13128">
                        <g id="Grupo_13127" data-name="Grupo 13127">
                          <g id="Grupo_13126" data-name="Grupo 13126">
                            <g id="Grupo_13125" data-name="Grupo 13125">
                              <path id="Trazado_26548" data-name="Trazado 26548" d="M847.009,957.922a.417.417,0,0,1-.417-.417V946.034a.417.417,0,0,1,.834,0V957.5A.417.417,0,0,1,847.009,957.922Z" transform="translate(-846.592 -945.617)" fill="#fff"/>
                            </g>
                          </g>
                        </g>
                      </g>
                    </g>
                  </g>
                </g>
              </g>
            </g>
          </g>
          <g id="Grupo_13180" data-name="Grupo 13180" transform="translate(19.628 7.925)">
            <g id="Grupo_13143" data-name="Grupo 13143" transform="translate(1.654)">
              <g id="Grupo_13142" data-name="Grupo 13142">
                <g id="Grupo_13141" data-name="Grupo 13141">
                  <g id="Grupo_13140" data-name="Grupo 13140">
                    <g id="Grupo_13139" data-name="Grupo 13139">
                      <g id="Grupo_13138" data-name="Grupo 13138">
                        <g id="Grupo_13137" data-name="Grupo 13137">
                          <g id="Grupo_13136" data-name="Grupo 13136">
                            <g id="Grupo_13135" data-name="Grupo 13135">
                              <rect id="Rectángulo_2755" data-name="Rectángulo 2755" width="14.081" height="4.726" rx="2.363" fill="#d26835"/>
                            </g>
                          </g>
                        </g>
                      </g>
                    </g>
                  </g>
                </g>
              </g>
            </g>
            <g id="Grupo_13152" data-name="Grupo 13152" transform="translate(8.747 0)">
              <g id="Grupo_13151" data-name="Grupo 13151">
                <g id="Grupo_13150" data-name="Grupo 13150">
                  <g id="Grupo_13149" data-name="Grupo 13149">
                    <g id="Grupo_13148" data-name="Grupo 13148">
                      <g id="Grupo_13147" data-name="Grupo 13147">
                        <g id="Grupo_13146" data-name="Grupo 13146">
                          <g id="Grupo_13145" data-name="Grupo 13145">
                            <g id="Grupo_13144" data-name="Grupo 13144">
                              <path id="Trazado_26549" data-name="Trazado 26549" d="M915.581,915.474h-5.713V920.2h5.713a1.45,1.45,0,0,0,1.276-1.576V917.05A1.45,1.45,0,0,0,915.581,915.474Z" transform="translate(-909.868 -915.474)" fill="#bc422a"/>
                            </g>
                          </g>
                        </g>
                      </g>
                    </g>
                  </g>
                </g>
              </g>
            </g>
            <g id="Grupo_13161" data-name="Grupo 13161" transform="translate(0 4.726)">
              <g id="Grupo_13160" data-name="Grupo 13160">
                <g id="Grupo_13159" data-name="Grupo 13159">
                  <g id="Grupo_13158" data-name="Grupo 13158">
                    <g id="Grupo_13157" data-name="Grupo 13157">
                      <g id="Grupo_13156" data-name="Grupo 13156">
                        <g id="Grupo_13155" data-name="Grupo 13155">
                          <g id="Grupo_13154" data-name="Grupo 13154">
                            <g id="Grupo_13153" data-name="Grupo 13153">
                              <path id="Trazado_26550" data-name="Trazado 26550" d="M886.466,957.526V944.151c0-.849-.941-1.537-2.1-1.537H881.7v-5.1h-7.866v5.127h-2.659c-1.161,0-2.1.688-2.1,1.537v13.349a1.246,1.246,0,0,0,.32.812q.043.05.092.1a1.876,1.876,0,0,0,.354.276,2.261,2.261,0,0,0,.27.136,2.441,2.441,0,0,0,.249.094,2.773,2.773,0,0,0,.818.121h13.185c.073,0,.144,0,.215-.008a2.647,2.647,0,0,0,.853-.207c.069-.03.136-.063.2-.1a1.937,1.937,0,0,0,.423-.314c.032-.032.063-.065.092-.1A1.246,1.246,0,0,0,886.466,957.526Z" transform="translate(-869.076 -937.512)" fill="#cfd0d2"/>
                            </g>
                          </g>
                        </g>
                      </g>
                    </g>
                  </g>
                </g>
              </g>
            </g>
            <g id="Grupo_13170" data-name="Grupo 13170" transform="translate(8.707 4.726)">
              <g id="Grupo_13169" data-name="Grupo 13169">
                <g id="Grupo_13168" data-name="Grupo 13168">
                  <g id="Grupo_13167" data-name="Grupo 13167">
                    <g id="Grupo_13166" data-name="Grupo 13166">
                      <g id="Grupo_13165" data-name="Grupo 13165">
                        <g id="Grupo_13164" data-name="Grupo 13164">
                          <g id="Grupo_13163" data-name="Grupo 13163">
                            <g id="Grupo_13162" data-name="Grupo 13162">
                              <path id="Trazado_26551" data-name="Trazado 26551" d="M916.262,942.718H913.6v-5.206h-3.921v21.551h6.581c.073,0,.144,0,.215-.008a2.647,2.647,0,0,0,.853-.207c.069-.03.136-.063.2-.1a1.938,1.938,0,0,0,.424-.314q.048-.048.092-.1a1.247,1.247,0,0,0,.319-.812v-13.27C918.364,943.406,917.423,942.718,916.262,942.718Z" transform="translate(-909.681 -937.512)" fill="#babcbe"/>
                            </g>
                          </g>
                        </g>
                      </g>
                    </g>
                  </g>
                </g>
              </g>
            </g>
            <g id="Grupo_13179" data-name="Grupo 13179" transform="translate(14.807 11.312)">
              <g id="Grupo_13178" data-name="Grupo 13178">
                <g id="Grupo_13177" data-name="Grupo 13177">
                  <g id="Grupo_13176" data-name="Grupo 13176">
                    <g id="Grupo_13175" data-name="Grupo 13175">
                      <g id="Grupo_13174" data-name="Grupo 13174">
                        <g id="Grupo_13173" data-name="Grupo 13173">
                          <g id="Grupo_13172" data-name="Grupo 13172">
                            <g id="Grupo_13171" data-name="Grupo 13171">
                              <path id="Trazado_26552" data-name="Trazado 26552" d="M938.547,980.536a.417.417,0,0,1-.417-.417V968.648a.417.417,0,0,1,.834,0v11.471A.417.417,0,0,1,938.547,980.536Z" transform="translate(-938.13 -968.231)" fill="#fff"/>
                            </g>
                          </g>
                        </g>
                      </g>
                    </g>
                  </g>
                </g>
              </g>
            </g>
          </g>
        </g>
        <g id="Grupo_13190" data-name="Grupo 13190" transform="translate(0 4.725)">
          <g id="Grupo_13189" data-name="Grupo 13189">
            <g id="Grupo_13188" data-name="Grupo 13188">
              <g id="Grupo_13187" data-name="Grupo 13187">
                <g id="Grupo_13186" data-name="Grupo 13186">
                  <g id="Grupo_13185" data-name="Grupo 13185">
                    <g id="Grupo_13184" data-name="Grupo 13184">
                      <g id="Grupo_13183" data-name="Grupo 13183">
                        <g id="Grupo_13182" data-name="Grupo 13182">
                          <path id="Trazado_26553" data-name="Trazado 26553" d="M790.915,928.639H777.73a2.627,2.627,0,0,1-2.624-2.624V905.75a2.627,2.627,0,0,1,2.624-2.624h2.138v-5.005h8.909v5.005h2.138a2.627,2.627,0,0,1,2.624,2.624v20.266A2.627,2.627,0,0,1,790.915,928.639Zm-13.185-24.47a1.583,1.583,0,0,0-1.581,1.581v20.266a1.583,1.583,0,0,0,1.581,1.581h13.185a1.583,1.583,0,0,0,1.581-1.581V905.75a1.583,1.583,0,0,0-1.581-1.581h-3.181v-5.005h-6.823v5.005Z" transform="translate(-775.106 -898.121)" fill="#272525"/>
                        </g>
                      </g>
                    </g>
                  </g>
                </g>
              </g>
            </g>
          </g>
        </g>
        <g id="Grupo_13199" data-name="Grupo 13199" transform="translate(0 0)">
          <g id="Grupo_13198" data-name="Grupo 13198">
            <g id="Grupo_13197" data-name="Grupo 13197">
              <g id="Grupo_13196" data-name="Grupo 13196">
                <g id="Grupo_13195" data-name="Grupo 13195">
                  <g id="Grupo_13194" data-name="Grupo 13194">
                    <g id="Grupo_13193" data-name="Grupo 13193">
                      <g id="Grupo_13192" data-name="Grupo 13192">
                        <g id="Grupo_13191" data-name="Grupo 13191">
                          <path id="Trazado_26554" data-name="Trazado 26554" d="M791.441,881.851H777.2a2.1,2.1,0,0,1-2.1-2.1V878.18a2.1,2.1,0,0,1,2.1-2.1h14.238a2.1,2.1,0,0,1,2.1,2.1v1.573A2.1,2.1,0,0,1,791.441,881.851ZM777.2,877.126a1.056,1.056,0,0,0-1.055,1.055v1.573a1.056,1.056,0,0,0,1.055,1.055h14.238a1.056,1.056,0,0,0,1.055-1.055V878.18a1.056,1.056,0,0,0-1.055-1.055Z" transform="translate(-775.106 -876.083)" fill="#272525"/>
                        </g>
                      </g>
                    </g>
                  </g>
                </g>
              </g>
            </g>
          </g>
        </g>
        <g id="Grupo_13208" data-name="Grupo 13208" transform="translate(21.095 7.925)">
          <g id="Grupo_13207" data-name="Grupo 13207">
            <g id="Grupo_13206" data-name="Grupo 13206">
              <g id="Grupo_13205" data-name="Grupo 13205">
                <g id="Grupo_13204" data-name="Grupo 13204">
                  <g id="Grupo_13203" data-name="Grupo 13203">
                    <g id="Grupo_13202" data-name="Grupo 13202">
                      <g id="Grupo_13201" data-name="Grupo 13201">
                        <g id="Grupo_13200" data-name="Grupo 13200">
                          <path id="Trazado_26555" data-name="Trazado 26555" d="M887.027,918.81H875.444a1.961,1.961,0,0,1-1.958-1.959V915a1.961,1.961,0,0,1,1.958-1.958h11.582A1.961,1.961,0,0,1,888.985,915v1.851A1.961,1.961,0,0,1,887.027,918.81Zm-11.582-4.726a.917.917,0,0,0-.916.916v1.851a.917.917,0,0,0,.916.916h11.582a.917.917,0,0,0,.916-.916V915a.916.916,0,0,0-.916-.916Z" transform="translate(-873.486 -913.042)" fill="#272525"/>
                        </g>
                      </g>
                    </g>
                  </g>
                </g>
              </g>
            </g>
          </g>
        </g>
        <g id="Grupo_13217" data-name="Grupo 13217" transform="translate(19.628 12.651)">
          <g id="Grupo_13216" data-name="Grupo 13216">
            <g id="Grupo_13215" data-name="Grupo 13215">
              <g id="Grupo_13214" data-name="Grupo 13214">
                <g id="Grupo_13213" data-name="Grupo 13213">
                  <g id="Grupo_13212" data-name="Grupo 13212">
                    <g id="Grupo_13211" data-name="Grupo 13211">
                      <g id="Grupo_13210" data-name="Grupo 13210">
                        <g id="Grupo_13209" data-name="Grupo 13209">
                          <path id="Trazado_26556" data-name="Trazado 26556" d="M882.454,957.674H869.269a3.293,3.293,0,0,1-.972-.144,3.018,3.018,0,0,1-.3-.113,2.735,2.735,0,0,1-.333-.169,2.4,2.4,0,0,1-.452-.352q-.065-.064-.122-.131a1.759,1.759,0,0,1-.443-1.149V942.267a2.367,2.367,0,0,1,2.624-2.059h2.138v-5.127h8.909v5.1h2.138a2.367,2.367,0,0,1,2.624,2.059v13.374a1.761,1.761,0,0,1-.444,1.15q-.057.067-.121.13a2.451,2.451,0,0,1-.538.4q-.117.065-.245.121a3.157,3.157,0,0,1-1.022.249C882.624,957.671,882.539,957.674,882.454,957.674Zm-13.185-16.424c-.857,0-1.581.465-1.581,1.016v13.349a.727.727,0,0,0,.194.473c.02.024.041.046.063.067a1.359,1.359,0,0,0,.256.2,1.681,1.681,0,0,0,.208.1,1.938,1.938,0,0,0,.2.074,2.247,2.247,0,0,0,.664.1h13.185c.059,0,.118,0,.176-.006a2.111,2.111,0,0,0,.684-.165c.053-.023.1-.049.154-.076a1.407,1.407,0,0,0,.31-.228c.021-.021.043-.044.062-.067a.724.724,0,0,0,.194-.473V942.241c0-.551-.724-1.016-1.581-1.016h-3.181v-5.1H872.45v5.127Z" transform="translate(-866.645 -935.081)" fill="#272525"/>
                        </g>
                      </g>
                    </g>
                  </g>
                </g>
              </g>
            </g>
          </g>
        </g>
      </g>
      <path id="Trazado_26575" data-name="Trazado 26575" d="M4.406-15.376a.9.9,0,0,1,.61.192.688.688,0,0,1,.223.552v1.67H4.577v-1.481a.4.4,0,0,0-.106-.3.371.371,0,0,0-.267-.1.428.428,0,0,0-.322.129.586.586,0,0,0-.124.417v1.336h-.67v-1.474a.406.406,0,0,0-.106-.305.378.378,0,0,0-.274-.1.414.414,0,0,0-.32.136.649.649,0,0,0-.124.445v1.3H1.6V-15.33h.661v.279a.805.805,0,0,1,.686-.325,1.012,1.012,0,0,1,.446.091.607.607,0,0,1,.28.264A.837.837,0,0,1,4.406-15.376Zm1.479,2.414V-16.5h.67v3.538Z" transform="translate(962.562 1324.98)" fill="#082143"/>
      <path id="Trazado_26576" data-name="Trazado 26576" d="M4.406-15.376a.9.9,0,0,1,.61.192.688.688,0,0,1,.223.552v1.67H4.577v-1.481a.4.4,0,0,0-.106-.3.371.371,0,0,0-.267-.1.428.428,0,0,0-.322.129.586.586,0,0,0-.124.417v1.336h-.67v-1.474a.406.406,0,0,0-.106-.305.378.378,0,0,0-.274-.1.414.414,0,0,0-.32.136.649.649,0,0,0-.124.445v1.3H1.6V-15.33h.661v.279a.805.805,0,0,1,.686-.325,1.012,1.012,0,0,1,.446.091.607.607,0,0,1,.28.264A.837.837,0,0,1,4.406-15.376Zm1.479,2.414V-16.5h.67v3.538Z" transform="translate(982.503 1324.98)" fill="#082143"/>
    </g>
  </g>
</svg>
