<svg xmlns="http://www.w3.org/2000/svg" width="92" height="92" viewBox="0 0 92 92">
  <g id="Grupo_177973" data-name="Grupo 177973" transform="translate(-912 -1337)">
    <circle id="Elipse_4894" data-name="Elipse 4894" cx="46" cy="46" r="46" transform="translate(912 1337)" fill="#fff"/>
    <g id="Grupo_13226" data-name="Grupo 13226" transform="translate(278.092 -209.724)">
      <g id="Grupo_13225" data-name="Grupo 13225" transform="translate(650.908 1563.724)">
        <g id="Grupo_13221" data-name="Grupo 13221" transform="translate(12.373 0)">
          <g id="Grupo_13219" data-name="Grupo 13219">
            <path id="Trazado_26557" data-name="Trazado 26557" d="M157.11,52.288l-.406-9.313a3.406,3.406,0,0,1,3.4-3.553h14.416a3.406,3.406,0,0,1,3.4,3.553l-.407,9.337a23.4,23.4,0,0,1,3.3,1.988l.487-11.177a6.788,6.788,0,0,0-6.782-7.084H160.1a6.788,6.788,0,0,0-6.782,7.084l.485,11.134A23.233,23.233,0,0,1,157.11,52.288Z" transform="translate(-144.105 -36.038)" fill="#282f39"/>
            <path id="Trazado_26558" data-name="Trazado 26558" d="M180.346,93.629a23.208,23.208,0,1,0-29.53-.02,10.016,10.016,0,0,0,6.393,2.234H173.98A9.992,9.992,0,0,0,180.346,93.629Z" transform="translate(-142.386 -38.63)" fill="#282f39"/>
            <path id="Trazado_26559" data-name="Trazado 26559" d="M181.946,59.235c-.011.141-3.172,43.177-31.8,33.685a23.122,23.122,0,0,0,1.888,1.746A10.016,10.016,0,0,0,158.43,96.9H175.2a9.992,9.992,0,0,0,6.366-2.214,23.138,23.138,0,0,0,.378-35.451Z" transform="translate(-143.607 -39.687)" fill="#12151a"/>
            <path id="Trazado_26560" data-name="Trazado 26560" d="M180.875,40.475a3.376,3.376,0,0,1,.942,2.5l-.407,9.337a23.4,23.4,0,0,1,3.3,1.988l.487-11.177a6.775,6.775,0,0,0-6.542-7.073,14.3,14.3,0,0,1-.579,3.372h.339A3.374,3.374,0,0,1,180.875,40.475Z" transform="translate(-148.001 -36.04)" fill="#12151a"/>
            <path id="Trazado_26561" data-name="Trazado 26561" d="M164.1,36.858s-3.672-.15-4.36.5,2.077,1.215,5.384.881S167.73,36.851,164.1,36.858Z" transform="translate(-145.1 -36.165)" fill="#fff" style="mix-blend-mode: soft-light;isolation: isolate"/>
          </g>
          <path id="Trazado_26562" data-name="Trazado 26562" d="M155.947,46c-.146,1.9-.158,5.111-.127,8.024q.82-.489,1.682-.912L157.1,43.8a3.376,3.376,0,0,1,.942-2.5S156.264,41.878,155.947,46Z" transform="translate(-144.497 -36.866)" fill="#12151a"/>
          <g id="Grupo_13220" data-name="Grupo 13220" transform="translate(11.333 23.674)">
            <circle id="Elipse_924" data-name="Elipse 924" cx="8.397" cy="8.397" r="8.397" transform="translate(0 11.874) rotate(-45)" fill="#171b21"/>
            <circle id="Elipse_925" data-name="Elipse 925" cx="7.187" cy="7.187" r="7.187" transform="translate(1.71 11.874) rotate(-45)" fill="#282f39"/>
          </g>
          <path id="Trazado_26563" data-name="Trazado 26563" d="M157.829,57.282a19.213,19.213,0,0,0-11.211,11.782c-3.032,9.1,4.565,2.692,8.8-3.46S167,54.174,157.829,57.282Z" transform="translate(-142.942 -39.235)" fill="#fff" style="mix-blend-mode: soft-light;isolation: isolate"/>
        </g>
        <g id="Grupo_13224" data-name="Grupo 13224" transform="translate(0 21.778)">
          <g id="Grupo_13222" data-name="Grupo 13222">
            <path id="Trazado_26564" data-name="Trazado 26564" d="M136.821,71.946l-.251-5.767a2.108,2.108,0,0,1,2.107-2.2H147.6a2.108,2.108,0,0,1,2.107,2.2l-.252,5.783a14.536,14.536,0,0,1,2.044,1.231l.3-6.923a4.206,4.206,0,0,0-4.2-4.388h-8.927a4.206,4.206,0,0,0-4.2,4.388l.3,6.9A14.427,14.427,0,0,1,136.821,71.946Z" transform="translate(-128.768 -61.882)" fill="#282f39"/>
            <path id="Trazado_26565" data-name="Trazado 26565" d="M151.213,97.55a14.373,14.373,0,1,0-18.289-.012,6.2,6.2,0,0,0,3.959,1.383H147.27A6.19,6.19,0,0,0,151.213,97.55Z" transform="translate(-127.703 -63.487)" fill="#282f39"/>
            <path id="Trazado_26566" data-name="Trazado 26566" d="M152.2,76.25c-.007.087,5,26.873-19.693,20.862a14.332,14.332,0,0,0,1.17,1.081,6.2,6.2,0,0,0,3.959,1.384h10.387a6.19,6.19,0,0,0,3.943-1.371A14.33,14.33,0,0,0,152.2,76.25Z" transform="translate(-128.459 -64.142)" fill="#12151a"/>
            <path id="Trazado_26567" data-name="Trazado 26567" d="M151.541,64.631a2.092,2.092,0,0,1,.583,1.55l-.252,5.783a14.538,14.538,0,0,1,2.044,1.231l.3-6.923a4.2,4.2,0,0,0-4.052-4.38,8.918,8.918,0,0,1-.358,2.089h.209A2.091,2.091,0,0,1,151.541,64.631Z" transform="translate(-131.18 -61.883)" fill="#12151a"/>
            <path id="Trazado_26568" data-name="Trazado 26568" d="M141.153,62.39s-2.274-.093-2.7.312,1.287.753,3.335.545S143.4,62.386,141.153,62.39Z" transform="translate(-129.384 -61.961)" fill="#fff" style="mix-blend-mode: soft-light;isolation: isolate"/>
          </g>
          <path id="Trazado_26569" data-name="Trazado 26569" d="M136.1,68.054c-.091,1.176-.1,3.165-.079,4.969q.508-.3,1.042-.565l-.251-5.767a2.092,2.092,0,0,1,.583-1.55S136.3,65.5,136.1,68.054Z" transform="translate(-129.01 -62.395)" fill="#12151a"/>
          <g id="Grupo_13223" data-name="Grupo 13223" transform="translate(9.173 16.817)">
            <path id="Trazado_26570" data-name="Trazado 26570" d="M148.988,87.038a5.2,5.2,0,1,1-5.2-5.2A5.2,5.2,0,0,1,148.988,87.038Z" transform="translate(-138.588 -81.838)" fill="#12151a"/>
            <path id="Trazado_26571" data-name="Trazado 26571" d="M148.379,87.178a4.451,4.451,0,1,1-4.451-4.451A4.451,4.451,0,0,1,148.379,87.178Z" transform="translate(-138.728 -81.978)" fill="#282f39"/>
          </g>
          <path id="Trazado_26572" data-name="Trazado 26572" d="M137.263,75.04a11.9,11.9,0,0,0-6.944,7.3c-1.878,5.633,2.489,1.667,5.109-2.143S142.94,73.115,137.263,75.04Z" transform="translate(-128.043 -63.862)" fill="#fff" style="mix-blend-mode: soft-light;isolation: isolate"/>
        </g>
      </g>
      <path id="Trazado_26578" data-name="Trazado 26578" d="M3.484-10.431,2.5-11.716H2.321v1.285H1.455V-15h.866v2.689h.161l.961-1.178h.97l-1.2,1.419,1.318,1.639Zm3.468-3.058h.815v2.829a2.287,2.287,0,0,1-.115.761,1.256,1.256,0,0,1-.332.522,1.382,1.382,0,0,1-.509.293,2.144,2.144,0,0,1-.666.1,1.507,1.507,0,0,1-1.576-.949l.711-.3a1.037,1.037,0,0,0,.33.443.842.842,0,0,0,.5.143q.794,0,.794-.943v-.357a.963.963,0,0,1-.385.3,1.281,1.281,0,0,1-.543.115,1.353,1.353,0,0,1-.537-.109A1.364,1.364,0,0,1,5-10.95a1.413,1.413,0,0,1-.3-.48,1.686,1.686,0,0,1-.112-.619,1.682,1.682,0,0,1,.112-.62,1.356,1.356,0,0,1,.3-.474,1.4,1.4,0,0,1,.446-.3,1.377,1.377,0,0,1,.54-.107,1.243,1.243,0,0,1,.567.126.9.9,0,0,1,.379.338ZM5.637-11.466a.755.755,0,0,0,.562.235.75.75,0,0,0,.562-.238.805.805,0,0,0,.229-.58.812.812,0,0,0-.228-.583A.749.749,0,0,0,6.2-12.87a.749.749,0,0,0-.564.233.813.813,0,0,0-.225.587A.808.808,0,0,0,5.637-11.466Z" transform="translate(682.257 1611.298)" fill="#d1d1d1"/>
      <path id="Trazado_26577" data-name="Trazado 26577" d="M2.613-7.823l-.738-.964H1.74v.964H1.091V-11.25H1.74v2.017h.12l.721-.883h.727l-.9,1.064.988,1.229Zm2.6-2.293h.611V-8a1.715,1.715,0,0,1-.086.571.942.942,0,0,1-.249.392,1.037,1.037,0,0,1-.381.22,1.608,1.608,0,0,1-.5.071,1.131,1.131,0,0,1-1.182-.712l.533-.228a.778.778,0,0,0,.248.332.631.631,0,0,0,.377.107q.6,0,.6-.707v-.268a.722.722,0,0,1-.289.226.96.96,0,0,1-.407.086,1.015,1.015,0,0,1-.4-.081,1.023,1.023,0,0,1-.334-.228,1.059,1.059,0,0,1-.226-.36,1.264,1.264,0,0,1-.084-.464A1.262,1.262,0,0,1,3.522-9.5a1.017,1.017,0,0,1,.228-.356,1.047,1.047,0,0,1,.335-.223,1.033,1.033,0,0,1,.4-.08.933.933,0,0,1,.425.095.678.678,0,0,1,.284.253ZM4.228-8.6a.566.566,0,0,0,.422.176A.562.562,0,0,0,5.071-8.6a.6.6,0,0,0,.172-.435.609.609,0,0,0-.171-.437.561.561,0,0,0-.423-.178.562.562,0,0,0-.423.175.61.61,0,0,0-.168.441A.606.606,0,0,0,4.228-8.6Z" transform="translate(662.103 1616.609)" fill="#d1d1d1"/>
    </g>
  </g>
</svg>
