<svg xmlns="http://www.w3.org/2000/svg" width="199" height="33" viewBox="0 0 199 33">
  <g id="Grupo_178780" data-name="Grupo 178780" transform="translate(-1011 -2025)">
    <g id="Grupo_177776" data-name="Grupo 177776" transform="translate(105 1161)">
      <rect id="Rectángulo_45460" data-name="Rectángulo 45460" width="199" height="33" transform="translate(906 864)" fill="#fbcfcf"/>
      <path id="Trazado_187463" data-name="Trazado 187463" d="M13.268,16.442a6.521,6.521,0,0,0-.185,1.371.864.864,0,0,0,.088.426.512.512,0,0,0,.264.224,2.334,2.334,0,0,0,.606.105l-.1.431H10.333l.1-.431a1.2,1.2,0,0,0,.5-.171.949.949,0,0,0,.281-.33,3,3,0,0,0,.211-.514q.1-.3.29-1.173l1.494-6.768A6.872,6.872,0,0,0,13.4,8.225a.742.742,0,0,0-.2-.6,1.143,1.143,0,0,0-.659-.193l.1-.431h7.928l-.606,2.7h-.844A8.268,8.268,0,0,0,19,8.633a1.325,1.325,0,0,0-.211-.562.679.679,0,0,0-.33-.233,2.044,2.044,0,0,0-.58-.062H15.175l-1.046,4.781h1.644a1.688,1.688,0,0,0,.642-.105,1.209,1.209,0,0,0,.475-.382,5.547,5.547,0,0,0,.545-.945h.8l-.853,3.709h-.773a6.218,6.218,0,0,0-.057-1.112.445.445,0,0,0-.22-.308,1.634,1.634,0,0,0-.646-.083H13.962Zm14.915.809a6.681,6.681,0,0,1-1.727,1.415,4.2,4.2,0,0,1-2.035.475,2.515,2.515,0,0,1-1.973-.778,3.127,3.127,0,0,1-.7-2.167,6.746,6.746,0,0,1,.338-2.017,5.894,5.894,0,0,1,1.024-1.934,4.786,4.786,0,0,1,1.644-1.327,4.567,4.567,0,0,1,2.039-.47,2.5,2.5,0,0,1,1.6.431,1.629,1.629,0,0,1,.532,1.345,2.4,2.4,0,0,1-1.4,2.241,9.106,9.106,0,0,1-4.162.747,5.828,5.828,0,0,0-.105,1.143,2.032,2.032,0,0,0,.36,1.34,1.48,1.48,0,0,0,1.178.417,3.044,3.044,0,0,0,1.463-.352,6.114,6.114,0,0,0,1.384-1.081Zm-4.676-2.786a9.416,9.416,0,0,0,2.127-.224A2.846,2.846,0,0,0,27,13.555a1.707,1.707,0,0,0,.475-1.27,1.281,1.281,0,0,0-.25-.839.908.908,0,0,0-.743-.3,2.345,2.345,0,0,0-1.709.9A5.972,5.972,0,0,0,23.507,14.465ZM33.737,23H30.2v-.492l1.866-2.073a4.433,4.433,0,0,0,.572-.765,1.276,1.276,0,0,0,.157-.609.967.967,0,0,0-.255-.692.893.893,0,0,0-.681-.27,1.058,1.058,0,0,0-.794.291,1.11,1.11,0,0,0-.283.809H30.1a1.59,1.59,0,0,1,.479-1.2,1.778,1.778,0,0,1,1.283-.459,1.708,1.708,0,0,1,1.189.394,1.345,1.345,0,0,1,.437,1.05,3.084,3.084,0,0,1-1.015,1.9L31.03,22.441h2.707ZM41.467,6.862a3.4,3.4,0,0,1,2.615.984A4.025,4.025,0,0,1,45,10.694a11.718,11.718,0,0,1-.466,3.063A9.261,9.261,0,0,1,43.186,16.7a5.886,5.886,0,0,1-2.017,1.846,4.993,4.993,0,0,1-2.373.6,3.48,3.48,0,0,1-2.681-.984,3.983,3.983,0,0,1-.914-2.812,11.675,11.675,0,0,1,.444-2.979,9.916,9.916,0,0,1,1.283-2.931,5.847,5.847,0,0,1,2-1.925A5.087,5.087,0,0,1,41.467,6.862Zm1.863,3.463q0-2.689-1.96-2.689a2.734,2.734,0,0,0-1.771.677,5.751,5.751,0,0,0-1.441,1.934,12.508,12.508,0,0,0-.962,2.76,12.115,12.115,0,0,0-.343,2.654q0,2.716,1.978,2.716a2.957,2.957,0,0,0,2.21-1.107,8.384,8.384,0,0,0,1.648-3.107A12.545,12.545,0,0,0,43.331,10.325Zm4.3,9.646h.515a1.131,1.131,0,0,0,.763-.255.854.854,0,0,0,.278-.67.836.836,0,0,0-.944-.948.982.982,0,0,0-.709.254.888.888,0,0,0-.265.672h-.685a1.375,1.375,0,0,1,.468-1.064,1.706,1.706,0,0,1,1.19-.424,1.686,1.686,0,0,1,1.2.4,1.458,1.458,0,0,1,.433,1.122,1.183,1.183,0,0,1-.228.681,1.375,1.375,0,0,1-.62.492,1.325,1.325,0,0,1,.687.467,1.3,1.3,0,0,1,.243.8,1.471,1.471,0,0,1-.474,1.152,1.775,1.775,0,0,1-1.233.426,1.822,1.822,0,0,1-1.235-.411,1.363,1.363,0,0,1-.476-1.085h.689a.881.881,0,0,0,.278.681,1.056,1.056,0,0,0,.744.255A1.036,1.036,0,0,0,49,22.256a1,1,0,0,0,.263-.744.906.906,0,0,0-.289-.722,1.258,1.258,0,0,0-.833-.259h-.515Zm11.3-7.836H62.5v1.538H58.933v4.043H57.3V13.674H53.73V12.136H57.3V8.4h1.635ZM78.181,7.311l-.527,2.382H76.81a2.718,2.718,0,0,0-.47-1.56,1.586,1.586,0,0,0-1.288-.479A2.977,2.977,0,0,0,72.8,8.866a8.791,8.791,0,0,0-1.648,3.2,12.738,12.738,0,0,0-.606,3.7,3.291,3.291,0,0,0,.475,1.969,1.706,1.706,0,0,0,1.459.633,3.076,3.076,0,0,0,1.151-.2,2.553,2.553,0,0,0,.923-.668,5.793,5.793,0,0,0,.853-1.314h.844l-.536,2.5a12.8,12.8,0,0,1-3.445.457,3.222,3.222,0,0,1-2.514-.949,4,4,0,0,1-.861-2.777,11.476,11.476,0,0,1,.461-2.979,10.2,10.2,0,0,1,1.305-2.962,6.046,6.046,0,0,1,2-1.942,4.954,4.954,0,0,1,2.531-.668,10.567,10.567,0,0,1,1.481.1A10.125,10.125,0,0,1,78.181,7.311Zm6.75,5.854H95.39l-1.081-1.055v-1.3l2.813,2.918v.035L94.309,16.68v-1.3l1.063-1.037H84.931ZM112.529,19h-8.771V17.26l4.14-4.412a10.212,10.212,0,0,0,1.261-1.626,2.612,2.612,0,0,0,.409-1.318,1.955,1.955,0,0,0-.431-1.34,1.555,1.555,0,0,0-1.23-.488,1.677,1.677,0,0,0-1.358.593,2.35,2.35,0,0,0-.5,1.56H103.5a4.2,4.2,0,0,1,.558-2.136,3.934,3.934,0,0,1,1.578-1.516,4.8,4.8,0,0,1,2.312-.549,4.54,4.54,0,0,1,3.072.949,3.358,3.358,0,0,1,1.094,2.681,4.3,4.3,0,0,1-.492,1.934,10.745,10.745,0,0,1-1.687,2.294l-2.909,3.067h5.5Zm4.122-2.558a6.521,6.521,0,0,0-.185,1.371.864.864,0,0,0,.088.426.512.512,0,0,0,.264.224,2.334,2.334,0,0,0,.606.105l-.1.431h-3.612l.1-.431a1.2,1.2,0,0,0,.5-.171.949.949,0,0,0,.281-.33,3,3,0,0,0,.211-.514q.1-.3.29-1.173l1.494-6.768a6.872,6.872,0,0,0,.193-1.389.742.742,0,0,0-.2-.6,1.143,1.143,0,0,0-.659-.193l.1-.431h7.928l-.606,2.7H122.5a8.268,8.268,0,0,0-.11-1.068,1.325,1.325,0,0,0-.211-.562.679.679,0,0,0-.33-.233,2.044,2.044,0,0,0-.58-.062h-2.707l-1.046,4.781h1.644a1.688,1.688,0,0,0,.642-.105,1.209,1.209,0,0,0,.475-.382,5.547,5.547,0,0,0,.545-.945h.8l-.853,3.709h-.773a6.218,6.218,0,0,0-.057-1.112.445.445,0,0,0-.22-.308,1.634,1.634,0,0,0-.646-.083h-1.723Zm14.915.809a6.681,6.681,0,0,1-1.727,1.415,4.2,4.2,0,0,1-2.035.475,2.515,2.515,0,0,1-1.973-.778,3.127,3.127,0,0,1-.7-2.167,6.746,6.746,0,0,1,.338-2.017,5.894,5.894,0,0,1,1.024-1.934,4.786,4.786,0,0,1,1.644-1.327,4.567,4.567,0,0,1,2.039-.47,2.5,2.5,0,0,1,1.6.431,1.629,1.629,0,0,1,.532,1.345,2.4,2.4,0,0,1-1.4,2.241,9.106,9.106,0,0,1-4.162.747,5.828,5.828,0,0,0-.105,1.143,2.032,2.032,0,0,0,.36,1.34,1.48,1.48,0,0,0,1.178.417,3.044,3.044,0,0,0,1.463-.352,6.114,6.114,0,0,0,1.384-1.081Zm-4.676-2.786a9.416,9.416,0,0,0,2.127-.224,2.846,2.846,0,0,0,1.362-.686,1.707,1.707,0,0,0,.475-1.27,1.281,1.281,0,0,0-.25-.839.908.908,0,0,0-.743-.3,2.345,2.345,0,0,0-1.709.9A5.972,5.972,0,0,0,126.89,14.465Zm16.594-2.329h3.568v1.538h-3.568v4.043h-1.635V13.674h-3.568V12.136h3.568V8.4h1.635Zm19.248-4.825L162.2,9.692h-.844a2.718,2.718,0,0,0-.47-1.56,1.586,1.586,0,0,0-1.288-.479,2.977,2.977,0,0,0-2.254,1.213,8.791,8.791,0,0,0-1.648,3.2,12.738,12.738,0,0,0-.606,3.7,3.291,3.291,0,0,0,.475,1.969,1.706,1.706,0,0,0,1.459.633,3.076,3.076,0,0,0,1.151-.2,2.553,2.553,0,0,0,.923-.668,5.793,5.793,0,0,0,.853-1.314h.844l-.536,2.5a12.8,12.8,0,0,1-3.445.457,3.222,3.222,0,0,1-2.514-.949,4,4,0,0,1-.861-2.777,11.476,11.476,0,0,1,.461-2.979,10.2,10.2,0,0,1,1.305-2.962,6.046,6.046,0,0,1,2-1.942,4.954,4.954,0,0,1,2.531-.668,10.567,10.567,0,0,1,1.481.1A10.125,10.125,0,0,1,162.732,7.311Zm7.717-.448a3.4,3.4,0,0,1,2.615.984,4.025,4.025,0,0,1,.918,2.848,11.718,11.718,0,0,1-.466,3.063,9.261,9.261,0,0,1-1.349,2.944,5.886,5.886,0,0,1-2.017,1.846,4.993,4.993,0,0,1-2.373.6,3.48,3.48,0,0,1-2.681-.984,3.983,3.983,0,0,1-.914-2.812,11.675,11.675,0,0,1,.444-2.979,9.916,9.916,0,0,1,1.283-2.931,5.847,5.847,0,0,1,2-1.925A5.087,5.087,0,0,1,170.449,6.862Zm1.863,3.463q0-2.689-1.96-2.689a2.734,2.734,0,0,0-1.771.677,5.751,5.751,0,0,0-1.441,1.934,12.508,12.508,0,0,0-.962,2.76,12.115,12.115,0,0,0-.343,2.654q0,2.716,1.978,2.716a2.957,2.957,0,0,0,2.21-1.107,8.384,8.384,0,0,0,1.648-3.107A12.545,12.545,0,0,0,172.312,10.325Z" transform="translate(913 867)" fill="#31313c"/>
    </g>
  </g>
</svg>
