<svg xmlns="http://www.w3.org/2000/svg" width="260.725" height="212.728" viewBox="0 0 260.725 212.728"><g transform="translate(-1025.908 -433)"><g transform="translate(0 -13)"><path d="M0,0H235.725a25,25,0,0,1,25,25V212.728a0,0,0,0,1,0,0H25a25,25,0,0,1-25-25V0A0,0,0,0,1,0,0Z" transform="translate(1025.908 446)" fill="#fff"/><path d="M-70.786-7.973H-82.8L-86.478,0h-7.744l18-36.969h7.592L-61.747,0h-7.744Zm-9.293-5.814h8.328l-2.107-13.051-.152-.025ZM-50.956,0H-58.37l5.941-39.609h7.414Zm15.232,0h-9.541L-45-1.865l5.1-4.98a13.227,13.227,0,0,0,1.675-1.968,3.926,3.926,0,0,0,.63-1.479,1.976,1.976,0,0,0-.244-1.421,1.423,1.423,0,0,0-1.25-.513,1.977,1.977,0,0,0-1.514.684,3.053,3.053,0,0,0-.762,1.7h-2.764l-.02-.059a4.889,4.889,0,0,1,1.694-3.242,5.4,5.4,0,0,1,3.677-1.279A4.249,4.249,0,0,1-35.587-13.3a3.407,3.407,0,0,1,.84,2.993,4.809,4.809,0,0,1-.981,2.324,34.229,34.229,0,0,1-2.778,2.93l-2.744,2.8.029.059h5.8Zm4.875-15.031q1.447-10.359,6.208-17.075t10.017-8.823l.152.025.813,3.682A22.446,22.446,0,0,0-20.375-29.2,41.232,41.232,0,0,0-24.6-15.082l-.076.66q-1.27,8.988.2,14.295a15.628,15.628,0,0,0,4.52,7.922l-1.879,3.631h-.127q-4.6-2.057-7.49-8.988t-1.473-16.91ZM6.5-8.963a4.017,4.017,0,0,0-1.092-3.771,17.174,17.174,0,0,0-5.484-2.78q-6.348-2.006-9.407-4.875a8.049,8.049,0,0,1-2.349-7.541,9.779,9.779,0,0,1,4.57-7.021,17,17,0,0,1,9.5-2.552q6.2,0,9.7,3.021t2.59,8.3l-.051.152H7.288a4.6,4.6,0,0,0-1.282-4.164,6.355,6.355,0,0,0-4.634-1.6A6.894,6.894,0,0,0-2.5-30.7,3.872,3.872,0,0,0-4.392-27.98a3.624,3.624,0,0,0,1.143,3.605,23,23,0,0,0,6.271,2.844q5.992,1.955,8.8,4.812t2.095,7.706A9.723,9.723,0,0,1,9.319-1.9,17.827,17.827,0,0,1-.329.533,18.094,18.094,0,0,1-10.536-2.222q-4.164-2.755-3.148-8.569l.051-.152h7.186Q-6.931-7.77-4.785-6.462A10,10,0,0,0,.509-5.154,7.446,7.446,0,0,0,4.5-6.233,3.892,3.892,0,0,0,6.5-8.963Zm42.885-6.2A18.345,18.345,0,0,1,43.406-3.771,17.3,17.3,0,0,1,31.562.533q-6.576,0-10.309-4.481t-2.717-11.21l.99-6.652a18.246,18.246,0,0,1,5.9-11.362A17.113,17.113,0,0,1,37.224-37.5q6.627,0,10.385,4.507t2.768,11.185Zm-6.4-6.7q.66-4.469-1.079-7.16a6.144,6.144,0,0,0-5.573-2.691,8.148,8.148,0,0,0-6.208,2.793,12.929,12.929,0,0,0-3.212,7.059l-.99,6.7q-.686,4.545.99,7.236t5.51,2.691A8.292,8.292,0,0,0,38.7-8.023,13.149,13.149,0,0,0,42-15.158ZM60.931-5.293h1.6L62.2-3.086H60.6L60.14,0H57.288l.459-3.086H51.956l.127-1.709,7.3-9.424h2.881Zm-6.152-.049.029.049h3.271l.771-5.156-.059-.02-.381.635Zm23.7-9.131A37.585,37.585,0,0,1,72.134,2.514q-4.926,6.855-10.258,8.938l-.152-.025L60.86,7.795a22.89,22.89,0,0,0,6.69-8.049,41.5,41.5,0,0,0,4.278-14.168l.076-.66q1.244-8.887-.267-14.282t-4.456-7.96l1.9-3.605h.152q4.646,2.031,7.655,9.115t1.663,16.783ZM92.452-10.4a3.745,3.745,0,0,1-.845,1.836A4.55,4.55,0,0,1,89.884-7.3,2.994,2.994,0,0,1,91.4-6.025a3.109,3.109,0,0,1,.308,2.041,4.426,4.426,0,0,1-1.865,3.11A6.475,6.475,0,0,1,86.056.205a5,5,0,0,1-3.208-1.06,2.863,2.863,0,0,1-1-2.954l.02-.059h2.783a1.556,1.556,0,0,0,.356,1.357,1.768,1.768,0,0,0,1.372.527,2.536,2.536,0,0,0,1.65-.581,2.278,2.278,0,0,0,.85-1.45A2.013,2.013,0,0,0,88.565-5.7a2.073,2.073,0,0,0-1.582-.518H85.411l.088-.615.059-.43.068-.439.1-.654H87.3A2.255,2.255,0,0,0,88.873-8.9a2.381,2.381,0,0,0,.728-1.475,1.6,1.6,0,0,0-.308-1.338,1.693,1.693,0,0,0-1.372-.518,2.2,2.2,0,0,0-1.377.483,1.8,1.8,0,0,0-.723,1.216H83.077l-.02-.059a3.848,3.848,0,0,1,1.694-2.783,5.9,5.9,0,0,1,3.5-1.055,4.8,4.8,0,0,1,3.3,1.05A3.111,3.111,0,0,1,92.452-10.4Z" transform="translate(1164 567.239)" fill="#12263f"/><text transform="translate(1036 488)" fill="#12263f" font-size="14" font-family="Roboto-Bold, Roboto" font-weight="700"><tspan x="0" y="15">Símbolos</tspan></text><text transform="translate(1203 485)" fill="#12263f" font-size="14" font-family="Roboto-Bold, Roboto" font-weight="700"><tspan x="0" y="15">Subíndices</tspan></text><text transform="translate(1181 604)" fill="#12263f" font-size="14" font-family="Roboto-Bold, Roboto" font-weight="700"><tspan x="0" y="15">Paréntesis</tspan></text><path d="M8333.731-11088h-35.148v-30.437" transform="translate(-7157 11700)" fill="none" stroke="#f9a829" stroke-width="1"/><path d="M8379.336-11154.114v-44.547" transform="translate(-7157 11700)" fill="none" stroke="#f9a829" stroke-width="1"/><path d="M8253-11199h8.833v41.388" transform="translate(-7157 11700)" fill="none" stroke="#f9a829" stroke-width="1"/></g></g></svg>