<svg xmlns="http://www.w3.org/2000/svg" width="235" height="33" viewBox="0 0 235 33"><g transform="translate(-993 -2135)"><g transform="translate(87 1271)"><rect width="235" height="33" transform="translate(906 864)" fill="#fbcfcf"/><path d="M23.538,16.442a6.521,6.521,0,0,0-.185,1.371.864.864,0,0,0,.088.426.512.512,0,0,0,.264.224,2.334,2.334,0,0,0,.606.105l-.1.431H20.6l.1-.431a1.2,1.2,0,0,0,.5-.171.949.949,0,0,0,.281-.33,3,3,0,0,0,.211-.514q.1-.3.29-1.173l1.494-6.768a6.872,6.872,0,0,0,.193-1.389.742.742,0,0,0-.2-.6,1.143,1.143,0,0,0-.659-.193l.1-.431h7.928l-.606,2.7h-.844a8.268,8.268,0,0,0-.11-1.068,1.325,1.325,0,0,0-.211-.562.679.679,0,0,0-.33-.233,2.044,2.044,0,0,0-.58-.062H25.446L24.4,12.558h1.644a1.688,1.688,0,0,0,.642-.105,1.209,1.209,0,0,0,.475-.382,5.547,5.547,0,0,0,.545-.945h.8l-.853,3.709h-.773a6.218,6.218,0,0,0-.057-1.112.445.445,0,0,0-.22-.308,1.634,1.634,0,0,0-.646-.083H24.233Zm14.915.809a6.681,6.681,0,0,1-1.727,1.415,4.2,4.2,0,0,1-2.035.475,2.515,2.515,0,0,1-1.973-.778,3.127,3.127,0,0,1-.7-2.167,6.746,6.746,0,0,1,.338-2.017,5.894,5.894,0,0,1,1.024-1.934,4.786,4.786,0,0,1,1.644-1.327,4.567,4.567,0,0,1,2.039-.47,2.5,2.5,0,0,1,1.6.431,1.629,1.629,0,0,1,.532,1.345,2.4,2.4,0,0,1-1.4,2.241,9.106,9.106,0,0,1-4.162.747,5.828,5.828,0,0,0-.105,1.143,2.032,2.032,0,0,0,.36,1.34,1.48,1.48,0,0,0,1.178.417,3.044,3.044,0,0,0,1.463-.352,6.114,6.114,0,0,0,1.384-1.081Zm-4.676-2.786a9.416,9.416,0,0,0,2.127-.224,2.846,2.846,0,0,0,1.362-.686,1.707,1.707,0,0,0,.475-1.27,1.281,1.281,0,0,0-.25-.839.908.908,0,0,0-.743-.3,2.345,2.345,0,0,0-1.709.9A5.972,5.972,0,0,0,33.778,14.465ZM45.538,25H40.647v-.682l2.584-2.871a6.139,6.139,0,0,0,.792-1.059,1.767,1.767,0,0,0,.218-.843,1.339,1.339,0,0,0-.354-.959,1.237,1.237,0,0,0-.943-.374,1.465,1.465,0,0,0-1.1.4,1.537,1.537,0,0,0-.392,1.12H40.5a2.2,2.2,0,0,1,.664-1.666,2.461,2.461,0,0,1,1.776-.636,2.365,2.365,0,0,1,1.646.546,1.862,1.862,0,0,1,.6,1.453,4.27,4.27,0,0,1-1.4,2.625l-2,2.169h3.748ZM53.375,6.862a3.4,3.4,0,0,1,2.615.984,4.025,4.025,0,0,1,.918,2.848,11.718,11.718,0,0,1-.466,3.063A9.261,9.261,0,0,1,55.094,16.7a5.886,5.886,0,0,1-2.017,1.846,4.993,4.993,0,0,1-2.373.6,3.48,3.48,0,0,1-2.681-.984,3.983,3.983,0,0,1-.914-2.812,11.675,11.675,0,0,1,.444-2.979,9.916,9.916,0,0,1,1.283-2.931,5.847,5.847,0,0,1,2-1.925A5.087,5.087,0,0,1,53.375,6.862Zm1.863,3.463q0-2.689-1.96-2.689a2.734,2.734,0,0,0-1.771.677,5.751,5.751,0,0,0-1.441,1.934,12.508,12.508,0,0,0-.962,2.76,12.115,12.115,0,0,0-.343,2.654q0,2.716,1.978,2.716a2.957,2.957,0,0,0,2.21-1.107A8.384,8.384,0,0,0,54.6,14.162,12.545,12.545,0,0,0,55.239,10.325Zm4.856,10.481h.713a1.566,1.566,0,0,0,1.056-.354,1.182,1.182,0,0,0,.384-.928,1.158,1.158,0,0,0-1.307-1.312,1.36,1.36,0,0,0-.982.351,1.229,1.229,0,0,0-.367.93h-.948a1.9,1.9,0,0,1,.649-1.474,2.363,2.363,0,0,1,1.648-.587,2.335,2.335,0,0,1,1.656.559,2.019,2.019,0,0,1,.6,1.553,1.639,1.639,0,0,1-.315.943,1.9,1.9,0,0,1-.859.682,1.834,1.834,0,0,1,.951.646,1.794,1.794,0,0,1,.336,1.1,2.036,2.036,0,0,1-.656,1.594,2.457,2.457,0,0,1-1.707.59,2.522,2.522,0,0,1-1.71-.569,1.888,1.888,0,0,1-.659-1.5h.954a1.22,1.22,0,0,0,.385.943,1.462,1.462,0,0,0,1.03.354A1.435,1.435,0,0,0,62,23.97a1.383,1.383,0,0,0,.364-1.03,1.255,1.255,0,0,0-.4-1,1.742,1.742,0,0,0-1.153-.359h-.713Zm14.241-8.671H77.9v1.538H74.336v4.043H72.7V13.674H69.132V12.136H72.7V8.4h1.635ZM93.584,7.311l-.527,2.382h-.844a2.718,2.718,0,0,0-.47-1.56,1.586,1.586,0,0,0-1.288-.479A2.977,2.977,0,0,0,88.2,8.866a8.791,8.791,0,0,0-1.648,3.2,12.738,12.738,0,0,0-.606,3.7,3.291,3.291,0,0,0,.475,1.969,1.706,1.706,0,0,0,1.459.633,3.076,3.076,0,0,0,1.151-.2,2.553,2.553,0,0,0,.923-.668,5.793,5.793,0,0,0,.853-1.314h.844l-.536,2.5a12.8,12.8,0,0,1-3.445.457,3.222,3.222,0,0,1-2.514-.949,4,4,0,0,1-.861-2.777,11.476,11.476,0,0,1,.461-2.979A10.2,10.2,0,0,1,86.06,9.473a6.046,6.046,0,0,1,2-1.942,4.954,4.954,0,0,1,2.531-.668,10.567,10.567,0,0,1,1.481.1A10.125,10.125,0,0,1,93.584,7.311Zm6.75,5.854h10.459l-1.081-1.055v-1.3l2.813,2.918v.035l-2.812,2.918v-1.3l1.063-1.037H100.334ZM127.931,19H119.16V17.26l4.14-4.412a10.212,10.212,0,0,0,1.261-1.626,2.612,2.612,0,0,0,.409-1.318,1.955,1.955,0,0,0-.431-1.34,1.555,1.555,0,0,0-1.23-.488,1.677,1.677,0,0,0-1.358.593,2.35,2.35,0,0,0-.5,1.56H118.9a4.2,4.2,0,0,1,.558-2.136,3.934,3.934,0,0,1,1.578-1.516,4.8,4.8,0,0,1,2.312-.549,4.54,4.54,0,0,1,3.072.949,3.358,3.358,0,0,1,1.094,2.681,4.3,4.3,0,0,1-.492,1.934,10.745,10.745,0,0,1-1.687,2.294l-2.909,3.067h5.5Zm4.122-2.558a6.521,6.521,0,0,0-.185,1.371.864.864,0,0,0,.088.426.512.512,0,0,0,.264.224,2.334,2.334,0,0,0,.606.105l-.1.431h-3.612l.1-.431a1.2,1.2,0,0,0,.5-.171.949.949,0,0,0,.281-.33,3,3,0,0,0,.211-.514q.1-.3.29-1.173l1.494-6.768a6.872,6.872,0,0,0,.193-1.389.742.742,0,0,0-.2-.6,1.143,1.143,0,0,0-.659-.193l.1-.431h7.928l-.606,2.7H137.9a8.268,8.268,0,0,0-.11-1.068,1.325,1.325,0,0,0-.211-.562.679.679,0,0,0-.33-.233,2.044,2.044,0,0,0-.58-.062h-2.707l-1.046,4.781h1.644a1.688,1.688,0,0,0,.642-.105,1.209,1.209,0,0,0,.475-.382,5.547,5.547,0,0,0,.545-.945h.8l-.853,3.709h-.773a6.218,6.218,0,0,0-.057-1.112.445.445,0,0,0-.22-.308,1.634,1.634,0,0,0-.646-.083h-1.723Zm14.915.809a6.681,6.681,0,0,1-1.727,1.415,4.2,4.2,0,0,1-2.035.475,2.515,2.515,0,0,1-1.973-.778,3.127,3.127,0,0,1-.7-2.167,6.746,6.746,0,0,1,.338-2.017,5.894,5.894,0,0,1,1.024-1.934,4.786,4.786,0,0,1,1.644-1.327,4.567,4.567,0,0,1,2.039-.47,2.5,2.5,0,0,1,1.6.431,1.629,1.629,0,0,1,.532,1.345,2.4,2.4,0,0,1-1.4,2.241,9.106,9.106,0,0,1-4.162.747,5.828,5.828,0,0,0-.105,1.143,2.032,2.032,0,0,0,.36,1.34,1.48,1.48,0,0,0,1.178.417,3.044,3.044,0,0,0,1.463-.352,6.114,6.114,0,0,0,1.384-1.081Zm-4.676-2.786a9.416,9.416,0,0,0,2.127-.224,2.846,2.846,0,0,0,1.362-.686,1.707,1.707,0,0,0,.475-1.27,1.281,1.281,0,0,0-.25-.839.908.908,0,0,0-.743-.3,2.345,2.345,0,0,0-1.709.9A5.972,5.972,0,0,0,142.293,14.465Zm16.594-2.329h3.568v1.538h-3.568v4.043h-1.635V13.674h-3.568V12.136h3.568V8.4h1.635Zm12.226-.659h1.354a1.907,1.907,0,0,0,1.433-.483,1.771,1.771,0,0,0,.466-1.283,1.566,1.566,0,0,0-.461-1.2,1.788,1.788,0,0,0-1.27-.431,1.874,1.874,0,0,0-1.222.4,1.279,1.279,0,0,0-.492,1.042h-2.54a3.124,3.124,0,0,1,.541-1.8,3.6,3.6,0,0,1,1.512-1.244,5.045,5.045,0,0,1,2.14-.448A4.785,4.785,0,0,1,175.753,7,3.314,3.314,0,0,1,176.9,9.675a2.693,2.693,0,0,1-.536,1.617,3.483,3.483,0,0,1-1.406,1.134,3.18,3.18,0,0,1,1.613,1.16,3.147,3.147,0,0,1,.532,1.828,3.369,3.369,0,0,1-1.244,2.733,5,5,0,0,1-3.292,1.028,4.741,4.741,0,0,1-3.133-1.011,3.3,3.3,0,0,1-1.217-2.672h2.54a1.472,1.472,0,0,0,.541,1.178,2.255,2.255,0,0,0,2.751-.022,1.654,1.654,0,0,0,.514-1.27q0-1.916-2.109-1.916h-1.345Zm17.35-4.166-.527,2.382h-.844a2.718,2.718,0,0,0-.47-1.56,1.586,1.586,0,0,0-1.288-.479,2.977,2.977,0,0,0-2.254,1.213,8.791,8.791,0,0,0-1.648,3.2,12.738,12.738,0,0,0-.606,3.7,3.291,3.291,0,0,0,.475,1.969,1.706,1.706,0,0,0,1.459.633,3.076,3.076,0,0,0,1.151-.2,2.553,2.553,0,0,0,.923-.668,5.793,5.793,0,0,0,.853-1.314h.844l-.536,2.5a12.8,12.8,0,0,1-3.445.457,3.222,3.222,0,0,1-2.514-.949,4,4,0,0,1-.861-2.777,11.476,11.476,0,0,1,.461-2.979,10.2,10.2,0,0,1,1.305-2.962,6.046,6.046,0,0,1,2-1.942,4.954,4.954,0,0,1,2.531-.668,10.567,10.567,0,0,1,1.481.1A10.125,10.125,0,0,1,188.462,7.311Zm7.717-.448a3.4,3.4,0,0,1,2.615.984,4.025,4.025,0,0,1,.918,2.848,11.718,11.718,0,0,1-.466,3.063A9.261,9.261,0,0,1,197.9,16.7a5.886,5.886,0,0,1-2.017,1.846,4.993,4.993,0,0,1-2.373.6,3.48,3.48,0,0,1-2.681-.984,3.983,3.983,0,0,1-.914-2.812,11.675,11.675,0,0,1,.444-2.979,9.916,9.916,0,0,1,1.283-2.931,5.847,5.847,0,0,1,2-1.925A5.087,5.087,0,0,1,196.178,6.862Zm1.863,3.463q0-2.689-1.96-2.689a2.734,2.734,0,0,0-1.771.677,5.751,5.751,0,0,0-1.441,1.934,12.508,12.508,0,0,0-.962,2.76,12.115,12.115,0,0,0-.343,2.654q0,2.716,1.978,2.716a2.957,2.957,0,0,0,2.21-1.107,8.384,8.384,0,0,0,1.648-3.107A12.545,12.545,0,0,0,198.042,10.325Z" transform="translate(913 867)" fill="#31313c"/></g></g></svg>