<svg xmlns="http://www.w3.org/2000/svg" width="68" height="68" viewBox="0 0 68 68"><g transform="translate(-663 -1743)"><g transform="translate(16.5 -3.5)"><rect width="13" height="13" transform="translate(646.5 1746.5)" fill="#f9a829"/><path d="M.4.4V12.6H12.6V.4H.4M0,0H13V13H0Z" transform="translate(646.5 1746.5)" fill="#707070"/><rect width="14" height="13" transform="translate(659.5 1746.5)" fill="#f9a829"/><path d="M.4.4V12.6H13.6V.4H.4M0,0H14V13H0Z" transform="translate(659.5 1746.5)" fill="#707070"/><rect width="14" height="14" transform="translate(659.5 1759.5)" fill="#f9a829"/><path d="M.4.4V13.6H13.6V.4H.4M0,0H14V14H0Z" transform="translate(659.5 1759.5)" fill="#707070"/><rect width="13" height="14" transform="translate(673.5 1759.5)" fill="#f9a829"/><path d="M.4.4V13.6H12.6V.4H.4M0,0H13V14H0Z" transform="translate(673.5 1759.5)" fill="#707070"/><rect width="14" height="14" transform="translate(686.5 1759.5)" fill="#f9a829"/><path d="M.4.4V13.6H13.6V.4H.4M0,0H14V14H0Z" transform="translate(686.5 1759.5)" fill="#707070"/><rect width="14" height="14" transform="translate(700.5 1759.5)" fill="#f9a829"/><path d="M.4.4V13.6H13.6V.4H.4M0,0H14V14H0Z" transform="translate(700.5 1759.5)" fill="#707070"/><rect width="13" height="13" transform="translate(673.5 1773.5)" fill="#f9a829"/><path d="M.4.4V12.6H12.6V.4H.4M0,0H13V13H0Z" transform="translate(673.5 1773.5)" fill="#707070"/><rect width="14" height="13" transform="translate(686.5 1773.5)" fill="#f9a829"/><path d="M.4.4V12.6H13.6V.4H.4M0,0H14V13H0Z" transform="translate(686.5 1773.5)" fill="#707070"/><rect width="14" height="13" transform="translate(700.5 1773.5)" fill="#f9a829"/><path d="M.4.4V12.6H13.6V.4H.4M0,0H14V13H0Z" transform="translate(700.5 1773.5)" fill="#707070"/><rect width="14" height="14" transform="translate(686.5 1786.5)" fill="#f9a829"/><path d="M.4.4V13.6H13.6V.4H.4M0,0H14V14H0Z" transform="translate(686.5 1786.5)" fill="#707070"/><rect width="14" height="14" transform="translate(700.5 1786.5)" fill="#f9a829"/><path d="M.4.4V13.6H13.6V.4H.4M0,0H14V14H0Z" transform="translate(700.5 1786.5)" fill="#707070"/><rect width="14" height="14" transform="translate(700.5 1800.5)" fill="#f9a829"/><path d="M.4.4V13.6H13.6V.4H.4M0,0H14V14H0Z" transform="translate(700.5 1800.5)" fill="#707070"/><rect width="13" height="13" transform="translate(673.5 1746.5)" fill="#f9a829"/><path d="M.4.4V12.6H12.6V.4H.4M0,0H13V13H0Z" transform="translate(673.5 1746.5)" fill="#707070"/><rect width="14" height="13" transform="translate(686.5 1746.5)" fill="#f9a829"/><path d="M.4.4V12.6H13.6V.4H.4M0,0H14V13H0Z" transform="translate(686.5 1746.5)" fill="#707070"/><rect width="14" height="13" transform="translate(700.5 1746.5)" fill="#f9a829"/><path d="M.4.4V12.6H13.6V.4H.4M0,0H14V13H0Z" transform="translate(700.5 1746.5)" fill="#707070"/></g></g></svg>