<svg xmlns="http://www.w3.org/2000/svg" xmlns:xlink="http://www.w3.org/1999/xlink" width="69" height="68.983" viewBox="0 0 69 68.983"><defs><clipPath id="a"><rect width="69" height="68.983" fill="none"/></clipPath><clipPath id="b"><rect width="69" height="68.983" fill="#f9a829"/></clipPath></defs><g clip-path="url(#a)"><g transform="translate(-871 -1737.101)"><g transform="translate(871 1737.101)"><g clip-path="url(#b)"><path d="M0,57.666V11.323a1.5,1.5,0,0,0,.114-.305A12.613,12.613,0,0,1,12.73.012q21.791-.02,43.582,0a12.6,12.6,0,0,1,12.669,12.6q.041,21.887,0,43.775A12.594,12.594,0,0,1,60.01,68.43c-.764.234-1.558.371-2.339.553H11.319a2.137,2.137,0,0,0-.37-.122A12.685,12.685,0,0,1,.3,59.1C.2,58.62.1,58.143,0,57.666m34.5,9.021q10.846,0,21.692,0a10.342,10.342,0,0,0,10.5-10.5q.016-21.688,0-43.376a10.336,10.336,0,0,0-10.5-10.5q-21.693-.013-43.385,0a10.338,10.338,0,0,0-10.5,10.5Q2.286,34.494,2.3,56.183a10.76,10.76,0,0,0,.2,2.139,10.31,10.31,0,0,0,10.229,8.362c7.253.016,14.507,0,21.76,0" transform="translate(0 0)" fill="#f9a829"/><path d="M64.22,85.078H75.742v-.807q0-4.58,0-9.16a2.314,2.314,0,0,1,2.632-2.648c.651,0,1.3-.011,1.954,0a2.286,2.286,0,0,1,2.3,2.244c.01.179,0,.359,0,.539q0,13.3,0,26.605c0,1.931-.863,2.8-2.791,2.8-.539,0-1.078.006-1.617,0a2.3,2.3,0,0,1-2.484-2.477c-.011-3.121,0-6.241,0-9.362v-.767H64.22v.716q0,4.614,0,9.227a2.348,2.348,0,0,1-2.638,2.663c-.629,0-1.258.016-1.886,0a2.3,2.3,0,0,1-2.365-2.4q-.013-13.707,0-27.414a2.269,2.269,0,0,1,2.386-2.364c.7-.01,1.392-.009,2.088,0a2.245,2.245,0,0,1,2.41,2.394c.015,3.121.005,6.241.005,9.362v.858M59.67,74.8v27.521h2.251v-.824q0-5.085,0-10.17c0-1.263.345-1.615,1.584-1.616q6.467,0,12.934,0c1.251,0,1.6.349,1.6,1.6q0,5.118,0,10.237c0,.257.024.514.036.761H80.3V74.813H78.041v.858q0,5.085,0,10.17c0,1.181-.392,1.567-1.584,1.568q-6.467,0-12.934,0c-1.228,0-1.6-.378-1.6-1.618q0-5.119,0-10.237V74.8Z" transform="translate(-35.486 -44.855)" fill="#f9a829"/><path d="M12.052,41.9q0-10.707,0-21.415a8.085,8.085,0,0,1,8.44-8.427c.606,0,1.213-.014,1.818,0a1.14,1.14,0,0,1,1.228,1.148,1.127,1.127,0,0,1-1.224,1.141,29.768,29.768,0,0,0-3.023.1,5.682,5.682,0,0,0-4.934,5.464c0,.09-.007.179-.007.269q0,21.752,0,43.5a5.686,5.686,0,0,0,4.381,5.666,7.976,7.976,0,0,0,1.867.19q16.671.017,33.342.008c.247,0,.5-.011.74.011a1.134,1.134,0,0,1,.18,2.232,2.773,2.773,0,0,1-.735.051q-16.873,0-33.746,0a8.077,8.077,0,0,1-8.331-8.334q-.007-10.809,0-21.617" transform="translate(-7.46 -7.463)" fill="#f9a829"/><path d="M98.066,41.967q0,10.707,0,21.415a8.094,8.094,0,0,1-8.459,8.478c-.606,0-1.213.016-1.819-.006a1.147,1.147,0,1,1,.033-2.289,28.683,28.683,0,0,0,2.956-.1,5.683,5.683,0,0,0,4.983-5.49c.009-.179.009-.359.009-.539q0-21.482,0-42.964a5.738,5.738,0,0,0-4.34-5.9,8.041,8.041,0,0,0-1.931-.2q-16.671-.018-33.342-.009c-.224,0-.45.009-.673-.007A1.093,1.093,0,0,1,54.388,13.3,1.124,1.124,0,0,1,55.4,12.083,4.271,4.271,0,0,1,56,12.067q16.872,0,33.745,0a8.073,8.073,0,0,1,8.314,8.282q.011,10.809,0,21.617" transform="translate(-33.668 -7.468)" fill="#f9a829"/><path d="M81.922,27.477c-.61.4-1.067.718-1.536,1.014a1.175,1.175,0,0,1-1.717-.25,1.161,1.161,0,0,1,.461-1.67c1.057-.717,2.115-1.432,3.188-2.125a1.147,1.147,0,0,1,1.9,1.012c.019,4.484.013,8.968,0,13.452,0,.845-.482,1.368-1.17,1.354s-1.126-.533-1.128-1.4c-.008-3.5,0-7,0-10.493v-.9" transform="translate(-48.581 -14.966)" fill="#f9a829"/></g></g></g></g></svg>