<svg xmlns="http://www.w3.org/2000/svg" xmlns:xlink="http://www.w3.org/1999/xlink" width="400" height="279.582" viewBox="0 0 400 279.582"><defs><clipPath id="a"><rect width="29.5" height="29.5" fill="#fff"/></clipPath><clipPath id="b"><rect width="40.409" height="40.409" fill="#fff"/></clipPath><clipPath id="c"><rect width="31.516" height="44.394" fill="#31313c"/></clipPath><clipPath id="d"><rect width="39.569" height="87.601" fill="none"/></clipPath><clipPath id="e"><rect width="13.786" height="8.063" fill="none"/></clipPath><clipPath id="f"><rect width="13.428" height="4.948" fill="none"/></clipPath><clipPath id="g"><rect width="11.476" height="11.476" fill="#2be9d6"/></clipPath><clipPath id="h"><rect width="6.137" height="6.136" fill="#2be9d6"/></clipPath><clipPath id="i"><rect width="8.727" height="8.727" fill="#2be9d6"/></clipPath></defs><g transform="translate(-180 -707.418)"><g transform="translate(0 11.418)"><g transform="translate(0 65.408)"><g transform="translate(180 638.591)"><path d="M0,0H375a25,25,0,0,1,25,25V246.915a0,0,0,0,1,0,0H25a25,25,0,0,1-25-25V0A0,0,0,0,1,0,0Z" transform="translate(0 18.851)" fill="#f9a829"/><g transform="translate(15.091 242.083)"><g clip-path="url(#a)"><path d="M29.1,15.195c-10.611,1.258-12.651,3.3-13.909,13.909a.448.448,0,0,1-.89,0C13.047,18.493,11.006,16.453.4,15.195a.448.448,0,0,1,0-.89C11.006,13.047,13.047,11.007,14.3.4a.448.448,0,0,1,.89,0C16.453,11.007,18.493,13.047,29.1,14.3a.448.448,0,0,1,0,.89" transform="translate(0 0)" fill="#fff"/></g></g><g transform="translate(350.591 0)"><g clip-path="url(#b)"><path d="M39.866,20.814c-14.534,1.723-17.329,4.518-19.052,19.052a.614.614,0,0,1-1.22,0C17.872,25.332,15.076,22.537.542,20.814a.614.614,0,0,1,0-1.219C15.076,17.872,17.872,15.077,19.594.542a.614.614,0,0,1,1.22,0c1.723,14.535,4.518,17.33,19.052,19.053a.614.614,0,0,1,0,1.219" transform="translate(0 0)" fill="#fff"/></g></g><g transform="translate(0 8.687) rotate(-16)"><g transform="translate(0 0)" clip-path="url(#c)"><path d="M22.455,1.47H.735A.735.735,0,0,1,.735,0h21.72a.735.735,0,0,1,0,1.47" transform="translate(4.164 3.715)" fill="#31313c"/><path d="M22.455,1.47H.735A.735.735,0,0,1,.735,0h21.72a.735.735,0,0,1,0,1.47" transform="translate(4.164 9.894)" fill="#31313c"/><path d="M22.455,1.47H.735A.735.735,0,0,1,.735,0h21.72a.735.735,0,0,1,0,1.47" transform="translate(4.164 16.072)" fill="#31313c"/><path d="M22.455,1.47H.735A.735.735,0,0,1,.735,0h21.72a.735.735,0,0,1,0,1.47" transform="translate(4.164 28.429)" fill="#31313c"/><path d="M22.455,1.47H.735A.735.735,0,0,1,.735,0h21.72a.735.735,0,0,1,0,1.47" transform="translate(4.164 34.608)" fill="#31313c"/><path d="M22.455,1.47H.735A.735.735,0,0,1,.735,0h21.72a.735.735,0,0,1,0,1.47" transform="translate(4.164 40.786)" fill="#31313c"/><path d="M9.324,18.73A17.64,17.64,0,0,0,5.99,20.376a12.906,12.906,0,0,1-1.928-1.84C-1.379,12.165.194,1.781.263,1.342a1.592,1.592,0,0,1,3.145.5,25.354,25.354,0,0,0-.216,3.442c0,3.207.537,7.968,3.3,11.195A9.462,9.462,0,0,0,9.324,18.73" transform="translate(0.001 0)" fill="#31313c"/><path d="M14.786,1.756A19,19,0,0,1,8.414,3.265c-.4-.029-.816-.044-1.239-.044A16.753,16.753,0,0,1,0,1.776,16.5,16.5,0,0,1,6.028,0q.559.036,1.146.037a16.077,16.077,0,0,1,7.611,1.719" transform="translate(8.379 20.05)" fill="#31313c"/><path d="M9.279,19.631A1.594,1.594,0,0,1,7.7,21.023a1.9,1.9,0,0,1-.2-.012,1.6,1.6,0,0,1-1.379-1.781c.012-.1,1.218-10.2-3.657-15.731A9.953,9.953,0,0,0,0,1.472,17.136,17.136,0,0,0,3.429,0,13.491,13.491,0,0,1,4.857,1.4c5.825,6.617,4.48,17.76,4.422,18.23" transform="translate(22.063 23.372)" fill="#31313c"/><path d="M1.753,44.394A1.592,1.592,0,0,1,.176,43c-.06-.471-1.405-11.615,4.42-18.23,2.738-3.11,6.562-4.686,11.367-4.686,3.968,0,7.02-1.218,9.07-3.619,4.5-5.266,3.09-14.534,3.075-14.627a1.592,1.592,0,1,1,3.145-.5c.07.439,1.642,10.823-3.8,17.193-2.683,3.142-6.549,4.735-11.492,4.735-3.845,0-6.863,1.211-8.97,3.6C2.117,32.4,3.322,42.5,3.334,42.6a1.593,1.593,0,0,1-1.38,1.779,1.629,1.629,0,0,1-.2.013" transform="translate(0 0)" fill="#31313c"/></g></g></g><g transform="translate(533.801 810.401)" clip-path="url(#d)"><path d="M25.382,64.226l-1.164,3.449a1.79,1.79,0,0,0,.643,2.021,26.648,26.648,0,0,0,2.515,1.6l-.479,1.41L11.79,117.234a7,7,0,0,0,4.37,8.875c.112.038.229.073.346.107a7,7,0,0,0,8.543-4.485L39.428,79.36l1.255-3.7a22.468,22.468,0,0,0,3.119.118,1.791,1.791,0,0,0,1.633-1.217l1.08-3.2c.369-1.094-4.064-3.574-9.9-5.544s-10.861-2.678-11.232-1.587" transform="translate(-11.417 -38.883)" fill="#fff"/><g transform="translate(15.48 32.414)" style="mix-blend-mode:multiply;isolation:isolate"><g transform="translate(0)"><g clip-path="url(#e)"><path d="M26.916,83.172l-.479,1.41c1.623,1.978,8.37,5.255,12.531,6.653l1.255-3.7a35.51,35.51,0,0,1-13.307-4.362" transform="translate(-26.437 -83.172)" fill="#d9e5f9"/></g></g></g><path d="M55.6,125.026l-9.835,28.942a4.82,4.82,0,0,0,9.127,3.1l9.834-28.943a14.929,14.929,0,0,0-1.784-1.282,12.614,12.614,0,0,0-7.342-1.819" transform="translate(-42.887 -76.292)" fill="#fed5c3"/><path d="M70.5,177.451a2.072,2.072,0,1,1-.873-2.8,2.072,2.072,0,0,1,.873,2.8" transform="translate(-57.123 -106.442)" fill="#a82c3b"/><path d="M55.337,142.9a2.072,2.072,0,1,1-.873-2.8,2.072,2.072,0,0,1,.873,2.8" transform="translate(-36.048 -85.357)" fill="#a82c3b"/><path d="M83.93,197.288a1.289,1.289,0,1,1-.543-1.74,1.289,1.289,0,0,1,.543,1.74" transform="translate(-76.271 -119.248)" fill="#a82c3b"/><path d="M72.233,160.479a1.289,1.289,0,1,1-.543-1.74,1.289,1.289,0,0,1,.543,1.74" transform="translate(-60.015 -96.784)" fill="#a82c3b"/><path d="M45.5,125.026a10.536,10.536,0,0,0,9.127,3.1,12.843,12.843,0,0,0-9.127-3.1" transform="translate(-32.796 -76.292)" fill="#a82c3b"/><g transform="translate(17.953 26.031)" style="mix-blend-mode:multiply;isolation:isolate"><g clip-path="url(#f)"><path d="M21.016,67.006c-.186.552,2.665,2.012,6.368,3.261s6.856,1.815,7.043,1.263-2.665-2.012-6.368-3.262-6.856-1.815-7.043-1.263" transform="translate(-21.008 -66.794)" fill="#c9d6f7"/></g></g><g transform="translate(28.093 13.407)" style="mix-blend-mode:screen;isolation:isolate"><g transform="translate(0)" style="isolation:isolate"><g clip-path="url(#g)"><path d="M.307,38.294a5.737,5.737,0,1,0,7.277-3.586A5.737,5.737,0,0,0,.307,38.294" transform="translate(0 -34.401)" fill="#2be9d6"/></g></g></g><g transform="translate(17.806 14.914)" style="isolation:isolate"><g transform="translate(0)"><g clip-path="url(#h)"><path d="M40.261,40.349a3.067,3.067,0,1,0,3.891-1.918,3.067,3.067,0,0,0-3.891,1.918" transform="translate(-40.097 -38.268)" fill="#2be9d6"/></g></g></g><g transform="translate(24.378)" style="isolation:isolate"><g transform="translate(0)"><g clip-path="url(#i)"><path d="M16.82,2.959A4.362,4.362,0,1,0,22.354.233,4.362,4.362,0,0,0,16.82,2.959" transform="translate(-16.587 0)" fill="#2be9d6"/></g></g></g></g></g><g transform="translate(-377.5 -245.906)"><g transform="translate(652.816 941.906)"><g transform="translate(0 0)"><path d="M238.827,76.464c4.415,0,7.995.617,7.995,1.377v30.894a8,8,0,1,1-15.99,0V77.841c0-.76,3.58-1.377,8-1.377" transform="translate(-97.38 -57.776)" fill="#fff"/><path d="M250.118,104.078v25.194a6.419,6.419,0,0,1-12.838,0V104.078Z" transform="translate(-102.252 -78.641)" fill="#dd4b8e"/><path d="M263.544,192.072a1.266,1.266,0,1,0,1.265-1.265,1.266,1.266,0,0,0-1.265,1.265" transform="translate(-124.628 -144.173)" fill="#a1295f"/><path d="M258.281,161.523a2.681,2.681,0,1,0,2.682-2.682,2.681,2.681,0,0,0-2.682,2.682" transform="translate(-120.911 -120.02)" fill="#a1295f"/><path d="M275.514,119.008a.947.947,0,1,0,.947-.947.947.947,0,0,0-.947.947" transform="translate(-138.886 -89.207)" fill="#a1295f"/><path d="M107.255,224.517l5.482,13.57,21.73-2.637L120.862,220.47Z" transform="translate(45.176 -166.587)" fill="#ffb1a7"/><rect width="34.173" height="83.185" transform="translate(89.457 192.204)" fill="#ccc"/><path d="M250.389,802.428h42.327l12.733-76.547,7.386,76.547h31.479L326.936,697.512H273.723Z" transform="translate(-199.653 -527.039)" fill="#4e60ed"/><path d="M250.388,713.46l3.379-15.947h53.214L324.36,802.429H306.981l-15.887-96.316Z" transform="translate(-179.697 -527.039)" fill="#3e4cb8"/><path d="M.162,28.406-.733.037l1.9-.06.9,28.369Z" transform="translate(104.686 170.467)" fill="#3e4cb8"/><path d="M392.8,746.486l-.815-1.714c.037-.018,3.881-1.893,3.881-4.6v-6.419h1.9v6.419C397.766,744.08,393,746.39,392.8,746.486Z" transform="translate(-286.839 -554.419)" fill="#3e4cb8"/><path d="M451.587,824.6l-40.344,73.856H439.3Z" transform="translate(-346.238 -623.066)" fill="#3e4cb8"/><path d="M325.357,269.811,321.5,272.6V372.881h53.213l-27.726-105-6.494,1.766Z" transform="translate(-247.426 -202.407)" fill="#dd4b8e"/><path d="M422.763,296.143a10.337,10.337,0,0,1-2.384-.282,9.094,9.094,0,0,1-5.7-4.732,25.408,25.408,0,0,1-2.589-7.347,52.96,52.96,0,0,1-1.05-9.753v-.8l3-2.163,20-1.227.507.619a68.38,68.38,0,0,1,5.113,7.308c3.432,5.722,4.444,9.808,3.094,12.491a6.278,6.278,0,0,1-6.025,3.443,15.754,15.754,0,0,1-5.636-1.253A12.232,12.232,0,0,1,422.763,296.143Zm-8.575-21.326a50.711,50.711,0,0,0,.975,8.365c1.514,7.157,4.065,9.189,5.938,9.634a7.2,7.2,0,0,0,1.662.2c3.935,0,6.686-3.39,6.714-3.424l.8-1.017,1.141.6a13.871,13.871,0,0,0,5.306,1.4c2.119,0,2.859-.982,3.231-1.721s.82-3.125-2.966-9.447a66.54,66.54,0,0,0-4.375-6.343l-17.478,1.072Z" transform="translate(-336.657 -205.196)" fill="#a1295f"/><path d="M307.5,439.05l-2.3-18.409,2.3-32.454-7.072-32.737H307.5l22.453,83.317Z" transform="translate(-197.526 -268.576)" fill="#a1295f"/><path d="M524.185,275.1s-16.9,3.693-24.508,5.819-18.689,8.281-26.747,25.068-22.606,45.436-22.606,45.436l39.5,1.231,10.855-26.778,6.155,36.85L474.833,483.256h40.939a21.872,21.872,0,0,0,21.821-20.388l6.809-100.14Z" transform="translate(-448.605 -207.867)" fill="#fff"/><path d="M450.875,321.063c-3.439-11.993,10.307-22.218,10.519-22.375l18.887,81.862-.267,3.925c-4.677-5.427-18.1-21.725-19.617-31.773a18.331,18.331,0,0,1,4.141-14.573,28.9,28.9,0,0,1-13.662-17.066" transform="translate(-384.484 -225.688)" fill="#ccc"/><path d="M471.425,519.71l-6.155-36.85L480.378,504.6l22.911-9.592,2.965,12.852-21.848,15.844s.839,15.644-1.175,21.52l-21.723,11.827Z" transform="translate(-413.191 -364.848)" fill="#ccc"/><path d="M589.787,584.839c4.812-1.567-1.007-26.3-1.007-26.3l-15,2.686Z" transform="translate(-526.069 -422.032)" fill="#ccc"/><path d="M0,259.279l16.857,56.05L16.018,347.1,33.811,469.677H78.464L39.407,342.186,39.968,315l1.9-7.149s8.225,10.072,19.976,23.669,31.391,10.743,38.777,5.875,13.6-19.464,4.029-38.185-20.983-39.2-20.983-39.2l-27.194,3.525,5.372,19.808s-13.71-11.117-20.425-17.328S20.326,253.8,0,259.279" transform="translate(96.326 -194.287)" fill="#fff"/><path d="M355.666,318.685c6.288,12.465-1.236,20.5-1.236,20.5s17.193,10.424-3.729,48.342l-.911-6.273.84-31.775L336.45,302.33c4.721,1.961,14.482,6.969,19.217,16.355" transform="translate(-237.448 -228.44)" fill="#ccc"/><path d="M216.278,382.049c1.846,4.868,2.77,9.568,4.448,13.094,1.443,3.031,7.265,11.042,6.167,18.443-10.412-12.116-17.5-20.793-17.5-20.793,1.343-4.868,1.343-12-4.7-23.249,0,0,7.8,2.529,11.583,12.506" transform="translate(-71.201 -279.226)" fill="#ccc"/><path d="M531.514,800.768H501.746s-8.387,25.292,5.042,25.292,22.264-8.281,24.726-25.292" transform="translate(-447.652 -605.059)" fill="#ccc"/><path d="M226.249,824.671a7.027,7.027,0,0,1-4.492,1.389c-13.429,0-22.264-8.281-24.726-25.292h21.895" transform="translate(-68.546 -605.059)" fill="#ccc"/><path d="M550.9,545.713l16.228-2.741,2.462,9.736-17.906,9.624Z" transform="translate(-498.376 -410.268)" fill="#ffb1a7"/><path d="M464.538,314.551a28.9,28.9,0,0,1-13.662-17.066C447.41,285.4,461.4,275.1,461.4,275.1l20.217,87.626s-19.378-21.412-21.224-33.6a18.331,18.331,0,0,1,4.141-14.573" transform="translate(-385.824 -207.867)" fill="#fff"/><path d="M336.443,265.923s15.514,4.705,21.893,17.351c6.288,12.465-1.235,20.5-1.235,20.5s17.686,10.72-4.64,49.97l.839-31.775Z" transform="translate(-240.117 -200.931)" fill="#fff"/><path d="M7.512,35.951-.546.2.866-.123,8.924,35.633Z" transform="translate(158.011 89.022)" fill="#ccc"/><path d="M176.743,456a25.573,25.573,0,0,1,2.824-12.7l1.279.678a24.459,24.459,0,0,0-2.659,11.914Z" transform="translate(-17.675 -335.232)" fill="#ccc"/><path d="M7.922,24.087-.527.3.837-.187,9.286,23.6Z" transform="translate(165.23 67.564)" fill="#ccc"/><path d="M129.866,296.537a1.287,1.287,0,1,0,1.287-1.287,1.287,1.287,0,0,0-1.287,1.287" transform="translate(41.678 -223.09)" fill="#dd4b8e"/><path d="M114.756,337.747a1.287,1.287,0,1,0,1.287-1.287,1.287,1.287,0,0,0-1.287,1.287" transform="translate(60.481 -254.229)" fill="#dd4b8e"/><path d="M2.133,18.006-.553.132.878-.083,3.564,17.791Z" transform="translate(49.231 100.113)" fill="#ccc"/><path d="M639.089,437.743a31.165,31.165,0,0,1-7.271-8.69,35.232,35.232,0,0,1-2.4-4.818l1.353-.515c.036.1,3.123,8.04,9.218,12.89Z" transform="translate(-587.641 -320.371)" fill="#ccc"/><path d="M580.057,417.214h-4.3v-8.989a2.151,2.151,0,1,1,4.3,0Zm-2.854-1.447h1.406v-7.542a.7.7,0,1,0-1.406,0Z" transform="translate(-514.328 -307.415)" fill="#fff"/><path d="M588.829,436.077l-.755-1.235c1.806-1.1,1.2-4.737.225-6.844-1.474-3.178-1.065-6.15,1.152-8.367l1.024,1.023c-2.25,2.251-1.711,4.9-.862,6.735a11.782,11.782,0,0,1,1.074,4.539C590.714,433.882,590.072,435.316,588.829,436.077Z" transform="translate(-527.811 -317.488)" fill="#fff"/><path d="M567.645,442.9h-26.11l4.8-1.418a39.061,39.061,0,0,1,9.856-1.413,22,22,0,0,1,8.355,1.446Z" transform="translate(-491.694 -333.105)" fill="#fff"/><path d="M176.515,145.14l-17.682,3.581-3.581-9.589v-6.354s-2.35-2.606-4.113-2.69-4.616.42-4.7-.671,4.281-1.931,7.386-1.175c0,0-3.19-1.427-5.624-1.091s-3.441.084-3.525-.671,4.952-2.182,8.981-.672a9.543,9.543,0,0,0-4.952-1.762c-2.938-.168-4.7.42-4.868-.5s3.693-3.357,10.156-.671c0,0-2.35-2.6-5.372-2.6s-3.861-1.511-2.854-2.014,7.554,0,10.324,1.343,5.372,4.532,5.959,10.24Z" transform="translate(-5.811 -89.207)" fill="#e3ba33"/><path d="M215.454,177.342a5.689,5.689,0,0,1-4.922,3.133v3.448s5.478-1.6,4.922-6.582" transform="translate(-61.091 -133.999)" fill="#9a8025"/><path d="M355.279,501.749h18.21a5.835,5.835,0,0,0,5.835-5.835V465.275a12,12,0,0,1,3.363-8.332l1.053-1.092h-34.3v40.064a5.835,5.835,0,0,0,5.835,5.835" transform="translate(-263.288 -344.439)" fill="#7080fa"/><path d="M380.73,518.566H398.55a3.706,3.706,0,0,0,3.706-3.706V484.718a2.878,2.878,0,0,0-1.416-2.509c-4.059-2.316-8.947,1.806-23.816,1.106v31.544a3.706,3.706,0,0,0,3.706,3.706" transform="translate(-288.544 -363.817)" fill="#fff"/><path d="M425.391,554.014a4.906,4.906,0,1,0,4.906-4.906,4.906,4.906,0,0,0-4.906,4.906" transform="translate(-333.312 -414.905)" fill="#dfe6cb"/><path d="M403.973,585.4a1.6,1.6,0,1,0,1.6-1.6,1.6,1.6,0,0,0-1.6,1.6" transform="translate(-300.037 -441.119)" fill="#dfe6cb"/><path d="M399.207,516.126a3.077,3.077,0,1,0,3.077-3.077,3.077,3.077,0,0,0-3.077,3.077" transform="translate(-297.07 -387.659)" fill="#dfe6cb"/><path d="M261.1,299.07H262.3V288.625a2.16,2.16,0,0,1,2.158-2.158h15.329a3.507,3.507,0,1,0,0-7.013h-15.23a2.257,2.257,0,1,1,0-4.514h38.56a3.954,3.954,0,0,0,0-7.909h-14a1.921,1.921,0,0,1,0-3.842h14.44a3.513,3.513,0,0,0,3.509-3.509V241.218h-1.194v18.463A2.318,2.318,0,0,1,303.558,262h-14.44a3.115,3.115,0,0,0,0,6.23h14a2.76,2.76,0,0,1,0,5.521h-38.56a3.451,3.451,0,1,0,0,6.9h15.23a2.313,2.313,0,0,1,0,4.626H264.453a3.355,3.355,0,0,0-3.351,3.351Z" transform="translate(-165.023 -182.264)" fill="#7080fa"/><path d="M.959,9.128H-.6V0H.959Z" transform="translate(97.361 111.411)" fill="#fff"/><path d="M.959,9.128H-.6V0H.959Z" transform="translate(95.62 111.411)" fill="#fff"/><path d="M7,1.164H0v-1.9H7Z" transform="translate(109.038 121.654)" fill="#3e4cb8"/><path d="M4.721,1.164H0v-1.9H4.721Z" transform="translate(111.315 124.023)" fill="#3e4cb8"/><path d="M4.721,1.164H0v-1.9H4.721Z" transform="translate(111.315 126.392)" fill="#3e4cb8"/><path d="M7,1.164H0v-1.9H7Z" transform="translate(109.038 128.761)" fill="#3e4cb8"/><path d="M4.721,1.164H0v-1.9H4.721Z" transform="translate(111.315 131.13)" fill="#3e4cb8"/><path d="M4.721,1.164H0v-1.9H4.721Z" transform="translate(111.315 133.5)" fill="#3e4cb8"/><path d="M7,1.164H0v-1.9H7Z" transform="translate(109.038 135.869)" fill="#3e4cb8"/><path d="M4.721,1.164H0v-1.9H4.721Z" transform="translate(111.315 138.238)" fill="#3e4cb8"/><path d="M4.721,1.164H0v-1.9H4.721Z" transform="translate(111.315 140.607)" fill="#3e4cb8"/><path d="M7,1.164H0v-1.9H7Z" transform="translate(109.038 142.976)" fill="#3e4cb8"/><path d="M4.721,1.164H0v-1.9H4.721Z" transform="translate(111.315 145.346)" fill="#3e4cb8"/><path d="M4.721,1.164H0v-1.9H4.721Z" transform="translate(111.315 147.715)" fill="#3e4cb8"/><path d="M7,1.164H0v-1.9H7Z" transform="translate(109.038 150.084)" fill="#3e4cb8"/><path d="M582.132,162.6s-2.668-3.609-8.124-1.763-5.708,8.309-4.617,13.178,4.868,13.345-4.532,15.779c8.057,4.365,17.284-1.229,18.885-9.233a31.356,31.356,0,0,0-1.613-17.962" transform="translate(-516.557 -121.129)" fill="#31313c"/><path d="M566.827,162.46l-2.121,1.017a2.418,2.418,0,0,0-1.339,1.711,4.508,4.508,0,0,0,.417,3.086,2.382,2.382,0,0,0,2.336,1.15l2.385-.25Z" transform="translate(-500.311 -122.754)" fill="#fff"/><path d="M435.614,80.045s-3.8,2.238-9.177,5.708-5.484,10.184-5.036,12.758,2.434,9.735,13.765,9.708l8.169-1.539-1.231-7.051s4.141-8.281,1.9-13.541l10.52,5.148s5.1-3,3.161-10.464c-2.574-9.9-18.621-9.948-22.074-.728" transform="translate(-355.221 -55.336)" fill="#31313c"/><path d="M418.669,142.556a.621.621,0,0,0-.262-1.12,4.571,4.571,0,0,1-4.265-4.464c-.224-2.8,1.915-3.816,3.8-2.84s4.2,5.693,4.2,5.693l-.9-4.364c4.232-5.546,1.9-14.213,1.9-14.213a33.777,33.777,0,0,1,7.929,1.277,7.319,7.319,0,0,1,5.128,5.913c.179,1.2.283,2.241.344,3.022a11.19,11.19,0,0,1-4.767,19.635l-1,10.106-.755,15.779-16.115-17.962,2.014-14.52Z" transform="translate(-335.988 -91.615)" fill="#ffb1a7"/><path d="M436.725,175.972a1.565,1.565,0,0,1-.428-3.07l.671-.191-.854-1.607a1.565,1.565,0,1,1,2.763-1.469l1.763,3.315a1.565,1.565,0,0,1-.953,2.239l-2.532.722A1.566,1.566,0,0,1,436.725,175.972Z" transform="translate(-340.05 -128.818)" fill="#ac3a3a"/><path d="M461.65,232.089c-5.635-.48-10.2-4.123-11.326-8.865a11.181,11.181,0,0,0,11.715,4.924Z" transform="translate(-366.241 -168.668)" fill="#ac3a3a"/><path d="M500.541,184.371a4.166,4.166,0,0,1-1.847-3.443,3.044,3.044,0,0,1,4.6-2.7,6.529,6.529,0,0,1,2.915,4.814h-3.129s0,.007,0,.011a3.576,3.576,0,0,0-.558-1.291,2.634,2.634,0,0,0-.7-.768,1.14,1.14,0,0,0,.373.72Z" transform="translate(-420.962 -135.616)" fill="#e06b6b"/><path d="M435.157,144.849l.318.816c.056.143,1.371,3.52,1.874,5.224a3.4,3.4,0,0,1-.51,3.07,3.811,3.811,0,0,1-3.058,1.475,4.187,4.187,0,0,1-.59-.042l-.232-.034a8.77,8.77,0,0,0-1.22-.125c-.754,0-1.632.186-3.33,2.414a4.334,4.334,0,0,1-3.486,1.954,5.1,5.1,0,0,1-4.5-3.576c-.673-2.186-1.4-5.252-1.435-5.381l-.207-.871Zm-1.377,8.688a1.908,1.908,0,0,0,1.539-.714,1.527,1.527,0,0,0,.21-1.4c-.335-1.134-1.081-3.135-1.507-4.254l-12.973,3.9c.268,1.081.749,2.959,1.19,4.393a3.2,3.2,0,0,0,2.684,2.237A2.558,2.558,0,0,0,426.9,156.5c1.734-2.275,3.091-3.161,4.839-3.161a10.26,10.26,0,0,1,1.494.145l.226.033A2.284,2.284,0,0,0,433.78,153.538Z" transform="translate(-333.264 -110.39)" fill="#fff"/><path d="M.3,2.072-.191.24,3.328-.708l.494,1.832Z" transform="translate(84.027 43.543)" fill="#fff"/><path d="M434.94,196.552c0,1.379.723,2.5,1.616,2.5s1.616-1.118,1.616-2.5-.723-2.5-1.616-2.5-1.616,1.118-1.616,2.5" transform="translate(-338.614 -146.628)" fill="#fff"/><path d="M436.531,221.224a4.7,4.7,0,0,1-1.848-.4,1.565,1.565,0,1,1,1.225-2.879,1.2,1.2,0,0,0,.924.087c.024-.01.14-.064.14-.064a1.565,1.565,0,1,1,2.41,2A3.762,3.762,0,0,1,436.531,221.224Z" transform="translate(-338.619 -165.536)" fill="#e06b6b"/><path d="M459.192,165.245c.241.823.806,1.382,1.262,1.249s.631-.909.39-1.732-.806-1.382-1.261-1.249-.631.909-.39,1.732" transform="translate(-367.296 -123.535)" fill="#2a1e53"/><path d="M435.047,158.184c.241.823.806,1.382,1.262,1.249s.631-.909.39-1.732-.806-1.382-1.262-1.249-.631.909-.39,1.732" transform="translate(-337.25 -118.2)" fill="#2a1e53"/><path d="M.293,2.416l-.478-1.2L4.04-.465l.478,1.2Z" transform="translate(88.312 34.589)" fill="#31313c"/><path d="M.09,1.212-.057-.073,3.638-.5,3.786.788Z" transform="translate(95.496 33.474)" fill="#31313c"/><path d="M427.215,511.539s0,8.725,4.026,15.218l13.206-8.054s4.751.241,6.715-1.176,4.029-2.966,4.029-2.966,6.883.616,7.05,0-7.386-2.126-7.386-2.126a14.223,14.223,0,0,1,3.973-1.175c1.678-.112,4.364.056,4.2-.727s-5.377-1.846-8.368-.951l4.675-2.462s3.876.056,3.7-.839-4.987-1.4-9.3.56l3.245-2.8s3.525-.112,3.413-.727-2.07-.867-4.029-.713-13.765,7.763-13.765,7.763Z" transform="translate(-361.592 -379.73)" fill="#e3ba33"/><path d="M583.3,559.589c-5.372,11.191,1.15,34.245,29.448,27.754s32.551-8.505,32.551-8.505a68.747,68.747,0,0,1-5.846-28.24Z" transform="translate(-581.581 -416.03)" fill="#fff"/><path d="M.14,5.4-.088,3.974,28.18-.552,28.409.877Z" transform="translate(16.205 136.546)" fill="#ccc"/><path d="M14.288,2.418-.06.883.094-.556,14.442.979Z" transform="translate(14.544 136.545)" fill="#ccc"/><path d="M9.215,5.995-.27.778.428-.49,9.913,4.726Z" transform="translate(22.708 133.306)" fill="#ccc"/><path d="M.181,5.5l-.3-1.417L22.1-.548,22.4.869Z" transform="translate(38.281 153.82)" fill="#ccc"/><path d="M610.422,646.453a1.142,1.142,0,1,0,1.142-1.142,1.142,1.142,0,0,0-1.142,1.142" transform="translate(-556.037 -487.596)" fill="#dd4b8e"/><path d="M642.387,653.012a1.142,1.142,0,1,0,1.142-1.142,1.142,1.142,0,0,0-1.142,1.142" transform="translate(-595.815 -492.552)" fill="#dd4b8e"/><path d="M268.274,56.679a1.578,1.578,0,1,0,1.577-1.577,1.577,1.577,0,0,0-1.577,1.577" transform="translate(-131.138 -41.635)" fill="#dd4b8e"/><path d="M237.28,13.413a3.21,3.21,0,1,0,3.21-3.209,3.209,3.209,0,0,0-3.21,3.209" transform="translate(-95.833 -7.71)" fill="#dd4b8e"/><path d="M275.514,1.247A1.247,1.247,0,1,0,276.761,0a1.247,1.247,0,0,0-1.247,1.247" transform="translate(-139.487)" fill="#dd4b8e"/></g></g></g><line y2="99.129" transform="translate(290.333 872.261)" fill="none" stroke="#31313c" stroke-linecap="round" stroke-width="4" stroke-dasharray="8"/><line y2="34" transform="translate(465.333 722.5)" fill="none" stroke="#31313c" stroke-linecap="round" stroke-width="4" stroke-dasharray="8"/></g></g></svg>