<svg xmlns="http://www.w3.org/2000/svg" width="86.221" height="13.643" viewBox="0 0 86.221 13.643"><g transform="translate(-304.979 -1243.514)"><path d="M84.509,22l.107-.479a1.1,1.1,0,0,0,.859-.449,2.553,2.553,0,0,0,.283-1.406q0-.381-.029-.83l-.068-1.26h-4.3l-.537.957a7.993,7.993,0,0,0-.557,1.157,2.546,2.546,0,0,0-.176.854q0,.82.986.977L80.974,22H76.979l.107-.479a1.2,1.2,0,0,0,.571-.239,2.973,2.973,0,0,0,.571-.605,15.6,15.6,0,0,0,.85-1.343l6.26-10.82h1.475l.7,10.889a5.813,5.813,0,0,0,.176,1.206,1.432,1.432,0,0,0,.347.645,1.127,1.127,0,0,0,.64.269L88.571,22ZM81.8,16.727h3.818l-.166-3.145q-.029-.645-.049-1.611t-.02-1.4H85.28Zm20.205-2.793h3.33v2.822h-3.33v3.818H98.933V16.756h-3.34V13.934h3.34V10.223h3.076Zm17.7,1.24a3.087,3.087,0,0,1,1.4,1.03,2.511,2.511,0,0,1,.488,1.519,4.009,4.009,0,0,1-.6,2.222,4.2,4.2,0,0,1-1.787,1.489A8.4,8.4,0,0,1,115.72,22h-4.346l.107-.479a1.332,1.332,0,0,0,.557-.19,1.055,1.055,0,0,0,.313-.366,3.336,3.336,0,0,0,.234-.571q.107-.337.322-1.3l1.66-7.52a7.636,7.636,0,0,0,.215-1.543.824.824,0,0,0-.225-.664,1.27,1.27,0,0,0-.732-.215l.107-.479h4.834a7.328,7.328,0,0,1,2.349.308,2.534,2.534,0,0,1,1.3.9,2.552,2.552,0,0,1,.415,1.494,3.411,3.411,0,0,1-.781,2.231,4.892,4.892,0,0,1-2.324,1.46Zm-2.7-.527a7.209,7.209,0,0,0,1.831-.186,2.841,2.841,0,0,0,1.2-.664,2.965,2.965,0,0,0,.752-1.05,3.467,3.467,0,0,0,.234-1.323,2.1,2.1,0,0,0-.146-.786,1.421,1.421,0,0,0-.5-.625,2.3,2.3,0,0,0-.82-.371,5.447,5.447,0,0,0-1.235-.112q-.85,0-1.582.029l-1.1,5.088ZM114.216,21.1q.6.039,1.465.039a5.673,5.673,0,0,0,2.231-.337,2.988,2.988,0,0,0,1.284-1.2,3.925,3.925,0,0,0,.537-2.119A1.754,1.754,0,0,0,119.084,16a3.157,3.157,0,0,0-1.938-.5h-1.719Zm17.363-5.586H143.2L142,14.344V12.9l3.125,3.242v.039L142,19.422V17.977l1.182-1.152h-11.6Zm31.621-6.5-.586,2.646h-.937a3.019,3.019,0,0,0-.522-1.733,1.763,1.763,0,0,0-1.431-.532,3.308,3.308,0,0,0-2.5,1.348,9.767,9.767,0,0,0-1.831,3.56,14.153,14.153,0,0,0-.674,4.106,3.656,3.656,0,0,0,.527,2.188,1.9,1.9,0,0,0,1.621.7,3.418,3.418,0,0,0,1.279-.22,2.837,2.837,0,0,0,1.025-.742,6.436,6.436,0,0,0,.947-1.46h.938l-.6,2.773a14.224,14.224,0,0,1-3.828.508,3.58,3.58,0,0,1-2.793-1.055,4.447,4.447,0,0,1-.957-3.086,12.751,12.751,0,0,1,.513-3.311,11.328,11.328,0,0,1,1.45-3.291,6.718,6.718,0,0,1,2.217-2.158,5.5,5.5,0,0,1,2.813-.742,11.741,11.741,0,0,1,1.646.107A11.249,11.249,0,0,1,163.2,9.012Z" transform="translate(228 1235)" fill="#f37577"/></g></svg>