<svg xmlns="http://www.w3.org/2000/svg" width="99.658" height="13.486" viewBox="0 0 99.658 13.486"><g transform="translate(-591.851 -1315.514)"><path d="M77.38,22l.107-.479a1.1,1.1,0,0,0,.859-.449,2.553,2.553,0,0,0,.283-1.406q0-.381-.029-.83l-.068-1.26h-4.3l-.537.957a7.993,7.993,0,0,0-.557,1.157,2.546,2.546,0,0,0-.176.854q0,.82.986.977L73.845,22H69.851l.107-.479a1.2,1.2,0,0,0,.571-.239,2.973,2.973,0,0,0,.571-.605,15.6,15.6,0,0,0,.85-1.343l6.26-10.82h1.475l.7,10.889a5.813,5.813,0,0,0,.176,1.206,1.432,1.432,0,0,0,.347.645,1.127,1.127,0,0,0,.64.269L81.442,22Zm-2.705-5.273h3.818l-.166-3.145q-.029-.645-.049-1.611t-.02-1.4h-.107Zm17.256-1.553a3.087,3.087,0,0,1,1.4,1.03,2.511,2.511,0,0,1,.488,1.519,4.009,4.009,0,0,1-.6,2.222,4.2,4.2,0,0,1-1.787,1.489A8.4,8.4,0,0,1,87.946,22H83.6l.107-.479a1.332,1.332,0,0,0,.557-.19,1.055,1.055,0,0,0,.313-.366,3.336,3.336,0,0,0,.234-.571q.107-.337.322-1.3l1.66-7.52a7.636,7.636,0,0,0,.215-1.543.824.824,0,0,0-.225-.664,1.27,1.27,0,0,0-.732-.215l.107-.479h4.834a7.328,7.328,0,0,1,2.349.308,2.534,2.534,0,0,1,1.3.9,2.552,2.552,0,0,1,.415,1.494,3.411,3.411,0,0,1-.781,2.231,4.892,4.892,0,0,1-2.324,1.46Zm-2.7-.527a7.209,7.209,0,0,0,1.831-.186,2.841,2.841,0,0,0,1.2-.664,2.965,2.965,0,0,0,.752-1.05,3.467,3.467,0,0,0,.234-1.323,2.1,2.1,0,0,0-.146-.786,1.421,1.421,0,0,0-.5-.625,2.3,2.3,0,0,0-.82-.371,5.447,5.447,0,0,0-1.235-.112q-.85,0-1.582.029l-1.1,5.088ZM86.442,21.1q.6.039,1.465.039a5.673,5.673,0,0,0,2.231-.337,2.988,2.988,0,0,0,1.284-1.2,3.925,3.925,0,0,0,.537-2.119A1.754,1.754,0,0,0,91.311,16a3.157,3.157,0,0,0-1.938-.5H87.653Zm17.363-5.586h11.621l-1.2-1.172V12.9l3.125,3.242v.039l-3.125,3.242V17.977l1.182-1.152h-11.6ZM131.188,22l.107-.479a1.1,1.1,0,0,0,.859-.449,2.553,2.553,0,0,0,.283-1.406q0-.381-.029-.83l-.068-1.26h-4.3l-.537.957a7.993,7.993,0,0,0-.557,1.157,2.546,2.546,0,0,0-.176.854q0,.82.986.977l-.107.479h-3.994l.107-.479a1.2,1.2,0,0,0,.571-.239,2.973,2.973,0,0,0,.571-.605,15.6,15.6,0,0,0,.85-1.343l6.26-10.82h1.475l.7,10.889a5.812,5.812,0,0,0,.176,1.206,1.432,1.432,0,0,0,.347.645,1.127,1.127,0,0,0,.64.269l-.107.479Zm-2.705-5.273H132.3l-.166-3.145q-.029-.645-.049-1.611t-.02-1.4h-.107Zm20.205-2.793h3.33v2.822h-3.33v3.818h-3.076V16.756h-3.34V13.934h3.34V10.223h3.076Zm17.7,1.24a3.087,3.087,0,0,1,1.4,1.03,2.511,2.511,0,0,1,.488,1.519,4.008,4.008,0,0,1-.6,2.222,4.2,4.2,0,0,1-1.787,1.489A8.4,8.4,0,0,1,162.4,22h-4.346l.107-.479a1.332,1.332,0,0,0,.557-.19,1.055,1.055,0,0,0,.313-.366,3.335,3.335,0,0,0,.234-.571q.107-.337.322-1.3l1.66-7.52a7.635,7.635,0,0,0,.215-1.543.824.824,0,0,0-.225-.664,1.27,1.27,0,0,0-.732-.215l.107-.479h4.834a7.328,7.328,0,0,1,2.349.308,2.534,2.534,0,0,1,1.3.9,2.552,2.552,0,0,1,.415,1.494,3.411,3.411,0,0,1-.781,2.231,4.892,4.892,0,0,1-2.324,1.46Zm-2.7-.527a7.209,7.209,0,0,0,1.831-.186,2.841,2.841,0,0,0,1.2-.664,2.965,2.965,0,0,0,.752-1.05,3.467,3.467,0,0,0,.234-1.323,2.1,2.1,0,0,0-.146-.786,1.421,1.421,0,0,0-.5-.625,2.3,2.3,0,0,0-.82-.371A5.447,5.447,0,0,0,165,9.529q-.85,0-1.582.029l-1.1,5.088ZM160.9,21.1q.6.039,1.465.039a5.673,5.673,0,0,0,2.231-.337,2.988,2.988,0,0,0,1.284-1.2,3.925,3.925,0,0,0,.537-2.119A1.754,1.754,0,0,0,165.764,16a3.157,3.157,0,0,0-1.938-.5h-1.719Z" transform="translate(522 1307)" fill="#f37577"/></g></svg>