<svg xmlns="http://www.w3.org/2000/svg" xmlns:xlink="http://www.w3.org/1999/xlink" width="52.529" height="49.896" viewBox="0 0 52.529 49.896"><defs><clipPath id="a"><rect width="52.529" height="49.896" fill="#31313c"/></clipPath></defs><g transform="translate(0 0)" clip-path="url(#a)"><path d="M46.747,11.563a5.8,5.8,0,1,0-5.218-3.3l-6.29,6.29a9.806,9.806,0,0,0-11.931,1.109L20.595,12.1a3.506,3.506,0,1,0-1.68,1.283L21.9,17.292a9.815,9.815,0,0,0-1.375,8.126L12.33,29.144a7.01,7.01,0,1,0,1.6,3.528l8.329-3.788a9.819,9.819,0,0,0,10.63,3.334L37.9,41.8a4.96,4.96,0,1,0,3.435-1.794L36.3,30.362a9.843,9.843,0,0,0,2.733-3.685l4.132.086a3.507,3.507,0,1,0,.044-2.113l-3.554-.075a9.867,9.867,0,0,0,.156-1.734,9.767,9.767,0,0,0-1.765-5.613L44.27,11a5.751,5.751,0,0,0,2.477.564" transform="translate(0 0)" fill="#31313c"/></g></svg>