<svg xmlns="http://www.w3.org/2000/svg" xmlns:xlink="http://www.w3.org/1999/xlink" width="84.827" height="102.437" viewBox="0 0 84.827 102.437"><defs><clipPath id="a"><rect width="62.856" height="88.541" fill="none"/></clipPath></defs><g transform="translate(0 17.326) rotate(-16)"><g clip-path="url(#a)"><path d="M58.48,15.153H15.161a1.465,1.465,0,0,1,0-2.931H58.48a1.465,1.465,0,1,1,0,2.931" transform="translate(-5.392 -4.812)" fill="#f2edfd"/><path d="M58.48,35.477H15.161a1.465,1.465,0,0,1,0-2.931H58.48a1.465,1.465,0,1,1,0,2.931" transform="translate(-5.392 -12.813)" fill="#f2edfd"/><path d="M58.48,55.8H15.161a1.466,1.466,0,0,1,0-2.931H58.48a1.466,1.466,0,0,1,0,2.931" transform="translate(-5.392 -20.814)" fill="#f2edfd"/><path d="M58.48,96.448H15.161a1.466,1.466,0,0,1,0-2.931H58.48a1.466,1.466,0,0,1,0,2.931" transform="translate(-5.392 -36.817)" fill="#f2edfd"/><path d="M58.48,116.772H15.161a1.466,1.466,0,0,1,0-2.931H58.48a1.466,1.466,0,0,1,0,2.931" transform="translate(-5.392 -44.819)" fill="#f2edfd"/><path d="M58.48,137.1H15.161a1.466,1.466,0,0,1,0-2.931H58.48a1.466,1.466,0,0,1,0,2.931" transform="translate(-5.392 -52.82)" fill="#f2edfd"/><path d="M18.6,37.356a35.181,35.181,0,0,0-6.649,3.283A25.741,25.741,0,0,1,8.1,36.97C-2.747,24.263.39,3.553.527,2.679A3.175,3.175,0,0,1,6.8,3.67a50.567,50.567,0,0,0-.43,6.864c0,6.4,1.07,15.892,6.576,22.327A18.871,18.871,0,0,0,18.6,37.356" transform="translate(-0.001 0)" fill="#f9a829"/><path d="M57.052,69.458a37.886,37.886,0,0,1-12.708,3.01c-.806-.059-1.627-.088-2.472-.088A33.412,33.412,0,0,1,27.563,69.5a32.9,32.9,0,0,1,12.023-3.541q1.114.073,2.286.073a32.065,32.065,0,0,1,15.179,3.429" transform="translate(-10.851 -25.966)" fill="#e65943"/><path d="M91.08,116.034a3.18,3.18,0,0,1-3.146,2.775,3.781,3.781,0,0,1-.406-.024,3.182,3.182,0,0,1-2.751-3.552c.025-.2,2.428-20.353-7.294-31.374a19.85,19.85,0,0,0-4.91-4.04,34.178,34.178,0,0,0,6.84-2.936,26.9,26.9,0,0,1,2.848,2.794c11.618,13.2,8.936,35.42,8.819,36.358" transform="translate(-28.572 -30.268)" fill="#f9a829"/><path d="M3.5,88.54A3.174,3.174,0,0,1,.35,85.767c-.12-.94-2.8-23.166,8.816-36.359,5.46-6.2,13.088-9.347,22.67-9.347,7.915,0,14-2.428,18.09-7.217,8.969-10.5,6.162-28.986,6.133-29.172a3.175,3.175,0,1,1,6.272-.994c.139.876,3.274,21.585-7.576,34.291-5.351,6.266-13.062,9.443-22.92,9.443-7.669,0-13.689,2.415-17.89,7.177C4.223,64.61,6.625,84.765,6.65,84.966A3.176,3.176,0,0,1,3.9,88.515a3.249,3.249,0,0,1-.4.025" transform="translate(0 0)" fill="#f9a829"/></g></g></svg>