<svg xmlns="http://www.w3.org/2000/svg" xmlns:xlink="http://www.w3.org/1999/xlink" width="65.555" height="67.672" viewBox="0 0 65.555 67.672"><defs><clipPath id="a"><rect width="65.555" height="67.672" fill="none"/></clipPath></defs><g clip-path="url(#a)"><path d="M55.4,74.151c5.457-.891,8.928-3.078,9.894-6.3,1.134-3.778-1.4-8.275-7.134-12.661-5.344-4.088-12.952-7.739-21.423-10.281S19.9,41.231,13.191,41.7c-7.2.5-11.792,2.864-12.926,6.642S1.664,56.618,7.4,61c5.344,4.088,12.952,7.74,21.423,10.281S45.653,74.967,52.365,74.5q1.6-.113,3.032-.346M10.576,45.011q1.315-.214,2.824-.321c6.36-.446,14.341.653,22.474,3.093,17.47,5.242,28.013,14.332,26.548,19.213-.739,2.464-4.481,4.109-10.266,4.515-6.36.446-14.342-.652-22.474-3.093S14.282,62.5,9.219,58.625C4.612,55.1,2.394,51.667,3.134,49.2c.611-2.035,3.272-3.513,7.442-4.193" transform="translate(0 -24.011)" fill="#dd5268"/><path d="M62.937,68.279c3.893-.635,6.826-4.882,8.258-11.958,1.335-6.595,1.286-15.033-.139-23.761S67,15.814,63.633,9.986C60.025,3.733,55.895.639,52,1.275s-6.826,4.882-8.258,11.958c-1.335,6.6-1.286,15.034.139,23.762s4.061,16.744,7.423,22.573c3.608,6.253,7.739,9.347,11.632,8.712M52.484,4.231C57.512,3.41,65.163,15.04,68.1,33.041S67.483,64.5,62.455,65.323,49.776,54.513,46.838,36.512s.617-31.46,5.646-32.281" transform="translate(-24.691 -0.689)" fill="#7edeed"/><path d="M21.692,72q1.428-.233,2.984-.636c6.514-1.688,14.078-5.428,21.3-10.531S59.253,49.852,63.02,44.277c4.042-5.982,5.014-11.05,2.738-14.272s-7.378-4-14.367-2.187c-6.513,1.688-14.078,5.428-21.3,10.531S16.815,49.332,13.048,54.908C9.006,60.889,8.034,65.958,10.31,69.18c1.938,2.743,5.925,3.714,11.382,2.823M54.923,30.124c4.17-.68,7.162-.126,8.389,1.61,2.94,4.161-4.166,16.131-19.063,26.656-6.935,4.9-14.152,8.479-20.324,10.078-5.614,1.454-9.685,1.084-11.169-1.016s-.474-6.061,2.773-10.867C19.1,51.3,24.884,45.694,31.819,40.795s14.153-8.478,20.324-10.078c.975-.253,1.9-.451,2.781-.594" transform="translate(-5.256 -15.504)" fill="#f2edfd"/><path d="M60.009,71.666a7.442,7.442,0,1,0,6.146-8.544,7.443,7.443,0,0,0-6.146,8.544" transform="translate(-34.581 -36.378)" fill="#ffab31"/><path d="M73.637,5.031A4.333,4.333,0,1,0,77.216.056a4.333,4.333,0,0,0-3.579,4.975" transform="translate(-42.471 0.001)" fill="#ffab31"/><path d="M3.664,108.028a4.373,4.373,0,1,0,3.611-5.02,4.373,4.373,0,0,0-3.611,5.02" transform="translate(-2.082 -59.424)" fill="#ffab31"/><path d="M129.842,75.624a4.373,4.373,0,1,0,3.611-5.02,4.373,4.373,0,0,0-3.611,5.02" transform="translate(-74.913 -40.72)" fill="#ffab31"/></g></svg>