<svg xmlns="http://www.w3.org/2000/svg" xmlns:xlink="http://www.w3.org/1999/xlink" width="55.37" height="122.583" viewBox="0 0 55.37 122.583"><defs><clipPath id="a"><rect width="55.37" height="122.583" fill="none"/></clipPath><clipPath id="b"><rect width="19.291" height="11.283" fill="none"/></clipPath><clipPath id="c"><rect width="18.791" height="6.923" fill="none"/></clipPath><clipPath id="d"><rect width="16.059" height="16.059" fill="#2be9d6"/></clipPath><clipPath id="e"><rect width="8.587" height="8.587" fill="#2be9d6"/></clipPath><clipPath id="f"><rect width="12.212" height="12.211" fill="#2be9d6"/></clipPath></defs><g clip-path="url(#a)"><path d="M30.958,64.431l-1.629,4.826a2.5,2.5,0,0,0,.9,2.829,37.292,37.292,0,0,0,3.519,2.24l-.67,1.973L11.939,138.605a9.8,9.8,0,0,0,6.115,12.419c.157.053.321.1.484.149A9.793,9.793,0,0,0,30.492,144.9l20.121-59.29,1.756-5.178a31.439,31.439,0,0,0,4.364.165,2.506,2.506,0,0,0,2.285-1.7L60.53,74.41c.517-1.531-5.687-5-13.855-7.758s-15.2-3.747-15.718-2.221" transform="translate(-11.417 -28.968)" fill="#fff"/><g transform="translate(21.661 45.358)" style="mix-blend-mode:multiply;isolation:isolate"><g transform="translate(0)"><g clip-path="url(#b)"><path d="M27.107,83.172l-.67,1.973c2.271,2.768,11.712,7.353,17.535,9.31l1.756-5.179a49.691,49.691,0,0,1-18.621-6.1" transform="translate(-26.437 -83.172)" fill="#d9e5f9"/></g></g></g><path d="M59.626,125.032l-13.762,40.5a6.744,6.744,0,0,0,12.772,4.34l13.761-40.5a20.891,20.891,0,0,0-2.5-1.794,17.65,17.65,0,0,0-10.274-2.545" transform="translate(-41.842 -56.837)" fill="#fed5c3"/><path d="M72.062,178.662a2.9,2.9,0,1,1-1.222-3.914,2.9,2.9,0,0,1,1.222,3.914" transform="translate(-53.341 -79.299)" fill="#a82c3b"/><path d="M56.9,144.112a2.9,2.9,0,1,1-1.222-3.914,2.9,2.9,0,0,1,1.222,3.914" transform="translate(-29.906 -63.59)" fill="#a82c3b"/><path d="M84.9,198.042a1.8,1.8,0,1,1-.76-2.435,1.8,1.8,0,0,1,.76,2.435" transform="translate(-74.183 -88.839)" fill="#a82c3b"/><path d="M73.2,161.232a1.8,1.8,0,1,1-.76-2.435,1.8,1.8,0,0,1,.76,2.435" transform="translate(-56.107 -72.103)" fill="#a82c3b"/><path d="M45.5,125.032a14.743,14.743,0,0,0,12.771,4.339A17.972,17.972,0,0,0,45.5,125.032" transform="translate(-27.721 -56.837)" fill="#a82c3b"/><g transform="translate(25.122 36.426)" style="mix-blend-mode:multiply;isolation:isolate"><g clip-path="url(#c)"><path d="M21.02,67.09c-.26.772,3.729,2.815,8.912,4.563s9.594,2.54,9.855,1.768-3.729-2.816-8.912-4.564-9.594-2.54-9.855-1.767" transform="translate(-21.008 -66.794)" fill="#c9d6f7"/></g></g><g transform="translate(39.311 18.761)" style="mix-blend-mode:screen;isolation:isolate"><g transform="translate(0)" style="isolation:isolate"><g clip-path="url(#d)"><path d="M.429,39.848A8.027,8.027,0,1,0,10.613,34.83,8.027,8.027,0,0,0,.429,39.848" transform="translate(0 -34.401)" fill="#2be9d6"/></g></g></g><g transform="translate(24.916 20.869)" style="isolation:isolate"><g transform="translate(0)"><g clip-path="url(#e)"><path d="M40.327,41.181A4.292,4.292,0,1,0,45.771,38.5a4.292,4.292,0,0,0-5.445,2.684" transform="translate(-40.097 -38.268)" fill="#2be9d6"/></g></g></g><g transform="translate(34.113)" style="isolation:isolate"><g transform="translate(0)"><g clip-path="url(#f)"><path d="M16.913,4.141A6.1,6.1,0,1,0,24.657.326a6.1,6.1,0,0,0-7.743,3.815" transform="translate(-16.587 0)" fill="#2be9d6"/></g></g></g></g></svg>