<svg xmlns="http://www.w3.org/2000/svg" xmlns:xlink="http://www.w3.org/1999/xlink" width="70.379" height="89.602" viewBox="0 0 70.379 89.602"><defs><clipPath id="a"><rect width="20.782" height="38.294" fill="none"/></clipPath></defs><path d="M42.305,77.818H9.493a2.351,2.351,0,0,0-2.351,2.351l4.7,2.35H42.305a2.351,2.351,0,0,0,0-4.7" transform="translate(-4.063 -44.271)" fill="#f9a829"/><path d="M12.469,74.561a6.235,6.235,0,1,1-6.235-6.235,6.235,6.235,0,0,1,6.235,6.235" transform="translate(0 -38.871)" fill="#ffab31"/><path d="M10.672,81.869A2.872,2.872,0,1,1,13.544,79a2.875,2.875,0,0,1-2.872,2.872" transform="translate(-4.437 -43.308)" fill="#ff8131"/><path d="M46.267,125.216H89.385a4.657,4.657,0,0,0,4.242-6.579L74.259,75.9V62.6H61.394V75.9L42.025,118.637a4.658,4.658,0,0,0,4.242,6.579" transform="translate(-23.669 -35.614)" fill="#fff"/><path d="M128.682,96.556l11.016-16.6,1.346,2.894-8.269,22.734Z" transform="translate(-73.207 -45.488)" fill="#fff"/><path d="M49.809,131.835l19.68-43.419V83.27h5.886v5.147l19.68,43.419a1.168,1.168,0,0,1-1.064,1.649H50.873a1.168,1.168,0,0,1-1.064-1.649" transform="translate(-28.275 -47.372)" fill="#c9d6f7"/><path d="M85.421,76.437V81.7a.558.558,0,0,0,.558.557H99.53a.556.556,0,0,0,.556-.557V76.437a.556.556,0,0,0-.556-.556H85.979a.558.558,0,0,0-.558.556" transform="translate(-48.596 -43.169)" fill="#ffab31"/><path d="M85.421,76.437V81.7a.558.558,0,0,0,.558.557H99.53a.556.556,0,0,0,.556-.557V80.054c-2.011-.2-5.312-.542-8.494-.987-5.057-.708-5.613-3.186-5.613-3.186a.558.558,0,0,0-.558.556" transform="translate(-48.596 -43.169)" fill="#ff8131"/><path d="M107.853,140.254s-2.4-2.239-6.488,1.325-7.027,5.415-10.426,3.514c0,0,.461,5.184,7.546,4.781s9.368-9.62,9.368-9.62" transform="translate(-51.735 -79.396)" fill="#68b8d4"/><path d="M60.428,140.166,49.735,163.758a1.2,1.2,0,0,0,1.094,1.7H93.947a1.2,1.2,0,0,0,1.094-1.7L84.348,140.166s-2.686,6.758-8.561,5.7c-5.026-.9-6.106-8.928-15.359-5.7" transform="translate(-28.231 -79.308)" fill="#7edeed"/><path d="M73.7,159.789a2.839,2.839,0,1,0,2.839-2.839,2.839,2.839,0,0,0-2.839,2.839" transform="translate(-41.93 -89.289)" fill="#68b8d4"/><path d="M126.795,181.784a2.839,2.839,0,1,0,2.839-2.839,2.839,2.839,0,0,0-2.839,2.839" transform="translate(-72.134 -101.802)" fill="#68b8d4"/><path d="M83.5,187.3a1.766,1.766,0,1,0,1.767-1.767A1.767,1.767,0,0,0,83.5,187.3" transform="translate(-47.501 -105.549)" fill="#68b8d4"/><path d="M125.185,157.107a1.766,1.766,0,1,0,1.766-1.767,1.767,1.767,0,0,0-1.766,1.767" transform="translate(-71.218 -88.373)" fill="#68b8d4"/><g transform="translate(44.157 45.627)" opacity="0.8" style="mix-blend-mode:screen;isolation:isolate"><g clip-path="url(#a)"><path d="M106.2,105.839l17.007,38.294H102.43s12.227-4.389,11.318-10.674-7.543-27.62-7.543-27.62" transform="translate(-102.43 -105.839)" fill="#7edeed"/></g></g><path d="M98.332,170.907a1.766,1.766,0,1,0,1.767-1.766,1.767,1.767,0,0,0-1.767,1.766" transform="translate(-55.941 -96.225)" fill="#68b8d4"/><path d="M87.508,63.524l12.865,2.189V62.6H87.508Z" transform="translate(-49.783 -35.614)" fill="#c9d6f7"/><path d="M82.976,57.509H98.015a1.524,1.524,0,0,0,1.524-1.524v-.811a1.524,1.524,0,0,0-1.524-1.524H82.976a1.524,1.524,0,0,0-1.524,1.524v.811a1.524,1.524,0,0,0,1.524,1.524" transform="translate(-46.338 -30.522)" fill="#fff"/><path d="M104.179,5.54A5.54,5.54,0,1,0,109.719,0a5.54,5.54,0,0,0-5.54,5.54" transform="translate(-59.268 0)" fill="#7edeed"/><path d="M82.4,31.91a3.625,3.625,0,1,0,3.625-3.625A3.625,3.625,0,0,0,82.4,31.91" transform="translate(-46.876 -16.091)" fill="#7edeed"/><path d="M77.128,4.316A2.755,2.755,0,1,0,79.884,1.56a2.756,2.756,0,0,0-2.756,2.756" transform="translate(-43.878 -0.887)" fill="#7edeed"/></svg>