<svg xmlns="http://www.w3.org/2000/svg" xmlns:xlink="http://www.w3.org/1999/xlink" width="1329.15" height="2887.824" viewBox="0 0 1329.15 2887.824">
  <defs>
    <linearGradient id="linear-gradient" x1="0.556" y1="0.834" x2="0.606" y2="0.069" gradientUnits="objectBoundingBox">
      <stop offset="0" stop-color="#af4c4e"/>
      <stop offset="1" stop-color="#652425"/>
    </linearGradient>
  </defs>
  <path id="Unión_35" data-name="Unión 35" d="M-5839.548,14575.631c-27.772-22.512-53.827-47.012-83.883-66.914-59.6-39.444-125.686-46.238-195.14-20.8q-36.261,13.276-71.566,28.5c-43.56,18.83-88.792,30.023-137.993,27.516-30.8-1.566-57.989-9.891-81.694-27.358-35.481-26.146-60.185-60.017-88.137-91.614-14.81-16.739-29.935-33.409-46.532-48.786-34.138-31.627-75.611-46.107-126.535-42.165-54.783,4.238-100.546,20.33-133.615,60.552-27.6,33.563-55.555,67.056-85.98,98.653-49.252,51.147-113.562,68.355-187.939,55.159-26.63-4.722-52.319-13.448-78.437-20.345l.127-1385.292-.127-1385.293c26.117-6.9,51.807-15.622,78.437-20.345,74.377-13.2,138.688,4.012,187.939,55.156,30.426,31.6,58.384,65.091,85.98,98.653,33.069,40.222,78.832,56.313,133.615,60.555,50.924,3.939,92.4-10.542,126.535-42.168,16.6-15.374,31.722-32.044,46.532-48.787,27.952-31.594,52.656-65.468,88.137-91.61,23.706-17.472,50.9-25.8,81.694-27.362,49.2-2.5,94.433,8.687,137.993,27.52q35.228,15.226,71.566,28.5c69.454,25.437,135.543,18.643,195.14-20.807,30.056-19.9,56.111-44.4,83.883-66.91,3.708-3,6.849-6.545,10.25-9.835v203.749h.3l.029,299.8.07,689.929h.051l-.025,250.233.025,248.268h-.05l-.1,989.729h-.3v203.753C-5832.7,14582.176-5835.84,14578.636-5839.548,14575.631Z" transform="translate(7157.499 -11698.822)" stroke="rgba(0,0,0,0)" stroke-miterlimit="10" stroke-width="1" opacity="0.043" fill="url(#linear-gradient)"/>
</svg>
