<svg xmlns="http://www.w3.org/2000/svg" xmlns:xlink="http://www.w3.org/1999/xlink" width="295" height="365.242" viewBox="0 0 295 365.242">
  <defs>
    <clipPath id="clip-path">
      <rect id="Rectángulo_45473" data-name="Rectángulo 45473" width="295" height="365" rx="11" fill="#31313c"/>
    </clipPath>
    <clipPath id="clip-path-2">
      <rect id="Rectángulo_45472" data-name="Rectángulo 45472" width="26.368" height="29.12" fill="#31313c"/>
    </clipPath>
    <clipPath id="clip-path-3">
      <rect id="Rectángulo_46781" data-name="Rectángulo 46781" width="70.962" height="70.85" transform="translate(0 0)" fill="#31313c"/>
    </clipPath>
  </defs>
  <g id="Grupo_175525" data-name="Grupo 175525" transform="translate(-180 -1318)">
    <path id="Trazado_184427" data-name="Trazado 184427" d="M11,0H284a11,11,0,0,1,11,11V354a11,11,0,0,1-11,11H11A11,11,0,0,1,0,354V11A11,11,0,0,1,11,0Z" transform="translate(180 1318)" fill="#fed5c3"/>
    <g id="Grupo_80257" data-name="Grupo 80257" transform="translate(180 1318)">
      <g id="Grupo_78301" data-name="Grupo 78301">
        <rect id="Rectángulo_34812" data-name="Rectángulo 34812" width="295" height="365.242" rx="11" fill="none"/>
      </g>
    </g>
    <g id="Enmascarar_grupo_285" data-name="Enmascarar grupo 285" transform="translate(180 1318)" clip-path="url(#clip-path)">
      <g id="Grupo_175524" data-name="Grupo 175524" transform="translate(-16.978 2.514)">
        <path id="Trazado_184424" data-name="Trazado 184424" d="M29.045,58.09A29.045,29.045,0,1,0,0,29.045,29.045,29.045,0,0,0,29.045,58.09Z" transform="translate(267.42 -13.588)" fill="#f37577" opacity="0.444" style="mix-blend-mode: multiply;isolation: isolate"/>
        <path id="Trazado_184425" data-name="Trazado 184425" d="M5.457,12.053a5.763,5.763,0,0,0,5.457-6.027A5.763,5.763,0,0,0,5.457,0,5.763,5.763,0,0,0,0,6.027,5.763,5.763,0,0,0,5.457,12.053Z" transform="translate(38.538 9.429)" fill="#31313c" opacity="0.444" style="mix-blend-mode: multiply;isolation: isolate"/>
        <g id="Grupo_175523" data-name="Grupo 175523" transform="translate(275.815 5.246)" clip-path="url(#clip-path-2)">
          <path id="Trazado_184426" data-name="Trazado 184426" d="M.354,15c9.484,1.241,11.308,3.256,12.432,13.73a.4.4,0,0,0,.8,0C14.705,18.255,16.53,16.24,26.014,15a.45.45,0,0,0,0-.878C16.53,12.879,14.705,10.865,13.582.39a.4.4,0,0,0-.8,0C11.662,10.865,9.838,12.879.354,14.121a.45.45,0,0,0,0,.878" transform="translate(0.001 0)" fill="#31313c"/>
        </g>
        <g id="Grupo_178712" data-name="Grupo 178712" transform="translate(-10.022 318.986)">
          <g id="Grupo_178713" data-name="Grupo 178713" clip-path="url(#clip-path-3)">
            <path id="Trazado_187454" data-name="Trazado 187454" d="M49.848,70.85a8.267,8.267,0,0,1-2.64-.471c-7.09-2.386-16.693-13.96-23.9-28.8C13.828,22.051,11.737,4.049,18.55.593a6.578,6.578,0,0,1,5.2-.122c7.089,2.386,16.693,13.961,23.9,28.8C57.135,48.8,59.225,66.8,52.412,70.257a5.585,5.585,0,0,1-2.564.593M21.12,2a3.63,3.63,0,0,0-1.666.375c-5.02,2.546-3.946,18.554,5.654,38.327,6.877,14.164,16.227,25.587,22.738,27.779a4.677,4.677,0,0,0,3.662-.011c5.02-2.545,3.946-18.554-5.655-38.327C38.976,15.982,29.625,4.558,23.114,2.367A6.276,6.276,0,0,0,21.12,2" fill="#31313c"/>
            <path id="Trazado_187455" data-name="Trazado 187455" d="M13.223,56.59a19.135,19.135,0,0,1-6.04-.847A7.417,7.417,0,0,1,2.6,52.08c-3.5-7.2,8.2-20.165,26.622-29.509,13.75-6.973,27.317-9.9,34.557-7.465a7.413,7.413,0,0,1,4.586,3.663c3.5,7.2-8.2,20.165-26.622,29.51C31.207,53.62,20.781,56.59,13.223,56.59M57.779,16.261c-7.2,0-17.48,2.935-27.654,8.094C11.517,33.79,1.8,45.857,4.4,51.206a5.514,5.514,0,0,0,3.424,2.642c6.655,2.238,19.922-.714,33.016-7.354,18.606-9.435,28.324-21.5,25.727-26.852A5.509,5.509,0,0,0,63.139,17a17.023,17.023,0,0,0-5.36-.741" fill="#31313c"/>
            <path id="Trazado_187456" data-name="Trazado 187456" d="M56.972,54.146c-7.107,0-16.215-1.813-25.7-5.281C11.558,41.655-2.066,30.118.258,22.6a6.9,6.9,0,0,1,3.817-4.088c6.734-3.337,20.711-1.975,35.614,3.475C59.4,29.195,73.028,40.732,70.7,48.252a6.906,6.906,0,0,1-3.818,4.088,22.869,22.869,0,0,1-9.914,1.806M13.921,18.71A20.8,20.8,0,0,0,4.963,20.3,5.005,5.005,0,0,0,2.168,23.19c-1.73,5.6,9.828,16.5,29.793,23.8C46.15,52.174,59.828,53.606,66,50.548a5.01,5.01,0,0,0,2.8-2.887c1.73-5.6-9.828-16.5-29.793-23.8C29.787,20.5,20.788,18.71,13.921,18.71" fill="#31313c"/>
            <path id="Trazado_187457" data-name="Trazado 187457" d="M35.859,40.4a5.677,5.677,0,1,1,.938-.077,5.716,5.716,0,0,1-.938.077m.021-9.329a3.772,3.772,0,0,0-.606.05,3.651,3.651,0,1,0,.606-.05" fill="#31313c"/>
          </g>
        </g>
      </g>
    </g>
  </g>
</svg>
