<svg xmlns="http://www.w3.org/2000/svg" width="256" height="208" viewBox="0 0 256 208"><g transform="translate(-1136 -990)"><g transform="translate(0 -15)"><path d="M10,0H246a10,10,0,0,1,10,10V198a10,10,0,0,1-10,10H10A10,10,0,0,1,0,198V10A10,10,0,0,1,10,0Z" transform="translate(1136 1005)" fill="#f6f6f6"/><g transform="translate(0 1)"><g transform="translate(1168.773 1120.866)"><circle cx="29" cy="29" r="29" transform="translate(0.227 12.134)" fill="#afafaf"/><circle cx="29" cy="29" r="29" transform="translate(120.227 12.134)" fill="#1be03a"/><text transform="translate(27.227 48.133)" fill="#12263f" font-size="20" font-family="Roboto-Regular, Roboto"><tspan x="-18.237" y="0">Na+</tspan></text><text transform="translate(149.227 48.133)" fill="#12263f" font-size="21" font-family="Roboto-Regular, Roboto"><tspan x="-12.279" y="0">Cl-</tspan></text><g transform="translate(142.379)"><circle cx="3.5" cy="3.5" r="3.5" transform="translate(-0.152 0.134)" fill="red"/><circle cx="3.5" cy="3.5" r="3.5" transform="translate(8.848 0.134)" fill="red"/></g><g transform="translate(183.225 50.182) rotate(-90)"><circle cx="3.5" cy="3.5" r="3.5" transform="translate(0.049 0.002)" fill="red"/><circle cx="3.5" cy="3.5" r="3.5" transform="translate(9.049 0.002)" fill="red"/></g><g transform="translate(108.535 50.182) rotate(-90)"><circle cx="3.5" cy="3.5" r="3.5" transform="translate(0.049 -0.308)" fill="#f9a829"/><circle cx="3.5" cy="3.5" r="3.5" transform="translate(9.049 -0.308)" fill="red"/></g><g transform="translate(142.379 72.356)"><circle cx="3.5" cy="3.5" r="3.5" transform="translate(-0.152 -0.222)" fill="red"/><circle cx="3.5" cy="3.5" r="3.5" transform="translate(8.848 -0.222)" fill="red"/></g></g><g transform="translate(1168.773 1017)"><path d="M29,0A29.253,29.253,0,0,1,58,29.5,29.253,29.253,0,0,1,29,59,29.253,29.253,0,0,1,0,29.5,29.253,29.253,0,0,1,29,0Z" transform="translate(0.227 15)" fill="#afafaf"/><path d="M29,0A29,29,0,1,1,0,29,29,29,0,0,1,29,0Z" transform="translate(120.227 12)" fill="#24e03a"/><text transform="translate(27.227 52)" fill="#12263f" font-size="20" font-family="Roboto-Regular, Roboto"><tspan x="-18.237" y="0">Na+</tspan></text><text transform="translate(149.227 48)" fill="#12263f" font-size="21" font-family="Roboto-Regular, Roboto"><tspan x="-12.279" y="0">Cl-</tspan></text><g transform="translate(142.379)"><circle cx="3.5" cy="3.5" r="3.5" transform="translate(-0.152)" fill="red"/><circle cx="3.5" cy="3.5" r="3.5" transform="translate(8.848)" fill="red"/></g><g transform="translate(183.225 50.182) rotate(-90)"><circle cx="3.5" cy="3.5" r="3.5" transform="translate(0.183 0.002)" fill="red"/><circle cx="3.5" cy="3.5" r="3.5" transform="translate(9.183 0.002)" fill="red"/></g><circle cx="3.5" cy="3.5" r="3.5" transform="translate(62.227 48) rotate(-90)" fill="#f9a829"/><circle cx="3.5" cy="3.5" r="3.5" transform="translate(108.227 41) rotate(-90)" fill="red"/><g transform="translate(142.379 72.356)"><circle cx="3.5" cy="3.5" r="3.5" transform="translate(-0.152 -0.356)" fill="red"/><circle cx="3.5" cy="3.5" r="3.5" transform="translate(8.848 -0.356)" fill="red"/></g><path d="M22.276,9.333H0V4.667H22.276V0L34,7,22.276,14Z" transform="translate(74.227 37)" fill="#12263f"/></g></g></g></g></svg>