<svg xmlns="http://www.w3.org/2000/svg" width="150" height="70.5" viewBox="0 0 150 70.5"><g transform="translate(-410 -1737)"><g transform="translate(-8802.756 11852.919)"><rect width="80" height="8" transform="translate(9212.756 -10074.919)" fill="#f9a829"/><path d="M.25.25v7.5h79.5V.25H.25M0,0H80V8H0Z" transform="translate(9212.756 -10074.919)" fill="#707070"/><rect width="122" height="7" transform="translate(9240.756 -10059.919)" fill="#f9a829"/><path d="M.25.25v6.5h121.5V.25H.25M0,0H122V7H0Z" transform="translate(9240.756 -10059.919)" fill="#707070"/><rect width="122" height="7" transform="translate(9240.756 -10052.919)" fill="#f9a829"/><path d="M.25.25v6.5h121.5V.25H.25M0,0H122V7H0Z" transform="translate(9240.756 -10052.919)" fill="#707070"/><rect width="142" height="7" transform="translate(9212.756 -10081.919)" fill="#f9a829"/><path d="M.25.25v6.5h141.5V.25H.25M0,0H142V7H0Z" transform="translate(9212.756 -10081.919)" fill="#707070"/><rect width="142" height="7" transform="translate(9212.756 -10088.919)" fill="#f9a829"/><path d="M.25.25v6.5h141.5V.25H.25M0,0H142V7H0Z" transform="translate(9212.756 -10088.919)" fill="#707070"/><rect width="123" height="7" transform="translate(9212.756 -10095.919)" fill="#f9a829"/><path d="M.25.25v6.5h122.5V.25H.25M0,0H123V7H0Z" transform="translate(9212.756 -10095.919)" fill="#707070"/><rect width="18" height="7" transform="translate(9212.756 -10102.919)" fill="#f9a829"/><path d="M.25.25v6.5h17.5V.25H.25M0,0H18V7H0Z" transform="translate(9212.756 -10102.919)" fill="#707070"/><rect width="9" height="7" transform="translate(9318.756 -10102.919)" fill="#f9a829"/><path d="M.25.25v6.5h8.5V.25H.25M0,0H9V7H0Z" transform="translate(9318.756 -10102.919)" fill="#707070"/><rect width="9" height="6" transform="translate(9212.756 -10115.919)" fill="#f9a829"/><path d="M.25.25v5.5h8.5V.25H.25M0,0H9V6H0Z" transform="translate(9212.756 -10115.919)" fill="#707070"/><rect width="18" height="7" transform="translate(9212.756 -10109.919)" fill="#f9a829"/><path d="M.25.25v6.5h17.5V.25H.25M0,0H18V7H0Z" transform="translate(9212.756 -10109.919)" fill="#707070"/></g><line y2="48" transform="translate(418.5 1737.5)" fill="none" stroke="#707070" stroke-width="0.6"/><path d="M0,33.7V48" transform="translate(438.5 1759.5)" fill="none" stroke="#707070" stroke-width="0.6"/><line y2="28.471" transform="translate(436.5 1757.029)" fill="none" stroke="#707070" stroke-width="0.6"/><line y2="13.768" transform="translate(456.5 1793.203)" fill="none" stroke="#707070" stroke-width="0.6"/><line y2="13.768" transform="translate(498.5 1793.203)" fill="none" stroke="#707070" stroke-width="0.6"/><line y2="28.471" transform="translate(454.5 1757.029)" fill="none" stroke="#707070" stroke-width="0.6"/><line y2="13.768" transform="translate(473.5 1793.203)" fill="none" stroke="#707070" stroke-width="0.6"/><line y2="13.768" transform="translate(515.5 1793.203)" fill="none" stroke="#707070" stroke-width="0.6"/><line y2="28.471" transform="translate(471.5 1757.029)" fill="none" stroke="#707070" stroke-width="0.6"/><line y2="13.768" transform="translate(491.5 1793.203)" fill="none" stroke="#707070" stroke-width="0.6"/><line y2="13.768" transform="translate(533.5 1793.203)" fill="none" stroke="#707070" stroke-width="0.6"/><line y2="13.768" transform="translate(552.5 1793.203)" fill="none" stroke="#707070" stroke-width="0.6"/><line y2="28.471" transform="translate(489.5 1757.029)" fill="none" stroke="#707070" stroke-width="0.6"/><line y2="20.984" transform="translate(507.5 1757.029)" fill="none" stroke="#707070" stroke-width="0.6"/><line y2="20.984" transform="translate(524.5 1757.029)" fill="none" stroke="#707070" stroke-width="0.6"/><line y2="14.014" transform="translate(542.5 1764)" fill="none" stroke="#707070" stroke-width="0.6"/><line y2="43" transform="translate(427.5 1742.5)" fill="none" stroke="#707070" stroke-width="0.6"/><line y2="14" transform="translate(447.5 1793.5)" fill="none" stroke="#707070" stroke-width="0.6"/><line y2="28.471" transform="translate(445.5 1757.029)" fill="none" stroke="#707070" stroke-width="0.6"/><line y2="13.768" transform="translate(465.5 1793.203)" fill="none" stroke="#707070" stroke-width="0.6"/><line y2="13.768" transform="translate(507.5 1793.203)" fill="none" stroke="#707070" stroke-width="0.6"/><line y2="28.471" transform="translate(462.5 1757.029)" fill="none" stroke="#707070" stroke-width="0.6"/><line y2="13.768" transform="translate(482.5 1793.203)" fill="none" stroke="#707070" stroke-width="0.6"/><line y2="13.768" transform="translate(524.5 1793.203)" fill="none" stroke="#707070" stroke-width="0.6"/><line y2="13.768" transform="translate(543.5 1793.203)" fill="none" stroke="#707070" stroke-width="0.6"/><line y2="28.471" transform="translate(480.5 1757.029)" fill="none" stroke="#707070" stroke-width="0.6"/><line y2="20.984" transform="translate(498.5 1757.029)" fill="none" stroke="#707070" stroke-width="0.6"/><line y2="20.984" transform="translate(516.5 1757.029)" fill="none" stroke="#707070" stroke-width="0.6"/><line y2="14.014" transform="translate(533.5 1764)" fill="none" stroke="#707070" stroke-width="0.6"/></g></svg>