<svg xmlns="http://www.w3.org/2000/svg" xmlns:xlink="http://www.w3.org/1999/xlink" width="105" height="105" viewBox="0 0 105 105"><defs><clipPath id="a"><rect width="69.328" height="69.298" fill="#31313c"/></clipPath></defs><g transform="translate(-1164 -2924)"><circle cx="52.5" cy="52.5" r="52.5" transform="translate(1164 2924)" fill="#fed5c3"/><g transform="translate(1182 2942)"><g clip-path="url(#a)"><path d="M66.956,87.742h2.273V90h-36.9V93.15a3.488,3.488,0,0,1-3.142,3.8,3.448,3.448,0,0,1-.674,0H3.853A3.5,3.5,0,0,1,.02,93.094q0-12.981-.01-25.961a4.09,4.09,0,0,1,1.27-3.092Q5,60.368,8.675,56.648A4.013,4.013,0,0,1,11.7,55.4c5.456.021,10.916.1,16.37-.027a3.792,3.792,0,0,1,4.224,4.6H30.058c-.01-.221-.03-.452-.033-.684-.012-1.217-.366-1.568-1.607-1.569H11.562v5.235a3.537,3.537,0,0,1-3.982,4q-2.524,0-5.048.012a.9.9,0,0,0-.2.079v25.91c0,1.374.322,1.694,1.7,1.694h24.3c1.373,0,1.7-.322,1.7-1.7V90.1c-.7-.1-1.274-.245-1.724.6a3.288,3.288,0,0,1-3.863,1.488,3.452,3.452,0,0,1,.105-6.659,3.363,3.363,0,0,1,3.828,1.595,1,1,0,0,0,1.054.6c2.473-.03,4.947-.014,7.53-.014V81.077c0-1.038.4-1.438,1.44-1.441H43.88V75.068c0-2.282.074-2.356,2.331-2.357q2.2,0,4.4-.014c.042,0,.082-.034.2-.082V67.472c0-1.367.321-1.684,1.705-1.684h5.218v-.721c0-1.634-.009-3.269,0-4.9a1.154,1.154,0,0,1,1.292-1.295q3.313-.019,6.635,0c.921,0,1.3.46,1.3,1.506V87.742ZM60.084,61.216V87.7H64.6V61.216Zm-6.927,6.909V87.679h4.518V68.122Zm-2.383,6.961H46.246v12.6h4.529ZM43.847,87.7V82H39.315v5.7ZM9.258,59.576,4.2,64.636c1.316,0,2.676.038,4.031-.017a1.038,1.038,0,0,0,1.019-1.056c0-.018,0-.037,0-.055.016-1.316,0-2.633,0-3.932ZM25.432,87.738A1.151,1.151,0,1,0,26.567,88.9v-.02a1.162,1.162,0,0,0-1.15-1.152Z" transform="translate(0 -27.672)" fill="#31313c"/><path d="M68.011,28.332,63.443,32.91c-.764.765-1.521,1.539-2.3,2.294-2.229,2.167-1.181,1.718-4.3,1.764-1.2.018-2.41,0-3.682,0V57.7H50.848V36.979c-.807,0-1.568-.035-2.321.025-.172.013-.348.336-.471.545a3.464,3.464,0,1,1-4.274-4.942,3.4,3.4,0,0,1,4.277,1.53.851.851,0,0,0,.87.541c2.98-.024,5.962,0,8.942-.024a1.278,1.278,0,0,0,.824-.286c2.4-2.361,4.771-4.748,7.149-7.129A1.758,1.758,0,0,0,66,27.026,14.96,14.96,0,0,1,60.07,15.067,14.617,14.617,0,0,1,63.884,4.99a15.048,15.048,0,1,1,4.124,23.342ZM73.9,2.49c-4.578-.131-9.655,4.077-11.073,9.124a12.747,12.747,0,0,0,5.96,14.466,12.43,12.43,0,0,0,13.735-.9c-2.649-2.98-5.286-5.971-7.955-8.933a2.483,2.483,0,0,1-.681-1.807c.027-3.724.012-7.447.012-11.172Zm2.336,11.355H87.649A12.458,12.458,0,0,0,76.233,2.5ZM84.3,23.7c1.979-2.071,3.483-5.538,3.283-7.441h-9.9ZM46.2,35.812a1.149,1.149,0,1,0-1.146,1.152h.015A1.162,1.162,0,0,0,46.2,35.818Z" transform="translate(-20.796 0)" fill="#31313c"/><path d="M25.992,21.191c1.758-1.506,3.48-2.962,5.169-4.46a.985.985,0,0,0,.131-.8,3.448,3.448,0,1,1,6.3,1,3.342,3.342,0,0,1-3.8,1.505,1.328,1.328,0,0,0-1.456.333c-1.763,1.56-3.572,3.067-5.345,4.617a2.258,2.258,0,0,0-.569.866,3.413,3.413,0,0,1-2.982,2.379,3.261,3.261,0,0,1-3.347-1.788.8.8,0,0,0-.821-.5q-1.946.039-3.892,0a.739.739,0,0,0-.768.466,3.337,3.337,0,0,1-4.03,1.682.789.789,0,0,0-.929.252c-.836.863-1.679,1.719-2.551,2.545a.957.957,0,0,0-.291,1.118,3.19,3.19,0,0,1-1.15,3.542,3.226,3.226,0,0,1-3.711.407A3.3,3.3,0,0,1,.041,31.138a3.412,3.412,0,0,1,4.334-3.177.958.958,0,0,0,1.114-.3c.846-.885,1.743-1.725,2.577-2.62a.98.98,0,0,0,.189-.785,3.479,3.479,0,0,1,6.408-2.638.978.978,0,0,0,.7.409c1.321.039,2.643.031,3.964,0a.865.865,0,0,0,.629-.286c1.572-2.463,3.907-2.7,6.037-.549M35.809,15.1a1.149,1.149,0,1,0-1.132,1.166h.017A1.156,1.156,0,0,0,35.809,15.1ZM10.43,23.14a1.149,1.149,0,1,0,1.2-1.093h-.016a1.161,1.161,0,0,0-1.185,1.091Zm12.7-1.093a1.149,1.149,0,1,0,1.135,1.162v-.017a1.157,1.157,0,0,0-1.135-1.14ZM3.495,30.125A1.149,1.149,0,1,0,4.65,31.268V31.25a1.157,1.157,0,0,0-1.155-1.126Z" transform="translate(-0.017 -5.838)" fill="#31313c"/><rect width="13.757" height="2.22" transform="translate(12.775 47.412)" fill="#31313c"/><rect width="11.445" height="2.218" transform="translate(5.823 53.17)" fill="#31313c"/><rect width="6.843" height="2.217" transform="translate(19.686 53.172)" fill="#31313c"/><rect width="4.529" height="2.229" transform="translate(5.841 47.411)" fill="#31313c"/><rect width="4.518" height="2.246" transform="translate(5.848 58.929)" fill="#31313c"/></g></g></g></svg>