<svg xmlns="http://www.w3.org/2000/svg" width="92" height="92" viewBox="0 0 92 92">
  <g id="Grupo_177984" data-name="Grupo 177984" transform="translate(-1469 9497)">
    <circle id="Elipse_4905" data-name="Elipse 4905" cx="46" cy="46" r="46" transform="translate(1469 -9497)" fill="#fff"/>
    <g id="Grupo_177983" data-name="Grupo 177983" transform="translate(735.031 -9543.428)">
      <g id="Grupo_14066" data-name="Grupo 14066" transform="translate(764.969 59.428)">
        <path id="Trazado_28239" data-name="Trazado 28239" d="M793.2,59.889c-3.931-1.761-8.16,1.763-8.933,6.546s.129,8.348-1.093,12.743-3.385,4.941-5.794,10.568-1.554,7.867-1.416,9.05-1.2,5.277-3,7.062-6.744,5.295-7.838,9.613,3.859,8.526,7.9,2.493,3.847-8.927,5.547-13.913,2.011-1.679,5.157-8.268,3.148-12,3.439-14.665.565-4.178,2.2-6.116,6.245-6.734,6.321-10.489S793.2,59.889,793.2,59.889Z" transform="translate(-764.969 -59.428)" fill="#caecfc"/>
        <path id="Trazado_28240" data-name="Trazado 28240" d="M885.749,64.227c-2.735-1.323-5.4.912-6.521,3.291a19.551,19.551,0,0,0-1.444,5.4,24.077,24.077,0,0,0-.231,6.067c.016.15.234.059.241-.057.2-3.467.338-7.163,1.6-10.446a6.4,6.4,0,0,1,2.952-3.594,3.537,3.537,0,0,1,3.919.42c1.251,1.172.987,3.325.617,4.826a10.626,10.626,0,0,1-2,3.98c-1.494,1.923-3.242,3.672-3.894,6.09-.041.153.173.175.213.041.963-3.208,4.166-5.07,5.567-8.073C887.876,69.8,888.675,65.642,885.749,64.227Z" transform="translate(-858.06 -63.073)" fill="#71c7e2"/>
        <path id="Trazado_28241" data-name="Trazado 28241" d="M888.36,77.131c-2.452-.875-3.58,2.565-4.174,4.23a22.379,22.379,0,0,0-1.505,9.287c.011.122.187.066.2-.03a46.273,46.273,0,0,1,1.276-7.533c.456-1.552,1.65-6.507,4.176-5.318,3.095,1.456.056,5.35-1,7.123a33.527,33.527,0,0,0-2.962,6.585c-.1.289.284.451.383.157a31.325,31.325,0,0,1,1.962-4.612c.779-1.48,1.776-2.818,2.585-4.275C890.274,80.993,890.775,77.993,888.36,77.131Z" transform="translate(-862.336 -73.963)" fill="#71c7e2"/>
        <path id="Trazado_28242" data-name="Trazado 28242" d="M890.794,92.884c-1.481-.634-2.408,2.944-2.718,3.806a18.606,18.606,0,0,0-1.386,7.324c.007.087.128.062.144-.008.417-1.816.588-3.659,1.115-5.458.245-.836.523-1.661.844-2.471.213-.538.44-1.07.691-1.591.084-.173.856-1.785,1.239-.51a7.081,7.081,0,0,1-.529,1.353c-.151.384-.3.769-.446,1.154-.354.919-.711,1.836-1.056,2.758-.628,1.678-1.375,3.332-1.912,5.041a.168.168,0,0,0,.312.124c1.07-2.214,1.87-4.6,2.779-6.891a23.2,23.2,0,0,0,1.325-3.421C891.3,93.64,891.291,93.1,890.794,92.884Z" transform="translate(-865.681 -87.054)" fill="#71c7e2"/>
        <path id="Trazado_28243" data-name="Trazado 28243" d="M835.827,196.638a24.09,24.09,0,0,0-4.791,7.91c-.966,2.46-2.026,5.568-1.039,8.182.048.128.237,0,.218-.1-1-5.73,2.739-11.367,5.805-15.86C836.11,196.635,835.926,196.536,835.827,196.638Z" transform="translate(-818.459 -172.947)" fill="#71c7e2"/>
        <path id="Trazado_28244" data-name="Trazado 28244" d="M843.184,200.255c.19-.28-.131-.7-.378-.386a26.583,26.583,0,0,0-4,7.512,27.974,27.974,0,0,0-1.121,4.093,13.183,13.183,0,0,0-.346,4.543c0,.025.038.014.043,0,.317-1.227.373-2.533.61-3.781a30.286,30.286,0,0,1,1.109-4.2A32.838,32.838,0,0,1,843.184,200.255Z" transform="translate(-824.789 -175.563)" fill="#71c7e2"/>
        <path id="Trazado_28245" data-name="Trazado 28245" d="M847.7,202.539a14.423,14.423,0,0,0-1.885,3.675q-.866,2-1.568,4.066a40.091,40.091,0,0,0-1.981,8.568c-.009.081.121.059.135-.005.645-2.785,1.337-5.544,2.256-8.253q.71-2.092,1.6-4.118a33.434,33.434,0,0,0,1.71-3.766C848.016,202.543,847.83,202.391,847.7,202.539Z" transform="translate(-828.941 -177.816)" fill="#71c7e2"/>
        <path id="Trazado_28246" data-name="Trazado 28246" d="M851.546,202.221c-1.061,2.686-1.981,5.437-2.951,8.158-.956,2.682-2.066,5.378-2.761,8.141-.02.078.093.089.122.028,1.207-2.519,2.072-5.235,3.039-7.852,1.018-2.756,2.09-5.5,3.016-8.291A.25.25,0,0,0,851.546,202.221Z" transform="translate(-831.891 -177.471)" fill="#71c7e2"/>
        <path id="Trazado_28247" data-name="Trazado 28247" d="M855.78,202a.274.274,0,1,0-.54-.073,40.966,40.966,0,0,1-2.171,8.528c-.5,1.313-1.077,2.605-1.705,3.863-.638,1.278-1.461,2.467-2.059,3.761-.044.1.088.16.153.09a23.064,23.064,0,0,0,4.058-7.3A35.637,35.637,0,0,0,855.78,202Z" transform="translate(-834.758 -177.136)" fill="#71c7e2"/>
        <path id="Trazado_28248" data-name="Trazado 28248" d="M781.688,331.237c.021-.242-.29-.36-.381-.1-.389,1.093-.584,2.253-.943,3.36a28.731,28.731,0,0,1-1.36,3.383,23.769,23.769,0,0,1-2.191,3.716c-.651.908-1.481,1.982-2.7,2.042-1.63.081-2.53-1.677-2.413-3.09a8.163,8.163,0,0,1,1.809-3.921,60.271,60.271,0,0,1,5.3-6.28c.111-.118-.038-.3-.169-.192a31.563,31.563,0,0,0-6.143,7.1c-1.245,1.956-2.243,5.422.479,6.72,2.419,1.153,4.148-1.8,5.13-3.505a32.582,32.582,0,0,0,2.231-4.559A17.718,17.718,0,0,0,781.688,331.237Z" transform="translate(-770.161 -283.448)" fill="#71c7e2"/>
        <path id="Trazado_28249" data-name="Trazado 28249" d="M788.079,329.426c.064-.338-.366-.475-.456-.128a32.986,32.986,0,0,1-2.219,6.429c-.534,1.089-3.234,6.69-4.82,5.005-.879-.933.521-2.971,1-3.845.487-.89,1.019-1.755,1.578-2.6,1.057-1.6,2.388-2.988,3.457-4.575.032-.048-.032-.089-.073-.061-2.223,1.538-3.914,4.187-5.2,6.52-.638,1.156-2.662,4.367-.664,5.323,1.935.926,3.6-2.742,4.27-3.928A27.02,27.02,0,0,0,788.079,329.426Z" transform="translate(-777.26 -282.603)" fill="#71c7e2"/>
        <path id="Trazado_28250" data-name="Trazado 28250" d="M796.3,334.89c.042-.189-.169-.2-.276-.1a.161.161,0,0,0-.235.04,34.7,34.7,0,0,0-4.885,8.541.227.227,0,0,0,.366.257A20.6,20.6,0,0,0,796.3,334.89Zm-4.266,7.161c1.081-2.165,2.34-4.2,3.565-6.291a28.157,28.157,0,0,1-1.567,3.445A20.146,20.146,0,0,1,792.033,342.051Z" transform="translate(-786.415 -287.265)" fill="#71c7e2"/>
        <path id="Trazado_28251" data-name="Trazado 28251" d="M860.978,149.651l-2.787,8.567s1.573,2.514,5.681,2.1l1.911-9.451A6.374,6.374,0,0,1,860.978,149.651Z" transform="translate(-842.119 -134.096)" fill="#f4e3c6"/>
        <path id="Trazado_28252" data-name="Trazado 28252" d="M814.244,284.787l-2.923,7.577s1.15,2.06,4.639,2.1l3.12-7.545S815.537,286.553,814.244,284.787Z" transform="translate(-803.33 -245.934)" fill="#f4e3c6"/>
        <path id="Trazado_28253" data-name="Trazado 28253" d="M819.08,295.54l-3.12,7.545a5.809,5.809,0,0,1-4.639-2.1s2.27,2.161,3.391.439a41.056,41.056,0,0,0,2.662-6.22Z" transform="translate(-803.33 -254.552)" fill="#e0c7b1"/>
        <path id="Trazado_28254" data-name="Trazado 28254" d="M816.709,286.744l-2.76,7.153s1.3.767,2.388-1.219a42.319,42.319,0,0,0,2.122-4.844A12.242,12.242,0,0,1,816.709,286.744Z" transform="translate(-805.504 -247.553)" fill="#fff1dc"/>
        <path id="Trazado_28255" data-name="Trazado 28255" d="M865.782,156.707l-1.911,9.451a6.336,6.336,0,0,1-3.128-.282,5.443,5.443,0,0,1-2.553-1.818s1.762,2.207,3.188,1.037,2.857-8.344,2.857-8.344A3.563,3.563,0,0,0,865.782,156.707Z" transform="translate(-842.119 -139.936)" fill="#e0c7b1"/>
        <path id="Trazado_28256" data-name="Trazado 28256" d="M863.543,151.332s-2.783,7.912-2.805,8.217,1.175,1.337,1.978-.611,2.248-6.949,2.248-6.949A5.893,5.893,0,0,1,863.543,151.332Z" transform="translate(-844.226 -135.487)" fill="#fff1dc"/>
      </g>
      <g id="Grupo_14067" data-name="Grupo 14067" transform="translate(774.879 60.195)">
        <path id="Trazado_28257" data-name="Trazado 28257" d="M827.746,63.9c-4.3.314-6.347,5.422-4.76,10s4.073,7.288,5.081,11.737-.636,5.956-.089,12.052,2.363,7.663,3.045,8.64,1.45,5.213.705,7.642-3.427,7.86-2.341,12.18,7.441,5.676,8.14-1.553-.847-9.684-1.715-14.879.975-2.432.619-9.724-2.921-12.061-3.927-14.542-1.484-3.947-.959-6.43,2.3-8.89.59-12.232S827.746,63.9,827.746,63.9Z" transform="translate(-822.451 -63.875)" fill="#ffe6c5"/>
        <path id="Trazado_28258" data-name="Trazado 28258" d="M832.192,69.007c-3.035.132-4.318,3.362-4.18,5.99a19.552,19.552,0,0,0,1.289,5.436,24.089,24.089,0,0,0,2.674,5.451c.085.125.234-.059.185-.164-1.466-3.148-3.1-6.466-3.542-9.957a6.4,6.4,0,0,1,.895-4.564,3.536,3.536,0,0,1,3.65-1.489c1.657.438,2.446,2.46,2.832,3.956a10.621,10.621,0,0,1,.126,4.453c-.4,2.4-1.113,4.77-.54,7.208.036.154.235.072.207-.066-.674-3.281,1.263-6.439,1.072-9.748C836.707,72.9,835.438,68.865,832.192,69.007Z" transform="translate(-827.045 -68.119)" fill="#f4c892"/>
        <path id="Trazado_28259" data-name="Trazado 28259" d="M840.04,83.722c-2.573.393-1.935,3.956-1.669,5.7a22.377,22.377,0,0,0,3.079,8.89c.068.1.2-.031.16-.121a46.3,46.3,0,0,1-2.449-7.237c-.335-1.583-1.634-6.511,1.154-6.663,3.415-.186,2.586,4.684,2.5,6.743a33.547,33.547,0,0,0,.515,7.2c.053.3.464.262.412-.044a31.305,31.305,0,0,1-.459-4.99c-.016-1.672.227-3.323.248-4.99C843.557,86.214,842.574,83.335,840.04,83.722Z" transform="translate(-835.404 -80.271)" fill="#f4c892"/>
        <path id="Trazado_28260" data-name="Trazado 28260" d="M847.448,99.973c-1.6.144-.723,3.734-.587,4.64a18.605,18.605,0,0,0,2.253,7.1c.047.073.143-.006.124-.075-.494-1.8-1.218-3.5-1.606-5.334-.18-.852-.327-1.71-.429-2.576-.068-.574-.121-1.151-.146-1.729-.008-.192-.093-1.977.849-1.037a7.078,7.078,0,0,1,.176,1.442c.049.409.1.818.155,1.228.124.977.245,1.954.378,2.929.243,1.775.37,3.586.708,5.345a.168.168,0,0,0,.334-.039c-.108-2.457-.538-4.94-.821-7.385a23.188,23.188,0,0,0-.456-3.64C848.25,100.4,847.987,99.924,847.448,99.973Z" transform="translate(-842.352 -93.746)" fill="#f4c892"/>
        <path id="Trazado_28261" data-name="Trazado 28261" d="M858.243,212.019a24.09,24.09,0,0,0-.467,9.236c.317,2.624.857,5.863,2.965,7.7.1.089.21-.109.142-.195-3.6-4.571-2.98-11.306-2.411-16.716C858.49,211.882,858.281,211.882,858.243,212.019Z" transform="translate(-851.494 -186.395)" fill="#f4c892"/>
        <path id="Trazado_28262" data-name="Trazado 28262" d="M865.569,213c.035-.337-.448-.555-.516-.16a26.583,26.583,0,0,0,.045,8.508,27.98,27.98,0,0,0,.954,4.134,13.184,13.184,0,0,0,1.85,4.163c.016.02.04-.006.036-.025-.3-1.23-.873-2.407-1.256-3.618a30.276,30.276,0,0,1-1.014-4.22A32.848,32.848,0,0,1,865.569,213Z" transform="translate(-857.442 -186.982)" fill="#f4c892"/>
        <path id="Trazado_28263" data-name="Trazado 28263" d="M870.927,213.34a14.432,14.432,0,0,0,.084,4.129q.186,2.172.548,4.324a40.089,40.089,0,0,0,2.32,8.483c.031.075.134-.006.117-.068-.753-2.757-1.452-5.515-1.928-8.336q-.367-2.178-.546-4.383a33.484,33.484,0,0,0-.28-4.127C871.2,213.194,870.969,213.149,870.927,213.34Z" transform="translate(-862.462 -187.468)" fill="#f4c892"/>
        <path id="Trazado_28264" data-name="Trazado 28264" d="M876.178,210.3c.34,2.868.835,5.726,1.271,8.581.43,2.815.732,5.715,1.43,8.477.02.078.124.034.121-.033-.133-2.79-.658-5.591-1.048-8.355-.411-2.909-.77-5.836-1.277-8.73A.25.25,0,0,0,876.178,210.3Z" transform="translate(-866.913 -184.833)" fill="#f4c892"/>
        <path id="Trazado_28265" data-name="Trazado 28265" d="M880.916,207.438a.274.274,0,1,0-.51.192,40.964,40.964,0,0,1,2.133,8.537c.18,1.394.288,2.8.331,4.21.044,1.428-.117,2.865-.029,4.288.007.106.153.1.178.006a23.063,23.063,0,0,0,.11-8.353A35.636,35.636,0,0,0,880.916,207.438Z" transform="translate(-870.394 -182.517)" fill="#f4c892"/>
        <path id="Trazado_28266" data-name="Trazado 28266" d="M872.79,350.933c-.1-.223-.426-.179-.385.09.176,1.147.554,2.261.764,3.405a28.67,28.67,0,0,1,.407,3.623,23.766,23.766,0,0,1-.166,4.31c-.143,1.108-.364,2.447-1.408,3.078-1.4.844-3.023-.277-3.59-1.576a8.162,8.162,0,0,1-.266-4.31,60.244,60.244,0,0,1,1.686-8.042.128.128,0,0,0-.24-.089,31.555,31.555,0,0,0-2.043,9.16c-.168,2.312.6,5.837,3.609,5.688,2.676-.132,2.8-3.555,2.854-5.519a32.6,32.6,0,0,0-.2-5.071A17.719,17.719,0,0,0,872.79,350.933Z" transform="translate(-859.755 -301.324)" fill="#f4c892"/>
        <path id="Trazado_28267" data-name="Trazado 28267" d="M878.6,347.647c-.1-.328-.548-.244-.462.1a32.982,32.982,0,0,1,1.1,6.713c.046,1.211.326,7.423-1.87,6.693-1.217-.4-.951-2.863-.944-3.859.007-1.015.065-2.028.156-3.038.171-1.912.685-3.763.873-5.667.006-.058-.07-.064-.093-.019-1.228,2.408-1.46,5.543-1.486,8.206-.013,1.321-.273,5.107,1.94,5,2.142-.1,1.867-4.12,1.9-5.484A27.02,27.02,0,0,0,878.6,347.647Z" transform="translate(-866.648 -298.552)" fill="#f4c892"/>
        <path id="Trazado_28268" data-name="Trazado 28268" d="M884.638,354.8c-.052-.186-.243-.095-.289.044a.161.161,0,0,0-.187.147,34.709,34.709,0,0,0-.25,9.836.227.227,0,0,0,.444.053A20.591,20.591,0,0,0,884.638,354.8Zm-.359,8.327c-.075-2.418.067-4.808.155-7.229a28.173,28.173,0,0,1,.254,3.776A20.136,20.136,0,0,1,884.279,363.131Z" transform="translate(-873.128 -304.56)" fill="#f4c892"/>
        <path id="Trazado_28269" data-name="Trazado 28269" d="M846.83,161.056l1.609,8.864s2.577,1.467,6-.845l-2.8-9.226A6.373,6.373,0,0,1,846.83,161.056Z" transform="translate(-842.627 -143.302)" fill="#f4e3c6"/>
        <path id="Trazado_28270" data-name="Trazado 28270" d="M870.35,305.7l1.02,8.057s1.989,1.268,5.083-.347l-.832-8.122S872.326,306.637,870.35,305.7Z" transform="translate(-862.092 -263.662)" fill="#f4e3c6"/>
        <path id="Trazado_28271" data-name="Trazado 28271" d="M880.515,305.282l.832,8.122a5.81,5.81,0,0,1-5.083.347s3.023.826,3.194-1.222a41.065,41.065,0,0,0-.606-6.739Z" transform="translate(-866.987 -263.662)" fill="#e0c7b1"/>
        <path id="Trazado_28272" data-name="Trazado 28272" d="M872.761,308.6l.962,7.607s1.509.058,1.524-2.205a42.348,42.348,0,0,0-.429-5.271A12.225,12.225,0,0,1,872.761,308.6Z" transform="translate(-864.087 -266.41)" fill="#fff1dc"/>
        <path id="Trazado_28273" data-name="Trazado 28273" d="M859.36,159.848l2.8,9.226a6.333,6.333,0,0,1-2.887,1.235,5.444,5.444,0,0,1-3.11-.39s2.6,1.108,3.3-.6-1.442-8.7-1.442-8.7A3.562,3.562,0,0,0,859.36,159.848Z" transform="translate(-850.351 -143.302)" fill="#e0c7b1"/>
        <path id="Trazado_28274" data-name="Trazado 28274" d="M849.963,166.614s1.3,8.286,1.427,8.564,1.668.62,1.452-1.477-1.316-7.183-1.316-7.183A5.892,5.892,0,0,1,849.963,166.614Z" transform="translate(-845.22 -148.822)" fill="#fff1dc"/>
      </g>
    </g>
  </g>
</svg>
