<svg xmlns="http://www.w3.org/2000/svg" xmlns:xlink="http://www.w3.org/1999/xlink" width="87.966" height="63.922" viewBox="0 0 87.966 63.922"><defs><clipPath id="a"><rect width="87.966" height="63.922" fill="#f9a829"/></clipPath></defs><g transform="translate(-1071 -1746.245)"><g transform="translate(1071 1746.245)"><g clip-path="url(#a)"><path d="M87.966,43.985c-.269,1.313-.456,2.649-.818,3.936A21.813,21.813,0,0,1,52.924,59.466c-.18-.136-.366-.263-.435-.312a43.574,43.574,0,0,1-4.551,2.71A17.529,17.529,0,0,1,29.874,60.18a.99.99,0,0,0-1.39.024C17.465,68.177,1.634,61.2.123,47.713A17.9,17.9,0,0,1,9.487,29.653c.172-.095.333-.209.545-.343a21.333,21.333,0,0,1,.577-16.938,21.222,21.222,0,0,1,9.2-9.776A21.591,21.591,0,0,1,47.247,8.511,14.732,14.732,0,0,1,68.721,20.339c1.129.257,2.278.466,3.4.781A21.8,21.8,0,0,1,87.808,39.545a5.6,5.6,0,0,0,.158.66Zm-21.528,14.8c.442-.041,1.155-.095,1.866-.174a16.66,16.66,0,0,0-2.027-33.18A2.587,2.587,0,0,1,63.51,22.4a9.1,9.1,0,0,0-4.846-9.158,9.043,9.043,0,0,0-10.254.719c-1.9,1.343-3.163,1.114-4.381-.877-.075-.122-.146-.246-.223-.367A16.311,16.311,0,0,0,15.628,29.1c1.049,2.015.465,3.46-1.687,4.222-.162.057-.325.111-.486.17A13.022,13.022,0,0,0,5.149,44.826a12.883,12.883,0,0,0,21.915,9.863c1.459-1.414,2.8-1.416,4.251,0a12.814,12.814,0,0,0,18.626-.558c1.547-1.707,2.873-1.741,4.528-.137a16.772,16.772,0,0,0,11.969,4.791" transform="translate(0 0)" fill="#f9a829"/><path d="M85.561,68.916A12.453,12.453,0,1,1,73.134,56.444,12.445,12.445,0,0,1,85.561,68.916m-4.3-.015a8.151,8.151,0,1,0-8.14,8.138,8.137,8.137,0,0,0,8.14-8.138" transform="translate(-36.184 -33.672)" fill="#f9a829"/><path d="M138.583,91.425c.915,0,1.65,0,2.385,0,1.51.012,2.478.84,2.494,2.125.017,1.307-.918,2.156-2.431,2.165-2.117.013-4.233,0-6.35,0a2.26,2.26,0,0,1-1.878-3.729c1.459-2.015,2.946-4.011,4.395-6.033a13.718,13.718,0,0,0,1.148-1.905c.441-.891.188-1.648-.562-1.928-.777-.29-1.444.087-1.771,1a2.166,2.166,0,0,1-2.208,1.667,2.143,2.143,0,0,1-1.961-2.589,5.59,5.59,0,0,1,6.8-4.313,5.367,5.367,0,0,1,3.912,7.033,34.791,34.791,0,0,1-2.816,4.872c-.318.527-.712,1.007-1.16,1.633" transform="translate(-78.631 -46.366)" fill="#f9a829"/></g></g></g></svg>