<svg xmlns="http://www.w3.org/2000/svg" xmlns:xlink="http://www.w3.org/1999/xlink" width="105" height="105" viewBox="0 0 105 105"><defs><clipPath id="a"><rect width="54.199" height="62.007" fill="#31313c"/></clipPath></defs><g transform="translate(-347 -2289)"><circle cx="52.5" cy="52.5" r="52.5" transform="translate(347 2289)" fill="#fed5c3"/><g transform="translate(372 2310)"><g clip-path="url(#a)"><path d="M2.033,62.007A2.867,2.867,0,0,1,0,58.9Q.04,40.556.017,22.213a6.221,6.221,0,0,1,4.24-6.244c.358-.124.731-.2,1.168-.322v-.631c0-2.159-.006-4.318,0-6.478A2.912,2.912,0,0,1,8.5,5.461c.764,0,1.527,0,2.371,0,0-.8,0-1.555,0-2.314A2.918,2.918,0,0,1,14.008.008Q26.965,0,39.919,0a1.6,1.6,0,0,1,1.23.511C43.522,2.9,45.92,5.27,48.277,7.68a1.868,1.868,0,0,1,.475,1.16c.048,2.057.022,4.116.022,6.175v.672a6.5,6.5,0,0,1,3.139,1.424,6.3,6.3,0,0,1,2.268,5.01q.008,8.2,0,16.406a2.393,2.393,0,0,1-.009.3.908.908,0,0,1-.96.883.864.864,0,0,1-.84-.932c-.01-1.332-.007-2.664-.007-4q0-5.176,0-10.352v-.755H1.832v.658q0,17.344,0,34.689c0,1,.169,1.165,1.153,1.165h48.25c.952,0,1.132-.177,1.132-1.127q0-7.719,0-15.437a6.023,6.023,0,0,1,.017-.665.886.886,0,0,1,1.75-.1,3.438,3.438,0,0,1,.047.721c0,5.105-.023,10.211.017,15.316a2.863,2.863,0,0,1-2.033,3.108ZM41.469,21.792V14.886c-1.55,0-3.061.011-4.572,0a2.924,2.924,0,0,1-3-2.981c-.013-.666,0-1.332,0-2V7.277H8.709c-1.124,0-1.467.35-1.467,1.494q0,6.2,0,12.41c0,.2.017.392.027.612Zm5.449.026V9.437c-1.51,0-2.98.008-4.449,0a2.947,2.947,0,0,1-3.124-3.1c0-.343,0-.686,0-1.029V1.823H14.109a2.873,2.873,0,0,0-.423.01,1.025,1.025,0,0,0-.977.987c-.046.859-.012,1.722-.012,2.641h.764q10.5,0,21-.008a1.6,1.6,0,0,1,1.231.506Q39.252,9.546,42.84,13.1a1.59,1.59,0,0,1,.493,1.237c-.018,2.259-.008,4.519-.008,6.778v.674c.2.01.34.024.477.024,1.026,0,2.052,0,3.115,0M5.408,17.582c-2,.236-3.772,2.406-3.479,4.189H5.408Zm46.893,4.2a4.256,4.256,0,0,0-3.5-4.177v4.177ZM41.174,3.326c0,1.066-.031,2.183.013,3.3a.951.951,0,0,0,.926.957c1.132.05,2.266.016,3.333.016L41.174,3.326m-1.232,9.736-4.23-4.237v.443c0,.9-.019,1.81.013,2.714a1.038,1.038,0,0,0,1.021,1.07c1.1.036,2.2.01,3.2.01" transform="translate(-0.001 0.001)" fill="#31313c"/><path d="M57.456,82.241v.713c0,4.66.01,9.321-.013,13.981,0,.584.163.737.741.735,6.032-.021,12.065-.013,18.1-.013h.658c.016-.262.039-.476.039-.691,0-4.68-.009-9.361.016-14.041,0-.582-.189-.7-.723-.7-2.158.026-4.317.013-6.476.008-.241,0-.55.052-.706-.072a1.67,1.67,0,0,1-.634-.84.753.753,0,0,1,.674-.859,2.782,2.782,0,0,1,.6-.041q3.389,0,6.779,0a2.007,2.007,0,0,1,2.286,2.31q0,7.2,0,14.4a2.028,2.028,0,0,1-2.332,2.333H57.945a2.006,2.006,0,0,1-2.3-2.291q-.006-7.232,0-14.465a2,2,0,0,1,2.3-2.291q3.359-.006,6.718,0a3.427,3.427,0,0,1,.6.033A.884.884,0,0,1,65.27,82.2a3.3,3.3,0,0,1-.662.041q-3.178,0-6.355,0h-.8" transform="translate(-29.448 -42.567)" fill="#31313c"/><path d="M72.021,89.859H66.034a4.015,4.015,0,0,1-.543-.016.892.892,0,0,1-.125-1.744,2.444,2.444,0,0,1,.658-.053q5.987,0,11.973,0a3.847,3.847,0,0,1,.483.01.908.908,0,0,1,.851.929.865.865,0,0,1-.9.866c-.725.024-1.451.01-2.177.01H72.021" transform="translate(-34.25 -46.599)" fill="#31313c"/><path d="M72.068,96.981c-2.036,0-4.072.008-6.108-.009a1.3,1.3,0,0,1-.839-.217,1.127,1.127,0,0,1-.308-.885c.061-.265.405-.486.663-.675.108-.079.313-.029.474-.029H78.167c.08,0,.161,0,.242,0a.906.906,0,1,1,.009,1.808c-1.189.019-2.378.007-3.568.007H72.068" transform="translate(-34.298 -50.362)" fill="#31313c"/><path d="M71.963,104.075H66.1c-.181,0-.363.006-.543-.011a.836.836,0,0,1-.845-.851.856.856,0,0,1,.828-.931,4.006,4.006,0,0,1,.543-.022q5.925,0,11.85,0c.97,0,1.414.3,1.4.935-.014.611-.434.88-1.382.88H71.963" transform="translate(-34.249 -54.125)" fill="#31313c"/><path d="M72,111.184c-2.076,0-4.153,0-6.229,0-.678,0-1.056-.329-1.065-.885s.378-.92,1.033-.925c1.391-.011,2.782,0,4.173,0,2.741,0,5.483-.012,8.225.015a1.419,1.419,0,0,1,.958.352.991.991,0,0,1,.112.921,1.192,1.192,0,0,1-.858.5c-1.227.056-2.459.024-3.688.024H72" transform="translate(-34.247 -57.886)" fill="#31313c"/><path d="M35.652,38.517h11.8c.182,0,.363,0,.545,0,.65.024,1.06.387,1.045.92-.014.513-.408.857-1.026.891-.141.008-.282,0-.424,0q-11.953,0-23.906,0a3.253,3.253,0,0,1-.779-.061.886.886,0,0,1,.1-1.725,4.275,4.275,0,0,1,.664-.027q5.992,0,11.983,0" transform="translate(-11.786 -20.386)" fill="#31313c"/><path d="M33.738,31.4h9.99a2.89,2.89,0,0,1,.6.021.9.9,0,0,1,.039,1.763,2.347,2.347,0,0,1-.6.031H23.546A2.449,2.449,0,0,1,23,33.19a.9.9,0,0,1,.02-1.776,2.714,2.714,0,0,1,.544-.017H33.738" transform="translate(-11.785 -16.616)" fill="#31313c"/></g></g></g></svg>