<svg xmlns="http://www.w3.org/2000/svg" xmlns:xlink="http://www.w3.org/1999/xlink" width="715" height="501.671" viewBox="0 0 715 501.671">
  <defs>
    <linearGradient id="linear-gradient" x1="0.5" x2="0.5" y2="1" gradientUnits="objectBoundingBox">
      <stop offset="0" stop-color="#1a5741"/>
      <stop offset="1" stop-color="#792a2a" stop-opacity="0"/>
    </linearGradient>
    <linearGradient id="linear-gradient-2" x1="0.5" x2="0.5" y2="1" gradientUnits="objectBoundingBox">
      <stop offset="0" stop-color="#1ec488"/>
      <stop offset="1" stop-color="#434343" stop-opacity="0"/>
    </linearGradient>
  </defs>
  <g id="Grupo_178783" data-name="Grupo 178783" transform="translate(-443 -10647.395)">
    <g id="Grupo_15317" data-name="Grupo 15317" transform="translate(715.736 10647.395)">
      <path id="Trazado_33646" data-name="Trazado 33646" d="M-735.385-300.363h8.238v8.238h-8.238v-8.238Z" transform="translate(743.706 308.684)" fill="#fdfb37" fill-rule="evenodd"/>
      <path id="Trazado_33647" data-name="Trazado 33647" d="M-735.385-157.213h8.238v8.238h-8.238v-8.238Z" transform="translate(743.706 173.855)" fill="#fdfb37" fill-rule="evenodd"/>
      <path id="Trazado_33648" data-name="Trazado 33648" d="M-735.385-14.063h8.238v8.238h-8.238v-8.238Z" transform="translate(743.706 39.026)" fill="#fdfb37" fill-rule="evenodd"/>
      <path id="Trazado_33649" data-name="Trazado 33649" d="M-735.385,129.086h8.238v8.238h-8.238v-8.238Z" transform="translate(743.706 -95.803)" fill="#fdfb37" fill-rule="evenodd"/>
      <path id="Trazado_33650" data-name="Trazado 33650" d="M-735.385,272.235h8.238v8.238h-8.238v-8.238Z" transform="translate(743.706 -230.631)" fill="#fdfb37" fill-rule="evenodd"/>
      <path id="Trazado_33651" data-name="Trazado 33651" d="M-735.385,415.386h8.238v8.238h-8.238v-8.238Z" transform="translate(743.706 -365.461)" fill="#fdfb37" fill-rule="evenodd"/>
      <path id="Trazado_33652" data-name="Trazado 33652" d="M1411.806-300.416h8.245v8.245h-8.245v-8.245Z" transform="translate(-1278.676 308.734)" fill="#6afb6c" fill-rule="evenodd"/>
      <path id="Trazado_33653" data-name="Trazado 33653" d="M1411.806-157.267h8.245v8.245h-8.245v-8.245Z" transform="translate(-1278.676 173.906)" fill="#6afb6c" fill-rule="evenodd"/>
      <path id="Trazado_33654" data-name="Trazado 33654" d="M1411.806-14.117h8.245v8.245h-8.245v-8.245Z" transform="translate(-1278.676 39.077)" fill="#6afb6c" fill-rule="evenodd"/>
      <path id="Trazado_33655" data-name="Trazado 33655" d="M1411.806,129.032h8.245v8.245h-8.245v-8.245Z" transform="translate(-1278.676 -95.752)" fill="#6afb6c" fill-rule="evenodd"/>
      <path id="Trazado_33656" data-name="Trazado 33656" d="M1411.806,272.182h8.245v8.245h-8.245v-8.245Z" transform="translate(-1278.676 -230.581)" fill="#6afb6c" fill-rule="evenodd"/>
      <path id="Trazado_33657" data-name="Trazado 33657" d="M839.261-157.213H847.5v8.238h-8.238v-8.238Z" transform="translate(-739.411 173.855)" fill="#3ad5d2" fill-rule="evenodd"/>
      <path id="Trazado_33658" data-name="Trazado 33658" d="M1268.71,415.386h8.238v8.238h-8.238v-8.238Z" transform="translate(-1143.898 -365.461)" fill="#3ad5d2" fill-rule="evenodd"/>
      <path id="Trazado_33659" data-name="Trazado 33659" d="M1125.559,415.386h8.238v8.238h-8.238v-8.238Z" transform="translate(-1009.068 -365.461)" fill="#3ad5d2" fill-rule="evenodd"/>
      <path id="Trazado_33660" data-name="Trazado 33660" d="M1125.559,272.235h8.238v8.238h-8.238v-8.238Z" transform="translate(-1009.068 -230.631)" fill="#3ad5d2" fill-rule="evenodd"/>
      <path id="Trazado_33661" data-name="Trazado 33661" d="M839.261,415.386H847.5v8.238h-8.238v-8.238Z" transform="translate(-739.411 -365.461)" fill="#3ad5d2" fill-rule="evenodd"/>
      <path id="Trazado_33662" data-name="Trazado 33662" d="M982.41,129.086h8.238v8.238H982.41v-8.238Z" transform="translate(-874.24 -95.803)" fill="#3ad5d2" fill-rule="evenodd"/>
      <path id="Trazado_33663" data-name="Trazado 33663" d="M982.41,272.235h8.238v8.238H982.41v-8.238Z" transform="translate(-874.24 -230.631)" fill="#3ad5d2" fill-rule="evenodd"/>
      <path id="Trazado_33664" data-name="Trazado 33664" d="M839.261-14.063H847.5v8.238h-8.238v-8.238Z" transform="translate(-739.411 39.026)" fill="#3ad5d2" fill-rule="evenodd"/>
      <path id="Trazado_33665" data-name="Trazado 33665" d="M839.261,129.086H847.5v8.238h-8.238v-8.238Z" transform="translate(-739.411 -95.803)" fill="#3ad5d2" fill-rule="evenodd"/>
      <path id="Trazado_33666" data-name="Trazado 33666" d="M839.261,272.235H847.5v8.238h-8.238v-8.238Z" transform="translate(-739.411 -230.631)" fill="#3ad5d2" fill-rule="evenodd"/>
      <path id="Trazado_33667" data-name="Trazado 33667" d="M982.41,415.386h8.238v8.238H982.41v-8.238Z" transform="translate(-874.24 -365.461)" fill="#3ad5d2" fill-rule="evenodd"/>
      <path id="Trazado_33668" data-name="Trazado 33668" d="M-878.535-443.512h8.238v8.238h-8.238v-8.238Z" transform="translate(878.535 443.512)" fill="#fea929" fill-rule="evenodd"/>
      <path id="Trazado_33669" data-name="Trazado 33669" d="M982.41-300.363h8.238v8.238H982.41v-8.238Z" transform="translate(-874.24 308.684)" fill="#6afb6c" fill-rule="evenodd"/>
      <path id="Trazado_33670" data-name="Trazado 33670" d="M1125.559-300.363h8.238v8.238h-8.238v-8.238Z" transform="translate(-1009.068 308.684)" fill="#6afb6c" fill-rule="evenodd"/>
      <path id="Trazado_33671" data-name="Trazado 33671" d="M1268.71-300.363h8.238v8.238h-8.238v-8.238Z" transform="translate(-1143.898 308.684)" fill="#6afb6c" fill-rule="evenodd"/>
      <path id="Trazado_33672" data-name="Trazado 33672" d="M1125.559-157.213h8.238v8.238h-8.238v-8.238Z" transform="translate(-1009.068 173.855)" fill="#6afb6c" fill-rule="evenodd"/>
      <path id="Trazado_33673" data-name="Trazado 33673" d="M1268.71-157.213h8.238v8.238h-8.238v-8.238Z" transform="translate(-1143.898 173.855)" fill="#6afb6c" fill-rule="evenodd"/>
      <path id="Trazado_33674" data-name="Trazado 33674" d="M1268.71-14.063h8.238v8.238h-8.238v-8.238Z" transform="translate(-1143.898 39.026)" fill="#6afb6c" fill-rule="evenodd"/>
      <path id="Trazado_33675" data-name="Trazado 33675" d="M1268.71,129.086h8.238v8.238h-8.238v-8.238Z" transform="translate(-1143.898 -95.803)" fill="#6afb6c" fill-rule="evenodd"/>
      <path id="Trazado_33676" data-name="Trazado 33676" d="M1125.559-14.063h8.238v8.238h-8.238v-8.238Z" transform="translate(-1009.068 39.026)" fill="#6afb6c" fill-rule="evenodd"/>
      <path id="Trazado_33677" data-name="Trazado 33677" d="M1125.559,129.086h8.238v8.238h-8.238v-8.238Z" transform="translate(-1009.068 -95.803)" fill="#3ad5d2" fill-rule="evenodd"/>
      <path id="Trazado_33678" data-name="Trazado 33678" d="M839.261-300.363H847.5v8.238h-8.238v-8.238Z" transform="translate(-739.411 308.684)" fill="#6afb6c" fill-rule="evenodd"/>
      <path id="Trazado_33679" data-name="Trazado 33679" d="M982.41-14.063h8.238v8.238H982.41v-8.238Z" transform="translate(-874.24 39.026)" fill="#3ad5d2" fill-rule="evenodd"/>
      <path id="Trazado_33680" data-name="Trazado 33680" d="M982.41-157.213h8.238v8.238H982.41v-8.238Z" transform="translate(-874.24 173.855)" fill="#6afb6c" fill-rule="evenodd"/>
      <path id="Trazado_33681" data-name="Trazado 33681" d="M1268.71,272.235h8.238v8.238h-8.238v-8.238Z" transform="translate(-1143.898 -230.631)" fill="#3ad5d2" fill-rule="evenodd"/>
      <path id="Trazado_33682" data-name="Trazado 33682" d="M-878.535-300.363h8.238v8.238h-8.238v-8.238Z" transform="translate(878.535 308.684)" fill="#fea929" fill-rule="evenodd"/>
      <path id="Trazado_33683" data-name="Trazado 33683" d="M-878.535-157.213h8.238v8.238h-8.238v-8.238Z" transform="translate(878.535 173.855)" fill="#fea929" fill-rule="evenodd"/>
      <path id="Trazado_33684" data-name="Trazado 33684" d="M-878.535-14.063h8.238v8.238h-8.238v-8.238Z" transform="translate(878.535 39.026)" fill="#fea929" fill-rule="evenodd"/>
      <path id="Trazado_33685" data-name="Trazado 33685" d="M-878.535,129.086h8.238v8.238h-8.238v-8.238Z" transform="translate(878.535 -95.803)" fill="#fea929" fill-rule="evenodd"/>
      <path id="Trazado_33686" data-name="Trazado 33686" d="M-878.535,272.235h8.238v8.238h-8.238v-8.238Z" transform="translate(878.535 -230.631)" fill="#fea929" fill-rule="evenodd"/>
      <path id="Trazado_33687" data-name="Trazado 33687" d="M-878.535,415.386h8.238v8.238h-8.238v-8.238Z" transform="translate(878.535 -365.461)" fill="#fea929" fill-rule="evenodd"/>
      <path id="Trazado_33688" data-name="Trazado 33688" d="M696.111,129.086h8.238v8.238h-8.238v-8.238Z" transform="translate(-604.583 -95.803)" fill="#fb678b" fill-rule="evenodd"/>
      <path id="Trazado_33689" data-name="Trazado 33689" d="M696.111,272.235h8.238v8.238h-8.238v-8.238Z" transform="translate(-604.583 -230.631)" fill="#fb678b" fill-rule="evenodd"/>
      <path id="Trazado_33690" data-name="Trazado 33690" d="M266.663,272.235H274.9v8.238h-8.238v-8.238Z" transform="translate(-200.097 -230.631)" fill="#fb678b" fill-rule="evenodd"/>
      <path id="Trazado_33691" data-name="Trazado 33691" d="M552.962,415.386H561.2v8.238h-8.238v-8.238Z" transform="translate(-469.754 -365.461)" fill="#fb678b" fill-rule="evenodd"/>
      <path id="Trazado_33692" data-name="Trazado 33692" d="M696.111,415.386h8.238v8.238h-8.238v-8.238Z" transform="translate(-604.583 -365.461)" fill="#fb678b" fill-rule="evenodd"/>
      <path id="Trazado_33693" data-name="Trazado 33693" d="M266.663,415.386H274.9v8.238h-8.238v-8.238Z" transform="translate(-200.097 -365.461)" fill="#fb678b" fill-rule="evenodd"/>
      <path id="Trazado_33694" data-name="Trazado 33694" d="M409.812,415.386h8.238v8.238h-8.238v-8.238Z" transform="translate(-334.925 -365.461)" fill="#fb678b" fill-rule="evenodd"/>
      <path id="Trazado_33695" data-name="Trazado 33695" d="M552.962,272.235H561.2v8.238h-8.238v-8.238Z" transform="translate(-469.754 -230.631)" fill="#fb678b" fill-rule="evenodd"/>
      <path id="Trazado_33696" data-name="Trazado 33696" d="M409.812,272.235h8.238v8.238h-8.238v-8.238Z" transform="translate(-334.925 -230.631)" fill="#fb678b" fill-rule="evenodd"/>
      <path id="Trazado_33697" data-name="Trazado 33697" d="M552.962,129.086H561.2v8.238h-8.238v-8.238Z" transform="translate(-469.754 -95.803)" fill="#fb678b" fill-rule="evenodd"/>
      <path id="Trazado_33698" data-name="Trazado 33698" d="M409.812,129.086h8.238v8.238h-8.238v-8.238Z" transform="translate(-334.925 -95.803)" fill="#fb678b" fill-rule="evenodd"/>
      <path id="Trazado_33699" data-name="Trazado 33699" d="M266.663,129.086H274.9v8.238h-8.238v-8.238Z" transform="translate(-200.097 -95.803)" fill="#fb678b" fill-rule="evenodd"/>
      <path id="Trazado_33700" data-name="Trazado 33700" d="M696.111-14.063h8.238v8.238h-8.238v-8.238Z" transform="translate(-604.583 39.026)" fill="#fb678b" fill-rule="evenodd"/>
      <path id="Trazado_33701" data-name="Trazado 33701" d="M552.962-14.063H561.2v8.238h-8.238v-8.238Z" transform="translate(-469.754 39.026)" fill="#fb678b" fill-rule="evenodd"/>
      <path id="Trazado_33702" data-name="Trazado 33702" d="M409.812-14.063h8.238v8.238h-8.238v-8.238Z" transform="translate(-334.925 39.026)" fill="#fb678b" fill-rule="evenodd"/>
      <path id="Trazado_33703" data-name="Trazado 33703" d="M266.663-14.063H274.9v8.238h-8.238v-8.238Z" transform="translate(-200.097 39.026)" fill="#fb678b" fill-rule="evenodd"/>
      <path id="Trazado_33704" data-name="Trazado 33704" d="M-162.787,272.235h8.238v8.238h-8.238v-8.238Z" transform="translate(204.391 -230.631)" fill="#fb678b" fill-rule="evenodd"/>
      <path id="Trazado_33705" data-name="Trazado 33705" d="M123.513,415.386h8.238v8.238h-8.238v-8.238Z" transform="translate(-65.267 -365.461)" fill="#fb678b" fill-rule="evenodd"/>
      <path id="Trazado_33706" data-name="Trazado 33706" d="M-162.787,415.386h8.238v8.238h-8.238v-8.238Z" transform="translate(204.391 -365.461)" fill="#fb678b" fill-rule="evenodd"/>
      <path id="Trazado_33707" data-name="Trazado 33707" d="M-19.637,415.386H-11.4v8.238h-8.238v-8.238Z" transform="translate(69.561 -365.461)" fill="#fb678b" fill-rule="evenodd"/>
      <path id="Trazado_33708" data-name="Trazado 33708" d="M123.513,272.235h8.238v8.238h-8.238v-8.238Z" transform="translate(-65.267 -230.631)" fill="#fb678b" fill-rule="evenodd"/>
      <path id="Trazado_33709" data-name="Trazado 33709" d="M-19.637,272.235H-11.4v8.238h-8.238v-8.238Z" transform="translate(69.561 -230.631)" fill="#fb678b" fill-rule="evenodd"/>
      <path id="Trazado_33710" data-name="Trazado 33710" d="M123.513,129.086h8.238v8.238h-8.238v-8.238Z" transform="translate(-65.267 -95.803)" fill="#fb678b" fill-rule="evenodd"/>
      <path id="Trazado_33711" data-name="Trazado 33711" d="M-19.637,129.086H-11.4v8.238h-8.238v-8.238Z" transform="translate(69.561 -95.803)" fill="#fb678b" fill-rule="evenodd"/>
      <path id="Trazado_33712" data-name="Trazado 33712" d="M-162.787,129.086h8.238v8.238h-8.238v-8.238Z" transform="translate(204.391 -95.803)" fill="#fb678b" fill-rule="evenodd"/>
      <path id="Trazado_33713" data-name="Trazado 33713" d="M123.513-14.063h8.238v8.238h-8.238v-8.238Z" transform="translate(-65.267 39.026)" fill="#fb678b" fill-rule="evenodd"/>
      <path id="Trazado_33714" data-name="Trazado 33714" d="M-19.637-14.063H-11.4v8.238h-8.238v-8.238Z" transform="translate(69.561 39.026)" fill="#fb678b" fill-rule="evenodd"/>
      <path id="Trazado_33715" data-name="Trazado 33715" d="M-162.787-14.063h8.238v8.238h-8.238v-8.238Z" transform="translate(204.391 39.026)" fill="#fb678b" fill-rule="evenodd"/>
      <path id="Trazado_33716" data-name="Trazado 33716" d="M-305.936,415.386h8.238v8.238h-8.238v-8.238Z" transform="translate(339.219 -365.461)" fill="#fb678b" fill-rule="evenodd"/>
      <path id="Trazado_33717" data-name="Trazado 33717" d="M-449.086,415.386h8.238v8.238h-8.238v-8.238Z" transform="translate(474.048 -365.461)" fill="#fb678b" fill-rule="evenodd"/>
      <path id="Trazado_33718" data-name="Trazado 33718" d="M-305.936,272.235h8.238v8.238h-8.238v-8.238Z" transform="translate(339.219 -230.631)" fill="#fb678b" fill-rule="evenodd"/>
      <path id="Trazado_33719" data-name="Trazado 33719" d="M-449.086,272.235h8.238v8.238h-8.238v-8.238Z" transform="translate(474.048 -230.631)" fill="#fb678b" fill-rule="evenodd"/>
      <path id="Trazado_33720" data-name="Trazado 33720" d="M-305.936,129.086h8.238v8.238h-8.238v-8.238Z" transform="translate(339.219 -95.803)" fill="#fb678b" fill-rule="evenodd"/>
      <path id="Trazado_33721" data-name="Trazado 33721" d="M-449.086,129.086h8.238v8.238h-8.238v-8.238Z" transform="translate(474.048 -95.803)" fill="#fb678b" fill-rule="evenodd"/>
      <path id="Trazado_33722" data-name="Trazado 33722" d="M-592.235,129.086H-584v8.238h-8.238v-8.238Z" transform="translate(608.877 -95.803)" fill="#fb678b" fill-rule="evenodd"/>
      <path id="Trazado_33723" data-name="Trazado 33723" d="M-305.936-14.063h8.238v8.238h-8.238v-8.238Z" transform="translate(339.219 39.026)" fill="#fb678b" fill-rule="evenodd"/>
      <path id="Trazado_33724" data-name="Trazado 33724" d="M-449.086-14.063h8.238v8.238h-8.238v-8.238Z" transform="translate(474.048 39.026)" fill="#fb678b" fill-rule="evenodd"/>
      <path id="Trazado_33725" data-name="Trazado 33725" d="M-592.235-14.063H-584v8.238h-8.238v-8.238Z" transform="translate(608.877 39.026)" fill="#fb678b" fill-rule="evenodd"/>
      <path id="Trazado_33726" data-name="Trazado 33726" d="M1555.009-443.512h8.238v8.238h-8.238v-8.238Z" transform="translate(-1413.555 443.512)" fill="#44f3ef" fill-rule="evenodd"/>
      <path id="Trazado_33727" data-name="Trazado 33727" d="M1555.009-300.363h8.238v8.238h-8.238v-8.238Z" transform="translate(-1413.555 308.684)" fill="#44f3ef" fill-rule="evenodd"/>
      <path id="Trazado_33728" data-name="Trazado 33728" d="M1555.009-157.213h8.238v8.238h-8.238v-8.238Z" transform="translate(-1413.555 173.855)" fill="#44f3ef" fill-rule="evenodd"/>
      <path id="Trazado_33729" data-name="Trazado 33729" d="M1555.009-14.063h8.238v8.238h-8.238v-8.238Z" transform="translate(-1413.555 39.026)" fill="#44f3ef" fill-rule="evenodd"/>
      <path id="Trazado_33730" data-name="Trazado 33730" d="M1555.009,129.086h8.238v8.238h-8.238v-8.238Z" transform="translate(-1413.555 -95.803)" fill="#44f3ef" fill-rule="evenodd"/>
      <path id="Trazado_33731" data-name="Trazado 33731" d="M1555.009,272.235h8.238v8.238h-8.238v-8.238Z" transform="translate(-1413.555 -230.631)" fill="#44f3ef" fill-rule="evenodd"/>
      <path id="Trazado_33732" data-name="Trazado 33732" d="M1411.859,632.235h8.238v8.238h-8.238v-8.238Z" transform="translate(-1278.727 -569.706)" fill="#fb678b" fill-rule="evenodd"/>
      <path id="Trazado_33733" data-name="Trazado 33733" d="M1268.71,632.235h8.238v8.238h-8.238v-8.238Z" transform="translate(-1143.898 -569.706)" fill="#feaa6a" fill-rule="evenodd"/>
      <path id="Trazado_33734" data-name="Trazado 33734" d="M1125.559,632.235h8.238v8.238h-8.238v-8.238Z" transform="translate(-1009.068 -569.706)" fill="#feaa6a" fill-rule="evenodd"/>
      <path id="Trazado_33735" data-name="Trazado 33735" d="M982.41,632.235h8.238v8.238H982.41v-8.238Z" transform="translate(-874.24 -569.706)" fill="#feaa6a" fill-rule="evenodd"/>
      <path id="Trazado_33736" data-name="Trazado 33736" d="M839.261,632.235H847.5v8.238h-8.238v-8.238Z" transform="translate(-739.411 -569.706)" fill="#feaa6a" fill-rule="evenodd"/>
      <path id="Trazado_33737" data-name="Trazado 33737" d="M696.111,632.235h8.238v8.238h-8.238v-8.238Z" transform="translate(-604.583 -569.706)" fill="#feaa6a" fill-rule="evenodd"/>
      <path id="Trazado_33738" data-name="Trazado 33738" d="M552.962,632.235H561.2v8.238h-8.238v-8.238Z" transform="translate(-469.754 -569.706)" fill="#feaa6a" fill-rule="evenodd"/>
      <path id="Trazado_33739" data-name="Trazado 33739" d="M409.812,632.235h8.238v8.238h-8.238v-8.238Z" transform="translate(-334.925 -569.706)" fill="#feaa6a" fill-rule="evenodd"/>
      <path id="Trazado_33740" data-name="Trazado 33740" d="M266.663,632.235H274.9v8.238h-8.238v-8.238Z" transform="translate(-200.097 -569.706)" fill="#feaa6a" fill-rule="evenodd"/>
      <path id="Trazado_33741" data-name="Trazado 33741" d="M123.513,632.235h8.238v8.238h-8.238v-8.238Z" transform="translate(-65.267 -569.706)" fill="#feaa6a" fill-rule="evenodd"/>
      <path id="Trazado_33742" data-name="Trazado 33742" d="M-19.637,632.235H-11.4v8.238h-8.238v-8.238Z" transform="translate(69.561 -569.706)" fill="#feaa6a" fill-rule="evenodd"/>
      <path id="Trazado_33743" data-name="Trazado 33743" d="M-162.787,632.235h8.238v8.238h-8.238v-8.238Z" transform="translate(204.391 -569.706)" fill="#feaa6a" fill-rule="evenodd"/>
      <path id="Trazado_33744" data-name="Trazado 33744" d="M-305.936,632.235h8.238v8.238h-8.238v-8.238Z" transform="translate(339.219 -569.706)" fill="#feaa6a" fill-rule="evenodd"/>
      <path id="Trazado_33745" data-name="Trazado 33745" d="M-449.086,632.235h8.238v8.238h-8.238v-8.238Z" transform="translate(474.048 -569.706)" fill="#fb678b" fill-rule="evenodd"/>
      <path id="Trazado_33746" data-name="Trazado 33746" d="M-592.235,632.235H-584v8.238h-8.238v-8.238Z" transform="translate(608.877 -569.706)" fill="#2ca9e0" fill-rule="evenodd"/>
      <path id="Trazado_33747" data-name="Trazado 33747" d="M1411.859,775.386h8.238v8.238h-8.238v-8.238Z" transform="translate(-1278.727 -704.535)" fill="#fb678b" fill-rule="evenodd"/>
      <path id="Trazado_33748" data-name="Trazado 33748" d="M1268.71,775.386h8.238v8.238h-8.238v-8.238Z" transform="translate(-1143.898 -704.535)" fill="#eecadb" fill-rule="evenodd"/>
      <path id="Trazado_33749" data-name="Trazado 33749" d="M1125.559,775.386h8.238v8.238h-8.238v-8.238Z" transform="translate(-1009.068 -704.535)" fill="#eecadb" fill-rule="evenodd"/>
      <path id="Trazado_33750" data-name="Trazado 33750" d="M982.41,775.386h8.238v8.238H982.41v-8.238Z" transform="translate(-874.24 -704.535)" fill="#eecadb" fill-rule="evenodd"/>
      <path id="Trazado_33751" data-name="Trazado 33751" d="M839.261,775.386H847.5v8.238h-8.238v-8.238Z" transform="translate(-739.411 -704.535)" fill="#eecadb" fill-rule="evenodd"/>
      <path id="Trazado_33752" data-name="Trazado 33752" d="M696.111,775.386h8.238v8.238h-8.238v-8.238Z" transform="translate(-604.583 -704.535)" fill="#eecadb" fill-rule="evenodd"/>
      <path id="Trazado_33753" data-name="Trazado 33753" d="M552.962,775.386H561.2v8.238h-8.238v-8.238Z" transform="translate(-469.754 -704.535)" fill="#eecadb" fill-rule="evenodd"/>
      <path id="Trazado_33754" data-name="Trazado 33754" d="M409.812,775.386h8.238v8.238h-8.238v-8.238Z" transform="translate(-334.925 -704.535)" fill="#eecadb" fill-rule="evenodd"/>
      <path id="Trazado_33755" data-name="Trazado 33755" d="M266.663,775.386H274.9v8.238h-8.238v-8.238Z" transform="translate(-200.097 -704.535)" fill="#eecadb" fill-rule="evenodd"/>
      <path id="Trazado_33756" data-name="Trazado 33756" d="M123.513,775.386h8.238v8.238h-8.238v-8.238Z" transform="translate(-65.267 -704.535)" fill="#eecadb" fill-rule="evenodd"/>
      <path id="Trazado_33757" data-name="Trazado 33757" d="M-19.637,775.386H-11.4v8.238h-8.238v-8.238Z" transform="translate(69.561 -704.535)" fill="#eecadb" fill-rule="evenodd"/>
      <path id="Trazado_33758" data-name="Trazado 33758" d="M-162.787,775.386h8.238v8.238h-8.238v-8.238Z" transform="translate(204.391 -704.535)" fill="#eecadb" fill-rule="evenodd"/>
      <path id="Trazado_33759" data-name="Trazado 33759" d="M-305.936,775.386h8.238v8.238h-8.238v-8.238Z" transform="translate(339.219 -704.535)" fill="#eecadb" fill-rule="evenodd"/>
      <path id="Trazado_33760" data-name="Trazado 33760" d="M-449.086,775.386h8.238v8.238h-8.238v-8.238Z" transform="translate(474.048 -704.535)" fill="#fb678b" fill-rule="evenodd"/>
      <path id="Trazado_33761" data-name="Trazado 33761" d="M-592.235,775.386H-584v8.238h-8.238v-8.238Z" transform="translate(608.877 -704.535)" fill="#2ca9e0" fill-rule="evenodd"/>
      <path id="Trazado_33762" data-name="Trazado 33762" d="M-592.235,129.086H-584v8.238h-8.238v-8.238Z" transform="translate(608.877 -79.123)" fill="#94c024" fill-rule="evenodd"/>
      <path id="Trazado_33763" data-name="Trazado 33763" d="M-592.235-14.063H-584v8.238h-8.238v-8.238Z" transform="translate(608.877 55.705)" fill="#94c024" fill-rule="evenodd"/>
      <path id="Trazado_33764" data-name="Trazado 33764" d="M-592.235-14.063H-584l-4.066,4.227-4.172,4.012v-8.238Z" transform="translate(608.877 55.705)" fill="#2ca9e0" fill-rule="evenodd"/>
      <path id="Trazado_33765" data-name="Trazado 33765" d="M-592.235-14.063H-584l-4.066,4.227-4.172,4.012v-8.238Z" transform="translate(608.877 64.117)" fill="#2ca9e0" fill-rule="evenodd"/>
    </g>
    <path id="Trazado_33776" data-name="Trazado 33776" d="M6131.845-148.949H5958.391v48.937" transform="translate(-5431.969 10826.496)" fill="none" stroke="#082143" stroke-width="2"/>
    <path id="Trazado_33777" data-name="Trazado 33777" d="M5958.391-148.949h173.455v43.34" transform="translate(-5076.999 10826.496)" fill="none" stroke="#082143" stroke-width="2"/>
    <path id="Trazado_36855" data-name="Trazado 36855" d="M18.8,0h127.24a18.8,18.8,0,1,1,0,37.594H18.8A18.8,18.8,0,0,1,18.8,0Z" transform="translate(443 10720.887)" fill="#c1ffe9"/>
    <path id="Trazado_36856" data-name="Trazado 36856" d="M7.464-4.778a6.9,6.9,0,0,1-2.546-.463,5.969,5.969,0,0,1-2.03-1.3A5.848,5.848,0,0,1,1.555-8.608,7.312,7.312,0,0,1,1.074-11.3a7.289,7.289,0,0,1,.494-2.723,5.925,5.925,0,0,1,1.359-2.083A6.077,6.077,0,0,1,5-17.416a7.118,7.118,0,0,1,2.6-.468,6.95,6.95,0,0,1,3.314.781,5.68,5.68,0,0,1,2.3,2.22l-2.321,1.236a3.4,3.4,0,0,0-1.346-1.447A3.86,3.86,0,0,0,7.6-15.58a3.7,3.7,0,0,0-2.784,1.121,4.276,4.276,0,0,0-1.081,3.1A4.409,4.409,0,0,0,4.807-8.246,3.74,3.74,0,0,0,7.693-7.081a4.264,4.264,0,0,0,1.553-.274,3.1,3.1,0,0,0,1.236-.887,3.213,3.213,0,0,0,.706-1.514H7.7v-2.127h5.992v6.928H11.611V-6.72A4.652,4.652,0,0,1,7.464-4.778Zm15.709-.177-3.318-5.613h-.768v5.613H16.439V-17.707h4.624a5.349,5.349,0,0,1,1.853.3,3.2,3.2,0,0,1,1.284.821,3.515,3.515,0,0,1,.724,1.2,4.406,4.406,0,0,1,.243,1.491,3.114,3.114,0,0,1-.7,2.1,3.513,3.513,0,0,1-2,1.1l3.839,5.745ZM19.086-15.509v3.045h1.562q1.986,0,1.986-1.518a1.382,1.382,0,0,0-.485-1.121,2.308,2.308,0,0,0-1.5-.406ZM32.968-4.778A6.6,6.6,0,0,1,31-5.056a4.622,4.622,0,0,1-1.575-.834,3.732,3.732,0,0,1-1.063-1.456,5.248,5.248,0,0,1-.384-2.074v-8.287h2.648v7.925a2.772,2.772,0,0,0,.64,2.021,2.288,2.288,0,0,0,1.7.644,2.309,2.309,0,0,0,1.708-.649,2.75,2.75,0,0,0,.649-2.017v-7.925h2.648V-9.42a5.248,5.248,0,0,1-.384,2.074A3.712,3.712,0,0,1,36.52-5.89a4.67,4.67,0,0,1-1.58.834A6.631,6.631,0,0,1,32.968-4.778ZM46.312-17.707A3.838,3.838,0,0,1,49.25-16.52a4.129,4.129,0,0,1,1.112,2.934,4.027,4.027,0,0,1-1.1,2.917,3.907,3.907,0,0,1-2.948,1.143H43.655v4.571H41.008V-17.707Zm-.441,5.966a1.946,1.946,0,0,0,1.456-.5,1.9,1.9,0,0,0,.485-1.381,1.88,1.88,0,0,0-.49-1.363,1.928,1.928,0,0,0-1.452-.507H43.655v3.751ZM58.234-4.778a6.932,6.932,0,0,1-3.349-.8,5.79,5.79,0,0,1-2.325-2.3,6.914,6.914,0,0,1-.847-3.459A6.907,6.907,0,0,1,52.56-14.8a5.768,5.768,0,0,1,2.325-2.29,6.963,6.963,0,0,1,3.349-.794,6.937,6.937,0,0,1,3.345.794A5.775,5.775,0,0,1,63.9-14.8a6.907,6.907,0,0,1,.847,3.464A6.914,6.914,0,0,1,63.9-7.876a5.79,5.79,0,0,1-2.325,2.3A6.913,6.913,0,0,1,58.234-4.778ZM55.446-8.317A3.746,3.746,0,0,0,58.234-7.2a3.738,3.738,0,0,0,2.789-1.116,4.119,4.119,0,0,0,1.094-3.014,4.092,4.092,0,0,0-1.094-3,3.746,3.746,0,0,0-2.789-1.112,3.746,3.746,0,0,0-2.789,1.112,4.092,4.092,0,0,0-1.094,3A4.134,4.134,0,0,0,55.446-8.317Zm15.9,3.539a6.161,6.161,0,0,1-3.539-.975,3.911,3.911,0,0,1-1.721-2.731l2.736-.627A2.323,2.323,0,0,0,69.667-7.5a2.8,2.8,0,0,0,1.787.56,2.308,2.308,0,0,0,1.394-.393,1.324,1.324,0,0,0,.53-1.161,1.238,1.238,0,0,0-.45-.944,2.941,2.941,0,0,0-.9-.578q-.446-.172-1.434-.472-.132-.044-.194-.062-.5-.159-.812-.265t-.763-.3a5.084,5.084,0,0,1-.741-.371,5.427,5.427,0,0,1-.613-.459,2.4,2.4,0,0,1-.512-.587,3.117,3.117,0,0,1-.309-.732,3.233,3.233,0,0,1-.124-.909,3.414,3.414,0,0,1,.6-2.008,3.648,3.648,0,0,1,1.606-1.28,5.846,5.846,0,0,1,2.3-.428,7.262,7.262,0,0,1,1.664.185,5.827,5.827,0,0,1,1.487.569,3.643,3.643,0,0,1,1.187,1.05,3.949,3.949,0,0,1,.675,1.549l-2.559.635a2.073,2.073,0,0,0-2.295-1.827,2.512,2.512,0,0,0-1.421.371,1.256,1.256,0,0,0-.556,1.121q0,.7.927,1.13a13.809,13.809,0,0,0,1.774.609q.521.159.847.265t.821.309a5.7,5.7,0,0,1,.8.393,5.942,5.942,0,0,1,.671.49,2.638,2.638,0,0,1,.569.635,3.436,3.436,0,0,1,.349.79,3.3,3.3,0,0,1,.141.984,3.866,3.866,0,0,1-.256,1.438,3.131,3.131,0,0,1-.7,1.085,4.074,4.074,0,0,1-1.055.746,5.116,5.116,0,0,1-1.3.441A7.461,7.461,0,0,1,71.349-4.778Z" transform="translate(486.803 10750.422)" fill="#082143"/>
    <path id="Trazado_36858" data-name="Trazado 36858" d="M18.8,0h127.24a18.8,18.8,0,1,1,0,37.594H18.8A18.8,18.8,0,0,1,18.8,0Z" transform="translate(972.201 10720.887)" fill="#c1ffe9"/>
    <path id="Trazado_33778" data-name="Trazado 33778" d="M6330-63.5V7.714" transform="translate(-5534.922 10802.822)" fill="none" stroke="#082143" stroke-width="2"/>
    <path id="Trazado_33779" data-name="Trazado 33779" d="M5958.391,325.477V121.8h531.377V325.477" transform="translate(-5431.969 10732.689)" fill="none" stroke="#082143" stroke-width="2"/>
    <path id="Trazado_36859" data-name="Trazado 36859" d="M29.28,0H135.554a29.28,29.28,0,1,1,0,58.559H29.28A29.28,29.28,0,0,1,29.28,0Z" transform="translate(443 10909.578)" fill="#c1ffe9"/>
    <path id="Trazado_36864" data-name="Trazado 36864" d="M-48.228-19.076v2.33h-3.027V-6.324h-2.621V-16.747H-56.92v-2.33Zm9.452,12.752-.927-2.63h-5.357l-.927,2.63H-48.7L-44-19.076h3.239l4.695,12.752Zm-5.507-4.845h3.8l-1.9-5.41Zm24.746,4.845h-2.639l-.838-9.611-3.23,9.611h-1.712l-3.23-9.611-.847,9.611h-2.648l1.068-12.752h3.777l2.718,8,2.753-8h3.777Zm11.3,0-.927-2.63h-5.357l-.927,2.63h-2.709l4.695-12.752h3.239L-5.523-6.324Zm-5.507-4.845h3.8l-1.9-5.41ZM1.052-21.68a.6.6,0,0,0-.552.335,1.764,1.764,0,0,0-.19.874H-1.022a2.567,2.567,0,0,1,.547-1.7,1.828,1.828,0,0,1,1.483-.657,1.894,1.894,0,0,1,1.483.644l.2.229q.146.168.216.234a.934.934,0,0,0,.207.137.6.6,0,0,0,.278.071q.688,0,.688-1.191h1.35a2.6,2.6,0,0,1-.534,1.69,1.829,1.829,0,0,1-1.5.657,1.806,1.806,0,0,1-.891-.19,2.225,2.225,0,0,1-.609-.516q-.026-.026-.106-.128l-.106-.137q-.026-.035-.1-.11a.608.608,0,0,0-.115-.1l-.115-.071a.407.407,0,0,0-.146-.057A.887.887,0,0,0,1.052-21.68Zm4.051,2.6H7.741V-6.324H4.679L-.969-15.441v9.116H-3.608V-19.076H-.581L5.1-10.013ZM16.69-6.148a6.932,6.932,0,0,1-3.349-.8,5.79,5.79,0,0,1-2.325-2.3,6.914,6.914,0,0,1-.847-3.459,6.907,6.907,0,0,1,.847-3.464,5.768,5.768,0,0,1,2.325-2.29,6.963,6.963,0,0,1,3.349-.794,6.937,6.937,0,0,1,3.345.794,5.775,5.775,0,0,1,2.321,2.29A6.907,6.907,0,0,1,23.2-12.7a6.914,6.914,0,0,1-.847,3.459,5.79,5.79,0,0,1-2.325,2.3A6.913,6.913,0,0,1,16.69-6.148ZM13.9-9.687A3.746,3.746,0,0,0,16.69-8.575a3.738,3.738,0,0,0,2.789-1.116A4.119,4.119,0,0,0,20.573-12.7a4.092,4.092,0,0,0-1.094-3,3.746,3.746,0,0,0-2.789-1.112A3.746,3.746,0,0,0,13.9-15.705a4.092,4.092,0,0,0-1.094,3A4.134,4.134,0,0,0,13.9-9.687ZM-50.151,16.087l-.927-2.63h-5.357l-.927,2.63h-2.709l4.695-12.752h3.239l4.695,12.752Zm-5.507-4.845h3.8l-1.9-5.41Zm16.441-7.907v2.33h-3.027V16.087h-2.621V5.665H-47.91V3.335ZM-32.8,2.144-30.489-1.1l1.253.891-2,2.356Zm.785,14.12a6.932,6.932,0,0,1-3.349-.8,5.79,5.79,0,0,1-2.325-2.3,6.914,6.914,0,0,1-.847-3.459,6.907,6.907,0,0,1,.847-3.464,5.768,5.768,0,0,1,2.325-2.29,6.963,6.963,0,0,1,3.349-.794,6.937,6.937,0,0,1,3.345.794,5.775,5.775,0,0,1,2.321,2.29A6.907,6.907,0,0,1-25.5,9.707a6.914,6.914,0,0,1-.847,3.459,5.79,5.79,0,0,1-2.325,2.3A6.913,6.913,0,0,1-32.016,16.264ZM-34.8,12.725a3.746,3.746,0,0,0,2.789,1.112,3.738,3.738,0,0,0,2.789-1.116,4.119,4.119,0,0,0,1.094-3.014,4.092,4.092,0,0,0-1.094-3,3.746,3.746,0,0,0-2.789-1.112A3.746,3.746,0,0,0-34.8,6.706a4.092,4.092,0,0,0-1.094,3A4.134,4.134,0,0,0-34.8,12.725Zm26.352,3.362h-2.639l-.838-9.611-3.23,9.611h-1.712L-20.1,6.477l-.847,9.611H-23.6l1.068-12.752h3.777l2.718,8,2.753-8H-9.5Zm2.771,0V3.335h2.648V16.087Zm11.587.177a7.118,7.118,0,0,1-2.6-.468A6.112,6.112,0,0,1,1.237,14.49,5.888,5.888,0,0,1-.122,12.416,7.231,7.231,0,0,1-.616,9.707,6.907,6.907,0,0,1,.231,6.243a5.768,5.768,0,0,1,2.325-2.29,6.963,6.963,0,0,1,3.349-.794A6.767,6.767,0,0,1,9.648,4.191a5.652,5.652,0,0,1,2.286,2.842l-2.471.9A3.493,3.493,0,0,0,8.094,6.212a3.907,3.907,0,0,0-2.189-.618A3.746,3.746,0,0,0,3.117,6.706a4.092,4.092,0,0,0-1.094,3,4.1,4.1,0,0,0,1.1,3,3.742,3.742,0,0,0,2.784,1.116,3.892,3.892,0,0,0,2.184-.622,3.509,3.509,0,0,0,1.372-1.725l2.471.9a5.675,5.675,0,0,1-2.286,2.846A6.745,6.745,0,0,1,5.906,16.264Zm13.847,0a6.932,6.932,0,0,1-3.349-.8,5.79,5.79,0,0,1-2.325-2.3,6.914,6.914,0,0,1-.847-3.459,6.907,6.907,0,0,1,.847-3.464A5.768,5.768,0,0,1,16.4,3.953a6.963,6.963,0,0,1,3.349-.794,6.937,6.937,0,0,1,3.345.794,5.775,5.775,0,0,1,2.321,2.29,6.907,6.907,0,0,1,.847,3.464,6.914,6.914,0,0,1-.847,3.459,5.79,5.79,0,0,1-2.325,2.3A6.913,6.913,0,0,1,19.752,16.264Zm-2.789-3.539a3.746,3.746,0,0,0,2.789,1.112,3.738,3.738,0,0,0,2.789-1.116,4.119,4.119,0,0,0,1.094-3.014,4.092,4.092,0,0,0-1.094-3,3.746,3.746,0,0,0-2.789-1.112,3.746,3.746,0,0,0-2.789,1.112,4.092,4.092,0,0,0-1.094,3A4.134,4.134,0,0,0,16.964,12.725Z" transform="translate(542.782 10940.482)" fill="#082143"/>
    <path id="Trazado_36860" data-name="Trazado 36860" d="M29.28,0H135.554a29.28,29.28,0,1,1,0,58.559H29.28A29.28,29.28,0,0,1,29.28,0Z" transform="translate(993.167 10909.578)" fill="#c1ffe9"/>
    <path id="Trazado_36865" data-name="Trazado 36865" d="M-57.378-15.377h-4.73v2.895h4.192v2.3h-4.192v2.886h4.73v2.339h-7.4V-17.707h7.4ZM-52-7.293h4v2.339h-6.645V-17.707H-52Zm13.414-8.084h-4.73v2.895h4.192v2.3H-43.32v2.886h4.73v2.339h-7.4V-17.707h7.4Zm7.89,10.6a7.118,7.118,0,0,1-2.6-.468,6.112,6.112,0,0,1-2.069-1.306,5.888,5.888,0,0,1-1.359-2.074,7.231,7.231,0,0,1-.494-2.709,6.907,6.907,0,0,1,.847-3.464,5.768,5.768,0,0,1,2.325-2.29,6.963,6.963,0,0,1,3.349-.794,6.767,6.767,0,0,1,3.742,1.033,5.652,5.652,0,0,1,2.286,2.842l-2.471.9a3.493,3.493,0,0,0-1.368-1.721,3.907,3.907,0,0,0-2.189-.618,3.746,3.746,0,0,0-2.789,1.112,4.092,4.092,0,0,0-1.094,3,4.1,4.1,0,0,0,1.1,3A3.742,3.742,0,0,0-30.7-7.214a3.892,3.892,0,0,0,2.184-.622,3.509,3.509,0,0,0,1.372-1.725l2.471.9a5.675,5.675,0,0,1-2.286,2.846A6.745,6.745,0,0,1-30.7-4.778Zm15.594-12.929v2.33h-3.027V-4.955h-2.621V-15.377H-23.8v-2.33ZM-6.369-4.955l-3.318-5.613h-.768v5.613H-13.1V-17.707h4.624a5.349,5.349,0,0,1,1.853.3,3.2,3.2,0,0,1,1.284.821,3.515,3.515,0,0,1,.724,1.2,4.406,4.406,0,0,1,.243,1.491,3.114,3.114,0,0,1-.7,2.1,3.513,3.513,0,0,1-2,1.1l3.839,5.745Zm-4.086-10.555v3.045h1.562q1.986,0,1.986-1.518A1.382,1.382,0,0,0-7.393-15.1a2.308,2.308,0,0,0-1.5-.406ZM4.027-4.778a6.932,6.932,0,0,1-3.349-.8,5.79,5.79,0,0,1-2.325-2.3,6.914,6.914,0,0,1-.847-3.459A6.907,6.907,0,0,1-1.647-14.8a5.768,5.768,0,0,1,2.325-2.29,6.963,6.963,0,0,1,3.349-.794,6.937,6.937,0,0,1,3.345.794A5.775,5.775,0,0,1,9.693-14.8a6.907,6.907,0,0,1,.847,3.464,6.914,6.914,0,0,1-.847,3.459,5.79,5.79,0,0,1-2.325,2.3A6.913,6.913,0,0,1,4.027-4.778ZM1.238-8.317A3.746,3.746,0,0,0,4.027-7.2,3.738,3.738,0,0,0,6.816-8.321,4.119,4.119,0,0,0,7.91-11.335a4.092,4.092,0,0,0-1.094-3,3.746,3.746,0,0,0-2.789-1.112,3.746,3.746,0,0,0-2.789,1.112,4.092,4.092,0,0,0-1.094,3A4.134,4.134,0,0,0,1.238-8.317ZM12.614-8.59v-2.127h6.328V-8.59ZM-74.658,4.7h2.639V17.457h-3.062l-5.648-9.116v9.116h-2.639V4.7h3.027l5.683,9.063Zm13.335,2.33h-4.73V9.929h4.192v2.3h-4.192v2.886h4.73v2.339h-7.4V4.7h7.4Zm7.757,10.6a6.9,6.9,0,0,1-2.546-.463,5.969,5.969,0,0,1-2.03-1.3A5.848,5.848,0,0,1-59.474,13.8a7.312,7.312,0,0,1-.481-2.692,7.289,7.289,0,0,1,.494-2.723A5.925,5.925,0,0,1-58.1,6.306,6.077,6.077,0,0,1-56.032,5a7.118,7.118,0,0,1,2.6-.468,6.95,6.95,0,0,1,3.314.781,5.68,5.68,0,0,1,2.3,2.22l-2.321,1.236a3.4,3.4,0,0,0-1.346-1.447,3.86,3.86,0,0,0-1.946-.485,3.7,3.7,0,0,0-2.784,1.121,4.276,4.276,0,0,0-1.081,3.1,4.409,4.409,0,0,0,1.077,3.115,3.74,3.74,0,0,0,2.886,1.165,4.265,4.265,0,0,0,1.553-.274,3.1,3.1,0,0,0,1.236-.887,3.213,3.213,0,0,0,.706-1.514h-3.486V10.529h5.992v6.928h-2.083V15.692A4.652,4.652,0,0,1-53.566,17.634Zm17.509-.177-.927-2.63H-42.34l-.927,2.63h-2.709L-41.281,4.7h3.239l4.695,12.752Zm-5.507-4.845h3.8l-1.9-5.41ZM-25.122,4.7v2.33h-3.027V17.457H-30.77V7.035h-3.045V4.7Zm2,12.752V4.7h2.648V17.457ZM-9.069,4.7h2.815l-4.713,12.752h-2.912L-18.565,4.7h2.806l3.345,9.663Zm4.73,12.752V4.7h2.648V17.457Zm5.939,0V4.7H6.216a7.2,7.2,0,0,1,2.661.459,4.9,4.9,0,0,1,1.906,1.3,5.663,5.663,0,0,1,1.13,2.008,8.289,8.289,0,0,1,.384,2.6,8.32,8.32,0,0,1-.384,2.612,5.663,5.663,0,0,1-1.13,2.008A4.9,4.9,0,0,1,8.876,17a7.2,7.2,0,0,1-2.661.459Zm2.648-2.339H6.083A3.133,3.133,0,0,0,8.66,14.081a4.648,4.648,0,0,0,.847-3,4.648,4.648,0,0,0-.847-3A3.133,3.133,0,0,0,6.083,7.035H4.248Zm18.427,2.339-.927-2.63H16.391l-.927,2.63H12.755L17.45,4.7h3.239l4.695,12.752Zm-5.507-4.845h3.8l-1.9-5.41ZM27.3,17.457V4.7h4.616a7.2,7.2,0,0,1,2.661.459,4.9,4.9,0,0,1,1.906,1.3,5.663,5.663,0,0,1,1.13,2.008,8.289,8.289,0,0,1,.384,2.6,8.319,8.319,0,0,1-.384,2.612,5.663,5.663,0,0,1-1.13,2.008A4.9,4.9,0,0,1,34.575,17a7.2,7.2,0,0,1-2.661.459Zm2.648-2.339h1.836a3.133,3.133,0,0,0,2.577-1.037,4.648,4.648,0,0,0,.847-3,4.648,4.648,0,0,0-.847-3,3.133,3.133,0,0,0-2.577-1.037H29.946Z" transform="translate(1099.403 10939.112)" fill="#082143"/>
    <g id="Grupo_15318" data-name="Grupo 15318" transform="translate(445.145 10778.148)">
      <path id="Trazado_37036" data-name="Trazado 37036" d="M2.587-2.991H.967v-7.8h1.62Zm3.013,0H3.98v-7.8H5.6Z" transform="translate(-0.967 10.796)" fill="#082143"/>
      <path id="Trazado_37035" data-name="Trazado 37035" d="M2.587-2.991H.967v-7.8h1.62Zm3.013,0H3.98v-7.8H5.6Zm3.013,0H6.993v-7.8h1.62Z" transform="translate(19.276 10.796)" fill="#082143"/>
      <path id="Trazado_37034" data-name="Trazado 37034" d="M2.587-2.991H.967v-7.8h1.62Zm6.089-7.8h1.694l-2.663,7.8H6.167L3.53-10.8H5.272L6.966-4.871Z" transform="translate(43.133 10.796)" fill="#082143"/>
      <path id="Trazado_37033" data-name="Trazado 37033" d="M5.491-10.8H7.185l-2.663,7.8H2.981L.344-10.8H2.086L3.781-4.871Z" transform="translate(68.609 10.796)" fill="#082143"/>
      <path id="Trazado_37032" data-name="Trazado 37032" d="M5.491-10.8H7.185l-2.663,7.8H2.981L.344-10.8H2.086L3.781-4.871Zm4.157,7.8H8.027v-7.8h1.62Z" transform="translate(89.575 10.796)" fill="#082143"/>
      <path id="Trazado_37031" data-name="Trazado 37031" d="M5.491-10.8H7.185l-2.663,7.8H2.981L.344-10.8H2.086L3.781-4.871Zm4.157,7.8H8.027v-7.8h1.62Zm3.013,0H11.04v-7.8h1.62Z" transform="translate(114.155 10.796)" fill="#082143"/>
      <path id="Trazado_37030" data-name="Trazado 37030" d="M5.491-10.8H7.185l-2.663,7.8H2.981L.344-10.8H2.086L3.781-4.871Zm4.157,7.8H8.027v-7.8h1.62Zm3.013,0H11.04v-7.8h1.62Zm3.013,0h-1.62v-7.8h1.62Z" transform="translate(142.35 10.796)" fill="#082143"/>
    </g>
    <g id="Grupo_15319" data-name="Grupo 15319" transform="translate(981.271 10777.063)">
      <text id="_1" data-name="1" transform="translate(0 8)" fill="#082143" font-size="11" font-family="SegoeUI-Bold, Segoe UI" font-weight="700"><tspan x="0" y="0">1</tspan></text>
      <text id="_2" data-name="2" transform="translate(23.557 8)" fill="#082143" font-size="11" font-family="SegoeUI-Bold, Segoe UI" font-weight="700"><tspan x="0" y="0">2</tspan></text>
      <text id="_3" data-name="3" transform="translate(47.113 8)" fill="#082143" font-size="11" font-family="SegoeUI-Bold, Segoe UI" font-weight="700"><tspan x="0" y="0">3</tspan></text>
      <text id="_4" data-name="4" transform="translate(70.67 8)" fill="#082143" font-size="11" font-family="SegoeUI-Bold, Segoe UI" font-weight="700"><tspan x="0" y="0">4</tspan></text>
      <text id="_5" data-name="5" transform="translate(95.251 8)" fill="#082143" font-size="11" font-family="SegoeUI-Bold, Segoe UI" font-weight="700"><tspan x="0" y="0">5</tspan></text>
      <text id="_5-2" data-name="5" transform="translate(118.807 8)" fill="#082143" font-size="11" font-family="SegoeUI-Bold, Segoe UI" font-weight="700"><tspan x="0" y="0">5</tspan></text>
      <text id="_7" data-name="7" transform="translate(142.364 8)" fill="#082143" font-size="11" font-family="SegoeUI-Bold, Segoe UI" font-weight="700"><tspan x="0" y="0">7</tspan></text>
    </g>
    <path id="Trazado_33780" data-name="Trazado 33780" d="M6210,95.8V299.477" transform="translate(-5501.676 10758.689)" fill="none" stroke="#082143" stroke-width="2"/>
    <path id="Trazado_33781" data-name="Trazado 33781" d="M6210,95.8V299.477" transform="translate(-5315.155 10758.689)" fill="none" stroke="#082143" stroke-width="2"/>
    <path id="Trazado_28315" data-name="Trazado 28315" d="M1937.734,3414.312h9.106v7.473h8.253v15.846h73.285v-15.846h39.595v-7.473h8.286v52.324h-104.9v9.563h-33.624Z" transform="translate(-1484.251 7672.866)" fill="#bdbef7"/>
    <path id="Trazado_33782" data-name="Trazado 33782" d="M1937.734,3414.312h9.106v7.473h8.253v15.846h73.285v-15.846h39.595v-7.473h8.286v52.324h-104.9v9.563h-33.624Z" transform="translate(-1298.453 7669.975)" fill="#f8c07b"/>
    <path id="Trazado_33783" data-name="Trazado 33783" d="M1937.734,3414.312h9.106v7.473h8.253v15.846h73.285v-15.846h39.595v-7.473h8.286v52.324h-104.9v9.563h-33.624Z" transform="translate(-1112.654 7667.083)" fill="#f3d2db"/>
    <path id="Trazado_33784" data-name="Trazado 33784" d="M1937.734,3414.312h9.106v7.473h8.253v15.846h73.285v-15.846h39.595v-7.473h8.286v52.324h-104.9v9.563h-33.624Z" transform="translate(-926.855 7667.083)" fill="#c6df9e"/>
    <path id="Trazado_36874" data-name="Trazado 36874" d="M6.407-3.532,4.235-7.343H2.909v3.811H1.834v-8.45h2.8a2.523,2.523,0,0,1,1.893.669,2.362,2.362,0,0,1,.651,1.719,2.2,2.2,0,0,1-.5,1.47,2.213,2.213,0,0,1-1.377.738L7.662-3.532Zm-3.5-7.507v2.851H4.493A1.769,1.769,0,0,0,5.729-8.57a1.338,1.338,0,0,0,.414-1.035,1.361,1.361,0,0,0-.417-1.044,1.745,1.745,0,0,0-1.233-.39Zm7.3,7.621a2.007,2.007,0,0,1-1.293-.405,1.455,1.455,0,0,1-.507-1.209A1.718,1.718,0,0,1,8.574-5.8a1.359,1.359,0,0,1,.48-.537,2.88,2.88,0,0,1,.693-.333,6.407,6.407,0,0,1,.9-.213l.954-.156q.522-.1.522-.546a1.031,1.031,0,0,0-.369-.879,1.5,1.5,0,0,0-.933-.279,1.532,1.532,0,0,0-.924.27,1.13,1.13,0,0,0-.438.828l-.936-.2A1.8,1.8,0,0,1,9.258-9.11a2.758,2.758,0,0,1,1.608-.423,3.262,3.262,0,0,1,.855.105,2.324,2.324,0,0,1,.714.33,1.48,1.48,0,0,1,.51.636,2.367,2.367,0,0,1,.183.969v2.436a1,1,0,0,0,.135.615.583.583,0,0,0,.465.159h.1v.75h-.516a.984.984,0,0,1-1.116-.8h-.048A2.254,2.254,0,0,1,10.212-3.418Zm.24-.84a1.574,1.574,0,0,0,1.266-.57,2.347,2.347,0,0,0,.48-1.56l-1.56.3a2.1,2.1,0,0,0-.915.327.761.761,0,0,0-.3.645.752.752,0,0,0,.285.648A1.219,1.219,0,0,0,10.452-4.258Zm9.074-8.492h1.038v9.218h-1l-.024-1.146a2.171,2.171,0,0,1-.84.93,2.341,2.341,0,0,1-1.248.342,2.651,2.651,0,0,1-1.068-.219,2.677,2.677,0,0,1-.879-.612,2.841,2.841,0,0,1-.594-.975,3.567,3.567,0,0,1-.219-1.266,3.1,3.1,0,0,1,.8-2.214,2.586,2.586,0,0,1,1.959-.852,2.351,2.351,0,0,1,1.233.333,2.183,2.183,0,0,1,.843.9Zm-1.86,8.444a1.766,1.766,0,0,0,1.371-.621,2.242,2.242,0,0,0,.555-1.551,2.237,2.237,0,0,0-.558-1.548,1.766,1.766,0,0,0-1.368-.624,1.805,1.805,0,0,0-1.38.6,2.219,2.219,0,0,0-.558,1.569,2.219,2.219,0,0,0,.558,1.569A1.805,1.805,0,0,0,17.665-4.306ZM23.2-10.818a.676.676,0,0,1-.5-.207.676.676,0,0,1-.207-.5.666.666,0,0,1,.207-.492.681.681,0,0,1,.5-.2.674.674,0,0,1,.489.2.666.666,0,0,1,.207.492.676.676,0,0,1-.207.5A.669.669,0,0,1,23.2-10.818Zm-.528,7.285v-5.9H23.72v5.9Zm5.641.114A3.11,3.11,0,0,1,26.8-3.784,2.665,2.665,0,0,1,25.74-4.856a3.29,3.29,0,0,1-.393-1.629,3.005,3.005,0,0,1,.837-2.223,2.89,2.89,0,0,1,2.133-.837,2.887,2.887,0,0,1,2.136.837,3.011,3.011,0,0,1,.834,2.223,3.013,3.013,0,0,1-.837,2.229A2.89,2.89,0,0,1,28.317-3.418Zm-.006-.864a1.812,1.812,0,0,0,1.4-.606,2.271,2.271,0,0,0,.555-1.6,2.263,2.263,0,0,0-.555-1.59,1.812,1.812,0,0,0-1.4-.606,1.787,1.787,0,0,0-1.383.606,2.278,2.278,0,0,0-.549,1.59,2.286,2.286,0,0,0,.549,1.6A1.787,1.787,0,0,0,28.311-4.282Zm9.158.864a2.007,2.007,0,0,1-1.293-.405,1.455,1.455,0,0,1-.507-1.209,1.718,1.718,0,0,1,.162-.771,1.359,1.359,0,0,1,.48-.537A2.88,2.88,0,0,1,37-6.674a6.407,6.407,0,0,1,.9-.213l.954-.156q.522-.1.522-.546a1.031,1.031,0,0,0-.369-.879,1.5,1.5,0,0,0-.933-.279,1.532,1.532,0,0,0-.924.27,1.13,1.13,0,0,0-.438.828l-.936-.2a1.8,1.8,0,0,1,.738-1.263,2.758,2.758,0,0,1,1.608-.423,3.262,3.262,0,0,1,.855.105,2.324,2.324,0,0,1,.714.33,1.48,1.48,0,0,1,.51.636,2.367,2.367,0,0,1,.183.969v2.436a1,1,0,0,0,.135.615.583.583,0,0,0,.465.159h.1v.75h-.516a.984.984,0,0,1-1.116-.8H39.4A2.254,2.254,0,0,1,37.469-3.418Zm.24-.84a1.574,1.574,0,0,0,1.266-.57,2.347,2.347,0,0,0,.48-1.56l-1.56.3a2.1,2.1,0,0,0-.915.327.761.761,0,0,0-.3.645.752.752,0,0,0,.285.648A1.219,1.219,0,0,0,37.709-4.258Zm6.685.726a1.551,1.551,0,0,1-1.152-.423,1.6,1.6,0,0,1-.42-1.179V-8.6H41.616v-.828h.444a.853.853,0,0,0,.651-.207,1.019,1.019,0,0,0,.189-.693V-11.4h.966v1.968h1.356V-8.6H43.866v3.361a.894.894,0,0,0,.225.651.788.788,0,0,0,.591.231h.54v.828Zm4.345-6.913L50.245-12.4l.552.4-1.344,1.554Zm.4,7.027a3.11,3.11,0,0,1-1.512-.366,2.665,2.665,0,0,1-1.065-1.071,3.29,3.29,0,0,1-.393-1.629A3.005,3.005,0,0,1,47-8.708a2.89,2.89,0,0,1,2.133-.837,2.887,2.887,0,0,1,2.136.837,3.011,3.011,0,0,1,.834,2.223,3.013,3.013,0,0,1-.837,2.229A2.89,2.89,0,0,1,49.135-3.418Zm-.006-.864a1.812,1.812,0,0,0,1.4-.606,2.271,2.271,0,0,0,.555-1.6,2.263,2.263,0,0,0-.555-1.59,1.812,1.812,0,0,0-1.4-.606,1.787,1.787,0,0,0-1.383.606,2.278,2.278,0,0,0-.549,1.59,2.286,2.286,0,0,0,.549,1.6A1.787,1.787,0,0,0,49.129-4.282ZM59.763-9.545a1.9,1.9,0,0,1,1.374.5,1.859,1.859,0,0,1,.522,1.407v4.1H60.621V-7.367a1.333,1.333,0,0,0-.324-.972,1.1,1.1,0,0,0-.822-.33,1.165,1.165,0,0,0-.9.372,1.6,1.6,0,0,0-.342,1.116v3.649H57.176V-7.325a1.394,1.394,0,0,0-.327-1.005,1.112,1.112,0,0,0-.837-.339,1.154,1.154,0,0,0-.9.381,1.655,1.655,0,0,0-.345,1.143v3.613H53.732v-5.9H54.77v.762a1.792,1.792,0,0,1,.675-.648,1.925,1.925,0,0,1,.939-.228,2,2,0,0,1,1.008.249,1.55,1.55,0,0,1,.654.717,1.836,1.836,0,0,1,.708-.717A2.025,2.025,0,0,1,59.763-9.545ZM64.2-10.818a.676.676,0,0,1-.5-.207.676.676,0,0,1-.207-.5.666.666,0,0,1,.207-.492.681.681,0,0,1,.5-.2.674.674,0,0,1,.489.2.666.666,0,0,1,.207.492.676.676,0,0,1-.207.5A.669.669,0,0,1,64.2-10.818Zm-.528,7.285v-5.9h1.044v5.9Zm5.605.108a2.841,2.841,0,0,1-2.112-.846,3.018,3.018,0,0,1-.834-2.214A3.024,3.024,0,0,1,67.159-8.7a2.839,2.839,0,0,1,2.115-.846,2.862,2.862,0,0,1,1.707.516A2.6,2.6,0,0,1,71.975-7.6L71-7.439a1.8,1.8,0,0,0-.666-.918,1.814,1.814,0,0,0-1.068-.324,1.744,1.744,0,0,0-1.365.606,2.309,2.309,0,0,0-.537,1.59A2.3,2.3,0,0,0,67.9-4.9a1.748,1.748,0,0,0,1.365.6,1.814,1.814,0,0,0,1.068-.324A1.8,1.8,0,0,0,71-5.537l.972.162a2.607,2.607,0,0,1-1,1.431A2.858,2.858,0,0,1,69.274-3.424Zm6.715.006a3.11,3.11,0,0,1-1.512-.366,2.665,2.665,0,0,1-1.065-1.071,3.29,3.29,0,0,1-.393-1.629,3.005,3.005,0,0,1,.837-2.223,2.89,2.89,0,0,1,2.133-.837,2.887,2.887,0,0,1,2.136.837,3.011,3.011,0,0,1,.834,2.223,3.013,3.013,0,0,1-.837,2.229A2.89,2.89,0,0,1,75.99-3.418Zm-.006-.864a1.812,1.812,0,0,0,1.4-.606,2.271,2.271,0,0,0,.555-1.6,2.263,2.263,0,0,0-.555-1.59,1.812,1.812,0,0,0-1.4-.606,1.787,1.787,0,0,0-1.383.606,2.278,2.278,0,0,0-.549,1.59,2.286,2.286,0,0,0,.549,1.6A1.787,1.787,0,0,0,75.984-4.282Z" transform="translate(480.085 11129.996)" fill="#082143"/>
    <path id="Trazado_36872" data-name="Trazado 36872" d="M6.889-3.532,6.163-5.555H2.34L1.62-3.532H.5l3.115-8.45H4.9l3.115,8.45ZM2.682-6.5H5.827L4.255-10.9Zm7.051-4.165a3.392,3.392,0,0,1,.063-.687,2.229,2.229,0,0,1,.168-.519,1.233,1.233,0,0,1,.279-.375,1.642,1.642,0,0,1,.363-.255,1.8,1.8,0,0,1,.447-.15,4.2,4.2,0,0,1,.507-.075q.249-.021.573-.021v.87h-.225q-.069,0-.216.012a1.385,1.385,0,0,0-.216.03q-.069.018-.186.06a.475.475,0,0,0-.177.1q-.06.06-.138.153a.627.627,0,0,0-.117.216,2.065,2.065,0,0,0-.066.288,2.3,2.3,0,0,0-.027.369v1.218h1.368V-8.6H10.766v5.071H9.734V-8.6H8.593v-.828h1.14Zm4.129-.15a.676.676,0,0,1-.5-.207.676.676,0,0,1-.207-.5.666.666,0,0,1,.207-.492.681.681,0,0,1,.5-.2.674.674,0,0,1,.489.2.666.666,0,0,1,.207.492.676.676,0,0,1-.207.5A.669.669,0,0,1,13.862-10.818Zm-.528,7.285v-5.9h1.044v5.9Zm5.941-6.013a2.052,2.052,0,0,1,1.485.534,1.992,1.992,0,0,1,.555,1.506v3.973H20.278V-7.271a1.4,1.4,0,0,0-.36-1.056,1.287,1.287,0,0,0-.924-.342,1.427,1.427,0,0,0-1.05.405,1.644,1.644,0,0,0-.414,1.2v3.529H16.491v-5.9h1.038v.756A1.97,1.97,0,0,1,19.275-9.545Zm4.573-1.272a.676.676,0,0,1-.5-.207.676.676,0,0,1-.207-.5.666.666,0,0,1,.207-.492.681.681,0,0,1,.5-.2.674.674,0,0,1,.489.2.666.666,0,0,1,.207.492.676.676,0,0,1-.207.5A.669.669,0,0,1,23.848-10.818ZM23.32-3.532v-5.9h1.044v5.9Zm7.513-9.218h1.038v9.218h-1l-.024-1.146a2.171,2.171,0,0,1-.84.93,2.341,2.341,0,0,1-1.248.342,2.651,2.651,0,0,1-1.068-.219,2.677,2.677,0,0,1-.879-.612,2.841,2.841,0,0,1-.594-.975A3.567,3.567,0,0,1,26-6.479a3.1,3.1,0,0,1,.8-2.214,2.586,2.586,0,0,1,1.959-.852,2.351,2.351,0,0,1,1.233.333,2.183,2.183,0,0,1,.843.9Zm-1.86,8.444a1.766,1.766,0,0,0,1.371-.621A2.242,2.242,0,0,0,30.9-6.479a2.237,2.237,0,0,0-.558-1.548,1.766,1.766,0,0,0-1.368-.624,1.805,1.805,0,0,0-1.38.6,2.219,2.219,0,0,0-.558,1.569,2.219,2.219,0,0,0,.558,1.569A1.805,1.805,0,0,0,28.973-4.306Zm6.373.888a2.007,2.007,0,0,1-1.293-.405,1.455,1.455,0,0,1-.507-1.209,1.718,1.718,0,0,1,.162-.771,1.359,1.359,0,0,1,.48-.537,2.88,2.88,0,0,1,.693-.333,6.407,6.407,0,0,1,.9-.213l.954-.156q.522-.1.522-.546a1.031,1.031,0,0,0-.369-.879,1.5,1.5,0,0,0-.933-.279,1.532,1.532,0,0,0-.924.27,1.13,1.13,0,0,0-.438.828l-.936-.2a1.8,1.8,0,0,1,.738-1.263A2.758,2.758,0,0,1,36-9.533a3.262,3.262,0,0,1,.855.105,2.324,2.324,0,0,1,.714.33,1.48,1.48,0,0,1,.51.636,2.367,2.367,0,0,1,.183.969v2.436a1,1,0,0,0,.135.615.583.583,0,0,0,.465.159h.1v.75h-.516a.984.984,0,0,1-1.116-.8h-.048A2.254,2.254,0,0,1,35.346-3.418Zm.24-.84a1.574,1.574,0,0,0,1.266-.57,2.347,2.347,0,0,0,.48-1.56l-1.56.3a2.1,2.1,0,0,0-.915.327.761.761,0,0,0-.3.645.752.752,0,0,0,.285.648A1.219,1.219,0,0,0,35.586-4.258ZM44.66-12.75H45.7v9.218h-1l-.024-1.146a2.171,2.171,0,0,1-.84.93,2.341,2.341,0,0,1-1.248.342,2.651,2.651,0,0,1-1.068-.219,2.677,2.677,0,0,1-.879-.612,2.841,2.841,0,0,1-.594-.975,3.567,3.567,0,0,1-.219-1.266,3.1,3.1,0,0,1,.8-2.214,2.586,2.586,0,0,1,1.959-.852,2.351,2.351,0,0,1,1.233.333,2.183,2.183,0,0,1,.843.9ZM42.8-4.306a1.766,1.766,0,0,0,1.371-.621,2.242,2.242,0,0,0,.555-1.551,2.237,2.237,0,0,0-.558-1.548A1.766,1.766,0,0,0,42.8-8.651a1.805,1.805,0,0,0-1.38.6,2.219,2.219,0,0,0-.558,1.569,2.219,2.219,0,0,0,.558,1.569A1.805,1.805,0,0,0,42.8-4.306ZM56.164-6.6l-.012.282H51.543a2.085,2.085,0,0,0,.564,1.509,1.852,1.852,0,0,0,1.344.525,1.769,1.769,0,0,0,.978-.282,1.83,1.83,0,0,0,.672-.78l.936.2A2.661,2.661,0,0,1,55.03-3.88a2.751,2.751,0,0,1-1.566.462,2.85,2.85,0,0,1-2.124-.822,3.058,3.058,0,0,1-.81-2.244,3.044,3.044,0,0,1,.813-2.238,2.814,2.814,0,0,1,2.091-.822,2.663,2.663,0,0,1,1.983.756A2.988,2.988,0,0,1,56.164-6.6Zm-2.73-2.148a1.84,1.84,0,0,0-1.227.417,1.911,1.911,0,0,0-.621,1.215H55.12A1.753,1.753,0,0,0,54.6-8.33,1.667,1.667,0,0,0,53.433-8.747ZM57.79-3.532V-12.75h1.05v9.218ZM66.114-6.6l-.012.282H61.493a2.085,2.085,0,0,0,.564,1.509,1.852,1.852,0,0,0,1.344.525,1.769,1.769,0,0,0,.978-.282,1.83,1.83,0,0,0,.672-.78l.936.2A2.661,2.661,0,0,1,64.98-3.88a2.751,2.751,0,0,1-1.566.462,2.85,2.85,0,0,1-2.124-.822,3.058,3.058,0,0,1-.81-2.244,3.044,3.044,0,0,1,.813-2.238,2.814,2.814,0,0,1,2.091-.822,2.663,2.663,0,0,1,1.983.756A2.988,2.988,0,0,1,66.114-6.6Zm-2.73-2.148a1.84,1.84,0,0,0-1.227.417,1.911,1.911,0,0,0-.621,1.215H65.07a1.753,1.753,0,0,0-.516-1.215A1.667,1.667,0,0,0,63.383-8.747Zm6.805,5.323a2.841,2.841,0,0,1-2.112-.846,3.018,3.018,0,0,1-.834-2.214A3.024,3.024,0,0,1,68.073-8.7a2.839,2.839,0,0,1,2.115-.846,2.862,2.862,0,0,1,1.707.516A2.6,2.6,0,0,1,72.889-7.6l-.972.156a1.8,1.8,0,0,0-.666-.918,1.814,1.814,0,0,0-1.068-.324,1.744,1.744,0,0,0-1.365.606,2.309,2.309,0,0,0-.537,1.59A2.3,2.3,0,0,0,68.817-4.9a1.748,1.748,0,0,0,1.365.6,1.814,1.814,0,0,0,1.068-.324,1.8,1.8,0,0,0,.666-.918l.972.162a2.607,2.607,0,0,1-1,1.431A2.857,2.857,0,0,1,70.188-3.424ZM76.3-3.532a1.551,1.551,0,0,1-1.152-.423,1.6,1.6,0,0,1-.42-1.179V-8.6H73.525v-.828h.444a.852.852,0,0,0,.651-.207,1.019,1.019,0,0,0,.189-.693V-11.4h.966v1.968h1.356V-8.6H75.775v3.361A.894.894,0,0,0,76-4.592a.788.788,0,0,0,.591.231h.54v.828Zm3.343-4.861a1.783,1.783,0,0,1,.732-.792A2.2,2.2,0,0,1,81.512-9.5v.978a1.944,1.944,0,0,0-1.371.438,1.83,1.83,0,0,0-.471,1.4v3.151H78.632v-5.9h1.014Zm5.1-2.052L86.253-12.4l.552.4-1.344,1.554Zm.4,7.027a3.11,3.11,0,0,1-1.512-.366,2.665,2.665,0,0,1-1.065-1.071,3.29,3.29,0,0,1-.393-1.629,3.005,3.005,0,0,1,.837-2.223,2.89,2.89,0,0,1,2.133-.837,2.887,2.887,0,0,1,2.136.837,3.011,3.011,0,0,1,.834,2.223,3.013,3.013,0,0,1-.837,2.229A2.89,2.89,0,0,1,85.143-3.418Zm-.006-.864a1.812,1.812,0,0,0,1.4-.606,2.271,2.271,0,0,0,.555-1.6,2.263,2.263,0,0,0-.555-1.59,1.812,1.812,0,0,0-1.4-.606,1.787,1.787,0,0,0-1.383.606,2.278,2.278,0,0,0-.549,1.59,2.286,2.286,0,0,0,.549,1.6A1.787,1.787,0,0,0,85.137-4.282Zm7.387-5.263a2.052,2.052,0,0,1,1.485.534,1.992,1.992,0,0,1,.555,1.506v3.973H93.527V-7.271a1.4,1.4,0,0,0-.36-1.056,1.287,1.287,0,0,0-.924-.342,1.427,1.427,0,0,0-1.05.405,1.644,1.644,0,0,0-.414,1.2v3.529H89.74v-5.9h1.038v.756A1.97,1.97,0,0,1,92.524-9.545ZM97.1-10.818a.676.676,0,0,1-.5-.207.676.676,0,0,1-.207-.5.666.666,0,0,1,.207-.492.681.681,0,0,1,.5-.2.674.674,0,0,1,.489.2.666.666,0,0,1,.207.492.676.676,0,0,1-.207.5A.669.669,0,0,1,97.1-10.818Zm-.528,7.285v-5.9h1.044v5.9Zm5.6.108a2.841,2.841,0,0,1-2.112-.846,3.018,3.018,0,0,1-.834-2.214,3.024,3.024,0,0,1,.831-2.214,2.839,2.839,0,0,1,2.115-.846,2.862,2.862,0,0,1,1.707.516,2.6,2.6,0,0,1,.993,1.434l-.972.156a1.8,1.8,0,0,0-.666-.918,1.814,1.814,0,0,0-1.068-.324,1.744,1.744,0,0,0-1.365.606,2.309,2.309,0,0,0-.537,1.59A2.3,2.3,0,0,0,100.8-4.9a1.748,1.748,0,0,0,1.365.6,1.814,1.814,0,0,0,1.068-.324,1.8,1.8,0,0,0,.666-.918l.972.162a2.607,2.607,0,0,1-1,1.431A2.857,2.857,0,0,1,102.174-3.424Zm5.593.006a2.007,2.007,0,0,1-1.293-.405,1.455,1.455,0,0,1-.507-1.209,1.718,1.718,0,0,1,.162-.771,1.359,1.359,0,0,1,.48-.537,2.88,2.88,0,0,1,.693-.333,6.407,6.407,0,0,1,.9-.213l.954-.156q.522-.1.522-.546a1.031,1.031,0,0,0-.369-.879,1.5,1.5,0,0,0-.933-.279,1.532,1.532,0,0,0-.924.27,1.13,1.13,0,0,0-.438.828l-.936-.2a1.8,1.8,0,0,1,.738-1.263,2.758,2.758,0,0,1,1.608-.423,3.262,3.262,0,0,1,.855.105,2.324,2.324,0,0,1,.714.33,1.48,1.48,0,0,1,.51.636,2.367,2.367,0,0,1,.183.969v2.436a1,1,0,0,0,.135.615.583.583,0,0,0,.465.159h.1v.75h-.516a.984.984,0,0,1-1.116-.8H109.7A2.254,2.254,0,0,1,107.767-3.418Zm.24-.84a1.574,1.574,0,0,0,1.266-.57,2.347,2.347,0,0,0,.48-1.56l-1.56.3a2.1,2.1,0,0,0-.915.327.761.761,0,0,0-.3.645.752.752,0,0,0,.285.648A1.219,1.219,0,0,0,108.007-4.258Z" transform="translate(656.133 11127.104)" fill="#082143"/>
    <path id="Trazado_36871" data-name="Trazado 36871" d="M6.365-11H2.933v2.766H5.957v.966H2.933v2.76H6.365v.978H1.834v-8.45H6.365ZM8.154-3.532V-12.75H9.2v9.218ZM16.477-6.6l-.012.282H11.856a2.085,2.085,0,0,0,.564,1.509,1.852,1.852,0,0,0,1.344.525,1.769,1.769,0,0,0,.978-.282,1.83,1.83,0,0,0,.672-.78l.936.2A2.661,2.661,0,0,1,15.343-3.88a2.751,2.751,0,0,1-1.566.462,2.85,2.85,0,0,1-2.124-.822,3.058,3.058,0,0,1-.81-2.244,3.044,3.044,0,0,1,.813-2.238,2.814,2.814,0,0,1,2.091-.822,2.663,2.663,0,0,1,1.983.756A2.988,2.988,0,0,1,16.477-6.6Zm-2.73-2.148a1.84,1.84,0,0,0-1.227.417A1.911,1.911,0,0,0,11.9-7.115h3.535a1.753,1.753,0,0,0-.516-1.215A1.667,1.667,0,0,0,13.747-8.747Zm6.805,5.323a2.841,2.841,0,0,1-2.112-.846,3.018,3.018,0,0,1-.834-2.214A3.024,3.024,0,0,1,18.436-8.7a2.839,2.839,0,0,1,2.115-.846,2.862,2.862,0,0,1,1.707.516A2.6,2.6,0,0,1,23.252-7.6l-.972.156a1.8,1.8,0,0,0-.666-.918,1.814,1.814,0,0,0-1.068-.324,1.744,1.744,0,0,0-1.365.606,2.309,2.309,0,0,0-.537,1.59A2.3,2.3,0,0,0,19.181-4.9a1.748,1.748,0,0,0,1.365.6,1.814,1.814,0,0,0,1.068-.324,1.8,1.8,0,0,0,.666-.918l.972.162a2.607,2.607,0,0,1-1,1.431A2.858,2.858,0,0,1,20.552-3.424Zm6.115-.108a1.551,1.551,0,0,1-1.152-.423,1.6,1.6,0,0,1-.42-1.179V-8.6H23.888v-.828h.444a.853.853,0,0,0,.651-.207,1.019,1.019,0,0,0,.189-.693V-11.4h.966v1.968H27.5V-8.6H26.139v3.361a.894.894,0,0,0,.225.651.788.788,0,0,0,.591.231h.54v.828Zm3.343-4.861a1.783,1.783,0,0,1,.732-.792A2.2,2.2,0,0,1,31.876-9.5v.978a1.944,1.944,0,0,0-1.371.438,1.83,1.83,0,0,0-.471,1.4v3.151H29v-5.9h1.014Zm5.5,4.975a3.11,3.11,0,0,1-1.512-.366,2.665,2.665,0,0,1-1.065-1.071,3.29,3.29,0,0,1-.393-1.629,3.005,3.005,0,0,1,.837-2.223,2.89,2.89,0,0,1,2.133-.837,2.887,2.887,0,0,1,2.136.837,3.011,3.011,0,0,1,.834,2.223,3.013,3.013,0,0,1-.837,2.229A2.89,2.89,0,0,1,35.506-3.418ZM35.5-4.282a1.812,1.812,0,0,0,1.4-.606,2.271,2.271,0,0,0,.555-1.6,2.263,2.263,0,0,0-.555-1.59,1.812,1.812,0,0,0-1.4-.606,1.787,1.787,0,0,0-1.383.606,2.278,2.278,0,0,0-.549,1.59,2.286,2.286,0,0,0,.549,1.6A1.787,1.787,0,0,0,35.5-4.282Zm7.387-5.263a2.052,2.052,0,0,1,1.485.534,1.992,1.992,0,0,1,.555,1.506v3.973H43.89V-7.271a1.4,1.4,0,0,0-.36-1.056,1.287,1.287,0,0,0-.924-.342,1.427,1.427,0,0,0-1.05.405,1.644,1.644,0,0,0-.414,1.2v3.529H40.1v-5.9h1.038v.756A1.97,1.97,0,0,1,42.888-9.545ZM52.093-6.6l-.012.282H47.473a2.085,2.085,0,0,0,.564,1.509,1.852,1.852,0,0,0,1.344.525,1.769,1.769,0,0,0,.978-.282,1.83,1.83,0,0,0,.672-.78l.936.2A2.661,2.661,0,0,1,50.959-3.88a2.751,2.751,0,0,1-1.566.462,2.85,2.85,0,0,1-2.124-.822,3.058,3.058,0,0,1-.81-2.244,3.044,3.044,0,0,1,.813-2.238,2.814,2.814,0,0,1,2.091-.822,2.663,2.663,0,0,1,1.983.756A2.988,2.988,0,0,1,52.093-6.6Zm-2.73-2.148a1.84,1.84,0,0,0-1.227.417,1.911,1.911,0,0,0-.621,1.215h3.535a1.753,1.753,0,0,0-.516-1.215A1.667,1.667,0,0,0,49.363-8.747Zm8.63-.684H59v5.6a3.213,3.213,0,0,1-.762,2.3,2.771,2.771,0,0,1-2.112.8,2.789,2.789,0,0,1-2.863-1.806l.858-.42A1.95,1.95,0,0,0,56.1-1.594a1.693,1.693,0,0,0,1.383-.576,2.452,2.452,0,0,0,.477-1.608V-4.871a2.079,2.079,0,0,1-.84.849,2.444,2.444,0,0,1-1.23.321,2.529,2.529,0,0,1-1.908-.831,2.931,2.931,0,0,1-.786-2.1,2.9,2.9,0,0,1,.789-2.091A2.554,2.554,0,0,1,55.9-9.545a2.383,2.383,0,0,1,1.236.33,2.125,2.125,0,0,1,.834.87ZM56.12-4.583a1.785,1.785,0,0,0,1.359-.606,2.048,2.048,0,0,0,.561-1.44,2.062,2.062,0,0,0-.558-1.446,1.782,1.782,0,0,0-1.362-.606,1.8,1.8,0,0,0-1.359.588,2.051,2.051,0,0,0-.555,1.464,2.033,2.033,0,0,0,.561,1.455A1.8,1.8,0,0,0,56.12-4.583Zm6.355,1.164a2.007,2.007,0,0,1-1.293-.405,1.455,1.455,0,0,1-.507-1.209,1.718,1.718,0,0,1,.162-.771,1.359,1.359,0,0,1,.48-.537,2.88,2.88,0,0,1,.693-.333,6.407,6.407,0,0,1,.9-.213l.954-.156q.522-.1.522-.546a1.031,1.031,0,0,0-.369-.879,1.5,1.5,0,0,0-.933-.279,1.532,1.532,0,0,0-.924.27,1.13,1.13,0,0,0-.438.828l-.936-.2a1.8,1.8,0,0,1,.738-1.263,2.758,2.758,0,0,1,1.608-.423,3.262,3.262,0,0,1,.855.105,2.324,2.324,0,0,1,.714.33,1.48,1.48,0,0,1,.51.636,2.367,2.367,0,0,1,.183.969v2.436a1,1,0,0,0,.135.615.583.583,0,0,0,.465.159h.1v.75h-.516a.984.984,0,0,1-1.116-.8h-.048A2.254,2.254,0,0,1,62.475-3.418Zm.24-.84a1.574,1.574,0,0,0,1.266-.57,2.347,2.347,0,0,0,.48-1.56l-1.56.3a2.1,2.1,0,0,0-.915.327.761.761,0,0,0-.3.645.752.752,0,0,0,.285.648A1.219,1.219,0,0,0,62.715-4.258Zm6.685.726a1.551,1.551,0,0,1-1.152-.423,1.6,1.6,0,0,1-.42-1.179V-8.6H66.622v-.828h.444a.852.852,0,0,0,.651-.207,1.019,1.019,0,0,0,.189-.693V-11.4h.966v1.968h1.356V-8.6H68.872v3.361a.894.894,0,0,0,.225.651.788.788,0,0,0,.591.231h.54v.828Zm2.857-7.285a.676.676,0,0,1-.5-.207.676.676,0,0,1-.207-.5.666.666,0,0,1,.207-.492.681.681,0,0,1,.5-.2.674.674,0,0,1,.489.2.666.666,0,0,1,.207.492.676.676,0,0,1-.207.5A.669.669,0,0,1,72.257-10.818Zm-.528,7.285v-5.9h1.044v5.9Zm6.835-5.9h1.11l-2.4,5.9h-.882L74-9.431h1.1l1.728,4.693Zm2.869-1.386a.676.676,0,0,1-.5-.207.676.676,0,0,1-.207-.5.666.666,0,0,1,.207-.492.681.681,0,0,1,.5-.2.674.674,0,0,1,.489.2.666.666,0,0,1,.207.492.676.676,0,0,1-.207.5A.669.669,0,0,1,81.433-10.818ZM80.9-3.532v-5.9h1.044v5.9Zm7.513-9.218h1.038v9.218h-1L88.43-4.679a2.171,2.171,0,0,1-.84.93,2.341,2.341,0,0,1-1.248.342,2.651,2.651,0,0,1-1.068-.219,2.677,2.677,0,0,1-.879-.612,2.84,2.84,0,0,1-.594-.975,3.567,3.567,0,0,1-.219-1.266,3.1,3.1,0,0,1,.8-2.214,2.586,2.586,0,0,1,1.959-.852,2.351,2.351,0,0,1,1.233.333,2.183,2.183,0,0,1,.843.9Zm-1.86,8.444a1.766,1.766,0,0,0,1.371-.621,2.242,2.242,0,0,0,.555-1.551,2.238,2.238,0,0,0-.558-1.548,1.766,1.766,0,0,0-1.368-.624,1.805,1.805,0,0,0-1.38.6,2.219,2.219,0,0,0-.558,1.569,2.219,2.219,0,0,0,.558,1.569A1.805,1.805,0,0,0,86.558-4.306Zm6.373.888a2.007,2.007,0,0,1-1.293-.405,1.455,1.455,0,0,1-.507-1.209,1.718,1.718,0,0,1,.162-.771,1.359,1.359,0,0,1,.48-.537,2.88,2.88,0,0,1,.693-.333,6.407,6.407,0,0,1,.9-.213l.954-.156q.522-.1.522-.546a1.031,1.031,0,0,0-.369-.879,1.5,1.5,0,0,0-.933-.279,1.532,1.532,0,0,0-.924.27,1.13,1.13,0,0,0-.438.828l-.936-.2a1.8,1.8,0,0,1,.738-1.263,2.758,2.758,0,0,1,1.608-.423,3.262,3.262,0,0,1,.855.105,2.324,2.324,0,0,1,.714.33,1.48,1.48,0,0,1,.51.636,2.367,2.367,0,0,1,.183.969v2.436a1,1,0,0,0,.135.615.583.583,0,0,0,.465.159h.1v.75h-.516a.984.984,0,0,1-1.116-.8h-.048A2.254,2.254,0,0,1,92.931-3.418Zm.24-.84a1.574,1.574,0,0,0,1.266-.57,2.347,2.347,0,0,0,.48-1.56l-1.56.3a2.1,2.1,0,0,0-.915.327.761.761,0,0,0-.3.645.752.752,0,0,0,.285.648A1.219,1.219,0,0,0,93.171-4.258Zm9.074-8.492h1.038v9.218h-1l-.024-1.146a2.171,2.171,0,0,1-.84.93,2.341,2.341,0,0,1-1.248.342A2.651,2.651,0,0,1,99.1-3.625a2.677,2.677,0,0,1-.879-.612,2.84,2.84,0,0,1-.594-.975,3.567,3.567,0,0,1-.219-1.266,3.1,3.1,0,0,1,.8-2.214,2.586,2.586,0,0,1,1.959-.852,2.351,2.351,0,0,1,1.233.333,2.183,2.183,0,0,1,.843.9Zm-1.86,8.444a1.766,1.766,0,0,0,1.371-.621,2.242,2.242,0,0,0,.555-1.551,2.238,2.238,0,0,0-.558-1.548,1.766,1.766,0,0,0-1.368-.624,1.805,1.805,0,0,0-1.38.6,2.219,2.219,0,0,0-.558,1.569A2.219,2.219,0,0,0,99-4.91,1.805,1.805,0,0,0,100.384-4.306Z" transform="translate(1029.529 11124.212)" fill="#082143"/>
    <path id="Trazado_36870" data-name="Trazado 36870" d="M2.227,26.749V5.183H0L3.976,0,7.952,5.183H5.567V26.749Z" transform="translate(1013.41 11099.714)" fill="url(#linear-gradient)"/>
    <path id="Trazado_36875" data-name="Trazado 36875" d="M2.341,61.548V5.184H0L4.181,0,8.362,5.184H5.853V61.548Z" transform="translate(1143.298 11124.188) rotate(90)" fill="url(#linear-gradient-2)"/>
    <path id="Trazado_36861" data-name="Trazado 36861" d="M29.28,0H135.554a29.28,29.28,0,1,1,0,58.559H29.28A29.28,29.28,0,0,1,29.28,0Z" transform="translate(625.907 10909.578)" fill="#c1ffe9"/>
    <path id="Trazado_36866" data-name="Trazado 36866" d="M-57.37-4.887l-.927-2.63h-5.357l-.927,2.63h-2.709l4.695-12.752h3.239l4.695,12.752Zm-5.507-4.845h3.8l-1.9-5.41Zm17.65-5.577H-50.08v2.895h4.192v2.3H-50.08v5.224h-2.665V-17.639h7.519Zm2.259,10.422V-17.639h2.648V-4.887Zm14.65-12.752h2.639V-4.887h-3.062L-34.389-14v9.116h-2.639V-17.639H-34l5.683,9.063Zm5.939,12.752V-17.639h2.648V-4.887Zm5.939,0V-17.639h4.616a7.2,7.2,0,0,1,2.661.459,4.9,4.9,0,0,1,1.906,1.3,5.663,5.663,0,0,1,1.13,2.008,8.289,8.289,0,0,1,.384,2.6,8.32,8.32,0,0,1-.384,2.612,5.663,5.663,0,0,1-1.13,2.008,4.9,4.9,0,0,1-1.906,1.3,7.2,7.2,0,0,1-2.661.459Zm2.648-2.339h1.836A3.133,3.133,0,0,0-9.379-8.262a4.648,4.648,0,0,0,.847-3,4.648,4.648,0,0,0-.847-3,3.133,3.133,0,0,0-2.577-1.037h-1.836ZM4.635-4.887l-.927-2.63H-1.648l-.927,2.63H-5.284L-.589-17.639H2.65L7.345-4.887ZM-.872-9.732h3.8l-1.9-5.41ZM9.26-4.887V-17.639h4.616a7.2,7.2,0,0,1,2.661.459,4.9,4.9,0,0,1,1.906,1.3,5.663,5.663,0,0,1,1.13,2.008,8.289,8.289,0,0,1,.384,2.6,8.32,8.32,0,0,1-.384,2.612,5.663,5.663,0,0,1-1.13,2.008,4.9,4.9,0,0,1-1.906,1.3,7.2,7.2,0,0,1-2.661.459Zm2.648-2.339h1.836A3.133,3.133,0,0,0,16.32-8.262a4.648,4.648,0,0,0,.847-3,4.648,4.648,0,0,0-.847-3,3.133,3.133,0,0,0-2.577-1.037H11.907ZM-77.01,7.1h-4.73V10h4.192v2.3H-81.74v2.886h4.73v2.339h-7.4V4.772h7.4Zm5.374,8.084h4v2.339h-6.645V4.772h2.648ZM-58.221,7.1h-4.73V10h4.192v2.3h-4.192v2.886h4.73v2.339h-7.4V4.772h7.4Zm7.89,10.6a7.118,7.118,0,0,1-2.6-.468A6.112,6.112,0,0,1-55,15.927a5.888,5.888,0,0,1-1.359-2.074,7.231,7.231,0,0,1-.494-2.709,6.907,6.907,0,0,1,.847-3.464,5.768,5.768,0,0,1,2.325-2.29A6.963,6.963,0,0,1-50.332,4.6,6.767,6.767,0,0,1-46.59,5.628,5.652,5.652,0,0,1-44.3,8.47l-2.471.9a3.493,3.493,0,0,0-1.368-1.721,3.907,3.907,0,0,0-2.189-.618,3.746,3.746,0,0,0-2.789,1.112,4.092,4.092,0,0,0-1.094,3,4.1,4.1,0,0,0,1.1,3,3.742,3.742,0,0,0,2.784,1.116,3.892,3.892,0,0,0,2.184-.622,3.509,3.509,0,0,0,1.372-1.725l2.471.9a5.675,5.675,0,0,1-2.286,2.846A6.745,6.745,0,0,1-50.332,17.7ZM-34.738,4.772V7.1h-3.027V17.525h-2.621V7.1h-3.045V4.772ZM-26,17.525l-3.318-5.613h-.768v5.613h-2.648V4.772h4.624a5.349,5.349,0,0,1,1.853.3,3.2,3.2,0,0,1,1.284.821,3.515,3.515,0,0,1,.724,1.2,4.406,4.406,0,0,1,.243,1.491,3.114,3.114,0,0,1-.7,2.1,3.513,3.513,0,0,1-2,1.1l3.839,5.745ZM-30.087,6.97v3.045h1.562q1.986,0,1.986-1.518a1.382,1.382,0,0,0-.485-1.121,2.308,2.308,0,0,0-1.5-.406Zm13.7-3.389L-14.078.333l1.253.891-2,2.356Zm.785,14.12a6.932,6.932,0,0,1-3.349-.8,5.79,5.79,0,0,1-2.325-2.3,6.914,6.914,0,0,1-.847-3.459A6.907,6.907,0,0,1-21.28,7.68a5.768,5.768,0,0,1,2.325-2.29A6.963,6.963,0,0,1-15.605,4.6a6.937,6.937,0,0,1,3.345.794A5.775,5.775,0,0,1-9.939,7.68a6.907,6.907,0,0,1,.847,3.464A6.914,6.914,0,0,1-9.939,14.6a5.79,5.79,0,0,1-2.325,2.3A6.913,6.913,0,0,1-15.605,17.7Zm-2.789-3.539a3.746,3.746,0,0,0,2.789,1.112,3.738,3.738,0,0,0,2.789-1.116,4.119,4.119,0,0,0,1.094-3.014,4.092,4.092,0,0,0-1.094-3,3.746,3.746,0,0,0-2.789-1.112,3.746,3.746,0,0,0-2.789,1.112,4.092,4.092,0,0,0-1.094,3A4.134,4.134,0,0,0-18.394,14.162ZM2.054,4.772H4.693V17.525H1.63L-4.018,8.408v9.116H-6.656V4.772h3.027l5.683,9.063ZM7.993,17.525V4.772h2.648V17.525Zm11.587.177a7.118,7.118,0,0,1-2.6-.468,6.112,6.112,0,0,1-2.069-1.306,5.888,5.888,0,0,1-1.359-2.074,7.231,7.231,0,0,1-.494-2.709,6.907,6.907,0,0,1,.847-3.464,5.768,5.768,0,0,1,2.325-2.29A6.963,6.963,0,0,1,19.581,4.6a6.767,6.767,0,0,1,3.742,1.033A5.652,5.652,0,0,1,25.608,8.47l-2.471.9a3.493,3.493,0,0,0-1.368-1.721,3.907,3.907,0,0,0-2.189-.618,3.746,3.746,0,0,0-2.789,1.112,4.092,4.092,0,0,0-1.094,3,4.1,4.1,0,0,0,1.1,3,3.742,3.742,0,0,0,2.784,1.116,3.892,3.892,0,0,0,2.184-.622,3.509,3.509,0,0,0,1.372-1.725l2.471.9a5.675,5.675,0,0,1-2.286,2.846A6.745,6.745,0,0,1,19.581,17.7Zm16.732-.177-.927-2.63H30.03l-.927,2.63H26.394L31.089,4.772h3.239l4.695,12.752ZM30.806,12.68h3.8l-1.9-5.41Z" transform="translate(732.431 10939.045)" fill="#082143"/>
    <path id="Trazado_36862" data-name="Trazado 36862" d="M29.28,0H135.554a29.28,29.28,0,1,1,0,58.559H29.28A29.28,29.28,0,0,1,29.28,0Z" transform="translate(812.429 10909.578)" fill="#c1ffe9"/>
    <path id="Trazado_36867" data-name="Trazado 36867" d="M-64.924-17.707a3.838,3.838,0,0,1,2.939,1.187,4.129,4.129,0,0,1,1.112,2.934,4.027,4.027,0,0,1-1.1,2.917,3.907,3.907,0,0,1-2.948,1.143h-2.656v4.571h-2.648V-17.707Zm-.441,5.966a1.946,1.946,0,0,0,1.456-.5,1.9,1.9,0,0,0,.485-1.381,1.88,1.88,0,0,0-.49-1.363,1.928,1.928,0,0,0-1.452-.507h-2.215v3.751ZM-53-4.778a6.932,6.932,0,0,1-3.349-.8,5.79,5.79,0,0,1-2.325-2.3,6.914,6.914,0,0,1-.847-3.459,6.907,6.907,0,0,1,.847-3.464,5.768,5.768,0,0,1,2.325-2.29A6.963,6.963,0,0,1-53-17.883a6.937,6.937,0,0,1,3.345.794,5.775,5.775,0,0,1,2.321,2.29,6.907,6.907,0,0,1,.847,3.464,6.914,6.914,0,0,1-.847,3.459,5.79,5.79,0,0,1-2.325,2.3A6.913,6.913,0,0,1-53-4.778ZM-55.79-8.317A3.746,3.746,0,0,0-53-7.2a3.738,3.738,0,0,0,2.789-1.116,4.119,4.119,0,0,0,1.094-3.014,4.092,4.092,0,0,0-1.094-3A3.746,3.746,0,0,0-53-15.448a3.746,3.746,0,0,0-2.789,1.112,4.092,4.092,0,0,0-1.094,3A4.134,4.134,0,0,0-55.79-8.317Zm18.683-9.39v2.33h-3.027V-4.955h-2.621V-15.377H-45.8v-2.33Zm9.4,2.33h-4.73v2.895h4.192v2.3h-4.192v2.886h4.73v2.339h-7.4V-17.707h7.4Zm11.437-2.33h2.639V-4.955H-16.7l-5.648-9.116v9.116h-2.639V-17.707h3.027l5.683,9.063ZM-4.684-4.778a7.118,7.118,0,0,1-2.6-.468A6.112,6.112,0,0,1-9.353-6.552a5.888,5.888,0,0,1-1.359-2.074,7.231,7.231,0,0,1-.494-2.709,6.907,6.907,0,0,1,.847-3.464,5.768,5.768,0,0,1,2.325-2.29,6.963,6.963,0,0,1,3.349-.794A6.767,6.767,0,0,1-.942-16.851a5.652,5.652,0,0,1,2.286,2.842l-2.471.9A3.493,3.493,0,0,0-2.5-14.83a3.907,3.907,0,0,0-2.189-.618,3.746,3.746,0,0,0-2.789,1.112,4.092,4.092,0,0,0-1.094,3,4.1,4.1,0,0,0,1.1,3A3.742,3.742,0,0,0-4.684-7.214,3.892,3.892,0,0,0-2.5-7.836,3.509,3.509,0,0,0-1.128-9.561l2.471.9A5.675,5.675,0,0,1-.942-5.815,6.745,6.745,0,0,1-4.684-4.778Zm8.2-.177V-17.707H6.162V-4.955Zm14.473,0-.927-2.63H11.7l-.927,2.63H8.068l4.695-12.752H16L20.7-4.955ZM12.481-9.8h3.8l-1.9-5.41ZM25.26-7.293h4v2.339H22.612V-17.707H25.26ZM-76.251,17.457V4.7H-73.6V17.457Zm11.587.177a6.932,6.932,0,0,1-3.349-.8,5.79,5.79,0,0,1-2.325-2.3,6.914,6.914,0,0,1-.847-3.459,6.907,6.907,0,0,1,.847-3.464,5.768,5.768,0,0,1,2.325-2.29,6.963,6.963,0,0,1,3.349-.794,6.937,6.937,0,0,1,3.345.794A5.775,5.775,0,0,1-59,7.613a6.907,6.907,0,0,1,.847,3.464A6.914,6.914,0,0,1-59,14.536a5.79,5.79,0,0,1-2.325,2.3A6.913,6.913,0,0,1-64.664,17.634Zm-2.789-3.539a3.746,3.746,0,0,0,2.789,1.112,3.738,3.738,0,0,0,2.789-1.116,4.119,4.119,0,0,0,1.094-3.014,4.092,4.092,0,0,0-1.094-3,3.746,3.746,0,0,0-2.789-1.112,3.746,3.746,0,0,0-2.789,1.112,4.092,4.092,0,0,0-1.094,3A4.135,4.135,0,0,0-67.453,14.095ZM-47,4.7h2.639V17.457h-3.062l-5.648-9.116v9.116h-2.639V4.7h3.027L-47,13.768Zm5.939,12.752V4.7h2.648V17.457Zm8.26-2.339h6.125v2.339h-9.293V15.365l6.045-8.331h-6.036V4.7H-26.8V6.8Zm17.085,2.339-.927-2.63H-22l-.927,2.63h-2.709L-20.944,4.7h3.239l4.695,12.752Zm-5.507-4.845h3.8l-1.9-5.41Zm15.144,5.021a7.118,7.118,0,0,1-2.6-.468,6.112,6.112,0,0,1-2.069-1.306,5.888,5.888,0,0,1-1.359-2.074,7.231,7.231,0,0,1-.494-2.709,6.907,6.907,0,0,1,.847-3.464,5.768,5.768,0,0,1,2.325-2.29,6.963,6.963,0,0,1,3.349-.794A6.767,6.767,0,0,1-2.341,5.561,5.652,5.652,0,0,1-.055,8.4l-2.471.9A3.493,3.493,0,0,0-3.894,7.582a3.907,3.907,0,0,0-2.189-.618A3.746,3.746,0,0,0-8.872,8.076a4.092,4.092,0,0,0-1.094,3,4.1,4.1,0,0,0,1.1,3A3.742,3.742,0,0,0-6.083,15.2,3.892,3.892,0,0,0-3.9,14.576,3.509,3.509,0,0,0-2.526,12.85l2.471.9A5.675,5.675,0,0,1-2.341,16.6,6.745,6.745,0,0,1-6.083,17.634Zm8.2-.177V4.7H4.763V17.457Zm10.8-13.944L15.23.266l1.253.891-2,2.356Zm.785,14.12a6.932,6.932,0,0,1-3.349-.8,5.79,5.79,0,0,1-2.325-2.3,6.914,6.914,0,0,1-.847-3.459,6.907,6.907,0,0,1,.847-3.464,5.768,5.768,0,0,1,2.325-2.29A6.963,6.963,0,0,1,13.7,4.528a6.937,6.937,0,0,1,3.345.794,5.775,5.775,0,0,1,2.321,2.29,6.907,6.907,0,0,1,.847,3.464,6.914,6.914,0,0,1-.847,3.459,5.79,5.79,0,0,1-2.325,2.3A6.913,6.913,0,0,1,13.7,17.634Zm-2.789-3.539A3.746,3.746,0,0,0,13.7,15.207a3.738,3.738,0,0,0,2.789-1.116,4.119,4.119,0,0,0,1.094-3.014,4.092,4.092,0,0,0-1.094-3A3.746,3.746,0,0,0,13.7,6.964a3.746,3.746,0,0,0-2.789,1.112,4.092,4.092,0,0,0-1.094,3A4.134,4.134,0,0,0,10.914,14.095ZM31.362,4.7H34V17.457H30.938L25.29,8.341v9.116H22.652V4.7h3.027l5.683,9.063Z" transform="translate(916.693 10939.112)" fill="#082143"/>
    <path id="Trazado_36868" data-name="Trazado 36868" d="M6.889-3.238,6.163-5.26H2.34L1.62-3.238H.5l3.115-8.45H4.9l3.115,8.45ZM2.682-6.209H5.827l-1.572-4.4ZM13.1-9.137h1.038v5.9h-1l-.024-.78a1.842,1.842,0,0,1-.732.663,2.252,2.252,0,0,1-1.032.231,2.052,2.052,0,0,1-1.485-.534,1.992,1.992,0,0,1-.555-1.506V-9.137h1.038V-5.4a1.4,1.4,0,0,0,.363,1.056,1.285,1.285,0,0,0,.927.348A1.411,1.411,0,0,0,12.689-4.4,1.662,1.662,0,0,0,13.1-5.608Zm9.182-.114a1.9,1.9,0,0,1,1.374.5,1.859,1.859,0,0,1,.522,1.407v4.1H23.14V-7.073a1.333,1.333,0,0,0-.324-.972,1.1,1.1,0,0,0-.822-.33,1.165,1.165,0,0,0-.9.372,1.6,1.6,0,0,0-.342,1.116v3.649H19.7V-7.031a1.394,1.394,0,0,0-.327-1.005,1.112,1.112,0,0,0-.837-.339,1.154,1.154,0,0,0-.9.381,1.655,1.655,0,0,0-.345,1.143v3.613H16.251v-5.9h1.038v.762a1.792,1.792,0,0,1,.675-.648,1.925,1.925,0,0,1,.939-.228A2,2,0,0,1,19.912-9a1.55,1.55,0,0,1,.654.717A1.836,1.836,0,0,1,21.274-9,2.025,2.025,0,0,1,22.282-9.251ZM31.35-6.3l-.012.282H26.729a2.085,2.085,0,0,0,.564,1.509,1.852,1.852,0,0,0,1.344.525,1.769,1.769,0,0,0,.978-.282,1.83,1.83,0,0,0,.672-.78l.936.2a2.661,2.661,0,0,1-1.008,1.266,2.751,2.751,0,0,1-1.566.462,2.85,2.85,0,0,1-2.124-.822,3.058,3.058,0,0,1-.81-2.244,3.044,3.044,0,0,1,.813-2.238,2.814,2.814,0,0,1,2.091-.822,2.663,2.663,0,0,1,1.983.756A2.988,2.988,0,0,1,31.35-6.3Zm-2.73-2.148a1.84,1.84,0,0,0-1.227.417,1.911,1.911,0,0,0-.621,1.215h3.535a1.753,1.753,0,0,0-.516-1.215A1.667,1.667,0,0,0,28.619-8.453Zm7.141-.8a2.052,2.052,0,0,1,1.485.534A1.992,1.992,0,0,1,37.8-7.211v3.973H36.763V-6.977a1.4,1.4,0,0,0-.36-1.056,1.287,1.287,0,0,0-.924-.342,1.427,1.427,0,0,0-1.05.405,1.644,1.644,0,0,0-.414,1.2v3.529H32.976v-5.9h1.038v.756A1.97,1.97,0,0,1,35.76-9.251Zm5.929,6.013a1.551,1.551,0,0,1-1.152-.423,1.6,1.6,0,0,1-.42-1.179V-8.309H38.911v-.828h.444a.853.853,0,0,0,.651-.207,1.019,1.019,0,0,0,.189-.693v-1.068h.966v1.968h1.356v.828H41.161v3.361a.894.894,0,0,0,.225.651.788.788,0,0,0,.591.231h.54v.828Zm3.619.114a2.007,2.007,0,0,1-1.293-.405,1.455,1.455,0,0,1-.507-1.209,1.718,1.718,0,0,1,.162-.771,1.359,1.359,0,0,1,.48-.537,2.88,2.88,0,0,1,.693-.333,6.407,6.407,0,0,1,.9-.213l.954-.156q.522-.1.522-.546a1.031,1.031,0,0,0-.369-.879,1.5,1.5,0,0,0-.933-.279,1.532,1.532,0,0,0-.924.27,1.13,1.13,0,0,0-.438.828l-.936-.2a1.8,1.8,0,0,1,.738-1.263,2.758,2.758,0,0,1,1.608-.423,3.262,3.262,0,0,1,.855.105,2.324,2.324,0,0,1,.714.33,1.48,1.48,0,0,1,.51.636,2.367,2.367,0,0,1,.183.969v2.436a1,1,0,0,0,.135.615.583.583,0,0,0,.465.159h.1v.75H48.4a.984.984,0,0,1-1.116-.8H47.24A2.254,2.254,0,0,1,45.308-3.124Zm.24-.84a1.574,1.574,0,0,0,1.266-.57,2.347,2.347,0,0,0,.48-1.56l-1.56.3a2.1,2.1,0,0,0-.915.327.761.761,0,0,0-.3.645.752.752,0,0,0,.285.648A1.219,1.219,0,0,0,45.548-3.964Z" transform="translate(678.545 11079.817)" fill="#082143"/>
    <path id="Trazado_36869" data-name="Trazado 36869" d="M1.834-3.328v-8.45H4.559a4.04,4.04,0,0,1,2.151.546,3.331,3.331,0,0,1,1.32,1.485A5.218,5.218,0,0,1,8.46-7.558a5.534,5.534,0,0,1-.249,1.707,3.868,3.868,0,0,1-.729,1.335,3.2,3.2,0,0,1-1.227.876,4.364,4.364,0,0,1-1.7.312Zm1.074-.978H4.523A2.573,2.573,0,0,0,6.632-5.17a3.653,3.653,0,0,0,.711-2.388,3.622,3.622,0,0,0-.714-2.376A2.575,2.575,0,0,0,4.523-10.8H2.909Zm7.9-6.307a.676.676,0,0,1-.5-.207.676.676,0,0,1-.207-.5.666.666,0,0,1,.207-.492.681.681,0,0,1,.5-.2.674.674,0,0,1,.489.2.666.666,0,0,1,.207.492.676.676,0,0,1-.207.5A.669.669,0,0,1,10.806-10.613Zm-.528,7.285v-5.9h1.044v5.9Zm5.023.114a2.8,2.8,0,0,1-1.59-.426,1.762,1.762,0,0,1-.774-1.212l.906-.258a1.264,1.264,0,0,0,.483.819A1.567,1.567,0,0,0,15.295-4a1.934,1.934,0,0,0,.567-.078.909.909,0,0,0,.435-.291.78.78,0,0,0,.174-.537.783.783,0,0,0-.048-.243,1.042,1.042,0,0,0-.1-.2.594.594,0,0,0-.168-.162,2.215,2.215,0,0,0-.2-.126,2.094,2.094,0,0,0-.267-.111q-.177-.063-.285-.1t-.33-.1l-.342-.1a6.4,6.4,0,0,1-.612-.216,2.685,2.685,0,0,1-.5-.285A1.147,1.147,0,0,1,13.234-7a1.574,1.574,0,0,1-.129-.66,1.525,1.525,0,0,1,.288-.942,1.621,1.621,0,0,1,.747-.555,2.986,2.986,0,0,1,1.047-.171,2.563,2.563,0,0,1,1.437.384,1.639,1.639,0,0,1,.717,1.152l-.852.216a1.13,1.13,0,0,0-.45-.747,1.433,1.433,0,0,0-.846-.249,1.461,1.461,0,0,0-.792.207.7.7,0,0,0-.33.633.63.63,0,0,0,.087.327,1.039,1.039,0,0,0,.177.231A1.088,1.088,0,0,0,14.659-7q.234.093.348.126t.432.111q.06.018.09.024.348.09.567.159a3.486,3.486,0,0,1,.51.216,1.7,1.7,0,0,1,.459.321,1.487,1.487,0,0,1,.288.456,1.61,1.61,0,0,1,.12.636,1.718,1.718,0,0,1-.177.8,1.385,1.385,0,0,1-.483.543,2.336,2.336,0,0,1-.687.3A3.274,3.274,0,0,1,15.3-3.214Zm9.836-6.127a1.9,1.9,0,0,1,1.374.5,1.859,1.859,0,0,1,.522,1.407v4.1H25.995V-7.162a1.333,1.333,0,0,0-.324-.972,1.1,1.1,0,0,0-.822-.33,1.165,1.165,0,0,0-.9.372,1.6,1.6,0,0,0-.342,1.116v3.649H22.55V-7.12a1.394,1.394,0,0,0-.327-1.005,1.112,1.112,0,0,0-.837-.339,1.154,1.154,0,0,0-.9.381,1.655,1.655,0,0,0-.345,1.143v3.613H19.106v-5.9h1.038v.762a1.792,1.792,0,0,1,.675-.648,1.925,1.925,0,0,1,.939-.228,2,2,0,0,1,1.008.249,1.55,1.55,0,0,1,.654.717,1.836,1.836,0,0,1,.708-.717A2.025,2.025,0,0,1,25.137-9.341Zm4.435-1.272a.676.676,0,0,1-.5-.207.676.676,0,0,1-.207-.5.666.666,0,0,1,.207-.492.681.681,0,0,1,.5-.2.674.674,0,0,1,.489.2.666.666,0,0,1,.207.492.676.676,0,0,1-.207.5A.669.669,0,0,1,29.571-10.613Zm-.528,7.285v-5.9h1.044v5.9Zm5.941-6.013a2.052,2.052,0,0,1,1.485.534A1.992,1.992,0,0,1,37.025-7.3v3.973H35.987V-7.066a1.4,1.4,0,0,0-.36-1.056,1.287,1.287,0,0,0-.924-.342,1.427,1.427,0,0,0-1.05.405,1.644,1.644,0,0,0-.414,1.2v3.529H32.2v-5.9h1.038v.756A1.97,1.97,0,0,1,34.984-9.341Zm7.717.114H43.74v5.9h-1l-.024-.78a1.842,1.842,0,0,1-.732.663,2.252,2.252,0,0,1-1.032.231,2.052,2.052,0,0,1-1.485-.534,1.992,1.992,0,0,1-.555-1.506V-9.227h1.038v3.739a1.4,1.4,0,0,0,.363,1.056,1.285,1.285,0,0,0,.927.348,1.411,1.411,0,0,0,1.047-.408A1.662,1.662,0,0,0,42.7-5.7Zm6.787,0h1.1L47.173-.549H46.1l1.182-2.923L44.988-9.227H46.14L47.8-4.636Zm7.273,2.833-.012.282H52.141A2.085,2.085,0,0,0,52.706-4.6a1.852,1.852,0,0,0,1.344.525,1.769,1.769,0,0,0,.978-.282,1.83,1.83,0,0,0,.672-.78l.936.2a2.661,2.661,0,0,1-1.008,1.266,2.751,2.751,0,0,1-1.566.462,2.85,2.85,0,0,1-2.124-.822,3.058,3.058,0,0,1-.81-2.244,3.044,3.044,0,0,1,.813-2.238,2.814,2.814,0,0,1,2.091-.822,2.663,2.663,0,0,1,1.983.756A2.988,2.988,0,0,1,56.762-6.394Zm-2.73-2.148a1.84,1.84,0,0,0-1.227.417,1.911,1.911,0,0,0-.621,1.215h3.535A1.753,1.753,0,0,0,55.2-8.126,1.667,1.667,0,0,0,54.032-8.543Z" transform="translate(490.93 11079.907)" fill="#082143"/>
    <path id="Trazado_36873" data-name="Trazado 36873" d="M1.834-3.4v-8.45H2.909V-3.4Zm5.857.114a3.11,3.11,0,0,1-1.512-.366A2.665,2.665,0,0,1,5.114-4.722a3.29,3.29,0,0,1-.393-1.629,3.005,3.005,0,0,1,.837-2.223,2.89,2.89,0,0,1,2.133-.837,2.887,2.887,0,0,1,2.136.837,3.011,3.011,0,0,1,.834,2.223,3.013,3.013,0,0,1-.837,2.229A2.89,2.89,0,0,1,7.692-3.285Zm-.006-.864a1.812,1.812,0,0,0,1.4-.606,2.271,2.271,0,0,0,.555-1.6,2.263,2.263,0,0,0-.555-1.59,1.812,1.812,0,0,0-1.4-.606A1.787,1.787,0,0,0,6.3-7.942a2.278,2.278,0,0,0-.549,1.59,2.286,2.286,0,0,0,.549,1.6A1.787,1.787,0,0,0,7.686-4.149Zm7.387-5.263a2.052,2.052,0,0,1,1.485.534,1.992,1.992,0,0,1,.555,1.506V-3.4H16.075V-7.138a1.4,1.4,0,0,0-.36-1.056,1.287,1.287,0,0,0-.924-.342,1.427,1.427,0,0,0-1.05.405,1.644,1.644,0,0,0-.414,1.2V-3.4H12.288V-9.3h1.038v.756A1.97,1.97,0,0,1,15.073-9.412Zm4.573-1.272a.676.676,0,0,1-.5-.207.676.676,0,0,1-.207-.5.666.666,0,0,1,.207-.492.681.681,0,0,1,.5-.2.674.674,0,0,1,.489.2.666.666,0,0,1,.207.492.676.676,0,0,1-.207.5A.669.669,0,0,1,19.646-10.684ZM19.118-3.4V-9.3h1.044v5.9Zm3.973-.84h3.145v.84h-4.7l3.109-5.053H21.71V-9.3h4.519Zm5.737.954a2.007,2.007,0,0,1-1.293-.405A1.455,1.455,0,0,1,27.027-4.9a1.718,1.718,0,0,1,.162-.771,1.359,1.359,0,0,1,.48-.537,2.88,2.88,0,0,1,.693-.333,6.407,6.407,0,0,1,.9-.213l.954-.156q.522-.1.522-.546a1.031,1.031,0,0,0-.369-.879,1.5,1.5,0,0,0-.933-.279,1.532,1.532,0,0,0-.924.27,1.13,1.13,0,0,0-.438.828l-.936-.2a1.8,1.8,0,0,1,.738-1.263A2.758,2.758,0,0,1,29.481-9.4a3.262,3.262,0,0,1,.855.105,2.324,2.324,0,0,1,.714.33,1.48,1.48,0,0,1,.51.636,2.367,2.367,0,0,1,.183.969v2.436a1,1,0,0,0,.135.615.583.583,0,0,0,.465.159h.1v.75h-.516a.984.984,0,0,1-1.116-.8H30.76A2.254,2.254,0,0,1,28.827-3.285Zm.24-.84a1.574,1.574,0,0,0,1.266-.57,2.347,2.347,0,0,0,.48-1.56l-1.56.3a2.1,2.1,0,0,0-.915.327.761.761,0,0,0-.3.645.752.752,0,0,0,.285.648A1.219,1.219,0,0,0,29.067-4.125Zm7.165.834a2.841,2.841,0,0,1-2.112-.846,3.018,3.018,0,0,1-.834-2.214,3.024,3.024,0,0,1,.831-2.214,2.839,2.839,0,0,1,2.115-.846A2.862,2.862,0,0,1,37.94-8.9a2.6,2.6,0,0,1,.993,1.434l-.972.156a1.8,1.8,0,0,0-.666-.918,1.814,1.814,0,0,0-1.068-.324,1.744,1.744,0,0,0-1.365.606,2.309,2.309,0,0,0-.537,1.59,2.3,2.3,0,0,0,.537,1.587,1.748,1.748,0,0,0,1.365.6,1.814,1.814,0,0,0,1.068-.324,1.8,1.8,0,0,0,.666-.918l.972.162a2.607,2.607,0,0,1-1,1.431A2.857,2.857,0,0,1,36.233-3.291Zm4.759-7.393a.676.676,0,0,1-.5-.207.676.676,0,0,1-.207-.5.666.666,0,0,1,.207-.492.681.681,0,0,1,.5-.2.674.674,0,0,1,.489.2.666.666,0,0,1,.207.492.676.676,0,0,1-.207.5A.669.669,0,0,1,40.991-10.684ZM40.463-3.4V-9.3h1.044v5.9Zm5.245-6.913,1.506-1.956.552.4-1.344,1.554Zm.4,7.027a3.11,3.11,0,0,1-1.512-.366,2.665,2.665,0,0,1-1.065-1.071,3.29,3.29,0,0,1-.393-1.629,3.005,3.005,0,0,1,.837-2.223A2.89,2.89,0,0,1,46.1-9.412a2.887,2.887,0,0,1,2.136.837,3.011,3.011,0,0,1,.834,2.223,3.013,3.013,0,0,1-.837,2.229A2.89,2.89,0,0,1,46.1-3.285ZM46.1-4.149a1.812,1.812,0,0,0,1.4-.606,2.271,2.271,0,0,0,.555-1.6,2.263,2.263,0,0,0-.555-1.59,1.812,1.812,0,0,0-1.4-.606,1.787,1.787,0,0,0-1.383.606,2.278,2.278,0,0,0-.549,1.59,2.286,2.286,0,0,0,.549,1.6A1.787,1.787,0,0,0,46.1-4.149Zm7.387-5.263a2.052,2.052,0,0,1,1.485.534,1.992,1.992,0,0,1,.555,1.506V-3.4H54.488V-7.138a1.4,1.4,0,0,0-.36-1.056,1.287,1.287,0,0,0-.924-.342,1.427,1.427,0,0,0-1.05.405,1.644,1.644,0,0,0-.414,1.2V-3.4H50.7V-9.3h1.038v.756A1.97,1.97,0,0,1,53.486-9.412Z" transform="translate(867.588 11126.971)" fill="#082143"/>
    <path id="Trazado_37028" data-name="Trazado 37028" d="M7.587-19.34a3.838,3.838,0,0,1,2.939,1.187,4.129,4.129,0,0,1,1.112,2.934,4.027,4.027,0,0,1-1.1,2.917,3.907,3.907,0,0,1-2.948,1.143H4.93v4.571H2.283V-19.34Zm-.441,5.966a1.946,1.946,0,0,0,1.456-.5,1.9,1.9,0,0,0,.485-1.381,1.88,1.88,0,0,0-.49-1.363,1.928,1.928,0,0,0-1.452-.507H4.93v3.751ZM20.595-6.588,17.277-12.2h-.768v5.613H13.861V-19.34h4.624a5.349,5.349,0,0,1,1.853.3,3.2,3.2,0,0,1,1.284.821,3.515,3.515,0,0,1,.724,1.2,4.406,4.406,0,0,1,.243,1.491,3.114,3.114,0,0,1-.7,2.1,3.513,3.513,0,0,1-2,1.1l3.839,5.745ZM16.509-17.143V-14.1h1.562q1.986,0,1.986-1.518a1.382,1.382,0,0,0-.485-1.121,2.308,2.308,0,0,0-1.5-.406ZM30.991-6.411a6.932,6.932,0,0,1-3.349-.8,5.79,5.79,0,0,1-2.325-2.3,6.914,6.914,0,0,1-.847-3.459,6.907,6.907,0,0,1,.847-3.464,5.768,5.768,0,0,1,2.325-2.29,6.963,6.963,0,0,1,3.349-.794,6.937,6.937,0,0,1,3.345.794,5.775,5.775,0,0,1,2.321,2.29,6.907,6.907,0,0,1,.847,3.464,6.914,6.914,0,0,1-.847,3.459,5.79,5.79,0,0,1-2.325,2.3A6.913,6.913,0,0,1,30.991-6.411ZM28.2-9.95a3.746,3.746,0,0,0,2.789,1.112A3.738,3.738,0,0,0,33.78-9.955a4.119,4.119,0,0,0,1.094-3.014,4.092,4.092,0,0,0-1.094-3,3.746,3.746,0,0,0-2.789-1.112A3.746,3.746,0,0,0,28.2-15.969a4.092,4.092,0,0,0-1.094,3A4.134,4.134,0,0,0,28.2-9.95Zm17.041-9.39a3.838,3.838,0,0,1,2.939,1.187,4.129,4.129,0,0,1,1.112,2.934,4.027,4.027,0,0,1-1.1,2.917,3.907,3.907,0,0,1-2.948,1.143H42.587v4.571H39.939V-19.34ZM44.8-13.374a1.946,1.946,0,0,0,1.456-.5,1.9,1.9,0,0,0,.485-1.381,1.88,1.88,0,0,0-.49-1.363,1.928,1.928,0,0,0-1.452-.507H42.587v3.751Zm6.716,6.787V-19.34h2.648V-6.588ZM64.853-17.01h-4.73v2.895h4.192v2.3H60.122v2.886h4.73v2.339h-7.4V-19.34h7.4ZM67.58-6.588V-19.34H72.2a7.2,7.2,0,0,1,2.661.459,4.9,4.9,0,0,1,1.906,1.3,5.663,5.663,0,0,1,1.13,2.008,8.289,8.289,0,0,1,.384,2.6,8.32,8.32,0,0,1-.384,2.612,5.663,5.663,0,0,1-1.13,2.008,4.9,4.9,0,0,1-1.906,1.3,7.2,7.2,0,0,1-2.661.459Zm2.648-2.339h1.836A3.133,3.133,0,0,0,74.64-9.964a4.648,4.648,0,0,0,.847-3,4.648,4.648,0,0,0-.847-3,3.133,3.133,0,0,0-2.577-1.037H70.227ZM88.654-6.588l-.927-2.63H82.371l-.927,2.63H78.735L83.43-19.34h3.239L91.363-6.588Zm-5.507-4.845h3.8l-1.9-5.41ZM93.278-6.588V-19.34h4.616a7.2,7.2,0,0,1,2.661.459,4.9,4.9,0,0,1,1.906,1.3,5.663,5.663,0,0,1,1.13,2.008,8.289,8.289,0,0,1,.384,2.6,8.319,8.319,0,0,1-.384,2.612,5.663,5.663,0,0,1-1.13,2.008,4.9,4.9,0,0,1-1.906,1.3,7.2,7.2,0,0,1-2.661.459Zm2.648-2.339h1.836a3.133,3.133,0,0,0,2.577-1.037,4.648,4.648,0,0,0,.847-3,4.648,4.648,0,0,0-.847-3,3.133,3.133,0,0,0-2.577-1.037H95.926ZM113.85-17.01h-4.73v2.895h4.192v2.3h-4.192v2.886h4.73v2.339h-7.4V-19.34h7.4Zm6.963,10.6a6.161,6.161,0,0,1-3.539-.975,3.911,3.911,0,0,1-1.721-2.731l2.736-.627a2.323,2.323,0,0,0,.843,1.611,2.8,2.8,0,0,0,1.787.56,2.308,2.308,0,0,0,1.394-.393,1.324,1.324,0,0,0,.529-1.161,1.238,1.238,0,0,0-.45-.944,2.941,2.941,0,0,0-.9-.578q-.446-.172-1.434-.472-.132-.044-.194-.062-.5-.159-.812-.265t-.763-.3a5.083,5.083,0,0,1-.741-.371,5.428,5.428,0,0,1-.613-.459,2.4,2.4,0,0,1-.512-.587,3.117,3.117,0,0,1-.309-.732,3.232,3.232,0,0,1-.124-.909,3.414,3.414,0,0,1,.6-2.008,3.648,3.648,0,0,1,1.606-1.28,5.846,5.846,0,0,1,2.3-.428,7.262,7.262,0,0,1,1.664.185,5.827,5.827,0,0,1,1.487.569,3.643,3.643,0,0,1,1.187,1.05,3.949,3.949,0,0,1,.675,1.549l-2.559.635a2.073,2.073,0,0,0-2.295-1.827,2.512,2.512,0,0,0-1.421.371,1.256,1.256,0,0,0-.556,1.121q0,.7.927,1.13a13.807,13.807,0,0,0,1.774.609q.521.159.847.265t.821.309a5.7,5.7,0,0,1,.8.393,5.943,5.943,0,0,1,.671.49,2.637,2.637,0,0,1,.569.635,3.436,3.436,0,0,1,.349.79,3.3,3.3,0,0,1,.141.984,3.866,3.866,0,0,1-.256,1.438,3.131,3.131,0,0,1-.7,1.085,4.074,4.074,0,0,1-1.055.746,5.116,5.116,0,0,1-1.3.441A7.461,7.461,0,0,1,120.813-6.411ZM138.022-19.34a3.838,3.838,0,0,1,2.939,1.187,4.129,4.129,0,0,1,1.112,2.934,4.027,4.027,0,0,1-1.1,2.917,3.907,3.907,0,0,1-2.948,1.143h-2.656v4.571h-2.648V-19.34Zm-.441,5.966a1.946,1.946,0,0,0,1.456-.5,1.9,1.9,0,0,0,.485-1.381,1.88,1.88,0,0,0-.49-1.363,1.928,1.928,0,0,0-1.452-.507h-2.215v3.751Zm14.111-3.636h-4.73v2.895h4.192v2.3h-4.192v2.886h4.73v2.339h-7.4V-19.34h7.4Zm9.461,10.422L157.834-12.2h-.768v5.613h-2.648V-19.34h4.624a5.349,5.349,0,0,1,1.853.3,3.2,3.2,0,0,1,1.284.821,3.515,3.515,0,0,1,.724,1.2,4.406,4.406,0,0,1,.243,1.491,3.114,3.114,0,0,1-.7,2.1,3.513,3.513,0,0,1-2,1.1l3.839,5.745Zm-4.086-10.555V-14.1h1.562q1.986,0,1.986-1.518a1.382,1.382,0,0,0-.485-1.121,2.308,2.308,0,0,0-1.5-.406Zm9.16,10.555V-19.34h2.648V-6.588Zm10.8-13.944,2.312-3.248,1.253.891-2,2.356Zm.785,14.12a6.932,6.932,0,0,1-3.349-.8,5.79,5.79,0,0,1-2.325-2.3,6.914,6.914,0,0,1-.847-3.459,6.907,6.907,0,0,1,.847-3.464,5.768,5.768,0,0,1,2.325-2.29,6.963,6.963,0,0,1,3.349-.794,6.937,6.937,0,0,1,3.345.794,5.776,5.776,0,0,1,2.321,2.29,6.907,6.907,0,0,1,.847,3.464,6.914,6.914,0,0,1-.847,3.459,5.79,5.79,0,0,1-2.325,2.3A6.913,6.913,0,0,1,177.814-6.411ZM175.025-9.95a3.746,3.746,0,0,0,2.789,1.112A3.738,3.738,0,0,0,180.6-9.955a4.119,4.119,0,0,0,1.094-3.014,4.092,4.092,0,0,0-1.094-3,3.746,3.746,0,0,0-2.789-1.112,3.746,3.746,0,0,0-2.789,1.112,4.092,4.092,0,0,0-1.094,3A4.134,4.134,0,0,0,175.025-9.95Zm11.737,3.362V-19.34h4.616a7.2,7.2,0,0,1,2.661.459,4.9,4.9,0,0,1,1.906,1.3,5.663,5.663,0,0,1,1.13,2.008,8.289,8.289,0,0,1,.384,2.6,8.32,8.32,0,0,1-.384,2.612,5.663,5.663,0,0,1-1.13,2.008,4.9,4.9,0,0,1-1.906,1.3,7.2,7.2,0,0,1-2.661.459Zm2.648-2.339h1.836a3.133,3.133,0,0,0,2.577-1.037,4.648,4.648,0,0,0,.847-3,4.648,4.648,0,0,0-.847-3,3.133,3.133,0,0,0-2.577-1.037H189.41Zm10.528,2.339V-19.34h2.648V-6.588Zm11.587.177a7.118,7.118,0,0,1-2.6-.468,6.112,6.112,0,0,1-2.069-1.306,5.887,5.887,0,0,1-1.359-2.074A7.231,7.231,0,0,1,205-12.969a6.907,6.907,0,0,1,.847-3.464,5.768,5.768,0,0,1,2.325-2.29,6.963,6.963,0,0,1,3.349-.794,6.767,6.767,0,0,1,3.742,1.033,5.652,5.652,0,0,1,2.286,2.842l-2.471.9a3.493,3.493,0,0,0-1.368-1.721,3.907,3.907,0,0,0-2.189-.618,3.746,3.746,0,0,0-2.789,1.112,4.092,4.092,0,0,0-1.094,3,4.1,4.1,0,0,0,1.1,3,3.742,3.742,0,0,0,2.784,1.116,3.892,3.892,0,0,0,2.184-.622,3.509,3.509,0,0,0,1.372-1.725l2.471.9a5.675,5.675,0,0,1-2.286,2.846A6.745,6.745,0,0,1,211.526-6.411Zm16.732-.177-.927-2.63h-5.357l-.927,2.63h-2.709l4.695-12.752h3.239l4.695,12.752Zm-5.507-4.845h3.8l-1.9-5.41Zm14.367,5.021a6.161,6.161,0,0,1-3.539-.975,3.911,3.911,0,0,1-1.721-2.731l2.736-.627a2.323,2.323,0,0,0,.843,1.611,2.8,2.8,0,0,0,1.787.56,2.309,2.309,0,0,0,1.394-.393,1.324,1.324,0,0,0,.529-1.161,1.238,1.238,0,0,0-.45-.944,2.941,2.941,0,0,0-.9-.578q-.446-.172-1.434-.472-.132-.044-.194-.062-.5-.159-.812-.265t-.763-.3a5.084,5.084,0,0,1-.741-.371,5.428,5.428,0,0,1-.613-.459,2.4,2.4,0,0,1-.512-.587,3.117,3.117,0,0,1-.309-.732,3.233,3.233,0,0,1-.124-.909,3.414,3.414,0,0,1,.6-2.008,3.648,3.648,0,0,1,1.606-1.28,5.846,5.846,0,0,1,2.3-.428,7.262,7.262,0,0,1,1.664.185,5.827,5.827,0,0,1,1.487.569,3.642,3.642,0,0,1,1.187,1.05,3.949,3.949,0,0,1,.675,1.549l-2.559.635a2.073,2.073,0,0,0-2.295-1.827,2.512,2.512,0,0,0-1.421.371,1.256,1.256,0,0,0-.556,1.121q0,.7.927,1.13a13.809,13.809,0,0,0,1.774.609q.521.159.847.265t.821.309a5.7,5.7,0,0,1,.8.393,5.943,5.943,0,0,1,.671.49,2.639,2.639,0,0,1,.569.635,3.436,3.436,0,0,1,.349.79,3.3,3.3,0,0,1,.141.984,3.866,3.866,0,0,1-.256,1.438,3.13,3.13,0,0,1-.7,1.085,4.074,4.074,0,0,1-1.055.746,5.116,5.116,0,0,1-1.3.441A7.461,7.461,0,0,1,237.119-6.411Z" transform="translate(673.712 10842.425)" fill="#1ec488"/>
    <path id="Trazado_37029" data-name="Trazado 37029" d="M7.587-18.525a3.838,3.838,0,0,1,2.939,1.187A4.129,4.129,0,0,1,11.637-14.4a4.027,4.027,0,0,1-1.1,2.917,3.907,3.907,0,0,1-2.948,1.143H4.93v4.571H2.283V-18.525Zm-.441,5.966a1.946,1.946,0,0,0,1.456-.5,1.9,1.9,0,0,0,.485-1.381A1.88,1.88,0,0,0,8.6-15.8a1.928,1.928,0,0,0-1.452-.507H4.93v3.751ZM21.257-16.2h-4.73V-13.3h4.192V-11H16.526v2.886h4.73v2.339h-7.4V-18.525h7.4ZM30.717-5.773,27.4-11.386h-.768v5.613H23.984V-18.525h4.624a5.349,5.349,0,0,1,1.853.3,3.2,3.2,0,0,1,1.284.821,3.515,3.515,0,0,1,.724,1.2,4.406,4.406,0,0,1,.243,1.491,3.114,3.114,0,0,1-.7,2.1,3.513,3.513,0,0,1-2,1.1L33.85-5.773ZM26.631-16.328v3.045h1.562q1.986,0,1.986-1.518a1.382,1.382,0,0,0-.485-1.121,2.308,2.308,0,0,0-1.5-.406Zm9.681-3.389,2.515-1.121ZM35.792-5.773V-18.525h2.648V-5.773ZM47.379-5.6a6.932,6.932,0,0,1-3.349-.8,5.79,5.79,0,0,1-2.325-2.3,6.914,6.914,0,0,1-.847-3.459,6.907,6.907,0,0,1,.847-3.464,5.768,5.768,0,0,1,2.325-2.29,6.963,6.963,0,0,1,3.349-.794,6.937,6.937,0,0,1,3.345.794,5.775,5.775,0,0,1,2.321,2.29,6.907,6.907,0,0,1,.847,3.464,6.914,6.914,0,0,1-.847,3.459,5.79,5.79,0,0,1-2.325,2.3A6.913,6.913,0,0,1,47.379-5.6ZM44.59-9.135a3.746,3.746,0,0,0,2.789,1.112A3.738,3.738,0,0,0,50.168-9.14a4.119,4.119,0,0,0,1.094-3.014,4.092,4.092,0,0,0-1.094-3,3.746,3.746,0,0,0-2.789-1.112,3.746,3.746,0,0,0-2.789,1.112,4.092,4.092,0,0,0-1.094,3A4.134,4.134,0,0,0,44.59-9.135ZM56.328-5.773V-18.525h4.616a7.2,7.2,0,0,1,2.661.459,4.9,4.9,0,0,1,1.906,1.3,5.663,5.663,0,0,1,1.13,2.008,8.289,8.289,0,0,1,.384,2.6,8.32,8.32,0,0,1-.384,2.612,5.663,5.663,0,0,1-1.13,2.008,4.9,4.9,0,0,1-1.906,1.3,7.2,7.2,0,0,1-2.661.459Zm2.648-2.339h1.836a3.133,3.133,0,0,0,2.577-1.037,4.648,4.648,0,0,0,.847-3,4.648,4.648,0,0,0-.847-3A3.133,3.133,0,0,0,60.811-16.2H58.975ZM75.152-5.6A6.932,6.932,0,0,1,71.8-6.4a5.79,5.79,0,0,1-2.325-2.3,6.914,6.914,0,0,1-.847-3.459,6.907,6.907,0,0,1,.847-3.464,5.768,5.768,0,0,1,2.325-2.29,6.963,6.963,0,0,1,3.349-.794,6.937,6.937,0,0,1,3.345.794,5.775,5.775,0,0,1,2.321,2.29,6.907,6.907,0,0,1,.847,3.464,6.914,6.914,0,0,1-.847,3.459,5.79,5.79,0,0,1-2.325,2.3A6.913,6.913,0,0,1,75.152-5.6ZM72.363-9.135a3.746,3.746,0,0,0,2.789,1.112A3.738,3.738,0,0,0,77.94-9.14a4.119,4.119,0,0,0,1.094-3.014,4.092,4.092,0,0,0-1.094-3,3.746,3.746,0,0,0-2.789-1.112,3.746,3.746,0,0,0-2.789,1.112,4.092,4.092,0,0,0-1.094,3A4.134,4.134,0,0,0,72.363-9.135ZM88.266-5.6a6.161,6.161,0,0,1-3.539-.975A3.911,3.911,0,0,1,83.006-9.3l2.736-.627a2.323,2.323,0,0,0,.843,1.611,2.8,2.8,0,0,0,1.787.56,2.308,2.308,0,0,0,1.394-.393,1.324,1.324,0,0,0,.53-1.161,1.238,1.238,0,0,0-.45-.944,2.941,2.941,0,0,0-.9-.578q-.446-.172-1.434-.472-.132-.044-.194-.062-.5-.159-.812-.265t-.763-.3A5.084,5.084,0,0,1,85-12.3a5.427,5.427,0,0,1-.613-.459,2.4,2.4,0,0,1-.512-.587,3.118,3.118,0,0,1-.309-.732,3.233,3.233,0,0,1-.124-.909,3.414,3.414,0,0,1,.6-2.008,3.648,3.648,0,0,1,1.606-1.28,5.846,5.846,0,0,1,2.3-.428,7.262,7.262,0,0,1,1.664.185,5.827,5.827,0,0,1,1.487.569,3.643,3.643,0,0,1,1.187,1.05,3.949,3.949,0,0,1,.675,1.549l-2.559.635a2.073,2.073,0,0,0-2.295-1.827,2.512,2.512,0,0,0-1.421.371,1.256,1.256,0,0,0-.556,1.121q0,.7.927,1.13a13.809,13.809,0,0,0,1.774.609q.521.159.847.265t.821.309a5.7,5.7,0,0,1,.8.393,5.943,5.943,0,0,1,.671.49,2.638,2.638,0,0,1,.569.635,3.436,3.436,0,0,1,.349.79,3.3,3.3,0,0,1,.141.984,3.866,3.866,0,0,1-.256,1.438,3.13,3.13,0,0,1-.7,1.085,4.074,4.074,0,0,1-1.055.746,5.116,5.116,0,0,1-1.3.441A7.461,7.461,0,0,1,88.266-5.6Z" transform="translate(1007.717 10751.24)" fill="#082143"/>
  </g>
</svg>
