<svg xmlns="http://www.w3.org/2000/svg" width="610" height="210.277" viewBox="0 0 610 210.277">
  <g id="Grupo_178782" data-name="Grupo 178782" transform="translate(-495 -5887.723)">
    <path id="Trazado_33629" data-name="Trazado 33629" d="M0,0H141.27V95.048H0Z" transform="translate(495 6002.952)" fill="#c5f0e1"/>
    <path id="Trazado_33630" data-name="Trazado 33630" d="M0,0H141.27V127.6H0Z" transform="translate(643.431 5970.401)" fill="#79dbb8"/>
    <path id="Trazado_33631" data-name="Trazado 33631" d="M0,0H141.27V165.358H0Z" transform="translate(791.862 5932.643)" fill="#627edb"/>
    <path id="Trazado_33632" data-name="Trazado 33632" d="M0,0H162.753V210.277H0Z" transform="translate(942.247 5887.723)" fill="#475da3"/>
    <path id="Trazado_33633" data-name="Trazado 33633" d="M5.6-7.381A5.548,5.548,0,0,1,2.416-8.26a3.522,3.522,0,0,1-1.55-2.46l2.464-.564a2.092,2.092,0,0,0,.759,1.45,2.518,2.518,0,0,0,1.609.5,2.079,2.079,0,0,0,1.256-.354,1.193,1.193,0,0,0,.477-1.045,1.114,1.114,0,0,0-.405-.85,2.648,2.648,0,0,0-.807-.521q-.4-.155-1.291-.425-.119-.04-.175-.056-.453-.143-.731-.238t-.687-.266a4.578,4.578,0,0,1-.668-.334,4.887,4.887,0,0,1-.552-.413,2.165,2.165,0,0,1-.461-.528,2.807,2.807,0,0,1-.278-.66,2.911,2.911,0,0,1-.111-.819A3.074,3.074,0,0,1,1.8-17.645,3.285,3.285,0,0,1,3.247-18.8a5.264,5.264,0,0,1,2.07-.385,6.54,6.54,0,0,1,1.5.167,5.247,5.247,0,0,1,1.339.513,3.28,3.28,0,0,1,1.069.946,3.556,3.556,0,0,1,.608,1.395l-2.3.572A1.867,1.867,0,0,0,5.46-17.236a2.262,2.262,0,0,0-1.279.334,1.131,1.131,0,0,0-.5,1.009q0,.628.834,1.017a12.434,12.434,0,0,0,1.6.548q.469.143.763.238t.739.278a5.136,5.136,0,0,1,.723.354,5.351,5.351,0,0,1,.6.441,2.375,2.375,0,0,1,.513.572,3.094,3.094,0,0,1,.314.711,2.973,2.973,0,0,1,.127.886,3.481,3.481,0,0,1-.23,1.3,2.819,2.819,0,0,1-.632.977,3.669,3.669,0,0,1-.95.672,4.607,4.607,0,0,1-1.168.4A6.719,6.719,0,0,1,5.6-7.381Zm11.6-8.328h2.289V-7.54h-2.17l-.056-.985a3.12,3.12,0,0,1-2.6,1.144,3.185,3.185,0,0,1-2.257-.735,2.726,2.726,0,0,1-.787-2.094v-5.5h2.3V-10.7a1.412,1.412,0,0,0,.409,1.121,1.554,1.554,0,0,0,1.061.358,1.842,1.842,0,0,0,1.3-.465,2,2,0,0,0,.513-1.514Zm9.457-.159a3.953,3.953,0,0,1,1.518.294,3.788,3.788,0,0,1,1.252.83,3.785,3.785,0,0,1,.846,1.347,4.969,4.969,0,0,1,.31,1.788,4.969,4.969,0,0,1-.31,1.788,3.785,3.785,0,0,1-.846,1.347,3.788,3.788,0,0,1-1.252.83,3.953,3.953,0,0,1-1.518.294,3.528,3.528,0,0,1-1.546-.33,2.285,2.285,0,0,1-1.029-.926L24.032-7.54h-2.17V-19.747h2.289v5.03a2.281,2.281,0,0,1,1.021-.85A3.592,3.592,0,0,1,26.662-15.869Zm-.532,6.62a2.059,2.059,0,0,0,1.554-.644,2.379,2.379,0,0,0,.616-1.717,2.39,2.39,0,0,0-.616-1.724,2.059,2.059,0,0,0-1.554-.644,2.035,2.035,0,0,0-1.542.656,2.391,2.391,0,0,0-.62,1.713A2.386,2.386,0,0,0,24.584-9.9,2.038,2.038,0,0,0,26.13-9.249Zm11.007-6.62a3.185,3.185,0,0,1,2.257.735,2.726,2.726,0,0,1,.787,2.094v5.5h-2.3v-5.007a1.423,1.423,0,0,0-.409-1.128,1.542,1.542,0,0,0-1.053-.358,2.151,2.151,0,0,0-.683.1,1.756,1.756,0,0,0-.572.322,1.422,1.422,0,0,0-.409.616,2.848,2.848,0,0,0-.155.946V-7.54H32.313V-15.71H34.6v.906A3.148,3.148,0,0,1,37.137-15.869Zm6.429-1.065a1.285,1.285,0,0,1-.938-.385,1.265,1.265,0,0,1-.389-.934,1.25,1.25,0,0,1,.393-.926,1.289,1.289,0,0,1,.934-.385,1.266,1.266,0,0,1,.922.385,1.256,1.256,0,0,1,.389.926,1.265,1.265,0,0,1-.389.934A1.266,1.266,0,0,1,43.566-16.934ZM42.4-7.54V-15.71h2.3V-7.54Zm9.989-8.169h2.424L51.33-7.54H49.343L45.9-15.71H48.31l2.034,5.587Zm10.983,3.966-.024.548H57.29A2.115,2.115,0,0,0,57.942-9.7a2.084,2.084,0,0,0,1.438.517,2.008,2.008,0,0,0,1.077-.282,1.734,1.734,0,0,0,.687-.823l2.1.31a3.567,3.567,0,0,1-1.43,1.915,4.253,4.253,0,0,1-2.416.683,4.423,4.423,0,0,1-3.183-1.124,4.1,4.1,0,0,1-1.18-3.119,4.127,4.127,0,0,1,1.184-3.119,4.291,4.291,0,0,1,3.107-1.14,4.1,4.1,0,0,1,2.932,1.041A4.084,4.084,0,0,1,63.369-11.744ZM59.34-14.263a1.808,1.808,0,0,0-1.987,1.573H61.1a1.72,1.72,0,0,0-.564-1.168A1.788,1.788,0,0,0,59.34-14.263ZM65.11-7.54V-19.747h2.313V-7.54ZM76.935-3.726A7.606,7.606,0,0,1,74.42-7.262a14.912,14.912,0,0,1-.918-5.4,14.921,14.921,0,0,1,.918-5.4,7.605,7.605,0,0,1,2.515-3.54l1.3,1.55a5.639,5.639,0,0,0-1.927,2.825,13.3,13.3,0,0,0-.727,4.566A13.262,13.262,0,0,0,76.311-8.1a5.637,5.637,0,0,0,1.927,2.817Zm5.523-3.656a4.566,4.566,0,0,1-2.384-.572,2.418,2.418,0,0,1-1.168-1.7l1.915-.54a1.539,1.539,0,0,0,1.637,1.216,1.691,1.691,0,0,0,.834-.187.65.65,0,0,0,.326-.632.668.668,0,0,0-.135-.421,1.07,1.07,0,0,0-.417-.3,5.2,5.2,0,0,0-.556-.215q-.274-.087-.727-.211t-.755-.234a5.057,5.057,0,0,1-.719-.306,3.068,3.068,0,0,1-.6-.421,1.7,1.7,0,0,1-.445-.64,2.308,2.308,0,0,1-.155-.874A2.087,2.087,0,0,1,80-15.249a3.959,3.959,0,0,1,2.317-.62,4.059,4.059,0,0,1,2.138.524,2.374,2.374,0,0,1,1.1,1.637l-1.772.4a1.388,1.388,0,0,0-1.454-1.033,1.592,1.592,0,0,0-.8.183.587.587,0,0,0-.318.54.619.619,0,0,0,.048.246.488.488,0,0,0,.167.2,2.435,2.435,0,0,0,.23.151,1.739,1.739,0,0,0,.326.131q.215.068.358.1l.417.107.425.111q.437.119.767.238a4.492,4.492,0,0,1,.7.334,2.524,2.524,0,0,1,.616.481,2.144,2.144,0,0,1,.4.675,2.5,2.5,0,0,1,.159.91,2.458,2.458,0,0,1-.274,1.184,2.058,2.058,0,0,1-.751.8,3.655,3.655,0,0,1-1.061.429A5.5,5.5,0,0,1,82.458-7.381Zm5.285,3.656-1.3-1.558A5.637,5.637,0,0,0,88.367-8.1a13.262,13.262,0,0,0,.727-4.566,13.3,13.3,0,0,0-.727-4.566,5.639,5.639,0,0,0-1.927-2.825l1.3-1.55a7.605,7.605,0,0,1,2.515,3.54,14.921,14.921,0,0,1,.918,5.4,14.912,14.912,0,0,1-.918,5.4A7.606,7.606,0,0,1,87.743-3.726Z" transform="translate(522.691 6037.184)" fill="#082143"/>
    <path id="Trazado_33634" data-name="Trazado 33634" d="M5.6-7.381A5.548,5.548,0,0,1,2.416-8.26a3.522,3.522,0,0,1-1.55-2.46l2.464-.564a2.092,2.092,0,0,0,.759,1.45,2.518,2.518,0,0,0,1.609.5,2.079,2.079,0,0,0,1.256-.354,1.193,1.193,0,0,0,.477-1.045,1.114,1.114,0,0,0-.405-.85,2.648,2.648,0,0,0-.807-.521q-.4-.155-1.291-.425-.119-.04-.175-.056-.453-.143-.731-.238t-.687-.266a4.578,4.578,0,0,1-.668-.334,4.887,4.887,0,0,1-.552-.413,2.165,2.165,0,0,1-.461-.528,2.807,2.807,0,0,1-.278-.66,2.911,2.911,0,0,1-.111-.819A3.074,3.074,0,0,1,1.8-17.645,3.285,3.285,0,0,1,3.247-18.8a5.264,5.264,0,0,1,2.07-.385,6.54,6.54,0,0,1,1.5.167,5.247,5.247,0,0,1,1.339.513,3.28,3.28,0,0,1,1.069.946,3.556,3.556,0,0,1,.608,1.395l-2.3.572A1.867,1.867,0,0,0,5.46-17.236a2.262,2.262,0,0,0-1.279.334,1.131,1.131,0,0,0-.5,1.009q0,.628.834,1.017a12.434,12.434,0,0,0,1.6.548q.469.143.763.238t.739.278a5.136,5.136,0,0,1,.723.354,5.351,5.351,0,0,1,.6.441,2.375,2.375,0,0,1,.513.572,3.094,3.094,0,0,1,.314.711,2.973,2.973,0,0,1,.127.886,3.481,3.481,0,0,1-.23,1.3,2.819,2.819,0,0,1-.632.977,3.669,3.669,0,0,1-.95.672,4.607,4.607,0,0,1-1.168.4A6.719,6.719,0,0,1,5.6-7.381Zm11.6-8.328h2.289V-7.54h-2.17l-.056-.985a3.12,3.12,0,0,1-2.6,1.144,3.185,3.185,0,0,1-2.257-.735,2.726,2.726,0,0,1-.787-2.094v-5.5h2.3V-10.7a1.412,1.412,0,0,0,.409,1.121,1.554,1.554,0,0,0,1.061.358,1.842,1.842,0,0,0,1.3-.465,2,2,0,0,0,.513-1.514Zm9.457-.159a3.953,3.953,0,0,1,1.518.294,3.788,3.788,0,0,1,1.252.83,3.785,3.785,0,0,1,.846,1.347,4.969,4.969,0,0,1,.31,1.788,4.969,4.969,0,0,1-.31,1.788,3.785,3.785,0,0,1-.846,1.347,3.788,3.788,0,0,1-1.252.83,3.953,3.953,0,0,1-1.518.294,3.528,3.528,0,0,1-1.546-.33,2.285,2.285,0,0,1-1.029-.926L24.032-7.54h-2.17V-19.747h2.289v5.03a2.281,2.281,0,0,1,1.021-.85A3.592,3.592,0,0,1,26.662-15.869Zm-.532,6.62a2.059,2.059,0,0,0,1.554-.644,2.379,2.379,0,0,0,.616-1.717,2.39,2.39,0,0,0-.616-1.724,2.059,2.059,0,0,0-1.554-.644,2.035,2.035,0,0,0-1.542.656,2.391,2.391,0,0,0-.62,1.713A2.386,2.386,0,0,0,24.584-9.9,2.038,2.038,0,0,0,26.13-9.249Zm11.007-6.62a3.185,3.185,0,0,1,2.257.735,2.726,2.726,0,0,1,.787,2.094v5.5h-2.3v-5.007a1.423,1.423,0,0,0-.409-1.128,1.542,1.542,0,0,0-1.053-.358,2.151,2.151,0,0,0-.683.1,1.756,1.756,0,0,0-.572.322,1.422,1.422,0,0,0-.409.616,2.848,2.848,0,0,0-.155.946V-7.54H32.313V-15.71H34.6v.906A3.148,3.148,0,0,1,37.137-15.869Zm6.429-1.065a1.285,1.285,0,0,1-.938-.385,1.265,1.265,0,0,1-.389-.934,1.25,1.25,0,0,1,.393-.926,1.289,1.289,0,0,1,.934-.385,1.266,1.266,0,0,1,.922.385,1.256,1.256,0,0,1,.389.926,1.265,1.265,0,0,1-.389.934A1.266,1.266,0,0,1,43.566-16.934ZM42.4-7.54V-15.71h2.3V-7.54Zm9.989-8.169h2.424L51.33-7.54H49.343L45.9-15.71H48.31l2.034,5.587Zm10.983,3.966-.024.548H57.29A2.115,2.115,0,0,0,57.942-9.7a2.084,2.084,0,0,0,1.438.517,2.008,2.008,0,0,0,1.077-.282,1.734,1.734,0,0,0,.687-.823l2.1.31a3.567,3.567,0,0,1-1.43,1.915,4.253,4.253,0,0,1-2.416.683,4.423,4.423,0,0,1-3.183-1.124,4.1,4.1,0,0,1-1.18-3.119,4.127,4.127,0,0,1,1.184-3.119,4.291,4.291,0,0,1,3.107-1.14,4.1,4.1,0,0,1,2.932,1.041A4.084,4.084,0,0,1,63.369-11.744ZM59.34-14.263a1.808,1.808,0,0,0-1.987,1.573H61.1a1.72,1.72,0,0,0-.564-1.168A1.788,1.788,0,0,0,59.34-14.263ZM65.11-7.54V-19.747h2.313V-7.54ZM76.935-3.726A7.606,7.606,0,0,1,74.42-7.262a14.912,14.912,0,0,1-.918-5.4,14.921,14.921,0,0,1,.918-5.4,7.605,7.605,0,0,1,2.515-3.54l1.3,1.55a5.639,5.639,0,0,0-1.927,2.825,13.3,13.3,0,0,0-.727,4.566A13.262,13.262,0,0,0,76.311-8.1a5.637,5.637,0,0,0,1.927,2.817Zm7.438-12.143a3.973,3.973,0,0,1,1.526.294,3.818,3.818,0,0,1,1.252.826A3.739,3.739,0,0,1,88-13.4a5,5,0,0,1,.31,1.792A5,5,0,0,1,88-9.817a3.739,3.739,0,0,1-.846,1.347,3.818,3.818,0,0,1-1.252.826,3.973,3.973,0,0,1-1.526.294,3.545,3.545,0,0,1-1.478-.3A2.316,2.316,0,0,1,81.87-8.51v4.943H79.581V-15.71h2.17l.064,1.1a2.237,2.237,0,0,1,1.021-.926A3.51,3.51,0,0,1,84.373-15.869Zm-.517,6.62a2.056,2.056,0,0,0,1.546-.64,2.376,2.376,0,0,0,.616-1.721A2.376,2.376,0,0,0,85.4-13.33a2.056,2.056,0,0,0-1.546-.64,2.059,2.059,0,0,0-1.558.652,2.377,2.377,0,0,0-.62,1.709A2.377,2.377,0,0,0,82.3-9.9,2.059,2.059,0,0,0,83.857-9.249ZM90.31-3.726l-1.3-1.558A5.637,5.637,0,0,0,90.933-8.1a13.262,13.262,0,0,0,.727-4.566,13.3,13.3,0,0,0-.727-4.566,5.639,5.639,0,0,0-1.927-2.825l1.3-1.55a7.605,7.605,0,0,1,2.515,3.54,14.921,14.921,0,0,1,.918,5.4,14.912,14.912,0,0,1-.918,5.4A7.606,7.606,0,0,1,90.31-3.726Z" transform="translate(669.82 6005.936)" fill="#082143"/>
    <path id="Trazado_33635" data-name="Trazado 33635" d="M5.6-7.381A5.548,5.548,0,0,1,2.416-8.26a3.522,3.522,0,0,1-1.55-2.46l2.464-.564a2.092,2.092,0,0,0,.759,1.45,2.518,2.518,0,0,0,1.609.5,2.079,2.079,0,0,0,1.256-.354,1.193,1.193,0,0,0,.477-1.045,1.114,1.114,0,0,0-.405-.85,2.648,2.648,0,0,0-.807-.521q-.4-.155-1.291-.425-.119-.04-.175-.056-.453-.143-.731-.238t-.687-.266a4.578,4.578,0,0,1-.668-.334,4.887,4.887,0,0,1-.552-.413,2.165,2.165,0,0,1-.461-.528,2.807,2.807,0,0,1-.278-.66,2.911,2.911,0,0,1-.111-.819A3.074,3.074,0,0,1,1.8-17.645,3.285,3.285,0,0,1,3.247-18.8a5.264,5.264,0,0,1,2.07-.385,6.54,6.54,0,0,1,1.5.167,5.247,5.247,0,0,1,1.339.513,3.28,3.28,0,0,1,1.069.946,3.556,3.556,0,0,1,.608,1.395l-2.3.572A1.867,1.867,0,0,0,5.46-17.236a2.262,2.262,0,0,0-1.279.334,1.131,1.131,0,0,0-.5,1.009q0,.628.834,1.017a12.434,12.434,0,0,0,1.6.548q.469.143.763.238t.739.278a5.136,5.136,0,0,1,.723.354,5.351,5.351,0,0,1,.6.441,2.375,2.375,0,0,1,.513.572,3.094,3.094,0,0,1,.314.711,2.973,2.973,0,0,1,.127.886,3.481,3.481,0,0,1-.23,1.3,2.819,2.819,0,0,1-.632.977,3.669,3.669,0,0,1-.95.672,4.607,4.607,0,0,1-1.168.4A6.719,6.719,0,0,1,5.6-7.381Zm11.6-8.328h2.289V-7.54h-2.17l-.056-.985a3.12,3.12,0,0,1-2.6,1.144,3.185,3.185,0,0,1-2.257-.735,2.726,2.726,0,0,1-.787-2.094v-5.5h2.3V-10.7a1.412,1.412,0,0,0,.409,1.121,1.554,1.554,0,0,0,1.061.358,1.842,1.842,0,0,0,1.3-.465,2,2,0,0,0,.513-1.514Zm9.457-.159a3.953,3.953,0,0,1,1.518.294,3.788,3.788,0,0,1,1.252.83,3.785,3.785,0,0,1,.846,1.347,4.969,4.969,0,0,1,.31,1.788,4.969,4.969,0,0,1-.31,1.788,3.785,3.785,0,0,1-.846,1.347,3.788,3.788,0,0,1-1.252.83,3.953,3.953,0,0,1-1.518.294,3.528,3.528,0,0,1-1.546-.33,2.285,2.285,0,0,1-1.029-.926L24.032-7.54h-2.17V-19.747h2.289v5.03a2.281,2.281,0,0,1,1.021-.85A3.592,3.592,0,0,1,26.662-15.869Zm-.532,6.62a2.059,2.059,0,0,0,1.554-.644,2.379,2.379,0,0,0,.616-1.717,2.39,2.39,0,0,0-.616-1.724,2.059,2.059,0,0,0-1.554-.644,2.035,2.035,0,0,0-1.542.656,2.391,2.391,0,0,0-.62,1.713A2.386,2.386,0,0,0,24.584-9.9,2.038,2.038,0,0,0,26.13-9.249Zm11.007-6.62a3.185,3.185,0,0,1,2.257.735,2.726,2.726,0,0,1,.787,2.094v5.5h-2.3v-5.007a1.423,1.423,0,0,0-.409-1.128,1.542,1.542,0,0,0-1.053-.358,2.151,2.151,0,0,0-.683.1,1.756,1.756,0,0,0-.572.322,1.422,1.422,0,0,0-.409.616,2.848,2.848,0,0,0-.155.946V-7.54H32.313V-15.71H34.6v.906A3.148,3.148,0,0,1,37.137-15.869Zm6.429-1.065a1.285,1.285,0,0,1-.938-.385,1.265,1.265,0,0,1-.389-.934,1.25,1.25,0,0,1,.393-.926,1.289,1.289,0,0,1,.934-.385,1.266,1.266,0,0,1,.922.385,1.256,1.256,0,0,1,.389.926,1.265,1.265,0,0,1-.389.934A1.266,1.266,0,0,1,43.566-16.934ZM42.4-7.54V-15.71h2.3V-7.54Zm9.989-8.169h2.424L51.33-7.54H49.343L45.9-15.71H48.31l2.034,5.587Zm10.983,3.966-.024.548H57.29A2.115,2.115,0,0,0,57.942-9.7a2.084,2.084,0,0,0,1.438.517,2.008,2.008,0,0,0,1.077-.282,1.734,1.734,0,0,0,.687-.823l2.1.31a3.567,3.567,0,0,1-1.43,1.915,4.253,4.253,0,0,1-2.416.683,4.423,4.423,0,0,1-3.183-1.124,4.1,4.1,0,0,1-1.18-3.119,4.127,4.127,0,0,1,1.184-3.119,4.291,4.291,0,0,1,3.107-1.14,4.1,4.1,0,0,1,2.932,1.041A4.084,4.084,0,0,1,63.369-11.744ZM59.34-14.263a1.808,1.808,0,0,0-1.987,1.573H61.1a1.72,1.72,0,0,0-.564-1.168A1.788,1.788,0,0,0,59.34-14.263ZM65.11-7.54V-19.747h2.313V-7.54ZM76.935-3.726A7.606,7.606,0,0,1,74.42-7.262a14.912,14.912,0,0,1-.918-5.4,14.921,14.921,0,0,1,.918-5.4,7.605,7.605,0,0,1,2.515-3.54l1.3,1.55a5.639,5.639,0,0,0-1.927,2.825,13.3,13.3,0,0,0-.727,4.566A13.262,13.262,0,0,0,76.311-8.1a5.637,5.637,0,0,0,1.927,2.817Zm8.44-16.021h2.289V-7.54h-2.17l-.056-1.065a2.333,2.333,0,0,1-1.037.926,3.491,3.491,0,0,1-1.53.33,3.973,3.973,0,0,1-1.526-.294,3.788,3.788,0,0,1-1.252-.83,3.785,3.785,0,0,1-.846-1.347,4.969,4.969,0,0,1-.31-1.788,4.645,4.645,0,0,1,.54-2.277A3.7,3.7,0,0,1,80.9-15.368a3.928,3.928,0,0,1,1.967-.5,3.578,3.578,0,0,1,1.482.3,2.314,2.314,0,0,1,1.021.846ZM83.4-9.249A2.038,2.038,0,0,0,84.941-9.9a2.386,2.386,0,0,0,.616-1.709,2.391,2.391,0,0,0-.62-1.713,2.035,2.035,0,0,0-1.542-.656,2.059,2.059,0,0,0-1.554.644,2.39,2.39,0,0,0-.616,1.724,2.379,2.379,0,0,0,.616,1.717A2.059,2.059,0,0,0,83.4-9.249ZM90.31-3.726l-1.3-1.558A5.637,5.637,0,0,0,90.933-8.1a13.262,13.262,0,0,0,.727-4.566,13.3,13.3,0,0,0-.727-4.566,5.639,5.639,0,0,0-1.927-2.825l1.3-1.55a7.605,7.605,0,0,1,2.515,3.54,14.921,14.921,0,0,1,.918,5.4,14.912,14.912,0,0,1-.918,5.4A7.606,7.606,0,0,1,90.31-3.726Z" transform="translate(818.251 5973.385)" fill="#fff"/>
    <path id="Trazado_33638" data-name="Trazado 33638" d="M5.6-7.381A5.548,5.548,0,0,1,2.416-8.26a3.522,3.522,0,0,1-1.55-2.46l2.464-.564a2.092,2.092,0,0,0,.759,1.45,2.518,2.518,0,0,0,1.609.5,2.079,2.079,0,0,0,1.256-.354,1.193,1.193,0,0,0,.477-1.045,1.114,1.114,0,0,0-.405-.85,2.648,2.648,0,0,0-.807-.521q-.4-.155-1.291-.425-.119-.04-.175-.056-.453-.143-.731-.238t-.687-.266a4.578,4.578,0,0,1-.668-.334,4.887,4.887,0,0,1-.552-.413,2.165,2.165,0,0,1-.461-.528,2.807,2.807,0,0,1-.278-.66,2.911,2.911,0,0,1-.111-.819A3.074,3.074,0,0,1,1.8-17.645,3.285,3.285,0,0,1,3.247-18.8a5.264,5.264,0,0,1,2.07-.385,6.54,6.54,0,0,1,1.5.167,5.247,5.247,0,0,1,1.339.513,3.28,3.28,0,0,1,1.069.946,3.556,3.556,0,0,1,.608,1.395l-2.3.572A1.867,1.867,0,0,0,5.46-17.236a2.262,2.262,0,0,0-1.279.334,1.131,1.131,0,0,0-.5,1.009q0,.628.834,1.017a12.434,12.434,0,0,0,1.6.548q.469.143.763.238t.739.278a5.136,5.136,0,0,1,.723.354,5.351,5.351,0,0,1,.6.441,2.375,2.375,0,0,1,.513.572,3.094,3.094,0,0,1,.314.711,2.973,2.973,0,0,1,.127.886,3.481,3.481,0,0,1-.23,1.3,2.819,2.819,0,0,1-.632.977,3.669,3.669,0,0,1-.95.672,4.607,4.607,0,0,1-1.168.4A6.719,6.719,0,0,1,5.6-7.381Zm11.6-8.328h2.289V-7.54h-2.17l-.056-.985a3.12,3.12,0,0,1-2.6,1.144,3.185,3.185,0,0,1-2.257-.735,2.726,2.726,0,0,1-.787-2.094v-5.5h2.3V-10.7a1.412,1.412,0,0,0,.409,1.121,1.554,1.554,0,0,0,1.061.358,1.842,1.842,0,0,0,1.3-.465,2,2,0,0,0,.513-1.514Zm9.457-.159a3.953,3.953,0,0,1,1.518.294,3.788,3.788,0,0,1,1.252.83,3.785,3.785,0,0,1,.846,1.347,4.969,4.969,0,0,1,.31,1.788,4.969,4.969,0,0,1-.31,1.788,3.785,3.785,0,0,1-.846,1.347,3.788,3.788,0,0,1-1.252.83,3.953,3.953,0,0,1-1.518.294,3.528,3.528,0,0,1-1.546-.33,2.285,2.285,0,0,1-1.029-.926L24.032-7.54h-2.17V-19.747h2.289v5.03a2.281,2.281,0,0,1,1.021-.85A3.592,3.592,0,0,1,26.662-15.869Zm-.532,6.62a2.059,2.059,0,0,0,1.554-.644,2.379,2.379,0,0,0,.616-1.717,2.39,2.39,0,0,0-.616-1.724,2.059,2.059,0,0,0-1.554-.644,2.035,2.035,0,0,0-1.542.656,2.391,2.391,0,0,0-.62,1.713A2.386,2.386,0,0,0,24.584-9.9,2.038,2.038,0,0,0,26.13-9.249Zm11.007-6.62a3.185,3.185,0,0,1,2.257.735,2.726,2.726,0,0,1,.787,2.094v5.5h-2.3v-5.007a1.423,1.423,0,0,0-.409-1.128,1.542,1.542,0,0,0-1.053-.358,2.151,2.151,0,0,0-.683.1,1.756,1.756,0,0,0-.572.322,1.422,1.422,0,0,0-.409.616,2.848,2.848,0,0,0-.155.946V-7.54H32.313V-15.71H34.6v.906A3.148,3.148,0,0,1,37.137-15.869Zm6.429-1.065a1.285,1.285,0,0,1-.938-.385,1.265,1.265,0,0,1-.389-.934,1.25,1.25,0,0,1,.393-.926,1.289,1.289,0,0,1,.934-.385,1.266,1.266,0,0,1,.922.385,1.256,1.256,0,0,1,.389.926,1.265,1.265,0,0,1-.389.934A1.266,1.266,0,0,1,43.566-16.934ZM42.4-7.54V-15.71h2.3V-7.54Zm9.989-8.169h2.424L51.33-7.54H49.343L45.9-15.71H48.31l2.034,5.587Zm10.983,3.966-.024.548H57.29A2.115,2.115,0,0,0,57.942-9.7a2.084,2.084,0,0,0,1.438.517,2.008,2.008,0,0,0,1.077-.282,1.734,1.734,0,0,0,.687-.823l2.1.31a3.567,3.567,0,0,1-1.43,1.915,4.253,4.253,0,0,1-2.416.683,4.423,4.423,0,0,1-3.183-1.124,4.1,4.1,0,0,1-1.18-3.119,4.127,4.127,0,0,1,1.184-3.119,4.291,4.291,0,0,1,3.107-1.14,4.1,4.1,0,0,1,2.932,1.041A4.084,4.084,0,0,1,63.369-11.744ZM59.34-14.263a1.808,1.808,0,0,0-1.987,1.573H61.1a1.72,1.72,0,0,0-.564-1.168A1.788,1.788,0,0,0,59.34-14.263ZM65.11-7.54V-19.747h2.313V-7.54ZM76.935-3.726A7.606,7.606,0,0,1,74.42-7.262a14.912,14.912,0,0,1-.918-5.4,14.921,14.921,0,0,1,.918-5.4,7.605,7.605,0,0,1,2.515-3.54l1.3,1.55a5.639,5.639,0,0,0-1.927,2.825,13.3,13.3,0,0,0-.727,4.566A13.262,13.262,0,0,0,76.311-8.1a5.637,5.637,0,0,0,1.927,2.817ZM84.19-17.919h-.048q-.223,0-.338,0t-.326.028a1.319,1.319,0,0,0-.33.072,1.681,1.681,0,0,0-.274.147.732.732,0,0,0-.238.238,1.441,1.441,0,0,0-.143.354,1.846,1.846,0,0,0-.06.493v.874H84.19v1.756H82.434V-7.54H80.153v-6.413h-1.6V-15.71h1.6v-.882a4.777,4.777,0,0,1,.1-1.041,3.168,3.168,0,0,1,.278-.791A1.851,1.851,0,0,1,81-18.992a2.743,2.743,0,0,1,.6-.381,3.451,3.451,0,0,1,.751-.23,6.587,6.587,0,0,1,.862-.115q.425-.028.974-.028ZM85.764-3.726l-1.3-1.558A5.637,5.637,0,0,0,86.388-8.1a13.262,13.262,0,0,0,.727-4.566,13.3,13.3,0,0,0-.727-4.566,5.639,5.639,0,0,0-1.927-2.825l1.3-1.55a7.605,7.605,0,0,1,2.515,3.54,14.921,14.921,0,0,1,.918,5.4,14.912,14.912,0,0,1-.918,5.4A7.606,7.606,0,0,1,85.764-3.726Z" transform="translate(986.213 5925.209)" fill="#fff"/>
    <path id="Trazado_33641" data-name="Trazado 33641" d="M7.357-5.235,6.587-7.377H2.538L1.775-5.235H.586l3.3-8.951H5.246l3.3,8.951ZM2.9-8.382H6.231l-1.666-4.66ZM12.551-5.12a3.01,3.01,0,0,1-2.238-.9,3.2,3.2,0,0,1-.884-2.346,3.2,3.2,0,0,1,.881-2.346,3.007,3.007,0,0,1,2.241-.9,3.032,3.032,0,0,1,1.809.547,2.759,2.759,0,0,1,1.052,1.519l-1.03.165a1.9,1.9,0,0,0-.706-.973,1.921,1.921,0,0,0-1.132-.343,1.848,1.848,0,0,0-1.446.642,2.446,2.446,0,0,0-.569,1.685A2.434,2.434,0,0,0,11.1-6.681a1.852,1.852,0,0,0,1.446.639,1.921,1.921,0,0,0,1.132-.343,1.9,1.9,0,0,0,.706-.973l1.03.172A2.762,2.762,0,0,1,14.353-5.67,3.027,3.027,0,0,1,12.551-5.12ZM22.5-8.484l-.013.3H17.605a2.208,2.208,0,0,0,.6,1.6,1.962,1.962,0,0,0,1.424.556,1.874,1.874,0,0,0,1.036-.3,1.939,1.939,0,0,0,.712-.826l.992.21A2.819,2.819,0,0,1,21.3-5.6a2.914,2.914,0,0,1-1.659.49,3.019,3.019,0,0,1-2.251-.871,3.24,3.24,0,0,1-.858-2.378,3.225,3.225,0,0,1,.861-2.371,2.981,2.981,0,0,1,2.216-.871,2.821,2.821,0,0,1,2.1.8A3.165,3.165,0,0,1,22.5-8.484ZM19.608-10.76a1.949,1.949,0,0,0-1.3.442A2.024,2.024,0,0,0,17.65-9.03h3.745a1.857,1.857,0,0,0-.547-1.287A1.766,1.766,0,0,0,19.608-10.76Zm7.915-.846a2.842,2.842,0,0,1,1.132.229,2.784,2.784,0,0,1,.928.642,3,3,0,0,1,.626,1.03,3.8,3.8,0,0,1,.232,1.348A3.3,3.3,0,0,1,29.6-6a2.736,2.736,0,0,1-2.076.9,2.474,2.474,0,0,1-1.306-.356,2.333,2.333,0,0,1-.893-.96v4.329h-1.1v-9.4h1.062l.025,1.214a2.288,2.288,0,0,1,.89-.976A2.5,2.5,0,0,1,27.523-11.605Zm-.216,5.55a1.9,1.9,0,0,0,1.446-.633,2.353,2.353,0,0,0,.588-1.669,2.341,2.341,0,0,0-.588-1.666,1.9,1.9,0,0,0-1.446-.629,1.907,1.907,0,0,0-1.469.658,2.344,2.344,0,0,0-.6,1.637,2.352,2.352,0,0,0,.6,1.643A1.907,1.907,0,0,0,27.307-6.055Zm6.866.82a1.643,1.643,0,0,1-1.221-.448,1.7,1.7,0,0,1-.445-1.249v-3.675H31.229v-.877h.47a.9.9,0,0,0,.69-.219,1.079,1.079,0,0,0,.2-.734V-13.57h1.024v2.085H35.05v.877H33.613v3.56a.947.947,0,0,0,.238.69.835.835,0,0,0,.626.245h.572v.877Zm3.834.121a2.127,2.127,0,0,1-1.37-.429A1.541,1.541,0,0,1,36.1-6.824a1.82,1.82,0,0,1,.172-.817,1.44,1.44,0,0,1,.509-.569,3.051,3.051,0,0,1,.734-.353,6.788,6.788,0,0,1,.95-.226l1.011-.165q.553-.1.553-.579a1.092,1.092,0,0,0-.391-.931,1.593,1.593,0,0,0-.989-.3,1.623,1.623,0,0,0-.979.286,1.2,1.2,0,0,0-.464.877l-.992-.21A1.909,1.909,0,0,1,37-11.144a2.922,2.922,0,0,1,1.7-.448,3.456,3.456,0,0,1,.906.111,2.462,2.462,0,0,1,.757.35,1.568,1.568,0,0,1,.54.674A2.508,2.508,0,0,1,41.1-9.431V-6.85a1.056,1.056,0,0,0,.143.652.617.617,0,0,0,.493.168h.1v.795h-.547A1.043,1.043,0,0,1,40.1-6.08h-.051A2.388,2.388,0,0,1,38.007-5.114ZM38.261-6a1.668,1.668,0,0,0,1.341-.6,2.487,2.487,0,0,0,.509-1.653l-1.653.318a2.225,2.225,0,0,0-.97.346.806.806,0,0,0-.315.683.8.8,0,0,0,.3.687A1.291,1.291,0,0,0,38.261-6Zm9.606-.242h4.457v1.011h-6.04v-.833L49.87-9.774a4.247,4.247,0,0,0,.807-1.062,2.118,2.118,0,0,0,.223-.922,1.545,1.545,0,0,0-.451-1.186,1.642,1.642,0,0,0-1.17-.423,1.641,1.641,0,0,0-1.224.461,1.983,1.983,0,0,0-.455,1.44v.661l-1.1-.1v-.553a2.83,2.83,0,0,1,.757-2.127,2.779,2.779,0,0,1,2.022-.734,2.8,2.8,0,0,1,1.942.68,2.366,2.366,0,0,1,.76,1.856,2.815,2.815,0,0,1-.3,1.294,5.562,5.562,0,0,1-.97,1.287Zm15.08-2.238-.013.3H58.052a2.208,2.208,0,0,0,.6,1.6,1.962,1.962,0,0,0,1.424.556,1.874,1.874,0,0,0,1.036-.3,1.939,1.939,0,0,0,.712-.826l.992.21A2.819,2.819,0,0,1,61.746-5.6a2.914,2.914,0,0,1-1.659.49,3.019,3.019,0,0,1-2.251-.871,3.24,3.24,0,0,1-.858-2.378,3.225,3.225,0,0,1,.861-2.371,2.982,2.982,0,0,1,2.216-.871,2.821,2.821,0,0,1,2.1.8A3.165,3.165,0,0,1,62.947-8.484ZM60.055-10.76a1.949,1.949,0,0,0-1.3.442A2.024,2.024,0,0,0,58.1-9.03h3.745a1.857,1.857,0,0,0-.547-1.287A1.766,1.766,0,0,0,60.055-10.76ZM64.67-5.235V-15h1.113v9.765Zm8.818-3.249-.013.3H68.593a2.208,2.208,0,0,0,.6,1.6,1.962,1.962,0,0,0,1.424.556,1.874,1.874,0,0,0,1.036-.3,1.939,1.939,0,0,0,.712-.826l.992.21A2.819,2.819,0,0,1,72.286-5.6a2.914,2.914,0,0,1-1.659.49,3.019,3.019,0,0,1-2.251-.871,3.24,3.24,0,0,1-.858-2.378,3.225,3.225,0,0,1,.861-2.371,2.982,2.982,0,0,1,2.216-.871,2.821,2.821,0,0,1,2.1.8A3.165,3.165,0,0,1,73.488-8.484ZM70.6-10.76a1.949,1.949,0,0,0-1.3.442,2.024,2.024,0,0,0-.658,1.287h3.745a1.857,1.857,0,0,0-.547-1.287A1.766,1.766,0,0,0,70.6-10.76ZM77.8-5.12a3.01,3.01,0,0,1-2.238-.9,3.2,3.2,0,0,1-.884-2.346,3.2,3.2,0,0,1,.881-2.346,3.007,3.007,0,0,1,2.241-.9,3.032,3.032,0,0,1,1.809.547,2.759,2.759,0,0,1,1.052,1.519l-1.03.165a1.9,1.9,0,0,0-.706-.973A1.921,1.921,0,0,0,77.8-10.69a1.848,1.848,0,0,0-1.446.642,2.446,2.446,0,0,0-.569,1.685,2.434,2.434,0,0,0,.569,1.682,1.852,1.852,0,0,0,1.446.639,1.921,1.921,0,0,0,1.132-.343,1.9,1.9,0,0,0,.706-.973l1.03.172A2.762,2.762,0,0,1,79.607-5.67,3.027,3.027,0,0,1,77.8-5.12Zm6.478-.114a1.643,1.643,0,0,1-1.221-.448,1.7,1.7,0,0,1-.445-1.249v-3.675H81.34v-.877h.47a.9.9,0,0,0,.69-.219,1.079,1.079,0,0,0,.2-.734V-13.57h1.024v2.085h1.437v.877H83.724v3.56a.947.947,0,0,0,.238.69.835.835,0,0,0,.626.245h.572v.877Zm3.541-5.15a1.889,1.889,0,0,1,.776-.839,2.336,2.336,0,0,1,1.2-.331v1.036a2.059,2.059,0,0,0-1.453.464,1.939,1.939,0,0,0-.5,1.481v3.338h-1.1v-6.249h1.074Zm5.824,5.27a3.294,3.294,0,0,1-1.6-.388,2.824,2.824,0,0,1-1.128-1.135A3.486,3.486,0,0,1,90.5-8.363a3.184,3.184,0,0,1,.887-2.355,3.061,3.061,0,0,1,2.26-.887,3.059,3.059,0,0,1,2.263.887,3.19,3.19,0,0,1,.884,2.355A3.192,3.192,0,0,1,95.908-6,3.061,3.061,0,0,1,93.648-5.114Zm-.006-.915a1.919,1.919,0,0,0,1.478-.642,2.406,2.406,0,0,0,.588-1.691,2.4,2.4,0,0,0-.588-1.685,1.919,1.919,0,0,0-1.478-.642,1.893,1.893,0,0,0-1.465.642,2.413,2.413,0,0,0-.582,1.685,2.422,2.422,0,0,0,.582,1.691A1.893,1.893,0,0,0,93.642-6.029Zm7.826-5.576a2.174,2.174,0,0,1,1.573.566,2.111,2.111,0,0,1,.588,1.6v4.209h-1.1V-9.2a1.478,1.478,0,0,0-.381-1.119,1.364,1.364,0,0,0-.979-.362,1.512,1.512,0,0,0-1.113.429,1.741,1.741,0,0,0-.439,1.275v3.738h-1.1v-6.249h1.1v.8A2.087,2.087,0,0,1,101.468-11.605Zm9.752,3.122-.013.3h-4.883a2.208,2.208,0,0,0,.6,1.6,1.962,1.962,0,0,0,1.424.556,1.874,1.874,0,0,0,1.036-.3,1.939,1.939,0,0,0,.712-.826l.992.21A2.819,2.819,0,0,1,110.019-5.6a2.914,2.914,0,0,1-1.659.49,3.019,3.019,0,0,1-2.251-.871,3.24,3.24,0,0,1-.858-2.378,3.225,3.225,0,0,1,.861-2.371,2.981,2.981,0,0,1,2.216-.871,2.821,2.821,0,0,1,2.1.8A3.165,3.165,0,0,1,111.22-8.484Zm-2.893-2.276a1.949,1.949,0,0,0-1.3.442,2.024,2.024,0,0,0-.658,1.287h3.745a1.857,1.857,0,0,0-.547-1.287A1.766,1.766,0,0,0,108.327-10.76Zm6.593,5.646a2.963,2.963,0,0,1-1.685-.451,1.867,1.867,0,0,1-.82-1.284l.96-.273a1.339,1.339,0,0,0,.512.868,1.66,1.66,0,0,0,1.027.308,2.049,2.049,0,0,0,.6-.083.963.963,0,0,0,.461-.308.826.826,0,0,0,.184-.569.83.83,0,0,0-.051-.257,1.1,1.1,0,0,0-.1-.207.63.63,0,0,0-.178-.172,2.348,2.348,0,0,0-.216-.134,2.218,2.218,0,0,0-.283-.118q-.188-.067-.3-.1t-.35-.1l-.362-.1a6.779,6.779,0,0,1-.648-.229,2.844,2.844,0,0,1-.528-.3,1.215,1.215,0,0,1-.41-.493,1.667,1.667,0,0,1-.137-.7,1.616,1.616,0,0,1,.305-1,1.717,1.717,0,0,1,.792-.588,3.164,3.164,0,0,1,1.109-.181,2.715,2.715,0,0,1,1.523.407,1.737,1.737,0,0,1,.76,1.221l-.9.229a1.2,1.2,0,0,0-.477-.792,1.518,1.518,0,0,0-.9-.264,1.547,1.547,0,0,0-.839.219.737.737,0,0,0-.35.671.667.667,0,0,0,.092.346,1.1,1.1,0,0,0,.188.245,1.153,1.153,0,0,0,.343.188q.248.1.369.134t.458.118q.064.019.1.025.369.1.6.168a3.692,3.692,0,0,1,.54.229,1.8,1.8,0,0,1,.486.34,1.576,1.576,0,0,1,.305.483,1.706,1.706,0,0,1,.127.674,1.82,1.82,0,0,1-.188.842,1.467,1.467,0,0,1-.512.575,2.475,2.475,0,0,1-.728.315A3.468,3.468,0,0,1,114.92-5.114Z" transform="translate(506.514 6089.563)" fill="#082143"/>
    <path id="Trazado_33642" data-name="Trazado 33642" d="M7.357-5.235,6.587-7.377H2.538L1.775-5.235H.586l3.3-8.951H5.246l3.3,8.951ZM2.9-8.382H6.231l-1.666-4.66ZM12.551-5.12a3.01,3.01,0,0,1-2.238-.9,3.2,3.2,0,0,1-.884-2.346,3.2,3.2,0,0,1,.881-2.346,3.007,3.007,0,0,1,2.241-.9,3.032,3.032,0,0,1,1.809.547,2.759,2.759,0,0,1,1.052,1.519l-1.03.165a1.9,1.9,0,0,0-.706-.973,1.921,1.921,0,0,0-1.132-.343,1.848,1.848,0,0,0-1.446.642,2.446,2.446,0,0,0-.569,1.685A2.434,2.434,0,0,0,11.1-6.681a1.852,1.852,0,0,0,1.446.639,1.921,1.921,0,0,0,1.132-.343,1.9,1.9,0,0,0,.706-.973l1.03.172A2.762,2.762,0,0,1,14.353-5.67,3.027,3.027,0,0,1,12.551-5.12ZM22.5-8.484l-.013.3H17.605a2.208,2.208,0,0,0,.6,1.6,1.962,1.962,0,0,0,1.424.556,1.874,1.874,0,0,0,1.036-.3,1.939,1.939,0,0,0,.712-.826l.992.21A2.819,2.819,0,0,1,21.3-5.6a2.914,2.914,0,0,1-1.659.49,3.019,3.019,0,0,1-2.251-.871,3.24,3.24,0,0,1-.858-2.378,3.225,3.225,0,0,1,.861-2.371,2.981,2.981,0,0,1,2.216-.871,2.821,2.821,0,0,1,2.1.8A3.165,3.165,0,0,1,22.5-8.484ZM19.608-10.76a1.949,1.949,0,0,0-1.3.442A2.024,2.024,0,0,0,17.65-9.03h3.745a1.857,1.857,0,0,0-.547-1.287A1.766,1.766,0,0,0,19.608-10.76Zm7.915-.846a2.842,2.842,0,0,1,1.132.229,2.784,2.784,0,0,1,.928.642,3,3,0,0,1,.626,1.03,3.8,3.8,0,0,1,.232,1.348A3.3,3.3,0,0,1,29.6-6a2.736,2.736,0,0,1-2.076.9,2.474,2.474,0,0,1-1.306-.356,2.333,2.333,0,0,1-.893-.96v4.329h-1.1v-9.4h1.062l.025,1.214a2.288,2.288,0,0,1,.89-.976A2.5,2.5,0,0,1,27.523-11.605Zm-.216,5.55a1.9,1.9,0,0,0,1.446-.633,2.353,2.353,0,0,0,.588-1.669,2.341,2.341,0,0,0-.588-1.666,1.9,1.9,0,0,0-1.446-.629,1.907,1.907,0,0,0-1.469.658,2.344,2.344,0,0,0-.6,1.637,2.352,2.352,0,0,0,.6,1.643A1.907,1.907,0,0,0,27.307-6.055Zm6.866.82a1.643,1.643,0,0,1-1.221-.448,1.7,1.7,0,0,1-.445-1.249v-3.675H31.229v-.877h.47a.9.9,0,0,0,.69-.219,1.079,1.079,0,0,0,.2-.734V-13.57h1.024v2.085H35.05v.877H33.613v3.56a.947.947,0,0,0,.238.69.835.835,0,0,0,.626.245h.572v.877Zm3.834.121a2.127,2.127,0,0,1-1.37-.429A1.541,1.541,0,0,1,36.1-6.824a1.82,1.82,0,0,1,.172-.817,1.44,1.44,0,0,1,.509-.569,3.051,3.051,0,0,1,.734-.353,6.788,6.788,0,0,1,.95-.226l1.011-.165q.553-.1.553-.579a1.092,1.092,0,0,0-.391-.931,1.593,1.593,0,0,0-.989-.3,1.623,1.623,0,0,0-.979.286,1.2,1.2,0,0,0-.464.877l-.992-.21A1.909,1.909,0,0,1,37-11.144a2.922,2.922,0,0,1,1.7-.448,3.456,3.456,0,0,1,.906.111,2.462,2.462,0,0,1,.757.35,1.568,1.568,0,0,1,.54.674A2.508,2.508,0,0,1,41.1-9.431V-6.85a1.056,1.056,0,0,0,.143.652.617.617,0,0,0,.493.168h.1v.795h-.547A1.043,1.043,0,0,1,40.1-6.08h-.051A2.388,2.388,0,0,1,38.007-5.114ZM38.261-6a1.668,1.668,0,0,0,1.341-.6,2.487,2.487,0,0,0,.509-1.653l-1.653.318a2.225,2.225,0,0,0-.97.346.806.806,0,0,0-.315.683.8.8,0,0,0,.3.687A1.291,1.291,0,0,0,38.261-6ZM52.406-8.216A3.021,3.021,0,0,1,52-6.608a2.875,2.875,0,0,1-1.125,1.093,3.21,3.21,0,0,1-1.551.381A3.125,3.125,0,0,1,47.1-5.975a2.846,2.846,0,0,1-.9-2.171,3.525,3.525,0,0,1,.776-2.149l2.994-3.891h1.3l-2.486,3.134a2.787,2.787,0,0,1,.776-.108,2.845,2.845,0,0,1,1.373.343A2.75,2.75,0,0,1,51.98-9.79,3.068,3.068,0,0,1,52.406-8.216ZM49.3-6.157a2,2,0,0,0,1.472-.569,1.988,1.988,0,0,0,.563-1.51,2.037,2.037,0,0,0-.591-1.51,2.025,2.025,0,0,0-1.462-.556,1.924,1.924,0,0,0-1.462.614,2.056,2.056,0,0,0-.566,1.5A1.981,1.981,0,0,0,47.826-6.7,2.05,2.05,0,0,0,49.3-6.157Zm13.65-2.327-.013.3H58.052a2.208,2.208,0,0,0,.6,1.6,1.962,1.962,0,0,0,1.424.556,1.874,1.874,0,0,0,1.036-.3,1.939,1.939,0,0,0,.712-.826l.992.21A2.819,2.819,0,0,1,61.746-5.6a2.914,2.914,0,0,1-1.659.49,3.019,3.019,0,0,1-2.251-.871,3.24,3.24,0,0,1-.858-2.378,3.225,3.225,0,0,1,.861-2.371,2.982,2.982,0,0,1,2.216-.871,2.821,2.821,0,0,1,2.1.8A3.165,3.165,0,0,1,62.947-8.484ZM60.055-10.76a1.949,1.949,0,0,0-1.3.442A2.024,2.024,0,0,0,58.1-9.03h3.745a1.857,1.857,0,0,0-.547-1.287A1.766,1.766,0,0,0,60.055-10.76ZM64.67-5.235V-15h1.113v9.765Zm8.818-3.249-.013.3H68.593a2.208,2.208,0,0,0,.6,1.6,1.962,1.962,0,0,0,1.424.556,1.874,1.874,0,0,0,1.036-.3,1.939,1.939,0,0,0,.712-.826l.992.21A2.819,2.819,0,0,1,72.286-5.6a2.914,2.914,0,0,1-1.659.49,3.019,3.019,0,0,1-2.251-.871,3.24,3.24,0,0,1-.858-2.378,3.225,3.225,0,0,1,.861-2.371,2.982,2.982,0,0,1,2.216-.871,2.821,2.821,0,0,1,2.1.8A3.165,3.165,0,0,1,73.488-8.484ZM70.6-10.76a1.949,1.949,0,0,0-1.3.442,2.024,2.024,0,0,0-.658,1.287h3.745a1.857,1.857,0,0,0-.547-1.287A1.766,1.766,0,0,0,70.6-10.76ZM77.8-5.12a3.01,3.01,0,0,1-2.238-.9,3.2,3.2,0,0,1-.884-2.346,3.2,3.2,0,0,1,.881-2.346,3.007,3.007,0,0,1,2.241-.9,3.032,3.032,0,0,1,1.809.547,2.759,2.759,0,0,1,1.052,1.519l-1.03.165a1.9,1.9,0,0,0-.706-.973A1.921,1.921,0,0,0,77.8-10.69a1.848,1.848,0,0,0-1.446.642,2.446,2.446,0,0,0-.569,1.685,2.434,2.434,0,0,0,.569,1.682,1.852,1.852,0,0,0,1.446.639,1.921,1.921,0,0,0,1.132-.343,1.9,1.9,0,0,0,.706-.973l1.03.172A2.762,2.762,0,0,1,79.607-5.67,3.027,3.027,0,0,1,77.8-5.12Zm6.478-.114a1.643,1.643,0,0,1-1.221-.448,1.7,1.7,0,0,1-.445-1.249v-3.675H81.34v-.877h.47a.9.9,0,0,0,.69-.219,1.079,1.079,0,0,0,.2-.734V-13.57h1.024v2.085h1.437v.877H83.724v3.56a.947.947,0,0,0,.238.69.835.835,0,0,0,.626.245h.572v.877Zm3.541-5.15a1.889,1.889,0,0,1,.776-.839,2.336,2.336,0,0,1,1.2-.331v1.036a2.059,2.059,0,0,0-1.453.464,1.939,1.939,0,0,0-.5,1.481v3.338h-1.1v-6.249h1.074Zm5.824,5.27a3.294,3.294,0,0,1-1.6-.388,2.824,2.824,0,0,1-1.128-1.135A3.486,3.486,0,0,1,90.5-8.363a3.184,3.184,0,0,1,.887-2.355,3.061,3.061,0,0,1,2.26-.887,3.059,3.059,0,0,1,2.263.887,3.19,3.19,0,0,1,.884,2.355A3.192,3.192,0,0,1,95.908-6,3.061,3.061,0,0,1,93.648-5.114Zm-.006-.915a1.919,1.919,0,0,0,1.478-.642,2.406,2.406,0,0,0,.588-1.691,2.4,2.4,0,0,0-.588-1.685,1.919,1.919,0,0,0-1.478-.642,1.893,1.893,0,0,0-1.465.642,2.413,2.413,0,0,0-.582,1.685,2.422,2.422,0,0,0,.582,1.691A1.893,1.893,0,0,0,93.642-6.029Zm7.826-5.576a2.174,2.174,0,0,1,1.573.566,2.111,2.111,0,0,1,.588,1.6v4.209h-1.1V-9.2a1.478,1.478,0,0,0-.381-1.119,1.364,1.364,0,0,0-.979-.362,1.512,1.512,0,0,0-1.113.429,1.741,1.741,0,0,0-.439,1.275v3.738h-1.1v-6.249h1.1v.8A2.087,2.087,0,0,1,101.468-11.605Zm9.752,3.122-.013.3h-4.883a2.208,2.208,0,0,0,.6,1.6,1.962,1.962,0,0,0,1.424.556,1.874,1.874,0,0,0,1.036-.3,1.939,1.939,0,0,0,.712-.826l.992.21A2.819,2.819,0,0,1,110.019-5.6a2.914,2.914,0,0,1-1.659.49,3.019,3.019,0,0,1-2.251-.871,3.24,3.24,0,0,1-.858-2.378,3.225,3.225,0,0,1,.861-2.371,2.981,2.981,0,0,1,2.216-.871,2.821,2.821,0,0,1,2.1.8A3.165,3.165,0,0,1,111.22-8.484Zm-2.893-2.276a1.949,1.949,0,0,0-1.3.442,2.024,2.024,0,0,0-.658,1.287h3.745a1.857,1.857,0,0,0-.547-1.287A1.766,1.766,0,0,0,108.327-10.76Zm6.593,5.646a2.963,2.963,0,0,1-1.685-.451,1.867,1.867,0,0,1-.82-1.284l.96-.273a1.339,1.339,0,0,0,.512.868,1.66,1.66,0,0,0,1.027.308,2.049,2.049,0,0,0,.6-.083.963.963,0,0,0,.461-.308.826.826,0,0,0,.184-.569.83.83,0,0,0-.051-.257,1.1,1.1,0,0,0-.1-.207.63.63,0,0,0-.178-.172,2.348,2.348,0,0,0-.216-.134,2.218,2.218,0,0,0-.283-.118q-.188-.067-.3-.1t-.35-.1l-.362-.1a6.779,6.779,0,0,1-.648-.229,2.844,2.844,0,0,1-.528-.3,1.215,1.215,0,0,1-.41-.493,1.667,1.667,0,0,1-.137-.7,1.616,1.616,0,0,1,.305-1,1.717,1.717,0,0,1,.792-.588,3.164,3.164,0,0,1,1.109-.181,2.715,2.715,0,0,1,1.523.407,1.737,1.737,0,0,1,.76,1.221l-.9.229a1.2,1.2,0,0,0-.477-.792,1.518,1.518,0,0,0-.9-.264,1.547,1.547,0,0,0-.839.219.737.737,0,0,0-.35.671.667.667,0,0,0,.092.346,1.1,1.1,0,0,0,.188.245,1.153,1.153,0,0,0,.343.188q.248.1.369.134t.458.118q.064.019.1.025.369.1.6.168a3.692,3.692,0,0,1,.54.229,1.8,1.8,0,0,1,.486.34,1.576,1.576,0,0,1,.305.483,1.706,1.706,0,0,1,.127.674,1.82,1.82,0,0,1-.188.842,1.467,1.467,0,0,1-.512.575,2.475,2.475,0,0,1-.728.315A3.468,3.468,0,0,1,114.92-5.114Z" transform="translate(654.945 6089.563)" fill="#082143"/>
    <path id="Trazado_33643" data-name="Trazado 33643" d="M7.357-5.235,6.587-7.377H2.538L1.775-5.235H.586l3.3-8.951H5.246l3.3,8.951ZM2.9-8.382H6.231l-1.666-4.66ZM12.551-5.12a3.01,3.01,0,0,1-2.238-.9,3.2,3.2,0,0,1-.884-2.346,3.2,3.2,0,0,1,.881-2.346,3.007,3.007,0,0,1,2.241-.9,3.032,3.032,0,0,1,1.809.547,2.759,2.759,0,0,1,1.052,1.519l-1.03.165a1.9,1.9,0,0,0-.706-.973,1.921,1.921,0,0,0-1.132-.343,1.848,1.848,0,0,0-1.446.642,2.446,2.446,0,0,0-.569,1.685A2.434,2.434,0,0,0,11.1-6.681a1.852,1.852,0,0,0,1.446.639,1.921,1.921,0,0,0,1.132-.343,1.9,1.9,0,0,0,.706-.973l1.03.172A2.762,2.762,0,0,1,14.353-5.67,3.027,3.027,0,0,1,12.551-5.12ZM22.5-8.484l-.013.3H17.605a2.208,2.208,0,0,0,.6,1.6,1.962,1.962,0,0,0,1.424.556,1.874,1.874,0,0,0,1.036-.3,1.939,1.939,0,0,0,.712-.826l.992.21A2.819,2.819,0,0,1,21.3-5.6a2.914,2.914,0,0,1-1.659.49,3.019,3.019,0,0,1-2.251-.871,3.24,3.24,0,0,1-.858-2.378,3.225,3.225,0,0,1,.861-2.371,2.981,2.981,0,0,1,2.216-.871,2.821,2.821,0,0,1,2.1.8A3.165,3.165,0,0,1,22.5-8.484ZM19.608-10.76a1.949,1.949,0,0,0-1.3.442A2.024,2.024,0,0,0,17.65-9.03h3.745a1.857,1.857,0,0,0-.547-1.287A1.766,1.766,0,0,0,19.608-10.76Zm7.915-.846a2.842,2.842,0,0,1,1.132.229,2.784,2.784,0,0,1,.928.642,3,3,0,0,1,.626,1.03,3.8,3.8,0,0,1,.232,1.348A3.3,3.3,0,0,1,29.6-6a2.736,2.736,0,0,1-2.076.9,2.474,2.474,0,0,1-1.306-.356,2.333,2.333,0,0,1-.893-.96v4.329h-1.1v-9.4h1.062l.025,1.214a2.288,2.288,0,0,1,.89-.976A2.5,2.5,0,0,1,27.523-11.605Zm-.216,5.55a1.9,1.9,0,0,0,1.446-.633,2.353,2.353,0,0,0,.588-1.669,2.341,2.341,0,0,0-.588-1.666,1.9,1.9,0,0,0-1.446-.629,1.907,1.907,0,0,0-1.469.658,2.344,2.344,0,0,0-.6,1.637,2.352,2.352,0,0,0,.6,1.643A1.907,1.907,0,0,0,27.307-6.055Zm6.866.82a1.643,1.643,0,0,1-1.221-.448,1.7,1.7,0,0,1-.445-1.249v-3.675H31.229v-.877h.47a.9.9,0,0,0,.69-.219,1.079,1.079,0,0,0,.2-.734V-13.57h1.024v2.085H35.05v.877H33.613v3.56a.947.947,0,0,0,.238.69.835.835,0,0,0,.626.245h.572v.877Zm3.834.121a2.127,2.127,0,0,1-1.37-.429A1.541,1.541,0,0,1,36.1-6.824a1.82,1.82,0,0,1,.172-.817,1.44,1.44,0,0,1,.509-.569,3.051,3.051,0,0,1,.734-.353,6.788,6.788,0,0,1,.95-.226l1.011-.165q.553-.1.553-.579a1.092,1.092,0,0,0-.391-.931,1.593,1.593,0,0,0-.989-.3,1.623,1.623,0,0,0-.979.286,1.2,1.2,0,0,0-.464.877l-.992-.21A1.909,1.909,0,0,1,37-11.144a2.922,2.922,0,0,1,1.7-.448,3.456,3.456,0,0,1,.906.111,2.462,2.462,0,0,1,.757.35,1.568,1.568,0,0,1,.54.674A2.508,2.508,0,0,1,41.1-9.431V-6.85a1.056,1.056,0,0,0,.143.652.617.617,0,0,0,.493.168h.1v.795h-.547A1.043,1.043,0,0,1,40.1-6.08h-.051A2.388,2.388,0,0,1,38.007-5.114ZM38.261-6a1.668,1.668,0,0,0,1.341-.6,2.487,2.487,0,0,0,.509-1.653l-1.653.318a2.225,2.225,0,0,0-.97.346.806.806,0,0,0-.315.683.8.8,0,0,0,.3.687A1.291,1.291,0,0,0,38.261-6ZM49.38-14.186h1.03v8.951H49.323v-7.75l-2.149,1.863V-12.3Zm7.267,9.072a2.494,2.494,0,0,1-2.206-1.17,6.237,6.237,0,0,1-.776-3.433,6.266,6.266,0,0,1,.766-3.427,2.491,2.491,0,0,1,2.216-1.163,2.486,2.486,0,0,1,2.206,1.167,6.248,6.248,0,0,1,.769,3.424,6.22,6.22,0,0,1-.779,3.43A2.488,2.488,0,0,1,56.647-5.114Zm0-1.017a1.514,1.514,0,0,0,1.392-.9,5.844,5.844,0,0,0,.483-2.689A5.679,5.679,0,0,0,58.03-12.4a1.523,1.523,0,0,0-1.383-.881,1.521,1.521,0,0,0-1.386.877,5.708,5.708,0,0,0-.49,2.689,5.875,5.875,0,0,0,.48,2.692A1.513,1.513,0,0,0,56.647-6.131ZM70.277-8.484l-.013.3H65.382a2.208,2.208,0,0,0,.6,1.6,1.962,1.962,0,0,0,1.424.556,1.874,1.874,0,0,0,1.036-.3,1.939,1.939,0,0,0,.712-.826l.992.21A2.819,2.819,0,0,1,69.076-5.6a2.914,2.914,0,0,1-1.659.49,3.019,3.019,0,0,1-2.251-.871,3.24,3.24,0,0,1-.858-2.378,3.225,3.225,0,0,1,.861-2.371,2.982,2.982,0,0,1,2.216-.871,2.821,2.821,0,0,1,2.1.8A3.165,3.165,0,0,1,70.277-8.484ZM67.385-10.76a1.949,1.949,0,0,0-1.3.442,2.024,2.024,0,0,0-.658,1.287h3.745a1.857,1.857,0,0,0-.547-1.287A1.766,1.766,0,0,0,67.385-10.76ZM72-5.235V-15h1.113v9.765Zm8.818-3.249-.013.3H75.923a2.208,2.208,0,0,0,.6,1.6,1.962,1.962,0,0,0,1.424.556,1.874,1.874,0,0,0,1.036-.3,1.939,1.939,0,0,0,.712-.826l.992.21A2.819,2.819,0,0,1,79.617-5.6a2.914,2.914,0,0,1-1.659.49,3.019,3.019,0,0,1-2.251-.871,3.24,3.24,0,0,1-.858-2.378,3.225,3.225,0,0,1,.861-2.371,2.982,2.982,0,0,1,2.216-.871,2.821,2.821,0,0,1,2.1.8A3.165,3.165,0,0,1,80.818-8.484ZM77.926-10.76a1.949,1.949,0,0,0-1.3.442,2.024,2.024,0,0,0-.658,1.287h3.745a1.857,1.857,0,0,0-.547-1.287A1.766,1.766,0,0,0,77.926-10.76ZM85.135-5.12a3.01,3.01,0,0,1-2.238-.9,3.2,3.2,0,0,1-.884-2.346,3.2,3.2,0,0,1,.881-2.346,3.007,3.007,0,0,1,2.241-.9,3.032,3.032,0,0,1,1.809.547A2.759,2.759,0,0,1,88-9.539l-1.03.165a1.9,1.9,0,0,0-.706-.973,1.921,1.921,0,0,0-1.132-.343,1.848,1.848,0,0,0-1.446.642,2.446,2.446,0,0,0-.569,1.685,2.434,2.434,0,0,0,.569,1.682,1.852,1.852,0,0,0,1.446.639,1.921,1.921,0,0,0,1.132-.343,1.9,1.9,0,0,0,.706-.973L88-7.187A2.762,2.762,0,0,1,86.937-5.67,3.027,3.027,0,0,1,85.135-5.12Zm6.478-.114a1.643,1.643,0,0,1-1.221-.448,1.7,1.7,0,0,1-.445-1.249v-3.675H88.67v-.877h.47a.9.9,0,0,0,.69-.219,1.079,1.079,0,0,0,.2-.734V-13.57h1.024v2.085h1.437v.877H91.054v3.56a.947.947,0,0,0,.238.69.835.835,0,0,0,.626.245h.572v.877Zm3.541-5.15a1.889,1.889,0,0,1,.776-.839,2.336,2.336,0,0,1,1.2-.331v1.036a2.059,2.059,0,0,0-1.453.464,1.939,1.939,0,0,0-.5,1.481v3.338h-1.1v-6.249h1.074Zm5.824,5.27a3.294,3.294,0,0,1-1.6-.388,2.824,2.824,0,0,1-1.128-1.135,3.486,3.486,0,0,1-.416-1.726,3.184,3.184,0,0,1,.887-2.355,3.061,3.061,0,0,1,2.26-.887,3.059,3.059,0,0,1,2.263.887,3.19,3.19,0,0,1,.884,2.355A3.192,3.192,0,0,1,103.238-6,3.061,3.061,0,0,1,100.978-5.114Zm-.006-.915a1.919,1.919,0,0,0,1.478-.642,2.406,2.406,0,0,0,.588-1.691,2.4,2.4,0,0,0-.588-1.685,1.919,1.919,0,0,0-1.478-.642,1.893,1.893,0,0,0-1.465.642,2.413,2.413,0,0,0-.582,1.685,2.422,2.422,0,0,0,.582,1.691A1.893,1.893,0,0,0,100.972-6.029Zm7.826-5.576a2.174,2.174,0,0,1,1.573.566,2.111,2.111,0,0,1,.588,1.6v4.209h-1.1V-9.2a1.478,1.478,0,0,0-.381-1.119,1.364,1.364,0,0,0-.979-.362,1.512,1.512,0,0,0-1.113.429,1.741,1.741,0,0,0-.439,1.275v3.738h-1.1v-6.249h1.1v.8A2.087,2.087,0,0,1,108.8-11.605Zm9.752,3.122-.013.3h-4.883a2.208,2.208,0,0,0,.6,1.6,1.962,1.962,0,0,0,1.424.556,1.874,1.874,0,0,0,1.036-.3,1.939,1.939,0,0,0,.712-.826l.992.21A2.819,2.819,0,0,1,117.349-5.6a2.914,2.914,0,0,1-1.659.49,3.019,3.019,0,0,1-2.251-.871,3.24,3.24,0,0,1-.858-2.378,3.225,3.225,0,0,1,.861-2.371,2.981,2.981,0,0,1,2.216-.871,2.821,2.821,0,0,1,2.1.8A3.165,3.165,0,0,1,118.55-8.484Zm-2.893-2.276a1.949,1.949,0,0,0-1.3.442A2.024,2.024,0,0,0,113.7-9.03h3.745a1.857,1.857,0,0,0-.547-1.287A1.766,1.766,0,0,0,115.658-10.76Zm6.593,5.646a2.963,2.963,0,0,1-1.685-.451,1.867,1.867,0,0,1-.82-1.284l.96-.273a1.339,1.339,0,0,0,.512.868,1.66,1.66,0,0,0,1.027.308,2.049,2.049,0,0,0,.6-.083.963.963,0,0,0,.461-.308.826.826,0,0,0,.184-.569.83.83,0,0,0-.051-.257,1.1,1.1,0,0,0-.1-.207.629.629,0,0,0-.178-.172,2.347,2.347,0,0,0-.216-.134,2.218,2.218,0,0,0-.283-.118q-.188-.067-.3-.1t-.35-.1l-.362-.1A6.78,6.78,0,0,1,121-8.331a2.844,2.844,0,0,1-.528-.3,1.215,1.215,0,0,1-.41-.493,1.667,1.667,0,0,1-.137-.7,1.616,1.616,0,0,1,.305-1,1.717,1.717,0,0,1,.792-.588,3.164,3.164,0,0,1,1.109-.181,2.715,2.715,0,0,1,1.523.407,1.737,1.737,0,0,1,.76,1.221l-.9.229a1.2,1.2,0,0,0-.477-.792,1.518,1.518,0,0,0-.9-.264,1.547,1.547,0,0,0-.839.219.737.737,0,0,0-.35.671.668.668,0,0,0,.092.346,1.1,1.1,0,0,0,.188.245,1.153,1.153,0,0,0,.343.188q.248.1.369.134t.458.118q.064.019.1.025.369.1.6.168a3.693,3.693,0,0,1,.54.229,1.8,1.8,0,0,1,.486.34,1.576,1.576,0,0,1,.305.483,1.706,1.706,0,0,1,.127.674,1.82,1.82,0,0,1-.188.842,1.467,1.467,0,0,1-.512.575,2.475,2.475,0,0,1-.728.315A3.468,3.468,0,0,1,122.251-5.114Z" transform="translate(802.725 6089.563)" fill="#fff"/>
    <path id="Trazado_33644" data-name="Trazado 33644" d="M7.357-5.235,6.587-7.377H2.538L1.775-5.235H.586l3.3-8.951H5.246l3.3,8.951ZM2.9-8.382H6.231l-1.666-4.66ZM12.551-5.12a3.01,3.01,0,0,1-2.238-.9,3.2,3.2,0,0,1-.884-2.346,3.2,3.2,0,0,1,.881-2.346,3.007,3.007,0,0,1,2.241-.9,3.032,3.032,0,0,1,1.809.547,2.759,2.759,0,0,1,1.052,1.519l-1.03.165a1.9,1.9,0,0,0-.706-.973,1.921,1.921,0,0,0-1.132-.343,1.848,1.848,0,0,0-1.446.642,2.446,2.446,0,0,0-.569,1.685A2.434,2.434,0,0,0,11.1-6.681a1.852,1.852,0,0,0,1.446.639,1.921,1.921,0,0,0,1.132-.343,1.9,1.9,0,0,0,.706-.973l1.03.172A2.762,2.762,0,0,1,14.353-5.67,3.027,3.027,0,0,1,12.551-5.12ZM22.5-8.484l-.013.3H17.605a2.208,2.208,0,0,0,.6,1.6,1.962,1.962,0,0,0,1.424.556,1.874,1.874,0,0,0,1.036-.3,1.939,1.939,0,0,0,.712-.826l.992.21A2.819,2.819,0,0,1,21.3-5.6a2.914,2.914,0,0,1-1.659.49,3.019,3.019,0,0,1-2.251-.871,3.24,3.24,0,0,1-.858-2.378,3.225,3.225,0,0,1,.861-2.371,2.981,2.981,0,0,1,2.216-.871,2.821,2.821,0,0,1,2.1.8A3.165,3.165,0,0,1,22.5-8.484ZM19.608-10.76a1.949,1.949,0,0,0-1.3.442A2.024,2.024,0,0,0,17.65-9.03h3.745a1.857,1.857,0,0,0-.547-1.287A1.766,1.766,0,0,0,19.608-10.76Zm7.915-.846a2.842,2.842,0,0,1,1.132.229,2.784,2.784,0,0,1,.928.642,3,3,0,0,1,.626,1.03,3.8,3.8,0,0,1,.232,1.348A3.3,3.3,0,0,1,29.6-6a2.736,2.736,0,0,1-2.076.9,2.474,2.474,0,0,1-1.306-.356,2.333,2.333,0,0,1-.893-.96v4.329h-1.1v-9.4h1.062l.025,1.214a2.288,2.288,0,0,1,.89-.976A2.5,2.5,0,0,1,27.523-11.605Zm-.216,5.55a1.9,1.9,0,0,0,1.446-.633,2.353,2.353,0,0,0,.588-1.669,2.341,2.341,0,0,0-.588-1.666,1.9,1.9,0,0,0-1.446-.629,1.907,1.907,0,0,0-1.469.658,2.344,2.344,0,0,0-.6,1.637,2.352,2.352,0,0,0,.6,1.643A1.907,1.907,0,0,0,27.307-6.055Zm6.866.82a1.643,1.643,0,0,1-1.221-.448,1.7,1.7,0,0,1-.445-1.249v-3.675H31.229v-.877h.47a.9.9,0,0,0,.69-.219,1.079,1.079,0,0,0,.2-.734V-13.57h1.024v2.085H35.05v.877H33.613v3.56a.947.947,0,0,0,.238.69.835.835,0,0,0,.626.245h.572v.877Zm3.834.121a2.127,2.127,0,0,1-1.37-.429A1.541,1.541,0,0,1,36.1-6.824a1.82,1.82,0,0,1,.172-.817,1.44,1.44,0,0,1,.509-.569,3.051,3.051,0,0,1,.734-.353,6.788,6.788,0,0,1,.95-.226l1.011-.165q.553-.1.553-.579a1.092,1.092,0,0,0-.391-.931,1.593,1.593,0,0,0-.989-.3,1.623,1.623,0,0,0-.979.286,1.2,1.2,0,0,0-.464.877l-.992-.21A1.909,1.909,0,0,1,37-11.144a2.922,2.922,0,0,1,1.7-.448,3.456,3.456,0,0,1,.906.111,2.462,2.462,0,0,1,.757.35,1.568,1.568,0,0,1,.54.674A2.508,2.508,0,0,1,41.1-9.431V-6.85a1.056,1.056,0,0,0,.143.652.617.617,0,0,0,.493.168h.1v.795h-.547A1.043,1.043,0,0,1,40.1-6.08h-.051A2.388,2.388,0,0,1,38.007-5.114ZM38.261-6a1.668,1.668,0,0,0,1.341-.6,2.487,2.487,0,0,0,.509-1.653l-1.653.318a2.225,2.225,0,0,0-.97.346.806.806,0,0,0-.315.683.8.8,0,0,0,.3.687A1.291,1.291,0,0,0,38.261-6ZM49.38-14.186h1.03v8.951H49.323v-7.75l-2.149,1.863V-12.3ZM60.035-8.045v1.011h-1.38v1.8h-1.1v-1.8H53.271V-8.051L57-14.186h1.659v6.141Zm-5.626,0h3.147v-5.334Zm15.868-.439-.013.3H65.382a2.208,2.208,0,0,0,.6,1.6,1.962,1.962,0,0,0,1.424.556,1.874,1.874,0,0,0,1.036-.3,1.939,1.939,0,0,0,.712-.826l.992.21A2.819,2.819,0,0,1,69.076-5.6a2.914,2.914,0,0,1-1.659.49,3.019,3.019,0,0,1-2.251-.871,3.24,3.24,0,0,1-.858-2.378,3.225,3.225,0,0,1,.861-2.371,2.982,2.982,0,0,1,2.216-.871,2.821,2.821,0,0,1,2.1.8A3.165,3.165,0,0,1,70.277-8.484ZM67.385-10.76a1.949,1.949,0,0,0-1.3.442,2.024,2.024,0,0,0-.658,1.287h3.745a1.857,1.857,0,0,0-.547-1.287A1.766,1.766,0,0,0,67.385-10.76ZM72-5.235V-15h1.113v9.765Zm8.818-3.249-.013.3H75.923a2.208,2.208,0,0,0,.6,1.6,1.962,1.962,0,0,0,1.424.556,1.874,1.874,0,0,0,1.036-.3,1.939,1.939,0,0,0,.712-.826l.992.21A2.819,2.819,0,0,1,79.617-5.6a2.914,2.914,0,0,1-1.659.49,3.019,3.019,0,0,1-2.251-.871,3.24,3.24,0,0,1-.858-2.378,3.225,3.225,0,0,1,.861-2.371,2.982,2.982,0,0,1,2.216-.871,2.821,2.821,0,0,1,2.1.8A3.165,3.165,0,0,1,80.818-8.484ZM77.926-10.76a1.949,1.949,0,0,0-1.3.442,2.024,2.024,0,0,0-.658,1.287h3.745a1.857,1.857,0,0,0-.547-1.287A1.766,1.766,0,0,0,77.926-10.76ZM85.135-5.12a3.01,3.01,0,0,1-2.238-.9,3.2,3.2,0,0,1-.884-2.346,3.2,3.2,0,0,1,.881-2.346,3.007,3.007,0,0,1,2.241-.9,3.032,3.032,0,0,1,1.809.547A2.759,2.759,0,0,1,88-9.539l-1.03.165a1.9,1.9,0,0,0-.706-.973,1.921,1.921,0,0,0-1.132-.343,1.848,1.848,0,0,0-1.446.642,2.446,2.446,0,0,0-.569,1.685,2.434,2.434,0,0,0,.569,1.682,1.852,1.852,0,0,0,1.446.639,1.921,1.921,0,0,0,1.132-.343,1.9,1.9,0,0,0,.706-.973L88-7.187A2.762,2.762,0,0,1,86.937-5.67,3.027,3.027,0,0,1,85.135-5.12Zm6.478-.114a1.643,1.643,0,0,1-1.221-.448,1.7,1.7,0,0,1-.445-1.249v-3.675H88.67v-.877h.47a.9.9,0,0,0,.69-.219,1.079,1.079,0,0,0,.2-.734V-13.57h1.024v2.085h1.437v.877H91.054v3.56a.947.947,0,0,0,.238.69.835.835,0,0,0,.626.245h.572v.877Zm3.541-5.15a1.889,1.889,0,0,1,.776-.839,2.336,2.336,0,0,1,1.2-.331v1.036a2.059,2.059,0,0,0-1.453.464,1.939,1.939,0,0,0-.5,1.481v3.338h-1.1v-6.249h1.074Zm5.824,5.27a3.294,3.294,0,0,1-1.6-.388,2.824,2.824,0,0,1-1.128-1.135,3.486,3.486,0,0,1-.416-1.726,3.184,3.184,0,0,1,.887-2.355,3.061,3.061,0,0,1,2.26-.887,3.059,3.059,0,0,1,2.263.887,3.19,3.19,0,0,1,.884,2.355A3.192,3.192,0,0,1,103.238-6,3.061,3.061,0,0,1,100.978-5.114Zm-.006-.915a1.919,1.919,0,0,0,1.478-.642,2.406,2.406,0,0,0,.588-1.691,2.4,2.4,0,0,0-.588-1.685,1.919,1.919,0,0,0-1.478-.642,1.893,1.893,0,0,0-1.465.642,2.413,2.413,0,0,0-.582,1.685,2.422,2.422,0,0,0,.582,1.691A1.893,1.893,0,0,0,100.972-6.029Zm7.826-5.576a2.174,2.174,0,0,1,1.573.566,2.111,2.111,0,0,1,.588,1.6v4.209h-1.1V-9.2a1.478,1.478,0,0,0-.381-1.119,1.364,1.364,0,0,0-.979-.362,1.512,1.512,0,0,0-1.113.429,1.741,1.741,0,0,0-.439,1.275v3.738h-1.1v-6.249h1.1v.8A2.087,2.087,0,0,1,108.8-11.605Zm9.752,3.122-.013.3h-4.883a2.208,2.208,0,0,0,.6,1.6,1.962,1.962,0,0,0,1.424.556,1.874,1.874,0,0,0,1.036-.3,1.939,1.939,0,0,0,.712-.826l.992.21A2.819,2.819,0,0,1,117.349-5.6a2.914,2.914,0,0,1-1.659.49,3.019,3.019,0,0,1-2.251-.871,3.24,3.24,0,0,1-.858-2.378,3.225,3.225,0,0,1,.861-2.371,2.981,2.981,0,0,1,2.216-.871,2.821,2.821,0,0,1,2.1.8A3.165,3.165,0,0,1,118.55-8.484Zm-2.893-2.276a1.949,1.949,0,0,0-1.3.442A2.024,2.024,0,0,0,113.7-9.03h3.745a1.857,1.857,0,0,0-.547-1.287A1.766,1.766,0,0,0,115.658-10.76Zm6.593,5.646a2.963,2.963,0,0,1-1.685-.451,1.867,1.867,0,0,1-.82-1.284l.96-.273a1.339,1.339,0,0,0,.512.868,1.66,1.66,0,0,0,1.027.308,2.049,2.049,0,0,0,.6-.083.963.963,0,0,0,.461-.308.826.826,0,0,0,.184-.569.83.83,0,0,0-.051-.257,1.1,1.1,0,0,0-.1-.207.629.629,0,0,0-.178-.172,2.347,2.347,0,0,0-.216-.134,2.218,2.218,0,0,0-.283-.118q-.188-.067-.3-.1t-.35-.1l-.362-.1A6.78,6.78,0,0,1,121-8.331a2.844,2.844,0,0,1-.528-.3,1.215,1.215,0,0,1-.41-.493,1.667,1.667,0,0,1-.137-.7,1.616,1.616,0,0,1,.305-1,1.717,1.717,0,0,1,.792-.588,3.164,3.164,0,0,1,1.109-.181,2.715,2.715,0,0,1,1.523.407,1.737,1.737,0,0,1,.76,1.221l-.9.229a1.2,1.2,0,0,0-.477-.792,1.518,1.518,0,0,0-.9-.264,1.547,1.547,0,0,0-.839.219.737.737,0,0,0-.35.671.668.668,0,0,0,.092.346,1.1,1.1,0,0,0,.188.245,1.153,1.153,0,0,0,.343.188q.248.1.369.134t.458.118q.064.019.1.025.369.1.6.168a3.693,3.693,0,0,1,.54.229,1.8,1.8,0,0,1,.486.34,1.576,1.576,0,0,1,.305.483,1.706,1.706,0,0,1,.127.674,1.82,1.82,0,0,1-.188.842,1.467,1.467,0,0,1-.512.575,2.475,2.475,0,0,1-.728.315A3.468,3.468,0,0,1,122.251-5.114Z" transform="translate(960.921 6089.563)" fill="#fff"/>
    <path id="Trazado_33636" data-name="Trazado 33636" d="M35.273-38.9a15.1,15.1,0,0,1-2.034,8.042,14.374,14.374,0,0,1-5.626,5.467,16.048,16.048,0,0,1-7.756,1.907A15.623,15.623,0,0,1,8.73-27.7,14.228,14.228,0,0,1,4.248-38.552,17.623,17.623,0,0,1,8.126-49.3L23.1-68.75h6.485L17.154-53.079a13.937,13.937,0,0,1,3.878-.54A14.226,14.226,0,0,1,27.9-51.9a13.749,13.749,0,0,1,5.245,5.134A15.341,15.341,0,0,1,35.273-38.9ZM19.729-28.6a10.025,10.025,0,0,0,7.359-2.845A9.941,9.941,0,0,0,29.9-39a10.183,10.183,0,0,0-2.956-7.55,10.123,10.123,0,0,0-7.311-2.781,9.619,9.619,0,0,0-7.311,3.068,10.278,10.278,0,0,0-2.829,7.486A9.906,9.906,0,0,0,12.37-31.3,10.249,10.249,0,0,0,19.729-28.6Z" transform="translate(692.728 6085.536)" fill="#fff" opacity="0.496"/>
    <path id="Trazado_33637" data-name="Trazado 33637" d="M22.749-69.074H27.9v44.757H22.463V-63.066L11.719-53.752v-5.881ZM59.083-23.713a12.468,12.468,0,0,1-11.03-5.849q-3.878-5.849-3.878-17.165T48-63.861a12.457,12.457,0,0,1,11.078-5.817,12.429,12.429,0,0,1,11.03,5.833q3.846,5.833,3.846,17.118t-3.894,17.15A12.441,12.441,0,0,1,59.083-23.713Zm0-5.086q4.546,0,6.962-4.482T68.46-46.727q0-9.028-2.464-13.43t-6.914-4.4q-4.482,0-6.93,4.387T49.705-46.727q0,9,2.4,13.462T59.083-28.8Z" transform="translate(821.625 6085.86)" fill="#fff" opacity="0.496"/>
    <path id="Trazado_33639" data-name="Trazado 33639" d="M22.749-68.75H27.9v44.757H22.463V-62.742L11.719-53.428v-5.881ZM76.025-38.043v5.054h-6.9v9h-5.5v-9H42.2v-5.086L60.831-68.75h8.3v30.707Zm-28.132,0H63.628v-26.67Z" transform="translate(982.426 6085.536)" fill="#fff" opacity="0.496"/>
    <path id="Trazado_33640" data-name="Trazado 33640" d="M6.4-14.7H17.541v2.527H2.441v-2.082l8.964-9.266a10.618,10.618,0,0,0,2.019-2.654,5.3,5.3,0,0,0,.556-2.3,3.863,3.863,0,0,0-1.128-2.964A4.106,4.106,0,0,0,9.927-32.5a4.1,4.1,0,0,0-3.06,1.152,4.957,4.957,0,0,0-1.136,3.6V-26.1l-2.75-.254v-1.383a7.074,7.074,0,0,1,1.891-5.317,6.948,6.948,0,0,1,5.054-1.836,7,7,0,0,1,4.856,1.7,5.914,5.914,0,0,1,1.9,4.641,7.038,7.038,0,0,1-.755,3.234A13.9,13.9,0,0,1,13.5-22.093Z" transform="translate(550.786 6074.37)" fill="#fff" opacity="0.496"/>
  </g>
</svg>
