<svg xmlns="http://www.w3.org/2000/svg" xmlns:xlink="http://www.w3.org/1999/xlink" width="105" height="105" viewBox="0 0 105 105"><defs><clipPath id="a"><rect width="60.032" height="60.041" fill="#31313c"/></clipPath></defs><g transform="translate(-347 -2707)"><circle cx="52.5" cy="52.5" r="52.5" transform="translate(347 2707)" fill="#fed5c3"/><g transform="translate(370 2729)"><g clip-path="url(#a)"><path d="M0,41.281a8.972,8.972,0,0,1,1.5-2.937c4.464-6.809,8.878-13.65,13.3-20.485a1.176,1.176,0,0,0,.2-.588c.01-3.243.006-6.486,0-9.73a.211.211,0,0,0-.02-.078,12.028,12.028,0,0,1-1.244-.688A3.736,3.736,0,0,1,15.851.017q4.777-.033,9.555,0a3.713,3.713,0,0,1,3.626,3.145,3.715,3.715,0,0,1-2.289,4.058.632.632,0,0,0-.484.71c.017,3.048,0,6.1.02,9.144a1.7,1.7,0,0,0,.253.864c1.9,2.958,3.82,5.9,5.717,8.858a.821.821,0,0,0,.8.423q10.024-.017,20.049.006a1.866,1.866,0,0,1,1.063.331c.364.277.3.725.1,1.127-.5.994-1.012,1.982-1.484,2.989a2.448,2.448,0,0,0-.233,1q-.02,11.107-.01,22.215a4.7,4.7,0,0,1-3.9,5.088c-.034.009-.061.045-.091.068H28.379a.618.618,0,0,0-.147-.086,4.679,4.679,0,0,1-3.839-4.895q0-3.752,0-7.5v-.647h-.781q-9.264,0-18.529,0a4.9,4.9,0,0,1-4.97-3.892C.084,42.9.038,42.8,0,42.688V41.281m26.269-8.413v.6q0,10.81,0,21.62a2.833,2.833,0,0,0,3.11,3.078q9.083,0,18.167,0a2.837,2.837,0,0,0,3.115-3.133q0-10.781,0-21.562v-.6ZM16.887,7.539c0,3.312-.009,6.554.009,9.8a2.442,2.442,0,0,1-.422,1.42Q9.413,29.535,2.377,40.328a2.867,2.867,0,0,0-.125,3.112A2.94,2.94,0,0,0,5,45.03q9.5.007,18.995,0a2.671,2.671,0,0,0,.369-.049V43.157h-.722q-8.178,0-16.356,0a2.4,2.4,0,0,1-2.288-1.249,2.342,2.342,0,0,1,.19-2.594q5.4-8.087,10.785-16.182a1.271,1.271,0,0,1,1.169-.622q3.488.023,6.976,0a1.3,1.3,0,0,1,1.216.646c.8,1.229,1.613,2.445,2.436,3.656.109.161.294.366.456.376.652.043,1.309.018,2.048.018-.158-.26-.262-.441-.375-.617-1.719-2.655-3.45-5.3-5.148-7.971a2.269,2.269,0,0,1-.339-1.138c-.027-3.107-.015-6.213-.015-9.32V7.539ZM25.76,27.211c-.575-.867-1.1-1.631-1.594-2.417a.767.767,0,0,0-.753-.406c-1.816.019-3.633.022-5.448,0a.92.92,0,0,0-.895.472Q12.007,32.493,6.914,40.109a2.922,2.922,0,0,0-.277.447.468.468,0,0,0,.358.709,1.8,1.8,0,0,0,.466.02h16.93c0-3.053,0-6.019-.008-8.985a1.341,1.341,0,0,0-.18-.544c-.5-1.015-1.017-2.02-1.51-3.038a.955.955,0,0,1,.923-1.5c.675-.011,1.351,0,2.143,0m26.179,1.9H25a12.25,12.25,0,0,1,.548,1.141,1,1,0,0,0,1.127.726c3.575-.037,7.151-.018,10.727-.018q6.536,0,13.072-.01a.861.861,0,0,0,.638-.228,17.769,17.769,0,0,0,.826-1.611M20.659,5.636c1.5,0,3.009,0,4.513,0a1.881,1.881,0,1,0-.01-3.749q-4.514-.006-9.027,0a1.884,1.884,0,1,0,.01,3.75c1.5,0,3.009,0,4.514,0" transform="translate(0 0)" fill="#31313c"/><path d="M129.347,5.324c.829-1.161,1.616-2.277,2.419-3.382A4.252,4.252,0,0,1,136.4.189a4.291,4.291,0,0,1,3.491,3.465,4.278,4.278,0,0,1-1.809,4.717c-.985.7-1.965,1.414-2.959,2.1a.535.535,0,0,0-.269.658,2.738,2.738,0,0,1-3.49,3.3.656.656,0,0,0-.745.254c-2.235,2.24-4.48,4.469-6.707,6.716a2.957,2.957,0,0,1-2.914.943.666.666,0,0,0-.526.266c-.585.829-1.131,1.685-1.7,2.525a2.553,2.553,0,0,1-2.694,1.134,2.728,2.728,0,0,1-2.267-2.238,2.668,2.668,0,0,1,1.122-2.7c.841-.568,1.681-1.139,2.536-1.685a.508.508,0,0,0,.284-.651,2.7,2.7,0,0,1,.837-2.713q3.42-3.416,6.827-6.844a.857.857,0,0,0,.212-.679,2.788,2.788,0,0,1,3.469-3.5c.073.017.145.042.253.074m1.522,1.091,2.777,2.777a.282.282,0,0,0,.1-.042c1.144-.813,2.294-1.616,3.426-2.445a2.651,2.651,0,0,0,.261-3.847,2.631,2.631,0,0,0-3.857-.167c-.986,1.2-1.834,2.509-2.708,3.724M120.143,19.977a3.622,3.622,0,0,1,.88.273c.7.417.946.42,1.53-.16,1.092-1.085,2.176-2.18,3.27-3.264.241-.238.508-.45.763-.674L126.48,16c-1.592,0-3.183,0-4.775.007a.573.573,0,0,0-.349.166c-.518.5-1.031,1.009-1.532,1.528a.912.912,0,0,0-.1,1.222,6.788,6.788,0,0,1,.414,1.052M128.227,6.9a3.925,3.925,0,0,0-.741.67.754.754,0,0,0,.219.993c1.256,1.252,2.5,2.509,3.761,3.76.466.464.936.5,1.331.112a.881.881,0,0,0-.068-1.343Q130.86,9.2,128.964,7.333a3.969,3.969,0,0,0-.737-.435m-4.782,7.227c1.436,0,2.763-.072,4.078.024a1.963,1.963,0,0,0,1.88-.943l-2.522-2.514-3.435,3.433m-4.027,6.65-.1-.114c-1.141.764-2.3,1.51-3.417,2.3a.811.811,0,0,0,.037,1.239.825.825,0,0,0,1.241-.083c.764-1.1,1.5-2.227,2.242-3.344" transform="translate(-79.988 -0.046)" fill="#31313c"/><rect width="1.806" height="16.81" transform="translate(28.175 38.515)" fill="#31313c"/><rect width="6.503" height="1.804" transform="translate(43.193 40.374)" fill="#31313c"/><rect width="6.495" height="1.805" transform="translate(43.197 47.873)" fill="#31313c"/><rect width="4.638" height="1.795" transform="translate(44.105 36.637)" fill="#31313c"/><rect width="4.596" height="1.825" transform="translate(44.143 44.107)" fill="#31313c"/><rect width="4.615" height="1.804" transform="translate(44.126 51.646)" fill="#31313c"/><rect width="1.796" height="1.824" transform="translate(28.18 34.744)" fill="#31313c"/></g></g></g></svg>