<svg xmlns="http://www.w3.org/2000/svg" width="418.515" height="337.925" viewBox="0 0 418.515 337.925">
  <g id="Grupo_178781" data-name="Grupo 178781" transform="translate(-591.485 -5261.075)">
    <g id="Grupo_15268" data-name="Grupo 15268" transform="translate(652.639 5549.956)">
      <path id="Trazado_33594" data-name="Trazado 33594" d="M16.069,0A16.069,16.069,0,1,1,0,16.069,16.069,16.069,0,0,1,16.069,0Z" fill="#1ec488"/>
      <path id="Trazado_33599" data-name="Trazado 33599" d="M15.37-3.086,13.83-2.56,11.935-4.588a6.968,6.968,0,0,1-3.722,1,7.232,7.232,0,0,1-2.66-.483A6.379,6.379,0,0,1,3.415-5.426,6.112,6.112,0,0,1,1.994-7.612a7.842,7.842,0,0,1-.517-2.9A7.778,7.778,0,0,1,1.994-13.4a6.12,6.12,0,0,1,1.421-2.182,6.379,6.379,0,0,1,2.139-1.359,7.232,7.232,0,0,1,2.66-.483,7.206,7.206,0,0,1,2.65.483A6.379,6.379,0,0,1,13-15.578,6.173,6.173,0,0,1,14.428-13.4a7.714,7.714,0,0,1,.521,2.885,6.838,6.838,0,0,1-1.856,4.985ZM3.18-10.511a6.386,6.386,0,0,0,.392,2.292A4.611,4.611,0,0,0,4.649-6.526,4.765,4.765,0,0,0,6.247-5.5a5.332,5.332,0,0,0,1.966.359A5.294,5.294,0,0,0,10.175-5.5a4.777,4.777,0,0,0,1.593-1.024,4.562,4.562,0,0,0,1.072-1.694,6.457,6.457,0,0,0,.388-2.292,5.754,5.754,0,0,0-.675-2.847,4.489,4.489,0,0,0-1.8-1.818,5.257,5.257,0,0,0-2.54-.608,5.285,5.285,0,0,0-2.545.608A4.51,4.51,0,0,0,3.86-13.358,5.722,5.722,0,0,0,3.18-10.511Z" transform="translate(7.519 25.713)" fill="#fff"/>
    </g>
    <g id="Grupo_15269" data-name="Grupo 15269" transform="translate(651.071 5455.895)">
      <path id="Trazado_33595" data-name="Trazado 33595" d="M16.069,0A16.069,16.069,0,1,1,0,16.069,16.069,16.069,0,0,1,16.069,0Z" transform="translate(0 0)" fill="#1ec488"/>
      <path id="Trazado_33600" data-name="Trazado 33600" d="M8.209-3.584a7.157,7.157,0,0,1-2.65-.483A6.4,6.4,0,0,1,3.429-5.426,6.061,6.061,0,0,1,2.013-7.612a7.907,7.907,0,0,1-.512-2.9A7.778,7.778,0,0,1,2.018-13.4a6.2,6.2,0,0,1,1.416-2.186,6.25,6.25,0,0,1,2.124-1.359,7.221,7.221,0,0,1,2.65-.478,7.1,7.1,0,0,1,2.631.483,6.348,6.348,0,0,1,2.124,1.359A6.153,6.153,0,0,1,14.38-13.4a7.778,7.778,0,0,1,.517,2.885,7.853,7.853,0,0,1-.517,2.894,6.138,6.138,0,0,1-1.416,2.191A6.348,6.348,0,0,1,10.84-4.067,7.1,7.1,0,0,1,8.209-3.584Zm0-1.617a4.814,4.814,0,0,0,3.564-1.421,5.276,5.276,0,0,0,1.411-3.89A6.177,6.177,0,0,0,12.8-12.75a4.612,4.612,0,0,0-1.062-1.665,4.66,4.66,0,0,0-1.579-1.014,5.293,5.293,0,0,0-1.947-.354,5.358,5.358,0,0,0-1.962.354,4.7,4.7,0,0,0-1.588,1.014A4.579,4.579,0,0,0,3.592-12.75,6.177,6.177,0,0,0,3.2-10.511a6.283,6.283,0,0,0,.388,2.258A4.566,4.566,0,0,0,4.659-6.579,4.761,4.761,0,0,0,6.247-5.559,5.294,5.294,0,0,0,8.209-5.2Z" transform="translate(7.514 25.713)" fill="#fff"/>
    </g>
    <g id="Grupo_15270" data-name="Grupo 15270" transform="translate(650.287 5361.834)">
      <path id="Trazado_33596" data-name="Trazado 33596" d="M16.069,0A16.069,16.069,0,1,1,0,16.069,16.069,16.069,0,0,1,16.069,0Z" fill="#1ec488"/>
      <path id="Trazado_33601" data-name="Trazado 33601" d="M16.805-3.715H15.14l-.9-11.118L9.935-3.715H8.911L4.634-14.8,3.725-3.715H2.051L3.075-17.187H5.333L9.418-6.681l4.1-10.506h2.277Z" transform="translate(5.827 25.663)" fill="#fff"/>
    </g>
    <g id="Grupo_15271" data-name="Grupo 15271" transform="translate(648.719 5267.774)">
      <path id="Trazado_33597" data-name="Trazado 33597" d="M16.069,0A16.069,16.069,0,1,1,0,16.069,16.069,16.069,0,0,1,16.069,0Z" fill="#1ec488"/>
      <path id="Trazado_33602" data-name="Trazado 33602" d="M10.439-3.715,5.6-9.944H4.41v6.229H2.7V-17.187H4.41v5.693H5.587l4.66-5.693h2.105l-5.291,6.42,5.578,7.052Z" transform="translate(9.607 25.663)" fill="#fff"/>
    </g>
    <g id="Grupo_15272" data-name="Grupo 15272" transform="translate(649.503 5314.804)">
      <path id="Trazado_33598" data-name="Trazado 33598" d="M16.069,0A16.069,16.069,0,1,1,0,16.069,16.069,16.069,0,0,1,16.069,0Z" fill="#1ec488"/>
      <path id="Trazado_33603" data-name="Trazado 33603" d="M4.41-5.275H9.089v1.56H2.7V-17.187H4.41Z" transform="translate(11.174 25.663)" fill="#fff"/>
    </g>
    <g id="Grupo_15273" data-name="Grupo 15273" transform="translate(651.071 5408.865)">
      <path id="Trazado_33604" data-name="Trazado 33604" d="M16.069,0A16.069,16.069,0,1,1,0,16.069,16.069,16.069,0,0,1,16.069,0Z" transform="translate(0)" fill="#1ec488"/>
      <path id="Trazado_33605" data-name="Trazado 33605" d="M11.749-17.187h1.7V-3.715H11.644l-7.262-10.9v10.9H2.7V-17.187H4.487l7.262,10.85Z" transform="translate(8.823 25.663)" fill="#fff"/>
    </g>
    <g id="Grupo_15274" data-name="Grupo 15274" transform="translate(651.855 5502.925)">
      <path id="Trazado_33606" data-name="Trazado 33606" d="M16.069,0A16.069,16.069,0,1,1,0,16.069,16.069,16.069,0,0,1,16.069,0Z" transform="translate(0 0)" fill="#1ec488"/>
      <path id="Trazado_33607" data-name="Trazado 33607" d="M7.8-17.187a3.989,3.989,0,0,1,2.11.56,3.781,3.781,0,0,1,1.416,1.5,4.394,4.394,0,0,1,.493,2.076A4.088,4.088,0,0,1,10.7-10.121,3.825,3.825,0,0,1,7.8-8.949H4.41v5.234H2.7V-17.187Zm-.249,6.746a2.45,2.45,0,0,0,1.875-.722,2.673,2.673,0,0,0,.679-1.909,2.681,2.681,0,0,0-.679-1.9A2.433,2.433,0,0,0,7.549-15.7H4.41v5.263Z" transform="translate(8.823 25.663)" fill="#fff"/>
    </g>
    <path id="Trazado_187487" data-name="Trazado 187487" d="M11.32,0h-1.7L3.182-9.861V0h-1.7V-12.8h1.7l6.46,9.905V-12.8H11.32Zm7.919,0H17.6V-10.837l-3.278,1.2v-1.477l4.658-1.749h.255ZM36.062-7.154h-7.33V-8.569h7.33Zm0,3.647h-7.33V-4.913h7.33Z" transform="translate(590 5291.075)" fill="#12263f"/>
    <path id="Trazado_187488" data-name="Trazado 187488" d="M11.32,0h-1.7L3.182-9.861V0h-1.7V-12.8h1.7l6.46,9.905V-12.8H11.32ZM22.28,0H13.9V-1.169l4.43-4.922a10.524,10.524,0,0,0,1.358-1.815,3.029,3.029,0,0,0,.374-1.446A2.3,2.3,0,0,0,19.45-11a2.12,2.12,0,0,0-1.617-.642,2.511,2.511,0,0,0-1.885.69,2.635,2.635,0,0,0-.672,1.92H13.649a3.774,3.774,0,0,1,1.138-2.856,4.219,4.219,0,0,1,3.045-1.09,4.054,4.054,0,0,1,2.821.936,3.193,3.193,0,0,1,1.037,2.492q0,1.89-2.408,4.5L15.855-1.327H22.28ZM36.062-7.154h-7.33V-8.569h7.33Zm0,3.647h-7.33V-4.913h7.33Z" transform="translate(590 5337.075)" fill="#12263f"/>
    <path id="Trazado_187489" data-name="Trazado 187489" d="M11.32,0h-1.7L3.182-9.861V0h-1.7V-12.8h1.7l6.46,9.905V-12.8H11.32ZM16.26-7.189h1.222A2.685,2.685,0,0,0,19.292-7.8a2.026,2.026,0,0,0,.659-1.591,1.985,1.985,0,0,0-2.241-2.25,2.331,2.331,0,0,0-1.683.6,2.107,2.107,0,0,0-.628,1.6H13.772a3.264,3.264,0,0,1,1.112-2.527,4.05,4.05,0,0,1,2.826-1.006,4,4,0,0,1,2.839.958,3.461,3.461,0,0,1,1.028,2.663,2.809,2.809,0,0,1-.541,1.617,3.264,3.264,0,0,1-1.472,1.169,3.145,3.145,0,0,1,1.63,1.107,3.076,3.076,0,0,1,.576,1.89A3.491,3.491,0,0,1,20.646-.835,4.213,4.213,0,0,1,17.719.176,4.324,4.324,0,0,1,14.788-.8a3.236,3.236,0,0,1-1.129-2.575h1.635a2.092,2.092,0,0,0,.659,1.617,2.507,2.507,0,0,0,1.767.606,2.46,2.46,0,0,0,1.8-.615,2.371,2.371,0,0,0,.624-1.767,2.151,2.151,0,0,0-.686-1.714,2.987,2.987,0,0,0-1.978-.615H16.26Zm19.8.035h-7.33V-8.569h7.33Zm0,3.647h-7.33V-4.913h7.33Z" transform="translate(590 5385.075)" fill="#12263f"/>
    <path id="Trazado_187490" data-name="Trazado 187490" d="M11.32,0h-1.7L3.182-9.861V0h-1.7V-12.8h1.7l6.46,9.905V-12.8H11.32ZM20.76-4.3h1.775v1.327H20.76V0H19.125V-2.971H13.3v-.958l5.73-8.868H20.76Zm-5.616,0h3.981v-6.275l-.193.352ZM36.062-7.154h-7.33V-8.569h7.33Zm0,3.647h-7.33V-4.913h7.33Z" transform="translate(590 5432.075)" fill="#12263f"/>
    <path id="Trazado_187491" data-name="Trazado 187491" d="M11.32,0h-1.7L3.182-9.861V0h-1.7V-12.8h1.7l6.46,9.905V-12.8H11.32Zm3.322-6.416.65-6.381H21.85v1.5H16.673L16.286-7.8a4.13,4.13,0,0,1,2.136-.554A3.531,3.531,0,0,1,21.2-7.2a4.53,4.53,0,0,1,1.028,3.125A4.372,4.372,0,0,1,21.16-.962,3.892,3.892,0,0,1,18.176.176a4.045,4.045,0,0,1-2.769-.94,3.754,3.754,0,0,1-1.222-2.6h1.538a2.582,2.582,0,0,0,.782,1.657,2.432,2.432,0,0,0,1.67.558,2.194,2.194,0,0,0,1.78-.773A3.233,3.233,0,0,0,20.6-4.061a2.968,2.968,0,0,0-.7-2.061A2.377,2.377,0,0,0,18.044-6.9a2.681,2.681,0,0,0-1.67.466l-.431.352Zm21.419-.738h-7.33V-8.569h7.33Zm0,3.647h-7.33V-4.913h7.33Z" transform="translate(590 5480.075)" fill="#12263f"/>
    <path id="Trazado_187492" data-name="Trazado 187492" d="M11.32,0h-1.7L3.182-9.861V0h-1.7V-12.8h1.7l6.46,9.905V-12.8H11.32Zm8.956-12.806v1.38h-.3A4.281,4.281,0,0,0,16.954-10.3a4.681,4.681,0,0,0-1.3,3.067,3.471,3.471,0,0,1,2.76-1.16,3.319,3.319,0,0,1,2.667,1.178,4.543,4.543,0,0,1,1,3.041A4.528,4.528,0,0,1,21-1.011,3.707,3.707,0,0,1,18.114.176a3.653,3.653,0,0,1-2.979-1.411,5.591,5.591,0,0,1-1.143-3.634v-.624a8.424,8.424,0,0,1,1.507-5.4,5.536,5.536,0,0,1,4.487-1.912ZM18.141-7.04a2.594,2.594,0,0,0-1.538.5,2.61,2.61,0,0,0-.976,1.257v.6a4.2,4.2,0,0,0,.712,2.549,2.133,2.133,0,0,0,1.775.967,2.067,2.067,0,0,0,1.727-.809A3.355,3.355,0,0,0,20.47-4.1a3.356,3.356,0,0,0-.637-2.131A2.042,2.042,0,0,0,18.141-7.04Zm17.921-.114h-7.33V-8.569h7.33Zm0,3.647h-7.33V-4.913h7.33Z" transform="translate(590 5526.075)" fill="#12263f"/>
    <path id="Trazado_187493" data-name="Trazado 187493" d="M11.32,0h-1.7L3.182-9.861V0h-1.7V-12.8h1.7l6.46,9.905V-12.8H11.32ZM22.157-11.883,16.857,0H15.152l5.282-11.461H13.509V-12.8h8.648Zm13.9,4.729h-7.33V-8.569h7.33Zm0,3.647h-7.33V-4.913h7.33Z" transform="translate(590 5575.075)" fill="#12263f"/>
    <path id="Trazado_187494" data-name="Trazado 187494" d="M6.717,0H5.2V-11.495a3.522,3.522,0,0,1-.515.4,8.393,8.393,0,0,1-.761.45q-.422.223-.891.417a6.473,6.473,0,0,1-.914.306v-1.54a8.845,8.845,0,0,0,1.062-.376q.561-.237,1.1-.529t1.025-.612a8.139,8.139,0,0,0,.835-.626h.575Zm4.49-.343V-1.976a4.5,4.5,0,0,0,2.737.918q2,0,2-1.336a1.159,1.159,0,0,0-.172-.645,1.711,1.711,0,0,0-.464-.469,3.571,3.571,0,0,0-.687-.366q-.394-.162-.849-.339a10.933,10.933,0,0,1-1.109-.506,3.349,3.349,0,0,1-.8-.575,2.14,2.14,0,0,1-.482-.728,2.577,2.577,0,0,1-.162-.956,2.27,2.27,0,0,1,.306-1.183,2.715,2.715,0,0,1,.816-.863,3.807,3.807,0,0,1,1.164-.524,5.165,5.165,0,0,1,1.35-.176A5.45,5.45,0,0,1,17.07-9.3v1.54a4.3,4.3,0,0,0-2.412-.687,2.819,2.819,0,0,0-.77.1,1.885,1.885,0,0,0-.589.274,1.264,1.264,0,0,0-.38.422,1.112,1.112,0,0,0-.135.543,1.3,1.3,0,0,0,.135.622,1.368,1.368,0,0,0,.394.445,3.014,3.014,0,0,0,.631.353q.371.158.844.343a11.75,11.75,0,0,1,1.132.5,3.882,3.882,0,0,1,.854.575,2.248,2.248,0,0,1,.543.738,2.379,2.379,0,0,1,.19.993A2.341,2.341,0,0,1,17.2-1.317a2.664,2.664,0,0,1-.83.863,3.8,3.8,0,0,1-1.2.51,5.909,5.909,0,0,1-1.419.167A5.39,5.39,0,0,1,11.207-.343Z" transform="translate(764 5291.075)" fill="#082143"/>
    <path id="Trazado_187495" data-name="Trazado 187495" d="M7.162-9.815a2.751,2.751,0,0,0-.19-1.067,2.113,2.113,0,0,0-.52-.756,2.129,2.129,0,0,0-.775-.45,3.033,3.033,0,0,0-.965-.148,3.191,3.191,0,0,0-.872.121,4.24,4.24,0,0,0-.83.334,5.108,5.108,0,0,0-.779.51,5.629,5.629,0,0,0-.7.659v-1.633A4.549,4.549,0,0,1,2.964-13.2,5.047,5.047,0,0,1,4.9-13.526a4.67,4.67,0,0,1,1.512.237,3.467,3.467,0,0,1,1.206.691,3.2,3.2,0,0,1,.8,1.123,3.786,3.786,0,0,1,.292,1.531,5.249,5.249,0,0,1-.181,1.429,4.418,4.418,0,0,1-.547,1.206A5.82,5.82,0,0,1,7.06-6.225,13.076,13.076,0,0,1,5.752-5.167Q4.815-4.5,4.207-4.026a6.828,6.828,0,0,0-.965.886,2.571,2.571,0,0,0-.5.826,2.886,2.886,0,0,0-.144.951H9.222V0H1.011V-.659a5.489,5.489,0,0,1,.186-1.5A3.9,3.9,0,0,1,1.809-3.4,6.848,6.848,0,0,1,2.927-4.564q.691-.584,1.693-1.317a10.7,10.7,0,0,0,1.211-.993,5.161,5.161,0,0,0,.784-.946,3.4,3.4,0,0,0,.422-.96A4.14,4.14,0,0,0,7.162-9.815ZM11.207-.343V-1.976a4.5,4.5,0,0,0,2.737.918q2,0,2-1.336a1.159,1.159,0,0,0-.172-.645,1.711,1.711,0,0,0-.464-.469,3.571,3.571,0,0,0-.687-.366q-.394-.162-.849-.339a10.933,10.933,0,0,1-1.109-.506,3.349,3.349,0,0,1-.8-.575,2.14,2.14,0,0,1-.482-.728,2.577,2.577,0,0,1-.162-.956,2.27,2.27,0,0,1,.306-1.183,2.715,2.715,0,0,1,.816-.863,3.807,3.807,0,0,1,1.164-.524,5.165,5.165,0,0,1,1.35-.176A5.45,5.45,0,0,1,17.07-9.3v1.54a4.3,4.3,0,0,0-2.412-.687,2.819,2.819,0,0,0-.77.1,1.885,1.885,0,0,0-.589.274,1.264,1.264,0,0,0-.38.422,1.112,1.112,0,0,0-.135.543,1.3,1.3,0,0,0,.135.622,1.368,1.368,0,0,0,.394.445,3.014,3.014,0,0,0,.631.353q.371.158.844.343a11.75,11.75,0,0,1,1.132.5,3.882,3.882,0,0,1,.854.575,2.248,2.248,0,0,1,.543.738,2.379,2.379,0,0,1,.19.993A2.341,2.341,0,0,1,17.2-1.317a2.664,2.664,0,0,1-.83.863,3.8,3.8,0,0,1-1.2.51,5.909,5.909,0,0,1-1.419.167A5.39,5.39,0,0,1,11.207-.343Z" transform="translate(764 5338.075)" fill="#082143"/>
    <path id="Trazado_187496" data-name="Trazado 187496" d="M8.841-3.767A3.878,3.878,0,0,1,8.5-2.129,3.615,3.615,0,0,1,7.547-.867a4.41,4.41,0,0,1-1.48.812,5.986,5.986,0,0,1-1.9.288A5.527,5.527,0,0,1,1.141-.492V-2.125a4.847,4.847,0,0,0,3.08,1.058,4.186,4.186,0,0,0,1.257-.176,2.819,2.819,0,0,0,.965-.51,2.266,2.266,0,0,0,.622-.807,2.521,2.521,0,0,0,.218-1.067q0-2.607-3.711-2.607h-1.1v-1.29H3.516Q6.8-7.524,6.8-9.973q0-2.264-2.5-2.264a4.265,4.265,0,0,0-2.644.946v-1.475a5.78,5.78,0,0,1,3.024-.761,4.647,4.647,0,0,1,1.512.232,3.465,3.465,0,0,1,1.16.649,2.878,2.878,0,0,1,.747,1,3.093,3.093,0,0,1,.264,1.29A3.247,3.247,0,0,1,5.706-6.977v.037a4.2,4.2,0,0,1,1.252.329,3.342,3.342,0,0,1,.993.663,2.957,2.957,0,0,1,.654.96A3.066,3.066,0,0,1,8.841-3.767ZM11.207-.343V-1.976a4.5,4.5,0,0,0,2.737.918q2,0,2-1.336a1.159,1.159,0,0,0-.172-.645,1.711,1.711,0,0,0-.464-.469,3.571,3.571,0,0,0-.687-.366q-.394-.162-.849-.339a10.933,10.933,0,0,1-1.109-.506,3.349,3.349,0,0,1-.8-.575,2.14,2.14,0,0,1-.482-.728,2.577,2.577,0,0,1-.162-.956,2.27,2.27,0,0,1,.306-1.183,2.715,2.715,0,0,1,.816-.863,3.807,3.807,0,0,1,1.164-.524,5.165,5.165,0,0,1,1.35-.176A5.45,5.45,0,0,1,17.07-9.3v1.54a4.3,4.3,0,0,0-2.412-.687,2.819,2.819,0,0,0-.77.1,1.885,1.885,0,0,0-.589.274,1.264,1.264,0,0,0-.38.422,1.112,1.112,0,0,0-.135.543,1.3,1.3,0,0,0,.135.622,1.368,1.368,0,0,0,.394.445,3.014,3.014,0,0,0,.631.353q.371.158.844.343a11.75,11.75,0,0,1,1.132.5,3.882,3.882,0,0,1,.854.575,2.248,2.248,0,0,1,.543.738,2.379,2.379,0,0,1,.19.993A2.341,2.341,0,0,1,17.2-1.317a2.664,2.664,0,0,1-.83.863,3.8,3.8,0,0,1-1.2.51,5.909,5.909,0,0,1-1.419.167A5.39,5.39,0,0,1,11.207-.343Z" transform="translate(764 5385.075)" fill="#082143"/>
    <path id="Trazado_187497" data-name="Trazado 187497" d="M7.886-13.3v8.786H9.593v1.392H7.886V0h-1.5V-3.126H.13V-4.444Q1-5.427,1.893-6.545t1.7-2.268q.812-1.15,1.5-2.3A20.985,20.985,0,0,0,6.262-13.3ZM1.846-4.518H6.383v-6.513q-.7,1.215-1.317,2.171T3.883-7.125q-.561.779-1.072,1.41T1.846-4.518ZM11.207-.343V-1.976a4.5,4.5,0,0,0,2.737.918q2,0,2-1.336a1.159,1.159,0,0,0-.172-.645,1.711,1.711,0,0,0-.464-.469,3.571,3.571,0,0,0-.687-.366q-.394-.162-.849-.339a10.933,10.933,0,0,1-1.109-.506,3.349,3.349,0,0,1-.8-.575,2.14,2.14,0,0,1-.482-.728,2.577,2.577,0,0,1-.162-.956,2.27,2.27,0,0,1,.306-1.183,2.715,2.715,0,0,1,.816-.863,3.807,3.807,0,0,1,1.164-.524,5.165,5.165,0,0,1,1.35-.176A5.45,5.45,0,0,1,17.07-9.3v1.54a4.3,4.3,0,0,0-2.412-.687,2.819,2.819,0,0,0-.77.1,1.885,1.885,0,0,0-.589.274,1.264,1.264,0,0,0-.38.422,1.112,1.112,0,0,0-.135.543,1.3,1.3,0,0,0,.135.622,1.368,1.368,0,0,0,.394.445,3.014,3.014,0,0,0,.631.353q.371.158.844.343a11.75,11.75,0,0,1,1.132.5,3.882,3.882,0,0,1,.854.575,2.248,2.248,0,0,1,.543.738,2.379,2.379,0,0,1,.19.993A2.341,2.341,0,0,1,17.2-1.317a2.664,2.664,0,0,1-.83.863,3.8,3.8,0,0,1-1.2.51,5.909,5.909,0,0,1-1.419.167A5.39,5.39,0,0,1,11.207-.343Z" transform="translate(764 5433.075)" fill="#082143"/>
    <path id="Trazado_187498" data-name="Trazado 187498" d="M8.99-4.063A4.478,4.478,0,0,1,8.656-2.3,3.854,3.854,0,0,1,7.7-.946a4.258,4.258,0,0,1-1.489.872A5.823,5.823,0,0,1,4.277.232,5.356,5.356,0,0,1,1.521-.325V-1.939A5.066,5.066,0,0,0,4.3-1.067,3.754,3.754,0,0,0,5.6-1.28a2.9,2.9,0,0,0,.988-.594,2.542,2.542,0,0,0,.626-.918,3.109,3.109,0,0,0,.218-1.178,2.524,2.524,0,0,0-.872-2.036,3.824,3.824,0,0,0-2.533-.738q-.269,0-.566.009t-.594.023q-.3.014-.58.032t-.515.046l.455-6.67H8.377v1.373H3.544L3.275-8.025q.3-.019.631-.032T4.5-8.071a5.971,5.971,0,0,1,1.893.278A4.01,4.01,0,0,1,7.807-7a3.326,3.326,0,0,1,.881,1.262A4.438,4.438,0,0,1,8.99-4.063Zm2.217,3.72V-1.976a4.5,4.5,0,0,0,2.737.918q2,0,2-1.336a1.159,1.159,0,0,0-.172-.645,1.711,1.711,0,0,0-.464-.469,3.571,3.571,0,0,0-.687-.366q-.394-.162-.849-.339a10.933,10.933,0,0,1-1.109-.506,3.349,3.349,0,0,1-.8-.575,2.14,2.14,0,0,1-.482-.728,2.577,2.577,0,0,1-.162-.956,2.27,2.27,0,0,1,.306-1.183,2.715,2.715,0,0,1,.816-.863,3.807,3.807,0,0,1,1.164-.524,5.165,5.165,0,0,1,1.35-.176A5.45,5.45,0,0,1,17.07-9.3v1.54a4.3,4.3,0,0,0-2.412-.687,2.819,2.819,0,0,0-.77.1,1.885,1.885,0,0,0-.589.274,1.264,1.264,0,0,0-.38.422,1.112,1.112,0,0,0-.135.543,1.3,1.3,0,0,0,.135.622,1.368,1.368,0,0,0,.394.445,3.014,3.014,0,0,0,.631.353q.371.158.844.343a11.75,11.75,0,0,1,1.132.5,3.882,3.882,0,0,1,.854.575,2.248,2.248,0,0,1,.543.738,2.379,2.379,0,0,1,.19.993A2.341,2.341,0,0,1,17.2-1.317a2.664,2.664,0,0,1-.83.863,3.8,3.8,0,0,1-1.2.51,5.909,5.909,0,0,1-1.419.167A5.39,5.39,0,0,1,11.207-.343Z" transform="translate(764 5480.075)" fill="#082143"/>
    <path id="Trazado_187499" data-name="Trazado 187499" d="M9.481-4.221a4.928,4.928,0,0,1-.315,1.791,4.3,4.3,0,0,1-.872,1.41A3.9,3.9,0,0,1,6.967-.1,4.2,4.2,0,0,1,5.3.232,3.8,3.8,0,0,1,3.5-.186a3.8,3.8,0,0,1-1.345-1.2A5.763,5.763,0,0,1,1.317-3.3,10.379,10.379,0,0,1,1.03-5.854,11.989,11.989,0,0,1,1.415-9,7.652,7.652,0,0,1,2.51-11.425a5.047,5.047,0,0,1,1.712-1.554,4.586,4.586,0,0,1,2.236-.547,5.385,5.385,0,0,1,2.208.38v1.438a4.689,4.689,0,0,0-2.171-.529,3.235,3.235,0,0,0-1.6.4,3.686,3.686,0,0,0-1.225,1.127,5.5,5.5,0,0,0-.784,1.758,8.92,8.92,0,0,0-.274,2.292h.037A3.2,3.2,0,0,1,5.678-8.322a3.993,3.993,0,0,1,1.573.3,3.4,3.4,0,0,1,1.2.84,3.78,3.78,0,0,1,.765,1.294A4.926,4.926,0,0,1,9.481-4.221Zm-1.559.195a4.14,4.14,0,0,0-.176-1.252,2.717,2.717,0,0,0-.506-.946,2.18,2.18,0,0,0-.812-.6,2.732,2.732,0,0,0-1.095-.209,2.562,2.562,0,0,0-1.048.213,2.611,2.611,0,0,0-.835.58,2.686,2.686,0,0,0-.552.854,2.7,2.7,0,0,0-.2,1.034,4.126,4.126,0,0,0,.195,1.285,3.319,3.319,0,0,0,.547,1.044,2.6,2.6,0,0,0,.84.7,2.293,2.293,0,0,0,1.081.255,2.475,2.475,0,0,0,1.048-.218,2.339,2.339,0,0,0,.807-.608,2.813,2.813,0,0,0,.52-.932A3.7,3.7,0,0,0,7.923-4.026ZM11.207-.343V-1.976a4.5,4.5,0,0,0,2.737.918q2,0,2-1.336a1.159,1.159,0,0,0-.172-.645,1.711,1.711,0,0,0-.464-.469,3.571,3.571,0,0,0-.687-.366q-.394-.162-.849-.339a10.933,10.933,0,0,1-1.109-.506,3.349,3.349,0,0,1-.8-.575,2.14,2.14,0,0,1-.482-.728,2.577,2.577,0,0,1-.162-.956,2.27,2.27,0,0,1,.306-1.183,2.715,2.715,0,0,1,.816-.863,3.807,3.807,0,0,1,1.164-.524,5.165,5.165,0,0,1,1.35-.176A5.45,5.45,0,0,1,17.07-9.3v1.54a4.3,4.3,0,0,0-2.412-.687,2.819,2.819,0,0,0-.77.1,1.885,1.885,0,0,0-.589.274,1.264,1.264,0,0,0-.38.422,1.112,1.112,0,0,0-.135.543,1.3,1.3,0,0,0,.135.622,1.368,1.368,0,0,0,.394.445,3.014,3.014,0,0,0,.631.353q.371.158.844.343a11.75,11.75,0,0,1,1.132.5,3.882,3.882,0,0,1,.854.575,2.248,2.248,0,0,1,.543.738,2.379,2.379,0,0,1,.19.993A2.341,2.341,0,0,1,17.2-1.317a2.664,2.664,0,0,1-.83.863,3.8,3.8,0,0,1-1.2.51,5.909,5.909,0,0,1-1.419.167A5.39,5.39,0,0,1,11.207-.343Z" transform="translate(764 5528.075)" fill="#082143"/>
    <path id="Trazado_187500" data-name="Trazado 187500" d="M9.37-12.422q-.306.529-.738,1.317T7.719-9.333q-.482.983-.983,2.115T5.8-4.88q-.436,1.206-.765,2.445A18.186,18.186,0,0,0,4.555,0H2.922a18.5,18.5,0,0,1,.515-2.426q.348-1.239.789-2.431t.932-2.3q.492-1.1.956-2.032t.849-1.637q.385-.71.617-1.109H.909V-13.3H9.37ZM11.207-.343V-1.976a4.5,4.5,0,0,0,2.737.918q2,0,2-1.336a1.159,1.159,0,0,0-.172-.645,1.711,1.711,0,0,0-.464-.469,3.571,3.571,0,0,0-.687-.366q-.394-.162-.849-.339a10.933,10.933,0,0,1-1.109-.506,3.349,3.349,0,0,1-.8-.575,2.14,2.14,0,0,1-.482-.728,2.577,2.577,0,0,1-.162-.956,2.27,2.27,0,0,1,.306-1.183,2.715,2.715,0,0,1,.816-.863,3.807,3.807,0,0,1,1.164-.524,5.165,5.165,0,0,1,1.35-.176A5.45,5.45,0,0,1,17.07-9.3v1.54a4.3,4.3,0,0,0-2.412-.687,2.819,2.819,0,0,0-.77.1,1.885,1.885,0,0,0-.589.274,1.264,1.264,0,0,0-.38.422,1.112,1.112,0,0,0-.135.543,1.3,1.3,0,0,0,.135.622,1.368,1.368,0,0,0,.394.445,3.014,3.014,0,0,0,.631.353q.371.158.844.343a11.75,11.75,0,0,1,1.132.5,3.882,3.882,0,0,1,.854.575,2.248,2.248,0,0,1,.543.738,2.379,2.379,0,0,1,.19.993A2.341,2.341,0,0,1,17.2-1.317a2.664,2.664,0,0,1-.83.863,3.8,3.8,0,0,1-1.2.51,5.909,5.909,0,0,1-1.419.167A5.39,5.39,0,0,1,11.207-.343Z" transform="translate(760 5575.075)" fill="#082143"/>
    <path id="Trazado_187501" data-name="Trazado 187501" d="M7.162-9.815a2.751,2.751,0,0,0-.19-1.067,2.113,2.113,0,0,0-.52-.756,2.129,2.129,0,0,0-.775-.45,3.033,3.033,0,0,0-.965-.148,3.191,3.191,0,0,0-.872.121,4.24,4.24,0,0,0-.83.334,5.108,5.108,0,0,0-.779.51,5.629,5.629,0,0,0-.7.659v-1.633A4.549,4.549,0,0,1,2.964-13.2,5.047,5.047,0,0,1,4.9-13.526a4.67,4.67,0,0,1,1.512.237,3.467,3.467,0,0,1,1.206.691,3.2,3.2,0,0,1,.8,1.123,3.786,3.786,0,0,1,.292,1.531,5.249,5.249,0,0,1-.181,1.429,4.418,4.418,0,0,1-.547,1.206A5.82,5.82,0,0,1,7.06-6.225,13.076,13.076,0,0,1,5.752-5.167Q4.815-4.5,4.207-4.026a6.828,6.828,0,0,0-.965.886,2.571,2.571,0,0,0-.5.826,2.886,2.886,0,0,0-.144.951H9.222V0H1.011V-.659a5.489,5.489,0,0,1,.186-1.5A3.9,3.9,0,0,1,1.809-3.4,6.848,6.848,0,0,1,2.927-4.564q.691-.584,1.693-1.317a10.7,10.7,0,0,0,1.211-.993,5.161,5.161,0,0,0,.784-.946,3.4,3.4,0,0,0,.422-.96A4.14,4.14,0,0,0,7.162-9.815ZM11.207-.343V-1.976a4.5,4.5,0,0,0,2.737.918q2,0,2-1.336a1.159,1.159,0,0,0-.172-.645,1.711,1.711,0,0,0-.464-.469,3.571,3.571,0,0,0-.687-.366q-.394-.162-.849-.339a10.933,10.933,0,0,1-1.109-.506,3.349,3.349,0,0,1-.8-.575,2.14,2.14,0,0,1-.482-.728,2.577,2.577,0,0,1-.162-.956,2.27,2.27,0,0,1,.306-1.183,2.715,2.715,0,0,1,.816-.863,3.807,3.807,0,0,1,1.164-.524,5.165,5.165,0,0,1,1.35-.176A5.45,5.45,0,0,1,17.07-9.3v1.54a4.3,4.3,0,0,0-2.412-.687,2.819,2.819,0,0,0-.77.1,1.885,1.885,0,0,0-.589.274,1.264,1.264,0,0,0-.38.422,1.112,1.112,0,0,0-.135.543,1.3,1.3,0,0,0,.135.622,1.368,1.368,0,0,0,.394.445,3.014,3.014,0,0,0,.631.353q.371.158.844.343a11.75,11.75,0,0,1,1.132.5,3.882,3.882,0,0,1,.854.575,2.248,2.248,0,0,1,.543.738,2.379,2.379,0,0,1,.19.993A2.341,2.341,0,0,1,17.2-1.317a2.664,2.664,0,0,1-.83.863,3.8,3.8,0,0,1-1.2.51,5.909,5.909,0,0,1-1.419.167A5.39,5.39,0,0,1,11.207-.343Z" transform="translate(835 5338.075)" fill="#082143"/>
    <path id="Trazado_187502" data-name="Trazado 187502" d="M8.841-3.767A3.878,3.878,0,0,1,8.5-2.129,3.615,3.615,0,0,1,7.547-.867a4.41,4.41,0,0,1-1.48.812,5.986,5.986,0,0,1-1.9.288A5.527,5.527,0,0,1,1.141-.492V-2.125a4.847,4.847,0,0,0,3.08,1.058,4.186,4.186,0,0,0,1.257-.176,2.819,2.819,0,0,0,.965-.51,2.266,2.266,0,0,0,.622-.807,2.521,2.521,0,0,0,.218-1.067q0-2.607-3.711-2.607h-1.1v-1.29H3.516Q6.8-7.524,6.8-9.973q0-2.264-2.5-2.264a4.265,4.265,0,0,0-2.644.946v-1.475a5.78,5.78,0,0,1,3.024-.761,4.647,4.647,0,0,1,1.512.232,3.465,3.465,0,0,1,1.16.649,2.878,2.878,0,0,1,.747,1,3.093,3.093,0,0,1,.264,1.29A3.247,3.247,0,0,1,5.706-6.977v.037a4.2,4.2,0,0,1,1.252.329,3.342,3.342,0,0,1,.993.663,2.957,2.957,0,0,1,.654.96A3.066,3.066,0,0,1,8.841-3.767ZM11.207-.343V-1.976a4.5,4.5,0,0,0,2.737.918q2,0,2-1.336a1.159,1.159,0,0,0-.172-.645,1.711,1.711,0,0,0-.464-.469,3.571,3.571,0,0,0-.687-.366q-.394-.162-.849-.339a10.933,10.933,0,0,1-1.109-.506,3.349,3.349,0,0,1-.8-.575,2.14,2.14,0,0,1-.482-.728,2.577,2.577,0,0,1-.162-.956,2.27,2.27,0,0,1,.306-1.183,2.715,2.715,0,0,1,.816-.863,3.807,3.807,0,0,1,1.164-.524,5.165,5.165,0,0,1,1.35-.176A5.45,5.45,0,0,1,17.07-9.3v1.54a4.3,4.3,0,0,0-2.412-.687,2.819,2.819,0,0,0-.77.1,1.885,1.885,0,0,0-.589.274,1.264,1.264,0,0,0-.38.422,1.112,1.112,0,0,0-.135.543,1.3,1.3,0,0,0,.135.622,1.368,1.368,0,0,0,.394.445,3.014,3.014,0,0,0,.631.353q.371.158.844.343a11.75,11.75,0,0,1,1.132.5,3.882,3.882,0,0,1,.854.575,2.248,2.248,0,0,1,.543.738,2.379,2.379,0,0,1,.19.993A2.341,2.341,0,0,1,17.2-1.317a2.664,2.664,0,0,1-.83.863,3.8,3.8,0,0,1-1.2.51,5.909,5.909,0,0,1-1.419.167A5.39,5.39,0,0,1,11.207-.343Z" transform="translate(835 5385.075)" fill="#082143"/>
    <path id="Trazado_187503" data-name="Trazado 187503" d="M7.886-13.3v8.786H9.593v1.392H7.886V0h-1.5V-3.126H.13V-4.444Q1-5.427,1.893-6.545t1.7-2.268q.812-1.15,1.5-2.3A20.985,20.985,0,0,0,6.262-13.3ZM1.846-4.518H6.383v-6.513q-.7,1.215-1.317,2.171T3.883-7.125q-.561.779-1.072,1.41T1.846-4.518ZM11.207-.343V-1.976a4.5,4.5,0,0,0,2.737.918q2,0,2-1.336a1.159,1.159,0,0,0-.172-.645,1.711,1.711,0,0,0-.464-.469,3.571,3.571,0,0,0-.687-.366q-.394-.162-.849-.339a10.933,10.933,0,0,1-1.109-.506,3.349,3.349,0,0,1-.8-.575,2.14,2.14,0,0,1-.482-.728,2.577,2.577,0,0,1-.162-.956,2.27,2.27,0,0,1,.306-1.183,2.715,2.715,0,0,1,.816-.863,3.807,3.807,0,0,1,1.164-.524,5.165,5.165,0,0,1,1.35-.176A5.45,5.45,0,0,1,17.07-9.3v1.54a4.3,4.3,0,0,0-2.412-.687,2.819,2.819,0,0,0-.77.1,1.885,1.885,0,0,0-.589.274,1.264,1.264,0,0,0-.38.422,1.112,1.112,0,0,0-.135.543,1.3,1.3,0,0,0,.135.622,1.368,1.368,0,0,0,.394.445,3.014,3.014,0,0,0,.631.353q.371.158.844.343a11.75,11.75,0,0,1,1.132.5,3.882,3.882,0,0,1,.854.575,2.248,2.248,0,0,1,.543.738,2.379,2.379,0,0,1,.19.993A2.341,2.341,0,0,1,17.2-1.317a2.664,2.664,0,0,1-.83.863,3.8,3.8,0,0,1-1.2.51,5.909,5.909,0,0,1-1.419.167A5.39,5.39,0,0,1,11.207-.343Z" transform="translate(835 5433.075)" fill="#082143"/>
    <path id="Trazado_187504" data-name="Trazado 187504" d="M8.99-4.063A4.478,4.478,0,0,1,8.656-2.3,3.854,3.854,0,0,1,7.7-.946a4.258,4.258,0,0,1-1.489.872A5.823,5.823,0,0,1,4.277.232,5.356,5.356,0,0,1,1.521-.325V-1.939A5.066,5.066,0,0,0,4.3-1.067,3.754,3.754,0,0,0,5.6-1.28a2.9,2.9,0,0,0,.988-.594,2.542,2.542,0,0,0,.626-.918,3.109,3.109,0,0,0,.218-1.178,2.524,2.524,0,0,0-.872-2.036,3.824,3.824,0,0,0-2.533-.738q-.269,0-.566.009t-.594.023q-.3.014-.58.032t-.515.046l.455-6.67H8.377v1.373H3.544L3.275-8.025q.3-.019.631-.032T4.5-8.071a5.971,5.971,0,0,1,1.893.278A4.01,4.01,0,0,1,7.807-7a3.326,3.326,0,0,1,.881,1.262A4.438,4.438,0,0,1,8.99-4.063Zm2.217,3.72V-1.976a4.5,4.5,0,0,0,2.737.918q2,0,2-1.336a1.159,1.159,0,0,0-.172-.645,1.711,1.711,0,0,0-.464-.469,3.571,3.571,0,0,0-.687-.366q-.394-.162-.849-.339a10.933,10.933,0,0,1-1.109-.506,3.349,3.349,0,0,1-.8-.575,2.14,2.14,0,0,1-.482-.728,2.577,2.577,0,0,1-.162-.956,2.27,2.27,0,0,1,.306-1.183,2.715,2.715,0,0,1,.816-.863,3.807,3.807,0,0,1,1.164-.524,5.165,5.165,0,0,1,1.35-.176A5.45,5.45,0,0,1,17.07-9.3v1.54a4.3,4.3,0,0,0-2.412-.687,2.819,2.819,0,0,0-.77.1,1.885,1.885,0,0,0-.589.274,1.264,1.264,0,0,0-.38.422,1.112,1.112,0,0,0-.135.543,1.3,1.3,0,0,0,.135.622,1.368,1.368,0,0,0,.394.445,3.014,3.014,0,0,0,.631.353q.371.158.844.343a11.75,11.75,0,0,1,1.132.5,3.882,3.882,0,0,1,.854.575,2.248,2.248,0,0,1,.543.738,2.379,2.379,0,0,1,.19.993A2.341,2.341,0,0,1,17.2-1.317a2.664,2.664,0,0,1-.83.863,3.8,3.8,0,0,1-1.2.51,5.909,5.909,0,0,1-1.419.167A5.39,5.39,0,0,1,11.207-.343Z" transform="translate(835 5480.075)" fill="#082143"/>
    <path id="Trazado_187505" data-name="Trazado 187505" d="M9.481-4.221a4.928,4.928,0,0,1-.315,1.791,4.3,4.3,0,0,1-.872,1.41A3.9,3.9,0,0,1,6.967-.1,4.2,4.2,0,0,1,5.3.232,3.8,3.8,0,0,1,3.5-.186a3.8,3.8,0,0,1-1.345-1.2A5.763,5.763,0,0,1,1.317-3.3,10.379,10.379,0,0,1,1.03-5.854,11.989,11.989,0,0,1,1.415-9,7.652,7.652,0,0,1,2.51-11.425a5.047,5.047,0,0,1,1.712-1.554,4.586,4.586,0,0,1,2.236-.547,5.385,5.385,0,0,1,2.208.38v1.438a4.689,4.689,0,0,0-2.171-.529,3.235,3.235,0,0,0-1.6.4,3.686,3.686,0,0,0-1.225,1.127,5.5,5.5,0,0,0-.784,1.758,8.92,8.92,0,0,0-.274,2.292h.037A3.2,3.2,0,0,1,5.678-8.322a3.993,3.993,0,0,1,1.573.3,3.4,3.4,0,0,1,1.2.84,3.78,3.78,0,0,1,.765,1.294A4.926,4.926,0,0,1,9.481-4.221Zm-1.559.195a4.14,4.14,0,0,0-.176-1.252,2.717,2.717,0,0,0-.506-.946,2.18,2.18,0,0,0-.812-.6,2.732,2.732,0,0,0-1.095-.209,2.562,2.562,0,0,0-1.048.213,2.611,2.611,0,0,0-.835.58,2.686,2.686,0,0,0-.552.854,2.7,2.7,0,0,0-.2,1.034,4.126,4.126,0,0,0,.195,1.285,3.319,3.319,0,0,0,.547,1.044,2.6,2.6,0,0,0,.84.7,2.293,2.293,0,0,0,1.081.255,2.475,2.475,0,0,0,1.048-.218,2.339,2.339,0,0,0,.807-.608,2.813,2.813,0,0,0,.52-.932A3.7,3.7,0,0,0,7.923-4.026ZM11.207-.343V-1.976a4.5,4.5,0,0,0,2.737.918q2,0,2-1.336a1.159,1.159,0,0,0-.172-.645,1.711,1.711,0,0,0-.464-.469,3.571,3.571,0,0,0-.687-.366q-.394-.162-.849-.339a10.933,10.933,0,0,1-1.109-.506,3.349,3.349,0,0,1-.8-.575,2.14,2.14,0,0,1-.482-.728,2.577,2.577,0,0,1-.162-.956,2.27,2.27,0,0,1,.306-1.183,2.715,2.715,0,0,1,.816-.863,3.807,3.807,0,0,1,1.164-.524,5.165,5.165,0,0,1,1.35-.176A5.45,5.45,0,0,1,17.07-9.3v1.54a4.3,4.3,0,0,0-2.412-.687,2.819,2.819,0,0,0-.77.1,1.885,1.885,0,0,0-.589.274,1.264,1.264,0,0,0-.38.422,1.112,1.112,0,0,0-.135.543,1.3,1.3,0,0,0,.135.622,1.368,1.368,0,0,0,.394.445,3.014,3.014,0,0,0,.631.353q.371.158.844.343a11.75,11.75,0,0,1,1.132.5,3.882,3.882,0,0,1,.854.575,2.248,2.248,0,0,1,.543.738,2.379,2.379,0,0,1,.19.993A2.341,2.341,0,0,1,17.2-1.317a2.664,2.664,0,0,1-.83.863,3.8,3.8,0,0,1-1.2.51,5.909,5.909,0,0,1-1.419.167A5.39,5.39,0,0,1,11.207-.343Z" transform="translate(835 5528.075)" fill="#082143"/>
    <path id="Trazado_187506" data-name="Trazado 187506" d="M9.37-12.422q-.306.529-.738,1.317T7.719-9.333q-.482.983-.983,2.115T5.8-4.88q-.436,1.206-.765,2.445A18.186,18.186,0,0,0,4.555,0H2.922a18.5,18.5,0,0,1,.515-2.426q.348-1.239.789-2.431t.932-2.3q.492-1.1.956-2.032t.849-1.637q.385-.71.617-1.109H.909V-13.3H9.37ZM11.207-.343V-1.976a4.5,4.5,0,0,0,2.737.918q2,0,2-1.336a1.159,1.159,0,0,0-.172-.645,1.711,1.711,0,0,0-.464-.469,3.571,3.571,0,0,0-.687-.366q-.394-.162-.849-.339a10.933,10.933,0,0,1-1.109-.506,3.349,3.349,0,0,1-.8-.575,2.14,2.14,0,0,1-.482-.728,2.577,2.577,0,0,1-.162-.956,2.27,2.27,0,0,1,.306-1.183,2.715,2.715,0,0,1,.816-.863,3.807,3.807,0,0,1,1.164-.524,5.165,5.165,0,0,1,1.35-.176A5.45,5.45,0,0,1,17.07-9.3v1.54a4.3,4.3,0,0,0-2.412-.687,2.819,2.819,0,0,0-.77.1,1.885,1.885,0,0,0-.589.274,1.264,1.264,0,0,0-.38.422,1.112,1.112,0,0,0-.135.543,1.3,1.3,0,0,0,.135.622,1.368,1.368,0,0,0,.394.445,3.014,3.014,0,0,0,.631.353q.371.158.844.343a11.75,11.75,0,0,1,1.132.5,3.882,3.882,0,0,1,.854.575,2.248,2.248,0,0,1,.543.738,2.379,2.379,0,0,1,.19.993A2.341,2.341,0,0,1,17.2-1.317a2.664,2.664,0,0,1-.83.863,3.8,3.8,0,0,1-1.2.51,5.909,5.909,0,0,1-1.419.167A5.39,5.39,0,0,1,11.207-.343Z" transform="translate(831 5575.075)" fill="#082143"/>
    <path id="Trazado_187507" data-name="Trazado 187507" d="M8.841-3.767A3.878,3.878,0,0,1,8.5-2.129,3.615,3.615,0,0,1,7.547-.867a4.41,4.41,0,0,1-1.48.812,5.986,5.986,0,0,1-1.9.288A5.527,5.527,0,0,1,1.141-.492V-2.125a4.847,4.847,0,0,0,3.08,1.058,4.186,4.186,0,0,0,1.257-.176,2.819,2.819,0,0,0,.965-.51,2.266,2.266,0,0,0,.622-.807,2.521,2.521,0,0,0,.218-1.067q0-2.607-3.711-2.607h-1.1v-1.29H3.516Q6.8-7.524,6.8-9.973q0-2.264-2.5-2.264a4.265,4.265,0,0,0-2.644.946v-1.475a5.78,5.78,0,0,1,3.024-.761,4.647,4.647,0,0,1,1.512.232,3.465,3.465,0,0,1,1.16.649,2.878,2.878,0,0,1,.747,1,3.093,3.093,0,0,1,.264,1.29A3.247,3.247,0,0,1,5.706-6.977v.037a4.2,4.2,0,0,1,1.252.329,3.342,3.342,0,0,1,.993.663,2.957,2.957,0,0,1,.654.96A3.066,3.066,0,0,1,8.841-3.767ZM11.207-.343V-1.976a4.5,4.5,0,0,0,2.737.918q2,0,2-1.336a1.159,1.159,0,0,0-.172-.645,1.711,1.711,0,0,0-.464-.469,3.571,3.571,0,0,0-.687-.366q-.394-.162-.849-.339a10.933,10.933,0,0,1-1.109-.506,3.349,3.349,0,0,1-.8-.575,2.14,2.14,0,0,1-.482-.728,2.577,2.577,0,0,1-.162-.956,2.27,2.27,0,0,1,.306-1.183,2.715,2.715,0,0,1,.816-.863,3.807,3.807,0,0,1,1.164-.524,5.165,5.165,0,0,1,1.35-.176A5.45,5.45,0,0,1,17.07-9.3v1.54a4.3,4.3,0,0,0-2.412-.687,2.819,2.819,0,0,0-.77.1,1.885,1.885,0,0,0-.589.274,1.264,1.264,0,0,0-.38.422,1.112,1.112,0,0,0-.135.543,1.3,1.3,0,0,0,.135.622,1.368,1.368,0,0,0,.394.445,3.014,3.014,0,0,0,.631.353q.371.158.844.343a11.75,11.75,0,0,1,1.132.5,3.882,3.882,0,0,1,.854.575,2.248,2.248,0,0,1,.543.738,2.379,2.379,0,0,1,.19.993A2.341,2.341,0,0,1,17.2-1.317a2.664,2.664,0,0,1-.83.863,3.8,3.8,0,0,1-1.2.51,5.909,5.909,0,0,1-1.419.167A5.39,5.39,0,0,1,11.207-.343Z" transform="translate(900 5385.075)" fill="#082143"/>
    <path id="Trazado_187508" data-name="Trazado 187508" d="M7.886-13.3v8.786H9.593v1.392H7.886V0h-1.5V-3.126H.13V-4.444Q1-5.427,1.893-6.545t1.7-2.268q.812-1.15,1.5-2.3A20.985,20.985,0,0,0,6.262-13.3ZM1.846-4.518H6.383v-6.513q-.7,1.215-1.317,2.171T3.883-7.125q-.561.779-1.072,1.41T1.846-4.518ZM11.207-.343V-1.976a4.5,4.5,0,0,0,2.737.918q2,0,2-1.336a1.159,1.159,0,0,0-.172-.645,1.711,1.711,0,0,0-.464-.469,3.571,3.571,0,0,0-.687-.366q-.394-.162-.849-.339a10.933,10.933,0,0,1-1.109-.506,3.349,3.349,0,0,1-.8-.575,2.14,2.14,0,0,1-.482-.728,2.577,2.577,0,0,1-.162-.956,2.27,2.27,0,0,1,.306-1.183,2.715,2.715,0,0,1,.816-.863,3.807,3.807,0,0,1,1.164-.524,5.165,5.165,0,0,1,1.35-.176A5.45,5.45,0,0,1,17.07-9.3v1.54a4.3,4.3,0,0,0-2.412-.687,2.819,2.819,0,0,0-.77.1,1.885,1.885,0,0,0-.589.274,1.264,1.264,0,0,0-.38.422,1.112,1.112,0,0,0-.135.543,1.3,1.3,0,0,0,.135.622,1.368,1.368,0,0,0,.394.445,3.014,3.014,0,0,0,.631.353q.371.158.844.343a11.75,11.75,0,0,1,1.132.5,3.882,3.882,0,0,1,.854.575,2.248,2.248,0,0,1,.543.738,2.379,2.379,0,0,1,.19.993A2.341,2.341,0,0,1,17.2-1.317a2.664,2.664,0,0,1-.83.863,3.8,3.8,0,0,1-1.2.51,5.909,5.909,0,0,1-1.419.167A5.39,5.39,0,0,1,11.207-.343Z" transform="translate(900 5433.075)" fill="#082143"/>
    <path id="Trazado_187509" data-name="Trazado 187509" d="M8.99-4.063A4.478,4.478,0,0,1,8.656-2.3,3.854,3.854,0,0,1,7.7-.946a4.258,4.258,0,0,1-1.489.872A5.823,5.823,0,0,1,4.277.232,5.356,5.356,0,0,1,1.521-.325V-1.939A5.066,5.066,0,0,0,4.3-1.067,3.754,3.754,0,0,0,5.6-1.28a2.9,2.9,0,0,0,.988-.594,2.542,2.542,0,0,0,.626-.918,3.109,3.109,0,0,0,.218-1.178,2.524,2.524,0,0,0-.872-2.036,3.824,3.824,0,0,0-2.533-.738q-.269,0-.566.009t-.594.023q-.3.014-.58.032t-.515.046l.455-6.67H8.377v1.373H3.544L3.275-8.025q.3-.019.631-.032T4.5-8.071a5.971,5.971,0,0,1,1.893.278A4.01,4.01,0,0,1,7.807-7a3.326,3.326,0,0,1,.881,1.262A4.438,4.438,0,0,1,8.99-4.063Zm2.217,3.72V-1.976a4.5,4.5,0,0,0,2.737.918q2,0,2-1.336a1.159,1.159,0,0,0-.172-.645,1.711,1.711,0,0,0-.464-.469,3.571,3.571,0,0,0-.687-.366q-.394-.162-.849-.339a10.933,10.933,0,0,1-1.109-.506,3.349,3.349,0,0,1-.8-.575,2.14,2.14,0,0,1-.482-.728,2.577,2.577,0,0,1-.162-.956,2.27,2.27,0,0,1,.306-1.183,2.715,2.715,0,0,1,.816-.863,3.807,3.807,0,0,1,1.164-.524,5.165,5.165,0,0,1,1.35-.176A5.45,5.45,0,0,1,17.07-9.3v1.54a4.3,4.3,0,0,0-2.412-.687,2.819,2.819,0,0,0-.77.1,1.885,1.885,0,0,0-.589.274,1.264,1.264,0,0,0-.38.422,1.112,1.112,0,0,0-.135.543,1.3,1.3,0,0,0,.135.622,1.368,1.368,0,0,0,.394.445,3.014,3.014,0,0,0,.631.353q.371.158.844.343a11.75,11.75,0,0,1,1.132.5,3.882,3.882,0,0,1,.854.575,2.248,2.248,0,0,1,.543.738,2.379,2.379,0,0,1,.19.993A2.341,2.341,0,0,1,17.2-1.317a2.664,2.664,0,0,1-.83.863,3.8,3.8,0,0,1-1.2.51,5.909,5.909,0,0,1-1.419.167A5.39,5.39,0,0,1,11.207-.343Z" transform="translate(900 5480.075)" fill="#082143"/>
    <path id="Trazado_187510" data-name="Trazado 187510" d="M9.481-4.221a4.928,4.928,0,0,1-.315,1.791,4.3,4.3,0,0,1-.872,1.41A3.9,3.9,0,0,1,6.967-.1,4.2,4.2,0,0,1,5.3.232,3.8,3.8,0,0,1,3.5-.186a3.8,3.8,0,0,1-1.345-1.2A5.763,5.763,0,0,1,1.317-3.3,10.379,10.379,0,0,1,1.03-5.854,11.989,11.989,0,0,1,1.415-9,7.652,7.652,0,0,1,2.51-11.425a5.047,5.047,0,0,1,1.712-1.554,4.586,4.586,0,0,1,2.236-.547,5.385,5.385,0,0,1,2.208.38v1.438a4.689,4.689,0,0,0-2.171-.529,3.235,3.235,0,0,0-1.6.4,3.686,3.686,0,0,0-1.225,1.127,5.5,5.5,0,0,0-.784,1.758,8.92,8.92,0,0,0-.274,2.292h.037A3.2,3.2,0,0,1,5.678-8.322a3.993,3.993,0,0,1,1.573.3,3.4,3.4,0,0,1,1.2.84,3.78,3.78,0,0,1,.765,1.294A4.926,4.926,0,0,1,9.481-4.221Zm-1.559.195a4.14,4.14,0,0,0-.176-1.252,2.717,2.717,0,0,0-.506-.946,2.18,2.18,0,0,0-.812-.6,2.732,2.732,0,0,0-1.095-.209,2.562,2.562,0,0,0-1.048.213,2.611,2.611,0,0,0-.835.58,2.686,2.686,0,0,0-.552.854,2.7,2.7,0,0,0-.2,1.034,4.126,4.126,0,0,0,.195,1.285,3.319,3.319,0,0,0,.547,1.044,2.6,2.6,0,0,0,.84.7,2.293,2.293,0,0,0,1.081.255,2.475,2.475,0,0,0,1.048-.218,2.339,2.339,0,0,0,.807-.608,2.813,2.813,0,0,0,.52-.932A3.7,3.7,0,0,0,7.923-4.026ZM11.207-.343V-1.976a4.5,4.5,0,0,0,2.737.918q2,0,2-1.336a1.159,1.159,0,0,0-.172-.645,1.711,1.711,0,0,0-.464-.469,3.571,3.571,0,0,0-.687-.366q-.394-.162-.849-.339a10.933,10.933,0,0,1-1.109-.506,3.349,3.349,0,0,1-.8-.575,2.14,2.14,0,0,1-.482-.728,2.577,2.577,0,0,1-.162-.956,2.27,2.27,0,0,1,.306-1.183,2.715,2.715,0,0,1,.816-.863,3.807,3.807,0,0,1,1.164-.524,5.165,5.165,0,0,1,1.35-.176A5.45,5.45,0,0,1,17.07-9.3v1.54a4.3,4.3,0,0,0-2.412-.687,2.819,2.819,0,0,0-.77.1,1.885,1.885,0,0,0-.589.274,1.264,1.264,0,0,0-.38.422,1.112,1.112,0,0,0-.135.543,1.3,1.3,0,0,0,.135.622,1.368,1.368,0,0,0,.394.445,3.014,3.014,0,0,0,.631.353q.371.158.844.343a11.75,11.75,0,0,1,1.132.5,3.882,3.882,0,0,1,.854.575,2.248,2.248,0,0,1,.543.738,2.379,2.379,0,0,1,.19.993A2.341,2.341,0,0,1,17.2-1.317a2.664,2.664,0,0,1-.83.863,3.8,3.8,0,0,1-1.2.51,5.909,5.909,0,0,1-1.419.167A5.39,5.39,0,0,1,11.207-.343Z" transform="translate(900 5528.075)" fill="#082143"/>
    <path id="Trazado_187511" data-name="Trazado 187511" d="M7.886-13.3v8.786H9.593v1.392H7.886V0h-1.5V-3.126H.13V-4.444Q1-5.427,1.893-6.545t1.7-2.268q.812-1.15,1.5-2.3A20.985,20.985,0,0,0,6.262-13.3ZM1.846-4.518H6.383v-6.513q-.7,1.215-1.317,2.171T3.883-7.125q-.561.779-1.072,1.41T1.846-4.518ZM11.207-.343V-1.976a4.5,4.5,0,0,0,2.737.918q2,0,2-1.336a1.159,1.159,0,0,0-.172-.645,1.711,1.711,0,0,0-.464-.469,3.571,3.571,0,0,0-.687-.366q-.394-.162-.849-.339a10.933,10.933,0,0,1-1.109-.506,3.349,3.349,0,0,1-.8-.575,2.14,2.14,0,0,1-.482-.728,2.577,2.577,0,0,1-.162-.956,2.27,2.27,0,0,1,.306-1.183,2.715,2.715,0,0,1,.816-.863,3.807,3.807,0,0,1,1.164-.524,5.165,5.165,0,0,1,1.35-.176A5.45,5.45,0,0,1,17.07-9.3v1.54a4.3,4.3,0,0,0-2.412-.687,2.819,2.819,0,0,0-.77.1,1.885,1.885,0,0,0-.589.274,1.264,1.264,0,0,0-.38.422,1.112,1.112,0,0,0-.135.543,1.3,1.3,0,0,0,.135.622,1.368,1.368,0,0,0,.394.445,3.014,3.014,0,0,0,.631.353q.371.158.844.343a11.75,11.75,0,0,1,1.132.5,3.882,3.882,0,0,1,.854.575,2.248,2.248,0,0,1,.543.738,2.379,2.379,0,0,1,.19.993A2.341,2.341,0,0,1,17.2-1.317a2.664,2.664,0,0,1-.83.863,3.8,3.8,0,0,1-1.2.51,5.909,5.909,0,0,1-1.419.167A5.39,5.39,0,0,1,11.207-.343Z" transform="translate(964 5433.075)" fill="#082143"/>
    <path id="Trazado_187512" data-name="Trazado 187512" d="M8.99-4.063A4.478,4.478,0,0,1,8.656-2.3,3.854,3.854,0,0,1,7.7-.946a4.258,4.258,0,0,1-1.489.872A5.823,5.823,0,0,1,4.277.232,5.356,5.356,0,0,1,1.521-.325V-1.939A5.066,5.066,0,0,0,4.3-1.067,3.754,3.754,0,0,0,5.6-1.28a2.9,2.9,0,0,0,.988-.594,2.542,2.542,0,0,0,.626-.918,3.109,3.109,0,0,0,.218-1.178,2.524,2.524,0,0,0-.872-2.036,3.824,3.824,0,0,0-2.533-.738q-.269,0-.566.009t-.594.023q-.3.014-.58.032t-.515.046l.455-6.67H8.377v1.373H3.544L3.275-8.025q.3-.019.631-.032T4.5-8.071a5.971,5.971,0,0,1,1.893.278A4.01,4.01,0,0,1,7.807-7a3.326,3.326,0,0,1,.881,1.262A4.438,4.438,0,0,1,8.99-4.063Zm2.217,3.72V-1.976a4.5,4.5,0,0,0,2.737.918q2,0,2-1.336a1.159,1.159,0,0,0-.172-.645,1.711,1.711,0,0,0-.464-.469,3.571,3.571,0,0,0-.687-.366q-.394-.162-.849-.339a10.933,10.933,0,0,1-1.109-.506,3.349,3.349,0,0,1-.8-.575,2.14,2.14,0,0,1-.482-.728,2.577,2.577,0,0,1-.162-.956,2.27,2.27,0,0,1,.306-1.183,2.715,2.715,0,0,1,.816-.863,3.807,3.807,0,0,1,1.164-.524,5.165,5.165,0,0,1,1.35-.176A5.45,5.45,0,0,1,17.07-9.3v1.54a4.3,4.3,0,0,0-2.412-.687,2.819,2.819,0,0,0-.77.1,1.885,1.885,0,0,0-.589.274,1.264,1.264,0,0,0-.38.422,1.112,1.112,0,0,0-.135.543,1.3,1.3,0,0,0,.135.622,1.368,1.368,0,0,0,.394.445,3.014,3.014,0,0,0,.631.353q.371.158.844.343a11.75,11.75,0,0,1,1.132.5,3.882,3.882,0,0,1,.854.575,2.248,2.248,0,0,1,.543.738,2.379,2.379,0,0,1,.19.993A2.341,2.341,0,0,1,17.2-1.317a2.664,2.664,0,0,1-.83.863,3.8,3.8,0,0,1-1.2.51,5.909,5.909,0,0,1-1.419.167A5.39,5.39,0,0,1,11.207-.343Z" transform="translate(964 5480.075)" fill="#082143"/>
    <g id="Grupo_15279" data-name="Grupo 15279" transform="translate(735.767 5260.719)">
      <circle id="Elipse_1127" data-name="Elipse 1127" cx="3.5" cy="3.5" r="3.5" transform="translate(73.233 0.355)" fill="red"/>
      <path id="Trazado_33628" data-name="Trazado 33628" d="M4199.971,4472.5l-67.189,39.958" transform="translate(-4123.588 -4468.973)" fill="none" stroke="red" stroke-width="1"/>
      <path id="Polígono_5" data-name="Polígono 5" d="M4.7,0l4.7,8.622H0Z" transform="matrix(-0.574, -0.819, 0.819, -0.574, 5.395, 52.18)" fill="#ff0a0a"/>
    </g>
    <g id="Grupo_15280" data-name="Grupo 15280" transform="translate(735.767 5309.317)">
      <circle id="Elipse_1127-2" data-name="Elipse 1127" cx="3.5" cy="3.5" r="3.5" transform="translate(73.233 -0.243)" fill="red"/>
      <path id="Trazado_33628-2" data-name="Trazado 33628" d="M4199.971,4472.5l-67.189,39.958" transform="translate(-4123.588 -4468.973)" fill="none" stroke="red" stroke-width="1"/>
      <path id="Polígono_5-2" data-name="Polígono 5" d="M4.7,0l4.7,8.622H0Z" transform="matrix(-0.574, -0.819, 0.819, -0.574, 5.395, 52.18)" fill="#ff0a0a"/>
    </g>
    <g id="Grupo_15281" data-name="Grupo 15281" transform="translate(735.767 5314.804)">
      <circle id="Elipse_1127-3" data-name="Elipse 1127" cx="3.5" cy="3.5" r="3.5" transform="translate(128.233 0.271)" fill="red"/>
      <path id="Trazado_33628-3" data-name="Trazado 33628" d="M4255.624,4472.5l-122.842,77.582" transform="translate(-4123.588 -4468.973)" fill="none" stroke="red" stroke-width="1"/>
      <path id="Polígono_5-3" data-name="Polígono 5" d="M4.7,0l4.7,8.622H0Z" transform="matrix(-0.574, -0.819, 0.819, -0.574, 5.395, 89.804)" fill="#ff0a0a"/>
    </g>
    <g id="Grupo_15282" data-name="Grupo 15282" transform="translate(735.767 5359.483)">
      <circle id="Elipse_1127-4" data-name="Elipse 1127" cx="3.5" cy="3.5" r="3.5" transform="translate(130.233 -0.408)" fill="red"/>
      <path id="Trazado_33628-4" data-name="Trazado 33628" d="M4257.191,4472.5l-124.41,84.636" transform="translate(-4123.588 -4468.973)" fill="none" stroke="red" stroke-width="1"/>
      <path id="Polígono_5-4" data-name="Polígono 5" d="M4.7,0l4.7,8.622H0Z" transform="matrix(-0.574, -0.819, 0.819, -0.574, 5.395, 96.859)" fill="#ff0a0a"/>
    </g>
    <g id="Grupo_15283" data-name="Grupo 15283" transform="translate(735.767 5359.483)">
      <circle id="Elipse_1127-5" data-name="Elipse 1127" cx="3.5" cy="3.5" r="3.5" transform="translate(195.233 -0.408)" fill="red"/>
      <path id="Trazado_33628-5" data-name="Trazado 33628" d="M4322.25,4472.5l-189.468,132.45" transform="translate(-4123.588 -4468.973)" fill="none" stroke="red" stroke-width="1"/>
      <path id="Polígono_5-5" data-name="Polígono 5" d="M4.7,0l4.7,8.622H0Z" transform="matrix(-0.574, -0.819, 0.819, -0.574, 5.395, 144.673)" fill="#ff0a0a"/>
    </g>
    <g id="Grupo_15284" data-name="Grupo 15284" transform="translate(735.767 5404.162)">
      <circle id="Elipse_1127-6" data-name="Elipse 1127" cx="3.5" cy="3.5" r="3.5" transform="translate(198.233 -0.087)" fill="red"/>
      <path id="Trazado_33628-6" data-name="Trazado 33628" d="M4325.385,4472.5l-192.6,134.8" transform="translate(-4123.588 -4468.973)" fill="none" stroke="red" stroke-width="1"/>
      <path id="Polígono_5-6" data-name="Polígono 5" d="M4.7,0l4.7,8.622H0Z" transform="matrix(-0.574, -0.819, 0.819, -0.574, 5.395, 147.024)" fill="#ff0a0a"/>
    </g>
    <g id="Grupo_15285" data-name="Grupo 15285" transform="translate(735.767 5405.729)">
      <circle id="Elipse_1127-7" data-name="Elipse 1127" cx="3.5" cy="3.5" r="3.5" transform="translate(258.233 0.346)" fill="red"/>
      <path id="Trazado_33628-7" data-name="Trazado 33628" d="M4385.742,4472.5l-252.959,181.048" transform="translate(-4123.588 -4468.973)" fill="none" stroke="red" stroke-width="1"/>
      <path id="Polígono_5-7" data-name="Polígono 5" d="M4.7,0l4.7,8.622H0Z" transform="matrix(-0.574, -0.819, 0.819, -0.574, 5.395, 193.271)" fill="#ff0a0a"/>
    </g>
    <g id="Grupo_15286" data-name="Grupo 15286" transform="translate(807.88 5446.489)">
      <circle id="Elipse_1127-8" data-name="Elipse 1127" cx="3.5" cy="3.5" r="3.5" transform="translate(195.12 -0.414)" fill="red"/>
      <path id="Trazado_33628-8" data-name="Trazado 33628" d="M4322.607,4472.5l-189.825,136.417" transform="translate(-4123.588 -4469.021)" fill="none" stroke="red" stroke-width="1"/>
      <path id="Polígono_5-8" data-name="Polígono 5" d="M4.7,0l4.7,8.622H0Z" transform="matrix(-0.574, -0.819, 0.819, -0.574, 5.395, 148.592)" fill="#ff0a0a"/>
    </g>
  </g>
</svg>
