<svg xmlns="http://www.w3.org/2000/svg" width="129" height="189" viewBox="0 0 129 189">
  <g id="Grupo_178783" data-name="Grupo 178783" transform="translate(-527 -7092)">
    <g id="Trazado_187513" data-name="Trazado 187513" transform="translate(527 7092)" fill="#fff">
      <path d="M 111 188.5 L 18 188.5 C 13.32557106018066 188.5 8.930952072143555 186.6796875 5.625642776489258 183.3743743896484 C 2.320309638977051 180.0690765380859 0.5 175.6744232177734 0.5 171 L 0.5 18 C 0.5 13.32559490203857 2.320309638977051 8.930952072143555 5.625642776489258 5.625642776489258 C 8.930952072143555 2.320309638977051 13.32559490203857 0.5 18 0.5 L 111 0.5 C 115.6744079589844 0.5 120.0690460205078 2.320309638977051 123.3743591308594 5.625642776489258 C 126.6796875 8.930952072143555 128.5 13.32559490203857 128.5 18 L 128.5 171 C 128.5 175.6744232177734 126.6796875 180.0690765380859 123.3743591308594 183.3743743896484 C 120.0690460205078 186.6796875 115.674430847168 188.5 111 188.5 Z" stroke="none"/>
      <path d="M 18 1 C 13.45914459228516 1 9.190071105957031 2.768310546875 5.97918701171875 5.979171752929688 C 2.768310546875 9.190048217773438 1 13.45912170410156 1 18 L 1 171 C 1 175.5408630371094 2.768310546875 179.8099365234375 5.97918701171875 183.0208129882812 C 9.190071105957031 186.231689453125 13.45914459228516 188 18 188 L 111 188 C 115.5408554077148 188 119.809928894043 186.231689453125 123.0208129882812 183.0208129882812 C 126.231689453125 179.8099365234375 128 175.5408630371094 128 171 L 128 18 C 128 13.45912170410156 126.231689453125 9.190048217773438 123.0208129882812 5.979171752929688 C 119.809928894043 2.768310546875 115.5408554077148 1 111 1 L 18 1 M 18 0 L 111 0 C 120.9411163330078 0 129 8.058853149414062 129 18 L 129 171 C 129 180.9411163330078 120.9411163330078 189 111 189 L 18 189 C 8.058883666992188 189 0 180.9411163330078 0 171 L 0 18 C 0 8.058853149414062 8.058883666992188 0 18 0 Z" stroke="none" fill="#fcd3a0"/>
    </g>
    <path id="Trazado_187514" data-name="Trazado 187514" d="M9.945-3.789A4.025,4.025,0,0,1,8.59-.9,4.76,4.76,0,0,1,5.367.156,4.28,4.28,0,0,1,1.926-1.316,6.038,6.038,0,0,1,.672-5.359v-.7A6.819,6.819,0,0,1,1.25-8.945,4.332,4.332,0,0,1,2.9-10.863a4.629,4.629,0,0,1,2.5-.668A4.637,4.637,0,0,1,8.57-10.477,4.326,4.326,0,0,1,9.961-7.516H7.617A2.376,2.376,0,0,0,7-9.113a2.271,2.271,0,0,0-1.605-.5,1.991,1.991,0,0,0-1.754.84,4.707,4.707,0,0,0-.6,2.605V-5.3a5.038,5.038,0,0,0,.559,2.7,1.954,1.954,0,0,0,1.762.852,2.314,2.314,0,0,0,1.621-.5A2.241,2.241,0,0,0,7.6-3.789Zm3.883,1.906H18.8V0h-7.32V-11.375h2.344ZM28.992-5.43A6.867,6.867,0,0,1,28.4-2.484,4.472,4.472,0,0,1,26.7-.531a4.7,4.7,0,0,1-2.535.688,4.732,4.732,0,0,1-2.523-.68,4.515,4.515,0,0,1-1.719-1.941,6.67,6.67,0,0,1-.617-2.9V-5.93a6.831,6.831,0,0,1,.605-2.957,4.508,4.508,0,0,1,1.711-1.961,4.706,4.706,0,0,1,2.527-.684,4.706,4.706,0,0,1,2.527.684,4.508,4.508,0,0,1,1.711,1.961,6.811,6.811,0,0,1,.605,2.949Zm-2.375-.516a4.787,4.787,0,0,0-.641-2.719,2.088,2.088,0,0,0-1.828-.93,2.088,2.088,0,0,0-1.82.918,4.732,4.732,0,0,0-.648,2.691v.555a4.847,4.847,0,0,0,.641,2.7,2.082,2.082,0,0,0,1.844.961,2.064,2.064,0,0,0,1.813-.926,4.819,4.819,0,0,0,.641-2.7Zm8.289,1.781H33.039V0H30.7V-11.375h4.227a4.778,4.778,0,0,1,3.109.9,3.1,3.1,0,0,1,1.094,2.539A3.5,3.5,0,0,1,38.621-6a3.437,3.437,0,0,1-1.527,1.238L39.555-.109V0H37.039Zm-1.867-1.9H34.93A1.936,1.936,0,0,0,36.3-6.512a1.606,1.606,0,0,0,.484-1.238,1.719,1.719,0,0,0-.457-1.266,1.9,1.9,0,0,0-1.4-.461H33.039ZM50.25-5.43a6.867,6.867,0,0,1-.594,2.945,4.472,4.472,0,0,1-1.7,1.953,4.7,4.7,0,0,1-2.535.688A4.732,4.732,0,0,1,42.9-.523,4.515,4.515,0,0,1,41.18-2.465a6.67,6.67,0,0,1-.617-2.9V-5.93a6.831,6.831,0,0,1,.605-2.957,4.508,4.508,0,0,1,1.711-1.961,4.706,4.706,0,0,1,2.527-.684,4.706,4.706,0,0,1,2.527.684,4.508,4.508,0,0,1,1.711,1.961,6.811,6.811,0,0,1,.605,2.949Zm-2.375-.516a4.787,4.787,0,0,0-.641-2.719,2.088,2.088,0,0,0-1.828-.93,2.088,2.088,0,0,0-1.82.918,4.732,4.732,0,0,0-.648,2.691v.555a4.847,4.847,0,0,0,.641,2.7,2.082,2.082,0,0,0,1.844.961,2.064,2.064,0,0,0,1.813-.926,4.819,4.819,0,0,0,.641-2.7Z" transform="translate(567 7129)" fill="#12263f"/>
    <path id="Trazado_187516" data-name="Trazado 187516" d="M35.5-1.519Q30.828.745,23.292.745q-9.829,0-15.458-5.778T2.2-20.433q0-10.246,6.329-16.62T24.96-43.427A30.72,30.72,0,0,1,35.5-41.848v9.263a18.683,18.683,0,0,0-9.77-2.562,12.96,12.96,0,0,0-9.71,3.783q-3.693,3.783-3.693,10.246,0,6.2,3.485,9.874A12.311,12.311,0,0,0,25.2-7.565,20.012,20.012,0,0,0,35.5-10.306ZM68.387,0H42.95V-42.712h9.621V-7.8H68.387Z" transform="translate(551 7239)" fill="#082143"/>
    <path id="Trazado_187517" data-name="Trazado 187517" d="M6.5-11.453V0H4.039V-8.672a2.947,2.947,0,0,1-.48.34,4.96,4.96,0,0,1-.59.289,5.267,5.267,0,0,1-.648.219,4.736,4.736,0,0,1-.664.129V-9.773a10.266,10.266,0,0,0,1.813-.719,10.315,10.315,0,0,0,1.539-.961ZM17.75-9.781Q17-8.43,16.406-7.246T15.359-4.91a22.03,22.03,0,0,0-.773,2.344A22.638,22.638,0,0,0,14.063,0H11.484a21.094,21.094,0,0,1,.578-2.516,23.592,23.592,0,0,1,.832-2.348Q13.367-6,13.941-7.078t1.215-2.109h-5.2V-11.2h7.8Z" transform="translate(583 7170)" fill="#082143"/>
    <g id="Trazado_187515" data-name="Trazado 187515" transform="translate(572 7145)" fill="none">
      <path d="M20,0A19.755,19.755,0,0,1,40,19.5,19.755,19.755,0,0,1,20,39,19.755,19.755,0,0,1,0,19.5,19.755,19.755,0,0,1,20,0Z" stroke="none"/>
      <path d="M 20 2 C 15.1824893951416 2 10.6558895111084 3.826629638671875 7.254058837890625 7.14341926574707 C 3.865928649902344 10.44684982299805 2 14.83517074584961 2 19.5 C 2 24.16482925415039 3.865928649902344 28.55315017700195 7.254058837890625 31.8565788269043 C 10.6558895111084 35.17337036132812 15.1824893951416 37 20 37 C 24.81750869750977 37 29.34410858154297 35.17337036132812 32.74594116210938 31.8565788269043 C 36.13407135009766 28.55315017700195 38 24.16482925415039 38 19.5 C 38 14.83517074584961 36.13407135009766 10.44684982299805 32.74594116210938 7.14341926574707 C 29.34410858154297 3.826629638671875 24.81750869750977 2 20 2 M 20 0 C 31.04570007324219 0 40 8.730449676513672 40 19.5 C 40 30.26955032348633 31.04570007324219 39 20 39 C 8.954299926757812 39 0 30.26955032348633 0 19.5 C 0 8.730449676513672 8.954299926757812 0 20 0 Z" stroke="none" fill="#082143"/>
    </g>
    <path id="Trazado_187518" data-name="Trazado 187518" d="M3.07-6.687h1.2a1.7,1.7,0,0,0,1.273-.43,1.574,1.574,0,0,0,.414-1.141,1.392,1.392,0,0,0-.41-1.07,1.59,1.59,0,0,0-1.129-.383,1.666,1.666,0,0,0-1.086.355A1.137,1.137,0,0,0,2.9-8.43H.641a2.777,2.777,0,0,1,.48-1.6,3.2,3.2,0,0,1,1.344-1.105,4.485,4.485,0,0,1,1.9-.4,4.253,4.253,0,0,1,2.828.863A2.945,2.945,0,0,1,8.219-8.289a2.394,2.394,0,0,1-.477,1.438,3.1,3.1,0,0,1-1.25,1.008A2.826,2.826,0,0,1,7.926-4.812,2.8,2.8,0,0,1,8.4-3.187,2.994,2.994,0,0,1,7.293-.758,4.445,4.445,0,0,1,4.367.156a4.214,4.214,0,0,1-2.785-.9A2.934,2.934,0,0,1,.5-3.117H2.758a1.308,1.308,0,0,0,.48,1.047,1.771,1.771,0,0,0,1.184.406A1.779,1.779,0,0,0,5.684-2.09a1.47,1.47,0,0,0,.457-1.129q0-1.7-1.875-1.7H3.07Zm7.219,1.094.656-5.781H17.32v1.883H12.8l-.281,2.445a3.58,3.58,0,0,1,1.711-.43,3.279,3.279,0,0,1,2.547,1.008,4.026,4.026,0,0,1,.922,2.82,4.124,4.124,0,0,1-.465,1.973A3.281,3.281,0,0,1,15.9-.324a4.158,4.158,0,0,1-2.047.48,4.416,4.416,0,0,1-1.914-.418,3.4,3.4,0,0,1-1.395-1.176A3.2,3.2,0,0,1,10-3.164h2.234a1.669,1.669,0,0,0,.5,1.105,1.573,1.573,0,0,0,1.113.395,1.388,1.388,0,0,0,1.18-.551,2.551,2.551,0,0,0,.414-1.559,2.11,2.11,0,0,0-.477-1.484,1.749,1.749,0,0,0-1.352-.516,1.954,1.954,0,0,0-1.3.422l-.219.2Zm9.055,4.484a1.137,1.137,0,0,1,.363-.875,1.289,1.289,0,0,1,.91-.336,1.3,1.3,0,0,1,.918.336,1.137,1.137,0,0,1,.363.875,1.121,1.121,0,0,1-.359.863,1.305,1.305,0,0,1-.922.332A1.294,1.294,0,0,1,19.7-.246,1.121,1.121,0,0,1,19.344-1.109Zm4.773-4.484.656-5.781h6.375v1.883H26.625l-.281,2.445a3.58,3.58,0,0,1,1.711-.43A3.279,3.279,0,0,1,30.6-6.469a4.026,4.026,0,0,1,.922,2.82,4.124,4.124,0,0,1-.465,1.973A3.281,3.281,0,0,1,29.727-.324a4.158,4.158,0,0,1-2.047.48,4.416,4.416,0,0,1-1.914-.418,3.4,3.4,0,0,1-1.395-1.176,3.2,3.2,0,0,1-.543-1.727h2.234a1.669,1.669,0,0,0,.5,1.105,1.573,1.573,0,0,0,1.113.395,1.388,1.388,0,0,0,1.18-.551,2.551,2.551,0,0,0,.414-1.559,2.11,2.11,0,0,0-.477-1.484,1.749,1.749,0,0,0-1.352-.516,1.954,1.954,0,0,0-1.3.422l-.219.2Z" transform="translate(576 7262)" fill="#12263f"/>
  </g>
</svg>
