<svg xmlns="http://www.w3.org/2000/svg" xmlns:xlink="http://www.w3.org/1999/xlink" width="293.5" height="211" viewBox="0 0 293.5 211"><defs><clipPath id="a"><rect width="29.5" height="29.5" fill="#f9a829"/></clipPath><clipPath id="b"><rect width="25.681" height="25.681" fill="#f9a829"/></clipPath><clipPath id="c"><rect width="49.555" height="51.155" fill="#f9a829"/></clipPath><clipPath id="d"><rect width="28.335" height="16.572" fill="none"/></clipPath><clipPath id="e"><rect width="27.599" height="10.169" fill="none"/></clipPath><clipPath id="f"><rect width="12.612" height="12.612" fill="#2be9d6"/></clipPath><clipPath id="g"><rect width="17.936" height="17.936" fill="#2be9d6"/></clipPath><clipPath id="h"><rect width="23.587" height="23.587" fill="#2be9d6"/></clipPath><clipPath id="i"><rect width="152.874" height="201.64" fill="none"/></clipPath><clipPath id="j"><rect width="43.98" height="46.441" fill="none"/></clipPath></defs><g transform="translate(-711 -399)"><g transform="translate(711 399.001)"><g transform="translate(0 18)"><path d="M0,0H264a25,25,0,0,1,25,25V163.883a0,0,0,0,1,0,0H25a25,25,0,0,1-25-25V0A0,0,0,0,1,0,0Z" transform="translate(289 183.883) rotate(180)" fill="#fed5c3"/><g transform="translate(244.409 -14.75)"><g clip-path="url(#a)"><path d="M.4,14.3C11.006,13.047,13.047,11.007,14.3.4a.448.448,0,0,1,.89,0C16.452,11.007,18.493,13.047,29.1,14.3a.448.448,0,0,1,0,.89c-10.611,1.258-12.652,3.3-13.909,13.909a.448.448,0,0,1-.89,0C13.047,18.493,11.006,16.452.4,15.195a.448.448,0,0,1,0-.89" transform="translate(0.001 0)" fill="#f9a829"/></g></g><g transform="translate(7 163.202)"><g transform="translate(0 0)" clip-path="url(#b)"><path d="M.344,12.453C9.581,11.358,11.358,9.582,12.453.345a.39.39,0,0,1,.775,0C14.322,9.582,16.1,11.358,25.336,12.453a.39.39,0,0,1,0,.775C16.1,14.323,14.322,16.1,13.228,25.336a.39.39,0,0,1-.775,0C11.358,16.1,9.581,14.323.344,13.228a.39.39,0,0,1,0-.775" transform="translate(0.001 0)" fill="#f9a829"/></g></g><g transform="translate(243.945 141.844)"><g clip-path="url(#c)"><path d="M41.877,66.206c4.125-.673,6.749-2.327,7.479-4.759.857-2.856-1.058-6.255-5.393-9.571A51.952,51.952,0,0,0,27.769,44.1a51.947,51.947,0,0,0-17.8-2.428C4.529,42.057,1.057,43.841.2,46.7s1.058,6.255,5.393,9.571a51.938,51.938,0,0,0,16.194,7.772,51.956,51.956,0,0,0,17.8,2.428q1.212-.085,2.292-.262M7.995,44.178q.994-.162,2.135-.243a49.678,49.678,0,0,1,16.989,2.338C40.324,50.235,48.294,57.107,47.187,60.8c-.559,1.862-3.387,3.106-7.76,3.413a49.661,49.661,0,0,1-16.989-2.338,49.655,49.655,0,0,1-15.469-7.4c-3.482-2.664-5.159-5.26-4.6-7.122.462-1.539,2.474-2.656,5.626-3.17" transform="translate(0 -28.303)" fill="#f9a829"/><path d="M58.017,51.905c2.943-.48,5.16-3.691,6.243-9.039a51.953,51.953,0,0,0-.1-17.962A51.948,51.948,0,0,0,58.543,7.84C55.815,3.113,52.693.774,49.75,1.255s-5.16,3.69-6.243,9.039a51.957,51.957,0,0,0,.1,17.963,51.954,51.954,0,0,0,5.611,17.063c2.727,4.727,5.85,7.066,8.793,6.586m-7.9-48.416c3.8-.62,9.584,8.171,11.8,21.779s-.466,23.782-4.268,24.4-9.584-8.171-11.8-21.779.467-23.782,4.268-24.4" transform="translate(-29.106 -0.812)" fill="#f9a829"/><path d="M18.62,60.985q1.079-.176,2.256-.481a51.95,51.95,0,0,0,16.1-7.961A51.943,51.943,0,0,0,49.861,40.026c3.055-4.522,3.79-8.353,2.07-10.789s-5.577-3.024-10.86-1.654a51.948,51.948,0,0,0-16.1,7.96A51.948,51.948,0,0,0,12.086,48.062c-3.055,4.522-3.79,8.353-2.07,10.789,1.465,2.074,4.479,2.807,8.6,2.134M43.741,29.327c3.152-.514,5.414-.1,6.341,1.217,2.222,3.145-3.149,12.194-14.41,20.15a49.666,49.666,0,0,1-15.364,7.618c-4.244,1.1-7.321.819-8.443-.768s-.358-4.582,2.1-8.215A49.673,49.673,0,0,1,26.275,37.394a49.668,49.668,0,0,1,15.364-7.618c.737-.191,1.439-.341,2.1-.449" transform="translate(-6.196 -18.276)" fill="#f9a829"/><path d="M59.985,69.556A5.626,5.626,0,1,0,64.631,63.1a5.626,5.626,0,0,0-4.646,6.459" transform="translate(-40.763 -42.881)" fill="#f9a829"/><path d="M73.623,3.8A3.276,3.276,0,1,0,76.328.042,3.275,3.275,0,0,0,73.623,3.8" transform="translate(-50.064 0.001)" fill="#f9a829"/><path d="M3.65,106.789a3.306,3.306,0,1,0,2.73-3.795,3.306,3.306,0,0,0-2.73,3.795" transform="translate(-2.454 -70.048)" fill="#f9a829"/><path d="M129.828,74.384a3.306,3.306,0,1,0,2.73-3.795,3.305,3.305,0,0,0-2.73,3.795" transform="translate(-88.306 -48)" fill="#f9a829"/></g></g></g><g transform="translate(10.63 -0.001)"><path d="M54.9,64.767l2.393,7.089a3.678,3.678,0,0,1-1.322,4.155A54.767,54.767,0,0,1,50.8,79.3l.984,2.9,31.048,91.516a14.388,14.388,0,0,1-8.982,18.241c-.231.079-.471.149-.71.22a14.384,14.384,0,0,1-17.559-9.218L26.027,95.871l-2.579-7.606a46.183,46.183,0,0,1-6.41.242,3.681,3.681,0,0,1-3.356-2.5l-2.22-6.583c-.759-2.248,8.354-7.345,20.349-11.4s22.323-5.5,23.086-3.262" transform="translate(-2.272 -12.678)" fill="#fff"/><g transform="translate(21.176 66.622)" style="mix-blend-mode:multiply;isolation:isolate"><g transform="translate(0 0)"><g clip-path="url(#d)"><path d="M53.787,83.172l.984,2.9c-3.335,4.065-17.2,10.8-25.755,13.674l-2.579-7.606a72.985,72.985,0,0,0,27.35-8.966" transform="translate(-26.437 -83.172)" fill="#d9e5f9"/></g></g></g><path d="M64.262,125.042l20.213,59.486A9.906,9.906,0,0,1,65.716,190.9L45.5,131.415a30.683,30.683,0,0,1,3.667-2.636,25.924,25.924,0,0,1,15.091-3.738" transform="translate(-9.055 -24.876)" fill="#fed5c3"/><path d="M67.082,180.653a4.258,4.258,0,1,0,1.794-5.749,4.258,4.258,0,0,0-1.794,5.749" transform="translate(-13.252 -34.707)" fill="#a82c3b"/><path d="M51.917,146.1a4.258,4.258,0,1,0,1.794-5.749,4.258,4.258,0,0,0-1.794,5.749" transform="translate(-10.234 -27.832)" fill="#a82c3b"/><path d="M81.8,199.28a2.65,2.65,0,1,0,1.117-3.576A2.648,2.648,0,0,0,81.8,199.28" transform="translate(-16.218 -38.883)" fill="#a82c3b"/><path d="M70.106,162.471a2.65,2.65,0,1,0,1.117-3.576,2.649,2.649,0,0,0-1.117,3.576" transform="translate(-13.891 -31.558)" fill="#a82c3b"/><path d="M64.262,125.042A21.655,21.655,0,0,1,45.5,131.415a26.4,26.4,0,0,1,18.758-6.374" transform="translate(-9.055 -24.876)" fill="#a82c3b"/><g transform="translate(16.828 53.503)" style="mix-blend-mode:multiply;isolation:isolate"><g clip-path="url(#e)"><path d="M48.59,67.229c.382,1.134-5.477,4.135-13.089,6.7s-14.092,3.73-14.475,2.6,5.477-4.136,13.089-6.7,14.092-3.73,14.475-2.6" transform="translate(-21.008 -66.794)" fill="#c9d6f7"/></g></g><g transform="translate(32.118 30.653)" style="isolation:isolate"><g transform="translate(0 0)"><g clip-path="url(#f)"><path d="M52.372,42.546a6.3,6.3,0,1,1-8-3.942,6.3,6.3,0,0,1,8,3.942" transform="translate(-40.097 -38.268)" fill="#2be9d6"/></g></g></g><g transform="translate(13.286 0)" style="isolation:isolate"><g transform="translate(0 0)"><g clip-path="url(#g)"><path d="M34.044,6.083A8.966,8.966,0,1,1,22.671.479a8.965,8.965,0,0,1,11.373,5.6" transform="translate(-16.587 0)" fill="#2be9d6"/></g></g></g><g transform="translate(0 27.556)" clip-path="url(#h)"><path d="M22.958,42.4A11.791,11.791,0,1,1,8,35.032,11.791,11.791,0,0,1,22.958,42.4" transform="translate(0 -34.401)" fill="#2be9d6"/></g></g></g><g transform="translate(789.208 399)"><g transform="translate(0 0)"><g clip-path="url(#i)"><path d="M483.2,110.235s-2.917-1.227-3.326-.535,3.461,3.461,3.461,3.461Z" transform="translate(-383.344 -87.469)" fill="#c74d4d"/><path d="M183.362,768.821h53.866l-4.27-58.859H188.912Z" transform="translate(-146.486 -567.182)" fill="#273c4f"/><path d="M317.406,839.465l.324-41.076,3.99,41.076Z" transform="translate(-253.573 -637.825)" fill="#1f2e3d"/><path d="M251.989,712.307l-45.019,6.168.8-8.514h44.046Z" transform="translate(-165.347 -567.181)" fill="#1f2e3d"/><path d="M254.055,709.961l-3.671,58.859h10.979V709.961Z" transform="translate(-200.029 -567.181)" fill="#1f2e3d"/><path d="M321.524,725.133l-.123-.187a12.493,12.493,0,0,0,2.034-1.773,8.983,8.983,0,0,0,1.391-1.938,5.188,5.188,0,0,0,.627-2.383v-8.892h.224v8.892a5.411,5.411,0,0,1-.654,2.488,9.208,9.208,0,0,1-1.428,1.988A12.716,12.716,0,0,1,321.524,725.133Z" transform="translate(-256.764 -567.181)" fill="#3e6386"/><path d="M316.952,768.822l-.224,0,.324-41.09,0-.013c0-.018.469-1.826.927-4.9.269-1.808.483-3.695.637-5.607.192-2.39.29-4.827.29-7.244h.224c0,2.424-.1,4.868-.291,7.265-.154,1.918-.369,3.81-.639,5.623-.439,2.949-.884,4.737-.928,4.91Z" transform="translate(-253.032 -567.182)" fill="#3e6386"/><path d="M-.024.423-.041.2,10.217-.555l.016.223Z" transform="translate(59.248 168.982)" fill="#3e6386"/><path d="M217.182,312.172l6.45-5.646,17.313-.944,7.814,6.59,5.522,76.127-44.355.816Z" transform="translate(-167.708 -244.126)" fill="#5284b6"/><path d="M268.019,392.651l7.433-.137v-13.09l-5.409-69.148-.48,57.633Z" transform="translate(-214.118 -247.877)" fill="#3e6386"/><path d="M366.01,193.614c-2.353-.129-9.409.566-9.409.566l-1.9,68.949,3.828,71.235H391.35l-11.831-70.375,4.279-39.624s13.341,6.293,26.178,11.579,19.382,1.51,22.4-2.517,9.028-14.119-5.286-32.657c-7.048-9.127-27.353-34.634-27.353-34.634l-12.082,6.651L399.4,203.892l-1.174.671s-13.425-5.685-18.962-8.044a36.042,36.042,0,0,0-13.257-2.905" transform="translate(-283.365 -132.724)" fill="#faefdf"/><path d="M525.465,191c13.084-8.9,5.2-24.863,5.2-24.863l-12.082,6.651Z" transform="translate(-414.294 -132.723)" fill="#dbcab0"/><path d="M356.6,305.582l-1.9,68.949,2.407,44.789,9.328-54.358-7.907-19.881,10.841-13.509Z" transform="translate(-283.365 -244.126)" fill="#dbcab0"/><path d="M356.6,305.582l-1.9,68.949,2.407,44.789,8.077-61.635-6.656-12.6,9.913-17.945Z" transform="translate(-283.365 -244.126)" fill="#fff"/><g transform="translate(65.991 92.312)" opacity="0.21"><g clip-path="url(#j)"><path d="M362.033,505.455h-33.9l10.08-46.441h33.9Z" transform="translate(-328.133 -459.014)"/></g></g><path d="M101.919,310.276l2.032,71.026-3.587,68.214H57.573l13.341-58.859,18-79.645Z" transform="translate(-45.995 -247.877)" fill="#faefdf"/><path d="M111.67,471.173l-4.552-.3L96.252,518.956,89.29,549.673l39.488-30.338.512-9.734-.566-19.776L107.516,493.7Z" transform="translate(-71.333 -376.176)" fill="#dbcab0"/><path d="M231.6,310.276l-11.7,24.388,10.141,15.426-7.885,13.431,9.245,60.242,2.233-42.461Z" transform="translate(-175.672 -247.877)" fill="#dbcab0"/><path d="M236.241,310.276l-10.532,19.676,8.972,20.137-5.616,9.565,6.976,64.108,2.233-42.461Z" transform="translate(-180.316 -247.877)" fill="#fff"/><path d="M236.241,310.276l-10.532,19.676,8.972,20.137-5.616,9.565,6.976,64.108,2.233-42.461Z" transform="translate(-180.316 -247.877)" fill="#fff"/><path d="M50.831,98.81l-6.925-5.89a18.445,18.445,0,1,0-2.532,5.023Z" transform="translate(-6.362 -54.995)" fill="#31313c"/><path d="M95.094,205.844a1.966,1.966,0,1,1-1.892-1.432,1.711,1.711,0,0,1,1.892,1.432" transform="translate(-72.947 -163.303)" fill="#1f2e3d"/><path d="M80.56,120.9a6.782,6.782,0,1,0-12.266,3.985,10.9,10.9,0,0,1,2.069,4.862l.017.118h6.8l.016-.109a9.728,9.728,0,0,1,1.918-4.67,6.74,6.74,0,0,0,1.45-4.186" transform="translate(-53.523 -91.169)" fill="#e1b142"/><path d="M89.234,195.283H83.158a.618.618,0,0,1-.618-.618v-3.089a.618.618,0,0,1,.618-.618h6.076a.618.618,0,0,1,.618.618v3.089a.618.618,0,0,1-.618.618" transform="translate(-65.94 -152.554)" fill="#5284b6"/><path d="M92.173,147.417l-.441-.076a23.272,23.272,0,0,0,.179-3.081,13.7,13.7,0,0,0-.088-1.694c-.078-.591-.183-.741-.214-.773a.691.691,0,0,0-.418.285,3.019,3.019,0,0,0-.462.887l-.248.7-.18-.724a2.651,2.651,0,0,0-.365-.878.414.414,0,0,0-.779,0,2.653,2.653,0,0,0-.365.878l-.18.724-.248-.7a3.02,3.02,0,0,0-.462-.887.691.691,0,0,0-.418-.285c-.03.032-.136.182-.214.773a13.705,13.705,0,0,0-.088,1.694,23.272,23.272,0,0,0,.179,3.081l-.441.076a23.223,23.223,0,0,1-.186-3.037,15.663,15.663,0,0,1,.074-1.729,2.268,2.268,0,0,1,.329-1.143.419.419,0,0,1,.327-.164c.4,0,.777.326,1.082.912.247-.587.6-.912,1-.912s.753.325,1,.912c.3-.586.685-.912,1.082-.912a.419.419,0,0,1,.327.164,2.268,2.268,0,0,1,.329,1.143,15.661,15.661,0,0,1,.074,1.729A23.225,23.225,0,0,1,92.173,147.417Z" transform="translate(-69.291 -112.919)" fill="#fff"/><rect width="7.311" height="0.189" transform="translate(16.6 39.096)" fill="#1f2e3d"/><rect width="7.311" height="0.189" transform="translate(16.6 40.04)" fill="#1f2e3d"/><rect width="7.311" height="0.189" transform="translate(16.6 40.984)" fill="#1f2e3d"/><rect width="7.311" height="0.189" transform="translate(16.6 41.928)" fill="#1f2e3d"/><path d="M-.665,3.818h-.447V0h.447Z" transform="translate(21.144 18.015)" fill="#dc9a3f"/><path d="M.945,2.974-.963-.333l.388-.224L1.333,2.75Z" transform="translate(15.005 20.076)" fill="#dc9a3f"/><path d="M2.75,1.333-.556-.576l.224-.388L2.974.945Z" transform="translate(10.276 24.811)" fill="#dc9a3f"/><path d="M2.75,1.333-.556-.576l.224-.388L2.974.945Z" transform="translate(27.812 34.936)" fill="#dc9a3f"/><path d="M3.818-.665H0v-.447H3.818Z" transform="translate(8.222 30.951)" fill="#dc9a3f"/><path d="M3.818-.665H0v-.447H3.818Z" transform="translate(28.471 30.951)" fill="#dc9a3f"/><path d="M-.333,1.333-.556.945,2.75-.963l.224.388Z" transform="translate(10.283 34.943)" fill="#dc9a3f"/><path d="M-.333,1.333-.556.945,2.75-.963l.224.388Z" transform="translate(27.819 24.818)" fill="#dc9a3f"/><path d="M-.576,2.974-.963,2.75.945-.556l.388.224Z" transform="translate(25.143 20.088)" fill="#dc9a3f"/><path d="M5.528,14.176-.513-.129l.206-.087L5.735,14.089Z" transform="translate(116.449 71.341)" fill="#867d6d"/><path d="M499.4,405.682s9.56,4.509,20.282,9.1h0L500.78,393.1Z" transform="translate(-398.963 -314.041)" fill="#dbcab0"/><path d="M-.3,12.663-.556-.007l.224,0,.252,12.669Z" transform="translate(115.309 71.848)" fill="#867d6d"/><path d="M-.331,12.478l-.222-.025L.843-.062l.222.025Z" transform="translate(101.409 74.322)" fill="#867d6d"/><path d="M-.3,11.109l-.2-.091L4.468-.225l.2.091Z" transform="translate(102.071 77.221)" fill="#867d6d"/><path d="M398.763,867.719h16.6v.112a11.058,11.058,0,0,1-.129,1.467,12.761,12.761,0,0,1-.9,3.221,8.031,8.031,0,0,1-2.465,3.236,8.556,8.556,0,0,1-9.6,0,8.032,8.032,0,0,1-2.465-3.236,12.764,12.764,0,0,1-.9-3.221,11.074,11.074,0,0,1-.129-1.467Zm16.371.224H398.99a11.981,11.981,0,0,0,.125,1.33,12.528,12.528,0,0,0,.889,3.163,7.807,7.807,0,0,0,2.4,3.144,6.755,6.755,0,0,0,2,1.033,9.238,9.238,0,0,0,5.331,0,6.753,6.753,0,0,0,2-1.033,7.807,7.807,0,0,0,2.4-3.144,12.528,12.528,0,0,0,.889-3.163A11.981,11.981,0,0,0,415.135,867.942Z" transform="translate(-318.569 -693.212)" fill="#867d6d"/><path d="M131.615,867.719h16.6v.112a11.063,11.063,0,0,1-.129,1.467,12.761,12.761,0,0,1-.9,3.221,8.031,8.031,0,0,1-2.465,3.236,7.765,7.765,0,0,1-4.8,1.474h0a7.764,7.764,0,0,1-4.8-1.474,8.032,8.032,0,0,1-2.465-3.236,12.76,12.76,0,0,1-.9-3.221,11.062,11.062,0,0,1-.129-1.467Zm16.371.224H131.841a11.992,11.992,0,0,0,.125,1.33,12.526,12.526,0,0,0,.889,3.163,7.807,7.807,0,0,0,2.4,3.144,6.755,6.755,0,0,0,2,1.033,9.237,9.237,0,0,0,5.333,0,6.749,6.749,0,0,0,2-1.035,7.809,7.809,0,0,0,2.4-3.148,12.532,12.532,0,0,0,.887-3.163A11.953,11.953,0,0,0,147.986,867.942Z" transform="translate(-105.146 -693.212)" fill="#867d6d"/><path d="M196.994,447.351l-.179-.135c1.876-2.489,3.159-4.463,3.905-5.681.807-1.317,1.175-2.054,1.179-2.062l.2.1c0,.007-.376.753-1.188,2.079C200.163,442.874,198.876,444.854,196.994,447.351Z" transform="translate(-157.234 -351.091)" fill="#867d6d"/><path d="M-.178,3.245-.3,3.056,5.265-.47l.12.189Z" transform="translate(40.575 93.462)" fill="#867d6d"/><path d="M459.8,105.527V99a1.151,1.151,0,0,1,.578-1.019c.32-.173.5-.371.5-.581,0-.684-1.906-1.238-4.258-1.238s-4.258.554-4.258,1.238c0,.21.182.408.5.581A1.151,1.151,0,0,1,453.444,99v6.525a2.236,2.236,0,0,1-1.481,2.095,13.543,13.543,0,1,0,9.286-.011,2.213,2.213,0,0,1-1.449-2.082" transform="translate(-353.972 -76.823)" fill="#faefdf"/><path d="M477.626,114.422a13.477,13.477,0,0,0-2.424,1.187c3.15-1.7,12.978-1.947,17.661,3.087a13.569,13.569,0,0,0-5.951-4.285,2.212,2.212,0,0,1-1.45-2.082V105.8a1.151,1.151,0,0,1,.578-1.019,1.825,1.825,0,0,0,.17-.107c-1.88,1.075-5.116,1.15-7.682.107a1.151,1.151,0,0,1,.578,1.019v6.525a2.236,2.236,0,0,1-1.481,2.095" transform="translate(-379.635 -83.625)" fill="#abc6db"/><path d="M502.12,100.593a13.2,13.2,0,0,1-5.585,0,13.195,13.195,0,0,1,5.585,0" transform="translate(-396.677 -80.124)" fill="#5284b6"/><path d="M496.594,118.243a2.648,2.648,0,0,0-2.255-.283c-1.577.521-4.205,1.338-4.489,1.1-.409-.346,3.31-2.517,3.31-2.517s-6.231,1.1-6.816.47,6.117-2.547,6.117-2.547a24.65,24.65,0,0,0-5.695-1.07c-2.122.031-1.657-1.559-.223-1.716a47.732,47.732,0,0,1,6.2.458s-6.513-2.3-6.261-3.43,5.821.818,7.677,1.73c0,0,4.657,2.734,5.365,9.674Z" transform="translate(-387.718 -86.569)" fill="#df6969"/><path d="M280.214,119.456a38.538,38.538,0,0,1,6.472.252A9.315,9.315,0,0,1,294.174,126c.755,2.58.378,5.9-1.573,9.462s-1.258,5.83.944,9.291,4.657,9.313-4.909,9.313h-12.9L263.465,144.5l2.459-17.809Z" transform="translate(-210.48 -95.4)" fill="#273c4f"/><path d="M376.42,265.957a5.174,5.174,0,0,0,.351-5.095,7.513,7.513,0,0,0-.769-1.389l-.367.256a7.054,7.054,0,0,1,.724,1.306,4.638,4.638,0,0,1-.513,4.921Z" transform="translate(-300.091 -207.29)" fill="#1f2e3d"/><path d="M391.041,232.234c.223-.065.431-.136.626-.214a4.535,4.535,0,0,0,.369-1.119,6.239,6.239,0,0,0-1.177-4.7l-.239-.341c-1.762-2.519-3.426-4.9-3.308-8.017l-.448-.017c-.123,3.27,1.583,5.709,3.389,8.291l.238.341a5.8,5.8,0,0,1,1.1,4.361,4.016,4.016,0,0,1-.555,1.416" transform="translate(-309.057 -174.019)" fill="#1f2e3d"/><path d="M387.92,262.261q.3-.008.587-.023a4.422,4.422,0,0,0,.741-1.75,6.237,6.237,0,0,0-1.177-4.7l-.647-.928-.368.255.648.928a5.8,5.8,0,0,1,1.1,4.361,3.925,3.925,0,0,1-.889,1.856" transform="translate(-309.216 -203.605)" fill="#1f2e3d"/><path d="M283.73,133.991a6.621,6.621,0,0,1,6.017,3.484,20.157,20.157,0,0,1,2.266,5.605,13.145,13.145,0,0,1,2.449,10.059c-1.076,5.627-5.006,6.841-7.172,6.757l-.8,7.011a1.419,1.419,0,0,0,1.4,1.58l1.3.009s-.675,8.139-8.277,8.139-8.959-4.329-9.036-7.2l.73-.041a.566.566,0,0,0,.532-.517l1.094-12.978-3.916-7.522,9.828-11.674Z" transform="translate(-215.956 -107.04)" fill="#df6969"/><path d="M4.5,1-.152-.32l.061-.215L4.566.786Z" transform="translate(58.078 63.562)" fill="#922a23"/><path d="M322.64,245.407c-3.329-.062-6.14-1.206-8.069-4.383,0,0-.212,7.127,7.655,8.01Z" transform="translate(-251.307 -192.552)" fill="#c74d4d"/><path d="M325.321,166.165a2.828,2.828,0,0,1,1.938.839,4.125,4.125,0,0,1,1.145,2.13,4.03,4.03,0,0,1-.31,2.643,2.943,2.943,0,0,1-.745.944,2.419,2.419,0,0,1-1.055.511,2.388,2.388,0,0,1-.485.05,2.829,2.829,0,0,1-1.938-.839,4.124,4.124,0,0,1-1.144-2.13,4.03,4.03,0,0,1,.31-2.643,2.945,2.945,0,0,1,.745-.944,2.419,2.419,0,0,1,1.055-.511A2.387,2.387,0,0,1,325.321,166.165Zm.488,6.892a2.165,2.165,0,0,0,.439-.045,2.418,2.418,0,0,0,1.646-1.338,3.806,3.806,0,0,0,.29-2.5,3.9,3.9,0,0,0-1.08-2.014,2.607,2.607,0,0,0-1.783-.777,2.162,2.162,0,0,0-.439.045,2.417,2.417,0,0,0-1.646,1.338,3.806,3.806,0,0,0-.29,2.5,3.9,3.9,0,0,0,1.08,2.014A2.607,2.607,0,0,0,325.809,173.057Z" transform="translate(-257.749 -132.747)" fill="#fff"/><path d="M360.294,158.9a2.829,2.829,0,0,1,1.938.839,4.124,4.124,0,0,1,1.145,2.13,4.03,4.03,0,0,1-.31,2.643,2.945,2.945,0,0,1-.745.944,2.419,2.419,0,0,1-1.055.511,2.388,2.388,0,0,1-.485.05,2.828,2.828,0,0,1-1.938-.839,4.124,4.124,0,0,1-1.144-2.13,4.029,4.029,0,0,1,.31-2.643,2.943,2.943,0,0,1,.745-.944,2.419,2.419,0,0,1,1.055-.511A2.387,2.387,0,0,1,360.294,158.9Zm.488,6.892a2.162,2.162,0,0,0,.439-.045,2.417,2.417,0,0,0,1.646-1.338,3.806,3.806,0,0,0,.29-2.5,3.9,3.9,0,0,0-1.08-2.014,2.607,2.607,0,0,0-1.783-.777,2.164,2.164,0,0,0-.439.045c-1.444.3-2.313,2.02-1.936,3.833a3.9,3.9,0,0,0,1.08,2.014A2.606,2.606,0,0,0,360.782,165.792Z" transform="translate(-285.688 -126.943)" fill="#fff"/><path d="M-.068.013-.113-.206,1.518-.545l.046.219Z" transform="translate(70.49 35.976)" fill="#fff"/><path d="M-.155,2.572l-.1-.2L5.186-.492l.1.2Z" transform="translate(59.784 37.518)" fill="#fff"/><path d="M337.091,177.3c.183.733.005,1.409-.4,1.509s-.875-.414-1.058-1.147-.005-1.409.4-1.509.875.413,1.058,1.147" transform="translate(-268.08 -140.715)" fill="#273c4f"/><path d="M367.411,169.741c.183.733.005,1.409-.4,1.509s-.875-.414-1.058-1.147-.005-1.409.4-1.509.875.413,1.058,1.147" transform="translate(-292.302 -134.678)" fill="#273c4f"/><path d="M358.379,193.217a.211.211,0,0,1-.117-.385,7.854,7.854,0,0,0,.8-.634c.5-.456.618-.739.57-.844a.2.2,0,0,0-.126-.11,2.021,2.021,0,0,0-1.125.212.21.21,0,0,1-.276-.094l-.965-1.867a.211.211,0,0,1,.374-.193l.876,1.695c.085-.033.194-.071.315-.106a1.575,1.575,0,0,1,.945-.042.627.627,0,0,1,.364.328c.158.341-.061.778-.67,1.335a8.142,8.142,0,0,1-.851.67A.21.21,0,0,1,358.379,193.217Z" transform="translate(-285.3 -151.14)" fill="#922a23"/><path d="M337.212,213.743l8.61-1.038s-.9,5.493-4.4,5.493-4.214-4.455-4.214-4.455" transform="translate(-269.396 -169.928)" fill="#fff"/><path d="M322.129,205.739a2.265,2.265,0,1,1-2.266-2.265,2.266,2.266,0,0,1,2.266,2.265" transform="translate(-253.726 -162.553)" fill="#c74d4d"/><path d="M359.04,245.816c.053.256-.435.574-1.09.71s-1.229.039-1.282-.217.435-.574,1.09-.71,1.229-.039,1.282.217" transform="translate(-284.936 -196.157)" fill="#e69494"/><path d="M290.021,207.99a.826.826,0,0,1-.35-.068.55.55,0,0,1-.3-.364,1.415,1.415,0,0,1,.157-1.021,2.612,2.612,0,0,1,.262-.413,2.843,2.843,0,0,0-.409-.678,1.091,1.091,0,0,0-1.222-.443.673.673,0,0,0-.429.375,2.212,2.212,0,0,0-.015,1.3,5.352,5.352,0,0,0,.241.781l-.207.086a3.555,3.555,0,0,1-.222-2.256.9.9,0,0,1,.564-.494,1.314,1.314,0,0,1,1.465.517,3.019,3.019,0,0,1,.467.8l.023.062-.043.05a1.673,1.673,0,0,0-.417,1.28.331.331,0,0,0,.182.223,1.4,1.4,0,0,0,.924-.106l.09.2A2.158,2.158,0,0,1,290.021,207.99Z" transform="translate(-229.6 -163.554)" fill="#c74d4d"/><path d="M231.258,112.189s-.189,4.468-3.4,6.733a8.437,8.437,0,0,0-4.027,6.859,2.229,2.229,0,0,0-2.643-.5c-1.573.755-.944,3.461,0,5.475a2.274,2.274,0,0,0,4.153.378s1.133,3.65-.755,6.23-.44,6.545-.44,6.545H212.883c-4.908,0-8.244-.5-8.244-4.72,0-3.335,3.209-5.852,5.915-9.376s1.447-5.978,2.769-11.327c.632-2.558,2.1-7.25,6.964-9.649,5.292-2.613,10.343-3.238,12.931.461Z" transform="translate(-163.484 -85.238)" fill="#273c4f"/><path d="M216.487,217.783a7.2,7.2,0,0,1,1.679-5.179c.363-.461.756-.938,1.159-1.426,1.933-2.345,4.125-5,4.55-7.8l-.442-.067c-.407,2.677-2.557,5.285-4.453,7.585-.405.492-.8.97-1.166,1.434a7.64,7.64,0,0,0-1.771,5.513,6.432,6.432,0,0,0,1.151,2.866c.21.05.428.093.654.131a6.179,6.179,0,0,1-1.361-3.054" transform="translate(-172.557 -162.421)" fill="#1f2e3d"/><path d="M249.763,253.614a7.2,7.2,0,0,1,1.679-5.179l-.352-.277a7.638,7.638,0,0,0-1.771,5.512,6.6,6.6,0,0,0,1.432,3.247h.579a6.313,6.313,0,0,1-1.567-3.3" transform="translate(-199.141 -198.252)" fill="#1f2e3d"/><path d="M233.126,237.959a7.2,7.2,0,0,1,1.679-5.179c.364-.462.757-.939,1.161-1.429.669-.811,1.36-1.651,2-2.523l-.36-.265c-.636.863-1.323,1.7-1.989,2.5-.406.493-.8.972-1.167,1.437a7.638,7.638,0,0,0-1.771,5.512,6.6,6.6,0,0,0,1.422,3.234c.192,0,.388.007.585.009a6.308,6.308,0,0,1-1.563-3.3" transform="translate(-185.849 -182.597)" fill="#1f2e3d"/><path transform="translate(0 0)" fill="#273c4f"/><path d="M315.7,158.654l-.542-.712a6.3,6.3,0,0,1,2.126-1.07,5.974,5.974,0,0,1,1.862-.212,5.485,5.485,0,0,1,1.843.38l-.364.818h0a4.707,4.707,0,0,0-1.556-.306,5.078,5.078,0,0,0-1.569.188A5.416,5.416,0,0,0,315.7,158.654Z" transform="translate(-251.775 -125.149)" fill="#273c4f"/><path d="M449.876,193.579a12.279,12.279,0,1,0,23.532,0,1.879,1.879,0,0,0-1.8-1.333H451.679a1.879,1.879,0,0,0-1.8,1.333" transform="translate(-358.992 -153.583)" fill="#5284b6"/><path d="M497.139,203.32a1.825,1.825,0,1,1-1.825-1.825,1.825,1.825,0,0,1,1.825,1.825" transform="translate(-394.244 -160.972)" fill="#faefdf"/><path d="M486.251,232.461a.6.6,0,1,1-.6-.6.6.6,0,0,1,.6.6" transform="translate(-387.506 -185.233)" fill="#faefdf"/><path d="M519.157,235.624a2.893,2.893,0,1,1-2.893-2.893,2.893,2.893,0,0,1,2.893,2.893" transform="translate(-410.128 -185.926)" fill="#faefdf"/><path d="M372.638,498.363h-33.9l10.08-46.441h33.9Z" transform="translate(-270.614 -361.036)" fill="#dc9a3f"/><path d="M340.349,498.363h-1.611l10.08-46.441h1.611Z" transform="translate(-270.615 -361.036)" fill="#edc692"/><path d="M294.964,557.454l4.866-1.175s2.182-3.944,4.363-5.622a59.119,59.119,0,0,1,5.473-3.562l-.436,2.007a1.419,1.419,0,0,0,1.8,1.658l2.816-.858s6.278-3.608,6.87-2.853-5.7,4.615-8.889,6.209l5.513-1.838s4.556-2.944,5.311-2.105-4.866,4.284-9.649,5.96l4.951-.8s3.44-1.888,3.859-.965-5.538,3.272-8.81,3.944h3.548s2.829-1.594,3.584-1.175-3.608,3.1-6.712,3.86-11.788,1.51-11.788,1.51l-6.671,5.37Z" transform="translate(-235.644 -436.95)" fill="#df6969"/><path d="M457.633,437.465l.164-.7a.588.588,0,0,0-.573-.722h-1.939a.588.588,0,0,0-.573.454l-.228.978a1.349,1.349,0,0,1-1.314,1.043h-1.555a.457.457,0,0,0-.445.354l-.725,3.111a.365.365,0,0,0,.356.448h8.3a.457.457,0,0,0,.445-.354l.725-3.111a.365.365,0,0,0-.356-.448h-1.448a.857.857,0,0,1-.835-1.052" transform="translate(-359.848 -348.35)" fill="#273c4f"/><path d="M60.285,370.125l1.049,16.781s-20.3,9.9-32.89,14.6S3.1,403.687.419,391.437s8.223-32.977,12.921-42,14.515-33.98,29.576-35.511l-2.58,31.863-9.67,29.2Z" transform="translate(0 -250.796)" fill="#faefdf"/><path d="M-.065,3.03l-.044-.22L16.714-.546l.044.22Z" transform="translate(13.931 124.632)" fill="#867d6d"/><path d="M91.523,589.678a2.352,2.352,0,0,0-.447-.546,8.774,8.774,0,0,0-1.941-1.363,24.26,24.26,0,0,0-4.33-1.762,57.568,57.568,0,0,0-7.609-1.741l.037-.221a57.626,57.626,0,0,1,7.682,1.762,24.239,24.239,0,0,1,4.372,1.79c2.007,1.106,2.422,1.95,2.438,1.985l-.1.048Z" transform="translate(-61.671 -466.587)" fill="#867d6d"/><path d="M7.7,7.842-.393-.236l.158-.158,8.1,8.078Z" transform="translate(21.877 111.379)" fill="#867d6d"/><path d="M-.115,8.561l-.077-.21,24.2-8.873.077.21Z" transform="translate(37.029 132.437)" fill="#867d6d"/><path d="M259.284,647.927a1.169,1.169,0,1,1-1.169-1.169,1.169,1.169,0,0,1,1.169,1.169" transform="translate(-205.272 -516.689)" fill="#273c4f"/><path d="M216.421,662.144a1.169,1.169,0,1,1-1.169-1.169,1.169,1.169,0,0,1,1.169,1.169" transform="translate(-171.029 -528.047)" fill="#273c4f"/><path d="M505,70.058a1.22,1.22,0,1,1-1.22-1.22,1.22,1.22,0,0,1,1.22,1.22" transform="translate(-401.492 -54.994)" fill="#c8e6fd"/><path d="M487.245,39a2.393,2.393,0,1,1-2.393-2.393A2.393,2.393,0,0,1,487.245,39" transform="translate(-385.432 -29.246)" fill="#c8e6fd"/><path d="M513.531,3.636A3.637,3.637,0,1,1,509.894,0a3.637,3.637,0,0,1,3.637,3.637" transform="translate(-404.445 0.001)" fill="#c8e6fd"/></g></g></g></g></svg>