<svg xmlns="http://www.w3.org/2000/svg" xmlns:xlink="http://www.w3.org/1999/xlink" width="295.388" height="318.996" viewBox="0 0 295.388 318.996"><defs><clipPath id="a"><path d="M175.687-11.142S182.66.514,183.493,10.364c.556,6.582-5.91,11.847-2.4,13.384a129.916,129.916,0,1,1-164.2,184.818c-1.336-2.264-3.1-.8-5.543,0C7.7,209.757,2.887,198.133-.072,194.752c-8.142-9.3-7.68-9.931-8.106-26.331-.018-.661-15.39-24.81-15.39-25.677V107.354s11.521-16.9,23.5-28.021C2.38,77.056,45.863,42.862,48.8,40.543c2.7-2.13,5.755-4.346,8.912-6.433,3.1-2.05.674-8.488,4.156-10.362,8-4.308-8.736-16.039,0-27.43,4.407-5.746-30.7-13.638-21.026-23.811C44.366-31.2,61.355-41.843,79.829-46.1c10.012-2.306,84.3,11.713,87.611,10.836C172.973-36.729,175.687-11.142,175.687-11.142Z" transform="translate(23.568 46.354)" fill="#6b8dfc"/></clipPath><clipPath id="b"><rect width="272.517" height="375.719" fill="none"/></clipPath><clipPath id="c"><rect width="272.518" height="375.719" fill="none"/></clipPath><clipPath id="d"><rect width="17.973" height="51.017" fill="none"/></clipPath><clipPath id="e"><rect width="9.582" height="3.842" fill="none"/></clipPath><clipPath id="f"><rect width="29.966" height="55.218" fill="none"/></clipPath><clipPath id="g"><rect width="64.615" height="66.701" fill="none"/></clipPath><clipPath id="h"><rect width="58.337" height="82.176" transform="translate(0 0)" fill="none"/></clipPath></defs><g transform="translate(-179.611 -1652)"><g transform="translate(0 188.066)"><g transform="translate(-830.82 -680.712)"><path d="M129.9,0A129.9,129.9,0,1,1,0,129.9,129.9,129.9,0,0,1,129.9,0Z" transform="translate(1033.026 2203.847)" fill="#f37577"/><g transform="translate(1010.432 2144.646)" clip-path="url(#a)"><g transform="translate(4.936 -45.35)"><g clip-path="url(#b)"><g transform="translate(0 -0.001)"><g clip-path="url(#c)"><path d="M423.41,1161.617s-37.935,41.676-37.935,111.18l155.919.115s7.142-77.977-27.347-106.455Z" transform="translate(-297.916 -897.761)"/><path d="M539.98,1271.5h-.519l-156.486-.116v-.567a186.256,186.256,0,0,1,5.946-46.836A182.008,182.008,0,0,1,402,1188.912c7.53-15.17,15.758-26.032,19.057-29.656l.181-.2.269.015,90.823,4.85.144.119c7.945,6.561,14.335,16.28,18.994,28.889a150.085,150.085,0,0,1,7.816,35.394,240.464,240.464,0,0,1,.741,42.662Zm-155.868-1.251,154.827.114a241.525,241.525,0,0,0-.784-41.938,148.943,148.943,0,0,0-7.753-35.114c-4.56-12.337-10.785-21.85-18.5-28.278l-90.178-4.815c-3.38,3.78-11.379,14.439-18.719,29.237a180.889,180.889,0,0,0-12.987,34.84,185.08,185.08,0,0,0-5.9,45.954" transform="translate(-295.984 -895.782)" fill="#fff"/><path d="M635.85,437.85s-1.576,48.406,5.815,46.534-5.956,18.023-5.956,18.023L568.6,497.879v-57.91Z" transform="translate(-439.442 -338.394)" fill="#31313c"/><path d="M862.93,1514.1s-1.493,11.983,1.781,16.767,27.4,6.3,36.891,6.3c6.984,0,11.341-.037,11.341,4.922,0,5.432-15.158,3.158-22.972,3.158l-53.471-.581,2.119-30.673Z" transform="translate(-646.493 -1170.096)" fill="#f9b485"/><rect width="20.883" height="38.572" transform="translate(153.125 125.46)" fill="#f9b485"/><path d="M316.07,344.915,332.812,326.3s-.446-23.885,1.13-31.317,11.508-19.6,15.213-22.843c2.316-2.025,14.781-5.2,22.286,2.031,4.5,4.338,3.512,13.9,2.8,21.152-1.907,19.3-8.545,33.489-17.943,33.93-2.019.095-20.329,29.051-20.329,29.051Z" transform="translate(-244.276 -208.419)" fill="#f9b485"/><path d="M674.128,569.906c7.623,5.424,17-.044,20.883-2.817v-7.573l-11.383,1.311-9.5.516Z" transform="translate(-521.003 -432.424)"/><path d="M568.6,338.928c0-17.571,14.795-31.816,33.044-31.816s33.044,14.244,33.044,31.816-14.794,31.816-33.044,31.816S568.6,356.5,568.6,338.928" transform="translate(-439.442 -237.352)" fill="#f9b485"/><path d="M710.542,476.513a.307.307,0,0,1-.013-.614,12.5,12.5,0,0,0,8.323-3.264,9.466,9.466,0,0,0,2.184-3.009.307.307,0,0,1,.572.222,9.861,9.861,0,0,1-2.31,3.209,13.094,13.094,0,0,1-8.743,3.455h-.014" transform="translate(-548.908 -362.802)"/><path d="M697.112,415.1a.307.307,0,0,1-.261-.468l3.073-4.99a.307.307,0,0,1,.458-.075l4.6,3.821a.307.307,0,0,1-.392.473l-4.331-3.6-2.888,4.688a.307.307,0,0,1-.262.146" transform="translate(-538.529 -316.478)"/><path d="M751.151,397.983s4.71-17.5,19.292-6.128c0,0-5.515,12.546-19.292,6.128" transform="translate(-580.531 -299.877)" fill="#fff"/><path d="M880.49,1501.951s1.6,14.83,4.87,19.614,33.472,6.3,42.96,6.3c6.984,0,11.341-.037,11.341,4.922,0,5.432-15.158,3.158-22.972,3.158l-53.471-.581,2.12-30.673Z" transform="translate(-667.142 -1160.789)" fill="#f9b485"/><path d="M841.932,1532.6l-.768,11.115,26.774.916c-1.5-2.774-1.791-7.278-1.737-10.825Z" transform="translate(-650.098 -1184.474)" fill="#000300"/><path d="M844.015,429.726s4.863-5.677,9.049.477c5.292,7.78-5.655,14.742-10.34,12.723s1.291-13.2,1.291-13.2" transform="translate(-649.917 -330.27)" fill="#f9b485"/><path d="M856.946,457.01a.307.307,0,0,1-.247-.49,7.165,7.165,0,0,1,4.342-2.437,14.137,14.137,0,0,1,2.774-.353h0a.307.307,0,0,1,0,.614c-.048,0-4.8.064-6.626,2.54a.307.307,0,0,1-.247.125" transform="translate(-662.058 -350.667)"/><path d="M570.989,1227.673q-1.3,0-2.62-.026a117.775,117.775,0,0,1-26.763-3.33,67.687,67.687,0,0,1-16.7-6.529c-8.154-4.647-10.945-9.153-11.06-9.343a.5.5,0,0,1,.156-.676.475.475,0,0,1,.662.159c.944,1.547,4.413,5.428,10.792,9.048a66.919,66.919,0,0,0,16.456,6.405,116.957,116.957,0,0,0,26.477,3.283,115.323,115.323,0,0,0,27.5-2.591,83.118,83.118,0,0,0,18.664-6.5c7.653-3.8,12.5-8.014,13.994-9.711a.474.474,0,0,1,.679-.038.5.5,0,0,1,.037.694c-.18.2-4.521,5.077-14.232,9.909a83.962,83.962,0,0,1-18.89,6.6,114.362,114.362,0,0,1-25.148,2.65" transform="translate(-397.072 -933.373)" fill="#fff"/><path d="M424.229,1289.472q-.9,0-1.825-.051a.491.491,0,0,1,.055-.981,26.947,26.947,0,0,0,17.058-4.568,35.76,35.76,0,0,0,10.456-11.622,59.741,59.741,0,0,0,6.685-17.5.491.491,0,0,1,.967.173,60.8,60.8,0,0,1-6.793,17.8,36.752,36.752,0,0,1-10.751,11.95,27.612,27.612,0,0,1-15.854,4.8" transform="translate(-326.099 -969.427)" fill="#fff"/><path d="M942.585,1294.337a26.939,26.939,0,0,1-17.058-4.568,35.761,35.761,0,0,1-10.456-11.622,59.741,59.741,0,0,1-6.686-17.5.491.491,0,0,0-.967.173,60.8,60.8,0,0,0,6.793,17.8,36.752,36.752,0,0,0,10.75,11.949c4.677,3.187,11.324,4.8,17.175,4.8Z" transform="translate(-701.296 -973.985)" fill="#fff"/><path d="M730.7,1270.847a.491.491,0,0,1-.491-.491v-66.088a.491.491,0,0,1,.491-.491h13.267a.491.491,0,0,1,.492.491v42.889a.491.491,0,1,1-.983,0v-42.4H731.193v65.6a.491.491,0,0,1-.492.491" transform="translate(-564.346 -930.343)" fill="#fff"/><path d="M863.358,465.85a.307.307,0,0,1-.239-.114l-2.665-3.3a.307.307,0,0,1,.478-.386l2.665,3.3a.307.307,0,0,1-.239.5" transform="translate(-664.953 -357.008)"/><path d="M756.247,361.108s6.924-2.34,12.115,1c0,0-7.878-7.438-12.115-1" transform="translate(-584.469 -277.056)" fill="#31313c"/><path d="M174.432,636.407l36.42-9.552A32.141,32.141,0,0,1,250.6,663.826L219.342,838.183l-31.355,1.387,8.336-80.68s-37.229,10.57-72.634-8.508L98.657,700.239l-69.5,17.447a23.551,23.551,0,0,1-26.6-11.93h0a15.763,15.763,0,0,1,6.531-21.2l77.93-41.7A69.314,69.314,0,0,1,122.4,634.7l32.233,1.249,8.794,9.769Z" transform="translate(-0.584 -483.633)" fill="#3690d1"/><path d="M687.379,713.122l-23.585-.611s3.606,8.186,12.07,8.463,11.516-7.852,11.516-7.852" transform="translate(-513.016 -550.667)" fill="#7dbcf5"/><path d="M728.091,650.415,716.93,664.764l11.7,15.951,16.074-29.665Z" transform="translate(-554.083 -502.676)" fill="#dceaef"/><path d="M604.678,679.069l11.487-15.407-9.722-14.673L586.55,653.1Z" transform="translate(-453.318 -501.574)" fill="#dceaef"/><path d="M375.238,274.689l-3.6,2.633-68.414,4.666a4.294,4.294,0,0,1-.585-8.568l68.415-4.665,3.528,1.52a2.232,2.232,0,0,0,.42,4.425q.118,0,.232-.011" transform="translate(-230.807 -207.708)" fill="#ff1300"/><path d="M436.585,250.959l.075-1.529a6.341,6.341,0,0,1,8.039-7.062c4.967,1.448,12.3,3.494,17.025,4.394a4.524,4.524,0,0,1,3.63,5.047,4.824,4.824,0,0,1-5.032,4.178L443.378,250.5Z" transform="translate(-337.417 -187.118)" fill="#f9b485"/><path d="M437.041,298.047c5.957.375,7.447,6.4,7.748,10.7a4.5,4.5,0,0,0,9-.424,30.312,30.312,0,0,0-7.563-19.517c-4.486-5.032-9.212-6.012-12.736-5.781a10.332,10.332,0,0,0-7.513,4.055l-4.879,6.378Z" transform="translate(-325.444 -218.71)" fill="#f9b485"/><path d="M442.866,349.382q-.149,0-.3-.009a4.933,4.933,0,0,1-4.517-4.956,16.822,16.822,0,0,0-1.29-6.92,6.752,6.752,0,0,0-5.5-4.154.307.307,0,1,1,.079-.609,7.334,7.334,0,0,1,5.978,4.5,17.425,17.425,0,0,1,1.347,7.175,4.317,4.317,0,0,0,3.941,4.347,4.066,4.066,0,0,0,3.011-1.066,4.4,4.4,0,0,0,1.438-3.142,30.99,30.99,0,0,0-6.253-20.137c-4.091-5.316-8.664-6.51-11.779-6.575a13.714,13.714,0,0,0-5.826,1.131.307.307,0,0,1-.274-.55,14.167,14.167,0,0,1,6.113-1.2c3.25.068,8.014,1.306,12.253,6.815a31.6,31.6,0,0,1,6.38,20.533,5.012,5.012,0,0,1-1.639,3.576,4.681,4.681,0,0,1-3.163,1.234" transform="translate(-326.725 -245.166)"/><path d="M448.246,312.3a4.881,4.881,0,0,1-4.81-4.574.307.307,0,1,1,.613-.043,4.266,4.266,0,0,0,4.2,4h0a4.117,4.117,0,0,0,2.97-1.264,4.284,4.284,0,0,0,1.21-3.133,30,30,0,0,0-7.485-19.321c-4.523-5.073-9.287-5.889-12.487-5.679a10.017,10.017,0,0,0-7.289,3.935l-4.879,6.378a.307.307,0,1,1-.488-.374l4.879-6.378a10.631,10.631,0,0,1,7.737-4.175c3.337-.217,8.3.626,12.985,5.883a30.607,30.607,0,0,1,7.641,19.712,4.893,4.893,0,0,1-1.384,3.578,4.725,4.725,0,0,1-3.41,1.45Z" transform="translate(-324.398 -217.668)"/><path d="M509.6,368.4a31.3,31.3,0,0,0-6.317-20.335Z" transform="translate(-388.965 -269.001)" fill="#f9b485"/><path d="M442.866,349.382q-.149,0-.3-.009a4.933,4.933,0,0,1-4.517-4.956,16.822,16.822,0,0,0-1.29-6.92,6.752,6.752,0,0,0-5.5-4.154.307.307,0,1,1,.079-.609,7.334,7.334,0,0,1,5.978,4.5,17.425,17.425,0,0,1,1.347,7.175,4.317,4.317,0,0,0,3.941,4.347,4.066,4.066,0,0,0,3.011-1.066,4.4,4.4,0,0,0,1.438-3.142,30.99,30.99,0,0,0-6.253-20.137c-4.091-5.316-8.664-6.51-11.779-6.575a13.714,13.714,0,0,0-5.826,1.131.307.307,0,0,1-.274-.55,14.167,14.167,0,0,1,6.113-1.2c3.25.068,8.014,1.306,12.253,6.815a31.6,31.6,0,0,1,6.38,20.533,5.012,5.012,0,0,1-1.639,3.576,4.681,4.681,0,0,1-3.163,1.234" transform="translate(-326.725 -245.166)"/><path d="M408.043,374.11c5.641.7,6.7,6.42,6.723,10.452a4.29,4.29,0,0,0,8.577.135,28.039,28.039,0,0,0-6.017-18.683c-7.68-9.627-17.132-5.082-17.132-5.082Z" transform="translate(-309.291 -278.119)" fill="#f9b485"/><path d="M857.421,969.022a.493.493,0,0,1-.487-.564l10.815-73.079a.491.491,0,1,1,.972.144L857.906,968.6a.492.492,0,0,1-.486.42" transform="translate(-662.281 -691.674)"/><path d="M418.017,388.106c-.1,0-.191,0-.287-.009a4.621,4.621,0,0,1-4.317-4.578,14.945,14.945,0,0,0-1.226-6.344,6.394,6.394,0,0,0-5.227-3.806.307.307,0,1,1,.076-.609,6.976,6.976,0,0,1,5.705,4.149,15.546,15.546,0,0,1,1.287,6.606,4,4,0,0,0,3.74,3.969,3.985,3.985,0,0,0,4.223-3.843,27.729,27.729,0,0,0-5.95-18.481c-3.893-4.88-8.246-5.976-11.213-6.036a13.482,13.482,0,0,0-5.547,1.039.307.307,0,1,1-.266-.553,13.951,13.951,0,0,1,5.825-1.1c3.1.063,7.639,1.2,11.68,6.267a28.338,28.338,0,0,1,6.084,18.885,4.6,4.6,0,0,1-4.587,4.443" transform="translate(-308.246 -277.074)"/><path d="M879.7,899.773a.49.49,0,0,1-.378-.177l-6.11-7.344a.491.491,0,0,1,.755-.629l6.111,7.344a.491.491,0,0,1-.378.806" transform="translate(-674.777 -688.958)"/><path d="M921.485,712.517a.485.485,0,0,1-.206-.045.491.491,0,0,1-.24-.652,73.364,73.364,0,0,1,8.492-13.223,71.776,71.776,0,0,1,10.737-10.957,55.514,55.514,0,0,1,15.207-8.934.491.491,0,0,1,.351.918A54.5,54.5,0,0,0,940.9,688.39a70.772,70.772,0,0,0-10.585,10.8,72.431,72.431,0,0,0-8.387,13.045.49.49,0,0,1-.446.285" transform="translate(-711.794 -524.515)"/><path d="M410.82,748.878a.491.491,0,0,1-.487-.43l-2.827-22.278a.491.491,0,1,1,.975-.124l2.827,22.278a.492.492,0,0,1-.426.549.482.482,0,0,1-.062,0" transform="translate(-314.94 -560.795)"/><path d="M749.664,1246.24c-1.93,0-3.5-1.917-3.5-4.275s1.57-4.274,3.5-4.274,3.5,1.917,3.5,4.274-1.57,4.275-3.5,4.275m0-7.566c-1.388,0-2.518,1.477-2.518,3.292s1.13,3.292,2.518,3.292,2.518-1.477,2.518-3.292-1.13-3.292-2.518-3.292" transform="translate(-576.676 -956.555)" fill="#fff"/><path d="M340.024,599.176c.85-1.332,2.165-3.385,3.721-5.782l-21.073-9.961-2.682,2.982Z" transform="translate(-247.306 -450.908)"/><path d="M96.333,598.526,70.277,581.87,4.891,651.543a18.014,18.014,0,0,0,8.674,29.78l15.194-.34Z" transform="translate(0 -449.7)" fill="#3690d1"/><path d="M611.35,397.983s-4.71-17.5-19.292-6.128c0,0,5.516,12.546,19.292,6.128" transform="translate(-457.575 -299.877)" fill="#fff"/><path d="M628.1,358.755s-6.825-2.614-12.146.518c0,0,8.168-7.118,12.146-.518" transform="translate(-476.041 -275.097)" fill="#31313c"/><path d="M756.644,394.834a7.422,7.422,0,0,0,6.994,4.94c.079,0,.157,0,.236-.006a12.085,12.085,0,0,0,1.971-.328,7.427,7.427,0,0,0,4.483-10.3c-7.636-3.481-11.807,1.922-13.684,5.7" transform="translate(-584.776 -299.88)"/><path d="M611.813,399.752a7.421,7.421,0,0,0,6.762-6.1c-2.236-3.8-6.653-8.11-14.255-3.9a7.424,7.424,0,0,0,1.694,7.842,12.017,12.017,0,0,0,5.8,2.161" transform="translate(-466.688 -299.88)"/><path d="M637.5,332.209c-3.2-14.344-16.448-25.1-32.3-25.1a33.274,33.274,0,0,0-28.654,15.959l-2.607,5.524q-.414,1.162-.738,2.362c13.278-16.968,43.808-20.113,43.808-20.113,14.934,5.939,20.761,23.628,20.761,23.628Z" transform="translate(-443 -237.352)" fill="#31313c"/><path d="M608.83,272.735a4.255,4.255,0,0,0-.958-2.423l-3.613-1.557a4.275,4.275,0,0,0,.589,8.53l.024,0,3.666-2.685a4.256,4.256,0,0,0,.292-1.863" transform="translate(-463.935 -207.708)" fill="#ffa88a"/><path d="M910.746,1603.285H880.622l6.158-13.839,23.967,3.85a5.017,5.017,0,0,1,0,9.99" transform="translate(-680.593 -1228.41)" fill="#f9b485"/><path d="M631.245,277.222,629.5,278.5l-1.816,1.33q-.114.011-.232.011a2.235,2.235,0,0,1-.42-4.431l2.3.993Z" transform="translate(-483.205 -212.85)" fill="#ff1300"/><path d="M327.335,295.84c-.565.042-1.143.053-1.767.119-2.366.248-4.309-1.93-4.309-4.309a4.357,4.357,0,0,1,4.309-4.308c.43-.013.832-.038,1.225-.083a4.742,4.742,0,0,0-2.8,4.213,4.675,4.675,0,0,0,3.347,4.369" transform="translate(-248.287 -222.008)"/><g transform="translate(110.653 58.659)" style="mix-blend-mode:overlay;isolation:isolate"><g clip-path="url(#d)"><path d="M540.91,383.224c-1.792,0-3.25-1.93-3.25-4.3s1.458-4.3,3.25-4.3,3.25,1.93,3.25,4.3-1.458,4.3-3.25,4.3m0-7.992c-1.453,0-2.635,1.655-2.635,3.689s1.182,3.689,2.635,3.689,2.635-1.655,2.635-3.689-1.182-3.689-2.635-3.689" transform="translate(-526.186 -348.182)"/><path d="M489.534,457.914c-.961,0-1.774-1.375-1.774-3s.813-3,1.774-3a1.32,1.32,0,0,1,.973.509q-.026-.423-.066-.861a1.738,1.738,0,0,0-.907-.262c-1.339,0-2.388,1.589-2.388,3.617,0,1.784.812,3.227,1.918,3.549a4.334,4.334,0,0,0,.531-.549l-.061,0" transform="translate(-487.146 -407.444)"/><path d="M512.12,425.544a2.84,2.84,0,0,1,2.635-3,2.363,2.363,0,0,1,1.19.325q-.014-.346-.037-.7a2.943,2.943,0,0,0-1.153-.236,3.452,3.452,0,0,0-3.25,3.617,3.547,3.547,0,0,0,2.612,3.546,4.584,4.584,0,0,0,.6-.545,2.847,2.847,0,0,1-2.594-3" transform="translate(-505.973 -384.746)"/><path d="M531.64,259.887a5.908,5.908,0,0,1-.737,1.968c-1.062,2.013-1.572,1.876-3.808.9a2.737,2.737,0,0,1-1.414-1.764,2.678,2.678,0,0,1,.239-2.235,2.18,2.18,0,0,1,.293-.354l-.677-.162c-.046.058-.09.117-.13.179a3.288,3.288,0,0,0-.315,2.747,3.353,3.353,0,0,0,1.756,2.152,6.654,6.654,0,0,0,2.393.745c.827,0,1.464-.514,2.2-1.918a7.69,7.69,0,0,0,.737-1.833,4.507,4.507,0,0,0-.543-.422" transform="translate(-516.349 -258.238)"/></g></g><path d="M205.308,745.419a.491.491,0,0,1-.38-.8l41.8-51a.491.491,0,0,1,.76.623l-41.8,51a.49.49,0,0,1-.38.18" transform="translate(-158.294 -535.922)"/><path d="M220.292,910.22a.491.491,0,0,1-.462-.324l-2.4-6.618a.492.492,0,0,1,.924-.335l2.4,6.618a.491.491,0,0,1-.462.659" transform="translate(-168.018 -697.593)"/><path d="M954.716,1605.774a.43.43,0,0,1,0-.86c2.119,0,4.048-2.307,4.048-4.841,0-2.517-1.753-4.564-3.908-4.564a.437.437,0,0,1-.071-.006l-17.2-2.9a.43.43,0,1,1,.143-.848l17.162,2.89c2.612.023,4.731,2.447,4.731,5.424,0,3.037-2.294,5.7-4.908,5.7" transform="translate(-724.342 -1230.193)" fill="#000300"/><path d="M1130.155,1623.062a.43.43,0,0,1-.16-.829c1.233-.494,2.563-1.688,2.563-2.759,0-2.129-.81-3.294-2.708-3.9-1.872-.594-4.6-.592-8.048-.594h-.154a.43.43,0,1,1,0-.86h.154c3.522,0,6.31,0,8.309.635,2.257.719,3.308,2.217,3.308,4.718,0,1.5-1.6,2.955-3.1,3.557a.426.426,0,0,1-.16.031" transform="translate(-866.538 -1247.481)" fill="#000300"/><g transform="translate(222.695 363.576)" style="mix-blend-mode:overlay;isolation:isolate"><g clip-path="url(#e)"><path d="M982.833,1604.472a2.32,2.32,0,0,1-1.358-.45,2.278,2.278,0,0,1-1.016-2.283,1.578,1.578,0,0,1,1.524-1.083c2.69-.237,7.5,1.249,7.7,1.313a.43.43,0,0,1-.164.839,9.484,9.484,0,0,0-5.318,1.222,2.433,2.433,0,0,1-1.372.443m-.22-2.982c-.194,0-.38.007-.555.022-.439.039-.7.191-.77.452a1.477,1.477,0,0,0,.686,1.358,1.444,1.444,0,0,0,1.747,0,8.2,8.2,0,0,1,3.155-1.209,20.687,20.687,0,0,0-4.264-.62" transform="translate(-980.407 -1600.631)" fill="#000300"/></g></g><path d="M849.713,1109.185l-7.508,61.323,26.538,1.352,7.131-69.057Z" transform="translate(-650.902 -852.306)" fill="#3790d1"/></g></g></g></g></g><g transform="translate(1019.926 2311.025)"><g transform="translate(0 0)"><path d="M10.531,77.818H57.845a3.389,3.389,0,0,1,3.39,3.39L54.456,84.6H10.531a3.389,3.389,0,0,1,0-6.779" transform="translate(35.809 -29.444)" fill="#f9a829"/><path d="M0,77.316a8.99,8.99,0,1,0,8.99-8.99A8.99,8.99,0,0,0,0,77.316" transform="translate(83.504 -25.853)" fill="#ffab31"/><path d="M11.941,84.408A4.141,4.141,0,1,0,7.8,80.266a4.146,4.146,0,0,0,4.141,4.141" transform="translate(80.552 -28.803)" fill="#ff8131"/><path d="M110.5,152.889H48.328a6.715,6.715,0,0,1-6.116-9.487L70.14,81.784V62.6H88.691V81.784L116.62,143.4a6.716,6.716,0,0,1-6.117,9.487" transform="translate(-41.605 -23.687)" fill="#fff"/><path d="M146.507,103.892,130.622,79.958l-1.941,4.174,11.924,32.781Z" transform="translate(-125.016 -30.254)" fill="#fff"/><path d="M115.1,153.3,86.722,90.692V83.27H78.235v7.422L49.858,153.3a1.684,1.684,0,0,0,1.534,2.378h62.174A1.684,1.684,0,0,0,115.1,153.3" transform="translate(-44.668 -31.507)" fill="#c9d6f7"/><path d="M106.567,76.683v7.583a.8.8,0,0,1-.805.8H86.223a.8.8,0,0,1-.8-.8V76.683a.8.8,0,0,1,.8-.8h19.539a.8.8,0,0,1,.805.8" transform="translate(-58.184 -28.711)" fill="#ffab31"/><path d="M106.567,76.683v7.583a.8.8,0,0,1-.805.8H86.223a.8.8,0,0,1-.8-.8V81.9c2.9-.283,7.659-.781,12.247-1.423,7.292-1.021,8.094-4.594,8.094-4.594a.8.8,0,0,1,.805.8" transform="translate(-58.184 -28.711)" fill="#ff8131"/><path d="M90.939,140.561s3.456-3.228,9.355,1.91,10.133,7.808,15.034,5.067c0,0-.665,7.476-10.881,6.894s-13.508-13.871-13.508-13.871" transform="translate(-70.375 -52.805)" fill="#68b8d4"/><path d="M99.7,140.5l15.418,34.017a1.732,1.732,0,0,1-1.577,2.446H51.362a1.731,1.731,0,0,1-1.577-2.446L65.2,140.5s3.873,9.745,12.345,8.223c7.247-1.3,8.8-12.875,22.147-8.223" transform="translate(-44.639 -52.747)" fill="#7edeed"/><path d="M81.892,161.044A4.094,4.094,0,1,1,77.8,156.95a4.094,4.094,0,0,1,4.094,4.094" transform="translate(-26.225 -59.385)" fill="#68b8d4"/><path d="M134.983,183.039a4.094,4.094,0,1,1-4.094-4.094,4.094,4.094,0,0,1,4.094,4.094" transform="translate(-112.319 -67.708)" fill="#68b8d4"/><path d="M88.59,188.078a2.547,2.547,0,1,1-2.547-2.547,2.548,2.548,0,0,1,2.547,2.547" transform="translate(-39.01 -70.199)" fill="#68b8d4"/><path d="M130.279,157.887a2.547,2.547,0,1,1-2.547-2.547,2.548,2.548,0,0,1,2.547,2.547" transform="translate(-106.614 -58.776)" fill="#68b8d4"/><g transform="translate(7.844 65.793)" opacity="0.8" style="mix-blend-mode:screen;isolation:isolate"><g clip-path="url(#f)"><path d="M126.953,105.839,102.43,161.057H132.4s-17.631-6.329-16.32-15.391,10.877-39.827,10.877-39.827" transform="translate(-102.43 -105.839)" fill="#7edeed"/></g></g><path d="M103.426,171.688a2.547,2.547,0,1,1-2.547-2.547,2.548,2.548,0,0,1,2.547,2.547" transform="translate(-63.069 -63.998)" fill="#68b8d4"/><path d="M106.059,63.931,87.508,67.087V62.6h18.551Z" transform="translate(-58.973 -23.687)" fill="#c9d6f7"/><path d="M105.336,59.215H83.65a2.2,2.2,0,0,1-2.2-2.2v-1.17a2.2,2.2,0,0,1,2.2-2.2h21.686a2.2,2.2,0,0,1,2.2,2.2v1.17a2.2,2.2,0,0,1-2.2,2.2" transform="translate(-56.682 -20.3)" fill="#fff"/><path d="M120.157,7.989A7.989,7.989,0,1,1,112.168,0a7.989,7.989,0,0,1,7.989,7.989" transform="translate(-83.434 0)" fill="#7edeed"/><path d="M92.852,33.512a5.227,5.227,0,1,1-5.227-5.227,5.227,5.227,0,0,1,5.227,5.227" transform="translate(-42.589 -10.702)" fill="#7edeed"/><path d="M85.074,5.533A3.973,3.973,0,1,1,81.1,1.56a3.974,3.974,0,0,1,3.973,3.973" transform="translate(-31.536 -0.59)" fill="#7edeed"/></g></g><g transform="translate(1222.043 2160.382)"><g clip-path="url(#g)"><path d="M54.6,73.684c5.379-.878,8.8-3.034,9.752-6.205,1.118-3.724-1.38-8.156-7.032-12.479-5.267-4.029-12.766-7.628-21.115-10.133S19.617,41.236,13,41.7c-7.1.5-11.623,2.822-12.74,6.547S1.64,56.4,7.293,60.726c5.267,4.029,12.766,7.628,21.115,10.133S45,74.489,51.614,74.025q1.58-.111,2.989-.341M10.424,44.962q1.3-.211,2.784-.317c6.269-.439,14.136.643,22.152,3.048C52.578,52.86,62.97,61.82,61.527,66.63c-.729,2.428-4.416,4.05-10.119,4.45-6.269.44-14.136-.643-22.152-3.048S14.077,62.2,9.086,58.381c-4.54-3.473-6.726-6.858-6-9.286.6-2.006,3.225-3.463,7.335-4.133" transform="translate(0 -24.263)" fill="#dd5268"/><path d="M62.648,67.316c3.838-.626,6.728-4.812,8.14-11.786,1.316-6.5,1.267-14.818-.137-23.42s-4-16.5-7.317-22.249C59.778,3.7,55.706.647,51.869,1.273s-6.728,4.812-8.14,11.786c-1.316,6.5-1.267,14.818.137,23.421s4,16.5,7.317,22.249c3.556,6.163,7.628,9.213,11.465,8.587M52.345,4.187c4.956-.809,12.5,10.655,15.392,28.4S67.129,63.594,62.172,64.4,49.676,53.748,46.78,36,47.388,5,52.345,4.187" transform="translate(-24.951 -0.696)" fill="#7edeed"/><path d="M21.511,71.355q1.407-.229,2.942-.627c6.42-1.664,13.876-5.35,21-10.38s13.085-10.826,16.8-16.321c3.984-5.9,4.942-10.892,2.7-14.067S57.673,26.018,50.785,27.8c-6.42,1.664-13.876,5.35-21,10.38S16.7,49.01,12.992,54.505c-3.984,5.9-4.942,10.892-2.7,14.067,1.911,2.7,5.84,3.66,11.218,2.783M54.266,30.077c4.11-.67,7.06-.124,8.269,1.587,2.9,4.1-4.106,15.9-18.789,26.274C36.91,62.766,29.8,66.294,23.713,67.871c-5.533,1.434-9.546,1.068-11.008-1s-.467-5.975,2.734-10.711c3.518-5.207,9.22-10.733,16.055-15.563s13.95-8.356,20.033-9.933c.961-.249,1.877-.444,2.741-.585" transform="translate(-5.311 -15.667)" fill="#f2edfd"/><path d="M60.007,71.542a7.336,7.336,0,1,0,6.058-8.421,7.336,7.336,0,0,0-6.058,8.421" transform="translate(-34.945 -36.76)" fill="#ffab31"/><path d="M73.636,4.959a4.271,4.271,0,1,0,3.528-4.9,4.271,4.271,0,0,0-3.528,4.9" transform="translate(-42.918 0.001)" fill="#ffab31"/><path d="M3.663,107.955a4.31,4.31,0,1,0,3.56-4.948,4.311,4.311,0,0,0-3.56,4.948" transform="translate(-2.104 -60.049)" fill="#ffab31"/><path d="M129.841,75.551A4.31,4.31,0,1,0,133.4,70.6a4.31,4.31,0,0,0-3.56,4.948" transform="translate(-75.701 -41.148)" fill="#ffab31"/></g></g></g><g transform="translate(452.349 1706) rotate(-164)"><g transform="translate(0 0)" clip-path="url(#h)"><path d="M41.564,0H1.36a1.36,1.36,0,0,0,0,2.72h40.2a1.36,1.36,0,0,0,0-2.72" transform="translate(7.707 72.578)" fill="#f2edfd"/><path d="M41.564,0H1.36a1.36,1.36,0,0,0,0,2.72h40.2a1.36,1.36,0,0,0,0-2.72" transform="translate(7.707 61.141)" fill="#f2edfd"/><path d="M41.564,0H1.36a1.36,1.36,0,0,0,0,2.721h40.2a1.36,1.36,0,0,0,0-2.721" transform="translate(7.707 49.705)" fill="#f2edfd"/><path d="M41.564,0H1.36a1.36,1.36,0,0,0,0,2.721h40.2a1.36,1.36,0,0,0,0-2.721" transform="translate(7.707 26.831)" fill="#f2edfd"/><path d="M41.564,0H1.36a1.36,1.36,0,0,0,0,2.721h40.2a1.36,1.36,0,0,0,0-2.721" transform="translate(7.707 15.395)" fill="#f2edfd"/><path d="M41.564,0H1.36a1.36,1.36,0,0,0,0,2.721h40.2a1.36,1.36,0,0,0,0-2.721" transform="translate(7.707 3.959)" fill="#f2edfd"/><path d="M17.258,3.047A32.652,32.652,0,0,1,11.087,0,23.89,23.89,0,0,0,7.519,3.406C-2.552,15.2.359,34.42.486,35.232a2.947,2.947,0,0,0,5.822-.921,46.932,46.932,0,0,1-.4-6.371c0-5.936.993-14.75,6.1-20.722a17.514,17.514,0,0,1,5.246-4.171" transform="translate(0.002 44.459)" fill="#f9a829"/><path d="M27.369,2.793A35.162,35.162,0,0,0,15.575,0c-.748.055-1.51.082-2.294.082A31.01,31.01,0,0,0,0,2.757,30.536,30.536,0,0,0,11.159,6.044q1.034-.068,2.122-.068A29.759,29.759,0,0,0,27.369,2.793" transform="translate(15.51 39.018)" fill="#e65943"/><path d="M17.176,2.576A2.951,2.951,0,0,0,14.256,0a3.507,3.507,0,0,0-.376.023,2.953,2.953,0,0,0-2.553,3.3c.023.186,2.254,18.89-6.769,29.119A18.422,18.422,0,0,1,0,36.188a31.72,31.72,0,0,1,6.348,2.725A24.972,24.972,0,0,0,8.991,36.32C19.774,24.072,17.284,3.446,17.176,2.576" transform="translate(40.838 0)" fill="#f9a829"/><path d="M3.244,0A2.946,2.946,0,0,0,.325,2.573c-.111.872-2.6,21.5,8.182,33.745,5.068,5.757,12.147,8.675,21.04,8.675,7.346,0,12.994,2.254,16.79,6.7,8.324,9.748,5.719,26.9,5.692,27.075a2.947,2.947,0,1,0,5.821.923c.129-.813,3.039-20.033-7.031-31.826C45.853,42.047,38.7,39.1,29.547,39.1c-7.118,0-12.7-2.241-16.6-6.661C3.92,22.21,6.149,3.5,6.172,3.317A2.948,2.948,0,0,0,3.618.024,3.016,3.016,0,0,0,3.244,0" transform="translate(0 0.001)" fill="#f9a829"/></g></g></g></g></svg>