<svg xmlns="http://www.w3.org/2000/svg" width="92" height="92" viewBox="0 0 92 92">
  <g id="Grupo_177986" data-name="Grupo 177986" transform="translate(-1784 9521)">
    <circle id="Elipse_4904" data-name="Elipse 4904" cx="46" cy="46" r="46" transform="translate(1784 -9521)" fill="#fff"/>
    <g id="Grupo_177985" data-name="Grupo 177985" transform="translate(1683.058 -9607.69)">
      <g id="Grupo_14069" data-name="Grupo 14069" transform="translate(119.942 97.69)">
        <path id="Trazado_28275" data-name="Trazado 28275" d="M161.779,134.077a7.892,7.892,0,0,0,5.056-7.291,8.033,8.033,0,0,0-8.17-7.887,8.42,8.42,0,0,0-2.656.434c.008-.144.022-.288.022-.434a7.929,7.929,0,0,0-5.919-7.575,7.733,7.733,0,0,0,2.59-5.75,8.032,8.032,0,0,0-8.171-7.884,8.134,8.134,0,0,0-7.842,5.684,8.45,8.45,0,0,0-1.995-.246,8.031,8.031,0,0,0-8.17,7.884,7.62,7.62,0,0,0,.586,2.922c-4.039.421-7.169,3.341-7.169,6.89a6.835,6.835,0,0,0,4.079,6.008,7.38,7.38,0,0,0-2.062,5.05,7.773,7.773,0,0,0,3.912,6.555,9.3,9.3,0,1,0,17.534-.312,8.248,8.248,0,0,0,4.852-2.4c1.446,5.177,6.569,13.526,10.408,13.526a8.031,8.031,0,0,0,8.17-7.887A7.887,7.887,0,0,0,161.779,134.077Zm-12.24-7.459a8.309,8.309,0,0,0,.978-.266c-.008.145-.022.288-.022.434a7.7,7.7,0,0,0,2.142,5.309,16.654,16.654,0,0,0-2.249-.567,7.45,7.45,0,0,0-.849-4.911Z" transform="translate(-119.942 -97.69)" fill="#9d9d9c"/>
        <path id="Trazado_28276" data-name="Trazado 28276" d="M167.609,147.113a6.574,6.574,0,0,0,4.212-6.073,6.691,6.691,0,0,0-6.806-6.569,7.027,7.027,0,0,0-2.213.362c.007-.119.019-.239.019-.362a6.6,6.6,0,0,0-4.93-6.309,6.444,6.444,0,0,0,2.156-4.789,6.691,6.691,0,0,0-6.806-6.568,6.775,6.775,0,0,0-6.531,4.736,7.013,7.013,0,0,0-1.661-.206,6.69,6.69,0,0,0-6.806,6.568,6.363,6.363,0,0,0,.489,2.435c-3.364.349-5.972,2.782-5.972,5.738a5.694,5.694,0,0,0,3.4,5,6.148,6.148,0,0,0-1.718,4.207,6.474,6.474,0,0,0,3.259,5.459,7.749,7.749,0,1,0,14.6-.261,6.849,6.849,0,0,0,4.041-2c1.205,4.312,5.472,11.267,8.67,11.267a6.69,6.69,0,0,0,6.806-6.569A6.572,6.572,0,0,0,167.609,147.113Z" transform="translate(-129.794 -112.38)" fill="#ededed"/>
        <path id="Trazado_28277" data-name="Trazado 28277" d="M268.442,137.606a8.292,8.292,0,0,1,3.209-.515,8.826,8.826,0,0,1,8.052,10.7,6.825,6.825,0,0,0,.585-12.854,8.669,8.669,0,0,0,.3-1.921,8.02,8.02,0,0,0-15.835-2.318A9.035,9.035,0,0,1,268.442,137.606Z" transform="translate(-231.233 -118.198)" fill="#9d9d9c"/>
      </g>
      <g id="Grupo_14070" data-name="Grupo 14070" transform="translate(133.184 131.945)">
        <path id="Trazado_28278" data-name="Trazado 28278" d="M195.9,250.2h1.386a1.461,1.461,0,0,0,0-2.922H186.53a1.461,1.461,0,1,0,0,2.922h1.386l-9.162,30.375a1.67,1.67,0,0,0,1.67,1.67h22.963a1.671,1.671,0,0,0,1.67-1.67Z" transform="translate(-178.383 -246.91)" fill="#fff"/>
        <path id="Trazado_28279" data-name="Trazado 28279" d="M202.156,281.388H179.193a2.043,2.043,0,0,1-2.041-2.04l.016-.107,9.018-29.9H185.3a1.832,1.832,0,1,1,0-3.664H196.05c1.741,0,1.831.822,1.831,1.832a1.834,1.834,0,0,1-1.831,1.832h-.887l9.034,30A2.043,2.043,0,0,1,202.156,281.388ZM177.894,279.4a1.3,1.3,0,0,0,1.3,1.248h22.963a1.3,1.3,0,0,0,1.3-1.248l-9.289-30.8h1.884a1.091,1.091,0,0,0,0-2.182H185.3a1.091,1.091,0,1,0,0,2.182h1.884Z" transform="translate(-177.152 -245.68)" fill="#ed664b"/>
      </g>
      <path id="Trazado_28280" data-name="Trazado 28280" d="M228.552,301.154a.944.944,0,1,1-.943-.943A.943.943,0,0,1,228.552,301.154Z" transform="translate(-82.02 -155.643)" fill="#0cb0a8"/>
      <path id="Trazado_28281" data-name="Trazado 28281" d="M237.818,282.323a.665.665,0,1,1-.665-.665A.666.666,0,0,1,237.818,282.323Z" transform="translate(-89.568 -141.385)" fill="#0cb0a8"/>
      <path id="Trazado_28282" data-name="Trazado 28282" d="M232.394,263.233a.665.665,0,1,1-.665-.665A.666.666,0,0,1,232.394,263.233Z" transform="translate(-85.4 -126.713)" fill="#0cb0a8"/>
      <g id="Grupo_14071" data-name="Grupo 14071" transform="translate(136.062 148.39)">
        <path id="Trazado_28283" data-name="Trazado 28283" d="M219.31,316.725H207.86l-.9,2.817h13.245Z" transform="translate(-202.94 -316.725)" fill="#15bfb9"/>
        <path id="Trazado_28284" data-name="Trazado 28284" d="M206.852,328.893H193.608l-4.022,12.627a1.317,1.317,0,0,0,1.352,1.28h18.585a1.318,1.318,0,0,0,1.352-1.28Z" transform="translate(-189.585 -326.076)" fill="#0c9082"/>
      </g>
      <path id="Trazado_28285" data-name="Trazado 28285" d="M225.386,248.881l-.385,15.7h4.545l-.81-15.7Z" transform="translate(-80.741 -116.195)" fill="#61b5b1"/>
      <g id="Grupo_14074" data-name="Grupo 14074" transform="translate(124.594 106.326)">
        <g id="Grupo_14072" data-name="Grupo 14072" transform="translate(0)">
          <path id="Trazado_28286" data-name="Trazado 28286" d="M155.835,136.8l-12.034.075a1.96,1.96,0,0,0-1.96,1.959V147a1.96,1.96,0,0,0,1.96,1.96l12.034.063Z" transform="translate(-141.423 -136.385)" fill="#fff"/>
          <path id="Trazado_28287" data-name="Trazado 28287" d="M154.449,148.057l-12.034-.063a2.379,2.379,0,0,1-2.375-2.377v-8.166a2.379,2.379,0,0,1,2.377-2.377L154.448,135l.005.834-12.035.075a1.545,1.545,0,0,0-1.545,1.543v8.166a1.545,1.545,0,0,0,1.543,1.543l12.036.063Z" transform="translate(-140.039 -135.001)" fill="#00b2c2"/>
        </g>
        <g id="Grupo_14073" data-name="Grupo 14073" transform="translate(1.767 1.7)">
          <path id="Trazado_28288" data-name="Trazado 28288" d="M149.239,142.344h0a1.569,1.569,0,0,0-1.568,1.567v6.533a1.569,1.569,0,0,0,1.568,1.568h11.077s6.675,3.734,6.359,3.272C159,144.036,149.239,142.344,149.239,142.344Z" transform="translate(-147.671 -142.344)" fill="#39a29d"/>
        </g>
        <path id="Trazado_28289" data-name="Trazado 28289" d="M185.778,143.471a.3.3,0,0,1-.3-.3v-3.81a.3.3,0,0,1,.3-.3h0a.3.3,0,0,1,.3.3v3.81a.3.3,0,0,1-.3.3Z" transform="translate(-174.96 -138.121)" fill="#00b2c2"/>
        <path id="Trazado_28290" data-name="Trazado 28290" d="M172.9,143.471a.3.3,0,0,1-.3-.3v-3.81a.3.3,0,0,1,.3-.3h0a.3.3,0,0,1,.3.3v3.81a.3.3,0,0,1-.3.3Z" transform="translate(-165.066 -138.121)" fill="#00b2c2"/>
        <path id="Trazado_28291" data-name="Trazado 28291" d="M160.2,143.471a.3.3,0,0,1-.3-.3v-3.81a.3.3,0,0,1,.3-.3h0a.3.3,0,0,1,.3.3v3.81a.3.3,0,0,1-.3.3Z" transform="translate(-155.304 -138.121)" fill="#00b2c2"/>
      </g>
      <path id="Trazado_28292" data-name="Trazado 28292" d="M201.116,183.522s4.166-1.016,6.932,3.832c1.993,3.495,2.332,10.489,2.332,10.489h-3.35S207.488,185.973,201.116,183.522Z" transform="translate(-62.385 -65.896)" fill="#39a29d"/>
      <g id="Grupo_14076" data-name="Grupo 14076" transform="translate(148.013 107.361)">
        <g id="Grupo_14075" data-name="Grupo 14075" transform="translate(0.527)">
          <path id="Trazado_28293" data-name="Trazado 28293" d="M245.077,154.942l.406.528,2.888,3.754.408.53a1.007,1.007,0,0,0,1.57-1.208l-.277-.359,16.442-12.651a2.582,2.582,0,0,0-3.148-4.092l-16.443,12.65-.277-.36a1.007,1.007,0,0,0-1.57,1.208Z" transform="translate(-244.596 -140.575)" fill="#fff"/>
          <path id="Trazado_28294" data-name="Trazado 28294" d="M266.143,140.606a2.918,2.918,0,0,1-.532,4.089l-16.177,12.446.073.094a1.337,1.337,0,0,1-2.1,1.617l-3.7-4.811a1.337,1.337,0,0,1,2.1-1.615l.073.094,16.177-12.446A2.917,2.917,0,0,1,266.143,140.606Zm-18.206,17.837a.684.684,0,0,0,1.039-.8l-.481-.624L265.2,144.165a2.247,2.247,0,0,0-2.741-3.562l-16.707,12.854-.481-.625a.684.684,0,0,0-1.04.8Z" transform="translate(-243.489 -139.469)" fill="#f9a629"/>
        </g>
        <path id="Trazado_28295" data-name="Trazado 28295" d="M278.879,156.834l11.272-8.673a1.874,1.874,0,1,0-2.285-2.971l-11.273,8.673Z" transform="translate(-268.404 -143.557)" fill="#f9a629"/>
        <path id="Trazado_28296" data-name="Trazado 28296" d="M271.095,193.6a.471.471,0,1,1-.085.662A.474.474,0,0,1,271.095,193.6Z" transform="translate(-264.037 -180.993)" fill="#f9a629"/>
        <path id="Trazado_28297" data-name="Trazado 28297" d="M312.876,161.453a.472.472,0,1,1-.086.662A.472.472,0,0,1,312.876,161.453Z" transform="translate(-296.147 -156.29)" fill="#fff"/>
        <path id="Trazado_28298" data-name="Trazado 28298" d="M327.788,156.8a.235.235,0,1,1,.287.372.235.235,0,1,1-.287-.372Z" transform="translate(-307.677 -152.753)" fill="#fff"/>
        <path id="Trazado_28299" data-name="Trazado 28299" d="M296.494,178.313a.239.239,0,0,1,.331.042.236.236,0,0,1-.044.329.235.235,0,1,1-.286-.372Z" transform="translate(-283.627 -169.285)" fill="#fff"/>
        <path id="Trazado_28300" data-name="Trazado 28300" d="M261.125,203.861a.649.649,0,1,1-.118.909A.647.647,0,0,1,261.125,203.861Z" transform="translate(-256.322 -188.853)" fill="#f9a629"/>
        <path id="Trazado_28301" data-name="Trazado 28301" d="M243.313,209.553a.6.6,0,1,1-.11.843A.6.6,0,0,1,243.313,209.553Z" transform="translate(-242.647 -193.235)" fill="#f9a629"/>
        <path id="Trazado_28302" data-name="Trazado 28302" d="M244.293,288.6a.6.6,0,1,1-.11.843A.6.6,0,0,1,244.293,288.6Z" transform="translate(-243.4 -253.986)" fill="#f9a629"/>
        <path id="Trazado_28303" data-name="Trazado 28303" d="M243.312,344.491a.6.6,0,1,1-.11.843A.6.6,0,0,1,243.312,344.491Z" transform="translate(-242.646 -296.939)" fill="#f9a629"/>
        <path id="Trazado_28304" data-name="Trazado 28304" d="M241.382,263.668a.432.432,0,1,1-.078.6A.433.433,0,0,1,241.382,263.668Z" transform="translate(-241.214 -234.851)" fill="#f9a629"/>
        <path id="Trazado_28305" data-name="Trazado 28305" d="M243.979,321.039a.431.431,0,1,1-.079.6A.433.433,0,0,1,243.979,321.039Z" transform="translate(-243.21 -278.942)" fill="#f9a629"/>
      </g>
      <g id="Grupo_14077" data-name="Grupo 14077" transform="translate(141.982 151.826)">
        <path id="Trazado_28306" data-name="Trazado 28306" d="M223.938,358.071a1,1,0,1,1-1-1A1,1,0,0,1,223.938,358.071Z" transform="translate(-220.375 -351.17)" fill="#fff"/>
        <path id="Trazado_28307" data-name="Trazado 28307" d="M247.048,377.489a.575.575,0,1,1-.575-.575A.575.575,0,0,1,247.048,377.489Z" transform="translate(-238.784 -366.418)" fill="#fff"/>
        <path id="Trazado_28308" data-name="Trazado 28308" d="M232.23,332.143a.575.575,0,1,1-.575-.575A.575.575,0,0,1,232.23,332.143Z" transform="translate(-227.396 -331.568)" fill="#fff"/>
        <path id="Trazado_28309" data-name="Trazado 28309" d="M216.31,343.237a.575.575,0,1,1-.575-.575A.575.575,0,0,1,216.31,343.237Z" transform="translate(-215.161 -340.094)" fill="#fff"/>
        <path id="Trazado_28310" data-name="Trazado 28310" d="M235.844,364.05a.575.575,0,1,1-.575-.575A.575.575,0,0,1,235.844,364.05Z" transform="translate(-230.173 -356.089)" fill="#fff"/>
        <path id="Trazado_28311" data-name="Trazado 28311" d="M254.621,347.538a.575.575,0,1,1-.575-.575A.575.575,0,0,1,254.621,347.538Z" transform="translate(-244.604 -343.4)" fill="#fff"/>
        <path id="Trazado_28312" data-name="Trazado 28312" d="M223.731,379.13a.575.575,0,1,1-.575-.575A.575.575,0,0,1,223.731,379.13Z" transform="translate(-220.863 -367.679)" fill="#fff"/>
        <path id="Trazado_28313" data-name="Trazado 28313" d="M234.867,346.14a1,1,0,1,1-1-1A1,1,0,0,1,234.867,346.14Z" transform="translate(-228.775 -342.002)" fill="#fff"/>
      </g>
    </g>
  </g>
</svg>
