<svg xmlns="http://www.w3.org/2000/svg" width="199" height="33" viewBox="0 0 199 33"><g transform="translate(-911 -879)"><g transform="translate(5 15)"><rect width="199" height="33" transform="translate(906 864)" fill="#fbcfcf"/><path d="M13.921,16.126a1.686,1.686,0,0,1,1.169.417,1.457,1.457,0,0,1,0,2.136,1.844,1.844,0,0,1-2.342,0,1.456,1.456,0,0,1,0-2.127A1.672,1.672,0,0,1,13.921,16.126Zm11.487.132a4.365,4.365,0,0,0-.132,1,.863.863,0,0,0,.1.448.36.36,0,0,0,.334.158.985.985,0,0,0,.589-.246,5.624,5.624,0,0,0,.738-.729l.633.633a7.027,7.027,0,0,1-1.591,1.27,3.008,3.008,0,0,1-1.406.347,1.629,1.629,0,0,1-1.169-.409,1.416,1.416,0,0,1-.431-1.077,1.665,1.665,0,0,1,.053-.422L23,17.216a9.489,9.489,0,0,1-1.1,1.138,3.56,3.56,0,0,1-.98.584,3.146,3.146,0,0,1-1.151.2,1.886,1.886,0,0,1-1.6-.716,3.4,3.4,0,0,1-.545-2.087,8.332,8.332,0,0,1,.343-2.355,6.2,6.2,0,0,1,.984-2.017,4.557,4.557,0,0,1,1.613-1.336,4.838,4.838,0,0,1,2.2-.488A3.852,3.852,0,0,1,25,10.773l.853-.633.984.141Zm-1.74-2.725a6.139,6.139,0,0,0,.141-1.3,1.473,1.473,0,0,0-.22-.879.835.835,0,0,0-.721-.3,1.816,1.816,0,0,0-1.45.822,6.441,6.441,0,0,0-1.02,2.21,9.383,9.383,0,0,0-.387,2.487,1.912,1.912,0,0,0,.189.958.633.633,0,0,0,.584.316,1.76,1.76,0,0,0,1.182-.567,4.5,4.5,0,0,0,.971-1.332,9.733,9.733,0,0,0,.659-2.092ZM35.6,15.282H32.159l-.123.22a10.064,10.064,0,0,0-.655,1.345,2.532,2.532,0,0,0-.163.844q0,.633.747.729l-.132.58H28.125l.132-.58a1.484,1.484,0,0,0,.541-.237,2.041,2.041,0,0,0,.444-.453,10.125,10.125,0,0,0,.6-.98L35.3,6.941h2.531l.378,9.4q.018.5.07.9a2.383,2.383,0,0,0,.167.655.874.874,0,0,0,.286.374.982.982,0,0,0,.435.154l-.132.58H34.488l.132-.58a1.112,1.112,0,0,0,.611-.2.887.887,0,0,0,.312-.466,3,3,0,0,0,.088-.822q0-.378-.018-.791ZM32.7,14.254h2.865l-.035-2.109q-.018-1.125-.018-1.863,0-.562.009-1.151h-.105ZM51.161,11.74h3v2.54h-3v3.437H48.392V14.28H45.386V11.74h3.006V8.4h2.769Zm12.674.053.114.035a5.981,5.981,0,0,1,1.437-1.292,3.108,3.108,0,0,1,1.6-.4,1.837,1.837,0,0,1,1.551.721,3.387,3.387,0,0,1,.549,2.083,8.766,8.766,0,0,1-.185,1.7,7.222,7.222,0,0,1-.519,1.644,5.328,5.328,0,0,1-.8,1.252,4.448,4.448,0,0,1-1.042.888,4.742,4.742,0,0,1-1.244.532,5.483,5.483,0,0,1-1.433.18A4.281,4.281,0,0,1,62.762,19a4.034,4.034,0,0,1-1.09-.492l-.817.633L59.9,19l2.224-9.932a6.289,6.289,0,0,0,.185-1.257.722.722,0,0,0-.083-.4A.459.459,0,0,0,62,7.24a3.311,3.311,0,0,0-.571-.114l.141-.571,2.584-.141h1.028Zm-.782,3.955a6.02,6.02,0,0,0-.141,1.274,1.539,1.539,0,0,0,.215.923.857.857,0,0,0,.725.281,1.635,1.635,0,0,0,.8-.2,2.123,2.123,0,0,0,.681-.646,6.2,6.2,0,0,0,.624-1.156,9.683,9.683,0,0,0,.523-1.692,8.426,8.426,0,0,0,.22-1.828,1.908,1.908,0,0,0-.189-.962.635.635,0,0,0-.584-.312A1.76,1.76,0,0,0,64.744,12a4.438,4.438,0,0,0-.962,1.314,9.946,9.946,0,0,0-.659,2.109ZM78.336,7a8.384,8.384,0,0,1,2.413.272A2.352,2.352,0,0,1,82,8.084a2.255,2.255,0,0,1,.387,1.354,3,3,0,0,1-.672,2.013,5.332,5.332,0,0,1-2.167,1.371l-.018.1a2.938,2.938,0,0,1,1.279.932,2.223,2.223,0,0,1,.453,1.38,3.386,3.386,0,0,1-.514,1.872,3.927,3.927,0,0,1-1.639,1.349A8.276,8.276,0,0,1,75.647,19H70.875L71,18.42a1.26,1.26,0,0,0,.738-.492,4.163,4.163,0,0,0,.448-1.3l1.6-7.251A4.768,4.768,0,0,0,73.9,8.348a.739.739,0,0,0-.171-.541.959.959,0,0,0-.558-.224L73.292,7Zm-1.213,5.256a2.562,2.562,0,0,0,1.349-.347,2.3,2.3,0,0,0,.883-.962,3.123,3.123,0,0,0,.308-1.415A1.349,1.349,0,0,0,79.189,8.4a2.379,2.379,0,0,0-1.477-.374,10.261,10.261,0,0,0-1.037.044l-.923,4.184Zm-2.61,5.687q.369.026,1.125.026a3.2,3.2,0,0,0,1.727-.4,2.418,2.418,0,0,0,.945-1.134,3.811,3.811,0,0,0,.308-1.494q0-1.652-1.872-1.652H75.533Zm15.75-4.781h10.459l-1.081-1.055v-1.3l2.813,2.918v.035L99.641,16.68v-1.3l1.063-1.037H90.263Zm24.9,3.507.712.765a5.952,5.952,0,0,1-1.846,1.314,5.151,5.151,0,0,1-2.03.391,2.641,2.641,0,0,1-2.087-.839,3.4,3.4,0,0,1-.743-2.333,7.128,7.128,0,0,1,.628-2.848,4.746,4.746,0,0,1,1.859-2.215,5.349,5.349,0,0,1,2.883-.765,9.592,9.592,0,0,1,1.274.092,7.238,7.238,0,0,1,1.213.259l-.492,2.145h-1.582q.018-.185.018-.378a1.681,1.681,0,0,0-.193-.918.645.645,0,0,0-.571-.286,1.624,1.624,0,0,0-1.239.747,6.222,6.222,0,0,0-.984,2.074,8.3,8.3,0,0,0-.4,2.329q0,1.652,1.2,1.652a2.514,2.514,0,0,0,1.147-.272A5.547,5.547,0,0,0,115.163,16.671Zm13.562-9.378-.562,2.566H127.01a4.437,4.437,0,0,0-.158-1.178,1.135,1.135,0,0,0-.413-.593,1.308,1.308,0,0,0-.765-.2,2.319,2.319,0,0,0-1.459.58,5.441,5.441,0,0,0-1.332,1.753A11.831,11.831,0,0,0,121.9,13a12.8,12.8,0,0,0-.374,2.883,4.6,4.6,0,0,0,.136,1.222,1.391,1.391,0,0,0,.475.747,1.488,1.488,0,0,0,.936.264,2.436,2.436,0,0,0,1.516-.457,3.871,3.871,0,0,0,1.085-1.573h1.151l-.562,2.593a11.436,11.436,0,0,1-1.7.356,14.047,14.047,0,0,1-1.811.11,3.84,3.84,0,0,1-2.874-1.024,4.044,4.044,0,0,1-1-2.949,10.352,10.352,0,0,1,.158-1.679,10.958,10.958,0,0,1,.844-2.777,7.081,7.081,0,0,1,1.481-2.14,5.824,5.824,0,0,1,2-1.288,6.72,6.72,0,0,1,2.4-.422A10.321,10.321,0,0,1,128.724,7.293ZM140,11.74h3v2.54h-3v3.437h-2.769V14.28h-3.006V11.74h3.006V8.4H140Zm18.264,5.15.633.633a7.027,7.027,0,0,1-1.591,1.27,3.008,3.008,0,0,1-1.406.347,1.629,1.629,0,0,1-1.169-.409,1.416,1.416,0,0,1-.431-1.077,1.665,1.665,0,0,1,.053-.422l-.114-.026a7.059,7.059,0,0,1-1.56,1.472,3.165,3.165,0,0,1-1.736.461,1.828,1.828,0,0,1-1.542-.721,3.387,3.387,0,0,1-.549-2.083,8.332,8.332,0,0,1,.343-2.355,6.2,6.2,0,0,1,.984-2.017,4.557,4.557,0,0,1,1.613-1.336,4.818,4.818,0,0,1,2.193-.488,4.286,4.286,0,0,1,1.512.272l.3-1.345q.053-.22.123-.633a4.065,4.065,0,0,0,.07-.624.926.926,0,0,0-.04-.3.431.431,0,0,0-.119-.18.552.552,0,0,0-.211-.11,4.13,4.13,0,0,0-.519-.092l.141-.571,2.628-.141h.993l-2.224,9.844a4.619,4.619,0,0,0-.132,1,.863.863,0,0,0,.1.448.36.36,0,0,0,.334.158.985.985,0,0,0,.589-.246A5.624,5.624,0,0,0,158.264,16.891ZM154.9,13.533a6.1,6.1,0,0,0,.141-1.292,1.491,1.491,0,0,0-.22-.888.835.835,0,0,0-.721-.3,1.816,1.816,0,0,0-1.45.822,6.441,6.441,0,0,0-1.02,2.21,9.383,9.383,0,0,0-.387,2.487,1.912,1.912,0,0,0,.189.958.633.633,0,0,0,.584.316,1.76,1.76,0,0,0,1.182-.567,4.5,4.5,0,0,0,.971-1.332,9.733,9.733,0,0,0,.659-2.092ZM160.374,19l.123-.58a1.26,1.26,0,0,0,.738-.492,4.163,4.163,0,0,0,.448-1.3l1.6-7.251a4.768,4.768,0,0,0,.114-1.028.739.739,0,0,0-.171-.541.959.959,0,0,0-.558-.224l.123-.58h3.56a13.529,13.529,0,0,1,2.32.158,4.974,4.974,0,0,1,1.446.483,3.727,3.727,0,0,1,1.033.756,3.6,3.6,0,0,1,.76,1.279,5.332,5.332,0,0,1,.277,1.806,9.354,9.354,0,0,1-.264,2.241,7.782,7.782,0,0,1-.778,1.982,6.3,6.3,0,0,1-1.23,1.564,6.508,6.508,0,0,1-1.437,1.02,6.094,6.094,0,0,1-1.626.536,11.681,11.681,0,0,1-2.145.171Zm3.639-1.072q.4.035.65.035a4.026,4.026,0,0,0,1.956-.448,4.307,4.307,0,0,0,1.459-1.367,7.315,7.315,0,0,0,1-2.241,9.96,9.96,0,0,0,.365-2.659,4.925,4.925,0,0,0-.2-1.521,2.615,2.615,0,0,0-.558-.993,2.038,2.038,0,0,0-.826-.541,3.031,3.031,0,0,0-1-.163q-.439,0-.677.018Z" transform="translate(913 867)" fill="#31313c"/></g></g></svg>