<svg xmlns="http://www.w3.org/2000/svg" width="277.783" height="241.458" viewBox="0 0 277.783 241.458">
  <g id="Grupo_178101" data-name="Grupo 178101" transform="translate(-872 -5171.115)">
    <g id="Grupo_12813" data-name="Grupo 12813" transform="translate(430.535 5043.036)">
      <g id="Grupo_12804" data-name="Grupo 12804" transform="translate(441.465 210.964)">
        <g id="Grupo_12801" data-name="Grupo 12801">
          <path id="Trazado_26189" data-name="Trazado 26189" d="M466.933,365.539h-1.964a19.25,19.25,0,0,1-19.25-19.25V214.723h40.464V346.288A19.249,19.249,0,0,1,466.933,365.539Z" transform="translate(-437.272 -207.259)" fill="#e3f3fa"/>
          <path id="Rectángulo_2640" data-name="Rectángulo 2640" d="M0,0H34.1a7.74,7.74,0,0,1,7.74,7.74V24.962A7.74,7.74,0,0,1,34.1,32.7H0a0,0,0,0,1,0,0V0A0,0,0,0,1,0,0Z" transform="translate(45.03 112.555) rotate(90)" fill="#a4cf39"/>
          <path id="Trazado_26190" data-name="Trazado 26190" d="M495.09,218.428H445.2a3.732,3.732,0,1,1,0-7.464H495.09a3.732,3.732,0,1,1,0,7.464Z" transform="translate(-441.465 -210.964)" fill="#bdd3de"/>
        </g>
        <g id="Grupo_12802" data-name="Grupo 12802" transform="translate(14.618 12.984)" opacity="0.56" style="mix-blend-mode: screen;isolation: isolate">
          <path id="Trazado_26191" data-name="Trazado 26191" d="M451.428,217.5h-2.6V343.549a19.128,19.128,0,0,0,2.958,10.22,21.29,21.29,0,0,1-.357-3.79Z" transform="translate(-448.827 -217.503)" fill="#e3f3fa"/>
        </g>
        <g id="Grupo_12803" data-name="Grupo 12803" transform="translate(16.097 11.985)">
          <circle id="Elipse_884" data-name="Elipse 884" cx="3.881" cy="3.881" r="3.881" transform="translate(16.299 124.588)" fill="#d6f28f"/>
          <path id="Trazado_26192" data-name="Trazado 26192" d="M453.529,280.028a1.649,1.649,0,1,0,1.65-1.65A1.651,1.651,0,0,0,453.529,280.028Z" transform="translate(-445.672 -156.506)" fill="#d6f28f"/>
          <path id="Trazado_26193" data-name="Trazado 26193" d="M451.379,286.674a1.649,1.649,0,1,0,1.648-1.65A1.649,1.649,0,0,0,451.379,286.674Z" transform="translate(-447.791 -149.956)" fill="#d6f28f"/>
          <path id="Trazado_26194" data-name="Trazado 26194" d="M453.04,272.311a1.65,1.65,0,1,0,1.65-1.648A1.65,1.65,0,0,0,453.04,272.311Z" transform="translate(-446.154 -164.11)" fill="#d6f28f"/>
          <path id="Trazado_26195" data-name="Trazado 26195" d="M457.8,274.8a1.65,1.65,0,1,0,1.65-1.65A1.65,1.65,0,0,0,457.8,274.8Z" transform="translate(-441.464 -161.654)" fill="#d6f28f"/>
          <path id="Trazado_26196" data-name="Trazado 26196" d="M450.7,265.1a1.649,1.649,0,1,0,1.65-1.648A1.65,1.65,0,0,0,450.7,265.1Z" transform="translate(-448.464 -171.213)" fill="#fff"/>
          <path id="Trazado_26197" data-name="Trazado 26197" d="M458.629,261.305a1.65,1.65,0,1,0,1.65-1.65A1.65,1.65,0,0,0,458.629,261.305Z" transform="translate(-440.645 -174.96)" fill="#fff"/>
          <path id="Trazado_26198" data-name="Trazado 26198" d="M457.8,265.936a1.65,1.65,0,1,0,1.65-1.65A1.65,1.65,0,0,0,457.8,265.936Z" transform="translate(-441.464 -170.395)" fill="#fff"/>
          <path id="Trazado_26199" data-name="Trazado 26199" d="M450.7,256.36a1.649,1.649,0,1,0,1.65-1.65A1.648,1.648,0,0,0,450.7,256.36Z" transform="translate(-448.464 -179.833)" fill="#fff"/>
          <path id="Trazado_26200" data-name="Trazado 26200" d="M452.7,251.64a1.65,1.65,0,1,0,1.65-1.65A1.65,1.65,0,0,0,452.7,251.64Z" transform="translate(-446.491 -184.485)" fill="#fff"/>
          <path id="Trazado_26201" data-name="Trazado 26201" d="M457.272,246.536a1.65,1.65,0,1,0,1.65-1.648A1.65,1.65,0,0,0,457.272,246.536Z" transform="translate(-441.983 -189.514)" fill="#fff"/>
          <path id="Trazado_26202" data-name="Trazado 26202" d="M452.209,241.113a1.65,1.65,0,1,0,1.65-1.65A1.65,1.65,0,0,0,452.209,241.113Z" transform="translate(-446.973 -194.861)" fill="#fff"/>
          <path id="Trazado_26203" data-name="Trazado 26203" d="M459.363,237.725a1.65,1.65,0,1,0,1.65-1.65A1.649,1.649,0,0,0,459.363,237.725Z" transform="translate(-439.922 -198.2)" fill="#fff"/>
          <circle id="Elipse_885" data-name="Elipse 885" cx="1.65" cy="1.65" r="1.65" transform="translate(13.911 30.761)" fill="#fff"/>
          <path id="Trazado_26204" data-name="Trazado 26204" d="M450.7,228.441a1.649,1.649,0,1,0,1.65-1.65A1.648,1.648,0,0,0,450.7,228.441Z" transform="translate(-448.464 -207.35)" fill="#fff"/>
          <path id="Trazado_26205" data-name="Trazado 26205" d="M457.8,222.852a1.65,1.65,0,1,0,1.65-1.65A1.65,1.65,0,0,0,457.8,222.852Z" transform="translate(-441.464 -212.859)" fill="#fff"/>
          <path id="Trazado_26206" data-name="Trazado 26206" d="M450.744,276.591a3.881,3.881,0,1,0,3.88-3.882A3.881,3.881,0,0,0,450.744,276.591Z" transform="translate(-448.417 -162.094)" fill="#d6f28f"/>
          <path id="Trazado_26207" data-name="Trazado 26207" d="M458.336,272a3.881,3.881,0,1,0,3.882-3.88A3.881,3.881,0,0,0,458.336,272Z" transform="translate(-440.934 -166.614)" fill="#d6f28f"/>
          <path id="Trazado_26208" data-name="Trazado 26208" d="M450.92,261.581a3.881,3.881,0,1,0,3.88-3.88A3.881,3.881,0,0,0,450.92,261.581Z" transform="translate(-448.243 -176.885)" fill="#fff"/>
          <path id="Trazado_26209" data-name="Trazado 26209" d="M457.272,255.228a3.882,3.882,0,1,0,3.882-3.88A3.881,3.881,0,0,0,457.272,255.228Z" transform="translate(-441.983 -183.147)" fill="#fff"/>
          <path id="Trazado_26210" data-name="Trazado 26210" d="M450.812,248.768a3.881,3.881,0,1,0,3.882-3.88A3.881,3.881,0,0,0,450.812,248.768Z" transform="translate(-448.35 -189.514)" fill="#fff"/>
          <circle id="Elipse_886" data-name="Elipse 886" cx="3.881" cy="3.881" r="3.881" transform="translate(14.366 43.47)" fill="#fff"/>
          <circle id="Elipse_887" data-name="Elipse 887" cx="3.881" cy="3.881" r="3.881" transform="translate(2.657 31.762)" fill="#fff"/>
          <path id="Trazado_26211" data-name="Trazado 26211" d="M456.285,231.5a3.881,3.881,0,1,0,3.88-3.88A3.881,3.881,0,0,0,456.285,231.5Z" transform="translate(-442.956 -206.531)" fill="#fff"/>
          <path id="Trazado_26212" data-name="Trazado 26212" d="M449.572,223.423a3.881,3.881,0,1,0,3.882-3.882A3.881,3.881,0,0,0,449.572,223.423Z" transform="translate(-449.572 -214.496)" fill="#fff"/>
          <path id="Trazado_26213" data-name="Trazado 26213" d="M457.272,220.88a3.882,3.882,0,1,0,3.882-3.88A3.881,3.881,0,0,0,457.272,220.88Z" transform="translate(-441.983 -217)" fill="#fff"/>
          <path id="Trazado_26214" data-name="Trazado 26214" d="M452.7,225.636a1.65,1.65,0,1,0,1.65-1.648A1.65,1.65,0,0,0,452.7,225.636Z" transform="translate(-446.491 -210.113)" fill="#fff"/>
        </g>
        <path id="Trazado_26215" data-name="Trazado 26215" d="M480.854,210.964H455.909v158.28h.981a19.249,19.249,0,0,0,19.25-19.25V218.428h4.714a3.732,3.732,0,1,0,0-7.464Z" transform="translate(-427.229 -210.964)" fill="#e6e7e8" style="mix-blend-mode: multiply;isolation: isolate"/>
      </g>
      <g id="Grupo_12808" data-name="Grupo 12808" transform="translate(500.376 210.964)">
        <g id="Grupo_12805" data-name="Grupo 12805">
          <path id="Trazado_26216" data-name="Trazado 26216" d="M496.6,365.539h-1.966a19.248,19.248,0,0,1-19.248-19.25V214.723H515.85V346.288A19.248,19.248,0,0,1,496.6,365.539Z" transform="translate(-466.941 -207.259)" fill="#e3f3fa"/>
          <path id="Rectángulo_2641" data-name="Rectángulo 2641" d="M0,0H53.51a7.74,7.74,0,0,1,7.74,7.74V24.962a7.74,7.74,0,0,1-7.74,7.74H0a0,0,0,0,1,0,0V0A0,0,0,0,1,0,0Z" transform="translate(45.029 93.149) rotate(90)" fill="#fbce01"/>
          <path id="Trazado_26217" data-name="Trazado 26217" d="M524.759,218.428H474.865a3.732,3.732,0,0,1,0-7.464h49.894a3.732,3.732,0,0,1,0,7.464Z" transform="translate(-471.134 -210.964)" fill="#bdd3de"/>
          <path id="Rectángulo_2642" data-name="Rectángulo 2642" d="M0,0H34.1a7.74,7.74,0,0,1,7.74,7.74V24.962A7.74,7.74,0,0,1,34.1,32.7H0a0,0,0,0,1,0,0V0A0,0,0,0,1,0,0Z" transform="translate(12.418 94.399) rotate(-90)" fill="#a4cf39"/>
        </g>
        <g id="Grupo_12806" data-name="Grupo 12806" transform="translate(14.618 12.984)" opacity="0.56" style="mix-blend-mode: screen;isolation: isolate">
          <path id="Trazado_26218" data-name="Trazado 26218" d="M481.1,217.5h-2.6V343.549a19.144,19.144,0,0,0,2.956,10.22,21.485,21.485,0,0,1-.355-3.79Z" transform="translate(-478.496 -217.503)" fill="#e3f3fa"/>
        </g>
        <g id="Grupo_12807" data-name="Grupo 12807" transform="translate(16.095 11.985)">
          <circle id="Elipse_888" data-name="Elipse 888" cx="3.881" cy="3.881" r="3.881" transform="translate(1.104 124.589)" fill="#ffe67a"/>
          <path id="Trazado_26219" data-name="Trazado 26219" d="M489.6,280.028a1.65,1.65,0,1,1-1.65-1.65A1.651,1.651,0,0,1,489.6,280.028Z" transform="translate(-472.287 -156.506)" fill="#ffe67a"/>
          <path id="Trazado_26220" data-name="Trazado 26220" d="M491.745,286.674a1.65,1.65,0,1,1-1.65-1.65A1.649,1.649,0,0,1,491.745,286.674Z" transform="translate(-470.168 -149.956)" fill="#ffe67a"/>
          <path id="Trazado_26221" data-name="Trazado 26221" d="M490.082,272.311a1.649,1.649,0,1,1-1.648-1.648A1.65,1.65,0,0,1,490.082,272.311Z" transform="translate(-471.805 -164.11)" fill="#ffe67a"/>
          <path id="Trazado_26222" data-name="Trazado 26222" d="M485.324,274.8a1.649,1.649,0,1,1-1.648-1.65A1.649,1.649,0,0,1,485.324,274.8Z" transform="translate(-476.494 -161.654)" fill="#ffe67a"/>
          <path id="Trazado_26223" data-name="Trazado 26223" d="M492.428,265.1a1.65,1.65,0,1,1-1.65-1.648A1.65,1.65,0,0,1,492.428,265.1Z" transform="translate(-469.494 -171.213)" fill="#ffe67a"/>
          <path id="Trazado_26224" data-name="Trazado 26224" d="M484.5,261.305a1.65,1.65,0,1,1-1.65-1.65A1.65,1.65,0,0,1,484.5,261.305Z" transform="translate(-477.313 -174.96)" fill="#ffe67a"/>
          <path id="Trazado_26225" data-name="Trazado 26225" d="M492.428,256.36a1.65,1.65,0,1,1-1.65-1.65A1.648,1.648,0,0,1,492.428,256.36Z" transform="translate(-469.494 -179.833)" fill="#fff"/>
          <path id="Trazado_26226" data-name="Trazado 26226" d="M490.426,251.64a1.65,1.65,0,1,1-1.65-1.65A1.65,1.65,0,0,1,490.426,251.64Z" transform="translate(-471.468 -184.485)" fill="#fff"/>
          <path id="Trazado_26227" data-name="Trazado 26227" d="M485.85,246.536a1.649,1.649,0,1,1-1.648-1.648A1.648,1.648,0,0,1,485.85,246.536Z" transform="translate(-475.976 -189.514)" fill="#fff"/>
          <path id="Trazado_26228" data-name="Trazado 26228" d="M490.913,241.113a1.649,1.649,0,1,1-1.65-1.65A1.65,1.65,0,0,1,490.913,241.113Z" transform="translate(-470.986 -194.861)" fill="#fff"/>
          <path id="Trazado_26229" data-name="Trazado 26229" d="M483.759,237.725a1.649,1.649,0,1,1-1.648-1.65A1.648,1.648,0,0,1,483.759,237.725Z" transform="translate(-478.037 -198.2)" fill="#fff"/>
          <path id="Trazado_26230" data-name="Trazado 26230" d="M486.546,234.142a1.65,1.65,0,1,1-1.65-1.65A1.649,1.649,0,0,1,486.546,234.142Z" transform="translate(-475.292 -201.731)" fill="#fff"/>
          <path id="Trazado_26231" data-name="Trazado 26231" d="M492.428,228.441a1.65,1.65,0,1,1-1.65-1.65A1.648,1.648,0,0,1,492.428,228.441Z" transform="translate(-469.494 -207.35)" fill="#fff"/>
          <path id="Trazado_26232" data-name="Trazado 26232" d="M485.324,222.852a1.649,1.649,0,1,1-1.648-1.65A1.65,1.65,0,0,1,485.324,222.852Z" transform="translate(-476.494 -212.859)" fill="#fff"/>
          <path id="Trazado_26233" data-name="Trazado 26233" d="M494.595,276.591a3.881,3.881,0,1,1-3.88-3.882A3.881,3.881,0,0,1,494.595,276.591Z" transform="translate(-471.756 -162.094)" fill="#ffe67a"/>
          <path id="Trazado_26234" data-name="Trazado 26234" d="M487,269a3.882,3.882,0,1,1-3.882-3.882A3.881,3.881,0,0,1,487,269Z" transform="translate(-479.24 -169.576)" fill="#ffe67a"/>
          <circle id="Elipse_889" data-name="Elipse 889" cx="3.881" cy="3.881" r="3.881" transform="translate(13.427 82.464)" fill="#ffe67a"/>
          <path id="Trazado_26235" data-name="Trazado 26235" d="M488.066,255.228a3.881,3.881,0,1,1-3.88-3.88A3.881,3.881,0,0,1,488.066,255.228Z" transform="translate(-478.191 -183.147)" fill="#fff"/>
          <path id="Trazado_26236" data-name="Trazado 26236" d="M494.528,248.768a3.882,3.882,0,1,1-3.882-3.88A3.881,3.881,0,0,1,494.528,248.768Z" transform="translate(-471.824 -189.514)" fill="#fff"/>
          <path id="Trazado_26237" data-name="Trazado 26237" d="M488.533,242.773a3.882,3.882,0,1,1-3.882-3.88A3.881,3.881,0,0,1,488.533,242.773Z" transform="translate(-477.733 -195.422)" fill="#fff"/>
          <path id="Trazado_26238" data-name="Trazado 26238" d="M494.428,236.878a3.881,3.881,0,1,1-3.88-3.882A3.882,3.882,0,0,1,494.428,236.878Z" transform="translate(-471.921 -201.234)" fill="#fff"/>
          <path id="Trazado_26239" data-name="Trazado 26239" d="M489.054,231.5a3.881,3.881,0,1,1-3.882-3.88A3.881,3.881,0,0,1,489.054,231.5Z" transform="translate(-477.218 -206.531)" fill="#fff"/>
          <path id="Trazado_26240" data-name="Trazado 26240" d="M495.768,223.423a3.882,3.882,0,1,1-3.882-3.882A3.881,3.881,0,0,1,495.768,223.423Z" transform="translate(-470.602 -214.496)" fill="#fff"/>
          <path id="Trazado_26241" data-name="Trazado 26241" d="M488.066,220.88a3.881,3.881,0,1,1-3.88-3.88A3.881,3.881,0,0,1,488.066,220.88Z" transform="translate(-478.191 -217)" fill="#fff"/>
          <path id="Trazado_26242" data-name="Trazado 26242" d="M490.426,225.636a1.65,1.65,0,1,1-1.65-1.648A1.65,1.65,0,0,1,490.426,225.636Z" transform="translate(-471.468 -210.113)" fill="#fff"/>
        </g>
        <path id="Trazado_26243" data-name="Trazado 26243" d="M510.524,210.964H485.577v158.28h.983a19.248,19.248,0,0,0,19.248-19.25V218.428h4.716a3.732,3.732,0,0,0,0-7.464Z" transform="translate(-456.899 -210.964)" fill="#e6e7e8" style="mix-blend-mode: multiply;isolation: isolate"/>
      </g>
    </g>
    <g id="Grupo_12821" data-name="Grupo 12821" transform="matrix(-0.259, 0.966, -0.966, -0.259, 1087.454, 5203.922)">
      <g id="Grupo_12805-2" data-name="Grupo 12805">
        <path id="Trazado_26216-2" data-name="Trazado 26216" d="M496.6,365.539h-1.966a19.248,19.248,0,0,1-19.248-19.25V214.723H515.85V346.288A19.248,19.248,0,0,1,496.6,365.539Z" transform="translate(-466.941 -207.259)" fill="#e3f3fa"/>
        <path id="Rectángulo_2641-2" data-name="Rectángulo 2641" d="M0,0H53.51a7.74,7.74,0,0,1,7.74,7.74V24.962a7.74,7.74,0,0,1-7.74,7.74H0a0,0,0,0,1,0,0V0A0,0,0,0,1,0,0Z" transform="translate(45.029 93.149) rotate(90)" fill="#fbce01"/>
        <path id="Trazado_26217-2" data-name="Trazado 26217" d="M524.759,218.428H474.865a3.732,3.732,0,0,1,0-7.464h49.894a3.732,3.732,0,0,1,0,7.464Z" transform="translate(-471.134 -210.964)" fill="#bdd3de"/>
        <path id="Rectángulo_2642-2" data-name="Rectángulo 2642" d="M0,0H34.1a7.74,7.74,0,0,1,7.74,7.74V24.962A7.74,7.74,0,0,1,34.1,32.7H0a0,0,0,0,1,0,0V0A0,0,0,0,1,0,0Z" transform="translate(12.418 94.399) rotate(-90)" fill="#a4cf39"/>
      </g>
      <g id="Grupo_12806-2" data-name="Grupo 12806" transform="translate(14.618 12.984)" opacity="0.56" style="mix-blend-mode: screen;isolation: isolate">
        <path id="Trazado_26218-2" data-name="Trazado 26218" d="M481.1,217.5h-2.6V343.549a19.144,19.144,0,0,0,2.956,10.22,21.485,21.485,0,0,1-.355-3.79Z" transform="translate(-478.496 -217.503)" fill="#e3f3fa"/>
      </g>
      <g id="Grupo_12807-2" data-name="Grupo 12807" transform="translate(16.095 11.985)">
        <circle id="Elipse_888-2" data-name="Elipse 888" cx="3.881" cy="3.881" r="3.881" transform="translate(1.104 124.589)" fill="#ffe67a"/>
        <path id="Trazado_26219-2" data-name="Trazado 26219" d="M489.6,280.028a1.65,1.65,0,1,1-1.65-1.65A1.651,1.651,0,0,1,489.6,280.028Z" transform="translate(-472.287 -156.506)" fill="#ffe67a"/>
        <path id="Trazado_26220-2" data-name="Trazado 26220" d="M491.745,286.674a1.65,1.65,0,1,1-1.65-1.65A1.649,1.649,0,0,1,491.745,286.674Z" transform="translate(-470.168 -149.956)" fill="#ffe67a"/>
        <path id="Trazado_26221-2" data-name="Trazado 26221" d="M490.082,272.311a1.649,1.649,0,1,1-1.648-1.648A1.65,1.65,0,0,1,490.082,272.311Z" transform="translate(-471.805 -164.11)" fill="#ffe67a"/>
        <path id="Trazado_26222-2" data-name="Trazado 26222" d="M485.324,274.8a1.649,1.649,0,1,1-1.648-1.65A1.649,1.649,0,0,1,485.324,274.8Z" transform="translate(-476.494 -161.654)" fill="#ffe67a"/>
        <path id="Trazado_26223-2" data-name="Trazado 26223" d="M492.428,265.1a1.65,1.65,0,1,1-1.65-1.648A1.65,1.65,0,0,1,492.428,265.1Z" transform="translate(-469.494 -171.213)" fill="#ffe67a"/>
        <path id="Trazado_26224-2" data-name="Trazado 26224" d="M484.5,261.305a1.65,1.65,0,1,1-1.65-1.65A1.65,1.65,0,0,1,484.5,261.305Z" transform="translate(-477.313 -174.96)" fill="#ffe67a"/>
        <path id="Trazado_26225-2" data-name="Trazado 26225" d="M492.428,256.36a1.65,1.65,0,1,1-1.65-1.65A1.648,1.648,0,0,1,492.428,256.36Z" transform="translate(-469.494 -179.833)" fill="#fff"/>
        <path id="Trazado_26226-2" data-name="Trazado 26226" d="M490.426,251.64a1.65,1.65,0,1,1-1.65-1.65A1.65,1.65,0,0,1,490.426,251.64Z" transform="translate(-471.468 -184.485)" fill="#fff"/>
        <path id="Trazado_26227-2" data-name="Trazado 26227" d="M485.85,246.536a1.649,1.649,0,1,1-1.648-1.648A1.648,1.648,0,0,1,485.85,246.536Z" transform="translate(-475.976 -189.514)" fill="#fff"/>
        <path id="Trazado_26228-2" data-name="Trazado 26228" d="M490.913,241.113a1.649,1.649,0,1,1-1.65-1.65A1.65,1.65,0,0,1,490.913,241.113Z" transform="translate(-470.986 -194.861)" fill="#fff"/>
        <path id="Trazado_26229-2" data-name="Trazado 26229" d="M483.759,237.725a1.649,1.649,0,1,1-1.648-1.65A1.648,1.648,0,0,1,483.759,237.725Z" transform="translate(-478.037 -198.2)" fill="#fff"/>
        <path id="Trazado_26230-2" data-name="Trazado 26230" d="M486.546,234.142a1.65,1.65,0,1,1-1.65-1.65A1.649,1.649,0,0,1,486.546,234.142Z" transform="translate(-475.292 -201.731)" fill="#fff"/>
        <path id="Trazado_26231-2" data-name="Trazado 26231" d="M492.428,228.441a1.65,1.65,0,1,1-1.65-1.65A1.648,1.648,0,0,1,492.428,228.441Z" transform="translate(-469.494 -207.35)" fill="#fff"/>
        <path id="Trazado_26232-2" data-name="Trazado 26232" d="M485.324,222.852a1.649,1.649,0,1,1-1.648-1.65A1.65,1.65,0,0,1,485.324,222.852Z" transform="translate(-476.494 -212.859)" fill="#fff"/>
        <path id="Trazado_26233-2" data-name="Trazado 26233" d="M494.595,276.591a3.881,3.881,0,1,1-3.88-3.882A3.881,3.881,0,0,1,494.595,276.591Z" transform="translate(-471.756 -162.094)" fill="#ffe67a"/>
        <path id="Trazado_26234-2" data-name="Trazado 26234" d="M487,269a3.882,3.882,0,1,1-3.882-3.882A3.881,3.881,0,0,1,487,269Z" transform="translate(-479.24 -169.576)" fill="#ffe67a"/>
        <circle id="Elipse_889-2" data-name="Elipse 889" cx="3.881" cy="3.881" r="3.881" transform="translate(13.427 82.464)" fill="#ffe67a"/>
        <path id="Trazado_26235-2" data-name="Trazado 26235" d="M488.066,255.228a3.881,3.881,0,1,1-3.88-3.88A3.881,3.881,0,0,1,488.066,255.228Z" transform="translate(-478.191 -183.147)" fill="#fff"/>
        <path id="Trazado_26236-2" data-name="Trazado 26236" d="M494.528,248.768a3.882,3.882,0,1,1-3.882-3.88A3.881,3.881,0,0,1,494.528,248.768Z" transform="translate(-471.824 -189.514)" fill="#fff"/>
        <path id="Trazado_26237-2" data-name="Trazado 26237" d="M488.533,242.773a3.882,3.882,0,1,1-3.882-3.88A3.881,3.881,0,0,1,488.533,242.773Z" transform="translate(-477.733 -195.422)" fill="#fff"/>
        <path id="Trazado_26238-2" data-name="Trazado 26238" d="M494.428,236.878a3.881,3.881,0,1,1-3.88-3.882A3.882,3.882,0,0,1,494.428,236.878Z" transform="translate(-471.921 -201.234)" fill="#fff"/>
        <path id="Trazado_26239-2" data-name="Trazado 26239" d="M489.054,231.5a3.881,3.881,0,1,1-3.882-3.88A3.881,3.881,0,0,1,489.054,231.5Z" transform="translate(-477.218 -206.531)" fill="#fff"/>
        <path id="Trazado_26240-2" data-name="Trazado 26240" d="M495.768,223.423a3.882,3.882,0,1,1-3.882-3.882A3.881,3.881,0,0,1,495.768,223.423Z" transform="translate(-470.602 -214.496)" fill="#fff"/>
        <path id="Trazado_26241-2" data-name="Trazado 26241" d="M488.066,220.88a3.881,3.881,0,1,1-3.88-3.88A3.881,3.881,0,0,1,488.066,220.88Z" transform="translate(-478.191 -217)" fill="#fff"/>
        <path id="Trazado_26242-2" data-name="Trazado 26242" d="M490.426,225.636a1.65,1.65,0,1,1-1.65-1.648A1.65,1.65,0,0,1,490.426,225.636Z" transform="translate(-471.468 -210.113)" fill="#fff"/>
      </g>
      <path id="Trazado_26243-2" data-name="Trazado 26243" d="M510.524,210.964H485.577v158.28h.983a19.248,19.248,0,0,0,19.248-19.25V218.428h4.716a3.732,3.732,0,0,0,0-7.464Z" transform="translate(-456.899 -210.964)" fill="#e6e7e8" style="mix-blend-mode: multiply;isolation: isolate"/>
    </g>
    <g id="Grupo_12823" data-name="Grupo 12823" transform="translate(1013.047 5193.831)">
      <path id="Trazado_26244" data-name="Trazado 26244" d="M136.2,90.015c0-3.149-7.851-2.837-7.851-2.837H22.623S15.063,87,13.169,88.76c-1.647,1.53-1.661,4.17.2,5.259A14.668,14.668,0,0,1,20.291,106.3v94.683S19.2,218.242,34.129,218.242h85.833c14.926,0,13.837-17.258,13.837-17.258V106.3s.182-10.34.065-11.972a2.049,2.049,0,0,1,1.4-2.1A2.5,2.5,0,0,0,136.2,90.015Z" fill="#e4eef3" stroke="#bebebe" stroke-linecap="round" stroke-linejoin="round" stroke-width="1" opacity="0.5"/>
      <path id="Trazado_26245" data-name="Trazado 26245" d="M132.246,141.561H21.845v57.8S20.786,216.143,35.3,216.143h83.483c14.518,0,13.459-16.785,13.459-16.785Z" fill="#94bb34" opacity="0.8"/>
      <g id="Grupo_12822" data-name="Grupo 12822">
        <path id="Trazado_26246" data-name="Trazado 26246" d="M136.2,90.015c0-3.149-7.851-2.837-7.851-2.837H22.623S15.063,87,13.169,88.76c-1.647,1.53-1.661,4.17.2,5.259A14.668,14.668,0,0,1,20.291,106.3v94.683S19.2,218.242,34.129,218.242h85.833c14.926,0,13.837-17.258,13.837-17.258V106.3s.182-10.34.065-11.972a2.049,2.049,0,0,1,1.4-2.1A2.5,2.5,0,0,0,136.2,90.015Zm-16.76.533c-.467,1.866-4.665,2.176-4.665,2.176L57.4,94.746H95.8l.507,107.238c-1.554,8.085-10.535,8.278-10.535,8.278H36.724c-13.216,0-13.37-14.459-13.37-14.459v-89.4c-.311-6.531-2.333-10.261-4.821-12.283s-2.642-2.8-2.642-2.8c-1.244-3.111,3.421-2.954,3.421-2.954h96.237C120.213,88.372,119.436,90.548,119.436,90.548Z" fill="#c3ccd1" opacity="0.4" style="mix-blend-mode: multiply;isolation: isolate"/>
        <path id="Trazado_26247" data-name="Trazado 26247" d="M38.123,91.175H27.551s-4.975.467-3.265,2.954c0,0,5.6,4.664,6.22,9.328v91.419s1.086,11.751,11.037,11.751l6.84-.233V103.769S46.986,93.041,38.123,91.175Z" fill="#fff" opacity="0.7" style="mix-blend-mode: overlay;isolation: isolate"/>
        <path id="Trazado_26248" data-name="Trazado 26248" d="M23.354,195.8s.154,14.459,13.37,14.459H85.775s8.981-.193,10.535-8.278L95.8,94.746H57.4l57.369-2.022s4.2-.31,4.665-2.176c0,0,.777-2.176-3.887-2.176H19.312s-4.665-.157-3.421,2.954c0,0,.154.776,2.642,2.8s4.51,5.752,4.821,12.283Z" fill="none"/>
        <path id="Trazado_26249" data-name="Trazado 26249" d="M136.2,90.015c0-3.149-7.851-2.837-7.851-2.837h-11.19a1.722,1.722,0,0,0,.8.149c5.714.117,13.855-.2,14.343,2.449.816,4.431-10.145,4.081-10.145,4.081l.233,110.541c-2.332,12.245-13.876,11.544-13.876,11.544H33.3a15.294,15.294,0,0,1-11.778-6.879l.02.351c1.56,4.38,5.006,8.828,12.584,8.828h85.833c14.926,0,13.837-17.258,13.837-17.258V106.3s.182-10.34.065-11.972a2.049,2.049,0,0,1,1.4-2.1A2.5,2.5,0,0,0,136.2,90.015Z" fill="#b5bdc2" opacity="0.5" style="mix-blend-mode: multiply;isolation: isolate"/>
      </g>
    </g>
  </g>
</svg>
