<svg xmlns="http://www.w3.org/2000/svg" width="505" height="193" viewBox="0 0 505 193">
  <g id="Grupo_178537" data-name="Grupo 178537" transform="translate(-548 -4378)">
    <rect id="Rectángulo_46711" data-name="Rectángulo 46711" width="505" height="193" rx="10" transform="translate(548 4378)" fill="#feedd3"/>
    <g id="Grupo_178536" data-name="Grupo 178536" transform="translate(271.86 120.839)">
      <g id="Grupo_15996" data-name="Grupo 15996" transform="translate(306 4278.161)">
        <g id="Grupo_15992" data-name="Grupo 15992" transform="translate(122.183 50.126)">
          <path id="Trazado_36628" data-name="Trazado 36628" d="M19.477-35.595h2.65v20.959H19.313L8.015-31.59v16.954H5.4V-35.595H8.179l11.3,16.88Zm11.73,21.241a4.979,4.979,0,0,1-3.208-1,3.608,3.608,0,0,1-1.258-3,4.262,4.262,0,0,1,.4-1.913A3.372,3.372,0,0,1,28.334-21.6a7.143,7.143,0,0,1,1.719-.826,15.893,15.893,0,0,1,2.225-.528l2.367-.387q1.3-.238,1.3-1.355a2.557,2.557,0,0,0-.915-2.181,3.73,3.73,0,0,0-2.315-.692,3.8,3.8,0,0,0-2.292.67,2.8,2.8,0,0,0-1.087,2.054l-2.322-.491a4.469,4.469,0,0,1,1.831-3.133,6.841,6.841,0,0,1,3.989-1.049,8.091,8.091,0,0,1,2.121.26,5.765,5.765,0,0,1,1.771.819,3.672,3.672,0,0,1,1.265,1.578,5.871,5.871,0,0,1,.454,2.4v6.043a2.473,2.473,0,0,0,.335,1.526,1.446,1.446,0,0,0,1.154.394h.238v1.861h-1.28q-2.367,0-2.769-1.98H36A5.592,5.592,0,0,1,31.207-14.353Zm.6-2.084a3.9,3.9,0,0,0,3.141-1.414,5.822,5.822,0,0,0,1.191-3.87l-3.87.744a5.21,5.21,0,0,0-2.27.811,1.887,1.887,0,0,0-.737,1.6,1.865,1.865,0,0,0,.707,1.608A3.023,3.023,0,0,0,31.8-16.437ZM72.871-17.7v-6.029H66.843v-2.114h6.029v-6h2.114v6h6v2.114h-6V-17.7Zm30.217,3.349a11.135,11.135,0,0,1-4.123-.752,9.958,9.958,0,0,1-3.312-2.114,9.429,9.429,0,0,1-2.2-3.4,12.3,12.3,0,0,1-.8-4.51,12.1,12.1,0,0,1,.8-4.488,9.649,9.649,0,0,1,2.2-3.4,9.724,9.724,0,0,1,3.3-2.114,11.233,11.233,0,0,1,4.123-.744,10.648,10.648,0,0,1,5.575,1.474,9.181,9.181,0,0,1,3.684,4.093L109.891-29.3a6.9,6.9,0,0,0-2.746-2.985,7.882,7.882,0,0,0-4.056-1.049,8.335,8.335,0,0,0-3.052.551A7.312,7.312,0,0,0,97.566-31.2a7.124,7.124,0,0,0-1.66,2.59,9.61,9.61,0,0,0-.6,3.483,9.67,9.67,0,0,0,.6,3.491,7.113,7.113,0,0,0,1.66,2.6,7.407,7.407,0,0,0,2.471,1.585,8.236,8.236,0,0,0,3.052.558,7.882,7.882,0,0,0,4.056-1.049,6.919,6.919,0,0,0,2.746-2.97l2.456,1a9.135,9.135,0,0,1-3.677,4.1A10.679,10.679,0,0,1,103.089-14.353Zm13.159-.283V-37.5h2.6v22.864Z" transform="translate(-5.396 43.064)" fill="#1ec488"/>
          <path id="Trazado_36629" data-name="Trazado 36629" d="M5.492-9.89v-3.617H1.875v-1.268H5.492v-3.6H6.76v3.6h3.6v1.268H6.76V-9.89ZM16.754-20.625H18.2V-8.05H16.674V-18.937L13.655-16.32v-1.652Z" transform="translate(31.951 20.625)" fill="#1ec488"/>
          <path id="Trazado_36630" data-name="Trazado 36630" d="M2.5-12.167v-1.277h6.4v1.277Zm13.183-8.458h1.447V-8.05H15.607V-18.937L12.588-16.32v-1.652Z" transform="translate(118.893 20.625)" fill="#1ec488"/>
        </g>
        <g id="Grupo_15995" data-name="Grupo 15995" transform="translate(0 115.136)">
          <g id="Grupo_15993" data-name="Grupo 15993" transform="translate(0 0)">
            <text id="Na_Cl" data-name="Na   + Cl" transform="translate(0.14 29.582)" fill="#1ec488" font-size="30" font-family="SegoeUI, Segoe UI"><tspan x="0" y="0" xml:space="preserve">Na   + Cl</tspan></text>
            <text id="_1" data-name="+1" transform="translate(36.14 13.582)" fill="#1ec488" font-size="18" font-family="SegoeUI, Segoe UI"><tspan x="0" y="0">+1</tspan></text>
            <text id="_-1" data-name="-1" transform="translate(123.14 13.582)" fill="#1ec488" font-size="18" font-family="SegoeUI, Segoe UI"><tspan x="0" y="0">-1</tspan></text>
          </g>
          <g id="Grupo_15994" data-name="Grupo 15994" transform="translate(159.356 13.446)">
            <path id="Trazado_23831" data-name="Trazado 23831" d="M493.683,1195.347l-25.192,1.819v-11.7l25.192,1.82Z" transform="translate(-468.491 -1181.622)" fill="#034768"/>
            <path id="Trazado_23832" data-name="Trazado 23832" d="M568.381,1178.021l-1.7-9.692,15.1,9.692-15.1,9.692Z" transform="translate(-544.676 -1168.329)" fill="#034768"/>
          </g>
          <path id="Trazado_36625" data-name="Trazado 36625" d="M19.477-34.556h2.65V-13.6H19.313L8.015-30.552V-13.6H5.4V-34.556H8.179l11.3,16.88Zm11.73,21.241a4.979,4.979,0,0,1-3.208-1,3.608,3.608,0,0,1-1.258-3,4.262,4.262,0,0,1,.4-1.913,3.372,3.372,0,0,1,1.191-1.332,7.143,7.143,0,0,1,1.719-.826,15.893,15.893,0,0,1,2.225-.528l2.367-.387q1.3-.238,1.3-1.355a2.557,2.557,0,0,0-.915-2.181,3.73,3.73,0,0,0-2.315-.692,3.8,3.8,0,0,0-2.292.67,2.8,2.8,0,0,0-1.087,2.054L27.009-24.3a4.469,4.469,0,0,1,1.831-3.133,6.841,6.841,0,0,1,3.989-1.049,8.091,8.091,0,0,1,2.121.26,5.765,5.765,0,0,1,1.771.819,3.672,3.672,0,0,1,1.265,1.578,5.871,5.871,0,0,1,.454,2.4v6.043a2.473,2.473,0,0,0,.335,1.526,1.446,1.446,0,0,0,1.154.394h.238V-13.6h-1.28q-2.367,0-2.769-1.98H36A5.592,5.592,0,0,1,31.207-13.315Zm.6-2.084a3.9,3.9,0,0,0,3.141-1.414,5.822,5.822,0,0,0,1.191-3.87l-3.87.744a5.21,5.21,0,0,0-2.27.811,1.887,1.887,0,0,0-.737,1.6,1.865,1.865,0,0,0,.707,1.608A3.023,3.023,0,0,0,31.8-15.4Zm21.643,2.084a11.135,11.135,0,0,1-4.123-.752A9.958,9.958,0,0,1,46.01-16.18a9.429,9.429,0,0,1-2.2-3.4,12.3,12.3,0,0,1-.8-4.51,12.1,12.1,0,0,1,.8-4.488,9.649,9.649,0,0,1,2.2-3.4,9.724,9.724,0,0,1,3.3-2.114,11.233,11.233,0,0,1,4.123-.744,10.648,10.648,0,0,1,5.575,1.474A9.181,9.181,0,0,1,62.7-29.272L60.248-28.26A6.9,6.9,0,0,0,57.5-31.244a7.882,7.882,0,0,0-4.056-1.049,8.335,8.335,0,0,0-3.052.551,7.312,7.312,0,0,0-2.471,1.578,7.124,7.124,0,0,0-1.66,2.59,9.61,9.61,0,0,0-.6,3.483,9.67,9.67,0,0,0,.6,3.491,7.113,7.113,0,0,0,1.66,2.6,7.407,7.407,0,0,0,2.471,1.585,8.236,8.236,0,0,0,3.052.558A7.882,7.882,0,0,0,57.5-16.909a6.919,6.919,0,0,0,2.746-2.97l2.456,1a9.135,9.135,0,0,1-3.677,4.1A10.679,10.679,0,0,1,53.446-13.315ZM67.274-13.6V-34.556h2.664V-13.6Z" transform="translate(211.292 44.692)" fill="#1ec488"/>
          <path id="Trazado_36626" data-name="Trazado 36626" d="M4.809-6.657A2.919,2.919,0,0,1,2.226-8.027a7.3,7.3,0,0,1-.908-4.019,7.335,7.335,0,0,1,.9-4.012,2.917,2.917,0,0,1,2.594-1.362,2.91,2.91,0,0,1,2.583,1.366,7.314,7.314,0,0,1,.9,4.008A7.281,7.281,0,0,1,7.38-8.03,2.913,2.913,0,0,1,4.809-6.657Zm0-1.191A1.773,1.773,0,0,0,6.439-8.9,6.842,6.842,0,0,0,7-12.046a6.649,6.649,0,0,0-.577-3.145,1.783,1.783,0,0,0-1.619-1.031,1.781,1.781,0,0,0-1.623,1.027,6.682,6.682,0,0,0-.573,3.148,6.878,6.878,0,0,0,.562,3.152A1.771,1.771,0,0,0,4.809-7.848Z" transform="translate(287.877 22.651)" fill="#1ec488"/>
          <path id="Trazado_36624" data-name="Trazado 36624" d="M3.293-2.917A4.449,4.449,0,0,1,1.64-5.1a9.431,9.431,0,0,1-.6-3.523,9.462,9.462,0,0,1,.6-3.521,4.448,4.448,0,0,1,1.653-2.186l.493.611A3.759,3.759,0,0,0,2.377-11.8a8.841,8.841,0,0,0-.52,3.186,8.828,8.828,0,0,0,.517,3.186,3.732,3.732,0,0,0,1.412,1.9ZM7.146-5.495A2.537,2.537,0,0,1,5.26-6.251a2.7,2.7,0,0,1-.745-1.977,2.7,2.7,0,0,1,.742-1.977,2.535,2.535,0,0,1,1.889-.756,2.556,2.556,0,0,1,1.525.461,2.326,2.326,0,0,1,.887,1.281l-.868.139a1.6,1.6,0,0,0-.595-.82,1.62,1.62,0,0,0-.954-.289,1.557,1.557,0,0,0-1.219.541,2.062,2.062,0,0,0-.48,1.42,2.052,2.052,0,0,0,.48,1.417,1.561,1.561,0,0,0,1.219.539,1.62,1.62,0,0,0,.954-.289,1.6,1.6,0,0,0,.595-.82l.868.145a2.328,2.328,0,0,1-.892,1.278A2.552,2.552,0,0,1,7.146-5.495Zm3.778-.1v-8.231h.938v8.231Zm5.043.1a2.777,2.777,0,0,1-1.35-.327,2.38,2.38,0,0,1-.951-.957,2.938,2.938,0,0,1-.351-1.455,2.684,2.684,0,0,1,.748-1.985,2.58,2.58,0,0,1,1.905-.748,2.578,2.578,0,0,1,1.908.748,2.689,2.689,0,0,1,.745,1.985,2.691,2.691,0,0,1-.748,1.991A2.58,2.58,0,0,1,15.967-5.49Zm-.005-.772A1.618,1.618,0,0,0,17.207-6.8a2.028,2.028,0,0,0,.5-1.425,2.02,2.02,0,0,0-.5-1.42,1.618,1.618,0,0,0-1.246-.541,1.6,1.6,0,0,0-1.235.541,2.034,2.034,0,0,0-.49,1.42,2.042,2.042,0,0,0,.49,1.425A1.6,1.6,0,0,0,15.961-6.261Zm5.016-3.671a1.593,1.593,0,0,1,.654-.707,1.969,1.969,0,0,1,1.013-.279v.873a1.736,1.736,0,0,0-1.224.391A1.634,1.634,0,0,0,21-8.4v2.813h-.927v-5.268h.906Zm6.034-.927h.927v5.268h-.89l-.021-.7a1.644,1.644,0,0,1-.654.592,2.011,2.011,0,0,1-.922.206,1.832,1.832,0,0,1-1.326-.477,1.779,1.779,0,0,1-.5-1.345v-3.547h.927v3.339a1.25,1.25,0,0,0,.324.943,1.148,1.148,0,0,0,.828.311,1.26,1.26,0,0,0,.935-.364,1.484,1.484,0,0,0,.367-1.077Zm3.719.927a1.593,1.593,0,0,1,.654-.707,1.969,1.969,0,0,1,1.013-.279v.873a1.736,1.736,0,0,0-1.224.391A1.634,1.634,0,0,0,30.751-8.4v2.813h-.927v-5.268h.906ZM35.639-5.49a2.777,2.777,0,0,1-1.35-.327,2.38,2.38,0,0,1-.951-.957,2.938,2.938,0,0,1-.351-1.455,2.684,2.684,0,0,1,.748-1.985,2.58,2.58,0,0,1,1.905-.748,2.578,2.578,0,0,1,1.908.748,2.689,2.689,0,0,1,.745,1.985,2.691,2.691,0,0,1-.748,1.991A2.58,2.58,0,0,1,35.639-5.49Zm-.005-.772A1.618,1.618,0,0,0,36.879-6.8a2.028,2.028,0,0,0,.5-1.425,2.02,2.02,0,0,0-.5-1.42,1.618,1.618,0,0,0-1.246-.541,1.6,1.6,0,0,0-1.235.541,2.034,2.034,0,0,0-.49,1.42A2.042,2.042,0,0,0,34.4-6.8,1.6,1.6,0,0,0,35.633-6.261Zm10.851-7.561h.927v8.231h-.895L46.5-6.615a1.938,1.938,0,0,1-.75.831,2.091,2.091,0,0,1-1.115.305,2.368,2.368,0,0,1-.954-.2,2.39,2.39,0,0,1-.785-.547,2.537,2.537,0,0,1-.531-.871,3.185,3.185,0,0,1-.2-1.131,2.77,2.77,0,0,1,.715-1.977,2.309,2.309,0,0,1,1.75-.761,2.1,2.1,0,0,1,1.1.3,1.949,1.949,0,0,1,.753.806Zm-1.661,7.54a1.577,1.577,0,0,0,1.224-.555,2,2,0,0,0,.5-1.385,2,2,0,0,0-.5-1.383,1.577,1.577,0,0,0-1.222-.557,1.612,1.612,0,0,0-1.233.539,1.981,1.981,0,0,0-.5,1.4,1.981,1.981,0,0,0,.5,1.4A1.612,1.612,0,0,0,44.823-6.283ZM53.907-8.33l-.011.252H49.78a1.861,1.861,0,0,0,.5,1.348,1.654,1.654,0,0,0,1.2.469,1.579,1.579,0,0,0,.873-.252,1.634,1.634,0,0,0,.6-.7l.836.177a2.376,2.376,0,0,1-.9,1.131,2.456,2.456,0,0,1-1.4.413,2.545,2.545,0,0,1-1.9-.734,2.731,2.731,0,0,1-.723-2,2.718,2.718,0,0,1,.726-2,2.513,2.513,0,0,1,1.868-.734,2.378,2.378,0,0,1,1.771.675A2.668,2.668,0,0,1,53.907-8.33Zm-2.438-1.918a1.643,1.643,0,0,0-1.1.372,1.706,1.706,0,0,0-.555,1.085h3.156a1.565,1.565,0,0,0-.461-1.085A1.488,1.488,0,0,0,51.468-10.248ZM59.876-5.49a2.5,2.5,0,0,1-1.42-.38,1.574,1.574,0,0,1-.691-1.082l.809-.23a1.129,1.129,0,0,0,.431.731,1.4,1.4,0,0,0,.865.26,1.727,1.727,0,0,0,.506-.07.812.812,0,0,0,.389-.26A.7.7,0,0,0,60.921-7a.7.7,0,0,0-.043-.217.93.93,0,0,0-.086-.174.531.531,0,0,0-.15-.145,1.979,1.979,0,0,0-.182-.113,1.87,1.87,0,0,0-.238-.1q-.158-.056-.255-.086l-.295-.086-.305-.088a5.714,5.714,0,0,1-.547-.193,2.4,2.4,0,0,1-.445-.255,1.024,1.024,0,0,1-.346-.415,1.405,1.405,0,0,1-.115-.589,1.362,1.362,0,0,1,.257-.841,1.447,1.447,0,0,1,.667-.5,2.667,2.667,0,0,1,.935-.153,2.289,2.289,0,0,1,1.283.343,1.464,1.464,0,0,1,.64,1.029l-.761.193a1.009,1.009,0,0,0-.4-.667,1.28,1.28,0,0,0-.756-.222,1.3,1.3,0,0,0-.707.185.621.621,0,0,0-.295.565.563.563,0,0,0,.078.292.928.928,0,0,0,.158.206.972.972,0,0,0,.289.158q.209.083.311.113t.386.1q.054.016.08.021.311.08.506.142a3.113,3.113,0,0,1,.455.193,1.514,1.514,0,0,1,.41.287,1.328,1.328,0,0,1,.257.407,1.438,1.438,0,0,1,.107.568,1.534,1.534,0,0,1-.158.71,1.237,1.237,0,0,1-.431.485,2.086,2.086,0,0,1-.614.265A2.923,2.923,0,0,1,59.876-5.49Zm5.616,0a2.777,2.777,0,0,1-1.35-.327,2.38,2.38,0,0,1-.951-.957,2.938,2.938,0,0,1-.351-1.455,2.684,2.684,0,0,1,.748-1.985,2.58,2.58,0,0,1,1.905-.748,2.578,2.578,0,0,1,1.908.748,2.689,2.689,0,0,1,.745,1.985A2.691,2.691,0,0,1,67.4-6.237,2.58,2.58,0,0,1,65.492-5.49Zm-.005-.772A1.618,1.618,0,0,0,66.733-6.8a2.028,2.028,0,0,0,.5-1.425,2.02,2.02,0,0,0-.5-1.42,1.618,1.618,0,0,0-1.246-.541,1.6,1.6,0,0,0-1.235.541,2.034,2.034,0,0,0-.49,1.42,2.042,2.042,0,0,0,.49,1.425A1.6,1.6,0,0,0,65.487-6.261Zm8-7.561h.927v8.231H73.52L73.5-6.615a1.938,1.938,0,0,1-.75.831,2.09,2.09,0,0,1-1.115.305,2.368,2.368,0,0,1-.954-.2,2.39,2.39,0,0,1-.785-.547,2.537,2.537,0,0,1-.531-.871,3.185,3.185,0,0,1-.2-1.131,2.77,2.77,0,0,1,.715-1.977,2.309,2.309,0,0,1,1.75-.761,2.1,2.1,0,0,1,1.1.3,1.949,1.949,0,0,1,.753.806Zm-1.661,7.54a1.577,1.577,0,0,0,1.224-.555,2,2,0,0,0,.5-1.385,2,2,0,0,0-.5-1.383,1.577,1.577,0,0,0-1.222-.557,1.612,1.612,0,0,0-1.233.539,1.981,1.981,0,0,0-.5,1.4,1.981,1.981,0,0,0,.5,1.4A1.612,1.612,0,0,0,71.826-6.283ZM76.772-12.1a.6.6,0,0,1-.442-.185.6.6,0,0,1-.185-.442.6.6,0,0,1,.185-.439.608.608,0,0,1,.442-.182.6.6,0,0,1,.437.182.6.6,0,0,1,.185.439.6.6,0,0,1-.185.442A.6.6,0,0,1,76.772-12.1ZM76.3-5.591v-5.268h.932v5.268Zm5.037.1a2.777,2.777,0,0,1-1.35-.327,2.38,2.38,0,0,1-.951-.957,2.938,2.938,0,0,1-.351-1.455,2.684,2.684,0,0,1,.748-1.985,2.58,2.58,0,0,1,1.905-.748,2.578,2.578,0,0,1,1.908.748,2.689,2.689,0,0,1,.745,1.985,2.691,2.691,0,0,1-.748,1.991A2.58,2.58,0,0,1,81.338-5.49Zm-.005-.772A1.618,1.618,0,0,0,82.579-6.8a2.028,2.028,0,0,0,.5-1.425,2.02,2.02,0,0,0-.5-1.42,1.618,1.618,0,0,0-1.246-.541,1.6,1.6,0,0,0-1.235.541,2.034,2.034,0,0,0-.49,1.42A2.042,2.042,0,0,0,80.1-6.8,1.6,1.6,0,0,0,81.333-6.261Zm9.447-4.7a1.832,1.832,0,0,1,1.326.477,1.779,1.779,0,0,1,.5,1.345v3.547h-.927V-8.93a1.245,1.245,0,0,0-.322-.943,1.149,1.149,0,0,0-.825-.305,1.274,1.274,0,0,0-.938.362,1.468,1.468,0,0,0-.37,1.074v3.151h-.927v-5.268h.927v.675A1.759,1.759,0,0,1,90.78-10.961ZM99-8.33l-.011.252H94.874a1.861,1.861,0,0,0,.5,1.348,1.654,1.654,0,0,0,1.2.469,1.579,1.579,0,0,0,.873-.252,1.634,1.634,0,0,0,.6-.7l.836.177a2.376,2.376,0,0,1-.9,1.131,2.456,2.456,0,0,1-1.4.413,2.545,2.545,0,0,1-1.9-.734,2.731,2.731,0,0,1-.723-2,2.718,2.718,0,0,1,.726-2,2.513,2.513,0,0,1,1.868-.734,2.378,2.378,0,0,1,1.771.675A2.668,2.668,0,0,1,99-8.33Zm-2.438-1.918a1.643,1.643,0,0,0-1.1.372,1.706,1.706,0,0,0-.555,1.085h3.156a1.565,1.565,0,0,0-.461-1.085A1.488,1.488,0,0,0,96.562-10.248Zm7.17-.611h.927v5.268h-.89l-.021-.7a1.644,1.644,0,0,1-.654.592,2.011,2.011,0,0,1-.922.206,1.832,1.832,0,0,1-1.326-.477,1.779,1.779,0,0,1-.5-1.345v-3.547h.927v3.339a1.25,1.25,0,0,0,.324.943,1.148,1.148,0,0,0,.828.311,1.26,1.26,0,0,0,.935-.364,1.484,1.484,0,0,0,.367-1.077Zm4.5,5.268a1.385,1.385,0,0,1-1.029-.378,1.429,1.429,0,0,1-.375-1.053v-3.1h-1.077v-.74h.4a.761.761,0,0,0,.581-.185.91.91,0,0,0,.169-.619v-.954h.863v1.758h1.211v.74h-1.211v3a.8.8,0,0,0,.2.581.7.7,0,0,0,.528.206h.482v.74Zm2.985-4.341a1.593,1.593,0,0,1,.654-.707,1.969,1.969,0,0,1,1.013-.279v.873a1.736,1.736,0,0,0-1.224.391,1.634,1.634,0,0,0-.421,1.249v2.813h-.927v-5.268h.906Zm4.909,4.442a2.777,2.777,0,0,1-1.35-.327,2.38,2.38,0,0,1-.951-.957,2.938,2.938,0,0,1-.351-1.455,2.684,2.684,0,0,1,.748-1.985,2.58,2.58,0,0,1,1.905-.748,2.578,2.578,0,0,1,1.908.748,2.689,2.689,0,0,1,.745,1.985,2.691,2.691,0,0,1-.748,1.991A2.58,2.58,0,0,1,116.122-5.49Zm-.005-.772a1.618,1.618,0,0,0,1.246-.541,2.028,2.028,0,0,0,.5-1.425,2.02,2.02,0,0,0-.5-1.42,1.618,1.618,0,0,0-1.246-.541,1.6,1.6,0,0,0-1.235.541,2.034,2.034,0,0,0-.49,1.42,2.042,2.042,0,0,0,.49,1.425A1.6,1.6,0,0,0,116.116-6.261Zm3.89,3.344-.493-.616a3.732,3.732,0,0,0,1.412-1.9,8.828,8.828,0,0,0,.517-3.186,8.841,8.841,0,0,0-.52-3.186,3.759,3.759,0,0,0-1.409-1.91l.493-.611a4.448,4.448,0,0,1,1.653,2.186,9.462,9.462,0,0,1,.6,3.521,9.431,9.431,0,0,1-.6,3.523A4.449,4.449,0,0,1,120.007-2.917Z" transform="translate(322.74 32.419)" fill="#00223d"/>
        </g>
        <path id="Trazado_36627" data-name="Trazado 36627" d="M0,45.017s46.074-70.828,129.79-34.8A168.465,168.465,0,0,1,148.756,19.9" transform="translate(122.039 0) rotate(8)" fill="none" stroke="#ff8f00" stroke-width="3"/>
        <path id="Polígono_7" data-name="Polígono 7" d="M7.621,0l7.621,13.414H0Z" transform="translate(279.317 44.373) rotate(135)" fill="#ff8f00"/>
      </g>
    </g>
  </g>
</svg>
