<svg xmlns="http://www.w3.org/2000/svg" xmlns:xlink="http://www.w3.org/1999/xlink" width="92" height="92" viewBox="0 0 92 92">
  <defs>
    <clipPath id="clip-path">
      <rect id="Rectángulo_46553" data-name="Rectángulo 46553" width="66.437" height="67.054" fill="#31313c"/>
    </clipPath>
  </defs>
  <g id="Grupo_178116" data-name="Grupo 178116" transform="translate(-335 -7314)">
    <circle id="Elipse_4914" data-name="Elipse 4914" cx="46" cy="46" r="46" transform="translate(335 7314)" fill="#f9a829"/>
    <g id="Grupo_178115" data-name="Grupo 178115" transform="translate(-281 132)">
      <g id="Grupo_178114" data-name="Grupo 178114" transform="translate(629 7194)">
        <g id="Grupo_178113" data-name="Grupo 178113" clip-path="url(#clip-path)">
          <path id="Trazado_186287" data-name="Trazado 186287" d="M30.993,6.675a1.141,1.141,0,0,1,.383.909c-.019,1.811-.008,3.623-.008,5.435,0,1.38,0,1.35,1.395,1.385.526.013.6-.17.591-.63-.023-2.073,0-4.147-.017-6.22a1.01,1.01,0,0,1,.328-.8C34.7,5.746,35.707,4.72,36.725,3.7c.959-.959.937-.938.028-1.908-.377-.4-.583-.39-.949.007-.756.821-1.569,1.589-2.474,2.495V0H31.364V4.313c-.717-.735-1.3-1.346-1.9-1.947-1.027-1.034-1.017-1.018-2.049-.006-.308.3-.308.463,0,.762,1.205,1.17,2.375,2.378,3.577,3.552" transform="translate(-10.51)" fill="#31313c"/>
          <path id="Trazado_186288" data-name="Trazado 186288" d="M88.748,45.875a1.309,1.309,0,0,1-.478-1.059q.021-9.33.009-18.661c0-3.033,0-6.067,0-9.1-.006-3.23.08-6.464-.06-9.688A7.508,7.508,0,0,0,77.586,1.01a7.4,7.4,0,0,0-4.466,7.22q0,18.269.012,36.536a1.336,1.336,0,0,1-.5,1.113A11.891,11.891,0,0,0,68.507,55,12.131,12.131,0,0,0,82.259,67.055a11.563,11.563,0,0,0,10.046-8.467c1.519-4.892.194-9.2-3.558-12.713m1.7,12.11a2.581,2.581,0,0,1-.136.293,9.6,9.6,0,0,1-4.559,5.581,10.215,10.215,0,0,1-14.631-5.322,3.689,3.689,0,0,1-.093-.378,9.9,9.9,0,0,1,1.348-9.075A9.053,9.053,0,0,1,74.609,46.8a1.109,1.109,0,0,0,.5-1.03q-.019-18.7-.017-37.391a6.1,6.1,0,0,1,1.45-4.221,5.575,5.575,0,0,1,9.705,3.23c.026.413.04.829.04,1.243q0,18.532-.008,37.064a1.3,1.3,0,0,0,.547,1.148,10.147,10.147,0,0,1,3.623,11.139" transform="translate(-26.485 -0.12)" fill="#31313c"/>
          <path id="Trazado_186289" data-name="Trazado 186289" d="M24.353,34.758c0,1.2.006,2.4,0,3.6a.6.6,0,0,0,.32.633q3.147,1.791,6.27,3.623a.563.563,0,0,0,.652,0q3.126-1.827,6.269-3.626a.612.612,0,0,0,.337-.628c-.008-2.377-.011-4.753,0-7.13a.663.663,0,0,0-.394-.664q-3.089-1.761-6.159-3.555a.645.645,0,0,0-.759,0q-3.066,1.8-6.158,3.556a.654.654,0,0,0-.386.662c.02,1.177.008,2.355.008,3.532m1.968-2.476a.557.557,0,0,1,.35-.551q2.125-1.213,4.235-2.45a.616.616,0,0,1,.713,0q2.108,1.242,4.236,2.45a.561.561,0,0,1,.35.553c-.025,1.306-.028,2.612-.04,3.918a1.666,1.666,0,0,1-1.1,2.14,35.9,35.9,0,0,0-3.395,1.94.692.692,0,0,1-.82,0c-1.251-.746-2.5-1.5-3.786-2.179a1.125,1.125,0,0,1-.744-1.315,4.406,4.406,0,0,0,.029-.585c-.009-1.307-.008-2.613-.031-3.919" transform="translate(-9.412 -10.394)" fill="#31313c"/>
          <path id="Trazado_186290" data-name="Trazado 186290" d="M15.065,83.175a3.779,3.779,0,0,0-.623-.355c-.361-.147-.387-.416-.446-.766a1.669,1.669,0,0,1,1.223-2.084c.141-.05.258-.17.4-.22.605-.211.624-.5.282-1.032-.668-1.037-.682-1.129-1.7-.411a1.741,1.741,0,0,1-2.371-.017.873.873,0,0,1-.458-.824c.035-.566,0-1.134.012-1.7,0-.229-.045-.336-.317-.366-1.619-.18-1.656-.158-1.656,1.448a.657.657,0,0,0,0,.13,1.3,1.3,0,0,1-.875,1.567c-.558.282-.988.429-1.511,0-.264-.22-.616-.331-.892-.539-.444-.334-.683-.294-.961.241-.6,1.155-.674,1.221.5,1.759A1.723,1.723,0,0,1,6.8,82.023c-.043.383-.1.636-.474.816-.507.246-.975.572-1.476.835-.251.133-.274.247-.146.5.734,1.448.727,1.451,2.119.65a2.184,2.184,0,0,0,.339-.2c.4-.345.747-.232,1.214-.029a1.523,1.523,0,0,1,1.043,1.86c-.04.232.019.482-.011.718-.063.487.078.667.616.651,1.361-.041,1.361-.011,1.361-1.5-.278-.834.209-1.388,1.08-1.722a.4.4,0,0,0,.112-.066.677.677,0,0,1,.927,0c.471.312.972.578,1.464.857.133.075.282.24.418-.012.268-.494.718-.973.753-1.481.024-.332-.7-.48-1.072-.728m-4.515.254a.368.368,0,0,1-.36-.039,1.239,1.239,0,0,0-.284-.159,1.58,1.58,0,0,1-1.13-2.1c-.067-.282-.033-.516.281-.633a1.582,1.582,0,0,0,.226-.131c1.184-.686,1.467-.654,2.573.191.232.178.18.363.161.573.007.064.021.129.023.194a1.787,1.787,0,0,1-1.489,2.108" transform="translate(-1.788 -29.121)" fill="#31313c"/>
          <path id="Trazado_186291" data-name="Trazado 186291" d="M58.852,96.206c-.539-.284-1.062-.6-1.584-.912-.136-.082-.342-.111-.339-.347a8.1,8.1,0,0,1,.049-1.691c.075-.323.578-.413.895-.6,1.378-.8,1.372-.8.48-2.174-.156-.241-.267-.261-.5-.12-.519.318-1.056.608-1.58.919a.559.559,0,0,1-.588.078c-.938-.426-1.7-.938-1.4-2.168a6.891,6.891,0,0,0,.014-.782c.045-.39-.123-.5-.48-.458a3.67,3.67,0,0,1-.458,0c-1.043,0-1.078,0-1.032,1.058.041.945.05,1.773-1.084,2.173-.454.161-.759.255-1.167-.033a15.641,15.641,0,0,0-1.35-.792c-.137-.077-.289-.227-.423.023-.265.495-.713.975-.746,1.483-.021.329.7.482,1.077.725.238.153.489.286.733.428.129.075.3.129.3.309a7.839,7.839,0,0,1-.045,1.691c-.075.343-.572.422-.885.607-1.4.823-1.393.812-.5,2.17.158.241.257.279.5.129.517-.321,1.052-.613,1.581-.915.147-.084.292-.228.478-.123a7.478,7.478,0,0,1,1.438.882c.248.231.051.71.082,1.076,0,.043,0,.087,0,.131,0,1.38,0,1.362,1.4,1.375.439,0,.628-.085.589-.566-.044-.542-.015-1.09-.007-1.635,0-.163-.074-.363.121-.474a7.745,7.745,0,0,1,1.491-.79c.321-.1.647.292.964.473,1.388.793,1.378.792,2.127-.67.13-.254.1-.356-.15-.486m-3.928-1.25c-.02.363-.5.427-.786.593s-.579.534-.913.407a3.548,3.548,0,0,1-1.444-.843c-.321-.375-.109-.994-.09-1.508a.457.457,0,0,1,.252-.577c1.35-.872,1.383-.879,2.9.155a3.718,3.718,0,0,1,.08,1.773" transform="translate(-18.387 -34)" fill="#31313c"/>
          <path id="Trazado_186292" data-name="Trazado 186292" d="M1,23.8c1.634-.458,3.28-.875,4.913-1.337a1.067,1.067,0,0,1,.919.118c1.537.907,3.088,1.792,4.634,2.684,1.28.738,1.265.729,2.012-.56.2-.344.177-.477-.177-.675-1.8-1.014-3.583-2.066-5.381-3.088a1.261,1.261,0,0,1-.686-.869c-.326-1.353-.711-2.693-1.078-4.036s-.36-1.31-1.7-.981c-.469.115-.572.28-.43.744.332,1.091.605,2.2.935,3.42l-2.435-1.4c-1.283-.739-1.269-.731-2.016.553-.2.348-.172.5.181.69,1.063.583,2.106,1.2,3.275,1.879-.957.255-1.793.475-2.627.7-1.387.375-1.373.373-1,1.784.106.4.269.486.662.377" transform="translate(-0.048 -5.749)" fill="#31313c"/>
          <path id="Trazado_186293" data-name="Trazado 186293" d="M4.215,56.023c-.367,1.4-.358,1.367,1.034,1.768.5.143.57-.054.67-.436.414-1.6.868-3.192,1.27-4.8a1.2,1.2,0,0,1,.626-.84c1.538-.864,3.058-1.758,4.586-2.639,1.282-.74,1.265-.729.54-2.016-.216-.383-.383-.374-.722-.174-1.782,1.05-3.581,2.07-5.365,3.117a1.219,1.219,0,0,1-1.036.153c-1.318-.377-2.647-.716-3.971-1.073C.4,48.695.406,48.695.042,50.124c-.093.363-.057.526.36.624,1.135.267,2.252.6,3.509.939-.867.5-1.632.948-2.4,1.39-1.327.767-1.321.761-.532,2.07.176.294.289.38.63.171,1.051-.646,2.133-1.238,3.3-1.906-.25.937-.475,1.774-.694,2.611" transform="translate(0 -18.075)" fill="#31313c"/>
          <path id="Trazado_186294" data-name="Trazado 186294" d="M50.593,25.684c1.778-1.057,3.582-2.07,5.365-3.116a1.12,1.12,0,0,1,.975-.142c1.358.393,2.731.738,4.1,1.1,1.321.349,1.3.343,1.673-.925.144-.492.074-.693-.474-.812-1.095-.236-2.168-.571-3.356-.894.886-.514,1.655-.962,2.426-1.408,1.28-.74,1.262-.73.521-2.027-.209-.367-.36-.369-.691-.169-1.039.628-2.1,1.221-3.251,1.884.254-.973.465-1.795.683-2.614.369-1.389.366-1.371-1.013-1.757-.412-.116-.561-.044-.667.379-.415,1.646-.885,3.278-1.3,4.923a1.071,1.071,0,0,1-.562.734c-1.572.891-3.133,1.8-4.7,2.7-1.211.7-1.194.686-.5,1.925.22.4.377.455.778.217" transform="translate(-19.076 -5.704)" fill="#31313c"/>
          <path id="Trazado_186295" data-name="Trazado 186295" d="M33.2,66.252l2.9,3.017c.432-.465.753-.856,1.123-1.192.281-.255.253-.4-.007-.651-1.233-1.205-2.438-2.439-3.669-3.647a1.077,1.077,0,0,1-.358-.851c.017-1.789.008-3.58.008-5.369,0-1.451,0-1.43-1.459-1.441-.445,0-.53.14-.526.55.02,2.052,0,4.1.017,6.155a1.273,1.273,0,0,1-.413,1.026c-1.319,1.271-2.611,2.571-4.01,3.956a7.723,7.723,0,0,1,.66.52c.837.825.833.829,1.664,0l2.038-2.038a2.1,2.1,0,0,1,.05.247q0,1.277,0,2.554c0,1.458,0,1.441,1.477,1.434.407,0,.517-.115.509-.515-.026-1.21-.009-2.42-.009-3.752" transform="translate(-10.364 -21.695)" fill="#31313c"/>
          <path id="Trazado_186296" data-name="Trazado 186296" d="M62.177,54.469c.287-.465.224-.673-.247-.924C60.9,53,59.9,52.388,58.806,51.756c.936-.256,1.749-.48,2.562-.7,1.457-.4,1.443-.391,1.041-1.854-.1-.37-.222-.418-.583-.315-1.611.458-3.238.868-4.851,1.319a1.345,1.345,0,0,1-1.157-.158c-1.492-.9-3.011-1.752-4.519-2.624-1.268-.733-1.251-.723-1.983.506-.237.4-.157.558.226.773,1.8,1.015,3.582,2.07,5.381,3.091a1.137,1.137,0,0,1,.606.778c.332,1.33.7,2.65,1.062,3.974.125.459.131,1.131.431,1.317.358.221.924-.2,1.413-.275.386-.059.432-.2.326-.566-.332-1.145-.617-2.3-.943-3.544.905.52,1.733.994,2.56,1.47,1.134.653,1.107.638,1.8-.48" transform="translate(-19.014 -18.143)" fill="#31313c"/>
          <path id="Trazado_186297" data-name="Trazado 186297" d="M40.242,93.362c0-1.011,0-1.011-.711-1.011-1.262,0-1.262,0-1.263.718,0,1.274,0,1.274.773,1.274,1.2,0,1.2,0,1.2-.98" transform="translate(-14.794 -35.703)" fill="#31313c"/>
          <path id="Trazado_186298" data-name="Trazado 186298" d="M53.1,70.988c0,1.215,0,1.215.773,1.216,1.226,0,1.226,0,1.226-.96,0-1.018,0-1.018-.773-1.018-1.225,0-1.225,0-1.226.762" transform="translate(-20.527 -27.15)" fill="#31313c"/>
          <path id="Trazado_186299" data-name="Trazado 186299" d="M21.655,68.94c-1.246-.012-1.246,0-1.246.736,0,1.24,0,1.24.812,1.24,1.181,0,1.181,0,1.181-1-.015-1.129.129-.966-.747-.975" transform="translate(-7.89 -26.651)" fill="#31313c"/>
          <path id="Trazado_186300" data-name="Trazado 186300" d="M53.659,57.714c-1.207-.009-1.207,0-1.207.783,0,1.2,0,1.2.854,1.2,1.143,0,1.143,0,1.143-.981-.015-1.144.135-1-.789-1.006" transform="translate(-20.278 -22.311)" fill="#31313c"/>
          <path id="Trazado_186301" data-name="Trazado 186301" d="M23.775,55.995c-1.206-.01-1.206,0-1.207.779,0,1.207,0,1.207.848,1.207,1.143,0,1.143,0,1.143-.978-.016-1.156.136-1-.785-1.008" transform="translate(-8.725 -21.646)" fill="#31313c"/>
          <path id="Trazado_186302" data-name="Trazado 186302" d="M4.946,71.787c0,1.275,0,1.275.748,1.275,1.222,0,1.222,0,1.222-.931,0-1.043,0-1.043-.715-1.044-1.254,0-1.254,0-1.255.7" transform="translate(-1.912 -27.482)" fill="#31313c"/>
          <path id="Trazado_186303" data-name="Trazado 186303" d="M62.628,75.33c0-1.024,0-1.024-.743-1.024-1.234,0-1.234,0-1.234.723,0,1.251,0,1.251.769,1.251,1.207,0,1.207,0,1.207-.95" transform="translate(-23.448 -28.727)" fill="#31313c"/>
          <path id="Trazado_186304" data-name="Trazado 186304" d="M2.588,41.479c0,1.261,0,1.261.7,1.261,1.276,0,1.276,0,1.276-.748,0-1.226,0-1.226-.925-1.226-1.049,0-1.049,0-1.049.713" transform="translate(-1.001 -15.76)" fill="#31313c"/>
          <path id="Trazado_186305" data-name="Trazado 186305" d="M49.651,80.255c0,1.169,0,1.169.8,1.169,1.182,0,1.182,0,1.182-.973,0-1,0-1-.694-1-1.291,0-1.291,0-1.291.808" transform="translate(-19.195 -30.714)" fill="#31313c"/>
          <path id="Trazado_186306" data-name="Trazado 186306" d="M56.348,38.357c0,1.162,0,1.162.952,1.162,1.031,0,1.031,0,1.031-.76,0-1.222,0-1.222-.764-1.222-1.219,0-1.219,0-1.219.82" transform="translate(-21.784 -14.512)" fill="#31313c"/>
          <path id="Trazado_186307" data-name="Trazado 186307" d="M32.977,87.36c-.1-1.253-.024-1.259-.814-1.259-1.186,0-1.186,0-1.186.8,0,1.188,0,1.188.983,1.188.485-.031,1.1.253,1.018-.726" transform="translate(-11.976 -33.287)" fill="#31313c"/>
          <path id="Trazado_186308" data-name="Trazado 186308" d="M45.725,63.759c-1.234,0-1.234,0-1.234.754,0,1.237,0,1.237.817,1.238,1.162,0,1.162,0,1.162-1.021,0-.97,0-.97-.745-.971" transform="translate(-17.2 -24.649)" fill="#31313c"/>
          <path id="Trazado_186309" data-name="Trazado 186309" d="M11.8,36.353c0,1.231,0,1.231.819,1.232,1.157,0,1.157,0,1.157-.957,0-1.028,0-1.028-.749-1.028-1.228,0-1.228,0-1.228.753" transform="translate(-4.564 -13.763)" fill="#31313c"/>
          <path id="Trazado_186310" data-name="Trazado 186310" d="M67.308,35.883c0,1.271,0,1.271.776,1.271,1.195,0,1.195,0,1.195-.981,0-1,0-1-.709-1-1.261,0-1.261,0-1.262.709" transform="translate(-26.021 -13.598)" fill="#31313c"/>
          <path id="Trazado_186311" data-name="Trazado 186311" d="M65,43.75c-1.352.03-1.353.008-1.345,1.4a1.209,1.209,0,0,1,0,.194c-.05.322.1.424.4.39a4.731,4.731,0,0,1,.52,0c1.056,0,1.056,0,1.056-1.032a1.846,1.846,0,0,1,0-.324c.1-.524-.138-.638-.632-.627" transform="translate(-24.604 -16.913)" fill="#31313c"/>
          <path id="Trazado_186312" data-name="Trazado 186312" d="M5.566,99.038c-1.265,0-1.265,0-1.265.758,0,1.224,0,1.224.936,1.224,1.037,0,1.037,0,1.037-.732,0-1.249,0-1.249-.707-1.25" transform="translate(-1.663 -38.288)" fill="#31313c"/>
          <path id="Trazado_186313" data-name="Trazado 186313" d="M32.8,101.622c-1.18,0-1.18,0-1.18.777,0,1.2,0,1.2.958,1.2,1.019,0,1.019,0,1.019-.75,0-1.226,0-1.226-.8-1.226" transform="translate(-12.224 -39.287)" fill="#31313c"/>
          <path id="Trazado_186314" data-name="Trazado 186314" d="M16.275,103.127c-1.03,0-1.03,0-1.03.755,0,1.219,0,1.219.764,1.219,1.216,0,1.216,0,1.216-.888,0-1.086,0-1.086-.95-1.086" transform="translate(-5.894 -39.869)" fill="#31313c"/>
          <path id="Trazado_186315" data-name="Trazado 186315" d="M42.094,105.486c-1.037,0-1.037,0-1.037.727,0,1.246,0,1.246.712,1.247,1.262,0,1.262,0,1.262-.824,0-1.15,0-1.15-.937-1.15" transform="translate(-15.873 -40.781)" fill="#31313c"/>
          <path id="Trazado_186316" data-name="Trazado 186316" d="M27.657,94.726c-1.2,0-1.2,0-1.2.842,0,1.145,0,1.145.971,1.145,1.157-.015,1,.139,1.009-.781.01-1.206,0-1.206-.779-1.207" transform="translate(-10.228 -36.621)" fill="#31313c"/>
          <path id="Trazado_186317" data-name="Trazado 186317" d="M32.124,36.529c-.431-.734-.356-.641.316-1.184,1.224-.989,2.257-.845,3.517.007.852.576,1.45,1.049,1.162,1.959,0,1.716,0,1.706-1.524,1.641-.332-.014-.482-.1-.451-.449.021-.237.006-.478,0-.718a.932.932,0,0,0-1.451-.849c-.995.575-.995.575-1.571-.407" transform="translate(-12.315 -13.398)" fill="#31313c"/>
          <path id="Trazado_186318" data-name="Trazado 186318" d="M14.632,84.769c-.531-.12-.864.285-1.25.507a.622.622,0,0,1-.74,0c-.386-.223-.721-.624-1.25-.509.529.282,1.061.789,1.587.784.553-.006,1.1-.5,1.652-.784" transform="translate(-4.404 -32.764)" fill="#31313c"/>
          <path id="Trazado_186319" data-name="Trazado 186319" d="M57.447,96.485c-.1.058-.129.17-.194.255a1.556,1.556,0,0,1-2.135.481c-.259-.134-.483-.388-.825-.314.355.207.715.406,1.064.621a1.591,1.591,0,0,0,2.089-1.043" transform="translate(-20.99 -37.301)" fill="#31313c"/>
          <path id="Trazado_186320" data-name="Trazado 186320" d="M87.345,72.357a.979.979,0,0,1-.543-.986c.034-1.178.011-2.357.011-3.536,0-1.223-.02-2.445.01-3.666.012-.472-.1-.64-.606-.633-2.008.031-4.017.034-6.024,0-.548-.01-.634.186-.63.669.021,2.4,0,4.8.021,7.2a.971.971,0,0,1-.562.97,8.212,8.212,0,0,0-.656,13.7A8.2,8.2,0,0,0,91.373,80.1a7.914,7.914,0,0,0-4.028-7.739m2.063,7.763a6.5,6.5,0,0,1-.156.765h0a5.932,5.932,0,0,1-4.37,4.562,6.018,6.018,0,0,1-6.215-1.705,5.75,5.75,0,0,1-1.507-2.7,6.275,6.275,0,0,1,3.907-7.487.666.666,0,0,0,.488-.767c-.021-2.181.018-4.363-.028-6.543-.013-.631.194-.769.762-.726a12.163,12.163,0,0,0,1.831,0c.548-.042.743.086.731.695-.044,2.181,0,4.362-.028,6.544a.723.723,0,0,0,.531.811,6.248,6.248,0,0,1,4.054,6.553" transform="translate(-28.987 -24.563)" fill="#31313c"/>
          <path id="Trazado_186321" data-name="Trazado 186321" d="M86.146,30.261c1.088-.02,2.176-.007,3.264-.007,1.523,0,1.523,0,1.454-1.529a.393.393,0,0,1,0-.066c.037-.32-.123-.416-.421-.411-.74.011-1.48,0-2.22,0h-1.24c-1.438,0-1.419,0-1.408,1.46,0,.444.162.556.571.548" transform="translate(-33.082 -10.921)" fill="#31313c"/>
          <path id="Trazado_186322" data-name="Trazado 186322" d="M86.1,17.352c1.11-.025,2.222-.009,3.333-.009,1.507,0,1.5,0,1.444-1.535-.012-.344-.11-.452-.45-.442-.718.021-1.437.007-2.156.007H87.025c-1.48,0-1.464,0-1.446,1.467,0,.4.118.521.517.512" transform="translate(-33.084 -5.94)" fill="#31313c"/>
          <path id="Trazado_186323" data-name="Trazado 186323" d="M86.031,56.043c.718-.018,1.436-.006,2.154-.006h1.24c1.513,0,1.5,0,1.436-1.548-.015-.35-.129-.443-.46-.439-1.131.015-2.262.006-3.393.006-1.524,0-1.512,0-1.44,1.549.016.351.136.445.464.437" transform="translate(-33.071 -20.896)" fill="#31313c"/>
          <path id="Trazado_186324" data-name="Trazado 186324" d="M86.022,43.169c.74-.021,1.481-.007,2.221-.006h1.176c1.473,0,1.457,0,1.445-1.47,0-.4-.118-.521-.516-.513-1.11.024-2.22.008-3.331.008-1.524,0-1.513,0-1.445,1.535.015.337.11.455.451.445" transform="translate(-33.073 -15.92)" fill="#31313c"/>
          <path id="Trazado_186325" data-name="Trazado 186325" d="M91.152,21.792a3.9,3.9,0,0,1-.587,0c-.548-.083-.7.139-.684.679.033,1.3.006,1.305,1.292,1.305a6.936,6.936,0,0,1,.783,0c.46.053.588-.127.585-.582-.009-1.4.01-1.4-1.388-1.4" transform="translate(-34.748 -8.417)" fill="#31313c"/>
          <path id="Trazado_186326" data-name="Trazado 186326" d="M91.457,34.74a6.716,6.716,0,0,1-.846-.006c-.551-.07-.758.1-.735.7.047,1.285.011,1.286,1.315,1.286,1.337,0,1.337,0,1.337-.92,0-1.058,0-1.058-1.07-1.058" transform="translate(-34.745 -13.422)" fill="#31313c"/>
          <path id="Trazado_186327" data-name="Trazado 186327" d="M91.089,47.611a3.374,3.374,0,0,1-.523,0c-.543-.086-.7.121-.686.671.036,1.306.007,1.307,1.289,1.307.283,0,.569-.021.85.006.4.039.516-.107.52-.51.015-1.468.031-1.468-1.45-1.468" transform="translate(-34.748 -18.398)" fill="#31313c"/>
          <path id="Trazado_186328" data-name="Trazado 186328" d="M35.145,37.784c0,.24.018.48,0,.718-.031.347.119.435.451.449,1.525.065,1.524.075,1.524-1.641.288-.91-.31-1.383-1.162-1.959-1.259-.852-2.293-1-3.517-.007-.672.543-.747.451-.316,1.184.576.981.576.981,1.571.407a.933.933,0,0,1,1.451.849" transform="translate(-12.315 -13.398)" fill="#31313c"/>
          <path id="Trazado_186329" data-name="Trazado 186329" d="M88.539,85.1c0-1.5,0-1.489-1.495-1.438-.37.013-.491.129-.485.494.018,1.022.007,2.045.006,3.068v2.284c0,1.414,0,1.4,1.4,1.4.455,0,.594-.129.588-.588-.025-1.74-.01-3.481-.01-5.221" transform="translate(-33.464 -32.337)" fill="#31313c"/>
          <path id="Trazado_186330" data-name="Trazado 186330" d="M93.658,87.358c-1.34.026-1.34,0-1.34,1.332a6.833,6.833,0,0,1,0,.718c-.047.439.1.608.571.608,1.408,0,1.408.022,1.408-1.4a4.8,4.8,0,0,1,0-.587c.063-.5-.1-.683-.639-.672" transform="translate(-35.686 -33.773)" fill="#31313c"/>
          <path id="Trazado_186331" data-name="Trazado 186331" d="M82.582,87.578c-1.395.006-1.395-.013-1.395,1.408v.131c0,.841,0,.841.84.842,1.131,0,1.131,0,1.131-1.137a5.392,5.392,0,0,1,0-.653c.057-.458-.122-.592-.581-.59" transform="translate(-31.387 -33.858)" fill="#31313c"/>
        </g>
      </g>
    </g>
  </g>
</svg>
