<svg xmlns="http://www.w3.org/2000/svg" width="235.244" height="184.333" viewBox="0 0 235.244 184.333">
  <g id="Grupo_178779" data-name="Grupo 178779" transform="translate(-896.19 -7777.52)">
    <path id="Trazado_187526" data-name="Trazado 187526" d="M-108.247,0h-2.93l-5.7-9.355V0h-2.93V-14.219h2.93l5.713,9.375v-9.375h2.92Zm8.7-1.074A3.539,3.539,0,0,1-102.437.2a3.338,3.338,0,0,1-2.593-.977,4.169,4.169,0,0,1-.913-2.861v-6.924h2.822v6.834q0,1.652,1.5,1.652a2.038,2.038,0,0,0,1.973-1v-7.489h2.832V0h-2.656ZM-100.806-15h3.076l-2.705,3.027h-2.295Zm8.77,4.434.088,1.182a3.713,3.713,0,0,1,3.037-1.377,2.818,2.818,0,0,1,2.8,1.611,3.628,3.628,0,0,1,3.174-1.611,3.152,3.152,0,0,1,2.559,1,4.6,4.6,0,0,1,.84,3.013V0h-2.832V-6.738a2.012,2.012,0,0,0-.352-1.313,1.558,1.558,0,0,0-1.24-.415,1.762,1.762,0,0,0-1.758,1.211L-85.708,0H-88.53V-6.729a1.988,1.988,0,0,0-.361-1.328,1.573,1.573,0,0,0-1.23-.41,1.829,1.829,0,0,0-1.738,1V0h-2.822V-10.566ZM-72.5.2A5.187,5.187,0,0,1-76.289-1.23a5.068,5.068,0,0,1-1.46-3.8V-5.3a6.383,6.383,0,0,1,.615-2.847,4.515,4.515,0,0,1,1.743-1.934,4.893,4.893,0,0,1,2.573-.679A4.385,4.385,0,0,1-69.4-9.395a5.555,5.555,0,0,1,1.245,3.877v1.152h-6.729a2.622,2.622,0,0,0,.825,1.66,2.5,2.5,0,0,0,1.743.625,3.046,3.046,0,0,0,2.549-1.182l1.387,1.553A4.237,4.237,0,0,1-70.1-.308,5.639,5.639,0,0,1-72.5.2Zm-.322-8.682a1.764,1.764,0,0,0-1.362.569,2.946,2.946,0,0,0-.669,1.628h3.926v-.226a2.1,2.1,0,0,0-.508-1.457A1.819,1.819,0,0,0-72.827-8.486Zm12.207.566A7.667,7.667,0,0,0-61.636-8a2.067,2.067,0,0,0-2.1,1.084V0h-2.822V-10.566h2.666l.078,1.26a2.615,2.615,0,0,1,2.354-1.455,2.957,2.957,0,0,1,.879.127Zm.566,2.539a6.267,6.267,0,0,1,.605-2.8,4.432,4.432,0,0,1,1.743-1.9,5.086,5.086,0,0,1,2.642-.674,4.812,4.812,0,0,1,3.491,1.309A5.252,5.252,0,0,1-50.063-5.9l.02.723a5.523,5.523,0,0,1-1.357,3.9A4.718,4.718,0,0,1-55.044.2,4.742,4.742,0,0,1-58.691-1.27a5.62,5.62,0,0,1-1.362-3.984Zm2.822.2a3.95,3.95,0,0,0,.566,2.3,1.868,1.868,0,0,0,1.621.8,1.873,1.873,0,0,0,1.6-.787,4.322,4.322,0,0,0,.576-2.518,3.91,3.91,0,0,0-.576-2.289,1.873,1.873,0,0,0-1.621-.812,1.842,1.842,0,0,0-1.6.807A4.395,4.395,0,0,0-57.231-5.181Zm13.467-.181A6.368,6.368,0,0,1-42.656-9.3a3.6,3.6,0,0,1,3.032-1.465,3.236,3.236,0,0,1,2.549,1.152V-15h2.832V0h-2.549l-.137-1.123A3.321,3.321,0,0,1-39.644.2a3.587,3.587,0,0,1-2.993-1.47A6.573,6.573,0,0,1-43.765-5.361Zm2.822.21a4.171,4.171,0,0,0,.518,2.279,1.686,1.686,0,0,0,1.5.792,1.888,1.888,0,0,0,1.846-1.105V-7.362A1.861,1.861,0,0,0-38.9-8.467Q-40.942-8.467-40.942-5.151ZM-27.192.2A5.187,5.187,0,0,1-30.977-1.23a5.068,5.068,0,0,1-1.46-3.8V-5.3a6.383,6.383,0,0,1,.615-2.847,4.515,4.515,0,0,1,1.743-1.934,4.893,4.893,0,0,1,2.573-.679,4.385,4.385,0,0,1,3.413,1.367,5.555,5.555,0,0,1,1.245,3.877v1.152h-6.729a2.622,2.622,0,0,0,.825,1.66,2.5,2.5,0,0,0,1.743.625,3.046,3.046,0,0,0,2.549-1.182l1.387,1.553a4.237,4.237,0,0,1-1.719,1.4A5.639,5.639,0,0,1-27.192.2Zm-.322-8.682a1.764,1.764,0,0,0-1.362.569,2.946,2.946,0,0,0-.669,1.628h3.926v-.226a2.1,2.1,0,0,0-.508-1.457A1.819,1.819,0,0,0-27.515-8.486Zm14.629-4.678v2.6h1.807V-8.5h-1.807v5.273a1.259,1.259,0,0,0,.225.84,1.128,1.128,0,0,0,.859.254,4.5,4.5,0,0,0,.83-.068V-.059A5.81,5.81,0,0,1-12.681.2q-2.969,0-3.027-3V-8.5h-1.543v-2.07h1.543v-2.6ZM-3.384,0a3.134,3.134,0,0,1-.283-.947A3.415,3.415,0,0,1-6.333.2,3.752,3.752,0,0,1-8.906-.7,2.89,2.89,0,0,1-9.927-2.969,2.986,2.986,0,0,1-8.682-5.547a6.144,6.144,0,0,1,3.6-.908h1.3v-.605A1.741,1.741,0,0,0-4.16-8.232a1.479,1.479,0,0,0-1.187-.439,1.682,1.682,0,0,0-1.118.342,1.161,1.161,0,0,0-.405.938H-9.692a2.835,2.835,0,0,1,.566-1.7,3.744,3.744,0,0,1,1.6-1.226A5.837,5.837,0,0,1-5.2-10.762a4.611,4.611,0,0,1,3.1.981A3.433,3.433,0,0,1-.952-7.021v4.58A5.052,5.052,0,0,0-.532-.166V0ZM-5.718-1.963a2.431,2.431,0,0,0,1.152-.278,1.828,1.828,0,0,0,.781-.747V-4.8H-4.839q-2.119,0-2.256,1.465l-.01.166a1.13,1.13,0,0,0,.371.869A1.441,1.441,0,0,0-5.718-1.963ZM10.737-5.186a6.4,6.4,0,0,1-1.084,3.96A3.591,3.591,0,0,1,6.626.2,3.3,3.3,0,0,1,3.882-1.123L3.755,0H1.216V-15H4.038v5.381a3.214,3.214,0,0,1,2.568-1.143A3.62,3.62,0,0,1,9.639-9.341a6.408,6.408,0,0,1,1.1,4ZM7.915-5.391a4.2,4.2,0,0,0-.508-2.339,1.717,1.717,0,0,0-1.514-.737,1.862,1.862,0,0,0-1.855,1.1v4.17A1.887,1.887,0,0,0,5.913-2.08a1.742,1.742,0,0,0,1.8-1.348A6.952,6.952,0,0,0,7.915-5.391ZM15.454,0H12.622V-15h2.832ZM23.9,0a3.134,3.134,0,0,1-.283-.947A3.415,3.415,0,0,1,20.952.2a3.752,3.752,0,0,1-2.573-.9,2.89,2.89,0,0,1-1.021-2.266A2.986,2.986,0,0,1,18.6-5.547a6.144,6.144,0,0,1,3.6-.908h1.3v-.605a1.741,1.741,0,0,0-.376-1.172,1.479,1.479,0,0,0-1.187-.439,1.682,1.682,0,0,0-1.118.342,1.161,1.161,0,0,0-.405.938H17.593a2.835,2.835,0,0,1,.566-1.7,3.744,3.744,0,0,1,1.6-1.226,5.837,5.837,0,0,1,2.324-.444,4.611,4.611,0,0,1,3.1.981,3.433,3.433,0,0,1,1.147,2.759v4.58a5.052,5.052,0,0,0,.42,2.275V0ZM21.567-1.963a2.431,2.431,0,0,0,1.152-.278,1.828,1.828,0,0,0,.781-.747V-4.8H22.446q-2.119,0-2.256,1.465l-.01.166a1.13,1.13,0,0,0,.371.869A1.441,1.441,0,0,0,21.567-1.963ZM42.993-5.186a6.337,6.337,0,0,1-1.108,3.911A3.554,3.554,0,0,1,38.892.2,3.292,3.292,0,0,1,36.3-.918v4.98H33.481V-10.566H36.1l.1,1.035a3.317,3.317,0,0,1,2.676-1.23,3.578,3.578,0,0,1,3.037,1.445,6.509,6.509,0,0,1,1.084,3.984Zm-2.822-.205a4.159,4.159,0,0,0-.522-2.275,1.7,1.7,0,0,0-1.519-.8A1.848,1.848,0,0,0,36.3-7.451v4.326A1.879,1.879,0,0,0,38.149-2.08Q40.171-2.08,40.171-5.391ZM49.6.2A5.187,5.187,0,0,1,45.82-1.23a5.068,5.068,0,0,1-1.46-3.8V-5.3a6.383,6.383,0,0,1,.615-2.847,4.515,4.515,0,0,1,1.743-1.934,4.893,4.893,0,0,1,2.573-.679,4.385,4.385,0,0,1,3.413,1.367A5.555,5.555,0,0,1,53.95-5.518v1.152H47.222a2.622,2.622,0,0,0,.825,1.66,2.5,2.5,0,0,0,1.743.625,3.046,3.046,0,0,0,2.549-1.182l1.387,1.553a4.237,4.237,0,0,1-1.719,1.4A5.639,5.639,0,0,1,49.6.2Zm-.322-8.682a1.764,1.764,0,0,0-1.362.569,2.946,2.946,0,0,0-.669,1.628h3.926v-.226a2.1,2.1,0,0,0-.508-1.457A1.819,1.819,0,0,0,49.282-8.486Zm12.207.566A7.667,7.667,0,0,0,60.474-8a2.067,2.067,0,0,0-2.1,1.084V0H55.552V-10.566h2.666l.078,1.26a2.615,2.615,0,0,1,2.354-1.455,2.957,2.957,0,0,1,.879.127ZM65.825,0H62.993V-10.566h2.832Zm-3-13.3a1.39,1.39,0,0,1,.425-1.045,1.6,1.6,0,0,1,1.157-.41,1.6,1.6,0,0,1,1.152.41,1.382,1.382,0,0,1,.43,1.045,1.386,1.386,0,0,1-.435,1.055,1.6,1.6,0,0,1-1.147.41,1.6,1.6,0,0,1-1.147-.41A1.386,1.386,0,0,1,62.827-13.3Zm4.883,7.92a6.266,6.266,0,0,1,.605-2.8,4.432,4.432,0,0,1,1.743-1.9,5.086,5.086,0,0,1,2.642-.674,4.812,4.812,0,0,1,3.491,1.309A5.252,5.252,0,0,1,77.7-5.9l.02.723a5.523,5.523,0,0,1-1.357,3.9A4.718,4.718,0,0,1,72.72.2,4.742,4.742,0,0,1,69.072-1.27,5.62,5.62,0,0,1,67.71-5.254Zm2.822.2a3.95,3.95,0,0,0,.566,2.3,1.868,1.868,0,0,0,1.621.8,1.873,1.873,0,0,0,1.6-.787A4.322,4.322,0,0,0,74.9-5.386a3.91,3.91,0,0,0-.576-2.289A1.873,1.873,0,0,0,72.7-8.486a1.842,1.842,0,0,0-1.6.807A4.395,4.395,0,0,0,70.532-5.181ZM73.257-15h3.076l-2.705,3.027H71.333Zm5.762,9.639A6.368,6.368,0,0,1,80.127-9.3a3.6,3.6,0,0,1,3.032-1.465,3.236,3.236,0,0,1,2.549,1.152V-15H88.54V0H85.991l-.137-1.123A3.321,3.321,0,0,1,83.14.2a3.587,3.587,0,0,1-2.993-1.47A6.573,6.573,0,0,1,79.019-5.361Zm2.822.21a4.171,4.171,0,0,0,.518,2.279,1.686,1.686,0,0,0,1.5.792,1.888,1.888,0,0,0,1.846-1.105V-7.362a1.861,1.861,0,0,0-1.826-1.105Q81.841-8.467,81.841-5.151ZM93.706,0H90.874V-10.566h2.832Zm-3-13.3a1.39,1.39,0,0,1,.425-1.045,1.6,1.6,0,0,1,1.157-.41,1.6,1.6,0,0,1,1.152.41,1.382,1.382,0,0,1,.43,1.045,1.386,1.386,0,0,1-.435,1.055,1.6,1.6,0,0,1-1.147.41,1.6,1.6,0,0,1-1.147-.41A1.386,1.386,0,0,1,90.708-13.3ZM100.425-2.08a1.851,1.851,0,0,0,1.27-.43,1.506,1.506,0,0,0,.508-1.143h2.646a3.62,3.62,0,0,1-.586,1.968A3.866,3.866,0,0,1,102.686-.3,4.936,4.936,0,0,1,100.474.2,4.587,4.587,0,0,1,96.9-1.245a5.7,5.7,0,0,1-1.309-3.979V-5.41a5.635,5.635,0,0,1,1.3-3.9,4.534,4.534,0,0,1,3.564-1.455,4.444,4.444,0,0,1,3.179,1.128,3.994,3.994,0,0,1,1.216,3H102.2a1.939,1.939,0,0,0-.508-1.34,1.693,1.693,0,0,0-1.289-.515,1.7,1.7,0,0,0-1.489.719,4.166,4.166,0,0,0-.5,2.333v.293a4.219,4.219,0,0,0,.5,2.347A1.721,1.721,0,0,0,100.425-2.08ZM112.583,0a3.134,3.134,0,0,1-.283-.947A3.415,3.415,0,0,1,109.634.2a3.752,3.752,0,0,1-2.573-.9,2.89,2.89,0,0,1-1.021-2.266,2.986,2.986,0,0,1,1.245-2.578,6.144,6.144,0,0,1,3.6-.908h1.3v-.605a1.741,1.741,0,0,0-.376-1.172,1.479,1.479,0,0,0-1.187-.439,1.682,1.682,0,0,0-1.118.342,1.161,1.161,0,0,0-.405.938h-2.822a2.835,2.835,0,0,1,.566-1.7,3.744,3.744,0,0,1,1.6-1.226,5.837,5.837,0,0,1,2.324-.444,4.611,4.611,0,0,1,3.1.981,3.433,3.433,0,0,1,1.147,2.759v4.58a5.052,5.052,0,0,0,.42,2.275V0Zm-2.334-1.963a2.431,2.431,0,0,0,1.152-.278,1.828,1.828,0,0,0,.781-.747V-4.8h-1.055q-2.119,0-2.256,1.465l-.01.166a1.13,1.13,0,0,0,.371.869A1.441,1.441,0,0,0,110.249-1.963Z" transform="translate(1016 7792.52)" fill="#00223d"/>
    <path id="Trazado_187527" data-name="Trazado 187527" d="M25.185-23.058A25.41,25.41,0,0,1,23.4-13.487a23.365,23.365,0,0,1-4.979,7.71A23.037,23.037,0,0,1,10.828-.653a24.438,24.438,0,0,1-9.62,1.861A24.266,24.266,0,0,1-9.257-.967a21.125,21.125,0,0,1-7.807-6.308A29.5,29.5,0,0,1-21.946-17.4a50.047,50.047,0,0,1-1.692-13.583,55.926,55.926,0,0,1,2.2-16.218,37.235,37.235,0,0,1,6.284-12.448,28.227,28.227,0,0,1,9.885-8A29.4,29.4,0,0,1,7.783-70.479q8.024,0,12.472,1.885v12.762a22.87,22.87,0,0,0-11.5-3,16.076,16.076,0,0,0-7.009,1.5,15.493,15.493,0,0,0-5.39,4.254A20.567,20.567,0,0,0-7.178-46.43a29.581,29.581,0,0,0-1.378,8.677h.29q4.931-6.816,14.55-6.816a18.959,18.959,0,0,1,7.783,1.547,16.884,16.884,0,0,1,5.946,4.375,20.069,20.069,0,0,1,3.819,6.792A27.1,27.1,0,0,1,25.185-23.058Zm-14.937.967q0-11.167-9.136-11.167a8.964,8.964,0,0,0-3.771.773,8.389,8.389,0,0,0-2.9,2.175A9.925,9.925,0,0,0-7.42-27a13.015,13.015,0,0,0-.653,4.23A16.359,16.359,0,0,0-7.4-17.982a12.71,12.71,0,0,0,1.909,3.891,9.456,9.456,0,0,0,2.925,2.635,7.464,7.464,0,0,0,3.771.967,8.163,8.163,0,0,0,3.746-.846A8.388,8.388,0,0,0,7.807-13.7,10.887,10.887,0,0,0,9.62-17.378,16.758,16.758,0,0,0,10.248-22.091Z" transform="translate(1016 7884.116)" fill="#ff8f00"/>
    <path id="Trazado_187528" data-name="Trazado 187528" d="M-51.668-12.086l3.1,8.766,3.088-8.766h3.271V0h-2.5V-3.3l.249-5.7L-47.717,0h-1.71l-3.254-9,.249,5.694V0h-2.49V-12.086ZM-34.984,0a2.664,2.664,0,0,1-.241-.805A2.9,2.9,0,0,1-37.49.166,3.189,3.189,0,0,1-39.678-.6a2.456,2.456,0,0,1-.867-1.926,2.538,2.538,0,0,1,1.058-2.191,5.222,5.222,0,0,1,3.059-.772h1.1V-6a1.48,1.48,0,0,0-.32-1,1.257,1.257,0,0,0-1.009-.374,1.429,1.429,0,0,0-.95.291.987.987,0,0,0-.344.8h-2.4a2.41,2.41,0,0,1,.481-1.444A3.182,3.182,0,0,1-38.5-8.77a4.961,4.961,0,0,1,1.976-.378,3.92,3.92,0,0,1,2.635.834,2.918,2.918,0,0,1,.975,2.345v3.893A4.294,4.294,0,0,0-32.56-.141V0Zm-1.984-1.668a2.066,2.066,0,0,0,.979-.237,1.554,1.554,0,0,0,.664-.635V-4.084h-.9q-1.8,0-1.917,1.245l-.008.141a.96.96,0,0,0,.315.739A1.225,1.225,0,0,0-36.968-1.668Zm10.758-.813a.773.773,0,0,0-.436-.693,4.95,4.95,0,0,0-1.4-.452q-3.2-.672-3.2-2.723a2.468,2.468,0,0,1,.992-2,4,4,0,0,1,2.594-.8,4.307,4.307,0,0,1,2.735.805A2.538,2.538,0,0,1-23.9-6.25h-2.4a1.161,1.161,0,0,0-.332-.851,1.405,1.405,0,0,0-1.038-.336,1.436,1.436,0,0,0-.938.274.865.865,0,0,0-.332.7.739.739,0,0,0,.378.643,3.885,3.885,0,0,0,1.274.423,10.407,10.407,0,0,1,1.511.4,2.482,2.482,0,0,1,1.9,2.416A2.343,2.343,0,0,1-24.931-.594a4.548,4.548,0,0,1-2.723.76,4.75,4.75,0,0,1-2-.4,3.363,3.363,0,0,1-1.374-1.1,2.565,2.565,0,0,1-.5-1.515h2.274a1.252,1.252,0,0,0,.473.979,1.877,1.877,0,0,0,1.179.34A1.737,1.737,0,0,0-26.562-1.8.814.814,0,0,0-26.21-2.482ZM-17.129,0a2.664,2.664,0,0,1-.241-.805,2.9,2.9,0,0,1-2.266.971A3.189,3.189,0,0,1-21.823-.6a2.456,2.456,0,0,1-.867-1.926,2.538,2.538,0,0,1,1.058-2.191,5.222,5.222,0,0,1,3.059-.772h1.1V-6a1.48,1.48,0,0,0-.32-1A1.257,1.257,0,0,0-18.8-7.371a1.429,1.429,0,0,0-.95.291.987.987,0,0,0-.344.8h-2.4a2.41,2.41,0,0,1,.481-1.444A3.182,3.182,0,0,1-20.648-8.77a4.961,4.961,0,0,1,1.976-.378,3.92,3.92,0,0,1,2.635.834,2.918,2.918,0,0,1,.975,2.345v3.893A4.294,4.294,0,0,0-14.7-.141V0Zm-1.984-1.668a2.066,2.066,0,0,0,.979-.237,1.554,1.554,0,0,0,.664-.635V-4.084h-.9q-1.8,0-1.917,1.245l-.008.141a.96.96,0,0,0,.315.739A1.225,1.225,0,0,0-19.113-1.668ZM-3.781,0a2.664,2.664,0,0,1-.241-.805A2.9,2.9,0,0,1-6.288.166,3.189,3.189,0,0,1-8.475-.6a2.456,2.456,0,0,1-.867-1.926A2.538,2.538,0,0,1-8.284-4.715a5.222,5.222,0,0,1,3.059-.772h1.1V-6a1.48,1.48,0,0,0-.32-1,1.257,1.257,0,0,0-1.009-.374,1.429,1.429,0,0,0-.95.291.987.987,0,0,0-.344.8h-2.4a2.41,2.41,0,0,1,.481-1.444A3.182,3.182,0,0,1-7.3-8.77a4.961,4.961,0,0,1,1.976-.378,3.92,3.92,0,0,1,2.635.834,2.918,2.918,0,0,1,.975,2.345v3.893A4.294,4.294,0,0,0-1.357-.141V0ZM-5.765-1.668a2.066,2.066,0,0,0,.979-.237,1.554,1.554,0,0,0,.664-.635V-4.084h-.9q-1.8,0-1.917,1.245l-.008.141a.96.96,0,0,0,.315.739A1.225,1.225,0,0,0-5.765-1.668ZM3-11.189v2.208H4.536v1.76H3v4.482a1.07,1.07,0,0,0,.191.714.959.959,0,0,0,.73.216,3.826,3.826,0,0,0,.706-.058V-.05A4.939,4.939,0,0,1,3.175.166,2.29,2.29,0,0,1,.6-2.382V-7.222H-.71v-1.76H.6v-2.208ZM5.5-4.574a5.327,5.327,0,0,1,.515-2.382A3.768,3.768,0,0,1,7.5-8.575a4.323,4.323,0,0,1,2.245-.573,4.09,4.09,0,0,1,2.968,1.112,4.464,4.464,0,0,1,1.282,3.021l.017.614a4.694,4.694,0,0,1-1.154,3.316A4.011,4.011,0,0,1,9.758.166a4.031,4.031,0,0,1-3.1-1.245A4.777,4.777,0,0,1,5.5-4.466Zm2.4.17A3.357,3.357,0,0,0,8.38-2.446a1.588,1.588,0,0,0,1.378.678,1.592,1.592,0,0,0,1.361-.669,3.674,3.674,0,0,0,.49-2.141,3.324,3.324,0,0,0-.49-1.945,1.592,1.592,0,0,0-1.378-.69,1.566,1.566,0,0,0-1.361.686A3.735,3.735,0,0,0,7.9-4.4Zm2.316-8.347h2.615l-2.3,2.573H8.579Zm7.521,3.769.075,1a3.156,3.156,0,0,1,2.582-1.17,2.4,2.4,0,0,1,2.382,1.37,3.084,3.084,0,0,1,2.7-1.37,2.679,2.679,0,0,1,2.175.851,3.911,3.911,0,0,1,.714,2.561V0H25.952V-5.728a1.71,1.71,0,0,0-.3-1.116A1.324,1.324,0,0,0,24.6-7.2a1.5,1.5,0,0,0-1.494,1.029L23.114,0h-2.4V-5.719a1.689,1.689,0,0,0-.307-1.129A1.337,1.337,0,0,0,19.362-7.2a1.555,1.555,0,0,0-1.478.847V0h-2.4V-8.981ZM32.734,0H30.327V-8.981h2.407ZM30.186-11.306a1.181,1.181,0,0,1,.361-.888,1.356,1.356,0,0,1,.984-.349,1.36,1.36,0,0,1,.979.349,1.175,1.175,0,0,1,.365.888,1.178,1.178,0,0,1-.369.9,1.363,1.363,0,0,1-.975.349,1.363,1.363,0,0,1-.975-.349A1.178,1.178,0,0,1,30.186-11.306Zm8.259,9.538a1.573,1.573,0,0,0,1.079-.365,1.28,1.28,0,0,0,.432-.971h2.25a3.077,3.077,0,0,1-.5,1.673A3.286,3.286,0,0,1,40.367-.253a4.2,4.2,0,0,1-1.88.419,3.9,3.9,0,0,1-3.038-1.224,4.845,4.845,0,0,1-1.112-3.383V-4.6a4.79,4.79,0,0,1,1.1-3.312,3.854,3.854,0,0,1,3.03-1.237,3.778,3.778,0,0,1,2.7.959,3.4,3.4,0,0,1,1.033,2.552h-2.25a1.648,1.648,0,0,0-.432-1.139,1.439,1.439,0,0,0-1.1-.438,1.445,1.445,0,0,0-1.266.611,3.541,3.541,0,0,0-.427,1.983v.249a3.586,3.586,0,0,0,.423,2A1.463,1.463,0,0,0,38.445-1.768ZM48.78,0a2.664,2.664,0,0,1-.241-.805,2.9,2.9,0,0,1-2.266.971A3.189,3.189,0,0,1,44.085-.6a2.456,2.456,0,0,1-.867-1.926,2.538,2.538,0,0,1,1.058-2.191,5.222,5.222,0,0,1,3.059-.772h1.1V-6a1.48,1.48,0,0,0-.32-1,1.257,1.257,0,0,0-1.009-.374,1.429,1.429,0,0,0-.95.291.987.987,0,0,0-.344.8h-2.4A2.41,2.41,0,0,1,43.9-7.728,3.182,3.182,0,0,1,45.26-8.77a4.961,4.961,0,0,1,1.976-.378,3.92,3.92,0,0,1,2.635.834,2.918,2.918,0,0,1,.975,2.345v3.893A4.294,4.294,0,0,0,51.2-.141V0ZM46.8-1.668a2.066,2.066,0,0,0,.979-.237,1.554,1.554,0,0,0,.664-.635V-4.084h-.9q-1.8,0-1.917,1.245l-.008.141a.96.96,0,0,0,.315.739A1.225,1.225,0,0,0,46.8-1.668ZM-87.161,38h-5.362V17.33l-6.4,1.985v-4.36l11.188-4.008h.575Zm27.294,0H-78.384V34.326l8.739-9.314a21.56,21.56,0,0,0,2.663-3.433A5.515,5.515,0,0,0-66.12,18.8a4.127,4.127,0,0,0-.909-2.83,3.282,3.282,0,0,0-2.6-1.03,3.54,3.54,0,0,0-2.867,1.252,4.961,4.961,0,0,0-1.048,3.293h-5.381a8.857,8.857,0,0,1,1.178-4.509,8.3,8.3,0,0,1,3.331-3.2,10.123,10.123,0,0,1,4.88-1.16,9.585,9.585,0,0,1,6.485,2,7.089,7.089,0,0,1,2.31,5.659,9.084,9.084,0,0,1-1.039,4.082A22.684,22.684,0,0,1-65.34,27.2l-6.142,6.476h11.615Zm3.785-2.635a2.7,2.7,0,0,1,.863-2.078,3.061,3.061,0,0,1,2.162-.8,3.086,3.086,0,0,1,2.18.8,2.7,2.7,0,0,1,.863,2.078,2.663,2.663,0,0,1-.854,2.05,3.1,3.1,0,0,1-2.189.789,3.074,3.074,0,0,1-2.171-.789A2.663,2.663,0,0,1-56.082,35.365Zm28.723-8.535q0,5.6-2.319,8.572a8.1,8.1,0,0,1-6.791,2.969,8.152,8.152,0,0,1-6.754-2.913q-2.338-2.913-2.394-8.35V22.136q0-5.659,2.347-8.591a8.156,8.156,0,0,1,6.763-2.932,8.164,8.164,0,0,1,6.754,2.9q2.338,2.9,2.394,8.34Zm-5.362-5.467a9.893,9.893,0,0,0-.918-4.894,3.1,3.1,0,0,0-2.867-1.532A3.049,3.049,0,0,0-39.3,16.395a9.258,9.258,0,0,0-.956,4.56v6.575a10.385,10.385,0,0,0,.9,4.912,3.063,3.063,0,0,0,2.885,1.607,3.011,3.011,0,0,0,2.839-1.541,10.136,10.136,0,0,0,.909-4.718ZM-5.557,26.83q0,5.6-2.319,8.572a8.1,8.1,0,0,1-6.791,2.969,8.152,8.152,0,0,1-6.754-2.913q-2.338-2.913-2.394-8.35V22.136q0-5.659,2.347-8.591A8.156,8.156,0,0,1-14.7,10.613a8.164,8.164,0,0,1,6.754,2.9q2.338,2.9,2.394,8.34Zm-5.362-5.467a9.893,9.893,0,0,0-.918-4.894A3.1,3.1,0,0,0-14.7,14.937,3.049,3.049,0,0,0-17.5,16.395a9.258,9.258,0,0,0-.956,4.56v6.575a10.385,10.385,0,0,0,.9,4.912,3.063,3.063,0,0,0,2.885,1.607,3.011,3.011,0,0,0,2.839-1.541,10.136,10.136,0,0,0,.909-4.718ZM11.086,38H5.724V17.33l-6.4,1.985v-4.36l11.188-4.008h.575Zm30.485-2.041a6.725,6.725,0,0,1-5.492,2.412,6.342,6.342,0,0,1-4.926-1.855,7.921,7.921,0,0,1-1.735-5.437V17.924h5.362V30.909q0,3.139,2.857,3.139a3.872,3.872,0,0,0,3.748-1.895V17.924h5.381V38H41.72ZM55.84,17.924l.167,2.245a7.055,7.055,0,0,1,5.771-2.616q3.878,0,5.325,3.062a6.893,6.893,0,0,1,6.03-3.062,5.988,5.988,0,0,1,4.861,1.9q1.6,1.9,1.6,5.724V38H74.209V25.2a3.823,3.823,0,0,0-.668-2.5,2.96,2.96,0,0,0-2.356-.789,3.347,3.347,0,0,0-3.34,2.3L67.864,38H62.5V25.216a3.776,3.776,0,0,0-.687-2.523,2.989,2.989,0,0,0-2.338-.779,3.475,3.475,0,0,0-3.3,1.893V38H50.812V17.924ZM95.343,38a5.955,5.955,0,0,1-.538-1.8,6.488,6.488,0,0,1-5.065,2.171,7.128,7.128,0,0,1-4.889-1.707,5.49,5.49,0,0,1-1.939-4.3,5.673,5.673,0,0,1,2.366-4.9q2.366-1.707,6.837-1.726h2.468v-1.15a3.308,3.308,0,0,0-.714-2.227,2.81,2.81,0,0,0-2.254-.835,3.2,3.2,0,0,0-2.125.649,2.206,2.206,0,0,0-.77,1.781H83.357a5.387,5.387,0,0,1,1.076-3.229A7.114,7.114,0,0,1,87.476,18.4a11.09,11.09,0,0,1,4.416-.844,8.762,8.762,0,0,1,5.891,1.865,6.523,6.523,0,0,1,2.18,5.242v8.7a9.6,9.6,0,0,0,.8,4.323V38Zm-4.435-3.729a4.618,4.618,0,0,0,2.189-.529,3.473,3.473,0,0,0,1.484-1.419V28.871h-2q-4.026,0-4.286,2.783l-.019.315a2.147,2.147,0,0,0,.705,1.651A2.739,2.739,0,0,0,90.909,34.271Z" transform="translate(1016 7923.481)" fill="#1ec488"/>
  </g>
</svg>
