<svg xmlns="http://www.w3.org/2000/svg" xmlns:xlink="http://www.w3.org/1999/xlink" width="92" height="92" viewBox="0 0 92 92">
  <defs>
    <clipPath id="clip-path">
      <rect id="Rectángulo_46552" data-name="Rectángulo 46552" width="55" height="55" transform="translate(0 0)" fill="#31313c"/>
    </clipPath>
  </defs>
  <g id="Grupo_178112" data-name="Grupo 178112" transform="translate(-1174 -6796)">
    <circle id="Elipse_4912" data-name="Elipse 4912" cx="46" cy="46" r="46" transform="translate(1174 6796)" fill="#f9a829"/>
    <g id="Grupo_178111" data-name="Grupo 178111" transform="translate(1192 6815)">
      <g id="Grupo_178110" data-name="Grupo 178110" transform="translate(0 0)" clip-path="url(#clip-path)">
        <path id="Trazado_186281" data-name="Trazado 186281" d="M13.265,0c.153.187.39.142.585.191A4.925,4.925,0,0,1,17.7,3.865a8.218,8.218,0,0,1-2,8.18,5.861,5.861,0,0,1-2.306,1.4,26.589,26.589,0,0,1,6.552,1.129,6.8,6.8,0,0,1,3.406,2.255,4.184,4.184,0,0,1,.939,2.608c0,4.743.022,9.487,0,14.23a5.275,5.275,0,0,1-4.235,5.155c-.462.1-.576.286-.575.738.017,4.851.012,9.7.01,14.553a2,2,0,0,1-.063.584.69.69,0,0,1-.794.5A.665.665,0,0,1,18,54.552a4.491,4.491,0,0,1-.011-.484q0-15.227,0-30.454c0-.791.224-1.15.724-1.162s.768.38.768,1.189q0,6.657,0,13.313c0,.389.065.5.477.372a3.932,3.932,0,0,0,2.855-3.969c.011-4.456-.011-8.911.019-13.367a3.716,3.716,0,0,0-2.36-3.583,14.77,14.77,0,0,0-4.292-1.177,25.177,25.177,0,0,0-10.931.63,6.682,6.682,0,0,0-2.574,1.3A3.1,3.1,0,0,0,1.5,19.607c0,4.671,0,9.343.01,14.014a3.869,3.869,0,0,0,2.836,3.706c.444.137.5.012.5-.4q-.019-6.657-.007-13.314c0-.784.228-1.15.724-1.165.514-.015.773.381.773,1.186V53.983c0,.09,0,.18,0,.27-.018.611-.316.968-.79.949-.453-.018-.706-.353-.706-.958,0-4.869-.012-9.738.011-14.607,0-.524-.138-.714-.655-.833A5.338,5.338,0,0,1,.005,33.552C0,28.916.009,24.281,0,19.646a4.519,4.519,0,0,1,1.624-3.593,9.393,9.393,0,0,1,3.911-1.828,28.581,28.581,0,0,1,5.312-.773,13.282,13.282,0,0,1-1.315-.685,7.413,7.413,0,0,1-3.167-5.4,7.754,7.754,0,0,1,.3-3.721A5.067,5.067,0,0,1,10.468.2c.18-.044.4-.01.533-.2ZM16.5,6.187c0-.233.008-.467,0-.7a3.923,3.923,0,0,0-2.868-3.795,5.183,5.183,0,0,0-1.97-.176A3.691,3.691,0,0,0,8.088,4.133a6.677,6.677,0,0,0,1.4,6.668,3.371,3.371,0,0,0,5.282.048A6.526,6.526,0,0,0,16.5,6.187" transform="translate(0 0)" fill="#31313c"/>
        <path id="Trazado_186282" data-name="Trazado 186282" d="M93.891,84.769c.384-.339.77-.675,1.152-1.017.589-.527.947-.493,1.437.143v.539c-.524.485-1.037.982-1.576,1.45a.872.872,0,0,0-.334.738c.017,1.633.015,3.267.013,4.9,0,.814-.215,1.036-1.011,1.036q-5.223,0-10.447,0c-.808,0-1.016-.211-1.017-1.025q0-4.819,0-9.639c0-.745.236-1,.936-1q5.3-.007,10.608,0c.458,0,.834.127.908.639a.724.724,0,0,1-.665.875c-3.287,0-6.574,0-9.862-.016-.393,0-.479.135-.474.5.017,1.185,0,2.371,0,3.557,0,1.419,0,2.838,0,4.257,0,.285.033.4.386.367.7-.06,1.4-.033,2.1-.033,2.173,0,4.347,0,6.521,0,.2,0,.482.088.486-.256.01-1.013,0-2.026,0-3.177-.7.627-1.3,1.16-1.9,1.69-.525.464-.841.456-1.345-.04q-.9-.888-1.8-1.786c-.442-.444-.514-.955-.185-1.267.363-.345.773-.285,1.269.2.4.389.789.786,1.177,1.186.153.158.274.253.487.055,1.037-.964,2.086-1.914,3.132-2.868" transform="translate(-41.272 -40.66)" fill="#31313c"/>
        <path id="Trazado_186283" data-name="Trazado 186283" d="M96.479,47.231a9.656,9.656,0,0,1-1.541,1.492,1,1,0,0,0-.37.834c.018,1.633.013,3.267.006,4.9,0,.749-.224.97-.958.971q-5.277.007-10.554.006c-.733,0-.953-.224-.954-.971q0-4.82,0-9.639c0-.849.2-1.046,1.046-1.047q5.223-.005,10.447-.009c.447,0,.847.067.949.581s-.187.806-.665.936c-.215,0-.431,0-.646,0l-9.157-.005c-.276,0-.527-.036-.524.393.015,2.621.01,5.243,0,7.864,0,.273.086.381.371.381q4.39-.008,8.78,0c.3,0,.412-.1.407-.4-.012-.861,0-1.724,0-2.585,0-.119.051-.274-.091-.339s-.227.068-.316.15c-.543.5-1.078,1-1.627,1.49A.749.749,0,0,1,89.9,52.22q-1.007-.973-1.986-1.974a.822.822,0,0,1-.118-1.157.768.768,0,0,1,1.182.078c.438.425.869.858,1.289,1.3.181.19.307.233.525.03,1.062-.988,2.14-1.958,3.212-2.935.318-.286.633-.575.953-.858.682-.6.881-.6,1.524-.012Z" transform="translate(-41.272 -22.001)" fill="#31313c"/>
        <path id="Trazado_186284" data-name="Trazado 186284" d="M93.879,10.529c.372-.331.746-.661,1.118-.994.611-.548.922-.536,1.475.065v.539a12.441,12.441,0,0,1-1.514,1.444,1.015,1.015,0,0,0-.379.831c.014,1.635,0,3.269-.011,4.9,0,.761-.241,1-1,1q-5.228,0-10.457,0c-.791,0-1.021-.233-1.022-1.031q0-4.824,0-9.649c0-.773.217-.982,1-.983q5.256,0,10.511,0c.627,0,.942.23.95.7a.662.662,0,0,1-.662.753c-3.27,0-6.541.006-9.811,0-.37,0-.545.051-.541.489q.034,3.881.008,7.763c0,.4.156.47.505.466,1.348-.013,2.7,0,4.043,0,1.509,0,3.019-.015,4.528,0,.378,0,.507-.107.485-.486-.028-.483,0-.97,0-1.455s0-.98,0-1.613c-.734.67-1.337,1.23-1.95,1.779-.5.446-.856.463-1.316.016-.67-.651-1.322-1.32-1.963-2a.756.756,0,0,1-.088-1.1.787.787,0,0,1,1.183.109c.436.428.874.854,1.292,1.3.2.209.323.19.524,0,1.021-.957,2.055-1.9,3.085-2.848" transform="translate(-41.265 -3.346)" fill="#31313c"/>
        <path id="Trazado_186285" data-name="Trazado 186285" d="M58.872,26.271q0-4.177,0-8.354c0-.8.226-1.035,1.01-1.038q2.263-.007,4.527-.006c.626,0,.985.268,1,.729.013.479-.364.771-1.023.774-1.186,0-2.372.012-3.557,0-.338-.005-.463.071-.463.44q.018,8.057,0,16.115c0,.344.109.418.43.413,1.167-.019,2.335-.008,3.5-.012.73,0,1.1.244,1.094.736-.007.54-.344.777-1.115.777-1.132,0-2.264.012-3.4-.013-.38-.009-.521.062-.52.489q.025,8,0,16.007c0,.383.111.482.483.475,1.221-.022,2.443-.017,3.665,0,.646.007,1.007.421.859.942a.711.711,0,0,1-.757.557c-1.653,0-3.306,0-4.958-.011-.531,0-.78-.3-.783-.879-.007-1.437,0-2.874,0-4.311,0-4.24-.008-8.479.011-12.719,0-.466-.138-.56-.571-.548-1.167.032-2.335.015-3.5.014-.611,0-.985-.292-.979-.756s.373-.753.987-.755c1.186,0,2.372-.015,3.557.014.4.009.511-.092.508-.5-.019-2.857-.01-5.713-.01-8.57" transform="translate(-27.059 -8.482)" fill="#31313c"/>
        <path id="Trazado_186286" data-name="Trazado 186286" d="M24.762,88.248q0,3.152,0,6.3c0,.162,0,.324-.007.485a.732.732,0,0,1-1.453.087,3.882,3.882,0,0,1-.041-.75q0-6.3.006-12.608c0-.072,0-.144,0-.215.02-.586.3-.916.764-.911s.727.31.728.928c.006,2.227,0,4.454,0,6.681" transform="translate(-11.692 -40.535)" fill="#31313c"/>
      </g>
    </g>
  </g>
</svg>
