<svg xmlns="http://www.w3.org/2000/svg" width="365.43" height="173.086" viewBox="0 0 365.43 173.086">
  <g id="Grupo_178783" data-name="Grupo 178783" transform="translate(-10216 2710.531)">
    <g id="Grupo_178594" data-name="Grupo 178594" transform="translate(13 -49)">
      <text id="C" transform="translate(10243 -2616)" fill="#12263f" font-size="16" font-family="Roboto-Bold, Roboto" font-weight="700"><tspan x="0" y="17">C</tspan></text>
      <text id="C-2" data-name="C" transform="translate(10243 -2564)" fill="#12263f" font-size="16" font-family="Roboto-Bold, Roboto" font-weight="700"><tspan x="0" y="17">C</tspan></text>
      <text id="C-3" data-name="C" transform="translate(10222 -2601)" fill="#12263f" font-size="16" font-family="Roboto-Bold, Roboto" font-weight="700"><tspan x="0" y="17">C</tspan></text>
      <text id="C-4" data-name="C" transform="translate(10222 -2577)" fill="#12263f" font-size="16" font-family="Roboto-Bold, Roboto" font-weight="700"><tspan x="0" y="17">C</tspan></text>
      <text id="C-5" data-name="C" transform="translate(10267 -2601)" fill="#12263f" font-size="16" font-family="Roboto-Bold, Roboto" font-weight="700"><tspan x="0" y="17">C</tspan></text>
      <text id="C-6" data-name="C" transform="translate(10266 -2577)" fill="#12263f" font-size="16" font-family="Roboto-Bold, Roboto" font-weight="700"><tspan x="0" y="17">C</tspan></text>
      <path id="Trazado_187354" data-name="Trazado 187354" d="M8.869,9.245H1.063v-2H8.869Zm0,3.755H1.063V11H8.869Z" transform="matrix(0.819, 0.574, -0.574, 0.819, 10238.894, -2572.188)" fill="#12263f"/>
      <path id="Trazado_187355" data-name="Trazado 187355" d="M8.869,9.245H1.063v-2H8.869Zm0,3.755H1.063V11H8.869Z" transform="matrix(-0.017, -1, 1, -0.017, 10261.963, -2574.358)" fill="#12263f"/>
      <path id="Trazado_187356" data-name="Trazado 187356" d="M8.869,9.245H1.063v-2H8.869Zm0,3.755H1.063V11H8.869Z" transform="matrix(0.799, -0.602, 0.602, 0.799, 10226.094, -2608.111)" fill="#12263f"/>
      <text id="H" transform="translate(10242 -2640)" fill="#12263f" font-size="16" font-family="Roboto-Bold, Roboto" font-weight="700"><tspan x="0" y="17">H</tspan></text>
      <text id="H-2" data-name="H" transform="translate(10286 -2613)" fill="#12263f" font-size="16" font-family="Roboto-Bold, Roboto" font-weight="700"><tspan x="0" y="17">H</tspan></text>
      <text id="H-3" data-name="H" transform="translate(10285 -2562)" fill="#12263f" font-size="16" font-family="Roboto-Bold, Roboto" font-weight="700"><tspan x="0" y="17">H</tspan></text>
      <text id="H-4" data-name="H" transform="translate(10242 -2537)" fill="#12263f" font-size="16" font-family="Roboto-Bold, Roboto" font-weight="700"><tspan x="0" y="17">H</tspan></text>
      <text id="H-5" data-name="H" transform="translate(10203 -2564)" fill="#12263f" font-size="16" font-family="Roboto-Bold, Roboto" font-weight="700"><tspan x="0" y="17">H</tspan></text>
      <text id="H-6" data-name="H" transform="translate(10203 -2619)" fill="#12263f" font-size="16" font-family="Roboto-Bold, Roboto" font-weight="700"><tspan x="0" y="17">H</tspan></text>
      <rect id="Rectángulo_46731" data-name="Rectángulo 46731" width="2" height="9" transform="translate(10226 -2584)" fill="#12263f"/>
      <rect id="Rectángulo_46732" data-name="Rectángulo 46732" width="2" height="9" transform="translate(10257.82 -2603.126) rotate(-50)" fill="#12263f"/>
      <rect id="Rectángulo_46736" data-name="Rectángulo 46736" width="2" height="9" transform="translate(10213.82 -2602.468) rotate(-50)" fill="#12263f"/>
      <rect id="Rectángulo_46737" data-name="Rectángulo 46737" width="2" height="9" transform="translate(10275.82 -2560.626) rotate(-50)" fill="#12263f"/>
      <rect id="Rectángulo_46738" data-name="Rectángulo 46738" width="2" height="9" transform="translate(10215.105 -2556.276) rotate(-130)" fill="#12263f"/>
      <rect id="Rectángulo_46739" data-name="Rectángulo 46739" width="2" height="9" transform="translate(10277.105 -2596.683) rotate(-130)" fill="#12263f"/>
      <rect id="Rectángulo_46733" data-name="Rectángulo 46733" width="2" height="9" transform="translate(10256.067 -2558.5) rotate(-111)" fill="#12263f"/>
      <rect id="Rectángulo_46734" data-name="Rectángulo 46734" width="2" height="9" transform="translate(10249.157 -2537.972) rotate(179)" fill="#12263f"/>
      <rect id="Rectángulo_46735" data-name="Rectángulo 46735" width="2" height="9" transform="translate(10249.157 -2614.035) rotate(179)" fill="#12263f"/>
    </g>
    <g id="Grupo_178596" data-name="Grupo 178596" transform="translate(75 -29)">
      <g id="Polígono_22" data-name="Polígono 22" transform="translate(10506.43 -2650) rotate(90)" fill="none">
        <path d="M77.124,0l25.708,42.715L77.124,85.43H25.708L0,42.715,25.708,0Z" stroke="none"/>
        <path d="M 26.83860015869141 2 L 2.33428955078125 42.71484375 L 26.83858489990234 83.4296875 L 75.99343109130859 83.4296875 L 100.4977416992188 42.71484375 L 75.99343109130859 2 L 26.83860015869141 2 M 25.70801544189453 0 L 77.12401580810547 0 L 102.83203125 42.71484375 L 77.12401580810547 85.4296875 L 25.70800018310547 85.4296875 L 0 42.71484375 L 25.70801544189453 0 Z" stroke="none" fill="#12263f"/>
      </g>
      <g id="Elipse_4921" data-name="Elipse 4921" transform="translate(10435 -2627)" fill="none" stroke="#12263f" stroke-width="2">
        <circle cx="28.5" cy="28.5" r="28.5" stroke="none"/>
        <circle cx="28.5" cy="28.5" r="27.5" fill="none"/>
      </g>
    </g>
    <g id="Grupo_178595" data-name="Grupo 178595" transform="translate(74.215 -28.584)">
      <g id="Polígono_21" data-name="Polígono 21" transform="translate(10358.215 -2650.416) rotate(90)" fill="none">
        <path d="M77.124,0l25.708,42.715L77.124,85.43H25.708L0,42.715,25.708,0Z" stroke="none"/>
        <path d="M 26.83860015869141 2 L 2.33428955078125 42.71484375 L 26.83858489990234 83.4296875 L 75.99343109130859 83.4296875 L 100.4977416992188 42.71484375 L 75.99343109130859 2 L 26.83860015869141 2 M 25.70801544189453 0 L 77.12401580810547 0 L 102.83203125 42.71484375 L 77.12401580810547 85.4296875 L 25.70800018310547 85.4296875 L 0 42.71484375 L 25.70801544189453 0 Z" stroke="none" fill="#12263f"/>
      </g>
      <line id="Línea_687" data-name="Línea 687" y1="19" x2="33" transform="translate(10282.5 -2636.5)" fill="none" stroke="#12263f" stroke-width="2"/>
      <line id="Línea_688" data-name="Línea 688" x1="33" y1="19" transform="translate(10282.5 -2579.5)" fill="none" stroke="#12263f" stroke-width="2"/>
      <line id="Línea_689" data-name="Línea 689" y2="41" transform="translate(10347.5 -2620.5)" fill="none" stroke="#12263f" stroke-width="2"/>
    </g>
    <path id="Trazado_187551" data-name="Trazado 187551" d="M3.25,12.375a11.99,11.99,0,0,1,.477-3.406A8.989,8.989,0,0,1,5.133,6.105a5.251,5.251,0,0,1,2.016-1.73l.438,1.219A5.438,5.438,0,0,0,5.8,8.2a12.082,12.082,0,0,0-.641,4.125v.242A12.313,12.313,0,0,0,5.8,16.711a5.544,5.544,0,0,0,1.789,2.648l-.437,1.2a5.253,5.253,0,0,1-1.98-1.684,8.838,8.838,0,0,1-1.4-2.785,11.918,11.918,0,0,1-.516-3.3ZM16.469,17h-7.8V15.453l3.68-3.922a9.078,9.078,0,0,0,1.121-1.445,2.322,2.322,0,0,0,.363-1.172,1.738,1.738,0,0,0-.383-1.191,1.382,1.382,0,0,0-1.094-.434,1.49,1.49,0,0,0-1.207.527A2.089,2.089,0,0,0,10.711,9.2H8.445a3.729,3.729,0,0,1,.5-1.9,3.5,3.5,0,0,1,1.4-1.348A4.262,4.262,0,0,1,12.4,5.469a4.036,4.036,0,0,1,2.73.844A2.985,2.985,0,0,1,16.1,8.7a3.825,3.825,0,0,1-.437,1.719,9.551,9.551,0,0,1-1.5,2.039L11.578,15.18h4.891Zm5.367-4.445a11.377,11.377,0,0,1-.508,3.4,9.225,9.225,0,0,1-1.461,2.883,5.263,5.263,0,0,1-2.039,1.719l-.437-1.2a5.494,5.494,0,0,0,1.75-2.578,11.939,11.939,0,0,0,.664-4.008v-.414a12.208,12.208,0,0,0-.637-4.117A5.727,5.727,0,0,0,17.391,5.57l.438-1.2a5.265,5.265,0,0,1,2,1.672,9.106,9.106,0,0,1,1.461,2.82,11.3,11.3,0,0,1,.543,3.336Z" transform="translate(10378 -2558)" fill="#12263f"/>
    <path id="Trazado_187552" data-name="Trazado 187552" d="M3.25,12.375a11.99,11.99,0,0,1,.477-3.406A8.989,8.989,0,0,1,5.133,6.105a5.251,5.251,0,0,1,2.016-1.73l.438,1.219A5.438,5.438,0,0,0,5.8,8.2a12.082,12.082,0,0,0-.641,4.125v.242A12.313,12.313,0,0,0,5.8,16.711a5.544,5.544,0,0,0,1.789,2.648l-.437,1.2a5.253,5.253,0,0,1-1.98-1.684,8.838,8.838,0,0,1-1.4-2.785,11.918,11.918,0,0,1-.516-3.3ZM14.156,17H11.9V8.3l-2.7.836V7.3l4.711-1.687h.242Zm7.68-4.445a11.377,11.377,0,0,1-.508,3.4,9.225,9.225,0,0,1-1.461,2.883,5.263,5.263,0,0,1-2.039,1.719l-.437-1.2a5.494,5.494,0,0,0,1.75-2.578,11.939,11.939,0,0,0,.664-4.008v-.414a12.208,12.208,0,0,0-.637-4.117A5.727,5.727,0,0,0,17.391,5.57l.438-1.2a5.265,5.265,0,0,1,2,1.672,9.106,9.106,0,0,1,1.461,2.82,11.3,11.3,0,0,1,.543,3.336Z" transform="translate(10251 -2558)" fill="#12263f"/>
    <path id="Trazado_187553" data-name="Trazado 187553" d="M3.25,12.375a11.99,11.99,0,0,1,.477-3.406A8.989,8.989,0,0,1,5.133,6.105a5.251,5.251,0,0,1,2.016-1.73l.438,1.219A5.438,5.438,0,0,0,5.8,8.2a12.082,12.082,0,0,0-.641,4.125v.242A12.313,12.313,0,0,0,5.8,16.711a5.544,5.544,0,0,0,1.789,2.648l-.437,1.2a5.253,5.253,0,0,1-1.98-1.684,8.838,8.838,0,0,1-1.4-2.785,11.918,11.918,0,0,1-.516-3.3Zm7.719-2.062h1.2a1.7,1.7,0,0,0,1.273-.43,1.574,1.574,0,0,0,.414-1.141,1.392,1.392,0,0,0-.41-1.07,1.59,1.59,0,0,0-1.129-.383,1.666,1.666,0,0,0-1.086.355,1.137,1.137,0,0,0-.437.926H8.539a2.777,2.777,0,0,1,.48-1.6,3.2,3.2,0,0,1,1.344-1.105,4.485,4.485,0,0,1,1.9-.4,4.253,4.253,0,0,1,2.828.863,2.945,2.945,0,0,1,1.023,2.379,2.394,2.394,0,0,1-.477,1.438,3.1,3.1,0,0,1-1.25,1.008,2.826,2.826,0,0,1,1.434,1.031,2.8,2.8,0,0,1,.473,1.625,2.994,2.994,0,0,1-1.105,2.43,4.445,4.445,0,0,1-2.926.914,4.214,4.214,0,0,1-2.785-.9A2.934,2.934,0,0,1,8.4,13.883h2.258a1.308,1.308,0,0,0,.48,1.047,1.771,1.771,0,0,0,1.184.406,1.779,1.779,0,0,0,1.262-.426,1.47,1.47,0,0,0,.457-1.129q0-1.7-1.875-1.7h-1.2Zm10.867,2.242a11.377,11.377,0,0,1-.508,3.4,9.225,9.225,0,0,1-1.461,2.883,5.263,5.263,0,0,1-2.039,1.719l-.437-1.2a5.494,5.494,0,0,0,1.75-2.578,11.939,11.939,0,0,0,.664-4.008v-.414a12.208,12.208,0,0,0-.637-4.117A5.727,5.727,0,0,0,17.391,5.57l.438-1.2a5.265,5.265,0,0,1,2,1.672,9.106,9.106,0,0,1,1.461,2.82,11.3,11.3,0,0,1,.543,3.336Z" transform="translate(10526 -2558)" fill="#12263f"/>
    <path id="Trazado_187554" data-name="Trazado 187554" d="M1.016,17V5.625H5a5.232,5.232,0,0,1,3.141.793,2.712,2.712,0,0,1,1.07,2.324,2.57,2.57,0,0,1-.43,1.473,2.482,2.482,0,0,1-1.2.934,2.4,2.4,0,0,1,1.379.883,2.61,2.61,0,0,1,.5,1.625,3,3,0,0,1-1.047,2.484A4.713,4.713,0,0,1,5.438,17Zm2.344-4.953v3.07H5.367a1.938,1.938,0,0,0,1.293-.395,1.353,1.353,0,0,0,.465-1.09,1.428,1.428,0,0,0-1.617-1.586Zm0-1.656H5.094q1.773-.031,1.773-1.414a1.307,1.307,0,0,0-.449-1.113A2.363,2.363,0,0,0,5,7.523H3.359Zm11.609,6.766a4.15,4.15,0,0,1-3.027-1.141,4.054,4.054,0,0,1-1.168-3.039v-.219a5.106,5.106,0,0,1,.492-2.277A3.612,3.612,0,0,1,12.66,8.934a3.914,3.914,0,0,1,2.059-.543,3.508,3.508,0,0,1,2.73,1.094,4.444,4.444,0,0,1,1,3.1v.922H13.063a2.1,2.1,0,0,0,.66,1.328,2,2,0,0,0,1.395.5,2.437,2.437,0,0,0,2.039-.945l1.109,1.242a3.389,3.389,0,0,1-1.375,1.121A4.511,4.511,0,0,1,14.969,17.156Zm-.258-6.945a1.411,1.411,0,0,0-1.09.455,2.357,2.357,0,0,0-.535,1.3h3.141v-.181a1.681,1.681,0,0,0-.406-1.165A1.456,1.456,0,0,0,14.711,10.211ZM21.8,8.547l.07.977A2.951,2.951,0,0,1,24.3,8.391a2.453,2.453,0,0,1,2,.789,3.682,3.682,0,0,1,.672,2.359V17H24.719V11.594a1.465,1.465,0,0,0-.312-1.043,1.4,1.4,0,0,0-1.039-.324,1.553,1.553,0,0,0-1.43.813V17H19.68V8.547Zm10.4,6.789a1.481,1.481,0,0,0,1.016-.344,1.2,1.2,0,0,0,.406-.914h2.117a2.9,2.9,0,0,1-.469,1.574,3.093,3.093,0,0,1-1.262,1.109,3.949,3.949,0,0,1-1.77.395A3.67,3.67,0,0,1,29.383,16a4.56,4.56,0,0,1-1.047-3.184v-.148a4.508,4.508,0,0,1,1.039-3.117,3.627,3.627,0,0,1,2.852-1.164,3.555,3.555,0,0,1,2.543.9,3.2,3.2,0,0,1,.973,2.4H33.625a1.551,1.551,0,0,0-.406-1.072A1.51,1.51,0,0,0,31,10.786a3.333,3.333,0,0,0-.4,1.866v.235a3.375,3.375,0,0,0,.4,1.878A1.377,1.377,0,0,0,32.2,15.336Zm8.719,1.82a4.15,4.15,0,0,1-3.027-1.141,4.054,4.054,0,0,1-1.168-3.039v-.219a5.106,5.106,0,0,1,.492-2.277,3.612,3.612,0,0,1,1.395-1.547,3.914,3.914,0,0,1,2.059-.543A3.508,3.508,0,0,1,43.4,9.484a4.444,4.444,0,0,1,1,3.1v.922H39.016a2.1,2.1,0,0,0,.66,1.328,2,2,0,0,0,1.395.5,2.437,2.437,0,0,0,2.039-.945l1.109,1.242a3.389,3.389,0,0,1-1.375,1.121A4.511,4.511,0,0,1,40.922,17.156Zm-.258-6.945a1.411,1.411,0,0,0-1.09.455,2.357,2.357,0,0,0-.535,1.3H42.18v-.181a1.681,1.681,0,0,0-.406-1.165A1.456,1.456,0,0,0,40.664,10.211Zm7.094-1.664.07.977a2.951,2.951,0,0,1,2.43-1.133,2.453,2.453,0,0,1,2,.789,3.682,3.682,0,0,1,.672,2.359V17H50.672V11.594a1.465,1.465,0,0,0-.312-1.043,1.4,1.4,0,0,0-1.039-.324,1.553,1.553,0,0,0-1.43.813V17H45.633V8.547ZM54.289,12.7a5.013,5.013,0,0,1,.484-2.242A3.546,3.546,0,0,1,56.168,8.93a4.069,4.069,0,0,1,2.113-.539,3.849,3.849,0,0,1,2.793,1.047,4.2,4.2,0,0,1,1.207,2.844l.016.578a4.418,4.418,0,0,1-1.086,3.121,4.209,4.209,0,0,1-5.832,0,4.5,4.5,0,0,1-1.09-3.187Zm2.258.16A3.16,3.16,0,0,0,57,14.7a1.628,1.628,0,0,0,2.578.008,3.457,3.457,0,0,0,.461-2.015,3.128,3.128,0,0,0-.461-1.831,1.5,1.5,0,0,0-1.3-.649A1.474,1.474,0,0,0,57,10.856,3.516,3.516,0,0,0,56.547,12.856Z" transform="translate(10341 -2716)" fill="#12263f"/>
    <path id="Trazado_187555" data-name="Trazado 187555" d="M9.945,13.211A4.025,4.025,0,0,1,8.59,16.1a4.76,4.76,0,0,1-3.223,1.055,4.28,4.28,0,0,1-3.441-1.473A6.038,6.038,0,0,1,.672,11.641v-.7A6.819,6.819,0,0,1,1.25,8.055,4.332,4.332,0,0,1,2.9,6.137a4.629,4.629,0,0,1,2.5-.668A4.637,4.637,0,0,1,8.57,6.523,4.326,4.326,0,0,1,9.961,9.484H7.617A2.376,2.376,0,0,0,7,7.887a2.271,2.271,0,0,0-1.605-.5,1.991,1.991,0,0,0-1.754.84,4.707,4.707,0,0,0-.6,2.605V11.7a5.038,5.038,0,0,0,.559,2.7,1.954,1.954,0,0,0,1.762.852,2.314,2.314,0,0,0,1.621-.5A2.241,2.241,0,0,0,7.6,13.211ZM14.78,9.817v1.162h-.137a2.4,2.4,0,0,0-1.541.5,2.024,2.024,0,0,0-.7,1.343,1.922,1.922,0,0,1,1.431-.576,1.811,1.811,0,0,1,1.475.664,2.662,2.662,0,0,1,.547,1.748,2.618,2.618,0,0,1-.3,1.255,2.154,2.154,0,0,1-.85.874,2.468,2.468,0,0,1-1.243.313,2.305,2.305,0,0,1-1.814-.781,3.033,3.033,0,0,1-.691-2.085v-.508a4.564,4.564,0,0,1,.437-2.043,3.2,3.2,0,0,1,1.255-1.372,3.677,3.677,0,0,1,1.9-.491ZM13.4,13.382a1.127,1.127,0,0,0-.62.178,1.072,1.072,0,0,0-.41.47v.429a1.9,1.9,0,0,0,.278,1.1.9.9,0,0,0,.781.4.889.889,0,0,0,.735-.358,1.681,1.681,0,0,0,0-1.864A.923.923,0,0,0,13.4,13.382ZM26.479,17H24.136V12.125h-4.57V17H17.222V5.625h2.344v4.609h4.57V5.625h2.344Zm5.343-7.183v1.162h-.137a2.4,2.4,0,0,0-1.541.5,2.024,2.024,0,0,0-.7,1.343,1.922,1.922,0,0,1,1.431-.576,1.811,1.811,0,0,1,1.475.664,2.662,2.662,0,0,1,.547,1.748,2.618,2.618,0,0,1-.3,1.255,2.154,2.154,0,0,1-.85.874A2.468,2.468,0,0,1,30.5,17.1a2.305,2.305,0,0,1-1.814-.781A3.033,3.033,0,0,1,28,14.231v-.508a4.564,4.564,0,0,1,.437-2.043,3.2,3.2,0,0,1,1.255-1.372,3.677,3.677,0,0,1,1.9-.491Zm-1.377,3.564a1.127,1.127,0,0,0-.62.178,1.072,1.072,0,0,0-.41.47v.429a1.9,1.9,0,0,0,.278,1.1.9.9,0,0,0,.781.4.889.889,0,0,0,.735-.358,1.681,1.681,0,0,0,0-1.864A.923.923,0,0,0,30.445,13.382Z" transform="translate(10416 -2716)" fill="#12263f"/>
  </g>
</svg>
