<svg xmlns="http://www.w3.org/2000/svg" xmlns:xlink="http://www.w3.org/1999/xlink" width="400" height="234.584" viewBox="0 0 400 234.584">
  <defs>
    <clipPath id="clip-path">
      <path id="AdobeStock_377563823" d="M0,0H375a25,25,0,0,1,25,25V183.286a0,0,0,0,1,0,0H25a25,25,0,0,1-25-25V0A0,0,0,0,1,0,0Z" transform="translate(180 10834.787)" fill="#f6dfb8"/>
    </clipPath>
    <clipPath id="clip-path-2">
      <rect id="Rectángulo_46614" data-name="Rectángulo 46614" width="242" height="231.581" fill="none"/>
    </clipPath>
    <clipPath id="clip-path-4">
      <rect id="Rectángulo_46607" data-name="Rectángulo 46607" width="51.601" height="40.408" fill="none"/>
    </clipPath>
    <clipPath id="clip-path-5">
      <rect id="Rectángulo_46608" data-name="Rectángulo 46608" width="35.774" height="83.884" fill="none"/>
    </clipPath>
    <clipPath id="clip-path-6">
      <rect id="Rectángulo_46609" data-name="Rectángulo 46609" width="31.173" height="85.265" fill="none"/>
    </clipPath>
    <clipPath id="clip-path-7">
      <rect id="Rectángulo_46610" data-name="Rectángulo 46610" width="42.672" height="33.235" fill="none"/>
    </clipPath>
    <clipPath id="clip-path-8">
      <rect id="Rectángulo_46611" data-name="Rectángulo 46611" width="17.431" height="6.836" fill="none"/>
    </clipPath>
    <clipPath id="clip-path-9">
      <rect id="Rectángulo_46612" data-name="Rectángulo 46612" width="7.785" height="7.733" fill="none"/>
    </clipPath>
    <clipPath id="clip-path-10">
      <rect id="Rectángulo_46390" data-name="Rectángulo 46390" width="29.422" height="32.493" fill="#31313c"/>
    </clipPath>
    <clipPath id="clip-path-11">
      <rect id="Rectángulo_46780" data-name="Rectángulo 46780" width="170" height="70.543" fill="none"/>
    </clipPath>
    <clipPath id="clip-path-12">
      <rect id="Rectángulo_46779" data-name="Rectángulo 46779" width="170" height="70.542" fill="none"/>
    </clipPath>
    <clipPath id="clip-path-13">
      <rect id="Rectángulo_46761" data-name="Rectángulo 46761" width="11.418" height="48.585" fill="none"/>
    </clipPath>
    <clipPath id="clip-path-14">
      <rect id="Rectángulo_46762" data-name="Rectángulo 46762" width="1.269" height="1.269" fill="none"/>
    </clipPath>
    <clipPath id="clip-path-15">
      <rect id="Rectángulo_46763" data-name="Rectángulo 46763" width="1.268" height="1.269" fill="none"/>
    </clipPath>
    <clipPath id="clip-path-17">
      <rect id="Rectángulo_46765" data-name="Rectángulo 46765" width="11.418" height="51.773" fill="none"/>
    </clipPath>
    <clipPath id="clip-path-21">
      <rect id="Rectángulo_46769" data-name="Rectángulo 46769" width="11.418" height="55.248" fill="none"/>
    </clipPath>
    <clipPath id="clip-path-25">
      <rect id="Rectángulo_46775" data-name="Rectángulo 46775" width="43.529" height="54.851" fill="none"/>
    </clipPath>
    <clipPath id="clip-path-26">
      <rect id="Rectángulo_46776" data-name="Rectángulo 46776" width="3.191" height="3.19" fill="none"/>
    </clipPath>
    <clipPath id="clip-path-27">
      <rect id="Rectángulo_46777" data-name="Rectángulo 46777" width="1.773" height="1.772" fill="none"/>
    </clipPath>
  </defs>
  <g id="Grupo_178212" data-name="Grupo 178212" transform="translate(-1020 -11114.998)">
    <g id="Enmascarar_grupo_294" data-name="Enmascarar grupo 294" transform="translate(840 331.213)" clip-path="url(#clip-path)">
      <g id="Grupo_178195" data-name="Grupo 178195" transform="translate(180 10834.787)">
        <g id="Grupo_178192" data-name="Grupo 178192" transform="translate(0 0)">
          <g id="Grupo_178191" data-name="Grupo 178191" transform="translate(0 0)">
            <path id="AdobeStock_377563823-2" data-name="AdobeStock_377563823" d="M0,0H375a25,25,0,0,1,25,25V183.286a0,0,0,0,1,0,0H25a25,25,0,0,1-25-25V0A0,0,0,0,1,0,0Z" fill="#feedd3"/>
          </g>
        </g>
        <g id="Grupo_178194" data-name="Grupo 178194" transform="translate(0 0)">
          <path id="Trazado_186568" data-name="Trazado 186568" d="M414.737,144.423c0,7.218-7.426,13.069-16.586,13.069s-16.586-5.851-16.586-13.069,7.426-13.069,16.586-13.069,16.586,5.851,16.586,13.069" transform="translate(-271.529 -2.242)" fill="#f6dfb8"/>
          <path id="Trazado_186569" data-name="Trazado 186569" d="M150.925,187.057A22.058,22.058,0,1,1,128.866,165a22.059,22.059,0,0,1,22.059,22.06" transform="translate(-54.689 -106.164)" fill="#f6dfb8"/>
          <path id="Trazado_186570" data-name="Trazado 186570" d="M640.627,49.679a22.058,22.058,0,1,1-22.058-22.06,22.059,22.059,0,0,1,22.058,22.06" transform="translate(-305.427 36.141)" fill="#f6dfb8"/>
          <path id="Trazado_186571" data-name="Trazado 186571" d="M258.582,36.807a18.294,18.294,0,1,1-18.293-18.295,18.294,18.294,0,0,1,18.293,18.295" transform="translate(-113.666 -11.394)" fill="#f6dfb8"/>
          <path id="Trazado_186572" data-name="Trazado 186572" d="M757.888,85.5a5.549,5.549,0,1,1-5.549-5.55,5.549,5.549,0,0,1,5.549,5.55" transform="translate(-382.373 -51.129)" fill="#f6dfb8"/>
          <path id="Trazado_186573" data-name="Trazado 186573" d="M480.032,35.569c0,1.944-2,3.52-4.467,3.52s-4.467-1.576-4.467-3.52,2-3.52,4.467-3.52,4.467,1.576,4.467,3.52" transform="translate(-241.213 -19.725)" fill="#f6dfb8"/>
          <path id="Trazado_186574" data-name="Trazado 186574" d="M328.241,61.7a5.549,5.549,0,1,1-5.549-5.55,5.549,5.549,0,0,1,5.549,5.55" transform="translate(-162.384 -34.559)" fill="#f6dfb8"/>
          <path id="Trazado_186575" data-name="Trazado 186575" d="M416.019,275.975c0,2.415-2.484,4.372-5.549,4.372s-5.549-1.957-5.549-4.372,2.484-4.372,5.549-4.372,5.549,1.957,5.549,4.372" transform="translate(-207.328 -173.696)" fill="#f6dfb8"/>
          <path id="Trazado_186576" data-name="Trazado 186576" d="M310.058,154.008a2.878,2.878,0,1,1-2.8-2.2,2.555,2.555,0,0,1,2.8,2.2" transform="translate(-155.891 -96.998)" fill="#f6dfb8"/>
          <path id="Trazado_186577" data-name="Trazado 186577" d="M741.029,180.909a2.095,2.095,0,1,1-2.095-2.095,2.095,2.095,0,0,1,2.095,2.095" transform="translate(-377.278 -114.233)" fill="#f6dfb8"/>
          <path id="Trazado_186578" data-name="Trazado 186578" d="M108.534,31.952c0,1.289-1.326,2.334-2.962,2.334s-2.962-1.045-2.962-2.334,1.326-2.334,2.962-2.334,2.962,1.045,2.962,2.334" transform="translate(-52.539 -18.229)" fill="#f6dfb8"/>
          <g id="Grupo_178193" data-name="Grupo 178193" transform="translate(320.866 104.942)">
            <path id="Trazado_186579" data-name="Trazado 186579" d="M736.676,108.643v-.159c-32.8,4.315-31.563,31.451-31.03,43.107.057,1.232.105,2.3.105,3.142,0,3.612-1.256,5.811-4.337,7.592s-7.881,3.129-15.153,5.172c-3.158.887-6.738,1.893-10.812,3.115-11.771,3.528-15.861,8.441-17.219,11.941a9.968,9.968,0,0,0-.675,4.155h.2a9.834,9.834,0,0,1,.67-4.118c2.442-6.275,10.644-9.9,17.1-11.832,4.073-1.221,7.651-2.226,10.808-3.113,14.28-4.012,19.623-5.513,19.623-12.912,0-.849-.049-1.914-.105-3.147-.532-11.611-1.763-38.634,30.83-42.942" transform="translate(-657.542 -108.484)" fill="#f6dfb8"/>
            <path id="Trazado_186580" data-name="Trazado 186580" d="M741.97,194.239V120.72c-26.685,3.047-28.018,25.448-26.612,36.805,1.445,11.675-2.53,14.807-25.3,21.356-17.559,5.051-21.36,12.3-22.18,15.357Z" transform="translate(-662.836 -116.016)" fill="#f6dfb8"/>
          </g>
          <path id="Trazado_186581" data-name="Trazado 186581" d="M43.83,30.365c.389-5.278.832-11.261,2.9-17.154A31.527,31.527,0,0,1,55.433,0h-.266a31.676,31.676,0,0,0-8.625,13.169c-2.077,5.91-2.519,11.9-2.91,17.187-.117,1.575-.226,3.061-.373,4.457-.633,6.008,1.116,13.3,2.659,19.74,1.2,5.018,2.34,9.757,2.111,13-.507,7.185-5.122,9.276-24.645,15.1C9.849,86.682,2.911,93.149,0,96.6v.268a31.905,31.905,0,0,1,3.754-3.818c3.512-3.048,9.781-7.3,19.7-10.258,19.621-5.85,24.26-7.957,24.774-15.235.23-3.258-.909-8.007-2.114-13.034-1.541-6.427-3.288-13.711-2.657-19.7.147-1.4.257-2.885.374-4.461" transform="translate(0 0)" fill="#f6dfb8"/>
          <path id="Trazado_186582" data-name="Trazado 186582" d="M0,0V92.29A53.443,53.443,0,0,1,21.444,79.872C39.491,74.183,47.011,69.917,42.8,51.9c-3.736-15.983-7-40.732,6.813-51.9Z" transform="translate(0 0)" fill="#f6dfb8"/>
          <path id="Trazado_186583" data-name="Trazado 186583" d="M768.935,8.764c2.219,9.325,3.329,17.776,22.18,13.121V0H763.862a18.917,18.917,0,0,1,5.073,8.765" transform="translate(-391.114 0.001)" fill="#f6dfb8"/>
          <path id="Trazado_186584" data-name="Trazado 186584" d="M785.329,25.918a51.045,51.045,0,0,0-10.063,1.719,10.44,10.44,0,0,1-7.039-.291c-3.739-1.69-6.486-6.269-8.906-14.849-1.807-6.409-4.416-10.264-6.514-12.5h-.244c2.093,2.2,4.736,6.052,6.563,12.53,2.433,8.627,5.209,13.238,9,14.951a8.983,8.983,0,0,0,3.755.773,14.063,14.063,0,0,0,3.444-.468,51.157,51.157,0,0,1,10-1.718Z" transform="translate(-385.329 0)" fill="#f6dfb8"/>
        </g>
      </g>
    </g>
    <g id="Grupo_178196" data-name="Grupo 178196" transform="translate(1178 11118)">
      <g id="Grupo_178211" data-name="Grupo 178211" clip-path="url(#clip-path-2)">
        <g id="Grupo_178210" data-name="Grupo 178210">
          <g id="Grupo_178209" data-name="Grupo 178209" clip-path="url(#clip-path-2)">
            <path id="Trazado_186568-2" data-name="Trazado 186568" d="M24.426,203.245l19.639,59.389A18.44,18.44,0,0,1,26.4,287.146L0,286.783l18.4-77.939Z" transform="translate(196.891 -55.568)" fill="#eff7fe"/>
            <path id="Trazado_186569-2" data-name="Trazado 186569" d="M93.983,13a12.632,12.632,0,0,1,15.538-8.583,8.029,8.029,0,0,1,9.617-4.02,8.123,8.123,0,0,1,4.686,4.031c.637-.068,1.277-.115,1.917-.129l18.437-.4c11.522-.251,21.073,8.582,21.333,19.729l.2,8.758a7.192,7.192,0,0,1,3.058,5.757,7.075,7.075,0,0,1-6.808,7.317,6.892,6.892,0,0,1-5.727-2.866l-1.209.026c-.243.005-.482.025-.719.051-6-4.666-10.267-14.506-10.267-14.506-.784,3.007-4.956,4.684-10.406,5.553a8.969,8.969,0,0,1-11.353,1.256c-.214-.14-.418-.291-.616-.445-.446,0-.887-.006-1.332-.009A11.3,11.3,0,0,1,98.25,31.084a11.945,11.945,0,0,1,.456-3.541A13.218,13.218,0,0,1,93.983,13" transform="translate(5.373 0)" fill="#390028"/>
            <path id="Trazado_186570-2" data-name="Trazado 186570" d="M130.922,33.334s.086,9.165,5.9,13.832c.23-.025.461-.046.7-.051l3.857-.087,2.614-.059,3.384-.076c.24-.006.476,0,.711.02a7.955,7.955,0,0,1,7.424,7.756l.054,2.407a7.957,7.957,0,0,1-7.776,8.135l-3.327.075,1.011,44.772a13.963,13.963,0,0,1-13.644,14.274l-8.121.183a13.962,13.962,0,0,1-14.273-13.643l-.275-12.21A23.07,23.07,0,0,1,93.109,77.213l-.063-2.789h0L92.512,50.76l-.278-12.3c11.169.95,36.825,2.251,38.688-5.13" transform="translate(19.423 -9.114)" fill="#fdbea6"/>
            <path id="Trazado_186571-2" data-name="Trazado 186571" d="M145.835,73.148a1.5,1.5,0,1,0,1.439-1.553,1.5,1.5,0,0,0-1.439,1.553" transform="translate(-12.791 -19.574)" fill="#1c191a"/>
            <path id="Trazado_186572-2" data-name="Trazado 186572" d="M170.595,76.1a1.5,1.5,0,1,0,1.439-1.553,1.5,1.5,0,0,0-1.439,1.553" transform="translate(-55.541 -20.38)" fill="#1c191a"/>
            <path id="Trazado_186573-2" data-name="Trazado 186573" d="M160.117,106.152a.363.363,0,0,0,.258-.618,4.472,4.472,0,0,0-4.917-.887.363.363,0,1,0,.318.654,3.727,3.727,0,0,1,4.083.743.36.36,0,0,0,.258.108" transform="translate(-31.286 -28.496)" fill="#ff8e77"/>
            <path id="Trazado_186574-2" data-name="Trazado 186574" d="M138.273,56.724a6.429,6.429,0,0,0,2.554.778c.937.155,1.875.334,2.685.517s1.735.427,2.648.692a6.389,6.389,0,0,0,2.635.4c.763-.137,1.237-.916.648-2.139a7.364,7.364,0,0,0-5-3.356,7.143,7.143,0,0,0-5.894.885c-1.026.858-.91,1.771-.272,2.225" transform="translate(-7.819 -14.594)" fill="#390028"/>
            <path id="Trazado_186575-2" data-name="Trazado 186575" d="M103.811,66.183a.363.363,0,0,0,.143-.7L101.2,64.3l2.037-4.582a.363.363,0,0,0-.664-.295l-2.336,5.255,3.432,1.472a.355.355,0,0,0,.143.029" transform="translate(64.995 -16.188)" fill="#ff8e77"/>
            <path id="Trazado_186576-2" data-name="Trazado 186576" d="M157.493,79q.294,0,.594-.028a15.236,15.236,0,0,0,2.858-.578.363.363,0,0,0-.206-.7,14.585,14.585,0,0,1-2.721.552A4.29,4.29,0,0,1,154.337,77a2.5,2.5,0,0,1-.575-2.268l2.419-10.145a.363.363,0,1,0-.706-.168l-2.419,10.145a3.207,3.207,0,0,0,.732,2.913,4.862,4.862,0,0,0,3.7,1.527" transform="translate(-30.348 -17.536)" fill="#ff8e77"/>
            <path id="Trazado_186577-2" data-name="Trazado 186577" d="M146.129,91.177a7.589,7.589,0,0,0,2.691-.477,8.431,8.431,0,0,0,4.477-4.23.363.363,0,0,0-.668-.285,7.822,7.822,0,0,1-4.073,3.838c-2.058.768-4.472.5-7.17-.807a.363.363,0,1,0-.317.654,11.706,11.706,0,0,0,5.059,1.307" transform="translate(-13.679 -23.503)" fill="#ff8e77"/>
            <path id="Trazado_186578-2" data-name="Trazado 186578" d="M145.232,76.75a.362.362,0,0,0,.25-.1c1.619-1.53,2.881-.5,2.934-.45a.363.363,0,0,0,.475-.549c-.017-.015-1.8-1.521-3.909.472a.364.364,0,0,0,.25.627" transform="translate(-12.277 -20.53)" fill="#ff8e77"/>
            <path id="Trazado_186579-2" data-name="Trazado 186579" d="M170.281,79.509a.362.362,0,0,0,.25-.1c1.618-1.529,2.88-.495,2.933-.45a.363.363,0,0,0,.475-.549c-.018-.016-1.8-1.522-3.908.472a.364.364,0,0,0,.25.627" transform="translate(-55.526 -21.284)" fill="#ff8e77"/>
            <path id="Trazado_186580-2" data-name="Trazado 186580" d="M144.753,75.838h.007a8.21,8.21,0,0,0,8.195-8.208h0a8.2,8.2,0,0,0-8.2-8.195h-.007a8.2,8.2,0,0,0,.007,16.4m0-15.676a7.475,7.475,0,0,1,.007,14.949h-.007a7.475,7.475,0,0,1-.007-14.949Z" transform="translate(-10.173 -16.25)" fill="#fff"/>
            <path id="Trazado_186581-2" data-name="Trazado 186581" d="M172.458,79.367h.007a8.2,8.2,0,0,0-.007-16.4h-.006a8.2,8.2,0,0,0,.006,16.4m0-15.675a7.474,7.474,0,0,1,.007,14.948h-.007a7.474,7.474,0,0,1-.006-14.948Z" transform="translate(-58.01 -17.215)" fill="#fff"/>
            <path id="Trazado_186582-2" data-name="Trazado 186582" d="M168.042,60.848a5.682,5.682,0,0,1,2.357-.2c.841.039,1.686.059,2.422.049s1.583-.049,2.422-.109a5.667,5.667,0,0,1,2.356.143c.635.26.9,1.022.165,1.973a6.523,6.523,0,0,1-4.957,1.981,6.329,6.329,0,0,1-4.943-1.859c-.73-.934-.459-1.7.177-1.978" transform="translate(-57.862 -16.551)" fill="#390028"/>
            <rect id="Rectángulo_46606" data-name="Rectángulo 46606" width="0.726" height="4.585" transform="translate(122.176 51.989) rotate(-95.62)" fill="#fff"/>
            <path id="Trazado_186583-2" data-name="Trazado 186583" d="M112.942,61.421a.354.354,0,0,0,.169-.042l18.724-9.906a.363.363,0,1,0-.339-.642l-18.724,9.906a.363.363,0,0,0,.169.684" transform="translate(28.17 -13.886)" fill="#fff"/>
            <g id="Grupo_178193-2" data-name="Grupo 178193" transform="translate(112.469 56.173)" opacity="0.46">
              <g id="Grupo_178192-2" data-name="Grupo 178192">
                <g id="Grupo_178191-2" data-name="Grupo 178191" clip-path="url(#clip-path-4)">
                  <path id="Trazado_186584-2" data-name="Trazado 186584" d="M130.027,108.213l4.376-.1a22.276,22.276,0,0,0,21.768-22.773l-.18-7.974,2.614-.059.243,10.764a23.081,23.081,0,0,1-15.738,22.4c0,.049.01.1.01.147,0,3.919-4.382,7.1-9.787,7.1-5.346,0-9.683-3.108-9.779-6.965a23.076,23.076,0,0,1-16.237-21.517l-.063-2.789a22.276,22.276,0,0,0,22.773,21.767" transform="translate(-107.254 -77.309)" fill="#ff8e77"/>
                </g>
              </g>
            </g>
            <path id="Trazado_186585" data-name="Trazado 186585" d="M47.287,127.815l11,15.043L82.9,127.815H101.3c12.976,0,23.75,7.793,25.911,18.044l17.372,58.448-.07.011,10.148,34.221C157.283,250,149.3,261.629,136.832,264.5a21.411,21.411,0,0,1-8.816.189l0,1.639L9.949,266.074,7.82,162.362c0-19.08,16.466-34.547,39.467-34.547" transform="translate(81.16 -34.945)" fill="#fff"/>
            <g id="Grupo_178196-2" data-name="Grupo 178196" transform="translate(151.948 98.285)" opacity="0.54">
              <g id="Grupo_178195-2" data-name="Grupo 178195" transform="translate(0)">
                <g id="Grupo_178194-2" data-name="Grupo 178194" transform="translate(0)" clip-path="url(#clip-path-5)">
                  <path id="Trazado_186586" data-name="Trazado 186586" d="M75.066,219.153a.364.364,0,0,0,.323-.2l31.829-61.54a1.6,1.6,0,0,0-.607-2.189l-6.554-3.67,9.779-5.952a1.335,1.335,0,0,0,.169-2.16l-9.554-8.092a.364.364,0,0,0-.47.555L109.534,144a.61.61,0,0,1-.078.985l-10.842,6.6,7.64,4.279a.873.873,0,0,1,.326,1.2L74.743,218.623a.362.362,0,0,0,.156.489.358.358,0,0,0,.166.041" transform="translate(-74.702 -135.268)" fill="#74caf3"/>
                </g>
              </g>
            </g>
            <g id="Grupo_178199" data-name="Grupo 178199" transform="translate(101.961 97.897)" opacity="0.54">
              <g id="Grupo_178198" data-name="Grupo 178198" transform="translate(0)">
                <g id="Grupo_178197" data-name="Grupo 178197" transform="translate(0)" clip-path="url(#clip-path-6)">
                  <path id="Trazado_186587" data-name="Trazado 186587" d="M180.639,220a.364.364,0,0,0,.332-.51l-28.013-63.367a.884.884,0,0,1-.057-.693.868.868,0,0,1,.448-.506l7.887-3.8-10.419-7.246a.611.611,0,0,1-.016-.99l10.03-7.493a.363.363,0,0,0-.434-.582L150.366,142.3a1.335,1.335,0,0,0,.036,2.167L159.8,151l-6.765,3.263a1.6,1.6,0,0,0-.732,2.166l28.005,63.349a.363.363,0,0,0,.332.217" transform="translate(-149.829 -134.733)" fill="#74caf3"/>
                </g>
              </g>
            </g>
            <path id="Trazado_186588" data-name="Trazado 186588" d="M176.4,214.422h20.03a.856.856,0,0,0,.854-.855v-3.7a.855.855,0,0,0-.854-.854H176.4a.856.856,0,0,0-.855.854v3.7a.856.856,0,0,0,.855.855m20.03-4.687a.128.128,0,0,1,.128.128v3.7a.128.128,0,0,1-.128.129H176.4a.128.128,0,0,1-.129-.129v-3.7a.128.128,0,0,1,.129-.128Z" transform="translate(-82.837 -57.143)" fill="#74caf3"/>
            <path id="Trazado_186589" data-name="Trazado 186589" d="M138.521,127.748,151,127.74l-36.158,109.2L90.085,128.755,103,127.569l10.9,15.173Z" transform="translate(25.544 -34.878)" fill="#74caf3"/>
            <path id="Trazado_186590" data-name="Trazado 186590" d="M138.689,165.51l5.471,40.519-13.848,42.912-9.4-42.912,5.813-40.091Z" transform="translate(9.989 -45.251)" fill="#9f9fdd"/>
            <path id="Trazado_186591" data-name="Trazado 186591" d="M140.067,145.835l2.72,11.766a2.327,2.327,0,0,1-.539,2.083l-7.475,8.291a2.329,2.329,0,0,1-3.586-.153l-6.691-8.831a2.331,2.331,0,0,1-.43-1.848L126.2,146.1a2.328,2.328,0,0,1,2.24-1.886l9.308-.182a2.328,2.328,0,0,1,2.314,1.8" transform="translate(9.037 -39.378)" fill="#8f8fcc"/>
            <path id="Trazado_186592" data-name="Trazado 186592" d="M140.067,142.658l2.72,11.766a2.327,2.327,0,0,1-.539,2.083l-7.475,8.291a2.329,2.329,0,0,1-3.586-.153l-6.691-8.831a2.331,2.331,0,0,1-.43-1.848l2.138-11.044a2.328,2.328,0,0,1,2.24-1.886l9.308-.182a2.328,2.328,0,0,1,2.314,1.8" transform="translate(9.037 -38.51)" fill="#9f9fdd"/>
            <path id="Trazado_186593" data-name="Trazado 186593" d="M103.552,155.932a1.057,1.057,0,0,0,.208-.021,1.017,1.017,0,0,0,.662-.474L116.884,134.5a.364.364,0,1,0-.625-.372L103.8,155.066a.286.286,0,0,1-.187.134.28.28,0,0,1-.225-.047L97.8,151.2a.364.364,0,0,0-.42.594l5.58,3.953a1.018,1.018,0,0,0,.587.186" transform="translate(54.417 -36.622)" fill="#fff"/>
            <path id="Trazado_186594" data-name="Trazado 186594" d="M156.671,154.249a.966.966,0,0,0,.646-.247l5.352-4.783a.363.363,0,1,0-.484-.542l-5.352,4.783a.241.241,0,0,1-.223.054.238.238,0,0,1-.169-.155l-6.623-18.638a.363.363,0,1,0-.684.243l6.622,18.638a.968.968,0,0,0,.674.616.98.98,0,0,0,.241.031" transform="translate(-29.137 -36.767)" fill="#fff"/>
            <path id="Trazado_186595" data-name="Trazado 186595" d="M187.865,211.557l26.1-90.546,22.915,4.21-4.9,75.951c-1.443,9.412-13.877,19.246-23.188,17.252L196.517,215.8" transform="translate(-131.379 -33.085)" fill="#eff7fe"/>
            <path id="Trazado_186596" data-name="Trazado 186596" d="M188.824,210.5l26.1-90.547,24.013,4.191-9.367,79.548a16.548,16.548,0,0,1-19.823,13.674l-12.269-2.627" transform="translate(-134.134 -32.795)" fill="#fff"/>
            <g id="Grupo_178202" data-name="Grupo 178202" transform="translate(82.07 64.071)" opacity="0.46">
              <g id="Grupo_178201" data-name="Grupo 178201" transform="translate(0)">
                <g id="Grupo_178200" data-name="Grupo 178200" transform="translate(0)" clip-path="url(#clip-path-7)">
                  <path id="Trazado_186597" data-name="Trazado 186597" d="M188.377,88.312a21.984,21.984,0,0,1,14.413,3.408,3.865,3.865,0,0,1,.776.586c1.4,2.143-.411,5.812-2.961,5.621-.729-.055-6.87-3.7-6.87-3.7s4.036,1.314,6.046,4.306a6.044,6.044,0,0,1-.3,7l-.573.754-.182-.327a9.833,9.833,0,0,0-5.1-4.405l-2.484-.943s8.569,3.244,7.642,7.657S196,111.993,196,111.993s-3.018-4.349-7.433-4.142c0,0,11.793,3.585,8.069,9.731-2.971,4.9-11.487,3.928-14.812,3.333a1.538,1.538,0,0,1-1.259-1.622,2.446,2.446,0,0,1,1.359-2.023l4.168-2.05-12.055,2.587a10.072,10.072,0,0,1-10.542-4.336l-2.112-3.23,3.2-8.028A21.131,21.131,0,0,1,181.909,89.02Z" transform="translate(-161.379 -88.179)" fill="#ff8e77"/>
                </g>
              </g>
            </g>
            <path id="Trazado_186598" data-name="Trazado 186598" d="M190.141,89.724a21.984,21.984,0,0,1,14.413,3.408,3.9,3.9,0,0,1,.777.586c1.4,2.143-.411,5.812-2.962,5.621-.729-.055-6.87-3.7-6.87-3.7s4.036,1.314,6.046,4.306a6.044,6.044,0,0,1-.3,7l-.573.754-.182-.327a9.828,9.828,0,0,0-5.1-4.4l-2.484-.944s8.569,3.244,7.642,7.657-2.791,3.726-2.791,3.726-3.018-4.349-7.433-4.142c0,0,11.793,3.585,8.069,9.731-2.97,4.9-11.486,3.928-14.812,3.333a1.537,1.537,0,0,1-1.26-1.622,2.444,2.444,0,0,1,1.359-2.022l4.168-2.051L175.8,119.218a10.071,10.071,0,0,1-10.542-4.336l-2.112-3.23,3.2-8.028a21.133,21.133,0,0,1,17.334-13.191Z" transform="translate(-82.356 -24.494)" fill="#fdbea6"/>
            <path id="Trazado_186599" data-name="Trazado 186599" d="M173.873,116.84a7.9,7.9,0,0,1,2.721,0,10.092,10.092,0,0,1,2.631.822,11.348,11.348,0,0,1,1.2.685c.191.13.392.246.575.388l.543.433a4.8,4.8,0,0,1,.521.459l.5.48c.32.337.618.7.928,1.042l.028.031a.422.422,0,1,0,.629-.564l0,0c-.334-.361-.654-.733-1-1.083l-.543-.5a5.451,5.451,0,0,0-.562-.479l-.586-.45c-.2-.147-.414-.269-.621-.4a12.1,12.1,0,0,0-1.3-.71,10.8,10.8,0,0,0-2.841-.834,8.482,8.482,0,0,0-2.986.059.323.323,0,0,0,.128.633Z" transform="translate(-68.296 -31.728)" fill="#ff8970"/>
            <path id="Trazado_186600" data-name="Trazado 186600" d="M169.986,106.62a7.955,7.955,0,0,1,2.67.647,10.087,10.087,0,0,1,2.377,1.423,11.267,11.267,0,0,1,1.011.95c.155.172.323.333.468.513l.428.549a5.04,5.04,0,0,1,.4.57l.377.586c.232.4.437.822.658,1.231l.02.037a.423.423,0,0,0,.744-.4l-.006-.01c-.245-.426-.475-.86-.733-1.277l-.418-.609a5.426,5.426,0,0,0-.441-.591l-.472-.568c-.16-.187-.343-.354-.514-.531a12.007,12.007,0,0,0-1.107-.979,10.722,10.722,0,0,0-2.574-1.438,8.426,8.426,0,0,0-2.9-.6.249.249,0,0,0-.016.5Z" transform="translate(-60.509 -29.014)" fill="#ff8970"/>
            <path id="Trazado_186601" data-name="Trazado 186601" d="M167.485,97.735a7.968,7.968,0,0,1,2.712.443,10.126,10.126,0,0,1,2.477,1.24,11.426,11.426,0,0,1,1.08.872c.168.16.347.307.506.477l.467.515a4.911,4.911,0,0,1,.441.538l.42.555c.262.384.5.787.749,1.178l.023.036a.422.422,0,1,0,.711-.456l-.006-.009c-.277-.407-.539-.822-.828-1.219l-.462-.575a5.578,5.578,0,0,0-.485-.556l-.513-.531c-.174-.174-.369-.327-.552-.491a12.022,12.022,0,0,0-1.179-.892,10.7,10.7,0,0,0-2.675-1.24,8.422,8.422,0,0,0-2.935-.381.249.249,0,0,0,.022.5Z" transform="translate(-56.627 -26.582)" fill="#ff8970"/>
            <path id="Trazado_186602" data-name="Trazado 186602" d="M142.14,275.127l-12.862-2.274a6.95,6.95,0,0,0-6.228,2.034l-9.484,9.891a4.832,4.832,0,0,0,.328,7l2.175,1.88,4.037-8.109-5.761,11.571a2.119,2.119,0,0,0,1.6,3.042,3.727,3.727,0,0,0,3.386-1.306l8.67-10.42-8.24,13.068a1.257,1.257,0,0,0,1.312,1.9,18.355,18.355,0,0,0,10.528-6.315l2.329-2.825a20.743,20.743,0,0,0,18.675,6.065s13.175-15.886-10.464-25.2" transform="translate(4.194 -74.569)" fill="#fdbea6"/>
            <path id="Trazado_186603" data-name="Trazado 186603" d="M160.919,297.346a.559.559,0,0,1-.034-.594l4.532-8.253a.56.56,0,1,1,.981.539l-4.532,8.253a.56.56,0,0,1-.76.221.552.552,0,0,1-.187-.166" transform="translate(-41.315 -78.797)" fill="#ff8e77"/>
            <path id="Trazado_186604" data-name="Trazado 186604" d="M150.316,294.312a.56.56,0,0,1,.793-.772s.911.683,1.915,1.466a.559.559,0,1,1-.688.882c-.995-.775-1.9-1.452-1.9-1.452a.571.571,0,0,1-.12-.124" transform="translate(-20.385 -80.224)" fill="#ff8e77"/>
            <path id="Trazado_186605" data-name="Trazado 186605" d="M159.1,287.778a.56.56,0,0,1,.793-.772s.911.683,1.915,1.465a.559.559,0,0,1-.687.883c-.995-.774-1.9-1.451-1.9-1.452a.57.57,0,0,1-.12-.124" transform="translate(-35.542 -78.437)" fill="#ff8e77"/>
            <path id="Trazado_186606" data-name="Trazado 186606" d="M141.617,302.112a.561.561,0,0,1,.031-.689,8.115,8.115,0,0,0,1.037-1.745.559.559,0,1,1,1.03.438,9.179,9.179,0,0,1-1.216,2.037.56.56,0,0,1-.79.06.629.629,0,0,1-.092-.1" transform="translate(-4.584 -81.839)" fill="#ff8e77"/>
            <g id="Grupo_178205" data-name="Grupo 178205" transform="translate(186.926 186.973)" opacity="0.32">
              <g id="Grupo_178204" data-name="Grupo 178204" transform="translate(0)">
                <g id="Grupo_178203" data-name="Grupo 178203" transform="translate(0)" clip-path="url(#clip-path-8)">
                  <path id="Trazado_186607" data-name="Trazado 186607" d="M51.808,257.326l17.43,5.455L53.68,264.162" transform="translate(-51.808 -257.326)" fill="#eff7fe"/>
                </g>
              </g>
            </g>
            <path id="Trazado_186608" data-name="Trazado 186608" d="M109.067,205.745l4.958,39.493L72.907,255.753l48.554-5.813Z" transform="translate(67.564 -56.251)" fill="#eff7fe"/>
            <path id="Trazado_186609" data-name="Trazado 186609" d="M108.8,212.1h77.591a6.163,6.163,0,0,1,5.946,4.5l17.874,64.369h51.985a1.176,1.176,0,0,1,.985,1.83l-4.1,6.116H123.762l-20.914-68.857A6.18,6.18,0,0,1,108.8,212.1" transform="translate(-95.914 -57.988)" fill="#3a4451"/>
            <path id="Trazado_186610" data-name="Trazado 186610" d="M203.079,289.128h88.653l-20.081-72.315a6.162,6.162,0,0,0-5.946-4.5H188.114a6.18,6.18,0,0,0-5.949,7.956Z" transform="translate(-181.897 -58.048)" fill="#525f72"/>
            <path id="Trazado_186611" data-name="Trazado 186611" d="M254.488,259.55a6.4,6.4,0,0,0-6.412,6.37v1.226a6.4,6.4,0,0,0,6.412,6.37h1.234a6.4,6.4,0,0,0,6.412-6.37V265.92a6.4,6.4,0,0,0-6.412-6.37Zm0-1.625h1.234a8.046,8.046,0,0,1,8.049,8v1.226a8.046,8.046,0,0,1-8.049,8h-1.234a8.046,8.046,0,0,1-8.049-8V265.92a8.046,8.046,0,0,1,8.049-8" transform="translate(-200.832 -70.517)" fill="#fff"/>
            <g id="Grupo_178208" data-name="Grupo 178208" transform="translate(50.188 192.345)" opacity="0.18">
              <g id="Grupo_178207" data-name="Grupo 178207" transform="translate(0)">
                <g id="Grupo_178206" data-name="Grupo 178206" clip-path="url(#clip-path-9)">
                  <path id="Trazado_186612" data-name="Trazado 186612" d="M256.889,265.45a2.874,2.874,0,0,0-2.88,2.861v.55a2.874,2.874,0,0,0,2.88,2.861h.554a2.874,2.874,0,0,0,2.881-2.861v-.55a2.874,2.874,0,0,0-2.881-2.861Zm0-.73h.554a3.614,3.614,0,0,1,3.616,3.592v.55a3.614,3.614,0,0,1-3.616,3.592h-.554a3.614,3.614,0,0,1-3.616-3.592v-.55a3.614,3.614,0,0,1,3.616-3.592" transform="translate(-253.273 -264.72)" fill="#fff"/>
                </g>
              </g>
            </g>
          </g>
        </g>
      </g>
    </g>
    <g id="Grupo_177797" data-name="Grupo 177797" transform="translate(839 4372.909)">
      <path id="Trazado_145969" data-name="Trazado 145969" d="M30.974,0A30.974,30.974,0,1,1,0,30.974,30.974,30.974,0,0,1,30.974,0Z" transform="translate(181 6742.089)" fill="#fd9827" opacity="0.444" style="mix-blend-mode: multiply;isolation: isolate"/>
      <path id="Trazado_145971" data-name="Trazado 145971" d="M3.535,0A3.535,3.535,0,1,1,0,3.535,3.535,3.535,0,0,1,3.535,0Z" transform="translate(194.966 6969.086)" fill="#31313c" opacity="0.444" style="mix-blend-mode: multiply;isolation: isolate"/>
      <line id="Línea_138" data-name="Línea 138" y2="75.627" transform="translate(194.966 6828.951)" fill="none" stroke="#31313c" stroke-linecap="round" stroke-width="3" stroke-dasharray="8"/>
      <g id="Grupo_177796" data-name="Grupo 177796" transform="translate(230.577 6756.817)" clip-path="url(#clip-path-10)">
        <path id="Trazado_185707" data-name="Trazado 185707" d="M.395,16.736c10.583,1.385,12.618,3.633,13.872,15.32a.444.444,0,0,0,.888,0c1.254-11.687,3.289-13.935,13.872-15.32a.5.5,0,0,0,0-.98C18.444,14.371,16.409,12.123,15.155.436a.444.444,0,0,0-.888,0C13.012,12.123,10.977,14.371.395,15.756a.5.5,0,0,0,0,.98" transform="translate(0.001 0)" fill="#31313c"/>
      </g>
    </g>
    <g id="Grupo_178708" data-name="Grupo 178708" transform="translate(1040 11279.038)">
      <g id="Grupo_178707" data-name="Grupo 178707" clip-path="url(#clip-path-11)">
        <g id="Grupo_178706" data-name="Grupo 178706" transform="translate(0 0)">
          <g id="Grupo_178705" data-name="Grupo 178705" clip-path="url(#clip-path-12)">
            <path id="Trazado_187419" data-name="Trazado 187419" d="M103.116,57.774h0a6.86,6.86,0,0,0,6.959-6.757V5.907H96.158v45.11a6.86,6.86,0,0,0,6.958,6.757" transform="translate(-18.895 -1.161)" fill="#dff5ff"/>
            <g id="Grupo_178659" data-name="Grupo 178659" transform="translate(78.503 4.746)" opacity="0.43">
              <g id="Grupo_178658" data-name="Grupo 178658">
                <g id="Grupo_178657" data-name="Grupo 178657" clip-path="url(#clip-path-13)">
                  <path id="Trazado_187420" data-name="Trazado 187420" d="M103.411,54.492h0c3.153,0,5.709-2.834,5.709-6.329V5.907H97.7V48.163c0,3.5,2.556,6.329,5.709,6.329" transform="translate(-97.702 -5.907)" fill="#fff"/>
                </g>
              </g>
            </g>
            <path id="Trazado_187421" data-name="Trazado 187421" d="M103.543,53.872h0a5.139,5.139,0,0,0,5.213-5.061v-33.8H98.33v33.8a5.139,5.139,0,0,0,5.213,5.061" transform="translate(-19.322 -2.951)" fill="#74caf3"/>
            <path id="Trazado_187422" data-name="Trazado 187422" d="M96.142,5.567h12.739a2.783,2.783,0,1,0,0-5.567H96.142a2.783,2.783,0,1,0,0,5.567" transform="translate(-18.345 0)" fill="#c5e4ef"/>
            <g id="Grupo_178662" data-name="Grupo 178662" transform="translate(82.468 22.649)" opacity="0.43">
              <g id="Grupo_178661" data-name="Grupo 178661">
                <g id="Grupo_178660" data-name="Grupo 178660" clip-path="url(#clip-path-14)">
                  <path id="Trazado_187423" data-name="Trazado 187423" d="M102.636,28.823a.634.634,0,1,0,.635-.634.635.635,0,0,0-.635.634" transform="translate(-102.636 -28.188)" fill="#fff"/>
                </g>
              </g>
            </g>
            <g id="Grupo_178665" data-name="Grupo 178665" transform="translate(85.798 30.822)" opacity="0.43">
              <g id="Grupo_178664" data-name="Grupo 178664">
                <g id="Grupo_178663" data-name="Grupo 178663" clip-path="url(#clip-path-15)">
                  <path id="Trazado_187424" data-name="Trazado 187424" d="M106.781,38.994a.634.634,0,1,0,.634-.634.634.634,0,0,0-.634.634" transform="translate(-106.781 -38.36)" fill="#fff"/>
                </g>
              </g>
            </g>
            <g id="Grupo_178668" data-name="Grupo 178668" transform="translate(80.636 34.464)" opacity="0.43">
              <g id="Grupo_178667" data-name="Grupo 178667">
                <g id="Grupo_178666" data-name="Grupo 178666" clip-path="url(#clip-path-14)">
                  <path id="Trazado_187425" data-name="Trazado 187425" d="M100.356,43.527a.634.634,0,1,0,.635-.635.634.634,0,0,0-.635.635" transform="translate(-100.356 -42.892)" fill="#fff"/>
                </g>
              </g>
            </g>
            <path id="Trazado_187426" data-name="Trazado 187426" d="M67.18,61.176h0a7.082,7.082,0,0,0,6.958-7.2V5.907H60.221v48.07a7.083,7.083,0,0,0,6.959,7.2" transform="translate(-11.834 -1.161)" fill="#dff5ff"/>
            <g id="Grupo_178671" data-name="Grupo 178671" transform="translate(49.629 4.746)" opacity="0.43">
              <g id="Grupo_178670" data-name="Grupo 178670">
                <g id="Grupo_178669" data-name="Grupo 178669" clip-path="url(#clip-path-17)">
                  <path id="Trazado_187427" data-name="Trazado 187427" d="M67.475,57.68h0c3.153,0,5.709-3.02,5.709-6.744V5.907H61.766V50.936c0,3.724,2.556,6.744,5.709,6.744" transform="translate(-61.766 -5.907)" fill="#fff"/>
                </g>
              </g>
            </g>
            <path id="Trazado_187428" data-name="Trazado 187428" d="M67.607,57.019h0a5.306,5.306,0,0,0,5.213-5.394V15.613H62.394V51.625a5.306,5.306,0,0,0,5.213,5.394" transform="translate(-12.261 -3.068)" fill="#aeade7"/>
            <path id="Trazado_187429" data-name="Trazado 187429" d="M60.207,5.567H72.947a2.783,2.783,0,1,0,0-5.567H60.207a2.783,2.783,0,1,0,0,5.567" transform="translate(-11.284 0)" fill="#c5e4ef"/>
            <g id="Grupo_178674" data-name="Grupo 178674" transform="translate(53.593 22.649)" opacity="0.43">
              <g id="Grupo_178673" data-name="Grupo 178673">
                <g id="Grupo_178672" data-name="Grupo 178672" clip-path="url(#clip-path-14)">
                  <path id="Trazado_187430" data-name="Trazado 187430" d="M66.7,28.823a.634.634,0,1,0,.635-.634.635.635,0,0,0-.635.634" transform="translate(-66.7 -28.188)" fill="#fff"/>
                </g>
              </g>
            </g>
            <g id="Grupo_178677" data-name="Grupo 178677" transform="translate(56.924 30.822)" opacity="0.43">
              <g id="Grupo_178676" data-name="Grupo 178676">
                <g id="Grupo_178675" data-name="Grupo 178675" clip-path="url(#clip-path-14)">
                  <path id="Trazado_187431" data-name="Trazado 187431" d="M70.845,38.994a.634.634,0,1,0,.634-.634.634.634,0,0,0-.634.634" transform="translate(-70.845 -38.36)" fill="#fff"/>
                </g>
              </g>
            </g>
            <g id="Grupo_178680" data-name="Grupo 178680" transform="translate(51.762 34.464)" opacity="0.43">
              <g id="Grupo_178679" data-name="Grupo 178679">
                <g id="Grupo_178678" data-name="Grupo 178678" clip-path="url(#clip-path-14)">
                  <path id="Trazado_187432" data-name="Trazado 187432" d="M64.42,43.527a.634.634,0,1,0,.635-.635.634.634,0,0,0-.635.635" transform="translate(-64.42 -42.892)" fill="#fff"/>
                </g>
              </g>
            </g>
            <path id="Trazado_187433" data-name="Trazado 187433" d="M29.954,64.32h0c3.843,0,6.958-3.44,6.958-7.683V5.34H23v51.3c0,4.243,3.116,7.683,6.959,7.683" transform="translate(-4.519 -1.05)" fill="#dff5ff"/>
            <g id="Grupo_178683" data-name="Grupo 178683" transform="translate(19.718 4.291)" opacity="0.43">
              <g id="Grupo_178682" data-name="Grupo 178682">
                <g id="Grupo_178681" data-name="Grupo 178681" clip-path="url(#clip-path-21)">
                  <path id="Trazado_187434" data-name="Trazado 187434" d="M30.249,60.588h0c3.153,0,5.709-3.222,5.709-7.2V5.34H24.54V53.392c0,3.975,2.556,7.2,5.709,7.2" transform="translate(-24.54 -5.34)" fill="#fff"/>
                </g>
              </g>
            </g>
            <path id="Trazado_187435" data-name="Trazado 187435" d="M30.381,59.884h0a5.5,5.5,0,0,0,5.213-5.755V15.7H25.168v38.43a5.5,5.5,0,0,0,5.213,5.755" transform="translate(-4.946 -3.085)" fill="#ffa97c"/>
            <path id="Trazado_187436" data-name="Trazado 187436" d="M22.981,5.567H35.721a2.783,2.783,0,1,0,0-5.567H22.981a2.783,2.783,0,1,0,0,5.567" transform="translate(-3.969 0)" fill="#c5e4ef"/>
            <g id="Grupo_178686" data-name="Grupo 178686" transform="translate(23.682 22.649)" opacity="0.43">
              <g id="Grupo_178685" data-name="Grupo 178685">
                <g id="Grupo_178684" data-name="Grupo 178684" clip-path="url(#clip-path-14)">
                  <path id="Trazado_187437" data-name="Trazado 187437" d="M29.474,28.823a.634.634,0,1,0,.634-.634.634.634,0,0,0-.634.634" transform="translate(-29.474 -28.188)" fill="#fff"/>
                </g>
              </g>
            </g>
            <g id="Grupo_178689" data-name="Grupo 178689" transform="translate(27.013 30.822)" opacity="0.43">
              <g id="Grupo_178688" data-name="Grupo 178688">
                <g id="Grupo_178687" data-name="Grupo 178687" clip-path="url(#clip-path-14)">
                  <path id="Trazado_187438" data-name="Trazado 187438" d="M33.619,38.994a.634.634,0,1,0,.634-.634.634.634,0,0,0-.634.634" transform="translate(-33.619 -38.36)" fill="#fff"/>
                </g>
              </g>
            </g>
            <g id="Grupo_178692" data-name="Grupo 178692" transform="translate(21.851 34.464)" opacity="0.43">
              <g id="Grupo_178691" data-name="Grupo 178691">
                <g id="Grupo_178690" data-name="Grupo 178690" clip-path="url(#clip-path-14)">
                  <path id="Trazado_187439" data-name="Trazado 187439" d="M27.194,43.527a.634.634,0,1,0,.634-.635.634.634,0,0,0-.634.635" transform="translate(-27.194 -42.892)" fill="#fff"/>
                </g>
              </g>
            </g>
            <rect id="Rectángulo_46773" data-name="Rectángulo 46773" width="4.059" height="48.15" transform="translate(99.835 17.963)" fill="#a7b0be"/>
            <rect id="Rectángulo_46774" data-name="Rectángulo 46774" width="4.059" height="48.15" transform="translate(4.112 17.963)" fill="#a7b0be"/>
            <path id="Trazado_187440" data-name="Trazado 187440" d="M4.3,26.108H105.415a2.684,2.684,0,0,0,2.684-2.684V22.309a2.683,2.683,0,0,0-2.684-2.684H4.3a2.684,2.684,0,0,0-2.684,2.684v1.114A2.685,2.685,0,0,0,4.3,26.108" transform="translate(-0.318 -3.857)" fill="#525f72"/>
            <path id="Trazado_187441" data-name="Trazado 187441" d="M3.634,46.625H104.912a1.222,1.222,0,0,0,0-2.444H3.634a1.222,1.222,0,0,0,0,2.444" transform="translate(-0.474 -8.682)" fill="#3a4451"/>
            <path id="Trazado_187442" data-name="Trazado 187442" d="M9.82,86.165H2.163a2.162,2.162,0,1,1,0-4.324H9.82a2.162,2.162,0,1,1,0,4.324" transform="translate(0 -16.082)" fill="#525f72"/>
            <path id="Trazado_187443" data-name="Trazado 187443" d="M129.584,86.165h-7.657a2.162,2.162,0,1,1,0-4.324h7.657a2.162,2.162,0,1,1,0,4.324" transform="translate(-23.534 -16.082)" fill="#525f72"/>
            <path id="Trazado_187444" data-name="Trazado 187444" d="M198.538,63.985,182.047,35.728l-.1-20.275-14.9.07L167.138,35l-16.682,29.21a6.263,6.263,0,0,0,5.468,9.368l37.235-.175a6.262,6.262,0,0,0,5.379-9.419" transform="translate(-29.401 -3.037)" fill="#dff5ff"/>
            <g id="Grupo_178695" data-name="Grupo 178695" transform="translate(123.562 13.134)" opacity="0.43">
              <g id="Grupo_178694" data-name="Grupo 178694">
                <g id="Grupo_178693" data-name="Grupo 178693" clip-path="url(#clip-path-25)">
                  <path id="Trazado_187445" data-name="Trazado 187445" d="M196.554,62.989,180.5,36.085l-.093-19.739-10.024.047.092,19.457L154.509,63.187a5.356,5.356,0,0,0,4.78,8.01l32.561-.153a5.356,5.356,0,0,0,4.7-8.055" transform="translate(-153.78 -16.347)" fill="#fff"/>
                </g>
              </g>
            </g>
            <path id="Trazado_187446" data-name="Trazado 187446" d="M181.466,56.781a4.124,4.124,0,0,1,5.021,1.639l1.826,2.923,3.828,6.7a5.442,5.442,0,0,1-4.751,8.141l-21.686-.1a5.441,5.441,0,0,1-4.675-8.184l4.627-7.986c1.855-3.179,6.3-3.578,9.736-2.268,1.69.643,3.8.032,6.074-.865" transform="translate(-31.495 -11.1)" fill="#aeade7"/>
            <path id="Trazado_187447" data-name="Trazado 187447" d="M182.336,56.464a1.418,1.418,0,1,1-1.418-1.418,1.418,1.418,0,0,1,1.418,1.418" transform="translate(-35.272 -10.817)" fill="#aeade7"/>
            <path id="Trazado_187448" data-name="Trazado 187448" d="M176.392,53.11a1.063,1.063,0,1,1-1.064-1.064,1.064,1.064,0,0,1,1.064,1.064" transform="translate(-34.244 -10.227)" fill="#aeade7"/>
            <path id="Trazado_187449" data-name="Trazado 187449" d="M183.509,49.7a1.063,1.063,0,1,1-1.064-1.064,1.064,1.064,0,0,1,1.064,1.064" transform="translate(-35.642 -9.557)" fill="#aeade7"/>
            <path id="Trazado_187450" data-name="Trazado 187450" d="M184.807,15.166l-12.7.059a2.606,2.606,0,0,1-2.786-2.384,2.607,2.607,0,0,1,2.763-2.41l12.7-.059a2.606,2.606,0,0,1,2.786,2.384,2.607,2.607,0,0,1-2.763,2.41" transform="translate(-33.273 -2.038)" fill="#c5e4ef"/>
            <g id="Grupo_178698" data-name="Grupo 178698" transform="translate(137.634 52.713)" opacity="0.43">
              <g id="Grupo_178697" data-name="Grupo 178697">
                <g id="Grupo_178696" data-name="Grupo 178696" clip-path="url(#clip-path-26)">
                  <path id="Trazado_187451" data-name="Trazado 187451" d="M174.485,67.2a1.6,1.6,0,1,1-1.595-1.595,1.6,1.6,0,0,1,1.595,1.595" transform="translate(-171.294 -65.605)" fill="#fff"/>
                </g>
              </g>
            </g>
            <g id="Grupo_178701" data-name="Grupo 178701" transform="translate(148.552 49.877)" opacity="0.43">
              <g id="Grupo_178700" data-name="Grupo 178700">
                <g id="Grupo_178699" data-name="Grupo 178699" clip-path="url(#clip-path-27)">
                  <path id="Trazado_187452" data-name="Trazado 187452" d="M186.655,62.962a.886.886,0,1,1-.886-.886.886.886,0,0,1,.886.886" transform="translate(-184.882 -62.076)" fill="#fff"/>
                </g>
              </g>
            </g>
            <g id="Grupo_178704" data-name="Grupo 178704" transform="translate(148.482 56.967)" opacity="0.43">
              <g id="Grupo_178703" data-name="Grupo 178703">
                <g id="Grupo_178702" data-name="Grupo 178702" clip-path="url(#clip-path-27)">
                  <path id="Trazado_187453" data-name="Trazado 187453" d="M186.567,71.785a.886.886,0,1,1-.886-.886.886.886,0,0,1,.886.886" transform="translate(-184.794 -70.899)" fill="#fff"/>
                </g>
              </g>
            </g>
          </g>
        </g>
      </g>
    </g>
  </g>
</svg>
