<svg xmlns="http://www.w3.org/2000/svg" width="452" height="129" viewBox="0 0 452 129">
  <g id="Grupo_178787" data-name="Grupo 178787" transform="translate(-9569 1671)">
    <g id="Grupo_178620" data-name="Grupo 178620" transform="translate(8590.519 -11227)">
      <rect id="Rectángulo_46747" data-name="Rectángulo 46747" width="452" height="129" rx="10" transform="translate(978.481 9556)" fill="#fff"/>
      <g id="Grupo_178615" data-name="Grupo 178615" transform="translate(1253.481 9575)">
        <text id="Ejemplo:_Ácido_hexanóico_CH3-CH2-CH2_-CH2-CH2-COOH_" data-name="Ejemplo: 
Ácido hexanóico, 
CH3-CH2-CH2 -CH2-CH2-COOH " fill="#12263f" font-size="16" font-family="Roboto-Bold, Roboto" font-weight="700"><tspan x="0" y="17">Ejemplo: </tspan><tspan x="0" y="41">Ácido hexanóico, </tspan><tspan x="0" y="65">CH3-CH2-CH2 -</tspan><tspan x="0" y="89">CH2-CH2-COOH </tspan></text>
      </g>
    </g>
    <path id="Trazado_187604" data-name="Trazado 187604" d="M10.359,11.57a6.867,6.867,0,0,1-.594,2.945,4.472,4.472,0,0,1-1.7,1.953,4.7,4.7,0,0,1-2.535.688,4.732,4.732,0,0,1-2.523-.68,4.515,4.515,0,0,1-1.719-1.941,6.67,6.67,0,0,1-.617-2.9V11.07a6.831,6.831,0,0,1,.605-2.957A4.508,4.508,0,0,1,2.988,6.152a4.706,4.706,0,0,1,2.527-.684,4.706,4.706,0,0,1,2.527.684A4.508,4.508,0,0,1,9.754,8.113a6.811,6.811,0,0,1,.605,2.949Zm-2.375-.516a4.787,4.787,0,0,0-.641-2.719,2.088,2.088,0,0,0-1.828-.93,2.088,2.088,0,0,0-1.82.918,4.732,4.732,0,0,0-.648,2.691v.555a4.847,4.847,0,0,0,.641,2.7,2.082,2.082,0,0,0,1.844.961,2.064,2.064,0,0,0,1.813-.926,4.819,4.819,0,0,0,.641-2.7Z" transform="translate(9808.836 -1646)" fill="#12263f"/>
    <path id="Trazado_187605" data-name="Trazado 187605" d="M10.359,11.57a6.867,6.867,0,0,1-.594,2.945,4.472,4.472,0,0,1-1.7,1.953,4.7,4.7,0,0,1-2.535.688,4.732,4.732,0,0,1-2.523-.68,4.515,4.515,0,0,1-1.719-1.941,6.67,6.67,0,0,1-.617-2.9V11.07a6.831,6.831,0,0,1,.605-2.957A4.508,4.508,0,0,1,2.988,6.152a4.706,4.706,0,0,1,2.527-.684,4.706,4.706,0,0,1,2.527.684A4.508,4.508,0,0,1,9.754,8.113a6.811,6.811,0,0,1,.605,2.949Zm-2.375-.516a4.787,4.787,0,0,0-.641-2.719,2.088,2.088,0,0,0-1.828-.93,2.088,2.088,0,0,0-1.82.918,4.732,4.732,0,0,0-.648,2.691v.555a4.847,4.847,0,0,0,.641,2.7,2.082,2.082,0,0,0,1.844.961,2.064,2.064,0,0,0,1.813-.926,4.819,4.819,0,0,0,.641-2.7ZM21.32,17H18.977V12.125h-4.57V17H12.063V5.625h2.344v4.609h4.57V5.625H21.32Z" transform="translate(9810 -1586.514)" fill="#12263f"/>
    <path id="Trazado_187606" data-name="Trazado 187606" d="M9.945,13.211A4.025,4.025,0,0,1,8.59,16.1a4.76,4.76,0,0,1-3.223,1.055,4.28,4.28,0,0,1-3.441-1.473A6.038,6.038,0,0,1,.672,11.641v-.7A6.819,6.819,0,0,1,1.25,8.055,4.332,4.332,0,0,1,2.9,6.137a4.629,4.629,0,0,1,2.5-.668A4.637,4.637,0,0,1,8.57,6.523,4.326,4.326,0,0,1,9.961,9.484H7.617A2.376,2.376,0,0,0,7,7.887a2.271,2.271,0,0,0-1.605-.5,1.991,1.991,0,0,0-1.754.84,4.707,4.707,0,0,0-.6,2.605V11.7a5.038,5.038,0,0,0,.559,2.7,1.954,1.954,0,0,0,1.762.852,2.314,2.314,0,0,0,1.621-.5A2.241,2.241,0,0,0,7.6,13.211ZM20.742,17H18.4V12.125h-4.57V17H11.484V5.625h2.344v4.609H18.4V5.625h2.344Zm6.388,0H22.257v-.967l2.3-2.451a5.674,5.674,0,0,0,.7-.9,1.451,1.451,0,0,0,.227-.732,1.086,1.086,0,0,0-.239-.745.864.864,0,0,0-.684-.271.931.931,0,0,0-.754.33,1.306,1.306,0,0,0-.276.867H22.115a2.331,2.331,0,0,1,.31-1.187A2.185,2.185,0,0,1,23.3,10.1a2.664,2.664,0,0,1,1.284-.305,2.522,2.522,0,0,1,1.707.527A1.866,1.866,0,0,1,26.9,11.81a2.39,2.39,0,0,1-.273,1.074,5.97,5.97,0,0,1-.937,1.274l-1.616,1.7H27.13Z" transform="translate(9625.575 -1605.514)" fill="#12263f"/>
    <path id="Trazado_187607" data-name="Trazado 187607" d="M9.945,13.211A4.025,4.025,0,0,1,8.59,16.1a4.76,4.76,0,0,1-3.223,1.055,4.28,4.28,0,0,1-3.441-1.473A6.038,6.038,0,0,1,.672,11.641v-.7A6.819,6.819,0,0,1,1.25,8.055,4.332,4.332,0,0,1,2.9,6.137a4.629,4.629,0,0,1,2.5-.668A4.637,4.637,0,0,1,8.57,6.523,4.326,4.326,0,0,1,9.961,9.484H7.617A2.376,2.376,0,0,0,7,7.887a2.271,2.271,0,0,0-1.605-.5,1.991,1.991,0,0,0-1.754.84,4.707,4.707,0,0,0-.6,2.605V11.7a5.038,5.038,0,0,0,.559,2.7,1.954,1.954,0,0,0,1.762.852,2.314,2.314,0,0,0,1.621-.5A2.241,2.241,0,0,0,7.6,13.211ZM20.742,17H18.4V12.125h-4.57V17H11.484V5.625h2.344v4.609H18.4V5.625h2.344Zm6.388,0H22.257v-.967l2.3-2.451a5.674,5.674,0,0,0,.7-.9,1.451,1.451,0,0,0,.227-.732,1.086,1.086,0,0,0-.239-.745.864.864,0,0,0-.684-.271.931.931,0,0,0-.754.33,1.306,1.306,0,0,0-.276.867H22.115a2.331,2.331,0,0,1,.31-1.187A2.185,2.185,0,0,1,23.3,10.1a2.664,2.664,0,0,1,1.284-.305,2.522,2.522,0,0,1,1.707.527A1.866,1.866,0,0,1,26.9,11.81a2.39,2.39,0,0,1-.273,1.074,5.97,5.97,0,0,1-.937,1.274l-1.616,1.7H27.13Z" transform="translate(9667.15 -1605.514)" fill="#12263f"/>
    <path id="Trazado_187608" data-name="Trazado 187608" d="M9.945,13.211A4.025,4.025,0,0,1,8.59,16.1a4.76,4.76,0,0,1-3.223,1.055,4.28,4.28,0,0,1-3.441-1.473A6.038,6.038,0,0,1,.672,11.641v-.7A6.819,6.819,0,0,1,1.25,8.055,4.332,4.332,0,0,1,2.9,6.137a4.629,4.629,0,0,1,2.5-.668A4.637,4.637,0,0,1,8.57,6.523,4.326,4.326,0,0,1,9.961,9.484H7.617A2.376,2.376,0,0,0,7,7.887a2.271,2.271,0,0,0-1.605-.5,1.991,1.991,0,0,0-1.754.84,4.707,4.707,0,0,0-.6,2.605V11.7a5.038,5.038,0,0,0,.559,2.7,1.954,1.954,0,0,0,1.762.852,2.314,2.314,0,0,0,1.621-.5A2.241,2.241,0,0,0,7.6,13.211ZM20.742,17H18.4V12.125h-4.57V17H11.484V5.625h2.344v4.609H18.4V5.625h2.344Zm6.388,0H22.257v-.967l2.3-2.451a5.674,5.674,0,0,0,.7-.9,1.451,1.451,0,0,0,.227-.732,1.086,1.086,0,0,0-.239-.745.864.864,0,0,0-.684-.271.931.931,0,0,0-.754.33,1.306,1.306,0,0,0-.276.867H22.115a2.331,2.331,0,0,1,.31-1.187A2.185,2.185,0,0,1,23.3,10.1a2.664,2.664,0,0,1,1.284-.305,2.522,2.522,0,0,1,1.707.527A1.866,1.866,0,0,1,26.9,11.81a2.39,2.39,0,0,1-.273,1.074,5.97,5.97,0,0,1-.937,1.274l-1.616,1.7H27.13Z" transform="translate(9710.301 -1605.514)" fill="#12263f"/>
    <path id="Trazado_187609" data-name="Trazado 187609" d="M9.945,13.211A4.025,4.025,0,0,1,8.59,16.1a4.76,4.76,0,0,1-3.223,1.055,4.28,4.28,0,0,1-3.441-1.473A6.038,6.038,0,0,1,.672,11.641v-.7A6.819,6.819,0,0,1,1.25,8.055,4.332,4.332,0,0,1,2.9,6.137a4.629,4.629,0,0,1,2.5-.668A4.637,4.637,0,0,1,8.57,6.523,4.326,4.326,0,0,1,9.961,9.484H7.617A2.376,2.376,0,0,0,7,7.887a2.271,2.271,0,0,0-1.605-.5,1.991,1.991,0,0,0-1.754.84,4.707,4.707,0,0,0-.6,2.605V11.7a5.038,5.038,0,0,0,.559,2.7,1.954,1.954,0,0,0,1.762.852,2.314,2.314,0,0,0,1.621-.5A2.241,2.241,0,0,0,7.6,13.211ZM20.742,17H18.4V12.125h-4.57V17H11.484V5.625h2.344v4.609H18.4V5.625h2.344Zm6.388,0H22.257v-.967l2.3-2.451a5.674,5.674,0,0,0,.7-.9,1.451,1.451,0,0,0,.227-.732,1.086,1.086,0,0,0-.239-.745.864.864,0,0,0-.684-.271.931.931,0,0,0-.754.33,1.306,1.306,0,0,0-.276.867H22.115a2.331,2.331,0,0,1,.31-1.187A2.185,2.185,0,0,1,23.3,10.1a2.664,2.664,0,0,1,1.284-.305,2.522,2.522,0,0,1,1.707.527A1.866,1.866,0,0,1,26.9,11.81a2.39,2.39,0,0,1-.273,1.074,5.97,5.97,0,0,1-.937,1.274l-1.616,1.7H27.13Z" transform="translate(9751.876 -1605.514)" fill="#12263f"/>
    <path id="Trazado_187610" data-name="Trazado 187610" d="M9.945,13.211A4.025,4.025,0,0,1,8.59,16.1a4.76,4.76,0,0,1-3.223,1.055,4.28,4.28,0,0,1-3.441-1.473A6.038,6.038,0,0,1,.672,11.641v-.7A6.819,6.819,0,0,1,1.25,8.055,4.332,4.332,0,0,1,2.9,6.137a4.629,4.629,0,0,1,2.5-.668A4.637,4.637,0,0,1,8.57,6.523,4.326,4.326,0,0,1,9.961,9.484H7.617A2.376,2.376,0,0,0,7,7.887a2.271,2.271,0,0,0-1.605-.5,1.991,1.991,0,0,0-1.754.84,4.707,4.707,0,0,0-.6,2.605V11.7a5.038,5.038,0,0,0,.559,2.7,1.954,1.954,0,0,0,1.762.852,2.314,2.314,0,0,0,1.621-.5A2.241,2.241,0,0,0,7.6,13.211Z" transform="translate(9790.876 -1605.514)" fill="#12263f"/>
    <path id="Trazado_187611" data-name="Trazado 187611" d="M10.273,17H7.93V12.125H3.359V17H1.016V5.625H3.359v4.609H7.93V5.625h2.344Zm2.95-4.18h.752a1.06,1.06,0,0,0,.8-.269.984.984,0,0,0,.259-.713.87.87,0,0,0-.256-.669.993.993,0,0,0-.706-.239,1.041,1.041,0,0,0-.679.222.71.71,0,0,0-.273.579H11.705a1.735,1.735,0,0,1,.3-1,2,2,0,0,1,.84-.691,2.8,2.8,0,0,1,1.189-.249,2.658,2.658,0,0,1,1.768.54,1.841,1.841,0,0,1,.64,1.487,1.5,1.5,0,0,1-.3.9,1.935,1.935,0,0,1-.781.63,1.766,1.766,0,0,1,.9.645,1.748,1.748,0,0,1,.3,1.016,1.871,1.871,0,0,1-.691,1.519,2.778,2.778,0,0,1-1.829.571,2.634,2.634,0,0,1-1.741-.562,1.834,1.834,0,0,1-.676-1.484h1.411a.818.818,0,0,0,.3.654,1.253,1.253,0,0,0,1.528-.012.919.919,0,0,0,.286-.706q0-1.064-1.172-1.064h-.747Zm13.764.391A4.025,4.025,0,0,1,25.632,16.1a4.76,4.76,0,0,1-3.223,1.055,4.28,4.28,0,0,1-3.441-1.473,6.038,6.038,0,0,1-1.254-4.043v-.7a6.819,6.819,0,0,1,.578-2.891,4.332,4.332,0,0,1,1.652-1.918,4.629,4.629,0,0,1,2.5-.668,4.637,4.637,0,0,1,3.172,1.055A4.326,4.326,0,0,1,27,9.484H24.659a2.376,2.376,0,0,0-.613-1.6,2.271,2.271,0,0,0-1.605-.5,1.991,1.991,0,0,0-1.754.84,4.707,4.707,0,0,0-.6,2.605V11.7a5.038,5.038,0,0,0,.559,2.7,1.954,1.954,0,0,0,1.762.852,2.314,2.314,0,0,0,1.621-.5,2.241,2.241,0,0,0,.613-1.535Z" transform="translate(9583.575 -1605.514)" fill="#12263f"/>
    <path id="Trazado_187612" data-name="Trazado 187612" d="M0,0H9" transform="translate(9615 -1596.014)" fill="none" stroke="#12263f" stroke-width="1"/>
    <path id="Trazado_187613" data-name="Trazado 187613" d="M0,0H9" transform="translate(9656.575 -1596.014)" fill="none" stroke="#12263f" stroke-width="1"/>
    <path id="Trazado_187614" data-name="Trazado 187614" d="M0,0H9" transform="translate(9699.726 -1596.014)" fill="none" stroke="#12263f" stroke-width="1"/>
    <path id="Trazado_187615" data-name="Trazado 187615" d="M0,0H9" transform="translate(9741.301 -1596.014)" fill="none" stroke="#12263f" stroke-width="1"/>
    <path id="Trazado_187616" data-name="Trazado 187616" d="M0,0H9" transform="translate(9780.301 -1596.014)" fill="none" stroke="#12263f" stroke-width="1"/>
    <path id="Trazado_187617" data-name="Trazado 187617" d="M0,0,4.924,9" transform="translate(9801.876 -1586.514)" fill="none" stroke="#12263f" stroke-width="1"/>
    <path id="Trazado_187618" data-name="Trazado 187618" d="M0,24.4V0" transform="matrix(-0.899, -0.438, 0.438, -0.899, 9802.448, -1605.514)" fill="none" stroke="#12263f" stroke-width="1"/>
    <path id="Trazado_187619" data-name="Trazado 187619" d="M0,24.4V0" transform="matrix(-0.899, -0.438, 0.438, -0.899, 9799.302, -1607.048)" fill="none" stroke="#12263f" stroke-width="1"/>
  </g>
</svg>
