<svg xmlns="http://www.w3.org/2000/svg" width="370.636" height="103.93" viewBox="0 0 370.636 103.93">
  <g id="Grupo_178789" data-name="Grupo 178789" transform="translate(-921.016 -10210.625)">
    <path id="Trazado_187632" data-name="Trazado 187632" d="M10.273,17H7.93V12.125H3.359V17H1.016V5.625H3.359v4.609H7.93V5.625h2.344Z" transform="translate(920 10233)" fill="#12263f"/>
    <path id="Trazado_187633" data-name="Trazado 187633" d="M10.273,17H7.93V12.125H3.359V17H1.016V5.625H3.359v4.609H7.93V5.625h2.344Z" transform="translate(944 10261)" fill="#12263f"/>
    <path id="Trazado_187634" data-name="Trazado 187634" d="M10.273,17H7.93V12.125H3.359V17H1.016V5.625H3.359v4.609H7.93V5.625h2.344Z" transform="translate(944 10205)" fill="#12263f"/>
    <path id="Trazado_187635" data-name="Trazado 187635" d="M10.273,17H7.93V12.125H3.359V17H1.016V5.625H3.359v4.609H7.93V5.625h2.344Z" transform="translate(968 10261)" fill="#12263f"/>
    <path id="Trazado_187636" data-name="Trazado 187636" d="M10.273,17H7.93V12.125H3.359V17H1.016V5.625H3.359v4.609H7.93V5.625h2.344Z" transform="translate(968 10205)" fill="#12263f"/>
    <path id="Trazado_187637" data-name="Trazado 187637" d="M10.273,17H7.93V12.125H3.359V17H1.016V5.625H3.359v4.609H7.93V5.625h2.344Z" transform="translate(990 10261)" fill="#12263f"/>
    <path id="Trazado_187638" data-name="Trazado 187638" d="M10.273,17H7.93V12.125H3.359V17H1.016V5.625H3.359v4.609H7.93V5.625h2.344Z" transform="translate(990 10205)" fill="#12263f"/>
    <path id="Trazado_187639" data-name="Trazado 187639" d="M10.273,17H7.93V12.125H3.359V17H1.016V5.625H3.359v4.609H7.93V5.625h2.344Z" transform="translate(1036 10233)" fill="#12263f"/>
    <path id="Trazado_187640" data-name="Trazado 187640" d="M9.945,13.211A4.025,4.025,0,0,1,8.59,16.1a4.76,4.76,0,0,1-3.223,1.055,4.28,4.28,0,0,1-3.441-1.473A6.038,6.038,0,0,1,.672,11.641v-.7A6.819,6.819,0,0,1,1.25,8.055,4.332,4.332,0,0,1,2.9,6.137a4.629,4.629,0,0,1,2.5-.668A4.637,4.637,0,0,1,8.57,6.523,4.326,4.326,0,0,1,9.961,9.484H7.617A2.376,2.376,0,0,0,7,7.887a2.271,2.271,0,0,0-1.605-.5,1.991,1.991,0,0,0-1.754.84,4.707,4.707,0,0,0-.6,2.605V11.7a5.038,5.038,0,0,0,.559,2.7,1.954,1.954,0,0,0,1.762.852,2.314,2.314,0,0,0,1.621-.5A2.241,2.241,0,0,0,7.6,13.211Z" transform="translate(944 10233)" fill="#12263f"/>
    <path id="Trazado_187641" data-name="Trazado 187641" d="M9.945,13.211A4.025,4.025,0,0,1,8.59,16.1a4.76,4.76,0,0,1-3.223,1.055,4.28,4.28,0,0,1-3.441-1.473A6.038,6.038,0,0,1,.672,11.641v-.7A6.819,6.819,0,0,1,1.25,8.055,4.332,4.332,0,0,1,2.9,6.137a4.629,4.629,0,0,1,2.5-.668A4.637,4.637,0,0,1,8.57,6.523,4.326,4.326,0,0,1,9.961,9.484H7.617A2.376,2.376,0,0,0,7,7.887a2.271,2.271,0,0,0-1.605-.5,1.991,1.991,0,0,0-1.754.84,4.707,4.707,0,0,0-.6,2.605V11.7a5.038,5.038,0,0,0,.559,2.7,1.954,1.954,0,0,0,1.762.852,2.314,2.314,0,0,0,1.621-.5A2.241,2.241,0,0,0,7.6,13.211Z" transform="translate(968 10233)" fill="#12263f"/>
    <path id="Trazado_187642" data-name="Trazado 187642" d="M9.945,13.211A4.025,4.025,0,0,1,8.59,16.1a4.76,4.76,0,0,1-3.223,1.055,4.28,4.28,0,0,1-3.441-1.473A6.038,6.038,0,0,1,.672,11.641v-.7A6.819,6.819,0,0,1,1.25,8.055,4.332,4.332,0,0,1,2.9,6.137a4.629,4.629,0,0,1,2.5-.668A4.637,4.637,0,0,1,8.57,6.523,4.326,4.326,0,0,1,9.961,9.484H7.617A2.376,2.376,0,0,0,7,7.887a2.271,2.271,0,0,0-1.605-.5,1.991,1.991,0,0,0-1.754.84,4.707,4.707,0,0,0-.6,2.605V11.7a5.038,5.038,0,0,0,.559,2.7,1.954,1.954,0,0,0,1.762.852,2.314,2.314,0,0,0,1.621-.5A2.241,2.241,0,0,0,7.6,13.211Z" transform="translate(990 10233)" fill="#12263f"/>
    <path id="Trazado_187643" data-name="Trazado 187643" d="M10.359,11.57a6.867,6.867,0,0,1-.594,2.945,4.472,4.472,0,0,1-1.7,1.953,4.7,4.7,0,0,1-2.535.688,4.732,4.732,0,0,1-2.523-.68,4.515,4.515,0,0,1-1.719-1.941,6.67,6.67,0,0,1-.617-2.9V11.07a6.831,6.831,0,0,1,.605-2.957A4.508,4.508,0,0,1,2.988,6.152a4.706,4.706,0,0,1,2.527-.684,4.706,4.706,0,0,1,2.527.684A4.508,4.508,0,0,1,9.754,8.113a6.811,6.811,0,0,1,.605,2.949Zm-2.375-.516a4.787,4.787,0,0,0-.641-2.719,2.088,2.088,0,0,0-1.828-.93,2.088,2.088,0,0,0-1.82.918,4.732,4.732,0,0,0-.648,2.691v.555a4.847,4.847,0,0,0,.641,2.7,2.082,2.082,0,0,0,1.844.961,2.064,2.064,0,0,0,1.813-.926,4.819,4.819,0,0,0,.641-2.7Z" transform="translate(1014 10233)" fill="#12263f"/>
    <path id="Trazado_187644" data-name="Trazado 187644" d="M0,0H9" transform="translate(933.5 10242.5)" fill="none" stroke="#12263f" stroke-width="1"/>
    <path id="Trazado_187645" data-name="Trazado 187645" d="M0,0H9" transform="translate(957.5 10242.5)" fill="none" stroke="#12263f" stroke-width="1"/>
    <path id="Trazado_187646" data-name="Trazado 187646" d="M0,0H9" transform="translate(979 10242.5)" fill="none" stroke="#12263f" stroke-width="1"/>
    <path id="Trazado_187647" data-name="Trazado 187647" d="M0,0H9" transform="translate(1003 10242.5)" fill="none" stroke="#12263f" stroke-width="1"/>
    <path id="Trazado_187648" data-name="Trazado 187648" d="M0,0H9" transform="translate(1027.5 10242.5)" fill="none" stroke="#12263f" stroke-width="1"/>
    <path id="Trazado_187649" data-name="Trazado 187649" d="M0,11V0" transform="translate(949.5 10223.5)" fill="none" stroke="#12263f" stroke-width="1"/>
    <path id="Trazado_187650" data-name="Trazado 187650" d="M0,11V0" transform="translate(949.5 10250.5)" fill="none" stroke="#12263f" stroke-width="1"/>
    <path id="Trazado_187651" data-name="Trazado 187651" d="M0,11V0" transform="translate(973.5 10223.5)" fill="none" stroke="#12263f" stroke-width="1"/>
    <path id="Trazado_187652" data-name="Trazado 187652" d="M0,11V0" transform="translate(973.5 10250.5)" fill="none" stroke="#12263f" stroke-width="1"/>
    <path id="Trazado_187653" data-name="Trazado 187653" d="M0,11V0" transform="translate(995.5 10223.5)" fill="none" stroke="#12263f" stroke-width="1"/>
    <path id="Trazado_187654" data-name="Trazado 187654" d="M0,11V0" transform="translate(995.5 10250.5)" fill="none" stroke="#12263f" stroke-width="1"/>
    <path id="Trazado_187415" data-name="Trazado 187415" d="M8178.594-1419.3l19.066-16.055,17.781,16.055,19.938-16.055,15.34,16.055" transform="translate(-7094.594 11681)" fill="none" stroke="#12263f" stroke-width="1"/>
    <path id="Trazado_187655" data-name="Trazado 187655" d="M10.359,11.57a6.867,6.867,0,0,1-.594,2.945,4.472,4.472,0,0,1-1.7,1.953,4.7,4.7,0,0,1-2.535.688,4.732,4.732,0,0,1-2.523-.68,4.515,4.515,0,0,1-1.719-1.941,6.67,6.67,0,0,1-.617-2.9V11.07a6.831,6.831,0,0,1,.605-2.957A4.508,4.508,0,0,1,2.988,6.152a4.706,4.706,0,0,1,2.527-.684,4.706,4.706,0,0,1,2.527.684A4.508,4.508,0,0,1,9.754,8.113a6.811,6.811,0,0,1,.605,2.949Zm-2.375-.516a4.787,4.787,0,0,0-.641-2.719,2.088,2.088,0,0,0-1.828-.93,2.088,2.088,0,0,0-1.82.918,4.732,4.732,0,0,0-.648,2.691v.555a4.847,4.847,0,0,0,.641,2.7,2.082,2.082,0,0,0,1.844.961,2.064,2.064,0,0,0,1.813-.926,4.819,4.819,0,0,0,.641-2.7Z" transform="translate(1135.406 10215)" fill="#12263f"/>
    <path id="Trazado_187656" data-name="Trazado 187656" d="M10.359,11.57a6.867,6.867,0,0,1-.594,2.945,4.472,4.472,0,0,1-1.7,1.953,4.7,4.7,0,0,1-2.535.688,4.732,4.732,0,0,1-2.523-.68,4.515,4.515,0,0,1-1.719-1.941,6.67,6.67,0,0,1-.617-2.9V11.07a6.831,6.831,0,0,1,.605-2.957A4.508,4.508,0,0,1,2.988,6.152a4.706,4.706,0,0,1,2.527-.684,4.706,4.706,0,0,1,2.527.684A4.508,4.508,0,0,1,9.754,8.113a6.811,6.811,0,0,1,.605,2.949Zm-2.375-.516a4.787,4.787,0,0,0-.641-2.719,2.088,2.088,0,0,0-1.828-.93,2.088,2.088,0,0,0-1.82.918,4.732,4.732,0,0,0-.648,2.691v.555a4.847,4.847,0,0,0,.641,2.7,2.082,2.082,0,0,0,1.844.961,2.064,2.064,0,0,0,1.813-.926,4.819,4.819,0,0,0,.641-2.7ZM21.32,17H18.977V12.125h-4.57V17H12.063V5.625h2.344v4.609h4.57V5.625H21.32Z" transform="translate(1161.406 10252)" fill="#12263f"/>
    <g id="Grupo_178630" data-name="Grupo 178630" transform="translate(63.906 -19)">
      <line id="Línea_726" data-name="Línea 726" y1="11" transform="translate(1075.5 10251.5)" fill="none" stroke="#12263f" stroke-width="1"/>
      <line id="Línea_727" data-name="Línea 727" y1="11" transform="translate(1078.5 10251.5)" fill="none" stroke="#12263f" stroke-width="1"/>
    </g>
    <path id="Trazado_187657" data-name="Trazado 187657" d="M9.945,13.211A4.025,4.025,0,0,1,8.59,16.1a4.76,4.76,0,0,1-3.223,1.055,4.28,4.28,0,0,1-3.441-1.473A6.038,6.038,0,0,1,.672,11.641v-.7A6.819,6.819,0,0,1,1.25,8.055,4.332,4.332,0,0,1,2.9,6.137a4.629,4.629,0,0,1,2.5-.668A4.637,4.637,0,0,1,8.57,6.523,4.326,4.326,0,0,1,9.961,9.484H7.617A2.376,2.376,0,0,0,7,7.887a2.271,2.271,0,0,0-1.605-.5,1.991,1.991,0,0,0-1.754.84,4.707,4.707,0,0,0-.6,2.605V11.7a5.038,5.038,0,0,0,.559,2.7,1.954,1.954,0,0,0,1.762.852,2.314,2.314,0,0,0,1.621-.5A2.241,2.241,0,0,0,7.6,13.211Zm5.182,1.113h.806v1.138h-.806V17H13.716V15.462H10.8l-.063-.889L13.7,9.891h1.426Zm-2.983,0h1.572v-2.51l-.093.161ZM26.479,17H24.136V12.125h-4.57V17H17.222V5.625h2.344v4.609h4.57V5.625h2.344Zm6.148-5.22a1.654,1.654,0,0,1-.259.918,1.863,1.863,0,0,1-.713.64,2.062,2.062,0,0,1,.82.686,1.76,1.76,0,0,1,.3,1.028,1.863,1.863,0,0,1-.645,1.5,3.074,3.074,0,0,1-3.511,0,1.859,1.859,0,0,1-.649-1.494,1.771,1.771,0,0,1,.3-1.03,2.024,2.024,0,0,1,.815-.684,1.844,1.844,0,0,1-.71-.64,1.665,1.665,0,0,1-.256-.918,1.843,1.843,0,0,1,.605-1.448,2.785,2.785,0,0,1,3.289,0A1.836,1.836,0,0,1,32.628,11.78Zm-1.265,3.169a1.024,1.024,0,0,0-.269-.742,1.075,1.075,0,0,0-1.44,0,1.158,1.158,0,0,0,0,1.477,1.1,1.1,0,0,0,1.453.01A1.019,1.019,0,0,0,31.363,14.949Zm-.146-3.1a.977.977,0,0,0-.22-.667.894.894,0,0,0-1.235-.007.971.971,0,0,0-.22.674,1.02,1.02,0,0,0,.22.684.869.869,0,0,0,1.238,0A1.028,1.028,0,0,0,31.217,11.849Zm12.391-.278a6.867,6.867,0,0,1-.594,2.945,4.472,4.472,0,0,1-1.7,1.953,5.021,5.021,0,0,1-5.059.008,4.515,4.515,0,0,1-1.719-1.941,6.67,6.67,0,0,1-.617-2.9V11.07a6.831,6.831,0,0,1,.605-2.957,4.508,4.508,0,0,1,1.711-1.961,5.014,5.014,0,0,1,5.055,0A4.508,4.508,0,0,1,43,8.113a6.811,6.811,0,0,1,.605,2.949Zm-2.375-.516a4.787,4.787,0,0,0-.641-2.719,2.263,2.263,0,0,0-3.648-.012,4.732,4.732,0,0,0-.648,2.691v.555a4.847,4.847,0,0,0,.641,2.7,2.243,2.243,0,0,0,3.656.035,4.819,4.819,0,0,0,.641-2.7ZM49.651,17H44.778v-.967l2.3-2.451a5.674,5.674,0,0,0,.7-.9,1.451,1.451,0,0,0,.227-.732,1.086,1.086,0,0,0-.239-.745.864.864,0,0,0-.684-.271.931.931,0,0,0-.754.33,1.306,1.306,0,0,0-.276.867H44.637a2.331,2.331,0,0,1,.31-1.187,2.185,2.185,0,0,1,.876-.842,2.664,2.664,0,0,1,1.284-.305,2.522,2.522,0,0,1,1.707.527,1.866,1.866,0,0,1,.608,1.489,2.39,2.39,0,0,1-.273,1.074,5.97,5.97,0,0,1-.937,1.274l-1.616,1.7h3.057Z" transform="translate(1242 10233)" fill="#12263f"/>
    <path id="Trazado_187658" data-name="Trazado 187658" d="M.969,12.375a11.99,11.99,0,0,1,.477-3.406A8.989,8.989,0,0,1,2.852,6.105a5.251,5.251,0,0,1,2.016-1.73L5.3,5.594A5.438,5.438,0,0,0,3.523,8.2a12.082,12.082,0,0,0-.641,4.125v.242a12.313,12.313,0,0,0,.633,4.141A5.544,5.544,0,0,0,5.3,19.359l-.437,1.2a5.253,5.253,0,0,1-1.98-1.684,8.838,8.838,0,0,1-1.4-2.785,11.918,11.918,0,0,1-.516-3.3ZM11.383,17a2.507,2.507,0,0,1-.227-.758,2.732,2.732,0,0,1-2.133.914,3,3,0,0,1-2.059-.719,2.312,2.312,0,0,1-.816-1.812,2.389,2.389,0,0,1,1-2.062,4.915,4.915,0,0,1,2.879-.727h1.039v-.484a1.393,1.393,0,0,0-.3-.937,1.183,1.183,0,0,0-.949-.352,1.345,1.345,0,0,0-.895.273.929.929,0,0,0-.324.75H6.336a2.268,2.268,0,0,1,.453-1.359,3,3,0,0,1,1.281-.98A4.669,4.669,0,0,1,9.93,8.391a3.689,3.689,0,0,1,2.48.785,2.747,2.747,0,0,1,.918,2.207v3.664a4.041,4.041,0,0,0,.336,1.82V17ZM9.516,15.43a1.945,1.945,0,0,0,.922-.223,1.462,1.462,0,0,0,.625-.6V13.156h-.844q-1.7,0-1.8,1.172l-.008.133a.9.9,0,0,0,.3.7A1.153,1.153,0,0,0,9.516,15.43Zm9.438-2.875a11.377,11.377,0,0,1-.508,3.4,9.225,9.225,0,0,1-1.461,2.883,5.264,5.264,0,0,1-2.039,1.719l-.437-1.2a5.494,5.494,0,0,0,1.75-2.578,11.939,11.939,0,0,0,.664-4.008v-.414a12.208,12.208,0,0,0-.637-4.117A5.727,5.727,0,0,0,14.508,5.57l.438-1.2a5.265,5.265,0,0,1,2,1.672,9.106,9.106,0,0,1,1.461,2.82,11.3,11.3,0,0,1,.543,3.336Z" transform="translate(974 10294)" fill="#12263f"/>
    <path id="Trazado_187659" data-name="Trazado 187659" d="M.969,12.375a11.99,11.99,0,0,1,.477-3.406A8.989,8.989,0,0,1,2.852,6.105a5.251,5.251,0,0,1,2.016-1.73L5.3,5.594A5.438,5.438,0,0,0,3.523,8.2a12.082,12.082,0,0,0-.641,4.125v.242a12.313,12.313,0,0,0,.633,4.141A5.544,5.544,0,0,0,5.3,19.359l-.437,1.2a5.253,5.253,0,0,1-1.98-1.684,8.838,8.838,0,0,1-1.4-2.785,11.918,11.918,0,0,1-.516-3.3Zm13.133.477a5.119,5.119,0,0,1-.867,3.168,2.872,2.872,0,0,1-2.422,1.137,2.639,2.639,0,0,1-2.2-1.055l-.1.9H6.484V5H8.742V9.3A2.571,2.571,0,0,1,10.8,8.391a2.9,2.9,0,0,1,2.426,1.137,5.126,5.126,0,0,1,.879,3.2Zm-2.258-.164a3.363,3.363,0,0,0-.406-1.871,1.374,1.374,0,0,0-1.211-.59,1.489,1.489,0,0,0-1.484.883v3.336a1.509,1.509,0,0,0,1.5.891,1.394,1.394,0,0,0,1.438-1.078A5.562,5.562,0,0,0,11.844,12.688Zm7.539-.133a11.377,11.377,0,0,1-.508,3.4,9.225,9.225,0,0,1-1.461,2.883,5.263,5.263,0,0,1-2.039,1.719l-.437-1.2a5.494,5.494,0,0,0,1.75-2.578,11.939,11.939,0,0,0,.664-4.008v-.414a12.208,12.208,0,0,0-.637-4.117A5.727,5.727,0,0,0,14.938,5.57l.438-1.2a5.265,5.265,0,0,1,2,1.672,9.106,9.106,0,0,1,1.461,2.82,11.3,11.3,0,0,1,.543,3.336Z" transform="translate(1123 10294)" fill="#12263f"/>
    <path id="Trazado_187660" data-name="Trazado 187660" d="M.969,12.375a11.99,11.99,0,0,1,.477-3.406A8.989,8.989,0,0,1,2.852,6.105a5.251,5.251,0,0,1,2.016-1.73L5.3,5.594A5.438,5.438,0,0,0,3.523,8.2a12.082,12.082,0,0,0-.641,4.125v.242a12.313,12.313,0,0,0,.633,4.141A5.544,5.544,0,0,0,5.3,19.359l-.437,1.2a5.253,5.253,0,0,1-1.98-1.684,8.838,8.838,0,0,1-1.4-2.785,11.918,11.918,0,0,1-.516-3.3ZM10,15.336a1.481,1.481,0,0,0,1.016-.344,1.2,1.2,0,0,0,.406-.914h2.117a2.9,2.9,0,0,1-.469,1.574,3.093,3.093,0,0,1-1.262,1.109,3.949,3.949,0,0,1-1.77.395A3.67,3.67,0,0,1,7.18,16,4.56,4.56,0,0,1,6.133,12.82v-.148A4.508,4.508,0,0,1,7.172,9.555a3.627,3.627,0,0,1,2.852-1.164,3.555,3.555,0,0,1,2.543.9,3.2,3.2,0,0,1,.973,2.4H11.422a1.551,1.551,0,0,0-.406-1.072,1.354,1.354,0,0,0-1.031-.412,1.36,1.36,0,0,0-1.191.575,3.333,3.333,0,0,0-.4,1.866v.235a3.375,3.375,0,0,0,.4,1.878A1.377,1.377,0,0,0,10,15.336Zm8.719-2.781a11.377,11.377,0,0,1-.508,3.4,9.225,9.225,0,0,1-1.461,2.883,5.264,5.264,0,0,1-2.039,1.719l-.437-1.2a5.494,5.494,0,0,0,1.75-2.578,11.939,11.939,0,0,0,.664-4.008v-.414a12.208,12.208,0,0,0-.637-4.117A5.727,5.727,0,0,0,14.273,5.57l.438-1.2a5.265,5.265,0,0,1,2,1.672,9.106,9.106,0,0,1,1.461,2.82,11.3,11.3,0,0,1,.543,3.336Z" transform="translate(1258 10294)" fill="#12263f"/>
  </g>
</svg>
