<svg xmlns="http://www.w3.org/2000/svg" width="275" height="425" viewBox="0 0 275 425"><g transform="translate(-1352 -26)"><rect width="275" height="425" rx="14" transform="translate(1352 26)" fill="#fff"/><g transform="translate(1549 58)" fill="#d1cbcb"><path d="M 7.000200271606445 379.4998168945312 C 4.324650287628174 379.4998168945312 2.147900342941284 377.3230590820312 2.147900342941284 374.6475219726562 L 2.147900342941284 340.7409057617188 C 2.147900342941284 339.9599609375 2.327500343322754 339.2145690917969 2.681700468063354 338.5253601074219 L 2.854900360107422 338.1884155273438 L 2.577350378036499 337.9305114746094 C 1.257750391960144 336.704345703125 0.5009003877639771 334.9685974121094 0.5009003877639771 333.1683044433594 L 0.5009003877639771 6.999308586120605 C 0.5009003877639771 3.415558338165283 3.416450500488281 0.5000084638595581 7.000200271606445 0.5000084638595581 C 10.58440017700195 0.5000084638595581 13.50040054321289 3.415558338165283 13.50040054321289 6.999308586120605 L 13.50040054321289 333.1683044433594 C 13.50040054321289 334.96826171875 12.74345016479492 336.7039489746094 11.42365074157715 337.9303588867188 L 11.14610004425049 338.1882934570312 L 11.31935024261475 338.5252685546875 C 11.6737003326416 339.2145690917969 11.85340023040771 339.9600219726562 11.85340023040771 340.7409057617188 L 11.85340023040771 374.6475219726562 C 11.85340023040771 377.3230590820312 9.676250457763672 379.4998168945312 7.000200271606445 379.4998168945312 Z" stroke="none"/><path d="M 7.000200271606445 378.9998168945312 C 9.400550842285156 378.9998168945312 11.35340023040771 377.04736328125 11.35340023040771 374.6475219726562 L 11.35340023040771 340.7409057617188 C 11.35340023040771 340.0403137207031 11.19235038757324 339.3717651367188 10.87465000152588 338.75390625 L 10.52815055847168 338.0799560546875 L 11.08330059051514 337.5641174316406 C 12.30165004730225 336.4319458007812 13.00040054321289 334.8297729492188 13.00040054321289 333.1683044433594 L 13.00040054321289 6.999308586120605 C 13.00040054321289 3.691258430480957 10.30870056152344 1.000008463859558 7.000200271606445 1.000008463859558 C 3.692150354385376 1.000008463859558 1.000900387763977 3.691258430480957 1.000900387763977 6.999308586120605 L 1.000900387763977 333.1683044433594 C 1.000900387763977 334.8301086425781 1.69955039024353 336.432373046875 2.917700290679932 337.5642700195312 L 3.472750425338745 338.0800170898438 L 3.126400470733643 338.75390625 C 2.808900356292725 339.3717041015625 2.647900342941284 340.0402221679688 2.647900342941284 340.7409057617188 L 2.647900342941284 374.6475219726562 C 2.647900342941284 377.04736328125 4.600350379943848 378.9998168945312 7.000200271606445 378.9998168945312 M 7.000200271606445 379.9998168945312 C 4.043700218200684 379.9998168945312 1.647900462150574 377.6031188964844 1.647900462150574 374.6475219726562 L 1.647900462150574 340.7409057617188 C 1.647900462150574 339.8603210449219 1.860400438308716 339.0295715332031 2.237000465393066 338.2968139648438 C 0.8614504337310791 337.0186462402344 0.0009004058665595949 335.1940002441406 0.0009004058665595949 333.1683044433594 L 0.0009004058665595949 6.999308586120605 C 0.0009004058665595949 3.133808374404907 3.134700298309326 8.447265827271622e-06 7.000200271606445 8.447265827271622e-06 C 10.86570072174072 8.447265827271622e-06 14.00040054321289 3.133808374404907 14.00040054321289 6.999308586120605 L 14.00040054321289 333.1683044433594 C 14.00040054321289 335.1938171386719 13.13950061798096 337.0184936523438 11.76399993896484 338.2966613769531 C 12.140700340271 339.0293579101562 12.35340023040771 339.8603210449219 12.35340023040771 340.7409057617188 L 12.35340023040771 374.6475219726562 C 12.35340023040771 377.6031188964844 9.956700325012207 379.9998168945312 7.000200271606445 379.9998168945312 Z" stroke="none" fill="#31313c"/></g><rect width="9" height="3" rx="1.5" transform="translate(1551 395)" fill="#e55242"/><rect width="315.149" height="5.581" rx="2.79" transform="translate(1552.789 435.421) rotate(-90)" fill="#e55242"/><rect width="41.854" height="3.189" rx="1.594" transform="translate(1554.384 435.421) rotate(-90)" fill="#ea8f68"/><line x2="11.958" transform="translate(1550.796 120.12)" fill="none" stroke="#31313c" stroke-width="1"/><line x2="11.958" transform="translate(1550.796 142.442)" fill="none" stroke="#31313c" stroke-width="1"/><line x2="11.958" transform="translate(1550.796 163.968)" fill="none" stroke="#31313c" stroke-width="1"/><line x2="11.958" transform="translate(1550.796 186.29)" fill="none" stroke="#31313c" stroke-width="1"/><line x2="11.958" transform="translate(1550.796 210.206)" fill="none" stroke="#31313c" stroke-width="1"/><line x2="11.958" transform="translate(1550.796 231.731)" fill="none" stroke="#31313c" stroke-width="1"/><line x2="11.958" transform="translate(1550.796 254.054)" fill="none" stroke="#31313c" stroke-width="1"/><line x2="11.958" transform="translate(1550.796 276.376)" fill="none" stroke="#31313c" stroke-width="1"/><line x2="11.958" transform="translate(1550.796 298.697)" fill="none" stroke="#31313c" stroke-width="1"/><line x2="11.958" transform="translate(1550.796 321.02)" fill="none" stroke="#31313c" stroke-width="1"/><line x2="11.958" transform="translate(1550.796 343.342)" fill="none" stroke="#31313c" stroke-width="1"/><line x2="11.958" transform="translate(1550.796 365.664)" fill="none" stroke="#31313c" stroke-width="1"/><line x2="11.958" transform="translate(1550.796 387.986)" fill="none" stroke="#31313c" stroke-width="1"/><line x2="9.567" transform="translate(1553.188 132.079)" fill="none" stroke="#31313c" stroke-width="1"/><line x2="9.567" transform="translate(1553.188 154.401)" fill="none" stroke="#31313c" stroke-width="1"/><line x2="9.567" transform="translate(1553.188 175.926)" fill="none" stroke="#31313c" stroke-width="1"/><line x2="9.567" transform="translate(1553.188 198.248)" fill="none" stroke="#31313c" stroke-width="1"/><line x2="9.567" transform="translate(1553.188 222.165)" fill="none" stroke="#31313c" stroke-width="1"/><line x2="9.567" transform="translate(1553.188 243.689)" fill="none" stroke="#31313c" stroke-width="1"/><line x2="9.567" transform="translate(1553.188 266.012)" fill="none" stroke="#31313c" stroke-width="1"/><line x2="9.567" transform="translate(1553.188 288.334)" fill="none" stroke="#31313c" stroke-width="1"/><line x2="9.567" transform="translate(1553.188 310.656)" fill="none" stroke="#31313c" stroke-width="1"/><line x2="9.567" transform="translate(1553.188 332.979)" fill="none" stroke="#31313c" stroke-width="1"/><line x2="9.567" transform="translate(1553.188 355.3)" fill="none" stroke="#31313c" stroke-width="1"/><line x2="9.567" transform="translate(1553.188 377.622)" fill="none" stroke="#31313c" stroke-width="1"/><text transform="translate(1573 121)" fill="#12263f" font-size="12" font-family="Roboto-Bold, Roboto" font-weight="700"><tspan x="0" y="0">212</tspan><tspan y="0" font-size="7" baseline-shift="3.9995999620726357">o</tspan><tspan y="0">F</tspan></text><text transform="translate(1526 51)" fill="#12263f" font-size="12" font-family="Roboto-Bold, Roboto" font-weight="700"><tspan x="0" y="0">Fahrenheit</tspan></text><text transform="translate(1375 121)" fill="#12263f" font-size="12" font-family="Roboto-BoldItalic, Roboto" font-weight="700" font-style="italic"><tspan x="0" y="0">Boiling point</tspan><tspan x="0" y="13">of water</tspan></text><text transform="translate(1375 281)" fill="#12263f" font-size="12" font-family="Roboto-BoldItalic, Roboto" font-weight="700" font-style="italic"><tspan x="0" y="0">Freezing point</tspan><tspan x="0" y="13">of water</tspan></text><text transform="translate(1398 352)" fill="#12263f" font-size="7" font-family="Roboto-Bold, Roboto" font-weight="700"><tspan x="0" y="0" baseline-shift="3.9995999620726357">o</tspan><tspan y="0" font-size="12">F=32.0+(9/5)</tspan><tspan y="0" baseline-shift="3.9995999620726357">o</tspan><tspan y="0" font-size="12">C</tspan></text><text transform="translate(1398 374)" fill="#12263f" font-size="7" font-family="Roboto-Bold, Roboto" font-weight="700"><tspan x="0" y="0" baseline-shift="3.9995999620726357">o</tspan><tspan y="0" font-size="12">C=(</tspan><tspan y="0" baseline-shift="3.9995999620726357">O</tspan><tspan y="0" font-size="12">F-32.0(5/9)</tspan></text><text transform="translate(1414 200)" fill="#12263f" font-size="12" font-family="Roboto-BoldItalic, Roboto" font-weight="700" font-style="italic"><tspan x="0" y="0">180 Fahrenheit</tspan><tspan x="0" y="13">degrees</tspan></text><text transform="translate(1570 293)" fill="#12263f" font-size="13" font-family="Roboto-Bold, Roboto" font-weight="700"><tspan x="0" y="0">32</tspan><tspan y="0" font-size="7.583" baseline-shift="4.332900027028696">o</tspan><tspan y="0">F</tspan></text><text transform="translate(1570 374)" fill="#12263f" font-size="13" font-family="Roboto-Bold, Roboto" font-weight="700"><tspan x="0" y="0">-40</tspan><tspan y="0" font-size="7.583" baseline-shift="4.332900027028696">o</tspan><tspan y="0">F</tspan></text><path d="M358.889-176.5s-11.354,2.028-10.679,33.656,4.509,44.744-5.481,49.88" transform="translate(1175.564 294.229)" fill="none" stroke="#707070" stroke-width="2"/><path d="M358.889-92.964s-11.354-2.028-10.679-33.656,4.509-44.744-5.481-49.88" transform="translate(1175.564 377.765)" fill="none" stroke="#707070" stroke-width="2"/><line x2="89.289" transform="translate(1451.941 117.729)" fill="none" stroke="#f37577" stroke-width="2"/><line x2="94.072" transform="translate(1447.157 288.334)" fill="none" stroke="#2b91e9" stroke-width="2"/><line x2="23.917" transform="translate(1498.18 201.437)" fill="none" stroke="#707070" stroke-width="2"/></g></svg>