<svg xmlns="http://www.w3.org/2000/svg" width="92" height="92" viewBox="0 0 92 92">
  <g id="Grupo_177966" data-name="Grupo 177966" transform="translate(-282 -1337)">
    <circle id="Elipse_4892" data-name="Elipse 4892" cx="46" cy="46" r="46" transform="translate(282 1337)" fill="#fff"/>
    <g id="Grupo_177965" data-name="Grupo 177965" transform="translate(202.765 1230.498)">
      <g id="Grupo_12939" data-name="Grupo 12939" transform="translate(96.235 118.502)">
        <circle id="Elipse_909" data-name="Elipse 909" cx="29.058" cy="29.058" r="29.058" transform="translate(0 4.527)" fill="none" stroke="#2668a3" stroke-miterlimit="10" stroke-width="2"/>
        <circle id="Elipse_910" data-name="Elipse 910" cx="4.774" cy="4.774" r="4.774" transform="translate(20.481)" fill="#ff0606"/>
        <circle id="Elipse_911" data-name="Elipse 911" cx="4.774" cy="4.774" r="4.774" transform="translate(27.623 58.086)" fill="#ff0606"/>
      </g>
      <g id="Grupo_12940" data-name="Grupo 12940" transform="translate(106.141 134.647)">
        <circle id="Elipse_912" data-name="Elipse 912" cx="4.965" cy="4.965" r="4.965" transform="translate(5.447 14.059)" fill="#2668a3"/>
        <circle id="Elipse_913" data-name="Elipse 913" cx="4.965" cy="4.965" r="4.965" transform="translate(2.534 5.743)" fill="#2668a3"/>
        <circle id="Elipse_914" data-name="Elipse 914" cx="4.965" cy="4.965" r="4.965" transform="translate(21.189 21.2)" fill="#2668a3"/>
        <circle id="Elipse_915" data-name="Elipse 915" cx="4.965" cy="4.965" r="4.965" transform="translate(19.32 3.834)" fill="#2668a3"/>
        <circle id="Elipse_916" data-name="Elipse 916" cx="4.965" cy="4.965" r="4.965" transform="translate(5.495 22.493)" fill="#ff0606"/>
        <circle id="Elipse_917" data-name="Elipse 917" cx="4.965" cy="4.965" r="4.965" transform="translate(10.326)" fill="#2668a3"/>
        <circle id="Elipse_918" data-name="Elipse 918" cx="4.965" cy="4.965" r="4.965" transform="translate(14.861 22.854)" fill="#ff0606"/>
        <circle id="Elipse_919" data-name="Elipse 919" cx="6.051" cy="6.051" r="6.051" transform="translate(9.374 6.332)" fill="#ff0606"/>
        <circle id="Elipse_920" data-name="Elipse 920" cx="5.847" cy="5.847" r="5.847" transform="translate(17.544 12.08)" fill="#2668a3"/>
        <circle id="Elipse_921" data-name="Elipse 921" cx="5.847" cy="5.847" r="5.847" transform="translate(24.09 10.621)" fill="#ff0606"/>
        <circle id="Elipse_922" data-name="Elipse 922" cx="5.847" cy="5.847" r="5.847" transform="translate(0 13.595)" fill="#2668a3"/>
        <circle id="Elipse_923" data-name="Elipse 923" cx="4.965" cy="4.965" r="4.965" transform="translate(12.286 17.488)" fill="#2668a3"/>
      </g>
    </g>
  </g>
</svg>
