<svg xmlns="http://www.w3.org/2000/svg" width="501.256" height="347" viewBox="0 0 501.256 347">
  <g id="Grupo_178778" data-name="Grupo 178778" transform="translate(-550.744 -4055)">
    <g id="Trazado_187471" data-name="Trazado 187471" transform="translate(832 4181)" fill="none">
      <path d="M47,0A47,47,0,1,1,0,47,47,47,0,0,1,47,0Z" stroke="none"/>
      <path d="M 47 2 C 40.92416000366211 2 35.03112030029297 3.189521789550781 29.48458862304688 5.535507202148438 C 24.12625122070312 7.8018798828125 19.31356048583984 11.04682922363281 15.18019866943359 15.18019866943359 C 11.04682922363281 19.31356048583984 7.8018798828125 24.12625122070312 5.535507202148438 29.48458862304688 C 3.189521789550781 35.03112030029297 2 40.92416000366211 2 47 C 2 53.07583999633789 3.189521789550781 58.96887969970703 5.535507202148438 64.51541137695312 C 7.8018798828125 69.87374877929688 11.04682922363281 74.68643951416016 15.18019866943359 78.81980133056641 C 19.31356048583984 82.95317077636719 24.12625122070312 86.1981201171875 29.48458862304688 88.46449279785156 C 35.03112030029297 90.81047821044922 40.92416000366211 92 47 92 C 53.07583999633789 92 58.96887969970703 90.81047821044922 64.51541137695312 88.46449279785156 C 69.87374877929688 86.1981201171875 74.68643951416016 82.95317077636719 78.81980133056641 78.81980133056641 C 82.95317077636719 74.68643951416016 86.1981201171875 69.87374877929688 88.46449279785156 64.51541137695312 C 90.81047821044922 58.96887969970703 92 53.07583999633789 92 47 C 92 40.92416000366211 90.81047821044922 35.03112030029297 88.46449279785156 29.48458862304688 C 86.1981201171875 24.12625122070312 82.95317077636719 19.31356048583984 78.81980133056641 15.18019866943359 C 74.68643951416016 11.04682922363281 69.87374877929688 7.8018798828125 64.51541137695312 5.535507202148438 C 58.96887969970703 3.189521789550781 53.07583999633789 2 47 2 M 47 0 C 72.95738220214844 0 94 21.04261016845703 94 47 C 94 72.95738220214844 72.95738220214844 94 47 94 C 21.04261016845703 94 0 72.95738220214844 0 47 C 0 21.04261016845703 21.04261016845703 0 47 0 Z" stroke="none" fill="#1ec488"/>
    </g>
    <g id="Trazado_187472" data-name="Trazado 187472" transform="translate(814 4164)" fill="none">
      <path d="M64.5,0A64.5,64.5,0,1,1,0,64.5,64.5,64.5,0,0,1,64.5,0Z" stroke="none"/>
      <path d="M 64.5 2 C 56.06167602539062 2 47.87681579589844 3.6522216796875 40.17279815673828 6.910743713378906 C 36.46983337402344 8.476966857910156 32.89820098876953 10.41560363769531 29.55705261230469 12.67283630371094 C 26.24714660644531 14.90896606445312 23.13458251953125 17.47707366943359 20.30581665039062 20.30581665039062 C 17.47707366943359 23.13458251953125 14.90896606445312 26.24714660644531 12.67283630371094 29.55705261230469 C 10.41560363769531 32.89820098876953 8.476966857910156 36.46983337402344 6.910743713378906 40.17279815673828 C 3.6522216796875 47.87681579589844 2 56.06167602539062 2 64.5 C 2 72.93832397460938 3.6522216796875 81.12318420410156 6.910743713378906 88.82720184326172 C 8.476966857910156 92.53016662597656 10.41560363769531 96.10179901123047 12.67283630371094 99.44294738769531 C 14.90896606445312 102.7528533935547 17.47707366943359 105.8654174804688 20.30581665039062 108.6941833496094 C 23.13458251953125 111.5229263305664 26.24714660644531 114.0910339355469 29.55705261230469 116.3271636962891 C 32.89820098876953 118.5843963623047 36.46983337402344 120.5230331420898 40.17279815673828 122.0892562866211 C 47.87681579589844 125.3477783203125 56.06167602539062 127 64.5 127 C 72.93832397460938 127 81.12318420410156 125.3477783203125 88.82720184326172 122.0892562866211 C 92.53016662597656 120.5230331420898 96.10179901123047 118.5843963623047 99.44294738769531 116.3271636962891 C 102.7528533935547 114.0910339355469 105.8654174804688 111.5229263305664 108.6941833496094 108.6941833496094 C 111.5229263305664 105.8654174804688 114.0910339355469 102.7528533935547 116.3271636962891 99.44294738769531 C 118.5843963623047 96.10179901123047 120.5230331420898 92.53016662597656 122.0892562866211 88.82720184326172 C 125.3477783203125 81.12318420410156 127 72.93832397460938 127 64.5 C 127 56.06167602539062 125.3477783203125 47.87681579589844 122.0892562866211 40.17279815673828 C 120.5230331420898 36.46983337402344 118.5843963623047 32.89820098876953 116.3271636962891 29.55705261230469 C 114.0910339355469 26.24714660644531 111.5229263305664 23.13458251953125 108.6941833496094 20.30581665039062 C 105.8654174804688 17.47707366943359 102.7528533935547 14.90896606445312 99.44294738769531 12.67283630371094 C 96.10179901123047 10.41560363769531 92.53016662597656 8.476966857910156 88.82720184326172 6.910743713378906 C 81.12318420410156 3.6522216796875 72.93832397460938 2 64.5 2 M 64.5 0 C 100.1223602294922 0 129 28.87763977050781 129 64.5 C 129 100.1223602294922 100.1223602294922 129 64.5 129 C 28.87763977050781 129 0 100.1223602294922 0 64.5 C 0 28.87763977050781 28.87763977050781 0 64.5 0 Z" stroke="none" fill="#1ec488"/>
    </g>
    <g id="Trazado_187473" data-name="Trazado 187473" transform="translate(796 4145)" fill="none">
      <path d="M83,0A83,83,0,1,1,0,83,83,83,0,0,1,83,0Z" stroke="none"/>
      <path d="M 83 2 C 77.50295257568359 2 72.00993347167969 2.553680419921875 66.67354583740234 3.645660400390625 C 61.47381591796875 4.709686279296875 56.35918426513672 6.297348022460938 51.47174835205078 8.36456298828125 C 46.67261505126953 10.39442443847656 42.04365539550781 12.90695190429688 37.71351623535156 15.83233642578125 C 33.42399597167969 18.73030090332031 29.39027404785156 22.05842590332031 25.72433471679688 25.72433471679688 C 22.05842590332031 29.39027404785156 18.73030090332031 33.42399597167969 15.83233642578125 37.71351623535156 C 12.90695190429688 42.04365539550781 10.39442443847656 46.67261505126953 8.36456298828125 51.47174835205078 C 6.297348022460938 56.35918426513672 4.709686279296875 61.47381591796875 3.645660400390625 66.67354583740234 C 2.553680419921875 72.00993347167969 2 77.50295257568359 2 83 C 2 88.49704742431641 2.553680419921875 93.99006652832031 3.645660400390625 99.32645416259766 C 4.709686279296875 104.5261840820312 6.297348022460938 109.6408233642578 8.36456298828125 114.5282516479492 C 10.39442443847656 119.3273849487305 12.90695190429688 123.9563446044922 15.83233642578125 128.2864685058594 C 18.73030090332031 132.5760040283203 22.05842590332031 136.6097259521484 25.72433471679688 140.2756652832031 C 29.39027404785156 143.9415740966797 33.42399597167969 147.2696990966797 37.71351623535156 150.1676635742188 C 42.04365539550781 153.0930480957031 46.67261505126953 155.6055603027344 51.47174835205078 157.6354370117188 C 56.35918426513672 159.7026519775391 61.47381591796875 161.2903137207031 66.67354583740234 162.3543395996094 C 72.00993347167969 163.4463195800781 77.50295257568359 164 83 164 C 88.49704742431641 164 93.99006652832031 163.4463195800781 99.32645416259766 162.3543395996094 C 104.5261840820312 161.2903137207031 109.6408233642578 159.7026519775391 114.5282516479492 157.6354370117188 C 119.3273849487305 155.6055603027344 123.9563446044922 153.0930480957031 128.2864685058594 150.1676635742188 C 132.5760040283203 147.2696990966797 136.6097259521484 143.9415740966797 140.2756652832031 140.2756652832031 C 143.9415740966797 136.6097259521484 147.2696990966797 132.5760040283203 150.1676635742188 128.2864685058594 C 153.0930480957031 123.9563446044922 155.6055603027344 119.3273849487305 157.6354370117188 114.5282516479492 C 159.7026519775391 109.6408233642578 161.2903137207031 104.5261840820312 162.3543395996094 99.32645416259766 C 163.4463195800781 93.99006652832031 164 88.49704742431641 164 83 C 164 77.50295257568359 163.4463195800781 72.00993347167969 162.3543395996094 66.67354583740234 C 161.2903137207031 61.47381591796875 159.7026519775391 56.35918426513672 157.6354370117188 51.47174835205078 C 155.6055603027344 46.67261505126953 153.0930480957031 42.04365539550781 150.1676635742188 37.71351623535156 C 147.2696990966797 33.42399597167969 143.9415740966797 29.39027404785156 140.2756652832031 25.72433471679688 C 136.6097259521484 22.05842590332031 132.5760040283203 18.73030090332031 128.2864685058594 15.83233642578125 C 123.9563446044922 12.90695190429688 119.3273849487305 10.39442443847656 114.5282516479492 8.36456298828125 C 109.6408233642578 6.297348022460938 104.5261840820312 4.709686279296875 99.32645416259766 3.645660400390625 C 93.99006652832031 2.553680419921875 88.49704742431641 2 83 2 M 83 0 C 128.8396301269531 0 166 37.16036987304688 166 83 C 166 128.8396301269531 128.8396301269531 166 83 166 C 37.16036987304688 166 0 128.8396301269531 0 83 C 0 37.16036987304688 37.16036987304688 0 83 0 Z" stroke="none" fill="#1ec488"/>
    </g>
    <g id="Trazado_187474" data-name="Trazado 187474" transform="translate(774 4124)" fill="none">
      <path d="M104.5,0A104.5,104.5,0,1,1,0,104.5,104.5,104.5,0,0,1,104.5,0Z" stroke="none"/>
      <path d="M 104.5 2 C 97.54419708251953 2 90.59336090087891 2.700637817382812 83.84055328369141 4.082473754882812 C 77.26039123535156 5.428970336914062 70.78794860839844 7.4381103515625 64.60299682617188 10.05413818359375 C 58.52989196777344 12.62286376953125 52.67219543457031 15.80230712890625 47.19267272949219 19.50419616699219 C 41.76469421386719 23.17127990722656 36.66038513183594 27.38272094726562 32.02156066894531 32.02156066894531 C 27.38272094726562 36.66038513183594 23.17127990722656 41.76469421386719 19.50419616699219 47.19267272949219 C 15.80230712890625 52.67219543457031 12.62286376953125 58.52989196777344 10.05413818359375 64.60299682617188 C 7.4381103515625 70.78794860839844 5.428970336914062 77.26039123535156 4.082473754882812 83.84055328369141 C 2.700637817382812 90.59336090087891 2 97.54419708251953 2 104.5 C 2 111.4558029174805 2.700637817382812 118.4066390991211 4.082473754882812 125.1594467163086 C 5.428970336914062 131.7396087646484 7.4381103515625 138.2120666503906 10.05413818359375 144.3970031738281 C 12.62286376953125 150.4701080322266 15.80230712890625 156.3278045654297 19.50419616699219 161.8073425292969 C 23.17127990722656 167.2353057861328 27.38272094726562 172.3396148681641 32.02156066894531 176.9784393310547 C 36.66038513183594 181.6172790527344 41.76469421386719 185.8287200927734 47.19267272949219 189.4958038330078 C 52.67219543457031 193.1976928710938 58.52989196777344 196.3771362304688 64.60299682617188 198.9458618164062 C 70.78794860839844 201.5618896484375 77.26039123535156 203.5710296630859 83.84055328369141 204.9175262451172 C 90.59336090087891 206.2993621826172 97.54419708251953 207 104.5 207 C 111.4558029174805 207 118.4066390991211 206.2993621826172 125.1594467163086 204.9175262451172 C 131.7396087646484 203.5710296630859 138.2120666503906 201.5618896484375 144.3970031738281 198.9458618164062 C 150.4701080322266 196.3771362304688 156.3278045654297 193.1976928710938 161.8073425292969 189.4958038330078 C 167.2353057861328 185.8287200927734 172.3396148681641 181.6172790527344 176.9784393310547 176.9784393310547 C 181.6172790527344 172.3396148681641 185.8287200927734 167.2353057861328 189.4958038330078 161.8073425292969 C 193.1976928710938 156.3278045654297 196.3771362304688 150.4701080322266 198.9458618164062 144.3970031738281 C 201.5618896484375 138.2120666503906 203.5710296630859 131.7396087646484 204.9175262451172 125.1594467163086 C 206.2993621826172 118.4066390991211 207 111.4558029174805 207 104.5 C 207 97.54419708251953 206.2993621826172 90.59336090087891 204.9175262451172 83.84055328369141 C 203.5710296630859 77.26039123535156 201.5618896484375 70.78794860839844 198.9458618164062 64.60299682617188 C 196.3771362304688 58.52989196777344 193.1976928710938 52.67219543457031 189.4958038330078 47.19267272949219 C 185.8287200927734 41.76469421386719 181.6172790527344 36.66038513183594 176.9784393310547 32.02156066894531 C 172.3396148681641 27.38272094726562 167.2353057861328 23.17127990722656 161.8073425292969 19.50419616699219 C 156.3278045654297 15.80230712890625 150.4701080322266 12.62286376953125 144.3970031738281 10.05413818359375 C 138.2120666503906 7.4381103515625 131.7396087646484 5.428970336914062 125.1594467163086 4.082473754882812 C 118.4066390991211 2.700637817382812 111.4558029174805 2 104.5 2 M 104.5 0 C 162.2137451171875 0 209 46.7862548828125 209 104.5 C 209 162.2137451171875 162.2137451171875 209 104.5 209 C 46.7862548828125 209 0 162.2137451171875 0 104.5 C 0 46.7862548828125 46.7862548828125 0 104.5 0 Z" stroke="none" fill="#1ec488"/>
    </g>
    <g id="Trazado_187475" data-name="Trazado 187475" transform="translate(753 4102)" fill="none">
      <path d="M126,0A126,126,0,1,1,0,126,126,126,0,0,1,126,0Z" stroke="none"/>
      <path d="M 126 2 C 117.5854644775391 2 109.1767730712891 2.84759521484375 101.007568359375 4.519271850585938 C 93.04696655273438 6.148239135742188 85.21670532226562 8.578903198242188 77.73423767089844 11.74369812011719 C 70.38713073730469 14.85127258300781 63.30073547363281 18.69766235351562 56.67182922363281 23.17607116699219 C 50.10536193847656 27.61227416992188 43.93049621582031 32.70700073242188 38.31877136230469 38.31877136230469 C 32.70700073242188 43.93049621582031 27.61227416992188 50.10536193847656 23.17607116699219 56.67182922363281 C 18.69766235351562 63.30073547363281 14.85127258300781 70.38713073730469 11.74369812011719 77.73423767089844 C 8.578903198242188 85.21670532226562 6.148239135742188 93.04696655273438 4.519271850585938 101.007568359375 C 2.84759521484375 109.1767730712891 2 117.5854644775391 2 126 C 2 134.4145355224609 2.84759521484375 142.8232421875 4.519271850585938 150.992431640625 C 6.148239135742188 158.9530334472656 8.578903198242188 166.7832946777344 11.74369812011719 174.2657775878906 C 14.85127258300781 181.6128692626953 18.69766235351562 188.6992645263672 23.17607116699219 195.3281707763672 C 27.61227416992188 201.8946380615234 32.70700073242188 208.0695037841797 38.31877136230469 213.6812286376953 C 43.93049621582031 219.2929992675781 50.10536193847656 224.3877258300781 56.67182922363281 228.8239288330078 C 63.30073547363281 233.3023376464844 70.38713073730469 237.1487274169922 77.73423767089844 240.2563018798828 C 85.21670532226562 243.4210968017578 93.04696655273438 245.8517608642578 101.007568359375 247.4807281494141 C 109.1767730712891 249.1524047851562 117.5854644775391 250 126 250 C 134.4145355224609 250 142.8232421875 249.1524047851562 150.992431640625 247.4807281494141 C 158.9530334472656 245.8517608642578 166.7832946777344 243.4210968017578 174.2657775878906 240.2563018798828 C 181.6128692626953 237.1487274169922 188.6992645263672 233.3023376464844 195.3281707763672 228.8239288330078 C 201.8946380615234 224.3877258300781 208.0695037841797 219.2929992675781 213.6812286376953 213.6812286376953 C 219.2929992675781 208.0695037841797 224.3877258300781 201.8946380615234 228.8239288330078 195.3281707763672 C 233.3023376464844 188.6992645263672 237.1487274169922 181.6128692626953 240.2563018798828 174.2657775878906 C 243.4210968017578 166.7832946777344 245.8517608642578 158.9530334472656 247.4807281494141 150.992431640625 C 249.1524047851562 142.8232421875 250 134.4145355224609 250 126 C 250 117.5854644775391 249.1524047851562 109.1767730712891 247.4807281494141 101.007568359375 C 245.8517608642578 93.04696655273438 243.4210968017578 85.21670532226562 240.2563018798828 77.73423767089844 C 237.1487274169922 70.38713073730469 233.3023376464844 63.30073547363281 228.8239288330078 56.67182922363281 C 224.3877258300781 50.10536193847656 219.2929992675781 43.93049621582031 213.6812286376953 38.31877136230469 C 208.0695037841797 32.70700073242188 201.8946380615234 27.61227416992188 195.3281707763672 23.17607116699219 C 188.6992645263672 18.69766235351562 181.6128692626953 14.85127258300781 174.2657775878906 11.74369812011719 C 166.7832946777344 8.578903198242188 158.9530334472656 6.148239135742188 150.992431640625 4.519271850585938 C 142.8232421875 2.84759521484375 134.4145355224609 2 126 2 M 126 0 C 195.5878601074219 0 252 56.41213989257812 252 126 C 252 195.5878601074219 195.5878601074219 252 126 252 C 56.41213989257812 252 0 195.5878601074219 0 126 C 0 56.41213989257812 56.41213989257812 0 126 0 Z" stroke="none" fill="#1ec488"/>
    </g>
    <g id="Trazado_187476" data-name="Trazado 187476" transform="translate(729 4078)" fill="none">
      <path d="M150,0A150,150,0,1,1,0,150,150,150,0,0,1,150,0Z" stroke="none"/>
      <path d="M 150 2 C 139.9570770263672 2 129.9210815429688 3.01165771484375 120.1707305908203 5.0068359375 C 110.669189453125 6.951141357421875 101.3231964111328 9.852294921875 92.39230346679688 13.62973022460938 C 83.62315368652344 17.33880615234375 75.16511535644531 21.9296875 67.25318908691406 27.27487182617188 C 59.41587829589844 32.56964111328125 52.04600524902344 38.650390625 45.34819030761719 45.34819030761719 C 38.650390625 52.04600524902344 32.56964111328125 59.41587829589844 27.27487182617188 67.25318908691406 C 21.9296875 75.16511535644531 17.33880615234375 83.62315368652344 13.62973022460938 92.39230346679688 C 9.852294921875 101.3231964111328 6.951141357421875 110.669189453125 5.0068359375 120.1707305908203 C 3.01165771484375 129.9210815429688 2 139.9570770263672 2 150 C 2 160.0429229736328 3.01165771484375 170.0789184570312 5.0068359375 179.8292694091797 C 6.951141357421875 189.330810546875 9.852294921875 198.6768188476562 13.62973022460938 207.6076507568359 C 17.33880615234375 216.3768463134766 21.9296875 224.8348388671875 27.27487182617188 232.7468109130859 C 32.56964111328125 240.5840759277344 38.650390625 247.9539947509766 45.34819030761719 254.6518096923828 C 52.04600524902344 261.349609375 59.41587829589844 267.4303588867188 67.25318908691406 272.7251281738281 C 75.16511535644531 278.0703125 83.62315368652344 282.6611938476562 92.39234924316406 286.3702392578125 C 101.3231964111328 290.147705078125 110.669189453125 293.0488586425781 120.1707305908203 294.9931640625 C 129.9210815429688 296.9883422851562 139.9570770263672 298 150 298 C 160.0429229736328 298 170.0789184570312 296.9883422851562 179.8292694091797 294.9931640625 C 189.330810546875 293.0488586425781 198.6768188476562 290.147705078125 207.6076507568359 286.3702392578125 C 216.3768463134766 282.6611938476562 224.8348388671875 278.0703125 232.7468109130859 272.7251281738281 C 240.5840759277344 267.4303588867188 247.9539947509766 261.349609375 254.6518096923828 254.6518096923828 C 261.349609375 247.9539947509766 267.4303588867188 240.5840759277344 272.7251281738281 232.7468109130859 C 278.0703125 224.8348388671875 282.6611938476562 216.3768463134766 286.3702392578125 207.6076507568359 C 290.147705078125 198.6768188476562 293.0488586425781 189.330810546875 294.9931640625 179.8292694091797 C 296.9883422851562 170.0789184570312 298 160.0429229736328 298 150 C 298 139.9570770263672 296.9883422851562 129.9210815429688 294.9931640625 120.1707305908203 C 293.0488586425781 110.669189453125 290.147705078125 101.3231964111328 286.3702392578125 92.39234924316406 C 282.6611938476562 83.62315368652344 278.0703125 75.16511535644531 272.7251281738281 67.25318908691406 C 267.4303588867188 59.41587829589844 261.349609375 52.04600524902344 254.6518096923828 45.34819030761719 C 247.9539947509766 38.650390625 240.5840759277344 32.56964111328125 232.7468109130859 27.27487182617188 C 224.8348388671875 21.9296875 216.3768463134766 17.33880615234375 207.6076507568359 13.62973022460938 C 198.6768188476562 9.852294921875 189.330810546875 6.951141357421875 179.8292694091797 5.0068359375 C 170.0789184570312 3.01165771484375 160.0429229736328 2 150 2 M 150 0 C 232.8426818847656 0 300 67.15727233886719 300 150 C 300 232.8426818847656 232.8426818847656 300 150 300 C 67.15727233886719 300 0 232.8426818847656 0 150 C 0 67.15727233886719 67.15727233886719 0 150 0 Z" stroke="none" fill="#1ec488"/>
    </g>
    <g id="Trazado_187477" data-name="Trazado 187477" transform="translate(705 4055)" fill="none">
      <path d="M173.5,0A173.5,173.5,0,1,1,0,173.5,173.5,173.5,0,0,1,173.5,0Z" stroke="none"/>
      <path d="M 173.5 2 C 161.8626403808594 2 150.2331848144531 3.172271728515625 138.9346313476562 5.48431396484375 C 127.9242706298828 7.73736572265625 117.0941314697266 11.09921264648438 106.7450866699219 15.47650146484375 C 96.58340454101562 19.77450561523438 86.7823486328125 25.0943603515625 77.61410522460938 31.288330078125 C 68.53244018554688 37.42376708984375 59.99240112304688 44.46994018554688 52.23117065429688 52.23117065429688 C 44.46994018554688 59.99240112304688 37.42376708984375 68.53244018554688 31.288330078125 77.61410522460938 C 25.0943603515625 86.7823486328125 19.77450561523438 96.58340454101562 15.47650146484375 106.7450866699219 C 11.09921264648438 117.0941314697266 7.73736572265625 127.9242706298828 5.48431396484375 138.9346313476562 C 3.172271728515625 150.2331848144531 2 161.8626403808594 2 173.5 C 2 185.1373596191406 3.172271728515625 196.7668151855469 5.48431396484375 208.0653686523438 C 7.73736572265625 219.0757293701172 11.09921264648438 229.9058532714844 15.47650146484375 240.2549133300781 C 19.77450561523438 250.4165954589844 25.0943603515625 260.2176513671875 31.288330078125 269.3859252929688 C 37.42376708984375 278.467529296875 44.46994018554688 287.0075988769531 52.23117065429688 294.7688293457031 C 59.99240112304688 302.530029296875 68.53244018554688 309.5762329101562 77.61410522460938 315.711669921875 C 86.7823486328125 321.9056396484375 96.58340454101562 327.2254943847656 106.7450866699219 331.5234985351562 C 117.0941314697266 335.9007873535156 127.9242706298828 339.2626342773438 138.9346313476562 341.5156860351562 C 150.2331848144531 343.8277282714844 161.8626403808594 345 173.5 345 C 185.1373596191406 345 196.7668151855469 343.8277282714844 208.0653686523438 341.5156860351562 C 219.0757293701172 339.2626342773438 229.9058532714844 335.9007873535156 240.2549133300781 331.5234985351562 C 250.4165954589844 327.2254943847656 260.2176513671875 321.9056396484375 269.3859252929688 315.711669921875 C 278.467529296875 309.5762329101562 287.0075988769531 302.530029296875 294.7688293457031 294.7688293457031 C 302.530029296875 287.0075988769531 309.5762329101562 278.467529296875 315.711669921875 269.3859252929688 C 321.9056396484375 260.2176513671875 327.2254943847656 250.4165954589844 331.5234985351562 240.2549133300781 C 335.9007873535156 229.9058532714844 339.2626342773438 219.0757293701172 341.5156860351562 208.0653686523438 C 343.8277282714844 196.7668151855469 345 185.1373596191406 345 173.5 C 345 161.8626403808594 343.8277282714844 150.2331848144531 341.5156860351562 138.9346313476562 C 339.2626342773438 127.9242706298828 335.9007873535156 117.0941314697266 331.5234985351562 106.7450866699219 C 327.2254943847656 96.58340454101562 321.9056396484375 86.7823486328125 315.711669921875 77.61410522460938 C 309.5762329101562 68.53244018554688 302.530029296875 59.99240112304688 294.7688293457031 52.23117065429688 C 287.0075988769531 44.46994018554688 278.467529296875 37.42376708984375 269.3859252929688 31.288330078125 C 260.2176513671875 25.0943603515625 250.4165954589844 19.77450561523438 240.2549133300781 15.47650146484375 C 229.9058532714844 11.09921264648438 219.0757293701172 7.73736572265625 208.0653686523438 5.48431396484375 C 196.7668151855469 3.172271728515625 185.1373596191406 2 173.5 2 M 173.5 0 C 269.3214111328125 0 347 77.6785888671875 347 173.5 C 347 269.3214111328125 269.3214111328125 347 173.5 347 C 77.6785888671875 347 0 269.3214111328125 0 173.5 C 0 77.6785888671875 77.6785888671875 0 173.5 0 Z" stroke="none" fill="#1ec488"/>
    </g>
    <g id="Grupo_15259" data-name="Grupo 15259" transform="translate(850.231 4194.519)">
      <circle id="Elipse_1120" data-name="Elipse 1120" cx="9" cy="9" r="9" transform="translate(18.769 0.481)" fill="#ff8f00"/>
      <circle id="Elipse_1121" data-name="Elipse 1121" cx="9" cy="9" r="9" transform="translate(18.769 18.481)" fill="#ff8f00"/>
      <circle id="Elipse_1122" data-name="Elipse 1122" cx="9" cy="9" r="9" transform="translate(5.769 31.481)" fill="#ff8f00"/>
      <circle id="Elipse_1123" data-name="Elipse 1123" cx="9.5" cy="9.5" r="9.5" transform="translate(36.769 33.481)" fill="#ff8f00"/>
      <g id="Elipse_1124" data-name="Elipse 1124" transform="translate(37.769 13.481)" fill="none" stroke="#2649bf" stroke-width="2">
        <circle cx="9" cy="9" r="9" stroke="none"/>
        <circle cx="9" cy="9" r="8" fill="none"/>
      </g>
      <g id="Elipse_1125" data-name="Elipse 1125" transform="translate(-0.231 12.481)" fill="none" stroke="#2649bf" stroke-width="2">
        <circle cx="9" cy="9" r="9" stroke="none"/>
        <circle cx="9" cy="9" r="8" fill="none"/>
      </g>
      <g id="Elipse_1126" data-name="Elipse 1126" transform="translate(21.769 46.481)" fill="none" stroke="#2649bf" stroke-width="2">
        <ellipse cx="8.5" cy="9.5" rx="8.5" ry="9.5" stroke="none"/>
        <ellipse cx="8.5" cy="9.5" rx="7.5" ry="8.5" fill="none"/>
      </g>
    </g>
    <g id="Grupo_15261" data-name="Grupo 15261" transform="translate(690.395 4208.351)">
      <path id="Trazado_33594" data-name="Trazado 33594" d="M15.753,0A15.753,15.753,0,1,1,0,15.753,15.753,15.753,0,0,1,15.753,0Z" transform="translate(0 0)" fill="#1ec488"/>
      <path id="Trazado_33599" data-name="Trazado 33599" d="M15.1-3.367l-1.51.516L11.73-4.84a6.832,6.832,0,0,1-3.649.985,7.09,7.09,0,0,1-2.608-.474,6.254,6.254,0,0,1-2.1-1.332A5.992,5.992,0,0,1,1.984-7.8a7.688,7.688,0,0,1-.507-2.842,7.625,7.625,0,0,1,.507-2.828,6,6,0,0,1,1.393-2.139,6.254,6.254,0,0,1,2.1-1.332,7.09,7.09,0,0,1,2.608-.474,7.064,7.064,0,0,1,2.6.474,6.254,6.254,0,0,1,2.1,1.332,6.052,6.052,0,0,1,1.4,2.139,7.563,7.563,0,0,1,.511,2.828,6.7,6.7,0,0,1-1.82,4.887ZM3.147-10.647A6.261,6.261,0,0,0,3.531-8.4,4.521,4.521,0,0,0,4.587-6.74a4.672,4.672,0,0,0,1.567,1,5.227,5.227,0,0,0,1.928.352A5.19,5.19,0,0,0,10-5.736a4.683,4.683,0,0,0,1.562-1A4.472,4.472,0,0,0,12.616-8.4,6.33,6.33,0,0,0,13-10.647a5.641,5.641,0,0,0-.661-2.791,4.4,4.4,0,0,0-1.764-1.782,5.154,5.154,0,0,0-2.491-.6,5.181,5.181,0,0,0-2.5.6,4.422,4.422,0,0,0-1.773,1.782A5.609,5.609,0,0,0,3.147-10.647Z" transform="translate(7.342 25.55)" fill="#fff"/>
    </g>
    <g id="Grupo_15262" data-name="Grupo 15262" transform="translate(732.659 4208.351)">
      <path id="Trazado_33595" data-name="Trazado 33595" d="M15.753,0A15.753,15.753,0,1,1,0,15.753,15.753,15.753,0,0,1,15.753,0Z" transform="translate(0 0)" fill="#1ec488"/>
      <path id="Trazado_33600" data-name="Trazado 33600" d="M8.077-3.855a7.017,7.017,0,0,1-2.6-.474A6.275,6.275,0,0,1,3.392-5.661,5.942,5.942,0,0,1,2-7.8a7.752,7.752,0,0,1-.5-2.842,7.625,7.625,0,0,1,.507-2.828A6.081,6.081,0,0,1,3.4-15.618,6.128,6.128,0,0,1,5.479-16.95a7.079,7.079,0,0,1,2.6-.469,6.965,6.965,0,0,1,2.58.474,6.223,6.223,0,0,1,2.082,1.332,6.033,6.033,0,0,1,1.388,2.139,7.625,7.625,0,0,1,.507,2.828,7.7,7.7,0,0,1-.507,2.838,6.017,6.017,0,0,1-1.388,2.148,6.223,6.223,0,0,1-2.082,1.332A6.965,6.965,0,0,1,8.077-3.855Zm0-1.585a4.72,4.72,0,0,0,3.494-1.393,5.173,5.173,0,0,0,1.384-3.813,6.056,6.056,0,0,0-.38-2.2,4.521,4.521,0,0,0-1.041-1.632,4.568,4.568,0,0,0-1.548-.994,5.189,5.189,0,0,0-1.909-.347,5.252,5.252,0,0,0-1.923.347,4.608,4.608,0,0,0-1.557.994,4.489,4.489,0,0,0-1.046,1.632,6.056,6.056,0,0,0-.38,2.2,6.159,6.159,0,0,0,.38,2.214A4.476,4.476,0,0,0,4.6-6.791a4.668,4.668,0,0,0,1.557,1A5.19,5.19,0,0,0,8.077-5.441Z" transform="translate(7.337 25.55)" fill="#fff"/>
    </g>
    <g id="Grupo_15263" data-name="Grupo 15263" transform="translate(774.155 4208.351)">
      <path id="Trazado_33596" data-name="Trazado 33596" d="M15.753,0A15.753,15.753,0,1,1,0,15.753,15.753,15.753,0,0,1,15.753,0Z" transform="translate(0 0)" fill="#1ec488"/>
      <path id="Trazado_33601" data-name="Trazado 33601" d="M16.515-3.98H14.883L14-14.88,9.78-3.98h-1L4.584-14.842,3.692-3.98H2.051l1-13.208H5.268l4.005,10.3,4.015-10.3h2.233Z" transform="translate(5.673 25.496)" fill="#fff"/>
    </g>
    <g id="Grupo_15264" data-name="Grupo 15264" transform="translate(814.883 4208.351)">
      <path id="Trazado_33597" data-name="Trazado 33597" d="M15.753,0A15.753,15.753,0,1,1,0,15.753,15.753,15.753,0,0,1,15.753,0Z" transform="translate(0 0)" fill="#1ec488"/>
      <path id="Trazado_33602" data-name="Trazado 33602" d="M10.287-3.98,5.54-10.086H4.377V-3.98H2.7V-17.187H4.377v5.581H5.531L10.1-17.187h2.064L6.975-10.893,12.444-3.98Z" transform="translate(9.365 25.496)" fill="#fff"/>
    </g>
    <g id="Grupo_15265" data-name="Grupo 15265" transform="translate(930.15 4208.351)">
      <path id="Trazado_33598" data-name="Trazado 33598" d="M15.753,0A15.753,15.753,0,1,1,0,15.753,15.753,15.753,0,0,1,15.753,0Z" transform="translate(0 0)" fill="#1ec488"/>
      <path id="Trazado_33603" data-name="Trazado 33603" d="M4.377-5.509H8.964V-3.98H2.7V-17.187H4.377Z" transform="translate(10.902 25.496)" fill="#fff"/>
    </g>
    <g id="Grupo_15266" data-name="Grupo 15266" transform="translate(970.109 4208.351)">
      <path id="Trazado_33604" data-name="Trazado 33604" d="M15.753,0A15.753,15.753,0,1,1,0,15.753,15.753,15.753,0,0,1,15.753,0Z" transform="translate(0 0)" fill="#1ec488"/>
      <path id="Trazado_33605" data-name="Trazado 33605" d="M11.572-17.187h1.67V-3.98H11.468L4.349-14.664V-3.98H2.7V-17.187H4.452L11.572-6.55Z" transform="translate(8.597 25.496)" fill="#fff"/>
    </g>
    <g id="Grupo_15267" data-name="Grupo 15267" transform="translate(1013.143 4208.351)">
      <path id="Trazado_33606" data-name="Trazado 33606" d="M15.753,0A15.753,15.753,0,1,1,0,15.753,15.753,15.753,0,0,1,15.753,0Z" transform="translate(0 0)" fill="#1ec488"/>
      <path id="Trazado_33607" data-name="Trazado 33607" d="M7.7-17.187a3.91,3.91,0,0,1,2.068.549,3.707,3.707,0,0,1,1.388,1.468,4.308,4.308,0,0,1,.483,2.036,4.008,4.008,0,0,1-1.093,2.875A3.75,3.75,0,0,1,7.7-9.111H4.377V-3.98H2.7V-17.187Zm-.244,6.613a2.4,2.4,0,0,0,1.839-.708,2.621,2.621,0,0,0,.666-1.871,2.628,2.628,0,0,0-.666-1.862,2.385,2.385,0,0,0-1.839-.718H4.377v5.159Z" transform="translate(8.597 25.496)" fill="#fff"/>
    </g>
    <g id="Grupo_15268" data-name="Grupo 15268" transform="translate(610.476 4343.598)">
      <path id="Trazado_33594-2" data-name="Trazado 33594" d="M15.753,0A15.753,15.753,0,1,1,0,15.753,15.753,15.753,0,0,1,15.753,0Z" transform="translate(0 0)" fill="#1ec488"/>
      <path id="Trazado_33599-2" data-name="Trazado 33599" d="M15.1-3.367l-1.51.516L11.73-4.84a6.832,6.832,0,0,1-3.649.985,7.09,7.09,0,0,1-2.608-.474,6.254,6.254,0,0,1-2.1-1.332A5.992,5.992,0,0,1,1.984-7.8a7.688,7.688,0,0,1-.507-2.842,7.625,7.625,0,0,1,.507-2.828,6,6,0,0,1,1.393-2.139,6.254,6.254,0,0,1,2.1-1.332,7.09,7.09,0,0,1,2.608-.474,7.064,7.064,0,0,1,2.6.474,6.254,6.254,0,0,1,2.1,1.332,6.052,6.052,0,0,1,1.4,2.139,7.563,7.563,0,0,1,.511,2.828,6.7,6.7,0,0,1-1.82,4.887ZM3.147-10.647A6.261,6.261,0,0,0,3.531-8.4,4.521,4.521,0,0,0,4.587-6.74a4.672,4.672,0,0,0,1.567,1,5.227,5.227,0,0,0,1.928.352A5.19,5.19,0,0,0,10-5.736a4.683,4.683,0,0,0,1.562-1A4.472,4.472,0,0,0,12.616-8.4,6.33,6.33,0,0,0,13-10.647a5.641,5.641,0,0,0-.661-2.791,4.4,4.4,0,0,0-1.764-1.782,5.154,5.154,0,0,0-2.491-.6,5.181,5.181,0,0,0-2.5.6,4.422,4.422,0,0,0-1.773,1.782A5.609,5.609,0,0,0,3.147-10.647Z" transform="translate(7.342 25.55)" fill="#fff"/>
    </g>
    <g id="Grupo_15269" data-name="Grupo 15269" transform="translate(608.939 4251.384)">
      <path id="Trazado_33595-2" data-name="Trazado 33595" d="M15.753,0A15.753,15.753,0,1,1,0,15.753,15.753,15.753,0,0,1,15.753,0Z" transform="translate(0)" fill="#1ec488"/>
      <path id="Trazado_33600-2" data-name="Trazado 33600" d="M8.077-3.855a7.017,7.017,0,0,1-2.6-.474A6.275,6.275,0,0,1,3.392-5.661,5.942,5.942,0,0,1,2-7.8a7.752,7.752,0,0,1-.5-2.842,7.625,7.625,0,0,1,.507-2.828A6.081,6.081,0,0,1,3.4-15.618,6.128,6.128,0,0,1,5.479-16.95a7.079,7.079,0,0,1,2.6-.469,6.965,6.965,0,0,1,2.58.474,6.223,6.223,0,0,1,2.082,1.332,6.033,6.033,0,0,1,1.388,2.139,7.625,7.625,0,0,1,.507,2.828,7.7,7.7,0,0,1-.507,2.838,6.017,6.017,0,0,1-1.388,2.148,6.223,6.223,0,0,1-2.082,1.332A6.965,6.965,0,0,1,8.077-3.855Zm0-1.585a4.72,4.72,0,0,0,3.494-1.393,5.173,5.173,0,0,0,1.384-3.813,6.056,6.056,0,0,0-.38-2.2,4.521,4.521,0,0,0-1.041-1.632,4.568,4.568,0,0,0-1.548-.994,5.189,5.189,0,0,0-1.909-.347,5.252,5.252,0,0,0-1.923.347,4.608,4.608,0,0,0-1.557.994,4.489,4.489,0,0,0-1.046,1.632,6.056,6.056,0,0,0-.38,2.2,6.159,6.159,0,0,0,.38,2.214A4.476,4.476,0,0,0,4.6-6.791a4.668,4.668,0,0,0,1.557,1A5.19,5.19,0,0,0,8.077-5.441Z" transform="translate(7.337 25.55)" fill="#fff"/>
    </g>
    <g id="Grupo_15270" data-name="Grupo 15270" transform="translate(608.17 4159.17)">
      <path id="Trazado_33596-2" data-name="Trazado 33596" d="M15.753,0A15.753,15.753,0,1,1,0,15.753,15.753,15.753,0,0,1,15.753,0Z" fill="#1ec488"/>
      <path id="Trazado_33601-2" data-name="Trazado 33601" d="M16.515-3.98H14.883L14-14.88,9.78-3.98h-1L4.584-14.842,3.692-3.98H2.051l1-13.208H5.268l4.005,10.3,4.015-10.3h2.233Z" transform="translate(5.673 25.496)" fill="#fff"/>
    </g>
    <g id="Grupo_15271" data-name="Grupo 15271" transform="translate(606.634 4066.957)">
      <path id="Trazado_33597-2" data-name="Trazado 33597" d="M15.753,0A15.753,15.753,0,1,1,0,15.753,15.753,15.753,0,0,1,15.753,0Z" fill="#1ec488"/>
      <path id="Trazado_33602-2" data-name="Trazado 33602" d="M10.287-3.98,5.54-10.086H4.377V-3.98H2.7V-17.187H4.377v5.581H5.531L10.1-17.187h2.064L6.975-10.893,12.444-3.98Z" transform="translate(9.365 25.496)" fill="#fff"/>
    </g>
    <g id="Grupo_15272" data-name="Grupo 15272" transform="translate(607.402 4113.063)">
      <path id="Trazado_33598-2" data-name="Trazado 33598" d="M15.753,0A15.753,15.753,0,1,1,0,15.753,15.753,15.753,0,0,1,15.753,0Z" fill="#1ec488"/>
      <path id="Trazado_33603-2" data-name="Trazado 33603" d="M4.377-5.509H8.964V-3.98H2.7V-17.187H4.377Z" transform="translate(10.902 25.496)" fill="#fff"/>
    </g>
    <g id="Grupo_15273" data-name="Grupo 15273" transform="translate(608.939 4205.277)">
      <path id="Trazado_33604-2" data-name="Trazado 33604" d="M15.753,0A15.753,15.753,0,1,1,0,15.753,15.753,15.753,0,0,1,15.753,0Z" fill="#1ec488"/>
      <path id="Trazado_33605-2" data-name="Trazado 33605" d="M11.572-17.187h1.67V-3.98H11.468L4.349-14.664V-3.98H2.7V-17.187H4.452L11.572-6.55Z" transform="translate(8.597 25.496)" fill="#fff"/>
    </g>
    <g id="Grupo_15274" data-name="Grupo 15274" transform="translate(609.708 4297.491)">
      <path id="Trazado_33606-2" data-name="Trazado 33606" d="M15.753,0A15.753,15.753,0,1,1,0,15.753,15.753,15.753,0,0,1,15.753,0Z" transform="translate(0)" fill="#1ec488"/>
      <path id="Trazado_33607-2" data-name="Trazado 33607" d="M7.7-17.187a3.91,3.91,0,0,1,2.068.549,3.707,3.707,0,0,1,1.388,1.468,4.308,4.308,0,0,1,.483,2.036,4.008,4.008,0,0,1-1.093,2.875A3.75,3.75,0,0,1,7.7-9.111H4.377V-3.98H2.7V-17.187Zm-.244,6.613a2.4,2.4,0,0,0,1.839-.708,2.621,2.621,0,0,0,.666-1.871,2.628,2.628,0,0,0-.666-1.862,2.385,2.385,0,0,0-1.839-.718H4.377v5.159Z" transform="translate(8.597 25.496)" fill="#fff"/>
    </g>
    <path id="Trazado_187478" data-name="Trazado 187478" d="M12.469,0H10.558L3.711-10.6a4.431,4.431,0,0,1-.427-.835H3.229A13.7,13.7,0,0,1,3.3-9.611V0H1.744V-13.3H3.767L10.428-2.867q.417.649.538.891H11a14.075,14.075,0,0,1-.093-1.958V-13.3h1.559ZM20.93,0H19.408V-11.495a3.522,3.522,0,0,1-.515.4,8.393,8.393,0,0,1-.761.45q-.422.223-.891.417a6.473,6.473,0,0,1-.914.306v-1.54a8.845,8.845,0,0,0,1.062-.376q.561-.237,1.1-.529t1.025-.612a8.139,8.139,0,0,0,.835-.626h.575Zm19.6-6.9H31.812V-8.127h8.721Zm0,3.952H31.812V-4.175h8.721Z" transform="translate(549 4090)" fill="#12263f"/>
    <path id="Trazado_187479" data-name="Trazado 187479" d="M12.469,0H10.558L3.711-10.6a4.431,4.431,0,0,1-.427-.835H3.229A13.7,13.7,0,0,1,3.3-9.611V0H1.744V-13.3H3.767L10.428-2.867q.417.649.538.891H11a14.075,14.075,0,0,1-.093-1.958V-13.3h1.559Zm8.906-9.815a2.751,2.751,0,0,0-.19-1.067,2.113,2.113,0,0,0-.52-.756,2.129,2.129,0,0,0-.775-.45,3.033,3.033,0,0,0-.965-.148,3.191,3.191,0,0,0-.872.121,4.24,4.24,0,0,0-.83.334,5.108,5.108,0,0,0-.779.51,5.629,5.629,0,0,0-.7.659v-1.633a4.549,4.549,0,0,1,1.433-.951,5.047,5.047,0,0,1,1.934-.329,4.67,4.67,0,0,1,1.512.237,3.467,3.467,0,0,1,1.206.691,3.2,3.2,0,0,1,.8,1.123,3.786,3.786,0,0,1,.292,1.531,5.249,5.249,0,0,1-.181,1.429A4.418,4.418,0,0,1,22.2-7.311a5.82,5.82,0,0,1-.923,1.085,13.076,13.076,0,0,1-1.308,1.058q-.937.668-1.545,1.141a6.828,6.828,0,0,0-.965.886,2.571,2.571,0,0,0-.5.826,2.886,2.886,0,0,0-.144.951h6.624V0h-8.21V-.659a5.489,5.489,0,0,1,.186-1.5A3.9,3.9,0,0,1,16.022-3.4,6.848,6.848,0,0,1,17.14-4.564q.691-.584,1.693-1.317a10.7,10.7,0,0,0,1.211-.993,5.161,5.161,0,0,0,.784-.946,3.4,3.4,0,0,0,.422-.96A4.14,4.14,0,0,0,21.375-9.815ZM40.533-6.9H31.812V-8.127h8.721Zm0,3.952H31.812V-4.175h8.721Z" transform="translate(549 4135)" fill="#12263f"/>
    <path id="Trazado_187480" data-name="Trazado 187480" d="M12.469,0H10.558L3.711-10.6a4.431,4.431,0,0,1-.427-.835H3.229A13.7,13.7,0,0,1,3.3-9.611V0H1.744V-13.3H3.767L10.428-2.867q.417.649.538.891H11a14.075,14.075,0,0,1-.093-1.958V-13.3h1.559ZM23.054-3.767a3.878,3.878,0,0,1-.339,1.637A3.615,3.615,0,0,1,21.76-.867a4.41,4.41,0,0,1-1.48.812,5.986,5.986,0,0,1-1.9.288,5.527,5.527,0,0,1-3.024-.724V-2.125a4.847,4.847,0,0,0,3.08,1.058,4.186,4.186,0,0,0,1.257-.176,2.819,2.819,0,0,0,.965-.51,2.266,2.266,0,0,0,.622-.807A2.521,2.521,0,0,0,21.5-3.627q0-2.607-3.711-2.607h-1.1v-1.29h1.048q3.284,0,3.284-2.449,0-2.264-2.5-2.264a4.265,4.265,0,0,0-2.644.946v-1.475a5.78,5.78,0,0,1,3.024-.761,4.647,4.647,0,0,1,1.512.232,3.465,3.465,0,0,1,1.16.649,2.878,2.878,0,0,1,.747,1,3.093,3.093,0,0,1,.264,1.29,3.247,3.247,0,0,1-2.653,3.377v.037a4.2,4.2,0,0,1,1.252.329,3.342,3.342,0,0,1,.993.663,2.957,2.957,0,0,1,.654.96A3.066,3.066,0,0,1,23.054-3.767ZM40.533-6.9H31.812V-8.127h8.721Zm0,3.952H31.812V-4.175h8.721Z" transform="translate(549 4183)" fill="#12263f"/>
    <path id="Trazado_187481" data-name="Trazado 187481" d="M12.469,0H10.558L3.711-10.6a4.431,4.431,0,0,1-.427-.835H3.229A13.7,13.7,0,0,1,3.3-9.611V0H1.744V-13.3H3.767L10.428-2.867q.417.649.538.891H11a14.075,14.075,0,0,1-.093-1.958V-13.3h1.559ZM22.1-13.3v8.786h1.707v1.392H22.1V0H20.6V-3.126H14.343V-4.444q.872-.983,1.763-2.1t1.7-2.268q.812-1.15,1.5-2.3A20.985,20.985,0,0,0,20.475-13.3Zm-6.04,8.786H20.6v-6.513q-.7,1.215-1.317,2.171T18.1-7.125q-.561.779-1.072,1.41T16.059-4.518ZM40.533-6.9H31.812V-8.127h8.721Zm0,3.952H31.812V-4.175h8.721Z" transform="translate(549 4228)" fill="#12263f"/>
    <path id="Trazado_187482" data-name="Trazado 187482" d="M12.469,0H10.558L3.711-10.6a4.431,4.431,0,0,1-.427-.835H3.229A13.7,13.7,0,0,1,3.3-9.611V0H1.744V-13.3H3.767L10.428-2.867q.417.649.538.891H11a14.075,14.075,0,0,1-.093-1.958V-13.3h1.559ZM23.2-4.063A4.478,4.478,0,0,1,22.869-2.3a3.854,3.854,0,0,1-.951,1.354,4.258,4.258,0,0,1-1.489.872A5.823,5.823,0,0,1,18.49.232a5.356,5.356,0,0,1-2.755-.557V-1.939a5.066,5.066,0,0,0,2.774.872,3.754,3.754,0,0,0,1.3-.213,2.9,2.9,0,0,0,.988-.594,2.542,2.542,0,0,0,.626-.918,3.109,3.109,0,0,0,.218-1.178,2.524,2.524,0,0,0-.872-2.036,3.824,3.824,0,0,0-2.533-.738q-.269,0-.566.009t-.594.023q-.3.014-.58.032t-.515.046l.455-6.67H22.59v1.373H17.757l-.269,3.906q.3-.019.631-.032t.594-.014a5.971,5.971,0,0,1,1.893.278A4.01,4.01,0,0,1,22.02-7,3.326,3.326,0,0,1,22.9-5.738,4.438,4.438,0,0,1,23.2-4.063ZM40.533-6.9H31.812V-8.127h8.721Zm0,3.952H31.812V-4.175h8.721Z" transform="translate(549 4276)" fill="#12263f"/>
    <path id="Trazado_187483" data-name="Trazado 187483" d="M12.469,0H10.558L3.711-10.6a4.431,4.431,0,0,1-.427-.835H3.229A13.7,13.7,0,0,1,3.3-9.611V0H1.744V-13.3H3.767L10.428-2.867q.417.649.538.891H11a14.075,14.075,0,0,1-.093-1.958V-13.3h1.559ZM23.694-4.221a4.928,4.928,0,0,1-.315,1.791,4.3,4.3,0,0,1-.872,1.41A3.9,3.9,0,0,1,21.18-.1a4.2,4.2,0,0,1-1.67.329,3.8,3.8,0,0,1-1.8-.417,3.8,3.8,0,0,1-1.345-1.2A5.763,5.763,0,0,1,15.53-3.3a10.379,10.379,0,0,1-.288-2.551A11.989,11.989,0,0,1,15.628-9a7.652,7.652,0,0,1,1.095-2.421,5.047,5.047,0,0,1,1.712-1.554,4.586,4.586,0,0,1,2.236-.547,5.385,5.385,0,0,1,2.208.38v1.438a4.689,4.689,0,0,0-2.171-.529,3.235,3.235,0,0,0-1.6.4,3.686,3.686,0,0,0-1.225,1.127,5.5,5.5,0,0,0-.784,1.758,8.92,8.92,0,0,0-.274,2.292h.037a3.2,3.2,0,0,1,3.034-1.661,3.993,3.993,0,0,1,1.573.3,3.4,3.4,0,0,1,1.2.84,3.78,3.78,0,0,1,.765,1.294A4.926,4.926,0,0,1,23.694-4.221Zm-1.559.195a4.14,4.14,0,0,0-.176-1.252,2.717,2.717,0,0,0-.506-.946,2.18,2.18,0,0,0-.812-.6,2.732,2.732,0,0,0-1.095-.209,2.562,2.562,0,0,0-1.048.213,2.611,2.611,0,0,0-.835.58,2.686,2.686,0,0,0-.552.854,2.7,2.7,0,0,0-.2,1.034,4.126,4.126,0,0,0,.195,1.285,3.319,3.319,0,0,0,.547,1.044,2.6,2.6,0,0,0,.84.7,2.293,2.293,0,0,0,1.081.255,2.475,2.475,0,0,0,1.048-.218,2.339,2.339,0,0,0,.807-.608,2.813,2.813,0,0,0,.52-.932A3.7,3.7,0,0,0,22.136-4.026ZM40.533-6.9H31.812V-8.127h8.721Zm0,3.952H31.812V-4.175h8.721Z" transform="translate(549 4321)" fill="#12263f"/>
    <path id="Trazado_187484" data-name="Trazado 187484" d="M12.469,0H10.558L3.711-10.6a4.431,4.431,0,0,1-.427-.835H3.229A13.7,13.7,0,0,1,3.3-9.611V0H1.744V-13.3H3.767L10.428-2.867q.417.649.538.891H11a14.075,14.075,0,0,1-.093-1.958V-13.3h1.559ZM23.583-12.422q-.306.529-.738,1.317t-.914,1.772q-.482.983-.983,2.115T20.011-4.88q-.436,1.206-.765,2.445A18.186,18.186,0,0,0,18.768,0H17.135a18.5,18.5,0,0,1,.515-2.426q.348-1.239.789-2.431t.932-2.3q.492-1.1.956-2.032t.849-1.637q.385-.71.617-1.109h-6.67V-13.3h8.461ZM40.533-6.9H31.812V-8.127h8.721Zm0,3.952H31.812V-4.175h8.721Z" transform="translate(549 4369)" fill="#12263f"/>
  </g>
</svg>
