<svg xmlns="http://www.w3.org/2000/svg" width="92" height="92" viewBox="0 0 92 92">
  <g id="Grupo_177974" data-name="Grupo 177974" transform="translate(-1227 -1358)">
    <circle id="Elipse_4895" data-name="Elipse 4895" cx="46" cy="46" r="46" transform="translate(1227 1358)" fill="#fff"/>
    <g id="Grupo_13231" data-name="Grupo 13231" transform="translate(1103.046 823.066)">
      <g id="Grupo_13229" data-name="Grupo 13229" transform="translate(148.069 555.143)">
        <g id="Grupo_13228" data-name="Grupo 13228" transform="translate(0)">
          <path id="Trazado_26579" data-name="Trazado 26579" d="M186.864,611.007,185.42,594.36l.041-.088,9.927-21.39-2.346-13.827.72-.122,2.312,13.632,18.867-.181L204.577,591.85l-8.8-18.068-9.611,20.708,1.427,16.453Zm9.484-37.716,8.258,16.952,9.114-17.118Z" transform="translate(-169.978 -558.932)" fill="#173e67"/>
          <g id="Grupo_13227" data-name="Grupo 13227" transform="translate(0 29.417)">
            <line id="Línea_6" data-name="Línea 6" x2="15.659" y2="5.645" transform="translate(0.155 0.431)" fill="#fff"/>
            <rect id="Rectángulo_2758" data-name="Rectángulo 2758" width="0.917" height="16.645" transform="matrix(0.339, -0.941, 0.941, 0.339, 0, 0.863)" fill="#1d1d1b"/>
          </g>
        </g>
      </g>
      <g id="Grupo_13230" data-name="Grupo 13230" transform="translate(144.954 551.933)">
        <circle id="Elipse_926" data-name="Elipse 926" cx="8.151" cy="8.151" r="8.151" transform="translate(10.778 30.551)" fill="#2668a3"/>
        <circle id="Elipse_927" data-name="Elipse 927" cx="4.802" cy="4.802" r="4.802" transform="translate(31.291 29.651)" fill="#ff0606"/>
        <circle id="Elipse_928" data-name="Elipse 928" cx="3.27" cy="3.27" r="3.27" transform="translate(44.198 13.761)" fill="#ffe000"/>
        <circle id="Elipse_929" data-name="Elipse 929" cx="3.27" cy="3.27" r="3.27" transform="translate(25.634 13.939)" fill="#ffe000"/>
        <circle id="Elipse_930" data-name="Elipse 930" cx="3.27" cy="3.27" r="3.27" transform="translate(23.269)" fill="#ff0606"/>
        <circle id="Elipse_931" data-name="Elipse 931" cx="3.27" cy="3.27" r="3.27" transform="translate(0 29.787)" fill="#ffe000"/>
        <circle id="Elipse_932" data-name="Elipse 932" cx="3.27" cy="3.27" r="3.27" transform="translate(17.094 51.982)" fill="#ffe000"/>
      </g>
    </g>
  </g>
</svg>
