<svg xmlns="http://www.w3.org/2000/svg" width="504.859" height="216.163" viewBox="0 0 504.859 216.163">
  <g id="Grupo_178779" data-name="Grupo 178779" transform="translate(-548.539 -4652.836)">
    <path id="Trazado_187485" data-name="Trazado 187485" d="M6.914-2.984A1.2,1.2,0,0,0,6.445-4a6.148,6.148,0,0,0-1.687-.75,11.963,11.963,0,0,1-1.93-.777A3.153,3.153,0,0,1,.891-8.352,2.747,2.747,0,0,1,1.41-10,3.389,3.389,0,0,1,2.9-11.125a5.616,5.616,0,0,1,2.184-.406,5.112,5.112,0,0,1,2.172.441,3.458,3.458,0,0,1,1.48,1.246,3.261,3.261,0,0,1,.527,1.828H6.922A1.534,1.534,0,0,0,6.43-9.23a2.023,2.023,0,0,0-1.383-.434A2.162,2.162,0,0,0,3.711-9.3a1.146,1.146,0,0,0-.477.957,1.1,1.1,0,0,0,.559.93,6.311,6.311,0,0,0,1.645.7A7.106,7.106,0,0,1,8.352-5.219,2.972,2.972,0,0,1,9.266-3,2.737,2.737,0,0,1,8.148-.684a4.891,4.891,0,0,1-3.008.84A5.808,5.808,0,0,1,2.75-.324,3.783,3.783,0,0,1,1.105-1.641,3.371,3.371,0,0,1,.539-3.578H2.891q0,1.883,2.25,1.883a2.189,2.189,0,0,0,1.3-.34A1.106,1.106,0,0,0,6.914-2.984ZM15.766-.859A2.831,2.831,0,0,1,13.453.156a2.67,2.67,0,0,1-2.074-.781,3.335,3.335,0,0,1-.73-2.289V-8.453h2.258v5.467q0,1.322,1.2,1.322a1.63,1.63,0,0,0,1.578-.8V-8.453h2.266V0H15.828ZM27.273-4.148A5.119,5.119,0,0,1,26.406-.98,2.872,2.872,0,0,1,23.984.156,2.639,2.639,0,0,1,21.789-.9l-.1.9H19.656V-12h2.258v4.3a2.571,2.571,0,0,1,2.055-.914,2.9,2.9,0,0,1,2.426,1.137,5.126,5.126,0,0,1,.879,3.2Zm-2.258-.164a3.363,3.363,0,0,0-.406-1.871,1.374,1.374,0,0,0-1.211-.59,1.489,1.489,0,0,0-1.484.883v3.336a1.509,1.509,0,0,0,1.5.891,1.394,1.394,0,0,0,1.438-1.078A5.562,5.562,0,0,0,25.016-4.312Zm5.727-4.141.07.977a2.951,2.951,0,0,1,2.43-1.133,2.453,2.453,0,0,1,2,.789,3.682,3.682,0,0,1,.672,2.359V0H33.656V-5.406a1.465,1.465,0,0,0-.312-1.043A1.4,1.4,0,0,0,32.3-6.773a1.553,1.553,0,0,0-1.43.813V0H28.617V-8.453ZM40.008,0H37.742V-8.453h2.266Zm-2.4-10.641a1.112,1.112,0,0,1,.34-.836,1.277,1.277,0,0,1,.926-.328,1.28,1.28,0,0,1,.922.328,1.105,1.105,0,0,1,.344.836,1.108,1.108,0,0,1-.348.844,1.283,1.283,0,0,1-.918.328,1.283,1.283,0,0,1-.918-.328A1.108,1.108,0,0,1,37.609-10.641Zm7.422,7.883,1.57-5.7h2.359L46.109,0H43.953L41.1-8.453h2.359ZM53.844.156A4.15,4.15,0,0,1,50.816-.984a4.054,4.054,0,0,1-1.168-3.039v-.219a5.106,5.106,0,0,1,.492-2.277,3.612,3.612,0,0,1,1.395-1.547,3.914,3.914,0,0,1,2.059-.543,3.508,3.508,0,0,1,2.73,1.094,4.444,4.444,0,0,1,1,3.1v.922H51.938a2.1,2.1,0,0,0,.66,1.328,2,2,0,0,0,1.395.5,2.437,2.437,0,0,0,2.039-.945l1.109,1.242A3.389,3.389,0,0,1,55.766-.246,4.511,4.511,0,0,1,53.844.156Zm-.258-6.945a1.411,1.411,0,0,0-1.09.455,2.357,2.357,0,0,0-.535,1.3H55.1v-.181A1.681,1.681,0,0,0,54.7-6.377,1.456,1.456,0,0,0,53.586-6.789ZM60.984,0H58.719V-12h2.266Zm5.75.156A4.15,4.15,0,0,1,63.707-.984a4.054,4.054,0,0,1-1.168-3.039v-.219a5.106,5.106,0,0,1,.492-2.277,3.612,3.612,0,0,1,1.395-1.547,3.914,3.914,0,0,1,2.059-.543,3.508,3.508,0,0,1,2.73,1.094,4.444,4.444,0,0,1,1,3.1v.922H64.828a2.1,2.1,0,0,0,.66,1.328,2,2,0,0,0,1.395.5,2.437,2.437,0,0,0,2.039-.945l1.109,1.242A3.389,3.389,0,0,1,68.656-.246,4.511,4.511,0,0,1,66.734.156Zm-.258-6.945a1.411,1.411,0,0,0-1.09.455,2.357,2.357,0,0,0-.535,1.3h3.141v-.181a1.681,1.681,0,0,0-.406-1.165A1.456,1.456,0,0,0,66.477-6.789ZM76.07-2.336a.727.727,0,0,0-.41-.652,4.659,4.659,0,0,0-1.316-.426q-3.016-.633-3.016-2.562a2.323,2.323,0,0,1,.934-1.879A3.766,3.766,0,0,1,74.7-8.609a4.053,4.053,0,0,1,2.574.758,2.388,2.388,0,0,1,.965,1.969H75.984a1.092,1.092,0,0,0-.312-.8A1.322,1.322,0,0,0,74.7-7a1.351,1.351,0,0,0-.883.258.814.814,0,0,0-.312.656.7.7,0,0,0,.355.605,3.657,3.657,0,0,0,1.2.4,9.8,9.8,0,0,1,1.422.379A2.336,2.336,0,0,1,78.266-2.43a2.2,2.2,0,0,1-.992,1.871,4.28,4.28,0,0,1-2.562.715,4.47,4.47,0,0,1-1.887-.379,3.166,3.166,0,0,1-1.293-1.039,2.414,2.414,0,0,1-.469-1.426H73.2a1.179,1.179,0,0,0,.445.922,1.766,1.766,0,0,0,1.109.32,1.635,1.635,0,0,0,.98-.246A.766.766,0,0,0,76.07-2.336Zm7.281-1.953a5.094,5.094,0,0,1,.887-3.148,2.877,2.877,0,0,1,2.426-1.172,2.589,2.589,0,0,1,2.039.922V-12h2.266V0H88.93L88.82-.9A2.657,2.657,0,0,1,86.648.156,2.869,2.869,0,0,1,84.254-1.02,5.258,5.258,0,0,1,83.352-4.289Zm2.258.168A3.337,3.337,0,0,0,86.023-2.3a1.349,1.349,0,0,0,1.2.634A1.511,1.511,0,0,0,88.7-2.548V-5.889a1.489,1.489,0,0,0-1.461-.884Q85.609-6.773,85.609-4.121Zm11,4.277A4.15,4.15,0,0,1,93.582-.984a4.054,4.054,0,0,1-1.168-3.039v-.219a5.106,5.106,0,0,1,.492-2.277A3.612,3.612,0,0,1,94.3-8.066a3.914,3.914,0,0,1,2.059-.543,3.508,3.508,0,0,1,2.73,1.094,4.444,4.444,0,0,1,1,3.1v.922H94.7a2.1,2.1,0,0,0,.66,1.328,2,2,0,0,0,1.395.5A2.437,2.437,0,0,0,98.8-2.609l1.109,1.242A3.389,3.389,0,0,1,98.531-.246,4.511,4.511,0,0,1,96.609.156Zm-.258-6.945a1.411,1.411,0,0,0-1.09.455,2.357,2.357,0,0,0-.535,1.3h3.141v-.181a1.681,1.681,0,0,0-.406-1.165A1.456,1.456,0,0,0,96.352-6.789ZM109.242.156a4.15,4.15,0,0,1-3.027-1.141,4.054,4.054,0,0,1-1.168-3.039v-.219a5.106,5.106,0,0,1,.492-2.277,3.612,3.612,0,0,1,1.395-1.547,3.914,3.914,0,0,1,2.059-.543,3.508,3.508,0,0,1,2.73,1.094,4.444,4.444,0,0,1,1,3.1v.922h-5.383A2.1,2.1,0,0,0,108-2.164a2,2,0,0,0,1.395.5,2.437,2.437,0,0,0,2.039-.945l1.109,1.242a3.389,3.389,0,0,1-1.375,1.121A4.511,4.511,0,0,1,109.242.156Zm-.258-6.945a1.411,1.411,0,0,0-1.09.455,2.357,2.357,0,0,0-.535,1.3H110.5v-.181a1.681,1.681,0,0,0-.406-1.165A1.456,1.456,0,0,0,108.984-6.789Zm7.094-1.664.07.977a2.951,2.951,0,0,1,2.43-1.133,2.453,2.453,0,0,1,2,.789,3.682,3.682,0,0,1,.672,2.359V0h-2.258V-5.406a1.465,1.465,0,0,0-.312-1.043,1.4,1.4,0,0,0-1.039-.324,1.553,1.553,0,0,0-1.43.813V0h-2.258V-8.453ZM126.852.156a4.15,4.15,0,0,1-3.027-1.141,4.054,4.054,0,0,1-1.168-3.039v-.219a5.106,5.106,0,0,1,.492-2.277,3.612,3.612,0,0,1,1.395-1.547,3.914,3.914,0,0,1,2.059-.543,3.508,3.508,0,0,1,2.73,1.094,4.444,4.444,0,0,1,1,3.1v.922h-5.383a2.1,2.1,0,0,0,.66,1.328,2,2,0,0,0,1.395.5,2.437,2.437,0,0,0,2.039-.945l1.109,1.242a3.389,3.389,0,0,1-1.375,1.121A4.511,4.511,0,0,1,126.852.156Zm-.258-6.945a1.411,1.411,0,0,0-1.09.455,2.357,2.357,0,0,0-.535,1.3h3.141v-.181a1.681,1.681,0,0,0-.406-1.165A1.456,1.456,0,0,0,126.594-6.789Zm9.766.453a6.134,6.134,0,0,0-.812-.062,1.654,1.654,0,0,0-1.68.867V0h-2.258V-8.453h2.133l.063,1.008a2.092,2.092,0,0,1,1.883-1.164,2.366,2.366,0,0,1,.7.1Zm.758,2.047a4.954,4.954,0,0,1,.926-3.133,3,3,0,0,1,2.5-1.187,2.631,2.631,0,0,1,2.164.953l.094-.8h2.047V-.281a3.613,3.613,0,0,1-.5,1.93,3.236,3.236,0,0,1-1.418,1.25,4.985,4.985,0,0,1-2.141.43,4.635,4.635,0,0,1-1.812-.371A3.217,3.217,0,0,1,137.633,2l1-1.375a2.645,2.645,0,0,0,2.047.945,1.936,1.936,0,0,0,1.4-.48,1.8,1.8,0,0,0,.5-1.363V-.727a2.612,2.612,0,0,1-2.055.883,2.992,2.992,0,0,1-2.465-1.191,4.953,4.953,0,0,1-.941-3.16Zm2.258.168a3.085,3.085,0,0,0,.461,1.8,1.466,1.466,0,0,0,1.266.653,1.568,1.568,0,0,0,1.477-.775V-6a1.564,1.564,0,0,0-1.461-.775,1.476,1.476,0,0,0-1.277.665A3.477,3.477,0,0,0,139.375-4.121ZM149.016,0h-2.258V-8.453h2.258Zm-.664-11.883h2.461l-2.164,2.422h-1.836ZM155.859,0a2.507,2.507,0,0,1-.227-.758A2.732,2.732,0,0,1,153.5.156a3,3,0,0,1-2.059-.719,2.312,2.312,0,0,1-.816-1.812,2.389,2.389,0,0,1,1-2.062,4.915,4.915,0,0,1,2.879-.727h1.039v-.484a1.393,1.393,0,0,0-.3-.937,1.183,1.183,0,0,0-.949-.352,1.345,1.345,0,0,0-.895.273.929.929,0,0,0-.324.75h-2.258a2.268,2.268,0,0,1,.453-1.359,3,3,0,0,1,1.281-.98,4.669,4.669,0,0,1,1.859-.355,3.689,3.689,0,0,1,2.48.785,2.747,2.747,0,0,1,.918,2.207v3.664a4.041,4.041,0,0,0,.336,1.82V0Zm-1.867-1.57a1.945,1.945,0,0,0,.922-.223,1.462,1.462,0,0,0,.625-.6V-3.844H154.7q-1.7,0-1.8,1.172l-.008.133a.9.9,0,0,0,.3.7A1.153,1.153,0,0,0,153.992-1.57Z" transform="translate(548 4665)" fill="#12263f"/>
    <path id="Trazado_33617" data-name="Trazado 33617" d="M0,0H111.956V12.38H0Z" transform="translate(575 4741.478) rotate(-30)" fill="#2daae1"/>
    <path id="Trazado_33614" data-name="Trazado 33614" d="M0,0H111.956V12.38H0Z" transform="translate(575 4779.693) rotate(-30)" fill="#3bab36"/>
    <path id="Trazado_33608" data-name="Trazado 33608" d="M0,0H111.956V12.38H0Z" transform="translate(575 4818.986) rotate(-30)" fill="#f39325"/>
    <path id="Trazado_33609" data-name="Trazado 33609" d="M0,0H111.956V12.38H0Z" transform="translate(575 4858.278) rotate(-30)" fill="#e7137e"/>
    <g id="Trazado_33618" data-name="Trazado 33618" transform="translate(608.167 4703.375)" fill="#2daae1">
      <path d="M 15.34013748168945 29.18027687072754 C 11.64330768585205 29.18027687072754 8.167737007141113 27.74064826965332 5.553687572479248 25.1265869140625 C 2.939627408981323 22.51253700256348 1.499997496604919 19.03696823120117 1.499997496604919 15.34013748168945 C 1.499997496604919 11.64330768585205 2.939627408981323 8.167737007141113 5.553687572479248 5.553687572479248 C 8.167737007141113 2.939627408981323 11.64330768585205 1.499997496604919 15.34013748168945 1.499997496604919 C 19.03696823120117 1.499997496604919 22.51253700256348 2.939627408981323 25.1265869140625 5.553687572479248 C 27.74064826965332 8.167737007141113 29.18027687072754 11.64330768585205 29.18027687072754 15.34013748168945 C 29.18027687072754 19.03696823120117 27.74064826965332 22.51253700256348 25.1265869140625 25.1265869140625 C 22.51253700256348 27.74064826965332 19.03696823120117 29.18027687072754 15.34013748168945 29.18027687072754 Z" stroke="none"/>
      <path d="M 15.34013748168945 2.999998092651367 C 12.04396820068359 2.999998092651367 8.945087432861328 4.283597946166992 6.614347457885742 6.614347457885742 C 4.283597946166992 8.945087432861328 2.999998092651367 12.04396820068359 2.999998092651367 15.34013748168945 C 2.999998092651367 18.63630676269531 4.283597946166992 21.73518753051758 6.614347457885742 24.06592750549316 C 8.945087432861328 26.39667701721191 12.04396820068359 27.68027687072754 15.34013748168945 27.68027687072754 C 18.63630676269531 27.68027687072754 21.73518753051758 26.39667701721191 24.06592750549316 24.06592750549316 C 26.39667701721191 21.73518753051758 27.68027687072754 18.63630676269531 27.68027687072754 15.34013748168945 C 27.68027687072754 12.04396820068359 26.39667701721191 8.945087432861328 24.06592750549316 6.614347457885742 C 21.73518753051758 4.283597946166992 18.63630676269531 2.999998092651367 15.34013748168945 2.999998092651367 M 15.34013748168945 -1.9073486328125e-06 C 23.81225776672363 -1.9073486328125e-06 30.68027687072754 6.868017196655273 30.68027687072754 15.34013748168945 C 30.68027687072754 23.81225776672363 23.81225776672363 30.68027687072754 15.34013748168945 30.68027687072754 C 6.868017196655273 30.68027687072754 -1.9073486328125e-06 23.81225776672363 -1.9073486328125e-06 15.34013748168945 C -1.9073486328125e-06 6.868017196655273 6.868017196655273 -1.9073486328125e-06 15.34013748168945 -1.9073486328125e-06 Z" stroke="none" fill="#082143"/>
    </g>
    <g id="Trazado_33615" data-name="Trazado 33615" transform="translate(608.167 4741.59)" fill="#3bab36">
      <path d="M 15.34013748168945 29.18027687072754 C 11.64330768585205 29.18027687072754 8.167737007141113 27.74064826965332 5.553687572479248 25.1265869140625 C 2.939627408981323 22.51253700256348 1.499997496604919 19.03696823120117 1.499997496604919 15.34013748168945 C 1.499997496604919 11.64330768585205 2.939627408981323 8.167737007141113 5.553687572479248 5.553687572479248 C 8.167737007141113 2.939627408981323 11.64330768585205 1.499997496604919 15.34013748168945 1.499997496604919 C 19.03696823120117 1.499997496604919 22.51253700256348 2.939627408981323 25.1265869140625 5.553687572479248 C 27.74064826965332 8.167737007141113 29.18027687072754 11.64330768585205 29.18027687072754 15.34013748168945 C 29.18027687072754 19.03696823120117 27.74064826965332 22.51253700256348 25.1265869140625 25.1265869140625 C 22.51253700256348 27.74064826965332 19.03696823120117 29.18027687072754 15.34013748168945 29.18027687072754 Z" stroke="none"/>
      <path d="M 15.34013748168945 2.999998092651367 C 12.04396820068359 2.999998092651367 8.945087432861328 4.283597946166992 6.614347457885742 6.614347457885742 C 4.283597946166992 8.945087432861328 2.999998092651367 12.04396820068359 2.999998092651367 15.34013748168945 C 2.999998092651367 18.63630676269531 4.283597946166992 21.73518753051758 6.614347457885742 24.06592750549316 C 8.945087432861328 26.39667701721191 12.04396820068359 27.68027687072754 15.34013748168945 27.68027687072754 C 18.63630676269531 27.68027687072754 21.73518753051758 26.39667701721191 24.06592750549316 24.06592750549316 C 26.39667701721191 21.73518753051758 27.68027687072754 18.63630676269531 27.68027687072754 15.34013748168945 C 27.68027687072754 12.04396820068359 26.39667701721191 8.945087432861328 24.06592750549316 6.614347457885742 C 21.73518753051758 4.283597946166992 18.63630676269531 2.999998092651367 15.34013748168945 2.999998092651367 M 15.34013748168945 -1.9073486328125e-06 C 23.81225776672363 -1.9073486328125e-06 30.68027687072754 6.868017196655273 30.68027687072754 15.34013748168945 C 30.68027687072754 23.81225776672363 23.81225776672363 30.68027687072754 15.34013748168945 30.68027687072754 C 6.868017196655273 30.68027687072754 -1.9073486328125e-06 23.81225776672363 -1.9073486328125e-06 15.34013748168945 C -1.9073486328125e-06 6.868017196655273 6.868017196655273 -1.9073486328125e-06 15.34013748168945 -1.9073486328125e-06 Z" stroke="none" fill="#082143"/>
    </g>
    <g id="Trazado_33612" data-name="Trazado 33612" transform="translate(608.167 4779.806)" fill="#f39325">
      <path d="M 15.34013748168945 29.18027687072754 C 11.64330768585205 29.18027687072754 8.167737007141113 27.74064826965332 5.553687572479248 25.1265869140625 C 2.939627408981323 22.51253700256348 1.499997496604919 19.03696823120117 1.499997496604919 15.34013748168945 C 1.499997496604919 11.64330768585205 2.939627408981323 8.167737007141113 5.553687572479248 5.553687572479248 C 8.167737007141113 2.939627408981323 11.64330768585205 1.499997496604919 15.34013748168945 1.499997496604919 C 19.03696823120117 1.499997496604919 22.51253700256348 2.939627408981323 25.1265869140625 5.553687572479248 C 27.74064826965332 8.167737007141113 29.18027687072754 11.64330768585205 29.18027687072754 15.34013748168945 C 29.18027687072754 19.03696823120117 27.74064826965332 22.51253700256348 25.1265869140625 25.1265869140625 C 22.51253700256348 27.74064826965332 19.03696823120117 29.18027687072754 15.34013748168945 29.18027687072754 Z" stroke="none"/>
      <path d="M 15.34013748168945 2.999998092651367 C 12.04396820068359 2.999998092651367 8.945087432861328 4.283597946166992 6.614347457885742 6.614347457885742 C 4.283597946166992 8.945087432861328 2.999998092651367 12.04396820068359 2.999998092651367 15.34013748168945 C 2.999998092651367 18.63630676269531 4.283597946166992 21.73518753051758 6.614347457885742 24.06592750549316 C 8.945087432861328 26.39667701721191 12.04396820068359 27.68027687072754 15.34013748168945 27.68027687072754 C 18.63630676269531 27.68027687072754 21.73518753051758 26.39667701721191 24.06592750549316 24.06592750549316 C 26.39667701721191 21.73518753051758 27.68027687072754 18.63630676269531 27.68027687072754 15.34013748168945 C 27.68027687072754 12.04396820068359 26.39667701721191 8.945087432861328 24.06592750549316 6.614347457885742 C 21.73518753051758 4.283597946166992 18.63630676269531 2.999998092651367 15.34013748168945 2.999998092651367 M 15.34013748168945 -1.9073486328125e-06 C 23.81225776672363 -1.9073486328125e-06 30.68027687072754 6.868017196655273 30.68027687072754 15.34013748168945 C 30.68027687072754 23.81225776672363 23.81225776672363 30.68027687072754 15.34013748168945 30.68027687072754 C 6.868017196655273 30.68027687072754 -1.9073486328125e-06 23.81225776672363 -1.9073486328125e-06 15.34013748168945 C -1.9073486328125e-06 6.868017196655273 6.868017196655273 -1.9073486328125e-06 15.34013748168945 -1.9073486328125e-06 Z" stroke="none" fill="#082143"/>
    </g>
    <g id="Trazado_33610" data-name="Trazado 33610" transform="translate(608.167 4820.713)" fill="#e7137e">
      <path d="M 15.34013748168945 29.18027687072754 C 11.64330768585205 29.18027687072754 8.167737007141113 27.74064826965332 5.553687572479248 25.1265869140625 C 2.939627408981323 22.51253700256348 1.499997496604919 19.03696823120117 1.499997496604919 15.34013748168945 C 1.499997496604919 11.64330768585205 2.939627408981323 8.167737007141113 5.553687572479248 5.553687572479248 C 8.167737007141113 2.939627408981323 11.64330768585205 1.499997496604919 15.34013748168945 1.499997496604919 C 19.03696823120117 1.499997496604919 22.51253700256348 2.939627408981323 25.1265869140625 5.553687572479248 C 27.74064826965332 8.167737007141113 29.18027687072754 11.64330768585205 29.18027687072754 15.34013748168945 C 29.18027687072754 19.03696823120117 27.74064826965332 22.51253700256348 25.1265869140625 25.1265869140625 C 22.51253700256348 27.74064826965332 19.03696823120117 29.18027687072754 15.34013748168945 29.18027687072754 Z" stroke="none"/>
      <path d="M 15.34013748168945 2.999998092651367 C 12.04396820068359 2.999998092651367 8.945087432861328 4.283597946166992 6.614347457885742 6.614347457885742 C 4.283597946166992 8.945087432861328 2.999998092651367 12.04396820068359 2.999998092651367 15.34013748168945 C 2.999998092651367 18.63630676269531 4.283597946166992 21.73518753051758 6.614347457885742 24.06592750549316 C 8.945087432861328 26.39667701721191 12.04396820068359 27.68027687072754 15.34013748168945 27.68027687072754 C 18.63630676269531 27.68027687072754 21.73518753051758 26.39667701721191 24.06592750549316 24.06592750549316 C 26.39667701721191 21.73518753051758 27.68027687072754 18.63630676269531 27.68027687072754 15.34013748168945 C 27.68027687072754 12.04396820068359 26.39667701721191 8.945087432861328 24.06592750549316 6.614347457885742 C 21.73518753051758 4.283597946166992 18.63630676269531 2.999998092651367 15.34013748168945 2.999998092651367 M 15.34013748168945 -1.9073486328125e-06 C 23.81225776672363 -1.9073486328125e-06 30.68027687072754 6.868017196655273 30.68027687072754 15.34013748168945 C 30.68027687072754 23.81225776672363 23.81225776672363 30.68027687072754 15.34013748168945 30.68027687072754 C 6.868017196655273 30.68027687072754 -1.9073486328125e-06 23.81225776672363 -1.9073486328125e-06 15.34013748168945 C -1.9073486328125e-06 6.868017196655273 6.868017196655273 -1.9073486328125e-06 15.34013748168945 -1.9073486328125e-06 Z" stroke="none" fill="#082143"/>
    </g>
    <path id="Trazado_33619" data-name="Trazado 33619" d="M5.883-20.687H5.836q-.221,0-.335,0t-.323.028a1.309,1.309,0,0,0-.327.071,1.668,1.668,0,0,0-.272.146.726.726,0,0,0-.237.237,1.429,1.429,0,0,0-.142.351,1.832,1.832,0,0,0-.059.489v.867H5.883v1.742H4.141v6.363H1.878v-6.363H.293v-1.742H1.878v-.875a4.74,4.74,0,0,1,.1-1.033,3.143,3.143,0,0,1,.276-.785,1.836,1.836,0,0,1,.461-.564,2.722,2.722,0,0,1,.6-.378,3.424,3.424,0,0,1,.745-.229,6.536,6.536,0,0,1,.855-.114q.422-.028.966-.028Z" transform="translate(620.95 4734.756)" fill="#fff"/>
    <path id="Trazado_33616" data-name="Trazado 33616" d="M7.383-22.5H9.653v12.111H7.5l-.055-1.057a2.315,2.315,0,0,1-1.029.919A3.463,3.463,0,0,1,4.9-10.2a3.942,3.942,0,0,1-1.514-.292,3.758,3.758,0,0,1-1.242-.824,3.756,3.756,0,0,1-.84-1.336A4.93,4.93,0,0,1,1-14.426a4.608,4.608,0,0,1,.536-2.259,3.674,3.674,0,0,1,1.415-1.47,3.9,3.9,0,0,1,1.951-.5,3.55,3.55,0,0,1,1.47.3,2.3,2.3,0,0,1,1.013.84ZM5.419-12.085a2.022,2.022,0,0,0,1.534-.647,2.367,2.367,0,0,0,.611-1.7,2.372,2.372,0,0,0-.615-1.7,2.019,2.019,0,0,0-1.53-.65,2.043,2.043,0,0,0-1.541.639,2.372,2.372,0,0,0-.611,1.711,2.361,2.361,0,0,0,.611,1.7A2.043,2.043,0,0,0,5.419-12.085Z" transform="translate(617.396 4772.972)" fill="#fff"/>
    <path id="Trazado_33613" data-name="Trazado 33613" d="M6.937-15.352a3.942,3.942,0,0,1,1.514.292,3.788,3.788,0,0,1,1.242.82,3.71,3.71,0,0,1,.84,1.336,4.962,4.962,0,0,1,.307,1.778,4.962,4.962,0,0,1-.307,1.778,3.71,3.71,0,0,1-.84,1.336,3.788,3.788,0,0,1-1.242.82A3.942,3.942,0,0,1,6.937-6.9,3.517,3.517,0,0,1,5.47-7.2,2.3,2.3,0,0,1,4.453-8.05v4.9H2.183V-15.194H4.335L4.4-14.106a2.22,2.22,0,0,1,1.013-.919A3.482,3.482,0,0,1,6.937-15.352ZM6.424-8.784a2.04,2.04,0,0,0,1.534-.635,2.358,2.358,0,0,0,.611-1.707,2.358,2.358,0,0,0-.611-1.707,2.04,2.04,0,0,0-1.534-.635,2.043,2.043,0,0,0-1.545.647,2.358,2.358,0,0,0-.615,1.7,2.358,2.358,0,0,0,.615,1.7A2.043,2.043,0,0,0,6.424-8.784Z" transform="translate(617.924 4805.195)" fill="#fff"/>
    <path id="Trazado_33611" data-name="Trazado 33611" d="M4.462-6.931A4.53,4.53,0,0,1,2.1-7.5,2.4,2.4,0,0,1,.938-9.186l1.9-.536A1.527,1.527,0,0,0,4.462-8.516,1.677,1.677,0,0,0,5.29-8.7a.645.645,0,0,0,.323-.627.663.663,0,0,0-.134-.418,1.062,1.062,0,0,0-.414-.3,5.157,5.157,0,0,0-.552-.213q-.272-.087-.721-.209T3.043-10.7a5.018,5.018,0,0,1-.714-.3,3.044,3.044,0,0,1-.591-.418,1.684,1.684,0,0,1-.442-.635,2.29,2.29,0,0,1-.154-.867,2.071,2.071,0,0,1,.879-1.813,3.928,3.928,0,0,1,2.3-.615,4.027,4.027,0,0,1,2.121.52,2.355,2.355,0,0,1,1.088,1.624l-1.758.394a1.377,1.377,0,0,0-1.443-1.025,1.58,1.58,0,0,0-.8.181.583.583,0,0,0-.315.536.614.614,0,0,0,.047.244.484.484,0,0,0,.166.2,2.415,2.415,0,0,0,.229.15,1.725,1.725,0,0,0,.323.13q.213.067.355.1l.414.106.422.11q.434.118.761.237a4.456,4.456,0,0,1,.7.331,2.5,2.5,0,0,1,.611.477,2.127,2.127,0,0,1,.4.67,2.475,2.475,0,0,1,.158.9,2.438,2.438,0,0,1-.272,1.175,2.042,2.042,0,0,1-.745.792,3.627,3.627,0,0,1-1.053.426A5.46,5.46,0,0,1,4.462-6.931Z" transform="translate(617.961 4847.179)" fill="#fff"/>
    <path id="Trazado_187486" data-name="Trazado 187486" d="M9.945-3.789A4.025,4.025,0,0,1,8.59-.9,4.76,4.76,0,0,1,5.367.156,4.28,4.28,0,0,1,1.926-1.316,6.038,6.038,0,0,1,.672-5.359v-.7A6.819,6.819,0,0,1,1.25-8.945,4.332,4.332,0,0,1,2.9-10.863a4.629,4.629,0,0,1,2.5-.668A4.637,4.637,0,0,1,8.57-10.477,4.326,4.326,0,0,1,9.961-7.516H7.617A2.376,2.376,0,0,0,7-9.113a2.271,2.271,0,0,0-1.605-.5,1.991,1.991,0,0,0-1.754.84,4.707,4.707,0,0,0-.6,2.605V-5.3a5.038,5.038,0,0,0,.559,2.7,1.954,1.954,0,0,0,1.762.852,2.314,2.314,0,0,0,1.621-.5A2.241,2.241,0,0,0,7.6-3.789ZM16.234,0a2.507,2.507,0,0,1-.227-.758,2.732,2.732,0,0,1-2.133.914,3,3,0,0,1-2.059-.719A2.312,2.312,0,0,1,11-2.375a2.389,2.389,0,0,1,1-2.062,4.915,4.915,0,0,1,2.879-.727h1.039v-.484a1.393,1.393,0,0,0-.3-.937,1.183,1.183,0,0,0-.949-.352,1.345,1.345,0,0,0-.895.273.929.929,0,0,0-.324.75H11.188a2.268,2.268,0,0,1,.453-1.359,3,3,0,0,1,1.281-.98,4.669,4.669,0,0,1,1.859-.355,3.689,3.689,0,0,1,2.48.785,2.747,2.747,0,0,1,.918,2.207v3.664a4.041,4.041,0,0,0,.336,1.82V0ZM14.367-1.57a1.945,1.945,0,0,0,.922-.223,1.462,1.462,0,0,0,.625-.6V-3.844H15.07q-1.7,0-1.8,1.172l-.008.133a.9.9,0,0,0,.3.7A1.153,1.153,0,0,0,14.367-1.57Zm5.2-2.719a5.094,5.094,0,0,1,.887-3.148,2.877,2.877,0,0,1,2.426-1.172,2.589,2.589,0,0,1,2.039.922V-12H27.18V0H25.141l-.109-.9A2.657,2.657,0,0,1,22.859.156,2.869,2.869,0,0,1,20.465-1.02,5.258,5.258,0,0,1,19.563-4.289Zm2.258.168A3.337,3.337,0,0,0,22.234-2.3a1.349,1.349,0,0,0,1.2.634,1.511,1.511,0,0,0,1.477-.884V-5.889a1.489,1.489,0,0,0-1.461-.884Q21.82-6.773,21.82-4.121ZM33.828,0A2.507,2.507,0,0,1,33.6-.758a2.732,2.732,0,0,1-2.133.914A3,3,0,0,1,29.41-.562a2.312,2.312,0,0,1-.816-1.812,2.389,2.389,0,0,1,1-2.062,4.915,4.915,0,0,1,2.879-.727h1.039v-.484a1.393,1.393,0,0,0-.3-.937,1.183,1.183,0,0,0-.949-.352,1.345,1.345,0,0,0-.895.273.929.929,0,0,0-.324.75H28.781a2.268,2.268,0,0,1,.453-1.359,3,3,0,0,1,1.281-.98,4.669,4.669,0,0,1,1.859-.355,3.689,3.689,0,0,1,2.48.785,2.747,2.747,0,0,1,.918,2.207v3.664a4.041,4.041,0,0,0,.336,1.82V0ZM31.961-1.57a1.945,1.945,0,0,0,.922-.223,1.462,1.462,0,0,0,.625-.6V-3.844h-.844q-1.7,0-1.8,1.172l-.008.133a.9.9,0,0,0,.3.7A1.153,1.153,0,0,0,31.961-1.57ZM46.07-2.336a.727.727,0,0,0-.41-.652,4.659,4.659,0,0,0-1.316-.426q-3.016-.633-3.016-2.562a2.323,2.323,0,0,1,.934-1.879A3.766,3.766,0,0,1,44.7-8.609a4.053,4.053,0,0,1,2.574.758,2.388,2.388,0,0,1,.965,1.969H45.984a1.092,1.092,0,0,0-.312-.8A1.322,1.322,0,0,0,44.7-7a1.351,1.351,0,0,0-.883.258.814.814,0,0,0-.312.656.7.7,0,0,0,.355.605,3.657,3.657,0,0,0,1.2.4,9.8,9.8,0,0,1,1.422.379A2.336,2.336,0,0,1,48.266-2.43a2.2,2.2,0,0,1-.992,1.871,4.28,4.28,0,0,1-2.562.715,4.47,4.47,0,0,1-1.887-.379,3.166,3.166,0,0,1-1.293-1.039,2.414,2.414,0,0,1-.469-1.426H43.2a1.179,1.179,0,0,0,.445.922,1.766,1.766,0,0,0,1.109.32,1.635,1.635,0,0,0,.98-.246A.766.766,0,0,0,46.07-2.336ZM54.781-.859A2.831,2.831,0,0,1,52.469.156a2.67,2.67,0,0,1-2.074-.781,3.335,3.335,0,0,1-.73-2.289V-8.453h2.258v5.467q0,1.322,1.2,1.322a1.63,1.63,0,0,0,1.578-.8V-8.453h2.266V0H54.844ZM66.289-4.148A5.119,5.119,0,0,1,65.422-.98,2.872,2.872,0,0,1,63,.156,2.639,2.639,0,0,1,60.8-.9l-.1.9H58.672V-12H60.93v4.3a2.571,2.571,0,0,1,2.055-.914A2.9,2.9,0,0,1,65.41-7.473a5.126,5.126,0,0,1,.879,3.2Zm-2.258-.164a3.363,3.363,0,0,0-.406-1.871,1.374,1.374,0,0,0-1.211-.59,1.489,1.489,0,0,0-1.484.883v3.336a1.509,1.509,0,0,0,1.5.891,1.394,1.394,0,0,0,1.438-1.078A5.562,5.562,0,0,0,64.031-4.312Zm5.727-4.141.07.977a2.951,2.951,0,0,1,2.43-1.133,2.453,2.453,0,0,1,2,.789,3.682,3.682,0,0,1,.672,2.359V0H72.672V-5.406a1.465,1.465,0,0,0-.312-1.043,1.4,1.4,0,0,0-1.039-.324,1.553,1.553,0,0,0-1.43.813V0H67.633V-8.453ZM79.023,0H76.758V-8.453h2.266Zm-2.4-10.641a1.112,1.112,0,0,1,.34-.836,1.277,1.277,0,0,1,.926-.328,1.28,1.28,0,0,1,.922.328,1.105,1.105,0,0,1,.344.836,1.108,1.108,0,0,1-.348.844,1.283,1.283,0,0,1-.918.328,1.283,1.283,0,0,1-.918-.328A1.108,1.108,0,0,1,76.625-10.641Zm7.422,7.883,1.57-5.7h2.359L85.125,0H82.969L80.117-8.453h2.359ZM92.859.156A4.15,4.15,0,0,1,89.832-.984a4.054,4.054,0,0,1-1.168-3.039v-.219a5.106,5.106,0,0,1,.492-2.277,3.612,3.612,0,0,1,1.395-1.547,3.914,3.914,0,0,1,2.059-.543,3.508,3.508,0,0,1,2.73,1.094,4.444,4.444,0,0,1,1,3.1v.922H90.953a2.1,2.1,0,0,0,.66,1.328,2,2,0,0,0,1.395.5,2.437,2.437,0,0,0,2.039-.945l1.109,1.242A3.389,3.389,0,0,1,94.781-.246,4.511,4.511,0,0,1,92.859.156ZM92.6-6.789a1.411,1.411,0,0,0-1.09.455,2.357,2.357,0,0,0-.535,1.3h3.141v-.181a1.681,1.681,0,0,0-.406-1.165A1.456,1.456,0,0,0,92.6-6.789ZM100,0H97.734V-12H100Zm8.547-10.531v2.078h1.445V-6.8h-1.445v4.219a1.007,1.007,0,0,0,.18.672.9.9,0,0,0,.688.2,3.6,3.6,0,0,0,.664-.055V-.047a4.648,4.648,0,0,1-1.367.2,2.156,2.156,0,0,1-2.422-2.4V-6.8h-1.234V-8.453h1.234v-2.078ZM113.633,0h-2.266V-8.453h2.266Zm-2.4-10.641a1.112,1.112,0,0,1,.34-.836,1.277,1.277,0,0,1,.926-.328,1.28,1.28,0,0,1,.922.328,1.105,1.105,0,0,1,.344.836,1.108,1.108,0,0,1-.348.844,1.283,1.283,0,0,1-.918.328,1.283,1.283,0,0,1-.918-.328A1.108,1.108,0,0,1,111.234-10.641Zm8.148,10.8a4.15,4.15,0,0,1-3.027-1.141,4.054,4.054,0,0,1-1.168-3.039v-.219a5.106,5.106,0,0,1,.492-2.277,3.612,3.612,0,0,1,1.395-1.547,3.914,3.914,0,0,1,2.059-.543,3.508,3.508,0,0,1,2.73,1.094,4.444,4.444,0,0,1,1,3.1v.922h-5.383a2.1,2.1,0,0,0,.66,1.328,2,2,0,0,0,1.395.5,2.437,2.437,0,0,0,2.039-.945l1.109,1.242A3.389,3.389,0,0,1,121.3-.246,4.511,4.511,0,0,1,119.383.156Zm-.258-6.945a1.411,1.411,0,0,0-1.09.455,2.357,2.357,0,0,0-.535,1.3h3.141v-.181a1.681,1.681,0,0,0-.406-1.165A1.456,1.456,0,0,0,119.125-6.789Zm7.094-1.664.07.977a2.951,2.951,0,0,1,2.43-1.133,2.453,2.453,0,0,1,2,.789,3.682,3.682,0,0,1,.672,2.359V0h-2.258V-5.406a1.465,1.465,0,0,0-.312-1.043,1.4,1.4,0,0,0-1.039-.324,1.553,1.553,0,0,0-1.43.813V0h-2.258V-8.453ZM136.992.156a4.15,4.15,0,0,1-3.027-1.141A4.054,4.054,0,0,1,132.8-4.023v-.219a5.106,5.106,0,0,1,.492-2.277,3.612,3.612,0,0,1,1.395-1.547,3.914,3.914,0,0,1,2.059-.543,3.508,3.508,0,0,1,2.73,1.094,4.444,4.444,0,0,1,1,3.1v.922h-5.383a2.1,2.1,0,0,0,.66,1.328,2,2,0,0,0,1.395.5,2.437,2.437,0,0,0,2.039-.945l1.109,1.242a3.389,3.389,0,0,1-1.375,1.121A4.511,4.511,0,0,1,136.992.156Zm-.258-6.945a1.411,1.411,0,0,0-1.09.455,2.357,2.357,0,0,0-.535,1.3h3.141v-.181a1.681,1.681,0,0,0-.406-1.165A1.456,1.456,0,0,0,136.734-6.789ZM149.25-1.664a1.481,1.481,0,0,0,1.016-.344,1.2,1.2,0,0,0,.406-.914h2.117a2.9,2.9,0,0,1-.469,1.574,3.093,3.093,0,0,1-1.262,1.109,3.949,3.949,0,0,1-1.77.395A3.67,3.67,0,0,1,146.43-1a4.56,4.56,0,0,1-1.047-3.184v-.148a4.508,4.508,0,0,1,1.039-3.117,3.627,3.627,0,0,1,2.852-1.164,3.555,3.555,0,0,1,2.543.9,3.2,3.2,0,0,1,.973,2.4h-2.117a1.551,1.551,0,0,0-.406-1.072,1.355,1.355,0,0,0-1.031-.412,1.36,1.36,0,0,0-1.191.575,3.333,3.333,0,0,0-.4,1.866v.235a3.375,3.375,0,0,0,.4,1.878A1.377,1.377,0,0,0,149.25-1.664ZM158.977,0a2.507,2.507,0,0,1-.227-.758,2.732,2.732,0,0,1-2.133.914,3,3,0,0,1-2.059-.719,2.312,2.312,0,0,1-.816-1.812,2.389,2.389,0,0,1,1-2.062,4.915,4.915,0,0,1,2.879-.727h1.039v-.484a1.393,1.393,0,0,0-.3-.937,1.183,1.183,0,0,0-.949-.352,1.345,1.345,0,0,0-.895.273.929.929,0,0,0-.324.75H153.93a2.268,2.268,0,0,1,.453-1.359,3,3,0,0,1,1.281-.98,4.669,4.669,0,0,1,1.859-.355,3.689,3.689,0,0,1,2.48.785,2.747,2.747,0,0,1,.918,2.207v3.664a4.041,4.041,0,0,0,.336,1.82V0Zm-1.867-1.57a1.945,1.945,0,0,0,.922-.223,1.462,1.462,0,0,0,.625-.6V-3.844h-.844q-1.7,0-1.8,1.172L156-2.539a.9.9,0,0,0,.3.7A1.153,1.153,0,0,0,157.109-1.57Zm13.156-2.578a5.07,5.07,0,0,1-.887,3.129A2.843,2.843,0,0,1,166.984.156a2.633,2.633,0,0,1-2.07-.891V3.25h-2.258v-11.7h2.094l.078.828a2.654,2.654,0,0,1,2.141-.984,2.862,2.862,0,0,1,2.43,1.156,5.207,5.207,0,0,1,.867,3.188Zm-2.258-.164a3.327,3.327,0,0,0-.418-1.82,1.361,1.361,0,0,0-1.215-.641,1.479,1.479,0,0,0-1.461.813V-2.5a1.5,1.5,0,0,0,1.477.836Q168.008-1.664,168.008-4.312ZM176.563,0a2.507,2.507,0,0,1-.227-.758A2.732,2.732,0,0,1,174.2.156a3,3,0,0,1-2.059-.719,2.312,2.312,0,0,1-.816-1.812,2.389,2.389,0,0,1,1-2.062,4.915,4.915,0,0,1,2.879-.727h1.039v-.484a1.393,1.393,0,0,0-.3-.937,1.183,1.183,0,0,0-.949-.352,1.345,1.345,0,0,0-.895.273.929.929,0,0,0-.324.75h-2.258a2.268,2.268,0,0,1,.453-1.359,3,3,0,0,1,1.281-.98,4.669,4.669,0,0,1,1.859-.355,3.689,3.689,0,0,1,2.48.785,2.747,2.747,0,0,1,.918,2.207v3.664a4.041,4.041,0,0,0,.336,1.82V0ZM174.7-1.57a1.945,1.945,0,0,0,.922-.223,1.462,1.462,0,0,0,.625-.6V-3.844H175.4q-1.7,0-1.8,1.172l-.008.133a.9.9,0,0,0,.3.7A1.153,1.153,0,0,0,174.7-1.57Zm9.063-.094a1.481,1.481,0,0,0,1.016-.344,1.2,1.2,0,0,0,.406-.914H187.3a2.9,2.9,0,0,1-.469,1.574,3.093,3.093,0,0,1-1.262,1.109,3.949,3.949,0,0,1-1.77.395A3.67,3.67,0,0,1,180.938-1a4.56,4.56,0,0,1-1.047-3.184v-.148a4.508,4.508,0,0,1,1.039-3.117,3.627,3.627,0,0,1,2.852-1.164,3.555,3.555,0,0,1,2.543.9,3.2,3.2,0,0,1,.973,2.4H185.18a1.551,1.551,0,0,0-.406-1.072,1.355,1.355,0,0,0-1.031-.412,1.36,1.36,0,0,0-1.191.575,3.333,3.333,0,0,0-.4,1.866v.235a3.375,3.375,0,0,0,.4,1.878A1.377,1.377,0,0,0,183.758-1.664ZM190.969,0H188.7V-8.453h2.266Zm-2.4-10.641a1.112,1.112,0,0,1,.34-.836,1.277,1.277,0,0,1,.926-.328,1.28,1.28,0,0,1,.922.328,1.105,1.105,0,0,1,.344.836,1.109,1.109,0,0,1-.348.844,1.283,1.283,0,0,1-.918.328,1.283,1.283,0,0,1-.918-.328A1.109,1.109,0,0,1,188.57-10.641Zm3.906,6.352a5.094,5.094,0,0,1,.887-3.148,2.877,2.877,0,0,1,2.426-1.172,2.589,2.589,0,0,1,2.039.922V-12h2.266V0h-2.039l-.109-.9A2.657,2.657,0,0,1,195.773.156a2.869,2.869,0,0,1-2.395-1.176A5.258,5.258,0,0,1,192.477-4.289Zm2.258.168a3.337,3.337,0,0,0,.414,1.823,1.349,1.349,0,0,0,1.2.634,1.511,1.511,0,0,0,1.477-.884V-5.889a1.489,1.489,0,0,0-1.461-.884Q194.734-6.773,194.734-4.121ZM206.742,0a2.507,2.507,0,0,1-.227-.758,2.732,2.732,0,0,1-2.133.914,3,3,0,0,1-2.059-.719,2.312,2.312,0,0,1-.816-1.812,2.389,2.389,0,0,1,1-2.062,4.915,4.915,0,0,1,2.879-.727h1.039v-.484a1.393,1.393,0,0,0-.3-.937,1.183,1.183,0,0,0-.949-.352,1.345,1.345,0,0,0-.895.273.929.929,0,0,0-.324.75H201.7a2.268,2.268,0,0,1,.453-1.359,3,3,0,0,1,1.281-.98,4.669,4.669,0,0,1,1.859-.355,3.689,3.689,0,0,1,2.48.785,2.747,2.747,0,0,1,.918,2.207v3.664a4.041,4.041,0,0,0,.336,1.82V0Zm-1.867-1.57a1.945,1.945,0,0,0,.922-.223,1.462,1.462,0,0,0,.625-.6V-3.844h-.844q-1.7,0-1.8,1.172l-.008.133a.9.9,0,0,0,.3.7A1.153,1.153,0,0,0,204.875-1.57Zm5.2-2.719a5.094,5.094,0,0,1,.887-3.148,2.877,2.877,0,0,1,2.426-1.172,2.589,2.589,0,0,1,2.039.922V-12h2.266V0h-2.039l-.109-.9A2.657,2.657,0,0,1,213.367.156a2.869,2.869,0,0,1-2.395-1.176A5.258,5.258,0,0,1,210.07-4.289Zm2.258.168a3.337,3.337,0,0,0,.414,1.823,1.349,1.349,0,0,0,1.2.634,1.511,1.511,0,0,0,1.477-.884V-5.889a1.489,1.489,0,0,0-1.461-.884Q212.328-6.773,212.328-4.121Zm10.742-.168a5.094,5.094,0,0,1,.887-3.148,2.877,2.877,0,0,1,2.426-1.172,2.589,2.589,0,0,1,2.039.922V-12h2.266V0h-2.039l-.109-.9A2.657,2.657,0,0,1,226.367.156a2.869,2.869,0,0,1-2.395-1.176A5.258,5.258,0,0,1,223.07-4.289Zm2.258.168a3.337,3.337,0,0,0,.414,1.823,1.349,1.349,0,0,0,1.2.634,1.511,1.511,0,0,0,1.477-.884V-5.889a1.489,1.489,0,0,0-1.461-.884Q225.328-6.773,225.328-4.121ZM234.82,0h-2.266V-8.453h2.266Zm-2.4-10.641a1.112,1.112,0,0,1,.34-.836,1.277,1.277,0,0,1,.926-.328,1.28,1.28,0,0,1,.922.328,1.105,1.105,0,0,1,.344.836,1.109,1.109,0,0,1-.348.844,1.283,1.283,0,0,1-.918.328,1.283,1.283,0,0,1-.918-.328A1.109,1.109,0,0,1,232.422-10.641ZM237.3,0V-6.8h-1.258V-8.453H237.3v-.719a2.918,2.918,0,0,1,.816-2.207,3.162,3.162,0,0,1,2.285-.785,5.278,5.278,0,0,1,1.148.156l-.023,1.75a2.878,2.878,0,0,0-.687-.07q-1.273,0-1.273,1.2v.68h1.68V-6.8h-1.68V0ZM246.3.156a4.15,4.15,0,0,1-3.027-1.141,4.054,4.054,0,0,1-1.168-3.039v-.219A5.106,5.106,0,0,1,242.6-6.52,3.612,3.612,0,0,1,244-8.066a3.914,3.914,0,0,1,2.059-.543,3.508,3.508,0,0,1,2.73,1.094,4.444,4.444,0,0,1,1,3.1v.922H244.4a2.1,2.1,0,0,0,.66,1.328,2,2,0,0,0,1.395.5,2.437,2.437,0,0,0,2.039-.945L249.6-1.367a3.389,3.389,0,0,1-1.375,1.121A4.511,4.511,0,0,1,246.3.156Zm-.258-6.945a1.411,1.411,0,0,0-1.09.455,2.357,2.357,0,0,0-.535,1.3h3.141v-.181a1.681,1.681,0,0,0-.406-1.165A1.456,1.456,0,0,0,246.047-6.789Zm9.766.453A6.134,6.134,0,0,0,255-6.4a1.654,1.654,0,0,0-1.68.867V0h-2.258V-8.453H253.2l.063,1.008a2.092,2.092,0,0,1,1.883-1.164,2.366,2.366,0,0,1,.7.1ZM260.789.156a4.15,4.15,0,0,1-3.027-1.141,4.054,4.054,0,0,1-1.168-3.039v-.219a5.106,5.106,0,0,1,.492-2.277,3.612,3.612,0,0,1,1.395-1.547,3.914,3.914,0,0,1,2.059-.543,3.508,3.508,0,0,1,2.73,1.094,4.444,4.444,0,0,1,1,3.1v.922h-5.383a2.1,2.1,0,0,0,.66,1.328,2,2,0,0,0,1.395.5,2.437,2.437,0,0,0,2.039-.945l1.109,1.242a3.389,3.389,0,0,1-1.375,1.121A4.511,4.511,0,0,1,260.789.156Zm-.258-6.945a1.411,1.411,0,0,0-1.09.455,2.357,2.357,0,0,0-.535,1.3h3.141v-.181a1.681,1.681,0,0,0-.406-1.165A1.456,1.456,0,0,0,260.531-6.789Zm7.094-1.664.07.977a2.951,2.951,0,0,1,2.43-1.133,2.453,2.453,0,0,1,2,.789,3.681,3.681,0,0,1,.672,2.359V0h-2.258V-5.406a1.465,1.465,0,0,0-.312-1.043,1.4,1.4,0,0,0-1.039-.324,1.553,1.553,0,0,0-1.43.813V0H265.5V-8.453Zm9.586-2.078v2.078h1.445V-6.8h-1.445v4.219a1.007,1.007,0,0,0,.18.672.9.9,0,0,0,.688.2,3.6,3.6,0,0,0,.664-.055V-.047a4.648,4.648,0,0,1-1.367.2,2.156,2.156,0,0,1-2.422-2.4V-6.8h-1.234V-8.453h1.234v-2.078ZM283.8.156a4.15,4.15,0,0,1-3.027-1.141,4.054,4.054,0,0,1-1.168-3.039v-.219A5.106,5.106,0,0,1,280.1-6.52,3.612,3.612,0,0,1,281.5-8.066a3.914,3.914,0,0,1,2.059-.543,3.508,3.508,0,0,1,2.73,1.094,4.444,4.444,0,0,1,1,3.1v.922H281.9a2.1,2.1,0,0,0,.66,1.328,2,2,0,0,0,1.395.5,2.437,2.437,0,0,0,2.039-.945L287.1-1.367a3.389,3.389,0,0,1-1.375,1.121A4.511,4.511,0,0,1,283.8.156Zm-.258-6.945a1.411,1.411,0,0,0-1.09.455,2.357,2.357,0,0,0-.535,1.3h3.141v-.181a1.681,1.681,0,0,0-.406-1.165A1.456,1.456,0,0,0,283.547-6.789ZM297.445,0a2.508,2.508,0,0,1-.227-.758,2.732,2.732,0,0,1-2.133.914,3,3,0,0,1-2.059-.719,2.312,2.312,0,0,1-.816-1.812,2.389,2.389,0,0,1,1-2.062,4.915,4.915,0,0,1,2.879-.727h1.039v-.484a1.393,1.393,0,0,0-.3-.937,1.183,1.183,0,0,0-.949-.352,1.345,1.345,0,0,0-.895.273.929.929,0,0,0-.324.75H292.4a2.268,2.268,0,0,1,.453-1.359,3,3,0,0,1,1.281-.98,4.669,4.669,0,0,1,1.859-.355,3.689,3.689,0,0,1,2.48.785,2.747,2.747,0,0,1,.918,2.207v3.664a4.041,4.041,0,0,0,.336,1.82V0Zm-1.867-1.57a1.945,1.945,0,0,0,.922-.223,1.462,1.462,0,0,0,.625-.6V-3.844h-.844q-1.7,0-1.8,1.172l-.008.133a.9.9,0,0,0,.3.7A1.153,1.153,0,0,0,295.578-1.57ZM305.7-2.336a.727.727,0,0,0-.41-.652,4.659,4.659,0,0,0-1.316-.426q-3.016-.633-3.016-2.562a2.323,2.323,0,0,1,.934-1.879,3.766,3.766,0,0,1,2.441-.754,4.053,4.053,0,0,1,2.574.758,2.388,2.388,0,0,1,.965,1.969h-2.258a1.092,1.092,0,0,0-.312-.8A1.322,1.322,0,0,0,304.328-7a1.351,1.351,0,0,0-.883.258.814.814,0,0,0-.312.656.7.7,0,0,0,.355.605,3.657,3.657,0,0,0,1.2.4,9.8,9.8,0,0,1,1.422.379A2.336,2.336,0,0,1,307.9-2.43a2.2,2.2,0,0,1-.992,1.871,4.28,4.28,0,0,1-2.562.715,4.47,4.47,0,0,1-1.887-.379,3.166,3.166,0,0,1-1.293-1.039,2.414,2.414,0,0,1-.469-1.426h2.141a1.179,1.179,0,0,0,.445.922,1.766,1.766,0,0,0,1.109.32,1.635,1.635,0,0,0,.98-.246A.766.766,0,0,0,305.7-2.336ZM311.789,0h-2.258V-8.453h2.258Zm-.664-11.883h2.461l-2.164,2.422h-1.836Zm2.719,10.773a1.137,1.137,0,0,1,.363-.875,1.289,1.289,0,0,1,.91-.336,1.3,1.3,0,0,1,.918.336,1.137,1.137,0,0,1,.363.875,1.121,1.121,0,0,1-.359.863,1.305,1.305,0,0,1-.922.332,1.294,1.294,0,0,1-.914-.332A1.121,1.121,0,0,1,313.844-1.109Zm0-6.4a1.137,1.137,0,0,1,.363-.875,1.289,1.289,0,0,1,.91-.336,1.3,1.3,0,0,1,.918.336,1.137,1.137,0,0,1,.363.875,1.121,1.121,0,0,1-.359.863,1.305,1.305,0,0,1-.922.332,1.294,1.294,0,0,1-.914-.332A1.121,1.121,0,0,1,313.844-7.508Z" transform="translate(737 4665)" fill="#12263f"/>
    <g id="Trazado_33620" data-name="Trazado 33620" transform="translate(740 4679)" fill="#2daae1">
      <path d="M 36.69100952148438 71.88201904296875 C 31.93959808349609 71.88201904296875 27.33109855651855 70.95178985595703 22.99354362487793 69.11715698242188 C 18.80319786071777 67.34478759765625 15.03957653045654 64.80717468261719 11.80720996856689 61.57481002807617 C 8.57484245300293 58.34244155883789 6.037231922149658 54.57881927490234 4.264864921569824 50.38847732543945 C 2.430231809616089 46.05092239379883 1.499998450279236 41.44243240356445 1.499998450279236 36.69100952148438 C 1.499998450279236 31.93959808349609 2.430231809616089 27.33109855651855 4.264864921569824 22.99354362487793 C 6.037231922149658 18.80319786071777 8.57484245300293 15.03957653045654 11.80720996856689 11.80720996856689 C 15.03957653045654 8.57484245300293 18.80319786071777 6.037231922149658 22.99354362487793 4.264864921569824 C 27.33109855651855 2.430231809616089 31.93959808349609 1.499998450279236 36.69100952148438 1.499998450279236 C 41.44243240356445 1.499998450279236 46.05092239379883 2.430231809616089 50.38847732543945 4.264864921569824 C 54.57881927490234 6.037231922149658 58.34244155883789 8.57484245300293 61.57481002807617 11.80720996856689 C 64.80717468261719 15.03957653045654 67.34478759765625 18.80319786071777 69.11715698242188 22.99354362487793 C 70.95178985595703 27.33109855651855 71.88201904296875 31.93959808349609 71.88201904296875 36.69100952148438 C 71.88201904296875 41.44243240356445 70.95178985595703 46.05092239379883 69.11715698242188 50.38847732543945 C 67.34478759765625 54.57881927490234 64.80717468261719 58.34244155883789 61.57481002807617 61.57481002807617 C 58.34244155883789 64.80717468261719 54.57881927490234 67.34478759765625 50.38847732543945 69.11715698242188 C 46.05092239379883 70.95178985595703 41.44243240356445 71.88201904296875 36.69100952148438 71.88201904296875 Z" stroke="none"/>
      <path d="M 36.69100952148438 3 C 32.14143371582031 3 27.72953796386719 3.890365600585938 23.5778694152832 5.646377563476562 C 19.56632614135742 7.343116760253906 15.96296310424805 9.772773742675781 12.86786651611328 12.86786651611328 C 9.772773742675781 15.96296310424805 7.343116760253906 19.56632614135742 5.646377563476562 23.5778694152832 C 3.890365600585938 27.72953796386719 3 32.14143371582031 3 36.69100952148438 C 3 41.24058532714844 3.890365600585938 45.65248107910156 5.646377563476562 49.80415344238281 C 7.343116760253906 53.81568908691406 9.772773742675781 57.4190559387207 12.86786651611328 60.51415252685547 C 15.96296310424805 63.60924530029297 19.56632614135742 66.03890228271484 23.5778694152832 67.73564147949219 C 27.72953796386719 69.49165344238281 32.14143371582031 70.38201904296875 36.69100952148438 70.38201904296875 C 41.24058532714844 70.38201904296875 45.65248107910156 69.49165344238281 49.80415344238281 67.73564147949219 C 53.81568908691406 66.03890228271484 57.4190559387207 63.60924530029297 60.51415252685547 60.51415252685547 C 63.60924530029297 57.4190559387207 66.03890228271484 53.81568908691406 67.73564147949219 49.80415344238281 C 69.49165344238281 45.65248107910156 70.38201904296875 41.24058532714844 70.38201904296875 36.69100952148438 C 70.38201904296875 32.14143371582031 69.49165344238281 27.72953796386719 67.73564147949219 23.5778694152832 C 66.03890228271484 19.56632614135742 63.60924530029297 15.96296310424805 60.51415252685547 12.86786651611328 C 57.4190559387207 9.772773742675781 53.81568908691406 7.343116760253906 49.80415344238281 5.646377563476562 C 45.65248107910156 3.890365600585938 41.24058532714844 3 36.69100952148438 3 M 36.69100952148438 0 C 56.95489120483398 0 73.38201904296875 16.42712783813477 73.38201904296875 36.69100952148438 C 73.38201904296875 56.95489120483398 56.95489120483398 73.38201904296875 36.69100952148438 73.38201904296875 C 16.42712783813477 73.38201904296875 0 56.95489120483398 0 36.69100952148438 C 0 16.42712783813477 16.42712783813477 0 36.69100952148438 0 Z" stroke="none" fill="#082143"/>
    </g>
    <path id="Trazado_33624" data-name="Trazado 33624" d="M7.551-20.145H7.49q-.287,0-.435.005t-.42.036a1.7,1.7,0,0,0-.425.092,2.165,2.165,0,0,0-.353.189.942.942,0,0,0-.307.307,1.856,1.856,0,0,0-.184.456,2.378,2.378,0,0,0-.077.635V-17.3H7.551v2.262H5.289v8.262H2.351v-8.262H.293V-17.3H2.351v-1.136a6.155,6.155,0,0,1,.133-1.341A4.081,4.081,0,0,1,2.842-20.8a2.384,2.384,0,0,1,.6-.732,3.534,3.534,0,0,1,.778-.491,4.446,4.446,0,0,1,.967-.3A8.485,8.485,0,0,1,6.3-22.464q.548-.036,1.254-.036Zm2.437,5.037v-2.242h9.04v2.242Zm0,4.494v-2.242h9.04v2.242ZM27.166-21.568h2.805V-6.775H27.033V-18.538l-3.4,3.163v-3.03Zm18.653,9.357V-9.58H44.038v2.805H41.089V-9.58H34.281v-2.641l5.242-9.347h4.515v9.357Zm-8.8,0h4.075V-19.8Zm20.762.02-.031.706h-7.8a2.725,2.725,0,0,0,.839,1.925,2.685,2.685,0,0,0,1.853.665,2.587,2.587,0,0,0,1.387-.363,2.234,2.234,0,0,0,.886-1.06l2.7.4A4.6,4.6,0,0,1,55.77-7.451a5.479,5.479,0,0,1-3.112.88,5.7,5.7,0,0,1-4.1-1.449,5.286,5.286,0,0,1-1.52-4.018,5.317,5.317,0,0,1,1.525-4.018,5.528,5.528,0,0,1,4-1.469,5.283,5.283,0,0,1,3.778,1.341A5.261,5.261,0,0,1,57.776-12.191Zm-5.19-3.245a2.33,2.33,0,0,0-2.559,2.027h4.832a2.216,2.216,0,0,0-.727-1.5A2.3,2.3,0,0,0,52.586-15.436Z" transform="translate(749.696 4729.805)" fill="#fff"/>
    <g id="Trazado_33621" data-name="Trazado 33621" transform="translate(818.973 4679)" fill="#3bab36">
      <path d="M 36.69100952148438 71.88201904296875 C 31.93959808349609 71.88201904296875 27.33109855651855 70.95178985595703 22.99354362487793 69.11715698242188 C 18.80319786071777 67.34478759765625 15.03957653045654 64.80717468261719 11.80720996856689 61.57481002807617 C 8.57484245300293 58.34244155883789 6.037231922149658 54.57881927490234 4.264864921569824 50.38847732543945 C 2.430231809616089 46.05092239379883 1.499998450279236 41.44243240356445 1.499998450279236 36.69100952148438 C 1.499998450279236 31.93959808349609 2.430231809616089 27.33109855651855 4.264864921569824 22.99354362487793 C 6.037231922149658 18.80319786071777 8.57484245300293 15.03957653045654 11.80720996856689 11.80720996856689 C 15.03957653045654 8.57484245300293 18.80319786071777 6.037231922149658 22.99354362487793 4.264864921569824 C 27.33109855651855 2.430231809616089 31.93959808349609 1.499998450279236 36.69100952148438 1.499998450279236 C 41.44243240356445 1.499998450279236 46.05092239379883 2.430231809616089 50.38847732543945 4.264864921569824 C 54.57881927490234 6.037231922149658 58.34244155883789 8.57484245300293 61.57481002807617 11.80720996856689 C 64.80717468261719 15.03957653045654 67.34478759765625 18.80319786071777 69.11715698242188 22.99354362487793 C 70.95178985595703 27.33109855651855 71.88201904296875 31.93959808349609 71.88201904296875 36.69100952148438 C 71.88201904296875 41.44243240356445 70.95178985595703 46.05092239379883 69.11715698242188 50.38847732543945 C 67.34478759765625 54.57881927490234 64.80717468261719 58.34244155883789 61.57481002807617 61.57481002807617 C 58.34244155883789 64.80717468261719 54.57881927490234 67.34478759765625 50.38847732543945 69.11715698242188 C 46.05092239379883 70.95178985595703 41.44243240356445 71.88201904296875 36.69100952148438 71.88201904296875 Z" stroke="none"/>
      <path d="M 36.69100952148438 3 C 32.14143371582031 3 27.72953796386719 3.890365600585938 23.5778694152832 5.646377563476562 C 19.56632614135742 7.343116760253906 15.96296310424805 9.772773742675781 12.86786651611328 12.86786651611328 C 9.772773742675781 15.96296310424805 7.343116760253906 19.56632614135742 5.646377563476562 23.5778694152832 C 3.890365600585938 27.72953796386719 3 32.14143371582031 3 36.69100952148438 C 3 41.24058532714844 3.890365600585938 45.65248107910156 5.646377563476562 49.80415344238281 C 7.343116760253906 53.81568908691406 9.772773742675781 57.4190559387207 12.86786651611328 60.51415252685547 C 15.96296310424805 63.60924530029297 19.56632614135742 66.03890228271484 23.5778694152832 67.73564147949219 C 27.72953796386719 69.49165344238281 32.14143371582031 70.38201904296875 36.69100952148438 70.38201904296875 C 41.24058532714844 70.38201904296875 45.65248107910156 69.49165344238281 49.80415344238281 67.73564147949219 C 53.81568908691406 66.03890228271484 57.4190559387207 63.60924530029297 60.51415252685547 60.51415252685547 C 63.60924530029297 57.4190559387207 66.03890228271484 53.81568908691406 67.73564147949219 49.80415344238281 C 69.49165344238281 45.65248107910156 70.38201904296875 41.24058532714844 70.38201904296875 36.69100952148438 C 70.38201904296875 32.14143371582031 69.49165344238281 27.72953796386719 67.73564147949219 23.5778694152832 C 66.03890228271484 19.56632614135742 63.60924530029297 15.96296310424805 60.51415252685547 12.86786651611328 C 57.4190559387207 9.772773742675781 53.81568908691406 7.343116760253906 49.80415344238281 5.646377563476562 C 45.65248107910156 3.890365600585938 41.24058532714844 3 36.69100952148438 3 M 36.69100952148438 0 C 56.95489120483398 0 73.38201904296875 16.42712783813477 73.38201904296875 36.69100952148438 C 73.38201904296875 56.95489120483398 56.95489120483398 73.38201904296875 36.69100952148438 73.38201904296875 C 16.42712783813477 73.38201904296875 0 56.95489120483398 0 36.69100952148438 C 0 16.42712783813477 16.42712783813477 0 36.69100952148438 0 Z" stroke="none" fill="#082143"/>
    </g>
    <path id="Trazado_33625" data-name="Trazado 33625" d="M9.288-22.5h2.948V-6.775H9.442L9.37-8.147A3.005,3.005,0,0,1,8.034-6.954a4.5,4.5,0,0,1-1.971.425A5.118,5.118,0,0,1,4.1-6.908a4.879,4.879,0,0,1-1.612-1.07A4.876,4.876,0,0,1,1.4-9.713a6.4,6.4,0,0,1-.4-2.3,5.983,5.983,0,0,1,.7-2.933A4.77,4.77,0,0,1,3.53-16.859,5.061,5.061,0,0,1,6.064-17.5a4.609,4.609,0,0,1,1.909.384,2.981,2.981,0,0,1,1.316,1.09ZM6.739-8.976A2.625,2.625,0,0,0,8.73-9.816a3.073,3.073,0,0,0,.793-2.2,3.08,3.08,0,0,0-.8-2.206,2.622,2.622,0,0,0-1.986-.845,2.653,2.653,0,0,0-2,.829,3.079,3.079,0,0,0-.793,2.222,3.065,3.065,0,0,0,.793,2.211A2.653,2.653,0,0,0,6.739-8.976Zm9.316-6.132v-2.242H25.1v2.242Zm0,4.494v-2.242H25.1v2.242ZM33.234-21.568h2.805V-6.775H33.1V-18.538l-3.4,3.163v-3.03Zm12.94,15A4.614,4.614,0,0,1,42.2-8.485a9.671,9.671,0,0,1-1.387-5.692,9.67,9.67,0,0,1,1.382-5.692,4.619,4.619,0,0,1,3.982-1.9,4.609,4.609,0,0,1,3.972,1.9,9.67,9.67,0,0,1,1.382,5.692,9.671,9.671,0,0,1-1.387,5.692A4.6,4.6,0,0,1,46.174-6.571Zm0-2.662a1.945,1.945,0,0,0,1.776-1.213,8.446,8.446,0,0,0,.63-3.732,8.386,8.386,0,0,0-.635-3.732,1.949,1.949,0,0,0-1.771-1.213q-2.416,0-2.416,4.945T46.174-9.232Zm17.67-2.959-.031.706h-7.8a2.725,2.725,0,0,0,.839,1.925,2.685,2.685,0,0,0,1.853.665,2.587,2.587,0,0,0,1.387-.363,2.234,2.234,0,0,0,.886-1.06l2.7.4a4.6,4.6,0,0,1-1.843,2.467,5.479,5.479,0,0,1-3.112.88,5.7,5.7,0,0,1-4.1-1.449,5.286,5.286,0,0,1-1.52-4.018,5.317,5.317,0,0,1,1.525-4.018,5.528,5.528,0,0,1,4-1.469,5.283,5.283,0,0,1,3.778,1.341A5.261,5.261,0,0,1,63.844-12.191Zm-5.19-3.245a2.33,2.33,0,0,0-2.559,2.027h4.832a2.216,2.216,0,0,0-.727-1.5A2.3,2.3,0,0,0,58.653-15.436Z" transform="translate(824.264 4729.805)" fill="#fff"/>
    <g id="Trazado_33622" data-name="Trazado 33622" transform="translate(899.344 4679)" fill="#f39325">
      <path d="M 36.69100952148438 71.88201904296875 C 31.93959808349609 71.88201904296875 27.33109855651855 70.95178985595703 22.99354362487793 69.11715698242188 C 18.80319786071777 67.34478759765625 15.03957653045654 64.80717468261719 11.80720996856689 61.57481002807617 C 8.57484245300293 58.34244155883789 6.037231922149658 54.57881927490234 4.264864921569824 50.38847732543945 C 2.430231809616089 46.05092239379883 1.499998450279236 41.44243240356445 1.499998450279236 36.69100952148438 C 1.499998450279236 31.93959808349609 2.430231809616089 27.33109855651855 4.264864921569824 22.99354362487793 C 6.037231922149658 18.80319786071777 8.57484245300293 15.03957653045654 11.80720996856689 11.80720996856689 C 15.03957653045654 8.57484245300293 18.80319786071777 6.037231922149658 22.99354362487793 4.264864921569824 C 27.33109855651855 2.430231809616089 31.93959808349609 1.499998450279236 36.69100952148438 1.499998450279236 C 41.44243240356445 1.499998450279236 46.05092239379883 2.430231809616089 50.38847732543945 4.264864921569824 C 54.57881927490234 6.037231922149658 58.34244155883789 8.57484245300293 61.57481002807617 11.80720996856689 C 64.80717468261719 15.03957653045654 67.34478759765625 18.80319786071777 69.11715698242188 22.99354362487793 C 70.95178985595703 27.33109855651855 71.88201904296875 31.93959808349609 71.88201904296875 36.69100952148438 C 71.88201904296875 41.44243240356445 70.95178985595703 46.05092239379883 69.11715698242188 50.38847732543945 C 67.34478759765625 54.57881927490234 64.80717468261719 58.34244155883789 61.57481002807617 61.57481002807617 C 58.34244155883789 64.80717468261719 54.57881927490234 67.34478759765625 50.38847732543945 69.11715698242188 C 46.05092239379883 70.95178985595703 41.44243240356445 71.88201904296875 36.69100952148438 71.88201904296875 Z" stroke="none"/>
      <path d="M 36.69100952148438 3 C 32.14143371582031 3 27.72953796386719 3.890365600585938 23.5778694152832 5.646377563476562 C 19.56632614135742 7.343116760253906 15.96296310424805 9.772773742675781 12.86786651611328 12.86786651611328 C 9.772773742675781 15.96296310424805 7.343116760253906 19.56632614135742 5.646377563476562 23.5778694152832 C 3.890365600585938 27.72953796386719 3 32.14143371582031 3 36.69100952148438 C 3 41.24058532714844 3.890365600585938 45.65248107910156 5.646377563476562 49.80415344238281 C 7.343116760253906 53.81568908691406 9.772773742675781 57.4190559387207 12.86786651611328 60.51415252685547 C 15.96296310424805 63.60924530029297 19.56632614135742 66.03890228271484 23.5778694152832 67.73564147949219 C 27.72953796386719 69.49165344238281 32.14143371582031 70.38201904296875 36.69100952148438 70.38201904296875 C 41.24058532714844 70.38201904296875 45.65248107910156 69.49165344238281 49.80415344238281 67.73564147949219 C 53.81568908691406 66.03890228271484 57.4190559387207 63.60924530029297 60.51415252685547 60.51415252685547 C 63.60924530029297 57.4190559387207 66.03890228271484 53.81568908691406 67.73564147949219 49.80415344238281 C 69.49165344238281 45.65248107910156 70.38201904296875 41.24058532714844 70.38201904296875 36.69100952148438 C 70.38201904296875 32.14143371582031 69.49165344238281 27.72953796386719 67.73564147949219 23.5778694152832 C 66.03890228271484 19.56632614135742 63.60924530029297 15.96296310424805 60.51415252685547 12.86786651611328 C 57.4190559387207 9.772773742675781 53.81568908691406 7.343116760253906 49.80415344238281 5.646377563476562 C 45.65248107910156 3.890365600585938 41.24058532714844 3 36.69100952148438 3 M 36.69100952148438 0 C 56.95489120483398 0 73.38201904296875 16.42712783813477 73.38201904296875 36.69100952148438 C 73.38201904296875 56.95489120483398 56.95489120483398 73.38201904296875 36.69100952148438 73.38201904296875 C 16.42712783813477 73.38201904296875 0 56.95489120483398 0 36.69100952148438 C 0 16.42712783813477 16.42712783813477 0 36.69100952148438 0 Z" stroke="none" fill="#082143"/>
    </g>
    <path id="Trazado_33626" data-name="Trazado 33626" d="M8.356-17.1a5.118,5.118,0,0,1,1.966.379,4.919,4.919,0,0,1,1.612,1.065,4.817,4.817,0,0,1,1.09,1.735,6.443,6.443,0,0,1,.4,2.309,6.443,6.443,0,0,1-.4,2.309,4.817,4.817,0,0,1-1.09,1.735,4.919,4.919,0,0,1-1.612,1.065,5.118,5.118,0,0,1-1.966.379,4.567,4.567,0,0,1-1.9-.389A2.984,2.984,0,0,1,5.131-7.623v6.368H2.183V-16.9H4.977l.082,1.413a2.882,2.882,0,0,1,1.316-1.193A4.521,4.521,0,0,1,8.356-17.1ZM7.69-8.575A2.649,2.649,0,0,0,9.682-9.4a3.061,3.061,0,0,0,.793-2.216,3.061,3.061,0,0,0-.793-2.216,2.649,2.649,0,0,0-1.991-.824,2.653,2.653,0,0,0-2.007.839,3.062,3.062,0,0,0-.8,2.2,3.062,3.062,0,0,0,.8,2.2A2.653,2.653,0,0,0,7.69-8.575Zm8.722-6.132v-2.242h9.04v2.242Zm0,4.494v-2.242h9.04v2.242Zm23.024-1.126A4.823,4.823,0,0,1,39-9.261a4.9,4.9,0,0,1-1.2,1.643,5.64,5.64,0,0,1-1.756,1.054,5.822,5.822,0,0,1-2.1.384,5.811,5.811,0,0,1-2.135-.394,5.256,5.256,0,0,1-1.73-1.08A5.018,5.018,0,0,1,28.943-9.3a5,5,0,0,1-.42-2.032,6.148,6.148,0,0,1,1.31-3.614l4.607-6.224h3.348l-3.839,5.006a4.988,4.988,0,0,1,.676-.041,4.823,4.823,0,0,1,1.817.348,4.921,4.921,0,0,1,1.53.967,4.476,4.476,0,0,1,1.06,1.541A5.175,5.175,0,0,1,39.437-11.339Zm-2.887-.072a2.527,2.527,0,0,0-.717-1.909,2.606,2.606,0,0,0-1.935-.742,2.5,2.5,0,0,0-1.873.747,2.64,2.64,0,0,0-.747,1.863,2.532,2.532,0,0,0,.686,1.9,2.543,2.543,0,0,0,1.9.722,2.666,2.666,0,0,0,1.925-.717A2.5,2.5,0,0,0,36.55-11.411Zm15.131-.379-.031.706h-7.8a2.725,2.725,0,0,0,.839,1.925,2.685,2.685,0,0,0,1.853.665,2.587,2.587,0,0,0,1.387-.363,2.234,2.234,0,0,0,.886-1.06l2.7.4A4.6,4.6,0,0,1,49.674-7.05a5.479,5.479,0,0,1-3.112.88,5.7,5.7,0,0,1-4.1-1.449,5.286,5.286,0,0,1-1.52-4.018,5.317,5.317,0,0,1,1.525-4.018,5.528,5.528,0,0,1,4-1.469,5.283,5.283,0,0,1,3.778,1.341A5.261,5.261,0,0,1,51.681-11.789Zm-5.19-3.245a2.33,2.33,0,0,0-2.559,2.027h4.832a2.216,2.216,0,0,0-.727-1.5A2.3,2.3,0,0,0,46.49-15.035Z" transform="translate(909.17 4729.403)" fill="#fff"/>
    <g id="Trazado_33623" data-name="Trazado 33623" transform="translate(977.618 4679)" fill="#e7137e">
      <path d="M 36.69100952148438 71.88201904296875 C 31.93959808349609 71.88201904296875 27.33109855651855 70.95178985595703 22.99354362487793 69.11715698242188 C 18.80319786071777 67.34478759765625 15.03957653045654 64.80717468261719 11.80720996856689 61.57481002807617 C 8.57484245300293 58.34244155883789 6.037231922149658 54.57881927490234 4.264864921569824 50.38847732543945 C 2.430231809616089 46.05092239379883 1.499998450279236 41.44243240356445 1.499998450279236 36.69100952148438 C 1.499998450279236 31.93959808349609 2.430231809616089 27.33109855651855 4.264864921569824 22.99354362487793 C 6.037231922149658 18.80319786071777 8.57484245300293 15.03957653045654 11.80720996856689 11.80720996856689 C 15.03957653045654 8.57484245300293 18.80319786071777 6.037231922149658 22.99354362487793 4.264864921569824 C 27.33109855651855 2.430231809616089 31.93959808349609 1.499998450279236 36.69100952148438 1.499998450279236 C 41.44243240356445 1.499998450279236 46.05092239379883 2.430231809616089 50.38847732543945 4.264864921569824 C 54.57881927490234 6.037231922149658 58.34244155883789 8.57484245300293 61.57481002807617 11.80720996856689 C 64.80717468261719 15.03957653045654 67.34478759765625 18.80319786071777 69.11715698242188 22.99354362487793 C 70.95178985595703 27.33109855651855 71.88201904296875 31.93959808349609 71.88201904296875 36.69100952148438 C 71.88201904296875 41.44243240356445 70.95178985595703 46.05092239379883 69.11715698242188 50.38847732543945 C 67.34478759765625 54.57881927490234 64.80717468261719 58.34244155883789 61.57481002807617 61.57481002807617 C 58.34244155883789 64.80717468261719 54.57881927490234 67.34478759765625 50.38847732543945 69.11715698242188 C 46.05092239379883 70.95178985595703 41.44243240356445 71.88201904296875 36.69100952148438 71.88201904296875 Z" stroke="none"/>
      <path d="M 36.69100952148438 3 C 32.14143371582031 3 27.72953796386719 3.890365600585938 23.5778694152832 5.646377563476562 C 19.56632614135742 7.343116760253906 15.96296310424805 9.772773742675781 12.86786651611328 12.86786651611328 C 9.772773742675781 15.96296310424805 7.343116760253906 19.56632614135742 5.646377563476562 23.5778694152832 C 3.890365600585938 27.72953796386719 3 32.14143371582031 3 36.69100952148438 C 3 41.24058532714844 3.890365600585938 45.65248107910156 5.646377563476562 49.80415344238281 C 7.343116760253906 53.81568908691406 9.772773742675781 57.4190559387207 12.86786651611328 60.51415252685547 C 15.96296310424805 63.60924530029297 19.56632614135742 66.03890228271484 23.5778694152832 67.73564147949219 C 27.72953796386719 69.49165344238281 32.14143371582031 70.38201904296875 36.69100952148438 70.38201904296875 C 41.24058532714844 70.38201904296875 45.65248107910156 69.49165344238281 49.80415344238281 67.73564147949219 C 53.81568908691406 66.03890228271484 57.4190559387207 63.60924530029297 60.51415252685547 60.51415252685547 C 63.60924530029297 57.4190559387207 66.03890228271484 53.81568908691406 67.73564147949219 49.80415344238281 C 69.49165344238281 45.65248107910156 70.38201904296875 41.24058532714844 70.38201904296875 36.69100952148438 C 70.38201904296875 32.14143371582031 69.49165344238281 27.72953796386719 67.73564147949219 23.5778694152832 C 66.03890228271484 19.56632614135742 63.60924530029297 15.96296310424805 60.51415252685547 12.86786651611328 C 57.4190559387207 9.772773742675781 53.81568908691406 7.343116760253906 49.80415344238281 5.646377563476562 C 45.65248107910156 3.890365600585938 41.24058532714844 3 36.69100952148438 3 M 36.69100952148438 0 C 56.95489120483398 0 73.38201904296875 16.42712783813477 73.38201904296875 36.69100952148438 C 73.38201904296875 56.95489120483398 56.95489120483398 73.38201904296875 36.69100952148438 73.38201904296875 C 16.42712783813477 73.38201904296875 0 56.95489120483398 0 36.69100952148438 C 0 16.42712783813477 16.42712783813477 0 36.69100952148438 0 Z" stroke="none" fill="#082143"/>
    </g>
    <path id="Trazado_33627" data-name="Trazado 33627" d="M5.514-6.266A5.881,5.881,0,0,1,2.442-7a3.115,3.115,0,0,1-1.5-2.191L3.4-9.89A1.983,1.983,0,0,0,5.514-8.324a2.178,2.178,0,0,0,1.075-.241.837.837,0,0,0,.42-.814.861.861,0,0,0-.174-.543A1.378,1.378,0,0,0,6.3-10.31a6.7,6.7,0,0,0-.717-.276q-.353-.113-.937-.271t-.973-.3a6.515,6.515,0,0,1-.926-.394,3.952,3.952,0,0,1-.768-.543,2.187,2.187,0,0,1-.573-.824,2.973,2.973,0,0,1-.2-1.126A2.689,2.689,0,0,1,2.345-16.4a5.1,5.1,0,0,1,2.984-.8,5.229,5.229,0,0,1,2.754.676A3.058,3.058,0,0,1,9.5-14.415L7.213-13.9A1.788,1.788,0,0,0,5.34-15.234,2.051,2.051,0,0,0,4.306-15a.757.757,0,0,0-.409.7.8.8,0,0,0,.061.317.628.628,0,0,0,.215.256,3.135,3.135,0,0,0,.3.195,2.24,2.24,0,0,0,.42.169q.276.087.461.133l.537.138.548.143q.563.154.988.307a5.786,5.786,0,0,1,.906.43,3.252,3.252,0,0,1,.793.619,2.762,2.762,0,0,1,.517.87,3.214,3.214,0,0,1,.2,1.172,3.166,3.166,0,0,1-.353,1.525A2.651,2.651,0,0,1,8.523-7a4.709,4.709,0,0,1-1.367.553A7.09,7.09,0,0,1,5.514-6.266ZM12.731-14.8v-2.242h9.04V-14.8Zm0,4.494v-2.242h9.04v2.242ZM29.2-9.1h6.306v2.631H25.077V-8.692L30.964-14.7a3.7,3.7,0,0,0,1.28-2.549,1.8,1.8,0,0,0-.527-1.372,2.076,2.076,0,0,0-1.49-.5q-2.1,0-2.1,2.385v1.1l-2.938-.3v-.737a4.613,4.613,0,0,1,1.351-3.558,5.176,5.176,0,0,1,3.665-1.254,5.422,5.422,0,0,1,3.568,1.136,3.83,3.83,0,0,1,1.377,3.122,4.428,4.428,0,0,1-.466,2.027,8.472,8.472,0,0,1-1.479,1.976ZM48-11.887l-.031.706h-7.8a2.725,2.725,0,0,0,.839,1.925,2.685,2.685,0,0,0,1.853.665,2.587,2.587,0,0,0,1.387-.363,2.234,2.234,0,0,0,.886-1.06l2.7.4a4.6,4.6,0,0,1-1.843,2.467,5.479,5.479,0,0,1-3.112.88,5.7,5.7,0,0,1-4.1-1.449,5.286,5.286,0,0,1-1.52-4.018,5.317,5.317,0,0,1,1.525-4.018,5.528,5.528,0,0,1,4-1.469,5.283,5.283,0,0,1,3.778,1.341A5.261,5.261,0,0,1,48-11.887Zm-5.19-3.245A2.33,2.33,0,0,0,40.249-13.1h4.832a2.216,2.216,0,0,0-.727-1.5A2.3,2.3,0,0,0,42.809-15.132Z" transform="translate(990.614 4729.5)" fill="#fff"/>
  </g>
</svg>
